<?xml version="1.0" encoding="UTF-8" standalone="no"?>
<!DOCTYPE svg PUBLIC "-//W3C//DTD SVG 1.1//EN"
 "http://www.w3.org/Graphics/SVG/1.1/DTD/svg11.dtd">
<!-- Generated by graphviz version 2.49.3 (20211023.0002)
 -->
<!-- Pages: 1 -->
<svg width="752pt" height="332pt"
 viewBox="0.00 0.00 752.04 332.00" xmlns="http://www.w3.org/2000/svg" xmlns:xlink="http://www.w3.org/1999/xlink">
<g id="graph0" class="graph" transform="scale(1 1) rotate(0) translate(4 328)">
<polygon fill="white" stroke="transparent" points="-4,4 -4,-328 748.04,-328 748.04,4 -4,4"/>
<!-- [root] provider[&quot;registry.terraform.io/hashicorp/vault&quot;] -->
<g id="node1" class="node">
<title>[root] provider[&quot;registry.terraform.io/hashicorp/vault&quot;]</title>
<polygon fill="none" stroke="black" points="261.04,-36 -0.04,-18 261.04,0 522.12,-18 261.04,-36"/>
<text text-anchor="middle" x="261.04" y="-14.3" font-family="Times New Roman,serif" font-size="14.00">provider[&quot;registry.terraform.io/hashicorp/vault&quot;]</text>
</g>
<!-- [root] var.accesskey -->
<g id="node2" class="node">
<title>[root] var.accesskey</title>
<polygon fill="none" stroke="black" points="629.54,-36 540.54,-36 540.54,0 635.54,0 635.54,-30 629.54,-36"/>
<polyline fill="none" stroke="black" points="629.54,-36 629.54,-30 "/>
<polyline fill="none" stroke="black" points="635.54,-30 629.54,-30 "/>
<text text-anchor="middle" x="588.04" y="-14.3" font-family="Times New Roman,serif" font-size="14.00">var.accesskey</text>
</g>
<!-- [root] var.secretkey -->
<g id="node3" class="node">
<title>[root] var.secretkey</title>
<polygon fill="none" stroke="black" points="738.04,-36 654.04,-36 654.04,0 744.04,0 744.04,-30 738.04,-36"/>
<polyline fill="none" stroke="black" points="738.04,-36 738.04,-30 "/>
<polyline fill="none" stroke="black" points="744.04,-30 738.04,-30 "/>
<text text-anchor="middle" x="699.04" y="-14.3" font-family="Times New Roman,serif" font-size="14.00">var.secretkey</text>
</g>
<!-- [root] vault_aws_secret_backend.aws (expand) -->
<g id="node4" class="node">
<title>[root] vault_aws_secret_backend.aws (expand)</title>
<polygon fill="none" stroke="black" points="654.54,-108 461.54,-108 461.54,-72 654.54,-72 654.54,-108"/>
<text text-anchor="middle" x="558.04" y="-86.3" font-family="Times New Roman,serif" font-size="14.00">vault_aws_secret_backend.aws</text>
</g>
<!-- [root] vault_aws_secret_backend.aws (expand)&#45;&gt;[root] provider[&quot;registry.terraform.io/hashicorp/vault&quot;] -->
<g id="edge4" class="edge">
<title>[root] vault_aws_secret_backend.aws (expand)&#45;&gt;[root] provider[&quot;registry.terraform.io/hashicorp/vault&quot;]</title>
<path fill="none" stroke="black" d="M485.77,-71.97C437.35,-60.56 374.11,-45.65 327.06,-34.56"/>
<polygon fill="black" stroke="black" points="327.81,-31.14 317.27,-32.25 326.2,-37.95 327.81,-31.14"/>
</g>
<!-- [root] vault_aws_secret_backend.aws (expand)&#45;&gt;[root] var.accesskey -->
<g id="edge5" class="edge">
<title>[root] vault_aws_secret_backend.aws (expand)&#45;&gt;[root] var.accesskey</title>
<path fill="none" stroke="black" d="M565.46,-71.7C568.84,-63.81 572.91,-54.3 576.66,-45.55"/>
<polygon fill="black" stroke="black" points="579.99,-46.67 580.71,-36.1 573.55,-43.92 579.99,-46.67"/>
</g>
<!-- [root] vault_aws_secret_backend.aws (expand)&#45;&gt;[root] var.secretkey -->
<g id="edge6" class="edge">
<title>[root] vault_aws_secret_backend.aws (expand)&#45;&gt;[root] var.secretkey</title>
<path fill="none" stroke="black" d="M592.53,-71.88C611.48,-62.47 635.17,-50.71 655.4,-40.67"/>
<polygon fill="black" stroke="black" points="657.02,-43.77 664.42,-36.19 653.9,-37.5 657.02,-43.77"/>
</g>
<!-- [root] vault_aws_secret_backend_role.role (expand) -->
<g id="node5" class="node">
<title>[root] vault_aws_secret_backend_role.role (expand)</title>
<polygon fill="none" stroke="black" points="636.54,-180 415.54,-180 415.54,-144 636.54,-144 636.54,-180"/>
<text text-anchor="middle" x="526.04" y="-158.3" font-family="Times New Roman,serif" font-size="14.00">vault_aws_secret_backend_role.role</text>
</g>
<!-- [root] vault_aws_secret_backend_role.role (expand)&#45;&gt;[root] vault_aws_secret_backend.aws (expand) -->
<g id="edge7" class="edge">
<title>[root] vault_aws_secret_backend_role.role (expand)&#45;&gt;[root] vault_aws_secret_backend.aws (expand)</title>
<path fill="none" stroke="black" d="M533.95,-143.7C537.59,-135.73 542,-126.1 546.03,-117.26"/>
<polygon fill="black" stroke="black" points="549.25,-118.65 550.22,-108.1 542.88,-115.74 549.25,-118.65"/>
</g>
<!-- [root] vault_policy.aws&#45;admin&#45;policy (expand) -->
<g id="node6" class="node">
<title>[root] vault_policy.aws&#45;admin&#45;policy (expand)</title>
<polygon fill="none" stroke="black" points="414.04,-108 226.04,-108 226.04,-72 414.04,-72 414.04,-108"/>
<text text-anchor="middle" x="320.04" y="-86.3" font-family="Times New Roman,serif" font-size="14.00">vault_policy.aws&#45;admin&#45;policy</text>
</g>
<!-- [root] vault_policy.aws&#45;admin&#45;policy (expand)&#45;&gt;[root] provider[&quot;registry.terraform.io/hashicorp/vault&quot;] -->
<g id="edge8" class="edge">
<title>[root] vault_policy.aws&#45;admin&#45;policy (expand)&#45;&gt;[root] provider[&quot;registry.terraform.io/hashicorp/vault&quot;]</title>
<path fill="none" stroke="black" d="M305.46,-71.7C298.17,-63.05 289.24,-52.46 281.3,-43.04"/>
<polygon fill="black" stroke="black" points="283.77,-40.54 274.65,-35.14 278.42,-45.05 283.77,-40.54"/>
</g>
<!-- [root] provider[&quot;registry.terraform.io/hashicorp/vault&quot;] (close) -->
<g id="node7" class="node">
<title>[root] provider[&quot;registry.terraform.io/hashicorp/vault&quot;] (close)</title>
<ellipse fill="none" stroke="black" cx="424.04" cy="-234" rx="235.06" ry="18"/>
<text text-anchor="middle" x="424.04" y="-230.3" font-family="Times New Roman,serif" font-size="14.00">[root] provider[&quot;registry.terraform.io/hashicorp/vault&quot;] (close)</text>
</g>
<!-- [root] provider[&quot;registry.terraform.io/hashicorp/vault&quot;] (close)&#45;&gt;[root] vault_aws_secret_backend_role.role (expand) -->
<g id="edge1" class="edge">
<title>[root] provider[&quot;registry.terraform.io/hashicorp/vault&quot;] (close)&#45;&gt;[root] vault_aws_secret_backend_role.role (expand)</title>
<path fill="none" stroke="black" d="M448.73,-216.05C461.91,-207.01 478.33,-195.74 492.63,-185.93"/>
<polygon fill="black" stroke="black" points="494.96,-188.58 501.22,-180.03 491,-182.8 494.96,-188.58"/>
</g>
<!-- [root] provider[&quot;registry.terraform.io/hashicorp/vault&quot;] (close)&#45;&gt;[root] vault_policy.aws&#45;admin&#45;policy (expand) -->
<g id="edge2" class="edge">
<title>[root] provider[&quot;registry.terraform.io/hashicorp/vault&quot;] (close)&#45;&gt;[root] vault_policy.aws&#45;admin&#45;policy (expand)</title>
<path fill="none" stroke="black" d="M411.5,-215.87C393.38,-191.14 359.77,-145.24 338.73,-116.51"/>
<polygon fill="black" stroke="black" points="341.36,-114.19 332.63,-108.19 335.72,-118.33 341.36,-114.19"/>
</g>
<!-- [root] root -->
<g id="node8" class="node">
<title>[root] root</title>
<ellipse fill="none" stroke="black" cx="424.04" cy="-306" rx="49.29" ry="18"/>
<text text-anchor="middle" x="424.04" y="-302.3" font-family="Times New Roman,serif" font-size="14.00">[root] root</text>
</g>
<!-- [root] root&#45;&gt;[root] provider[&quot;registry.terraform.io/hashicorp/vault&quot;] (close) -->
<g id="edge3" class="edge">
<title>[root] root&#45;&gt;[root] provider[&quot;registry.terraform.io/hashicorp/vault&quot;] (close)</title>
<path fill="none" stroke="black" d="M424.04,-287.7C424.04,-279.98 424.04,-270.71 424.04,-262.11"/>
<polygon fill="black" stroke="black" points="427.54,-262.1 424.04,-252.1 420.54,-262.1 427.54,-262.1"/>
</g>
</g>
</svg>
