<?xml version="1.0" encoding="UTF-8" standalone="no"?>
<!DOCTYPE svg PUBLIC "-//W3C//DTD SVG 1.1//EN"
 "http://www.w3.org/Graphics/SVG/1.1/DTD/svg11.dtd">
<!-- Generated by graphviz version 2.49.3 (20211023.0002)
 -->
<!-- Pages: 1 -->
<svg width="1345pt" height="476pt"
 viewBox="0.00 0.00 1345.41 476.00" xmlns="http://www.w3.org/2000/svg" xmlns:xlink="http://www.w3.org/1999/xlink">
<g id="graph0" class="graph" transform="scale(1 1) rotate(0) translate(4 472)">
<polygon fill="white" stroke="transparent" points="-4,4 -4,-472 1341.41,-472 1341.41,4 -4,4"/>
<!-- [root] aws_cloudwatch_log_group.lambda_loggroup (expand) -->
<g id="node1" class="node">
<title>[root] aws_cloudwatch_log_group.lambda_loggroup (expand)</title>
<polygon fill="none" stroke="black" points="843.91,-180 565.91,-180 565.91,-144 843.91,-144 843.91,-180"/>
<text text-anchor="middle" x="704.91" y="-158.3" font-family="Times New Roman,serif" font-size="14.00">aws_cloudwatch_log_group.lambda_loggroup</text>
</g>
<!-- [root] provider[&quot;registry.terraform.io/hashicorp/aws&quot;] -->
<g id="node9" class="node">
<title>[root] provider[&quot;registry.terraform.io/hashicorp/aws&quot;]</title>
<polygon fill="none" stroke="black" points="865.91,-108 608.68,-90 865.91,-72 1123.14,-90 865.91,-108"/>
<text text-anchor="middle" x="865.91" y="-86.3" font-family="Times New Roman,serif" font-size="14.00">provider[&quot;registry.terraform.io/hashicorp/aws&quot;]</text>
</g>
<!-- [root] aws_cloudwatch_log_group.lambda_loggroup (expand)&#45;&gt;[root] provider[&quot;registry.terraform.io/hashicorp/aws&quot;] -->
<g id="edge1" class="edge">
<title>[root] aws_cloudwatch_log_group.lambda_loggroup (expand)&#45;&gt;[root] provider[&quot;registry.terraform.io/hashicorp/aws&quot;]</title>
<path fill="none" stroke="black" d="M744.29,-143.88C768.05,-133.55 798.32,-120.38 822.73,-109.77"/>
<polygon fill="black" stroke="black" points="824.33,-112.89 832.11,-105.7 821.54,-106.47 824.33,-112.89"/>
</g>
<!-- [root] var.lambda_function_name -->
<g id="node10" class="node">
<title>[root] var.lambda_function_name</title>
<polygon fill="none" stroke="black" points="584.91,-108 422.91,-108 422.91,-72 590.91,-72 590.91,-102 584.91,-108"/>
<polyline fill="none" stroke="black" points="584.91,-108 584.91,-102 "/>
<polyline fill="none" stroke="black" points="590.91,-102 584.91,-102 "/>
<text text-anchor="middle" x="506.91" y="-86.3" font-family="Times New Roman,serif" font-size="14.00">var.lambda_function_name</text>
</g>
<!-- [root] aws_cloudwatch_log_group.lambda_loggroup (expand)&#45;&gt;[root] var.lambda_function_name -->
<g id="edge2" class="edge">
<title>[root] aws_cloudwatch_log_group.lambda_loggroup (expand)&#45;&gt;[root] var.lambda_function_name</title>
<path fill="none" stroke="black" d="M656.73,-143.97C629.06,-134.19 594.13,-121.84 564.96,-111.52"/>
<polygon fill="black" stroke="black" points="565.9,-108.14 555.31,-108.11 563.57,-114.74 565.9,-108.14"/>
</g>
<!-- [root] var.project -->
<g id="node11" class="node">
<title>[root] var.project</title>
<polygon fill="none" stroke="black" points="1212.41,-108 1141.41,-108 1141.41,-72 1218.41,-72 1218.41,-102 1212.41,-108"/>
<polyline fill="none" stroke="black" points="1212.41,-108 1212.41,-102 "/>
<polyline fill="none" stroke="black" points="1218.41,-102 1212.41,-102 "/>
<text text-anchor="middle" x="1179.91" y="-86.3" font-family="Times New Roman,serif" font-size="14.00">var.project</text>
</g>
<!-- [root] aws_cloudwatch_log_group.lambda_loggroup (expand)&#45;&gt;[root] var.project -->
<g id="edge3" class="edge">
<title>[root] aws_cloudwatch_log_group.lambda_loggroup (expand)&#45;&gt;[root] var.project</title>
<path fill="none" stroke="black" d="M844.13,-144.45C952.1,-131.51 1089.12,-114.83 1131.41,-107.44"/>
<polygon fill="black" stroke="black" points="1132.23,-110.85 1141.35,-105.47 1130.86,-103.98 1132.23,-110.85"/>
</g>
<!-- [root] aws_dynamodb_table.product_table (expand) -->
<g id="node2" class="node">
<title>[root] aws_dynamodb_table.product_table (expand)</title>
<polygon fill="none" stroke="black" points="1290.41,-180 1069.41,-180 1069.41,-144 1290.41,-144 1290.41,-180"/>
<text text-anchor="middle" x="1179.91" y="-158.3" font-family="Times New Roman,serif" font-size="14.00">aws_dynamodb_table.product_table</text>
</g>
<!-- [root] aws_dynamodb_table.product_table (expand)&#45;&gt;[root] provider[&quot;registry.terraform.io/hashicorp/aws&quot;] -->
<g id="edge4" class="edge">
<title>[root] aws_dynamodb_table.product_table (expand)&#45;&gt;[root] provider[&quot;registry.terraform.io/hashicorp/aws&quot;]</title>
<path fill="none" stroke="black" d="M1103.5,-143.97C1051.87,-132.46 984.29,-117.39 934.41,-106.27"/>
<polygon fill="black" stroke="black" points="934.88,-102.79 924.36,-104.03 933.36,-109.62 934.88,-102.79"/>
</g>
<!-- [root] aws_dynamodb_table.product_table (expand)&#45;&gt;[root] var.project -->
<g id="edge5" class="edge">
<title>[root] aws_dynamodb_table.product_table (expand)&#45;&gt;[root] var.project</title>
<path fill="none" stroke="black" d="M1179.91,-143.7C1179.91,-135.98 1179.91,-126.71 1179.91,-118.11"/>
<polygon fill="black" stroke="black" points="1183.41,-118.1 1179.91,-108.1 1176.41,-118.1 1183.41,-118.1"/>
</g>
<!-- [root] var.table_name -->
<g id="node13" class="node">
<title>[root] var.table_name</title>
<polygon fill="none" stroke="black" points="1331.41,-108 1236.41,-108 1236.41,-72 1337.41,-72 1337.41,-102 1331.41,-108"/>
<polyline fill="none" stroke="black" points="1331.41,-108 1331.41,-102 "/>
<polyline fill="none" stroke="black" points="1337.41,-102 1331.41,-102 "/>
<text text-anchor="middle" x="1286.91" y="-86.3" font-family="Times New Roman,serif" font-size="14.00">var.table_name</text>
</g>
<!-- [root] aws_dynamodb_table.product_table (expand)&#45;&gt;[root] var.table_name -->
<g id="edge6" class="edge">
<title>[root] aws_dynamodb_table.product_table (expand)&#45;&gt;[root] var.table_name</title>
<path fill="none" stroke="black" d="M1206.08,-143.88C1219.94,-134.81 1237.15,-123.55 1252.12,-113.76"/>
<polygon fill="black" stroke="black" points="1254.18,-116.59 1260.63,-108.19 1250.35,-110.74 1254.18,-116.59"/>
</g>
<!-- [root] aws_iam_policy.lambda_logging (expand) -->
<g id="node3" class="node">
<title>[root] aws_iam_policy.lambda_logging (expand)</title>
<polygon fill="none" stroke="black" points="1231.91,-252 1031.91,-252 1031.91,-216 1231.91,-216 1231.91,-252"/>
<text text-anchor="middle" x="1131.91" y="-230.3" font-family="Times New Roman,serif" font-size="14.00">aws_iam_policy.lambda_logging</text>
</g>
<!-- [root] aws_iam_policy.lambda_logging (expand)&#45;&gt;[root] aws_dynamodb_table.product_table (expand) -->
<g id="edge7" class="edge">
<title>[root] aws_iam_policy.lambda_logging (expand)&#45;&gt;[root] aws_dynamodb_table.product_table (expand)</title>
<path fill="none" stroke="black" d="M1143.77,-215.7C1149.41,-207.47 1156.26,-197.48 1162.48,-188.42"/>
<polygon fill="black" stroke="black" points="1165.41,-190.33 1168.18,-180.1 1159.64,-186.37 1165.41,-190.33"/>
</g>
<!-- [root] aws_iam_role.iam_for_lambda (expand) -->
<g id="node4" class="node">
<title>[root] aws_iam_role.iam_for_lambda (expand)</title>
<polygon fill="none" stroke="black" points="1051.41,-180 862.41,-180 862.41,-144 1051.41,-144 1051.41,-180"/>
<text text-anchor="middle" x="956.91" y="-158.3" font-family="Times New Roman,serif" font-size="14.00">aws_iam_role.iam_for_lambda</text>
</g>
<!-- [root] aws_iam_role.iam_for_lambda (expand)&#45;&gt;[root] provider[&quot;registry.terraform.io/hashicorp/aws&quot;] -->
<g id="edge8" class="edge">
<title>[root] aws_iam_role.iam_for_lambda (expand)&#45;&gt;[root] provider[&quot;registry.terraform.io/hashicorp/aws&quot;]</title>
<path fill="none" stroke="black" d="M934.41,-143.7C922.33,-134.4 907.3,-122.84 894.4,-112.91"/>
<polygon fill="black" stroke="black" points="896.34,-109.99 886.28,-106.67 892.07,-115.54 896.34,-109.99"/>
</g>
<!-- [root] aws_iam_role.iam_for_lambda (expand)&#45;&gt;[root] var.lambda_function_name -->
<g id="edge9" class="edge">
<title>[root] aws_iam_role.iam_for_lambda (expand)&#45;&gt;[root] var.lambda_function_name</title>
<path fill="none" stroke="black" d="M862.26,-145.44C859.11,-144.95 855.98,-144.47 852.91,-144 743.82,-127.32 713.7,-126.26 601.09,-108.16"/>
<polygon fill="black" stroke="black" points="601.46,-104.67 591.03,-106.53 600.35,-111.58 601.46,-104.67"/>
</g>
<!-- [root] aws_iam_role.iam_for_lambda (expand)&#45;&gt;[root] var.project -->
<g id="edge10" class="edge">
<title>[root] aws_iam_role.iam_for_lambda (expand)&#45;&gt;[root] var.project</title>
<path fill="none" stroke="black" d="M1015.85,-143.89C1047.57,-134.51 1087.54,-122.41 1131.46,-108.08"/>
<polygon fill="black" stroke="black" points="1132.78,-111.33 1141.19,-104.89 1130.6,-104.68 1132.78,-111.33"/>
</g>
<!-- [root] aws_iam_role_policy_attachment.lambda_logs (expand) -->
<g id="node5" class="node">
<title>[root] aws_iam_role_policy_attachment.lambda_logs (expand)</title>
<polygon fill="none" stroke="black" points="1095.91,-324 817.91,-324 817.91,-288 1095.91,-288 1095.91,-324"/>
<text text-anchor="middle" x="956.91" y="-302.3" font-family="Times New Roman,serif" font-size="14.00">aws_iam_role_policy_attachment.lambda_logs</text>
</g>
<!-- [root] aws_iam_role_policy_attachment.lambda_logs (expand)&#45;&gt;[root] aws_iam_policy.lambda_logging (expand) -->
<g id="edge11" class="edge">
<title>[root] aws_iam_role_policy_attachment.lambda_logs (expand)&#45;&gt;[root] aws_iam_policy.lambda_logging (expand)</title>
<path fill="none" stroke="black" d="M999.72,-287.88C1023.85,-278.22 1054.19,-266.09 1079.72,-255.88"/>
<polygon fill="black" stroke="black" points="1081.25,-259.03 1089.24,-252.07 1078.65,-252.53 1081.25,-259.03"/>
</g>
<!-- [root] aws_iam_role_policy_attachment.lambda_logs (expand)&#45;&gt;[root] aws_iam_role.iam_for_lambda (expand) -->
<g id="edge12" class="edge">
<title>[root] aws_iam_role_policy_attachment.lambda_logs (expand)&#45;&gt;[root] aws_iam_role.iam_for_lambda (expand)</title>
<path fill="none" stroke="black" d="M956.91,-287.87C956.91,-263.67 956.91,-219.21 956.91,-190.39"/>
<polygon fill="black" stroke="black" points="960.41,-190.19 956.91,-180.19 953.41,-190.19 960.41,-190.19"/>
</g>
<!-- [root] aws_lambda_function.lambda (expand) -->
<g id="node6" class="node">
<title>[root] aws_lambda_function.lambda (expand)</title>
<polygon fill="none" stroke="black" points="798.91,-324 614.91,-324 614.91,-288 798.91,-288 798.91,-324"/>
<text text-anchor="middle" x="706.91" y="-302.3" font-family="Times New Roman,serif" font-size="14.00">aws_lambda_function.lambda</text>
</g>
<!-- [root] aws_lambda_function.lambda (expand)&#45;&gt;[root] aws_cloudwatch_log_group.lambda_loggroup (expand) -->
<g id="edge13" class="edge">
<title>[root] aws_lambda_function.lambda (expand)&#45;&gt;[root] aws_cloudwatch_log_group.lambda_loggroup (expand)</title>
<path fill="none" stroke="black" d="M706.67,-287.87C706.33,-263.67 705.7,-219.21 705.29,-190.39"/>
<polygon fill="black" stroke="black" points="708.79,-190.14 705.15,-180.19 701.79,-190.24 708.79,-190.14"/>
</g>
<!-- [root] aws_lambda_function.lambda (expand)&#45;&gt;[root] aws_iam_role.iam_for_lambda (expand) -->
<g id="edge14" class="edge">
<title>[root] aws_lambda_function.lambda (expand)&#45;&gt;[root] aws_iam_role.iam_for_lambda (expand)</title>
<path fill="none" stroke="black" d="M737.06,-287.87C782.3,-262.18 867.74,-213.65 917.74,-185.25"/>
<polygon fill="black" stroke="black" points="919.68,-188.17 926.65,-180.19 916.22,-182.08 919.68,-188.17"/>
</g>
<!-- [root] data.archive_file.lambda (expand) -->
<g id="node7" class="node">
<title>[root] data.archive_file.lambda (expand)</title>
<polygon fill="none" stroke="black" points="443.91,-252 291.91,-252 291.91,-216 443.91,-216 443.91,-252"/>
<text text-anchor="middle" x="367.91" y="-230.3" font-family="Times New Roman,serif" font-size="14.00">data.archive_file.lambda</text>
</g>
<!-- [root] aws_lambda_function.lambda (expand)&#45;&gt;[root] data.archive_file.lambda (expand) -->
<g id="edge15" class="edge">
<title>[root] aws_lambda_function.lambda (expand)&#45;&gt;[root] data.archive_file.lambda (expand)</title>
<path fill="none" stroke="black" d="M624.41,-287.97C572.77,-277.3 506.34,-263.58 454.02,-252.78"/>
<polygon fill="black" stroke="black" points="454.59,-249.33 444.09,-250.73 453.18,-256.18 454.59,-249.33"/>
</g>
<!-- [root] provider[&quot;registry.terraform.io/hashicorp/archive&quot;] -->
<g id="node8" class="node">
<title>[root] provider[&quot;registry.terraform.io/hashicorp/archive&quot;]</title>
<polygon fill="none" stroke="black" points="273.91,-180 0.09,-162 273.91,-144 547.73,-162 273.91,-180"/>
<text text-anchor="middle" x="273.91" y="-158.3" font-family="Times New Roman,serif" font-size="14.00">provider[&quot;registry.terraform.io/hashicorp/archive&quot;]</text>
</g>
<!-- [root] data.archive_file.lambda (expand)&#45;&gt;[root] provider[&quot;registry.terraform.io/hashicorp/archive&quot;] -->
<g id="edge16" class="edge">
<title>[root] data.archive_file.lambda (expand)&#45;&gt;[root] provider[&quot;registry.terraform.io/hashicorp/archive&quot;]</title>
<path fill="none" stroke="black" d="M344.67,-215.7C332.19,-206.4 316.66,-194.84 303.34,-184.91"/>
<polygon fill="black" stroke="black" points="305.06,-181.84 294.95,-178.67 300.88,-187.45 305.06,-181.84"/>
</g>
<!-- [root] var.region -->
<g id="node12" class="node">
<title>[root] var.region</title>
<polygon fill="none" stroke="black" points="895.91,-36 829.91,-36 829.91,0 901.91,0 901.91,-30 895.91,-36"/>
<polyline fill="none" stroke="black" points="895.91,-36 895.91,-30 "/>
<polyline fill="none" stroke="black" points="901.91,-30 895.91,-30 "/>
<text text-anchor="middle" x="865.91" y="-14.3" font-family="Times New Roman,serif" font-size="14.00">var.region</text>
</g>
<!-- [root] provider[&quot;registry.terraform.io/hashicorp/aws&quot;]&#45;&gt;[root] var.region -->
<g id="edge20" class="edge">
<title>[root] provider[&quot;registry.terraform.io/hashicorp/aws&quot;]&#45;&gt;[root] var.region</title>
<path fill="none" stroke="black" d="M865.91,-71.7C865.91,-63.98 865.91,-54.71 865.91,-46.11"/>
<polygon fill="black" stroke="black" points="869.41,-46.1 865.91,-36.1 862.41,-46.1 869.41,-46.1"/>
</g>
<!-- [root] provider[&quot;registry.terraform.io/hashicorp/archive&quot;] (close) -->
<g id="node14" class="node">
<title>[root] provider[&quot;registry.terraform.io/hashicorp/archive&quot;] (close)</title>
<ellipse fill="none" stroke="black" cx="367.91" cy="-378" rx="244.26" ry="18"/>
<text text-anchor="middle" x="367.91" y="-374.3" font-family="Times New Roman,serif" font-size="14.00">[root] provider[&quot;registry.terraform.io/hashicorp/archive&quot;] (close)</text>
</g>
<!-- [root] provider[&quot;registry.terraform.io/hashicorp/archive&quot;] (close)&#45;&gt;[root] data.archive_file.lambda (expand) -->
<g id="edge17" class="edge">
<title>[root] provider[&quot;registry.terraform.io/hashicorp/archive&quot;] (close)&#45;&gt;[root] data.archive_file.lambda (expand)</title>
<path fill="none" stroke="black" d="M367.91,-359.87C367.91,-335.67 367.91,-291.21 367.91,-262.39"/>
<polygon fill="black" stroke="black" points="371.41,-262.19 367.91,-252.19 364.41,-262.19 371.41,-262.19"/>
</g>
<!-- [root] provider[&quot;registry.terraform.io/hashicorp/aws&quot;] (close) -->
<g id="node15" class="node">
<title>[root] provider[&quot;registry.terraform.io/hashicorp/aws&quot;] (close)</title>
<ellipse fill="none" stroke="black" cx="862.91" cy="-378" rx="232.86" ry="18"/>
<text text-anchor="middle" x="862.91" y="-374.3" font-family="Times New Roman,serif" font-size="14.00">[root] provider[&quot;registry.terraform.io/hashicorp/aws&quot;] (close)</text>
</g>
<!-- [root] provider[&quot;registry.terraform.io/hashicorp/aws&quot;] (close)&#45;&gt;[root] aws_iam_role_policy_attachment.lambda_logs (expand) -->
<g id="edge18" class="edge">
<title>[root] provider[&quot;registry.terraform.io/hashicorp/aws&quot;] (close)&#45;&gt;[root] aws_iam_role_policy_attachment.lambda_logs (expand)</title>
<path fill="none" stroke="black" d="M885.66,-360.05C897.7,-351.09 912.65,-339.96 925.75,-330.2"/>
<polygon fill="black" stroke="black" points="928.11,-332.81 934.04,-324.03 923.93,-327.2 928.11,-332.81"/>
</g>
<!-- [root] provider[&quot;registry.terraform.io/hashicorp/aws&quot;] (close)&#45;&gt;[root] aws_lambda_function.lambda (expand) -->
<g id="edge19" class="edge">
<title>[root] provider[&quot;registry.terraform.io/hashicorp/aws&quot;] (close)&#45;&gt;[root] aws_lambda_function.lambda (expand)</title>
<path fill="none" stroke="black" d="M825.54,-360.23C804.15,-350.63 777.11,-338.5 754.24,-328.24"/>
<polygon fill="black" stroke="black" points="755.61,-325.02 745.05,-324.12 752.74,-331.4 755.61,-325.02"/>
</g>
<!-- [root] root -->
<g id="node16" class="node">
<title>[root] root</title>
<ellipse fill="none" stroke="black" cx="614.91" cy="-450" rx="49.29" ry="18"/>
<text text-anchor="middle" x="614.91" y="-446.3" font-family="Times New Roman,serif" font-size="14.00">[root] root</text>
</g>
<!-- [root] root&#45;&gt;[root] provider[&quot;registry.terraform.io/hashicorp/archive&quot;] (close) -->
<g id="edge21" class="edge">
<title>[root] root&#45;&gt;[root] provider[&quot;registry.terraform.io/hashicorp/archive&quot;] (close)</title>
<path fill="none" stroke="black" d="M577.13,-438.29C539.73,-427.7 481.65,-411.24 436.17,-398.34"/>
<polygon fill="black" stroke="black" points="436.94,-394.93 426.37,-395.57 435.04,-401.66 436.94,-394.93"/>
</g>
<!-- [root] root&#45;&gt;[root] provider[&quot;registry.terraform.io/hashicorp/aws&quot;] (close) -->
<g id="edge22" class="edge">
<title>[root] root&#45;&gt;[root] provider[&quot;registry.terraform.io/hashicorp/aws&quot;] (close)</title>
<path fill="none" stroke="black" d="M652.84,-438.29C690.52,-427.66 749.1,-411.12 794.84,-398.21"/>
<polygon fill="black" stroke="black" points="796.01,-401.52 804.68,-395.43 794.11,-394.78 796.01,-401.52"/>
</g>
</g>
</svg>
