<?xml version="1.0" encoding="UTF-8" standalone="no"?>
<!DOCTYPE svg PUBLIC "-//W3C//DTD SVG 1.1//EN"
 "http://www.w3.org/Graphics/SVG/1.1/DTD/svg11.dtd">
<!-- Generated by graphviz version 2.49.3 (20211023.0002)
 -->
<!-- Pages: 1 -->
<svg width="1714pt" height="476pt"
 viewBox="0.00 0.00 1714.41 476.00" xmlns="http://www.w3.org/2000/svg" xmlns:xlink="http://www.w3.org/1999/xlink">
<g id="graph0" class="graph" transform="scale(1 1) rotate(0) translate(4 472)">
<polygon fill="white" stroke="transparent" points="-4,4 -4,-472 1710.41,-472 1710.41,4 -4,4"/>
<!-- [root] aws_apigatewayv2_api.lambda (expand) -->
<g id="node1" class="node">
<title>[root] aws_apigatewayv2_api.lambda (expand)</title>
<polygon fill="none" stroke="black" points="422,-252 233,-252 233,-216 422,-216 422,-252"/>
<text text-anchor="middle" x="327.5" y="-230.3" font-family="Times New Roman,serif" font-size="14.00">aws_apigatewayv2_api.lambda</text>
</g>
<!-- [root] provider[&quot;registry.terraform.io/hashicorp/aws&quot;] -->
<g id="node16" class="node">
<title>[root] provider[&quot;registry.terraform.io/hashicorp/aws&quot;]</title>
<polygon fill="none" stroke="black" points="631.5,-108 374.27,-90 631.5,-72 888.73,-90 631.5,-108"/>
<text text-anchor="middle" x="631.5" y="-86.3" font-family="Times New Roman,serif" font-size="14.00">provider[&quot;registry.terraform.io/hashicorp/aws&quot;]</text>
</g>
<!-- [root] aws_apigatewayv2_api.lambda (expand)&#45;&gt;[root] provider[&quot;registry.terraform.io/hashicorp/aws&quot;] -->
<g id="edge1" class="edge">
<title>[root] aws_apigatewayv2_api.lambda (expand)&#45;&gt;[root] provider[&quot;registry.terraform.io/hashicorp/aws&quot;]</title>
<path fill="none" stroke="black" d="M386.2,-215.96C411.62,-207.21 441.09,-195.17 465.5,-180 485.54,-167.55 484.65,-156.74 504.5,-144 527.21,-129.43 554.6,-117.4 578.12,-108.51"/>
<polygon fill="black" stroke="black" points="579.43,-111.75 587.6,-105.01 577.01,-105.19 579.43,-111.75"/>
</g>
<!-- [root] var.project -->
<g id="node19" class="node">
<title>[root] var.project</title>
<polygon fill="none" stroke="black" points="350,-108 279,-108 279,-72 356,-72 356,-102 350,-108"/>
<polyline fill="none" stroke="black" points="350,-108 350,-102 "/>
<polyline fill="none" stroke="black" points="356,-102 350,-102 "/>
<text text-anchor="middle" x="317.5" y="-86.3" font-family="Times New Roman,serif" font-size="14.00">var.project</text>
</g>
<!-- [root] aws_apigatewayv2_api.lambda (expand)&#45;&gt;[root] var.project -->
<g id="edge2" class="edge">
<title>[root] aws_apigatewayv2_api.lambda (expand)&#45;&gt;[root] var.project</title>
<path fill="none" stroke="black" d="M232.71,-221.45C208.21,-213.68 184.54,-200.9 169.5,-180 160.16,-167.01 160.29,-157.08 169.5,-144 169.89,-143.45 226.21,-123.38 269.25,-108.1"/>
<polygon fill="black" stroke="black" points="270.5,-111.37 278.76,-104.72 268.16,-104.77 270.5,-111.37"/>
</g>
<!-- [root] aws_apigatewayv2_integration.apiintegration (expand) -->
<g id="node2" class="node">
<title>[root] aws_apigatewayv2_integration.apiintegration (expand)</title>
<polygon fill="none" stroke="black" points="719.5,-324 455.5,-324 455.5,-288 719.5,-288 719.5,-324"/>
<text text-anchor="middle" x="587.5" y="-302.3" font-family="Times New Roman,serif" font-size="14.00">aws_apigatewayv2_integration.apiintegration</text>
</g>
<!-- [root] aws_apigatewayv2_integration.apiintegration (expand)&#45;&gt;[root] aws_apigatewayv2_api.lambda (expand) -->
<g id="edge3" class="edge">
<title>[root] aws_apigatewayv2_integration.apiintegration (expand)&#45;&gt;[root] aws_apigatewayv2_api.lambda (expand)</title>
<path fill="none" stroke="black" d="M524.23,-287.97C486.95,-277.93 439.64,-265.19 400.75,-254.72"/>
<polygon fill="black" stroke="black" points="401.62,-251.33 391.05,-252.11 399.8,-258.09 401.62,-251.33"/>
</g>
<!-- [root] aws_lambda_function.lambda (expand) -->
<g id="node9" class="node">
<title>[root] aws_lambda_function.lambda (expand)</title>
<polygon fill="none" stroke="black" points="673.5,-252 489.5,-252 489.5,-216 673.5,-216 673.5,-252"/>
<text text-anchor="middle" x="581.5" y="-230.3" font-family="Times New Roman,serif" font-size="14.00">aws_lambda_function.lambda</text>
</g>
<!-- [root] aws_apigatewayv2_integration.apiintegration (expand)&#45;&gt;[root] aws_lambda_function.lambda (expand) -->
<g id="edge4" class="edge">
<title>[root] aws_apigatewayv2_integration.apiintegration (expand)&#45;&gt;[root] aws_lambda_function.lambda (expand)</title>
<path fill="none" stroke="black" d="M586.02,-287.7C585.36,-279.98 584.56,-270.71 583.82,-262.11"/>
<polygon fill="black" stroke="black" points="587.31,-261.77 582.97,-252.1 580.33,-262.37 587.31,-261.77"/>
</g>
<!-- [root] aws_cloudwatch_log_group.api_gw (expand) -->
<g id="node3" class="node">
<title>[root] aws_cloudwatch_log_group.api_gw (expand)</title>
<polygon fill="none" stroke="black" points="437.5,-324 217.5,-324 217.5,-288 437.5,-288 437.5,-324"/>
<text text-anchor="middle" x="327.5" y="-302.3" font-family="Times New Roman,serif" font-size="14.00">aws_cloudwatch_log_group.api_gw</text>
</g>
<!-- [root] aws_cloudwatch_log_group.api_gw (expand)&#45;&gt;[root] aws_apigatewayv2_api.lambda (expand) -->
<g id="edge5" class="edge">
<title>[root] aws_cloudwatch_log_group.api_gw (expand)&#45;&gt;[root] aws_apigatewayv2_api.lambda (expand)</title>
<path fill="none" stroke="black" d="M327.5,-287.7C327.5,-279.98 327.5,-270.71 327.5,-262.11"/>
<polygon fill="black" stroke="black" points="331,-262.1 327.5,-252.1 324,-262.1 331,-262.1"/>
</g>
<!-- [root] aws_cloudwatch_log_group.lambda_loggroup (expand) -->
<g id="node4" class="node">
<title>[root] aws_cloudwatch_log_group.lambda_loggroup (expand)</title>
<polygon fill="none" stroke="black" points="456.5,-180 178.5,-180 178.5,-144 456.5,-144 456.5,-180"/>
<text text-anchor="middle" x="317.5" y="-158.3" font-family="Times New Roman,serif" font-size="14.00">aws_cloudwatch_log_group.lambda_loggroup</text>
</g>
<!-- [root] aws_cloudwatch_log_group.lambda_loggroup (expand)&#45;&gt;[root] provider[&quot;registry.terraform.io/hashicorp/aws&quot;] -->
<g id="edge6" class="edge">
<title>[root] aws_cloudwatch_log_group.lambda_loggroup (expand)&#45;&gt;[root] provider[&quot;registry.terraform.io/hashicorp/aws&quot;]</title>
<path fill="none" stroke="black" d="M393.91,-143.97C445.54,-132.46 513.12,-117.39 563,-106.27"/>
<polygon fill="black" stroke="black" points="564.05,-109.62 573.05,-104.03 562.53,-102.79 564.05,-109.62"/>
</g>
<!-- [root] var.lambda_function_name -->
<g id="node18" class="node">
<title>[root] var.lambda_function_name</title>
<polygon fill="none" stroke="black" points="254.5,-108 92.5,-108 92.5,-72 260.5,-72 260.5,-102 254.5,-108"/>
<polyline fill="none" stroke="black" points="254.5,-108 254.5,-102 "/>
<polyline fill="none" stroke="black" points="260.5,-102 254.5,-102 "/>
<text text-anchor="middle" x="176.5" y="-86.3" font-family="Times New Roman,serif" font-size="14.00">var.lambda_function_name</text>
</g>
<!-- [root] aws_cloudwatch_log_group.lambda_loggroup (expand)&#45;&gt;[root] var.lambda_function_name -->
<g id="edge7" class="edge">
<title>[root] aws_cloudwatch_log_group.lambda_loggroup (expand)&#45;&gt;[root] var.lambda_function_name</title>
<path fill="none" stroke="black" d="M283.01,-143.88C264.06,-134.47 240.37,-122.71 220.14,-112.67"/>
<polygon fill="black" stroke="black" points="221.64,-109.5 211.13,-108.19 218.53,-115.77 221.64,-109.5"/>
</g>
<!-- [root] aws_cloudwatch_log_group.lambda_loggroup (expand)&#45;&gt;[root] var.project -->
<g id="edge8" class="edge">
<title>[root] aws_cloudwatch_log_group.lambda_loggroup (expand)&#45;&gt;[root] var.project</title>
<path fill="none" stroke="black" d="M317.5,-143.7C317.5,-135.98 317.5,-126.71 317.5,-118.11"/>
<polygon fill="black" stroke="black" points="321,-118.1 317.5,-108.1 314,-118.1 321,-118.1"/>
</g>
<!-- [root] aws_dynamodb_table.product_table (expand) -->
<g id="node5" class="node">
<title>[root] aws_dynamodb_table.product_table (expand)</title>
<polygon fill="none" stroke="black" points="941,-180 720,-180 720,-144 941,-144 941,-180"/>
<text text-anchor="middle" x="830.5" y="-158.3" font-family="Times New Roman,serif" font-size="14.00">aws_dynamodb_table.product_table</text>
</g>
<!-- [root] aws_dynamodb_table.product_table (expand)&#45;&gt;[root] provider[&quot;registry.terraform.io/hashicorp/aws&quot;] -->
<g id="edge9" class="edge">
<title>[root] aws_dynamodb_table.product_table (expand)&#45;&gt;[root] provider[&quot;registry.terraform.io/hashicorp/aws&quot;]</title>
<path fill="none" stroke="black" d="M782.07,-143.97C751.66,-133.27 712.5,-119.49 681.75,-108.67"/>
<polygon fill="black" stroke="black" points="682.67,-105.29 672.08,-105.27 680.35,-111.89 682.67,-105.29"/>
</g>
<!-- [root] aws_dynamodb_table.product_table (expand)&#45;&gt;[root] var.project -->
<g id="edge10" class="edge">
<title>[root] aws_dynamodb_table.product_table (expand)&#45;&gt;[root] var.project</title>
<path fill="none" stroke="black" d="M719.98,-145.07C717.13,-144.7 714.3,-144.35 711.5,-144 561.35,-125.47 518.16,-141.33 366.21,-107.81"/>
<polygon fill="black" stroke="black" points="366.56,-104.31 356.04,-105.53 365.03,-111.14 366.56,-104.31"/>
</g>
<!-- [root] var.table_name -->
<g id="node21" class="node">
<title>[root] var.table_name</title>
<polygon fill="none" stroke="black" points="1002,-108 907,-108 907,-72 1008,-72 1008,-102 1002,-108"/>
<polyline fill="none" stroke="black" points="1002,-108 1002,-102 "/>
<polyline fill="none" stroke="black" points="1008,-102 1002,-102 "/>
<text text-anchor="middle" x="957.5" y="-86.3" font-family="Times New Roman,serif" font-size="14.00">var.table_name</text>
</g>
<!-- [root] aws_dynamodb_table.product_table (expand)&#45;&gt;[root] var.table_name -->
<g id="edge11" class="edge">
<title>[root] aws_dynamodb_table.product_table (expand)&#45;&gt;[root] var.table_name</title>
<path fill="none" stroke="black" d="M861.57,-143.88C878.33,-134.64 899.21,-123.13 917.2,-113.21"/>
<polygon fill="black" stroke="black" points="919.24,-116.08 926.31,-108.19 915.87,-109.95 919.24,-116.08"/>
</g>
<!-- [root] aws_iam_policy.lambda_logging (expand) -->
<g id="node6" class="node">
<title>[root] aws_iam_policy.lambda_logging (expand)</title>
<polygon fill="none" stroke="black" points="929.5,-252 729.5,-252 729.5,-216 929.5,-216 929.5,-252"/>
<text text-anchor="middle" x="829.5" y="-230.3" font-family="Times New Roman,serif" font-size="14.00">aws_iam_policy.lambda_logging</text>
</g>
<!-- [root] aws_iam_policy.lambda_logging (expand)&#45;&gt;[root] aws_dynamodb_table.product_table (expand) -->
<g id="edge12" class="edge">
<title>[root] aws_iam_policy.lambda_logging (expand)&#45;&gt;[root] aws_dynamodb_table.product_table (expand)</title>
<path fill="none" stroke="black" d="M829.75,-215.7C829.86,-207.98 829.99,-198.71 830.11,-190.11"/>
<polygon fill="black" stroke="black" points="833.61,-190.15 830.26,-180.1 826.61,-190.05 833.61,-190.15"/>
</g>
<!-- [root] aws_iam_role.iam_for_lambda (expand) -->
<g id="node7" class="node">
<title>[root] aws_iam_role.iam_for_lambda (expand)</title>
<polygon fill="none" stroke="black" points="702,-180 513,-180 513,-144 702,-144 702,-180"/>
<text text-anchor="middle" x="607.5" y="-158.3" font-family="Times New Roman,serif" font-size="14.00">aws_iam_role.iam_for_lambda</text>
</g>
<!-- [root] aws_iam_role.iam_for_lambda (expand)&#45;&gt;[root] provider[&quot;registry.terraform.io/hashicorp/aws&quot;] -->
<g id="edge13" class="edge">
<title>[root] aws_iam_role.iam_for_lambda (expand)&#45;&gt;[root] provider[&quot;registry.terraform.io/hashicorp/aws&quot;]</title>
<path fill="none" stroke="black" d="M613.43,-143.7C616.18,-135.7 619.49,-126.02 622.53,-117.15"/>
<polygon fill="black" stroke="black" points="625.87,-118.22 625.8,-107.62 619.25,-115.95 625.87,-118.22"/>
</g>
<!-- [root] aws_iam_role.iam_for_lambda (expand)&#45;&gt;[root] var.lambda_function_name -->
<g id="edge14" class="edge">
<title>[root] aws_iam_role.iam_for_lambda (expand)&#45;&gt;[root] var.lambda_function_name</title>
<path fill="none" stroke="black" d="M512.99,-146.73C445.38,-136.38 352.26,-121.82 270.5,-108 270.4,-107.98 270.3,-107.97 270.19,-107.95"/>
<polygon fill="black" stroke="black" points="270.98,-104.53 260.53,-106.3 269.8,-111.43 270.98,-104.53"/>
</g>
<!-- [root] aws_iam_role.iam_for_lambda (expand)&#45;&gt;[root] var.project -->
<g id="edge15" class="edge">
<title>[root] aws_iam_role.iam_for_lambda (expand)&#45;&gt;[root] var.project</title>
<path fill="none" stroke="black" d="M516.91,-143.95C473.67,-135.15 421.14,-123.49 365.77,-107.9"/>
<polygon fill="black" stroke="black" points="366.72,-104.53 356.14,-105.15 364.8,-111.26 366.72,-104.53"/>
</g>
<!-- [root] aws_iam_role_policy_attachment.lambda_logs (expand) -->
<g id="node8" class="node">
<title>[root] aws_iam_role_policy_attachment.lambda_logs (expand)</title>
<polygon fill="none" stroke="black" points="1015.5,-324 737.5,-324 737.5,-288 1015.5,-288 1015.5,-324"/>
<text text-anchor="middle" x="876.5" y="-302.3" font-family="Times New Roman,serif" font-size="14.00">aws_iam_role_policy_attachment.lambda_logs</text>
</g>
<!-- [root] aws_iam_role_policy_attachment.lambda_logs (expand)&#45;&gt;[root] aws_iam_policy.lambda_logging (expand) -->
<g id="edge16" class="edge">
<title>[root] aws_iam_role_policy_attachment.lambda_logs (expand)&#45;&gt;[root] aws_iam_policy.lambda_logging (expand)</title>
<path fill="none" stroke="black" d="M864.88,-287.7C859.36,-279.47 852.65,-269.48 846.57,-260.42"/>
<polygon fill="black" stroke="black" points="849.46,-258.46 840.98,-252.1 843.65,-262.36 849.46,-258.46"/>
</g>
<!-- [root] aws_iam_role_policy_attachment.lambda_logs (expand)&#45;&gt;[root] aws_iam_role.iam_for_lambda (expand) -->
<g id="edge17" class="edge">
<title>[root] aws_iam_role_policy_attachment.lambda_logs (expand)&#45;&gt;[root] aws_iam_role.iam_for_lambda (expand)</title>
<path fill="none" stroke="black" d="M805.72,-287.99C777.96,-279.56 746.58,-267.74 720.5,-252 700.58,-239.98 700.49,-230.75 682.5,-216 669.66,-205.47 654.84,-194.73 641.79,-185.7"/>
<polygon fill="black" stroke="black" points="643.74,-182.79 633.51,-180.03 639.79,-188.57 643.74,-182.79"/>
</g>
<!-- [root] aws_lambda_function.lambda (expand)&#45;&gt;[root] aws_cloudwatch_log_group.lambda_loggroup (expand) -->
<g id="edge18" class="edge">
<title>[root] aws_lambda_function.lambda (expand)&#45;&gt;[root] aws_cloudwatch_log_group.lambda_loggroup (expand)</title>
<path fill="none" stroke="black" d="M517.26,-215.97C479.41,-205.93 431.36,-193.19 391.88,-182.72"/>
<polygon fill="black" stroke="black" points="392.6,-179.29 382.03,-180.11 390.8,-186.06 392.6,-179.29"/>
</g>
<!-- [root] aws_lambda_function.lambda (expand)&#45;&gt;[root] aws_iam_role.iam_for_lambda (expand) -->
<g id="edge19" class="edge">
<title>[root] aws_lambda_function.lambda (expand)&#45;&gt;[root] aws_iam_role.iam_for_lambda (expand)</title>
<path fill="none" stroke="black" d="M587.93,-215.7C590.86,-207.81 594.39,-198.3 597.64,-189.55"/>
<polygon fill="black" stroke="black" points="600.95,-190.7 601.15,-180.1 594.38,-188.26 600.95,-190.7"/>
</g>
<!-- [root] data.archive_file.lambda (expand) -->
<g id="node14" class="node">
<title>[root] data.archive_file.lambda (expand)</title>
<polygon fill="none" stroke="black" points="1336.5,-180 1184.5,-180 1184.5,-144 1336.5,-144 1336.5,-180"/>
<text text-anchor="middle" x="1260.5" y="-158.3" font-family="Times New Roman,serif" font-size="14.00">data.archive_file.lambda</text>
</g>
<!-- [root] aws_lambda_function.lambda (expand)&#45;&gt;[root] data.archive_file.lambda (expand) -->
<g id="edge20" class="edge">
<title>[root] aws_lambda_function.lambda (expand)&#45;&gt;[root] data.archive_file.lambda (expand)</title>
<path fill="none" stroke="black" d="M673.78,-221.18C689.36,-219.33 705.38,-217.54 720.5,-216 917.91,-195.95 968.72,-205.51 1165.5,-180 1168.38,-179.63 1171.31,-179.23 1174.26,-178.8"/>
<polygon fill="black" stroke="black" points="1175.01,-182.23 1184.38,-177.29 1173.97,-175.31 1175.01,-182.23"/>
</g>
<!-- [root] aws_lambda_permission.api_gw (expand) -->
<g id="node10" class="node">
<title>[root] aws_lambda_permission.api_gw (expand)</title>
<polygon fill="none" stroke="black" points="199,-324 0,-324 0,-288 199,-288 199,-324"/>
<text text-anchor="middle" x="99.5" y="-302.3" font-family="Times New Roman,serif" font-size="14.00">aws_lambda_permission.api_gw</text>
</g>
<!-- [root] aws_lambda_permission.api_gw (expand)&#45;&gt;[root] aws_apigatewayv2_api.lambda (expand) -->
<g id="edge21" class="edge">
<title>[root] aws_lambda_permission.api_gw (expand)&#45;&gt;[root] aws_apigatewayv2_api.lambda (expand)</title>
<path fill="none" stroke="black" d="M154.98,-287.97C187.26,-278.06 228.11,-265.51 261.96,-255.12"/>
<polygon fill="black" stroke="black" points="263.24,-258.39 271.77,-252.11 261.18,-251.7 263.24,-258.39"/>
</g>
<!-- [root] aws_lambda_permission.api_gw (expand)&#45;&gt;[root] var.lambda_function_name -->
<g id="edge22" class="edge">
<title>[root] aws_lambda_permission.api_gw (expand)&#45;&gt;[root] var.lambda_function_name</title>
<path fill="none" stroke="black" d="M105.67,-287.85C119.05,-250.68 150.8,-162.44 166.85,-117.82"/>
<polygon fill="black" stroke="black" points="170.21,-118.83 170.3,-108.23 163.62,-116.46 170.21,-118.83"/>
</g>
<!-- [root] aws_s3_bucket.frontendstorage (expand) -->
<g id="node11" class="node">
<title>[root] aws_s3_bucket.frontendstorage (expand)</title>
<polygon fill="none" stroke="black" points="1156,-180 961,-180 961,-144 1156,-144 1156,-180"/>
<text text-anchor="middle" x="1058.5" y="-158.3" font-family="Times New Roman,serif" font-size="14.00">aws_s3_bucket.frontendstorage</text>
</g>
<!-- [root] aws_s3_bucket.frontendstorage (expand)&#45;&gt;[root] provider[&quot;registry.terraform.io/hashicorp/aws&quot;] -->
<g id="edge23" class="edge">
<title>[root] aws_s3_bucket.frontendstorage (expand)&#45;&gt;[root] provider[&quot;registry.terraform.io/hashicorp/aws&quot;]</title>
<path fill="none" stroke="black" d="M960.81,-144.98C886.42,-132.79 785.15,-116.19 714.63,-104.63"/>
<polygon fill="black" stroke="black" points="714.89,-101.12 704.46,-102.96 713.76,-108.03 714.89,-101.12"/>
</g>
<!-- [root] var.bucket_name -->
<g id="node17" class="node">
<title>[root] var.bucket_name</title>
<polygon fill="none" stroke="black" points="1132.5,-108 1026.5,-108 1026.5,-72 1138.5,-72 1138.5,-102 1132.5,-108"/>
<polyline fill="none" stroke="black" points="1132.5,-108 1132.5,-102 "/>
<polyline fill="none" stroke="black" points="1138.5,-102 1132.5,-102 "/>
<text text-anchor="middle" x="1082.5" y="-86.3" font-family="Times New Roman,serif" font-size="14.00">var.bucket_name</text>
</g>
<!-- [root] aws_s3_bucket.frontendstorage (expand)&#45;&gt;[root] var.bucket_name -->
<g id="edge24" class="edge">
<title>[root] aws_s3_bucket.frontendstorage (expand)&#45;&gt;[root] var.bucket_name</title>
<path fill="none" stroke="black" d="M1064.43,-143.7C1067.11,-135.9 1070.33,-126.51 1073.3,-117.83"/>
<polygon fill="black" stroke="black" points="1076.7,-118.7 1076.64,-108.1 1070.08,-116.43 1076.7,-118.7"/>
</g>
<!-- [root] aws_s3_bucket.frontendstorage (expand)&#45;&gt;[root] var.project -->
<g id="edge25" class="edge">
<title>[root] aws_s3_bucket.frontendstorage (expand)&#45;&gt;[root] var.project</title>
<path fill="none" stroke="black" d="M960.83,-145.2C957.35,-144.77 953.9,-144.37 950.5,-144 694.84,-116.08 622.58,-158.87 366,-107.7"/>
<polygon fill="black" stroke="black" points="366.51,-104.23 356.01,-105.68 365.12,-111.09 366.51,-104.23"/>
</g>
<!-- [root] aws_s3_bucket_object.frontendcode (expand) -->
<g id="node12" class="node">
<title>[root] aws_s3_bucket_object.frontendcode (expand)</title>
<polygon fill="none" stroke="black" points="1171.5,-252 947.5,-252 947.5,-216 1171.5,-216 1171.5,-252"/>
<text text-anchor="middle" x="1059.5" y="-230.3" font-family="Times New Roman,serif" font-size="14.00">aws_s3_bucket_object.frontendcode</text>
</g>
<!-- [root] aws_s3_bucket_object.frontendcode (expand)&#45;&gt;[root] aws_s3_bucket.frontendstorage (expand) -->
<g id="edge26" class="edge">
<title>[root] aws_s3_bucket_object.frontendcode (expand)&#45;&gt;[root] aws_s3_bucket.frontendstorage (expand)</title>
<path fill="none" stroke="black" d="M1059.25,-215.7C1059.14,-207.98 1059.01,-198.71 1058.89,-190.11"/>
<polygon fill="black" stroke="black" points="1062.39,-190.05 1058.74,-180.1 1055.39,-190.15 1062.39,-190.05"/>
</g>
<!-- [root] data.archive_file.frontend (expand) -->
<g id="node13" class="node">
<title>[root] data.archive_file.frontend (expand)</title>
<polygon fill="none" stroke="black" points="1512.5,-180 1354.5,-180 1354.5,-144 1512.5,-144 1512.5,-180"/>
<text text-anchor="middle" x="1433.5" y="-158.3" font-family="Times New Roman,serif" font-size="14.00">data.archive_file.frontend</text>
</g>
<!-- [root] aws_s3_bucket_object.frontendcode (expand)&#45;&gt;[root] data.archive_file.frontend (expand) -->
<g id="edge27" class="edge">
<title>[root] aws_s3_bucket_object.frontendcode (expand)&#45;&gt;[root] data.archive_file.frontend (expand)</title>
<path fill="none" stroke="black" d="M1152.27,-215.99C1205.74,-206.15 1274.5,-193.41 1344.47,-180.19"/>
<polygon fill="black" stroke="black" points="1345.18,-183.62 1354.35,-178.32 1343.88,-176.74 1345.18,-183.62"/>
</g>
<!-- [root] provider[&quot;registry.terraform.io/hashicorp/archive&quot;] -->
<g id="node15" class="node">
<title>[root] provider[&quot;registry.terraform.io/hashicorp/archive&quot;]</title>
<polygon fill="none" stroke="black" points="1432.5,-108 1158.68,-90 1432.5,-72 1706.32,-90 1432.5,-108"/>
<text text-anchor="middle" x="1432.5" y="-86.3" font-family="Times New Roman,serif" font-size="14.00">provider[&quot;registry.terraform.io/hashicorp/archive&quot;]</text>
</g>
<!-- [root] data.archive_file.frontend (expand)&#45;&gt;[root] provider[&quot;registry.terraform.io/hashicorp/archive&quot;] -->
<g id="edge28" class="edge">
<title>[root] data.archive_file.frontend (expand)&#45;&gt;[root] provider[&quot;registry.terraform.io/hashicorp/archive&quot;]</title>
<path fill="none" stroke="black" d="M1433.25,-143.7C1433.14,-135.98 1433.01,-126.71 1432.89,-118.11"/>
<polygon fill="black" stroke="black" points="1436.39,-118.05 1432.74,-108.1 1429.39,-118.15 1436.39,-118.05"/>
</g>
<!-- [root] data.archive_file.lambda (expand)&#45;&gt;[root] provider[&quot;registry.terraform.io/hashicorp/archive&quot;] -->
<g id="edge29" class="edge">
<title>[root] data.archive_file.lambda (expand)&#45;&gt;[root] provider[&quot;registry.terraform.io/hashicorp/archive&quot;]</title>
<path fill="none" stroke="black" d="M1302.58,-143.88C1328.17,-133.46 1360.87,-120.15 1387.06,-109.49"/>
<polygon fill="black" stroke="black" points="1388.44,-112.71 1396.39,-105.7 1385.8,-106.23 1388.44,-112.71"/>
</g>
<!-- [root] var.region -->
<g id="node20" class="node">
<title>[root] var.region</title>
<polygon fill="none" stroke="black" points="661.5,-36 595.5,-36 595.5,0 667.5,0 667.5,-30 661.5,-36"/>
<polyline fill="none" stroke="black" points="661.5,-36 661.5,-30 "/>
<polyline fill="none" stroke="black" points="667.5,-30 661.5,-30 "/>
<text text-anchor="middle" x="631.5" y="-14.3" font-family="Times New Roman,serif" font-size="14.00">var.region</text>
</g>
<!-- [root] provider[&quot;registry.terraform.io/hashicorp/aws&quot;]&#45;&gt;[root] var.region -->
<g id="edge37" class="edge">
<title>[root] provider[&quot;registry.terraform.io/hashicorp/aws&quot;]&#45;&gt;[root] var.region</title>
<path fill="none" stroke="black" d="M631.5,-71.7C631.5,-63.98 631.5,-54.71 631.5,-46.11"/>
<polygon fill="black" stroke="black" points="635,-46.1 631.5,-36.1 628,-46.1 635,-46.1"/>
</g>
<!-- [root] provider[&quot;registry.terraform.io/hashicorp/archive&quot;] (close) -->
<g id="node22" class="node">
<title>[root] provider[&quot;registry.terraform.io/hashicorp/archive&quot;] (close)</title>
<ellipse fill="none" stroke="black" cx="1433.5" cy="-234" rx="244.26" ry="18"/>
<text text-anchor="middle" x="1433.5" y="-230.3" font-family="Times New Roman,serif" font-size="14.00">[root] provider[&quot;registry.terraform.io/hashicorp/archive&quot;] (close)</text>
</g>
<!-- [root] provider[&quot;registry.terraform.io/hashicorp/archive&quot;] (close)&#45;&gt;[root] data.archive_file.frontend (expand) -->
<g id="edge30" class="edge">
<title>[root] provider[&quot;registry.terraform.io/hashicorp/archive&quot;] (close)&#45;&gt;[root] data.archive_file.frontend (expand)</title>
<path fill="none" stroke="black" d="M1433.5,-215.7C1433.5,-207.98 1433.5,-198.71 1433.5,-190.11"/>
<polygon fill="black" stroke="black" points="1437,-190.1 1433.5,-180.1 1430,-190.1 1437,-190.1"/>
</g>
<!-- [root] provider[&quot;registry.terraform.io/hashicorp/archive&quot;] (close)&#45;&gt;[root] data.archive_file.lambda (expand) -->
<g id="edge31" class="edge">
<title>[root] provider[&quot;registry.terraform.io/hashicorp/archive&quot;] (close)&#45;&gt;[root] data.archive_file.lambda (expand)</title>
<path fill="none" stroke="black" d="M1392.06,-216.23C1368.13,-206.55 1337.81,-194.28 1312.31,-183.97"/>
<polygon fill="black" stroke="black" points="1313.38,-180.62 1302.8,-180.12 1310.76,-187.11 1313.38,-180.62"/>
</g>
<!-- [root] provider[&quot;registry.terraform.io/hashicorp/aws&quot;] (close) -->
<g id="node23" class="node">
<title>[root] provider[&quot;registry.terraform.io/hashicorp/aws&quot;] (close)</title>
<ellipse fill="none" stroke="black" cx="788.5" cy="-378" rx="232.86" ry="18"/>
<text text-anchor="middle" x="788.5" y="-374.3" font-family="Times New Roman,serif" font-size="14.00">[root] provider[&quot;registry.terraform.io/hashicorp/aws&quot;] (close)</text>
</g>
<!-- [root] provider[&quot;registry.terraform.io/hashicorp/aws&quot;] (close)&#45;&gt;[root] aws_apigatewayv2_integration.apiintegration (expand) -->
<g id="edge32" class="edge">
<title>[root] provider[&quot;registry.terraform.io/hashicorp/aws&quot;] (close)&#45;&gt;[root] aws_apigatewayv2_integration.apiintegration (expand)</title>
<path fill="none" stroke="black" d="M740.61,-360.32C712.22,-350.43 676.02,-337.83 645.95,-327.36"/>
<polygon fill="black" stroke="black" points="647.01,-324.02 636.42,-324.04 644.71,-330.63 647.01,-324.02"/>
</g>
<!-- [root] provider[&quot;registry.terraform.io/hashicorp/aws&quot;] (close)&#45;&gt;[root] aws_cloudwatch_log_group.api_gw (expand) -->
<g id="edge33" class="edge">
<title>[root] provider[&quot;registry.terraform.io/hashicorp/aws&quot;] (close)&#45;&gt;[root] aws_cloudwatch_log_group.api_gw (expand)</title>
<path fill="none" stroke="black" d="M687.9,-361.72C617.16,-350.98 522.19,-336.56 447.49,-325.22"/>
<polygon fill="black" stroke="black" points="447.97,-321.75 437.56,-323.71 446.92,-328.67 447.97,-321.75"/>
</g>
<!-- [root] provider[&quot;registry.terraform.io/hashicorp/aws&quot;] (close)&#45;&gt;[root] aws_iam_role_policy_attachment.lambda_logs (expand) -->
<g id="edge34" class="edge">
<title>[root] provider[&quot;registry.terraform.io/hashicorp/aws&quot;] (close)&#45;&gt;[root] aws_iam_role_policy_attachment.lambda_logs (expand)</title>
<path fill="none" stroke="black" d="M809.8,-360.05C820.96,-351.18 834.8,-340.17 846.98,-330.48"/>
<polygon fill="black" stroke="black" points="849.44,-333 855.09,-324.03 845.08,-327.52 849.44,-333"/>
</g>
<!-- [root] provider[&quot;registry.terraform.io/hashicorp/aws&quot;] (close)&#45;&gt;[root] aws_lambda_permission.api_gw (expand) -->
<g id="edge35" class="edge">
<title>[root] provider[&quot;registry.terraform.io/hashicorp/aws&quot;] (close)&#45;&gt;[root] aws_lambda_permission.api_gw (expand)</title>
<path fill="none" stroke="black" d="M626.95,-365.01C513.04,-355.89 356.7,-342.06 209.4,-324.07"/>
<polygon fill="black" stroke="black" points="209.61,-320.57 199.26,-322.82 208.75,-327.51 209.61,-320.57"/>
</g>
<!-- [root] provider[&quot;registry.terraform.io/hashicorp/aws&quot;] (close)&#45;&gt;[root] aws_s3_bucket_object.frontendcode (expand) -->
<g id="edge36" class="edge">
<title>[root] provider[&quot;registry.terraform.io/hashicorp/aws&quot;] (close)&#45;&gt;[root] aws_s3_bucket_object.frontendcode (expand)</title>
<path fill="none" stroke="black" d="M899.76,-362.17C951.21,-353.33 1005.17,-340.57 1024.5,-324 1042.67,-308.43 1051.47,-282.19 1055.7,-262.22"/>
<polygon fill="black" stroke="black" points="1059.18,-262.64 1057.56,-252.17 1052.3,-261.36 1059.18,-262.64"/>
</g>
<!-- [root] root -->
<g id="node24" class="node">
<title>[root] root</title>
<ellipse fill="none" stroke="black" cx="918.5" cy="-450" rx="49.29" ry="18"/>
<text text-anchor="middle" x="918.5" y="-446.3" font-family="Times New Roman,serif" font-size="14.00">[root] root</text>
</g>
<!-- [root] root&#45;&gt;[root] provider[&quot;registry.terraform.io/hashicorp/archive&quot;] (close) -->
<g id="edge38" class="edge">
<title>[root] root&#45;&gt;[root] provider[&quot;registry.terraform.io/hashicorp/archive&quot;] (close)</title>
<path fill="none" stroke="black" d="M949.94,-435.94C1036.45,-399.99 1278.56,-299.38 1383.71,-255.69"/>
<polygon fill="black" stroke="black" points="1385.25,-258.84 1393.15,-251.77 1382.57,-252.37 1385.25,-258.84"/>
</g>
<!-- [root] root&#45;&gt;[root] provider[&quot;registry.terraform.io/hashicorp/aws&quot;] (close) -->
<g id="edge39" class="edge">
<title>[root] root&#45;&gt;[root] provider[&quot;registry.terraform.io/hashicorp/aws&quot;] (close)</title>
<path fill="none" stroke="black" d="M891.88,-434.67C873.76,-424.91 849.44,-411.82 828.95,-400.78"/>
<polygon fill="black" stroke="black" points="830.59,-397.69 820.13,-396.03 827.28,-403.85 830.59,-397.69"/>
</g>
</g>
</svg>
