<?xml version="1.0" encoding="UTF-8" standalone="no"?>
<!DOCTYPE svg PUBLIC "-//W3C//DTD SVG 1.1//EN"
 "http://www.w3.org/Graphics/SVG/1.1/DTD/svg11.dtd">
<!-- Generated by graphviz version 2.43.0 (0)
 -->
<!-- Title: %3 Pages: 1 -->
<svg width="532pt" height="420pt"
 viewBox="0.00 0.00 532.00 420.00" xmlns="http://www.w3.org/2000/svg" xmlns:xlink="http://www.w3.org/1999/xlink">
<g id="graph0" class="graph" transform="scale(1 1) rotate(0) translate(4 416)">
<title>%3</title>
<polygon fill="white" stroke="transparent" points="-4,4 -4,-416 528,-416 528,4 -4,4"/>
<g id="clust2" class="cluster">
<title>cluster[root] root_var_</title>
</g>
<g id="clust3" class="cluster">
<title>cluster[root] azurerm_network_interface.mgmtnic (expand)_var_</title>
</g>
<g id="clust4" class="cluster">
<title>cluster[root] azurerm_windows_virtual_machine.mgmtvm (expand)_var_</title>
</g>
<!-- [root] azurerm_dev_test_global_vm_shutdown_schedule.mgmtvm (expand) -->
<g id="node_0" class="node">
<title>[root] azurerm_dev_test_global_vm_shutdown_schedule.mgmtvm (expand)</title>
<polygon fill="none" stroke="black" points="275,-250 275,-265 480,-265 480,-250 275,-250"/>
<text text-anchor="start" x="278" y="-255.6" font-family="courier new" font-size="8.00">azurerm_dev_test_global_vm_shutdown_schedule</text>
<polygon fill="none" stroke="black" points="275,-235 275,-250 480,-250 480,-235 275,-235"/>
<text text-anchor="start" x="363.5" y="-240.6" font-family="courier new" font-size="8.00">mgmtvm</text>
</g>
<!-- [root] azurerm_windows_virtual_machine.mgmtvm (expand) -->
<g id="node_4" class="node">
<title>[root] azurerm_windows_virtual_machine.mgmtvm (expand)</title>
<polygon fill="none" stroke="black" points="325,-178 325,-193 471,-193 471,-178 325,-178"/>
<text text-anchor="start" x="328" y="-183.6" font-family="courier new" font-size="8.00">azurerm_windows_virtual_machine</text>
<polygon fill="none" stroke="black" points="325,-163 325,-178 471,-178 471,-163 325,-163"/>
<text text-anchor="start" x="384" y="-168.6" font-family="courier new" font-size="8.00">mgmtvm</text>
</g>
<!-- [root] azurerm_dev_test_global_vm_shutdown_schedule.mgmtvm (expand)&#45;&gt;[root] azurerm_windows_virtual_machine.mgmtvm (expand) -->
<g id="edge_0" class="edge">
<title>[root] azurerm_dev_test_global_vm_shutdown_schedule.mgmtvm (expand)&#45;&gt;[root] azurerm_windows_virtual_machine.mgmtvm (expand)</title>
<path fill="none" stroke="black" d="M382.19,-231.7C384.53,-223.9 387.35,-214.51 389.95,-205.83"/>
<polygon fill="black" stroke="black" points="393.35,-206.69 392.87,-196.1 386.64,-204.68 393.35,-206.69"/>
</g>
<!-- [root] azurerm_network_interface.mgmtnic (expand) -->
<g id="node_1" class="node">
<title>[root] azurerm_network_interface.mgmtnic (expand)</title>
<polygon fill="none" stroke="black" points="255,-106 255,-121 374,-121 374,-106 255,-106"/>
<text text-anchor="start" x="258" y="-111.6" font-family="courier new" font-size="8.00">azurerm_network_interface</text>
<polygon fill="none" stroke="black" points="255,-91 255,-106 374,-106 374,-91 255,-91"/>
<text text-anchor="start" x="298.5" y="-96.6" font-family="courier new" font-size="8.00">mgmtnic</text>
</g>
<!-- [root] provider[&quot;registry.terraform.io/hashicorp/azurerm&quot;] -->
<g id="node_5" class="node">
<title>[root] provider[&quot;registry.terraform.io/hashicorp/azurerm&quot;]</title>
<polygon fill="none" stroke="black" points="0,-34 0,-49 110,-49 110,-34 0,-34"/>
<text text-anchor="start" x="34.5" y="-39.6" font-family="courier new" font-size="8.00">terraform</text>
<polygon fill="none" stroke="black" points="0,-19 0,-34 110,-34 110,-19 0,-19"/>
<text text-anchor="start" x="3" y="-24.6" font-family="courier new" font-size="8.00">io/hashicorp/azurerm\&quot;]</text>
</g>
<!-- [root] azurerm_network_interface.mgmtnic (expand)&#45;&gt;[root] provider[&quot;registry.terraform.io/hashicorp/azurerm&quot;] -->
<g id="edge_1" class="edge">
<title>[root] azurerm_network_interface.mgmtnic (expand)&#45;&gt;[root] provider[&quot;registry.terraform.io/hashicorp/azurerm&quot;]</title>
<path fill="none" stroke="black" d="M270.96,-87.99C262.45,-85.03 253.51,-82.2 245,-80 190.1,-65.83 173.72,-74.85 119,-60 114.28,-58.72 109.44,-57.21 104.62,-55.58"/>
<polygon fill="black" stroke="black" points="105.44,-52.15 94.84,-52.08 103.08,-58.74 105.44,-52.15"/>
</g>
<!-- [root] var.location -->
<g id="node_7" class="node">
<title>[root] var.location</title>
<polygon fill="none" stroke="black" points="134,-34 134,-49 177,-49 177,-34 134,-34"/>
<text text-anchor="start" x="148.5" y="-39.6" font-family="courier new" font-size="8.00">var</text>
<polygon fill="none" stroke="black" points="134,-19 134,-34 177,-34 177,-19 134,-19"/>
<text text-anchor="start" x="137" y="-24.6" font-family="courier new" font-size="8.00">location</text>
</g>
<!-- [root] azurerm_network_interface.mgmtnic (expand)&#45;&gt;[root] var.location -->
<g id="edge_2" class="edge">
<title>[root] azurerm_network_interface.mgmtnic (expand)&#45;&gt;[root] var.location</title>
<path fill="none" stroke="black" d="M267.1,-88C233.14,-75.66 192.85,-60.96 191,-60 189.47,-59.2 187.92,-58.35 186.38,-57.46"/>
<polygon fill="black" stroke="black" points="188.03,-54.36 177.69,-52.05 184.33,-60.31 188.03,-54.36"/>
</g>
<!-- [root] var.project -->
<g id="node_10" class="node">
<title>[root] var.project</title>
<polygon fill="none" stroke="black" points="208,-34 208,-49 246,-49 246,-34 208,-34"/>
<text text-anchor="start" x="220" y="-39.6" font-family="courier new" font-size="8.00">var</text>
<polygon fill="none" stroke="black" points="208,-19 208,-34 246,-34 246,-19 208,-19"/>
<text text-anchor="start" x="211" y="-24.6" font-family="courier new" font-size="8.00">project</text>
</g>
<!-- [root] azurerm_network_interface.mgmtnic (expand)&#45;&gt;[root] var.project -->
<g id="edge_4" class="edge">
<title>[root] azurerm_network_interface.mgmtnic (expand)&#45;&gt;[root] var.project</title>
<path fill="none" stroke="black" d="M292.49,-87.7C281.54,-78.88 268.05,-68.03 256.18,-58.47"/>
<polygon fill="black" stroke="black" points="258.24,-55.65 248.26,-52.1 253.86,-61.1 258.24,-55.65"/>
</g>
<!-- [root] var.resourcegroupname -->
<g id="node_11" class="node">
<title>[root] var.resourcegroupname</title>
<polygon fill="none" stroke="black" points="273,-34 273,-49 356,-49 356,-34 273,-34"/>
<text text-anchor="start" x="307.5" y="-39.6" font-family="courier new" font-size="8.00">var</text>
<polygon fill="none" stroke="black" points="273,-19 273,-34 356,-34 356,-19 273,-19"/>
<text text-anchor="start" x="276" y="-24.6" font-family="courier new" font-size="8.00">resourcegroupname</text>
</g>
<!-- [root] azurerm_network_interface.mgmtnic (expand)&#45;&gt;[root] var.resourcegroupname -->
<g id="edge_5" class="edge">
<title>[root] azurerm_network_interface.mgmtnic (expand)&#45;&gt;[root] var.resourcegroupname</title>
<path fill="none" stroke="black" d="M314,-87.7C314,-79.98 314,-70.71 314,-62.11"/>
<polygon fill="black" stroke="black" points="317.5,-62.1 314,-52.1 310.5,-62.1 317.5,-62.1"/>
</g>
<!-- [root] var.tags -->
<g id="node_12" class="node">
<title>[root] var.tags</title>
<polygon fill="none" stroke="black" points="389,-34 389,-49 414,-49 414,-34 389,-34"/>
<text text-anchor="start" x="394.5" y="-39.6" font-family="courier new" font-size="8.00">var</text>
<polygon fill="none" stroke="black" points="389,-19 389,-34 414,-34 414,-19 389,-19"/>
<text text-anchor="start" x="392" y="-24.6" font-family="courier new" font-size="8.00">tags</text>
</g>
<!-- [root] azurerm_network_interface.mgmtnic (expand)&#45;&gt;[root] var.tags -->
<g id="edge_6" class="edge">
<title>[root] azurerm_network_interface.mgmtnic (expand)&#45;&gt;[root] var.tags</title>
<path fill="none" stroke="black" d="M335.51,-87.7C346.46,-78.88 359.95,-68.03 371.82,-58.47"/>
<polygon fill="black" stroke="black" points="374.14,-61.1 379.74,-52.1 369.76,-55.65 374.14,-61.1"/>
</g>
<!-- [root] var.mgmtsubnetId -->
<g id="node_8" class="node">
<title>[root] var.mgmtsubnetId</title>
<polygon fill="none" stroke="black" points="447,-34 447,-49 508,-49 508,-34 447,-34"/>
<text text-anchor="start" x="470.5" y="-39.6" font-family="courier new" font-size="8.00">var</text>
<polygon fill="none" stroke="black" points="447,-19 447,-34 508,-34 508,-19 447,-19"/>
<text text-anchor="start" x="450" y="-24.6" font-family="courier new" font-size="8.00">mgmtsubnetId</text>
</g>
<!-- [root] azurerm_network_interface.mgmtnic (expand)&#45;&gt;[root] var.mgmtsubnetId -->
<g id="edge_3" class="edge">
<title>[root] azurerm_network_interface.mgmtnic (expand)&#45;&gt;[root] var.mgmtsubnetId</title>
<path fill="none" stroke="black" d="M358.68,-87.91C365.8,-85.23 373.09,-82.52 380,-80 405.22,-70.8 412.8,-71.63 437,-60 438.83,-59.12 440.67,-58.18 442.52,-57.19"/>
<polygon fill="black" stroke="black" points="444.69,-59.99 451.66,-52 441.23,-53.9 444.69,-59.99"/>
</g>
<!-- [root] azurerm_network_interface_security_group_association.mgmtnic_sg_ass (expand) -->
<g id="node_2" class="node">
<title>[root] azurerm_network_interface_security_group_association.mgmtnic_sg_ass (expand)</title>
<polygon fill="none" stroke="black" points="66,-178 66,-193 307,-193 307,-178 66,-178"/>
<text text-anchor="start" x="69" y="-183.6" font-family="courier new" font-size="8.00">azurerm_network_interface_security_group_association</text>
<polygon fill="none" stroke="black" points="66,-163 66,-178 307,-178 307,-163 66,-163"/>
<text text-anchor="start" x="154.5" y="-168.6" font-family="courier new" font-size="8.00">mgmtnic_sg_ass</text>
</g>
<!-- [root] azurerm_network_interface_security_group_association.mgmtnic_sg_ass (expand)&#45;&gt;[root] azurerm_network_interface.mgmtnic (expand) -->
<g id="edge_7" class="edge">
<title>[root] azurerm_network_interface_security_group_association.mgmtnic_sg_ass (expand)&#45;&gt;[root] azurerm_network_interface.mgmtnic (expand)</title>
<path fill="none" stroke="black" d="M217.31,-159.88C234.2,-150.64 255.25,-139.13 273.38,-129.21"/>
<polygon fill="black" stroke="black" points="275.47,-132.06 282.57,-124.19 272.11,-125.92 275.47,-132.06"/>
</g>
<!-- [root] azurerm_network_security_group.mgmtsg (expand) -->
<g id="node_3" class="node">
<title>[root] azurerm_network_security_group.mgmtsg (expand)</title>
<polygon fill="none" stroke="black" points="94,-106 94,-121 236,-121 236,-106 94,-106"/>
<text text-anchor="start" x="97" y="-111.6" font-family="courier new" font-size="8.00">azurerm_network_security_group</text>
<polygon fill="none" stroke="black" points="94,-91 94,-106 236,-106 236,-91 94,-91"/>
<text text-anchor="start" x="151" y="-96.6" font-family="courier new" font-size="8.00">mgmtsg</text>
</g>
<!-- [root] azurerm_network_interface_security_group_association.mgmtnic_sg_ass (expand)&#45;&gt;[root] azurerm_network_security_group.mgmtsg (expand) -->
<g id="edge_8" class="edge">
<title>[root] azurerm_network_interface_security_group_association.mgmtnic_sg_ass (expand)&#45;&gt;[root] azurerm_network_security_group.mgmtsg (expand)</title>
<path fill="none" stroke="black" d="M180.81,-159.7C178.47,-151.9 175.65,-142.51 173.05,-133.83"/>
<polygon fill="black" stroke="black" points="176.36,-132.68 170.13,-124.1 169.65,-134.69 176.36,-132.68"/>
</g>
<!-- [root] azurerm_network_security_group.mgmtsg (expand)&#45;&gt;[root] provider[&quot;registry.terraform.io/hashicorp/azurerm&quot;] -->
<g id="edge_9" class="edge">
<title>[root] azurerm_network_security_group.mgmtsg (expand)&#45;&gt;[root] provider[&quot;registry.terraform.io/hashicorp/azurerm&quot;]</title>
<path fill="none" stroke="black" d="M138.09,-87.88C123.84,-78.81 106.15,-67.55 90.76,-57.76"/>
<polygon fill="black" stroke="black" points="92.33,-54.61 82.01,-52.19 88.57,-60.51 92.33,-54.61"/>
</g>
<!-- [root] azurerm_network_security_group.mgmtsg (expand)&#45;&gt;[root] var.location -->
<g id="edge_10" class="edge">
<title>[root] azurerm_network_security_group.mgmtsg (expand)&#45;&gt;[root] var.location</title>
<path fill="none" stroke="black" d="M162.53,-87.7C161.43,-79.98 160.1,-70.71 158.87,-62.11"/>
<polygon fill="black" stroke="black" points="162.32,-61.51 157.44,-52.1 155.39,-62.5 162.32,-61.51"/>
</g>
<!-- [root] azurerm_network_security_group.mgmtsg (expand)&#45;&gt;[root] var.project -->
<g id="edge_11" class="edge">
<title>[root] azurerm_network_security_group.mgmtsg (expand)&#45;&gt;[root] var.project</title>
<path fill="none" stroke="black" d="M180.33,-87.7C187.76,-79.3 196.82,-69.07 204.98,-59.86"/>
<polygon fill="black" stroke="black" points="207.84,-61.91 211.85,-52.1 202.6,-57.27 207.84,-61.91"/>
</g>
<!-- [root] azurerm_network_security_group.mgmtsg (expand)&#45;&gt;[root] var.resourcegroupname -->
<g id="edge_12" class="edge">
<title>[root] azurerm_network_security_group.mgmtsg (expand)&#45;&gt;[root] var.resourcegroupname</title>
<path fill="none" stroke="black" d="M202.8,-87.91C221.04,-79.6 243.21,-69.39 263,-60 265.42,-58.85 267.9,-57.66 270.41,-56.46"/>
<polygon fill="black" stroke="black" points="272.01,-59.57 279.49,-52.06 268.96,-53.27 272.01,-59.57"/>
</g>
<!-- [root] azurerm_network_security_group.mgmtsg (expand)&#45;&gt;[root] var.tags -->
<g id="edge_13" class="edge">
<title>[root] azurerm_network_security_group.mgmtsg (expand)&#45;&gt;[root] var.tags</title>
<path fill="none" stroke="black" d="M216.57,-87.96C226.29,-85.07 236.41,-82.28 246,-80 298.18,-67.62 315.33,-80.23 365,-60 366.85,-59.25 368.7,-58.38 370.53,-57.44"/>
<polygon fill="black" stroke="black" points="372.56,-60.31 379.42,-52.23 369.02,-54.27 372.56,-60.31"/>
</g>
<!-- [root] azurerm_windows_virtual_machine.mgmtvm (expand)&#45;&gt;[root] azurerm_network_interface.mgmtnic (expand) -->
<g id="edge_14" class="edge">
<title>[root] azurerm_windows_virtual_machine.mgmtvm (expand)&#45;&gt;[root] azurerm_network_interface.mgmtnic (expand)</title>
<path fill="none" stroke="black" d="M377.24,-159.7C366.76,-150.97 353.89,-140.24 342.5,-130.75"/>
<polygon fill="black" stroke="black" points="344.45,-127.82 334.53,-124.1 339.97,-133.19 344.45,-127.82"/>
</g>
<!-- [root] var.mgmtvm -->
<g id="node_9" class="node">
<title>[root] var.mgmtvm</title>
<polygon fill="none" stroke="black" points="402,-106 402,-121 436,-121 436,-106 402,-106"/>
<text text-anchor="start" x="412" y="-111.6" font-family="courier new" font-size="8.00">var</text>
<polygon fill="none" stroke="black" points="402,-91 402,-106 436,-106 436,-91 402,-91"/>
<text text-anchor="start" x="405" y="-96.6" font-family="courier new" font-size="8.00">mgmtvm</text>
</g>
<!-- [root] azurerm_windows_virtual_machine.mgmtvm (expand)&#45;&gt;[root] var.mgmtvm -->
<g id="edge_15" class="edge">
<title>[root] azurerm_windows_virtual_machine.mgmtvm (expand)&#45;&gt;[root] var.mgmtvm</title>
<path fill="none" stroke="black" d="M403.19,-159.7C405.53,-151.9 408.35,-142.51 410.95,-133.83"/>
<polygon fill="black" stroke="black" points="414.35,-134.69 413.87,-124.1 407.64,-132.68 414.35,-134.69"/>
</g>
<!-- [root] provider[&quot;registry.terraform.io/hashicorp/azurerm&quot;] (close) -->
<g id="node_13" class="node">
<title>[root] provider[&quot;registry.terraform.io/hashicorp/azurerm&quot;] (close)</title>
<polygon fill="none" stroke="black" points="217,-322 217,-337 327,-337 327,-322 217,-322"/>
<text text-anchor="start" x="251.5" y="-327.6" font-family="courier new" font-size="8.00">terraform</text>
<polygon fill="none" stroke="black" points="217,-307 217,-322 327,-322 327,-307 217,-307"/>
<text text-anchor="start" x="220" y="-312.6" font-family="courier new" font-size="8.00">io/hashicorp/azurerm\&quot;]</text>
</g>
<!-- [root] provider[&quot;registry.terraform.io/hashicorp/azurerm&quot;] (close)&#45;&gt;[root] azurerm_dev_test_global_vm_shutdown_schedule.mgmtvm (expand) -->
<g id="edge_16" class="edge">
<title>[root] provider[&quot;registry.terraform.io/hashicorp/azurerm&quot;] (close)&#45;&gt;[root] azurerm_dev_test_global_vm_shutdown_schedule.mgmtvm (expand)</title>
<path fill="none" stroke="black" d="M297.69,-303.88C311.29,-294.81 328.17,-283.55 342.86,-273.76"/>
<polygon fill="black" stroke="black" points="344.84,-276.65 351.22,-268.19 340.95,-270.82 344.84,-276.65"/>
</g>
<!-- [root] provider[&quot;registry.terraform.io/hashicorp/azurerm&quot;] (close)&#45;&gt;[root] azurerm_network_interface_security_group_association.mgmtnic_sg_ass (expand) -->
<g id="edge_17" class="edge">
<title>[root] provider[&quot;registry.terraform.io/hashicorp/azurerm&quot;] (close)&#45;&gt;[root] azurerm_network_interface_security_group_association.mgmtnic_sg_ass (expand)</title>
<path fill="none" stroke="black" d="M261.63,-303.87C246.71,-279.24 219.09,-233.64 201.68,-204.88"/>
<polygon fill="black" stroke="black" points="204.58,-202.93 196.41,-196.19 198.6,-206.56 204.58,-202.93"/>
</g>
<!-- [root] root -->
<g id="node_14" class="node">
<title>[root] root</title>
<polygon fill="none" stroke="black" points="362,-412 296,-412 296,-376 362,-376 362,-412"/>
<text text-anchor="middle" x="329" y="-392.1" font-family="courier new" font-size="8.00">[root] root</text>
</g>
<!-- [root] root&#45;&gt;[root] provider[&quot;registry.terraform.io/hashicorp/azurerm&quot;] (close) -->
<g id="edge_18" class="edge">
<title>[root] root&#45;&gt;[root] provider[&quot;registry.terraform.io/hashicorp/azurerm&quot;] (close)</title>
<path fill="none" stroke="black" d="M314.91,-375.7C308.08,-367.3 299.74,-357.07 292.24,-347.86"/>
<polygon fill="black" stroke="black" points="294.96,-345.65 285.93,-340.1 289.53,-350.07 294.96,-345.65"/>
</g>
<!-- [root] var.deploy_management -->
<g id="node_6" class="node">
<title>[root] var.deploy_management</title>
<polygon fill="none" stroke="black" points="346,-322 346,-337 429,-337 429,-322 346,-322"/>
<text text-anchor="start" x="380.5" y="-327.6" font-family="courier new" font-size="8.00">var</text>
<polygon fill="none" stroke="black" points="346,-307 346,-322 429,-322 429,-307 346,-307"/>
<text text-anchor="start" x="349" y="-312.6" font-family="courier new" font-size="8.00">deploy_management</text>
</g>
<!-- [root] root&#45;&gt;[root] var.deploy_management -->
<g id="edge_19" class="edge">
<title>[root] root&#45;&gt;[root] var.deploy_management</title>
<path fill="none" stroke="black" d="M343.34,-375.7C350.29,-367.3 358.77,-357.07 366.4,-347.86"/>
<polygon fill="black" stroke="black" points="369.14,-350.04 372.83,-340.1 363.75,-345.57 369.14,-350.04"/>
</g>
</g>
</svg>

