<?xml version="1.0" encoding="UTF-8" standalone="no"?>
<!DOCTYPE svg PUBLIC "-//W3C//DTD SVG 1.1//EN"
 "http://www.w3.org/Graphics/SVG/1.1/DTD/svg11.dtd">
<!-- Generated by graphviz version 2.49.3 (20211023.0002)
 -->
<!-- Pages: 1 -->
<svg width="934pt" height="332pt"
 viewBox="0.00 0.00 933.56 332.00" xmlns="http://www.w3.org/2000/svg" xmlns:xlink="http://www.w3.org/1999/xlink">
<g id="graph0" class="graph" transform="scale(1 1) rotate(0) translate(4 328)">
<polygon fill="white" stroke="transparent" points="-4,4 -4,-328 929.56,-328 929.56,4 -4,4"/>
<!-- [root] azurerm_container_group.containerinstancegroup (expand) -->
<g id="node1" class="node">
<title>[root] azurerm_container_group.containerinstancegroup (expand)</title>
<polygon fill="none" stroke="black" points="593.09,-180 300.09,-180 300.09,-144 593.09,-144 593.09,-180"/>
<text text-anchor="middle" x="446.59" y="-158.3" font-family="Times New Roman,serif" font-size="14.00">azurerm_container_group.containerinstancegroup</text>
</g>
<!-- [root] azurerm_resource_group.rg (expand) -->
<g id="node2" class="node">
<title>[root] azurerm_resource_group.rg (expand)</title>
<polygon fill="none" stroke="black" points="532.59,-108 360.59,-108 360.59,-72 532.59,-72 532.59,-108"/>
<text text-anchor="middle" x="446.59" y="-86.3" font-family="Times New Roman,serif" font-size="14.00">azurerm_resource_group.rg</text>
</g>
<!-- [root] azurerm_container_group.containerinstancegroup (expand)&#45;&gt;[root] azurerm_resource_group.rg (expand) -->
<g id="edge1" class="edge">
<title>[root] azurerm_container_group.containerinstancegroup (expand)&#45;&gt;[root] azurerm_resource_group.rg (expand)</title>
<path fill="none" stroke="black" d="M446.59,-143.7C446.59,-135.98 446.59,-126.71 446.59,-118.11"/>
<polygon fill="black" stroke="black" points="450.09,-118.1 446.59,-108.1 443.09,-118.1 450.09,-118.1"/>
</g>
<!-- [root] provider[&quot;registry.terraform.io/hashicorp/azurerm&quot;] -->
<g id="node4" class="node">
<title>[root] provider[&quot;registry.terraform.io/hashicorp/azurerm&quot;]</title>
<polygon fill="none" stroke="black" points="277.59,-36 -0.09,-18 277.59,0 555.26,-18 277.59,-36"/>
<text text-anchor="middle" x="277.59" y="-14.3" font-family="Times New Roman,serif" font-size="14.00">provider[&quot;registry.terraform.io/hashicorp/azurerm&quot;]</text>
</g>
<!-- [root] azurerm_resource_group.rg (expand)&#45;&gt;[root] provider[&quot;registry.terraform.io/hashicorp/azurerm&quot;] -->
<g id="edge2" class="edge">
<title>[root] azurerm_resource_group.rg (expand)&#45;&gt;[root] provider[&quot;registry.terraform.io/hashicorp/azurerm&quot;]</title>
<path fill="none" stroke="black" d="M405.24,-71.88C380.29,-61.54 348.47,-48.36 322.84,-37.74"/>
<polygon fill="black" stroke="black" points="323.93,-34.41 313.35,-33.81 321.25,-40.87 323.93,-34.41"/>
</g>
<!-- [root] var.resource -->
<g id="node5" class="node">
<title>[root] var.resource</title>
<polygon fill="none" stroke="black" points="653.59,-36 573.59,-36 573.59,0 659.59,0 659.59,-30 653.59,-36"/>
<polyline fill="none" stroke="black" points="653.59,-36 653.59,-30 "/>
<polyline fill="none" stroke="black" points="659.59,-30 653.59,-30 "/>
<text text-anchor="middle" x="616.59" y="-14.3" font-family="Times New Roman,serif" font-size="14.00">var.resource</text>
</g>
<!-- [root] azurerm_resource_group.rg (expand)&#45;&gt;[root] var.resource -->
<g id="edge3" class="edge">
<title>[root] azurerm_resource_group.rg (expand)&#45;&gt;[root] var.resource</title>
<path fill="none" stroke="black" d="M488.17,-71.88C511.62,-62.22 541.09,-50.09 565.88,-39.88"/>
<polygon fill="black" stroke="black" points="567.22,-43.11 575.13,-36.07 564.55,-36.64 567.22,-43.11"/>
</g>
<!-- [root] output.containerinstance_url -->
<g id="node3" class="node">
<title>[root] output.containerinstance_url</title>
<polygon fill="none" stroke="black" points="296.59,-252 128.59,-252 128.59,-216 302.59,-216 302.59,-246 296.59,-252"/>
<polyline fill="none" stroke="black" points="296.59,-252 296.59,-246 "/>
<polyline fill="none" stroke="black" points="302.59,-246 296.59,-246 "/>
<text text-anchor="middle" x="215.59" y="-230.3" font-family="Times New Roman,serif" font-size="14.00">output.containerinstance_url</text>
</g>
<!-- [root] output.containerinstance_url&#45;&gt;[root] azurerm_container_group.containerinstancegroup (expand) -->
<g id="edge4" class="edge">
<title>[root] output.containerinstance_url&#45;&gt;[root] azurerm_container_group.containerinstancegroup (expand)</title>
<path fill="none" stroke="black" d="M271.8,-215.97C304.5,-206.06 345.89,-193.51 380.19,-183.12"/>
<polygon fill="black" stroke="black" points="381.56,-186.36 390.12,-180.11 379.53,-179.66 381.56,-186.36"/>
</g>
<!-- [root] var.source_ip -->
<g id="node6" class="node">
<title>[root] var.source_ip</title>
<polygon fill="none" stroke="black" points="408.09,-252 321.09,-252 321.09,-216 414.09,-216 414.09,-246 408.09,-252"/>
<polyline fill="none" stroke="black" points="408.09,-252 408.09,-246 "/>
<polyline fill="none" stroke="black" points="414.09,-246 408.09,-246 "/>
<text text-anchor="middle" x="367.59" y="-230.3" font-family="Times New Roman,serif" font-size="14.00">var.source_ip</text>
</g>
<!-- [root] provider[&quot;registry.terraform.io/hashicorp/azurerm&quot;] (close) -->
<g id="node7" class="node">
<title>[root] provider[&quot;registry.terraform.io/hashicorp/azurerm&quot;] (close)</title>
<ellipse fill="none" stroke="black" cx="678.59" cy="-234" rx="246.96" ry="18"/>
<text text-anchor="middle" x="678.59" y="-230.3" font-family="Times New Roman,serif" font-size="14.00">[root] provider[&quot;registry.terraform.io/hashicorp/azurerm&quot;] (close)</text>
</g>
<!-- [root] provider[&quot;registry.terraform.io/hashicorp/azurerm&quot;] (close)&#45;&gt;[root] azurerm_container_group.containerinstancegroup (expand) -->
<g id="edge5" class="edge">
<title>[root] provider[&quot;registry.terraform.io/hashicorp/azurerm&quot;] (close)&#45;&gt;[root] azurerm_container_group.containerinstancegroup (expand)</title>
<path fill="none" stroke="black" d="M623.6,-216.41C590.41,-206.4 547.9,-193.57 512.86,-183"/>
<polygon fill="black" stroke="black" points="513.77,-179.62 503.19,-180.08 511.75,-186.32 513.77,-179.62"/>
</g>
<!-- [root] root -->
<g id="node8" class="node">
<title>[root] root</title>
<ellipse fill="none" stroke="black" cx="367.59" cy="-306" rx="49.29" ry="18"/>
<text text-anchor="middle" x="367.59" y="-302.3" font-family="Times New Roman,serif" font-size="14.00">[root] root</text>
</g>
<!-- [root] root&#45;&gt;[root] output.containerinstance_url -->
<g id="edge6" class="edge">
<title>[root] root&#45;&gt;[root] output.containerinstance_url</title>
<path fill="none" stroke="black" d="M338.28,-291.5C316.63,-281.53 286.73,-267.76 261.87,-256.31"/>
<polygon fill="black" stroke="black" points="263.16,-253.06 252.61,-252.05 260.23,-259.41 263.16,-253.06"/>
</g>
<!-- [root] root&#45;&gt;[root] var.source_ip -->
<g id="edge8" class="edge">
<title>[root] root&#45;&gt;[root] var.source_ip</title>
<path fill="none" stroke="black" d="M367.59,-287.7C367.59,-279.98 367.59,-270.71 367.59,-262.11"/>
<polygon fill="black" stroke="black" points="371.09,-262.1 367.59,-252.1 364.09,-262.1 371.09,-262.1"/>
</g>
<!-- [root] root&#45;&gt;[root] provider[&quot;registry.terraform.io/hashicorp/azurerm&quot;] (close) -->
<g id="edge7" class="edge">
<title>[root] root&#45;&gt;[root] provider[&quot;registry.terraform.io/hashicorp/azurerm&quot;] (close)</title>
<path fill="none" stroke="black" d="M408.56,-295.78C456.22,-285.05 536.07,-267.08 596.61,-253.45"/>
<polygon fill="black" stroke="black" points="597.55,-256.83 606.53,-251.22 596.01,-250 597.55,-256.83"/>
</g>
</g>
</svg>
