<?xml version="1.0" encoding="UTF-8" standalone="no"?>
<!DOCTYPE svg PUBLIC "-//W3C//DTD SVG 1.1//EN"
 "http://www.w3.org/Graphics/SVG/1.1/DTD/svg11.dtd">
<!-- Generated by graphviz version 2.49.3 (20211023.0002)
 -->
<!-- Pages: 1 -->
<svg width="1260pt" height="620pt"
 viewBox="0.00 0.00 1259.50 620.00" xmlns="http://www.w3.org/2000/svg" xmlns:xlink="http://www.w3.org/1999/xlink">
<g id="graph0" class="graph" transform="scale(1 1) rotate(0) translate(4 616)">
<polygon fill="white" stroke="transparent" points="-4,4 -4,-616 1255.5,-616 1255.5,4 -4,4"/>
<!-- [root] azurerm_lb.lb (expand) -->
<g id="node1" class="node">
<title>[root] azurerm_lb.lb (expand)</title>
<polygon fill="none" stroke="black" points="1066.5,-252 973.5,-252 973.5,-216 1066.5,-216 1066.5,-252"/>
<text text-anchor="middle" x="1020" y="-230.3" font-family="Times New Roman,serif" font-size="14.00">azurerm_lb.lb</text>
</g>
<!-- [root] azurerm_public_ip.lbip (expand) -->
<g id="node9" class="node">
<title>[root] azurerm_public_ip.lbip (expand)</title>
<polygon fill="none" stroke="black" points="1093,-180 947,-180 947,-144 1093,-144 1093,-180"/>
<text text-anchor="middle" x="1020" y="-158.3" font-family="Times New Roman,serif" font-size="14.00">azurerm_public_ip.lbip</text>
</g>
<!-- [root] azurerm_lb.lb (expand)&#45;&gt;[root] azurerm_public_ip.lbip (expand) -->
<g id="edge1" class="edge">
<title>[root] azurerm_lb.lb (expand)&#45;&gt;[root] azurerm_public_ip.lbip (expand)</title>
<path fill="none" stroke="black" d="M1020,-215.7C1020,-207.98 1020,-198.71 1020,-190.11"/>
<polygon fill="black" stroke="black" points="1023.5,-190.1 1020,-180.1 1016.5,-190.1 1023.5,-190.1"/>
</g>
<!-- [root] azurerm_lb_backend_address_pool.backend_address_pool (expand) -->
<g id="node2" class="node">
<title>[root] azurerm_lb_backend_address_pool.backend_address_pool (expand)</title>
<polygon fill="none" stroke="black" points="1112.5,-324 759.5,-324 759.5,-288 1112.5,-288 1112.5,-324"/>
<text text-anchor="middle" x="936" y="-302.3" font-family="Times New Roman,serif" font-size="14.00">azurerm_lb_backend_address_pool.backend_address_pool</text>
</g>
<!-- [root] azurerm_lb_backend_address_pool.backend_address_pool (expand)&#45;&gt;[root] azurerm_lb.lb (expand) -->
<g id="edge2" class="edge">
<title>[root] azurerm_lb_backend_address_pool.backend_address_pool (expand)&#45;&gt;[root] azurerm_lb.lb (expand)</title>
<path fill="none" stroke="black" d="M956.76,-287.7C967.24,-278.97 980.11,-268.24 991.5,-258.75"/>
<polygon fill="black" stroke="black" points="994.03,-261.19 999.47,-252.1 989.55,-255.82 994.03,-261.19"/>
</g>
<!-- [root] azurerm_lb_outbound_rule.lb_outbound_rule (expand) -->
<g id="node3" class="node">
<title>[root] azurerm_lb_outbound_rule.lb_outbound_rule (expand)</title>
<polygon fill="none" stroke="black" points="917,-468 645,-468 645,-432 917,-432 917,-468"/>
<text text-anchor="middle" x="781" y="-446.3" font-family="Times New Roman,serif" font-size="14.00">azurerm_lb_outbound_rule.lb_outbound_rule</text>
</g>
<!-- [root] azurerm_lb_outbound_rule.lb_outbound_rule (expand)&#45;&gt;[root] azurerm_lb_backend_address_pool.backend_address_pool (expand) -->
<g id="edge3" class="edge">
<title>[root] azurerm_lb_outbound_rule.lb_outbound_rule (expand)&#45;&gt;[root] azurerm_lb_backend_address_pool.backend_address_pool (expand)</title>
<path fill="none" stroke="black" d="M799.7,-431.87C827.16,-406.71 878.53,-359.65 909.76,-331.04"/>
<polygon fill="black" stroke="black" points="912.23,-333.53 917.24,-324.19 907.5,-328.36 912.23,-333.53"/>
</g>
<!-- [root] azurerm_lb_probe.probe (expand) -->
<g id="node4" class="node">
<title>[root] azurerm_lb_probe.probe (expand)</title>
<polygon fill="none" stroke="black" points="1088,-396 932,-396 932,-360 1088,-360 1088,-396"/>
<text text-anchor="middle" x="1010" y="-374.3" font-family="Times New Roman,serif" font-size="14.00">azurerm_lb_probe.probe</text>
</g>
<!-- [root] azurerm_lb_probe.probe (expand)&#45;&gt;[root] azurerm_lb.lb (expand) -->
<g id="edge4" class="edge">
<title>[root] azurerm_lb_probe.probe (expand)&#45;&gt;[root] azurerm_lb.lb (expand)</title>
<path fill="none" stroke="black" d="M1076.56,-359.94C1094.35,-352.02 1111.53,-340.54 1122,-324 1130.56,-310.48 1130.31,-301.68 1122,-288 1111.63,-270.93 1093.79,-259.11 1075.9,-251.04"/>
<polygon fill="black" stroke="black" points="1077.15,-247.77 1066.57,-247.15 1074.46,-254.23 1077.15,-247.77"/>
</g>
<!-- [root] azurerm_lb_rule.lb_rule (expand) -->
<g id="node5" class="node">
<title>[root] azurerm_lb_rule.lb_rule (expand)</title>
<polygon fill="none" stroke="black" points="1084.5,-468 935.5,-468 935.5,-432 1084.5,-432 1084.5,-468"/>
<text text-anchor="middle" x="1010" y="-446.3" font-family="Times New Roman,serif" font-size="14.00">azurerm_lb_rule.lb_rule</text>
</g>
<!-- [root] azurerm_lb_rule.lb_rule (expand)&#45;&gt;[root] azurerm_lb_probe.probe (expand) -->
<g id="edge5" class="edge">
<title>[root] azurerm_lb_rule.lb_rule (expand)&#45;&gt;[root] azurerm_lb_probe.probe (expand)</title>
<path fill="none" stroke="black" d="M1010,-431.7C1010,-423.98 1010,-414.71 1010,-406.11"/>
<polygon fill="black" stroke="black" points="1013.5,-406.1 1010,-396.1 1006.5,-406.1 1013.5,-406.1"/>
</g>
<!-- [root] azurerm_linux_virtual_machine_scale_set.scaleset (expand) -->
<g id="node6" class="node">
<title>[root] azurerm_linux_virtual_machine_scale_set.scaleset (expand)</title>
<polygon fill="none" stroke="black" points="581.5,-396 286.5,-396 286.5,-360 581.5,-360 581.5,-396"/>
<text text-anchor="middle" x="434" y="-374.3" font-family="Times New Roman,serif" font-size="14.00">azurerm_linux_virtual_machine_scale_set.scaleset</text>
</g>
<!-- [root] azurerm_linux_virtual_machine_scale_set.scaleset (expand)&#45;&gt;[root] azurerm_lb_backend_address_pool.backend_address_pool (expand) -->
<g id="edge6" class="edge">
<title>[root] azurerm_linux_virtual_machine_scale_set.scaleset (expand)&#45;&gt;[root] azurerm_lb_backend_address_pool.backend_address_pool (expand)</title>
<path fill="none" stroke="black" d="M556.16,-359.97C631.01,-349.53 726.84,-336.17 803.52,-325.47"/>
<polygon fill="black" stroke="black" points="804.31,-328.9 813.73,-324.05 803.34,-321.96 804.31,-328.9"/>
</g>
<!-- [root] azurerm_network_security_group.sg (expand) -->
<g id="node8" class="node">
<title>[root] azurerm_network_security_group.sg (expand)</title>
<polygon fill="none" stroke="black" points="741.5,-324 520.5,-324 520.5,-288 741.5,-288 741.5,-324"/>
<text text-anchor="middle" x="631" y="-302.3" font-family="Times New Roman,serif" font-size="14.00">azurerm_network_security_group.sg</text>
</g>
<!-- [root] azurerm_linux_virtual_machine_scale_set.scaleset (expand)&#45;&gt;[root] azurerm_network_security_group.sg (expand) -->
<g id="edge7" class="edge">
<title>[root] azurerm_linux_virtual_machine_scale_set.scaleset (expand)&#45;&gt;[root] azurerm_network_security_group.sg (expand)</title>
<path fill="none" stroke="black" d="M481.94,-359.97C509.47,-350.19 544.22,-337.84 573.24,-327.52"/>
<polygon fill="black" stroke="black" points="574.59,-330.76 582.85,-324.11 572.25,-324.16 574.59,-330.76"/>
</g>
<!-- [root] azurerm_subnet.subnet (expand) -->
<g id="node11" class="node">
<title>[root] azurerm_subnet.subnet (expand)</title>
<polygon fill="none" stroke="black" points="164,-324 18,-324 18,-288 164,-288 164,-324"/>
<text text-anchor="middle" x="91" y="-302.3" font-family="Times New Roman,serif" font-size="14.00">azurerm_subnet.subnet</text>
</g>
<!-- [root] azurerm_linux_virtual_machine_scale_set.scaleset (expand)&#45;&gt;[root] azurerm_subnet.subnet (expand) -->
<g id="edge8" class="edge">
<title>[root] azurerm_linux_virtual_machine_scale_set.scaleset (expand)&#45;&gt;[root] azurerm_subnet.subnet (expand)</title>
<path fill="none" stroke="black" d="M349.64,-359.96C301.02,-350.12 238.46,-337.42 174.22,-324.25"/>
<polygon fill="black" stroke="black" points="174.81,-320.8 164.31,-322.21 173.41,-327.65 174.81,-320.8"/>
</g>
<!-- [root] var.vm -->
<g id="node18" class="node">
<title>[root] var.vm</title>
<polygon fill="none" stroke="black" points="231.5,-324 182.5,-324 182.5,-288 237.5,-288 237.5,-318 231.5,-324"/>
<polyline fill="none" stroke="black" points="231.5,-324 231.5,-318 "/>
<polyline fill="none" stroke="black" points="237.5,-318 231.5,-318 "/>
<text text-anchor="middle" x="210" y="-302.3" font-family="Times New Roman,serif" font-size="14.00">var.vm</text>
</g>
<!-- [root] azurerm_linux_virtual_machine_scale_set.scaleset (expand)&#45;&gt;[root] var.vm -->
<g id="edge10" class="edge">
<title>[root] azurerm_linux_virtual_machine_scale_set.scaleset (expand)&#45;&gt;[root] var.vm</title>
<path fill="none" stroke="black" d="M363.91,-359.89C328.45,-350.54 284.99,-338.02 247,-324 246.9,-323.96 246.81,-323.93 246.71,-323.89"/>
<polygon fill="black" stroke="black" points="248.27,-320.75 237.69,-320.28 245.67,-327.25 248.27,-320.75"/>
</g>
<!-- [root] local.user_data (expand) -->
<g id="node19" class="node">
<title>[root] local.user_data (expand)</title>
<ellipse fill="none" stroke="black" cx="379" cy="-306" rx="123.48" ry="18"/>
<text text-anchor="middle" x="379" y="-302.3" font-family="Times New Roman,serif" font-size="14.00">[root] local.user_data (expand)</text>
</g>
<!-- [root] azurerm_linux_virtual_machine_scale_set.scaleset (expand)&#45;&gt;[root] local.user_data (expand) -->
<g id="edge9" class="edge">
<title>[root] azurerm_linux_virtual_machine_scale_set.scaleset (expand)&#45;&gt;[root] local.user_data (expand)</title>
<path fill="none" stroke="black" d="M420.4,-359.7C413.88,-351.39 405.93,-341.28 398.75,-332.14"/>
<polygon fill="black" stroke="black" points="401.37,-329.81 392.44,-324.1 395.87,-334.13 401.37,-329.81"/>
</g>
<!-- [root] azurerm_monitor_autoscale_setting.autoscaler (expand) -->
<g id="node7" class="node">
<title>[root] azurerm_monitor_autoscale_setting.autoscaler (expand)</title>
<polygon fill="none" stroke="black" points="598.5,-468 323.5,-468 323.5,-432 598.5,-432 598.5,-468"/>
<text text-anchor="middle" x="461" y="-446.3" font-family="Times New Roman,serif" font-size="14.00">azurerm_monitor_autoscale_setting.autoscaler</text>
</g>
<!-- [root] azurerm_monitor_autoscale_setting.autoscaler (expand)&#45;&gt;[root] azurerm_linux_virtual_machine_scale_set.scaleset (expand) -->
<g id="edge11" class="edge">
<title>[root] azurerm_monitor_autoscale_setting.autoscaler (expand)&#45;&gt;[root] azurerm_linux_virtual_machine_scale_set.scaleset (expand)</title>
<path fill="none" stroke="black" d="M454.33,-431.7C451.29,-423.81 447.62,-414.3 444.24,-405.55"/>
<polygon fill="black" stroke="black" points="447.46,-404.17 440.6,-396.1 440.93,-406.69 447.46,-404.17"/>
</g>
<!-- [root] azurerm_resource_group.rg (expand) -->
<g id="node10" class="node">
<title>[root] azurerm_resource_group.rg (expand)</title>
<polygon fill="none" stroke="black" points="679,-108 507,-108 507,-72 679,-72 679,-108"/>
<text text-anchor="middle" x="593" y="-86.3" font-family="Times New Roman,serif" font-size="14.00">azurerm_resource_group.rg</text>
</g>
<!-- [root] azurerm_network_security_group.sg (expand)&#45;&gt;[root] azurerm_resource_group.rg (expand) -->
<g id="edge12" class="edge">
<title>[root] azurerm_network_security_group.sg (expand)&#45;&gt;[root] azurerm_resource_group.rg (expand)</title>
<path fill="none" stroke="black" d="M624.09,-287.59C620.28,-277.37 615.78,-264.12 613,-252 602.36,-205.63 597.06,-150.36 594.68,-118.12"/>
<polygon fill="black" stroke="black" points="598.17,-117.85 593.98,-108.12 591.18,-118.34 598.17,-117.85"/>
</g>
<!-- [root] var.source_ip -->
<g id="node17" class="node">
<title>[root] var.source_ip</title>
<polygon fill="none" stroke="black" points="708.5,-252 621.5,-252 621.5,-216 714.5,-216 714.5,-246 708.5,-252"/>
<polyline fill="none" stroke="black" points="708.5,-252 708.5,-246 "/>
<polyline fill="none" stroke="black" points="714.5,-246 708.5,-246 "/>
<text text-anchor="middle" x="668" y="-230.3" font-family="Times New Roman,serif" font-size="14.00">var.source_ip</text>
</g>
<!-- [root] azurerm_network_security_group.sg (expand)&#45;&gt;[root] var.source_ip -->
<g id="edge13" class="edge">
<title>[root] azurerm_network_security_group.sg (expand)&#45;&gt;[root] var.source_ip</title>
<path fill="none" stroke="black" d="M640.15,-287.7C644.4,-279.64 649.56,-269.89 654.27,-260.98"/>
<polygon fill="black" stroke="black" points="657.38,-262.58 658.96,-252.1 651.19,-259.31 657.38,-262.58"/>
</g>
<!-- [root] azurerm_public_ip.lbip (expand)&#45;&gt;[root] azurerm_resource_group.rg (expand) -->
<g id="edge14" class="edge">
<title>[root] azurerm_public_ip.lbip (expand)&#45;&gt;[root] azurerm_resource_group.rg (expand)</title>
<path fill="none" stroke="black" d="M946.6,-148.97C875.51,-137.31 767.33,-119.58 689.35,-106.79"/>
<polygon fill="black" stroke="black" points="689.47,-103.27 679.03,-105.1 688.34,-110.18 689.47,-103.27"/>
</g>
<!-- [root] provider[&quot;registry.terraform.io/hashicorp/azurerm&quot;] -->
<g id="node15" class="node">
<title>[root] provider[&quot;registry.terraform.io/hashicorp/azurerm&quot;]</title>
<polygon fill="none" stroke="black" points="424,-36 146.33,-18 424,0 701.67,-18 424,-36"/>
<text text-anchor="middle" x="424" y="-14.3" font-family="Times New Roman,serif" font-size="14.00">provider[&quot;registry.terraform.io/hashicorp/azurerm&quot;]</text>
</g>
<!-- [root] azurerm_resource_group.rg (expand)&#45;&gt;[root] provider[&quot;registry.terraform.io/hashicorp/azurerm&quot;] -->
<g id="edge15" class="edge">
<title>[root] azurerm_resource_group.rg (expand)&#45;&gt;[root] provider[&quot;registry.terraform.io/hashicorp/azurerm&quot;]</title>
<path fill="none" stroke="black" d="M551.66,-71.88C526.7,-61.54 494.88,-48.36 469.25,-37.74"/>
<polygon fill="black" stroke="black" points="470.34,-34.41 459.76,-33.81 467.66,-40.87 470.34,-34.41"/>
</g>
<!-- [root] var.resource -->
<g id="node16" class="node">
<title>[root] var.resource</title>
<polygon fill="none" stroke="black" points="800,-36 720,-36 720,0 806,0 806,-30 800,-36"/>
<polyline fill="none" stroke="black" points="800,-36 800,-30 "/>
<polyline fill="none" stroke="black" points="806,-30 800,-30 "/>
<text text-anchor="middle" x="763" y="-14.3" font-family="Times New Roman,serif" font-size="14.00">var.resource</text>
</g>
<!-- [root] azurerm_resource_group.rg (expand)&#45;&gt;[root] var.resource -->
<g id="edge16" class="edge">
<title>[root] azurerm_resource_group.rg (expand)&#45;&gt;[root] var.resource</title>
<path fill="none" stroke="black" d="M634.59,-71.88C658.03,-62.22 687.5,-50.09 712.3,-39.88"/>
<polygon fill="black" stroke="black" points="713.63,-43.11 721.55,-36.07 710.97,-36.64 713.63,-43.11"/>
</g>
<!-- [root] azurerm_virtual_network.vnet (expand) -->
<g id="node12" class="node">
<title>[root] azurerm_virtual_network.vnet (expand)</title>
<polygon fill="none" stroke="black" points="182,-252 0,-252 0,-216 182,-216 182,-252"/>
<text text-anchor="middle" x="91" y="-230.3" font-family="Times New Roman,serif" font-size="14.00">azurerm_virtual_network.vnet</text>
</g>
<!-- [root] azurerm_subnet.subnet (expand)&#45;&gt;[root] azurerm_virtual_network.vnet (expand) -->
<g id="edge17" class="edge">
<title>[root] azurerm_subnet.subnet (expand)&#45;&gt;[root] azurerm_virtual_network.vnet (expand)</title>
<path fill="none" stroke="black" d="M91,-287.7C91,-279.98 91,-270.71 91,-262.11"/>
<polygon fill="black" stroke="black" points="94.5,-262.1 91,-252.1 87.5,-262.1 94.5,-262.1"/>
</g>
<!-- [root] azurerm_virtual_network.vnet (expand)&#45;&gt;[root] azurerm_resource_group.rg (expand) -->
<g id="edge18" class="edge">
<title>[root] azurerm_virtual_network.vnet (expand)&#45;&gt;[root] azurerm_resource_group.rg (expand)</title>
<path fill="none" stroke="black" d="M151.55,-215.87C244.96,-189.45 423.74,-138.88 522.71,-110.88"/>
<polygon fill="black" stroke="black" points="523.95,-114.17 532.62,-108.08 522.05,-107.43 523.95,-114.17"/>
</g>
<!-- [root] output.loadbalancer_ip -->
<g id="node13" class="node">
<title>[root] output.loadbalancer_ip</title>
<polygon fill="none" stroke="black" points="1245.5,-396 1106.5,-396 1106.5,-360 1251.5,-360 1251.5,-390 1245.5,-396"/>
<polyline fill="none" stroke="black" points="1245.5,-396 1245.5,-390 "/>
<polyline fill="none" stroke="black" points="1251.5,-390 1245.5,-390 "/>
<text text-anchor="middle" x="1179" y="-374.3" font-family="Times New Roman,serif" font-size="14.00">output.loadbalancer_ip</text>
</g>
<!-- [root] output.loadbalancer_ip&#45;&gt;[root] azurerm_public_ip.lbip (expand) -->
<g id="edge19" class="edge">
<title>[root] output.loadbalancer_ip&#45;&gt;[root] azurerm_public_ip.lbip (expand)</title>
<path fill="none" stroke="black" d="M1173.03,-359.84C1166.2,-341.33 1154.01,-311.38 1139,-288 1116.03,-252.22 1105.47,-246.65 1076,-216 1066.63,-206.26 1055.93,-195.95 1046.42,-187.04"/>
<polygon fill="black" stroke="black" points="1048.8,-184.48 1039.09,-180.24 1044.04,-189.61 1048.8,-184.48"/>
</g>
<!-- [root] output.vnet -->
<g id="node14" class="node">
<title>[root] output.vnet</title>
<polygon fill="none" stroke="black" points="267,-540 193,-540 193,-504 273,-504 273,-534 267,-540"/>
<polyline fill="none" stroke="black" points="267,-540 267,-534 "/>
<polyline fill="none" stroke="black" points="273,-534 267,-534 "/>
<text text-anchor="middle" x="233" y="-518.3" font-family="Times New Roman,serif" font-size="14.00">output.vnet</text>
</g>
<!-- [root] output.vnet&#45;&gt;[root] azurerm_virtual_network.vnet (expand) -->
<g id="edge20" class="edge">
<title>[root] output.vnet&#45;&gt;[root] azurerm_virtual_network.vnet (expand)</title>
<path fill="none" stroke="black" d="M199.55,-503.86C147.34,-474.96 48.37,-411.06 9,-324 2.41,-309.42 1.35,-302.05 9,-288 15.91,-275.3 27.32,-265.18 39.46,-257.33"/>
<polygon fill="black" stroke="black" points="41.59,-260.14 48.38,-252.01 38,-254.13 41.59,-260.14"/>
</g>
<!-- [root] provider[&quot;registry.terraform.io/hashicorp/azurerm&quot;] (close) -->
<g id="node20" class="node">
<title>[root] provider[&quot;registry.terraform.io/hashicorp/azurerm&quot;] (close)</title>
<ellipse fill="none" stroke="black" cx="781" cy="-522" rx="246.96" ry="18"/>
<text text-anchor="middle" x="781" y="-518.3" font-family="Times New Roman,serif" font-size="14.00">[root] provider[&quot;registry.terraform.io/hashicorp/azurerm&quot;] (close)</text>
</g>
<!-- [root] provider[&quot;registry.terraform.io/hashicorp/azurerm&quot;] (close)&#45;&gt;[root] azurerm_lb_outbound_rule.lb_outbound_rule (expand) -->
<g id="edge21" class="edge">
<title>[root] provider[&quot;registry.terraform.io/hashicorp/azurerm&quot;] (close)&#45;&gt;[root] azurerm_lb_outbound_rule.lb_outbound_rule (expand)</title>
<path fill="none" stroke="black" d="M781,-503.7C781,-495.98 781,-486.71 781,-478.11"/>
<polygon fill="black" stroke="black" points="784.5,-478.1 781,-468.1 777.5,-478.1 784.5,-478.1"/>
</g>
<!-- [root] provider[&quot;registry.terraform.io/hashicorp/azurerm&quot;] (close)&#45;&gt;[root] azurerm_lb_rule.lb_rule (expand) -->
<g id="edge22" class="edge">
<title>[root] provider[&quot;registry.terraform.io/hashicorp/azurerm&quot;] (close)&#45;&gt;[root] azurerm_lb_rule.lb_rule (expand)</title>
<path fill="none" stroke="black" d="M835.27,-504.41C867.89,-494.44 909.63,-481.68 944.14,-471.13"/>
<polygon fill="black" stroke="black" points="945.59,-474.35 954.13,-468.08 943.54,-467.65 945.59,-474.35"/>
</g>
<!-- [root] provider[&quot;registry.terraform.io/hashicorp/azurerm&quot;] (close)&#45;&gt;[root] azurerm_monitor_autoscale_setting.autoscaler (expand) -->
<g id="edge23" class="edge">
<title>[root] provider[&quot;registry.terraform.io/hashicorp/azurerm&quot;] (close)&#45;&gt;[root] azurerm_monitor_autoscale_setting.autoscaler (expand)</title>
<path fill="none" stroke="black" d="M706.78,-504.76C659.63,-494.45 598.36,-481.05 548.79,-470.2"/>
<polygon fill="black" stroke="black" points="549.24,-466.72 538.72,-468 547.74,-473.56 549.24,-466.72"/>
</g>
<!-- [root] root -->
<g id="node21" class="node">
<title>[root] root</title>
<ellipse fill="none" stroke="black" cx="781" cy="-594" rx="49.29" ry="18"/>
<text text-anchor="middle" x="781" y="-590.3" font-family="Times New Roman,serif" font-size="14.00">[root] root</text>
</g>
<!-- [root] root&#45;&gt;[root] output.loadbalancer_ip -->
<g id="edge24" class="edge">
<title>[root] root&#45;&gt;[root] output.loadbalancer_ip</title>
<path fill="none" stroke="black" d="M830.5,-591.93C884.61,-588.75 972.24,-577.61 1037,-540 1094.79,-506.44 1141.29,-440.91 1163.96,-404.66"/>
<polygon fill="black" stroke="black" points="1166.96,-406.46 1169.21,-396.11 1160.99,-402.8 1166.96,-406.46"/>
</g>
<!-- [root] root&#45;&gt;[root] output.vnet -->
<g id="edge25" class="edge">
<title>[root] root&#45;&gt;[root] output.vnet</title>
<path fill="none" stroke="black" d="M735.22,-587.15C633.4,-574.15 388.85,-542.91 283.11,-529.4"/>
<polygon fill="black" stroke="black" points="283.39,-525.91 273.02,-528.11 282.5,-532.85 283.39,-525.91"/>
</g>
<!-- [root] root&#45;&gt;[root] provider[&quot;registry.terraform.io/hashicorp/azurerm&quot;] (close) -->
<g id="edge26" class="edge">
<title>[root] root&#45;&gt;[root] provider[&quot;registry.terraform.io/hashicorp/azurerm&quot;] (close)</title>
<path fill="none" stroke="black" d="M781,-575.7C781,-567.98 781,-558.71 781,-550.11"/>
<polygon fill="black" stroke="black" points="784.5,-550.1 781,-540.1 777.5,-550.1 784.5,-550.1"/>
</g>
</g>
</svg>
