<?xml version="1.0" encoding="UTF-8" standalone="no"?>
<!DOCTYPE svg PUBLIC "-//W3C//DTD SVG 1.1//EN"
 "http://www.w3.org/Graphics/SVG/1.1/DTD/svg11.dtd">
<!-- Generated by graphviz version 2.43.0 (0)
 -->
<!-- Title: %3 Pages: 1 -->
<svg width="548pt" height="564pt"
 viewBox="0.00 0.00 548.00 564.00" xmlns="http://www.w3.org/2000/svg" xmlns:xlink="http://www.w3.org/1999/xlink">
<g id="graph0" class="graph" transform="scale(1 1) rotate(0) translate(4 560)">
<title>%3</title>
<polygon fill="white" stroke="transparent" points="-4,4 -4,-560 544,-560 544,4 -4,4"/>
<g id="clust2" class="cluster">
<title>cluster[root] azurerm_virtual_network.vnet (expand)_var_</title>
</g>
<g id="clust3" class="cluster">
<title>cluster[root] root_output_[root] azurerm_subnet.subnetexternal (expand)</title>
</g>
<g id="clust4" class="cluster">
<title>cluster[root] root_output_</title>
</g>
<g id="clust5" class="cluster">
<title>cluster[root] root_output_[root] azurerm_subnet.subnetinternal (expand)</title>
</g>
<g id="clust6" class="cluster">
<title>cluster[root] root_output_[root] azurerm_virtual_network.vnet (expand)</title>
</g>
<!-- [root] azurerm_subnet.subnetexternal (expand) -->
<g id="node_0" class="node">
<title>[root] azurerm_subnet.subnetexternal (expand)</title>
<polygon fill="none" stroke="black" points="268,-394 268,-409 338,-409 338,-394 268,-394"/>
<text text-anchor="start" x="271" y="-399.6" font-family="courier new" font-size="8.00">azurerm_subnet</text>
<polygon fill="none" stroke="black" points="268,-379 268,-394 338,-394 338,-379 268,-379"/>
<text text-anchor="start" x="271" y="-384.6" font-family="courier new" font-size="8.00">subnetexternal</text>
</g>
<!-- [root] azurerm_virtual_network.vnet (expand) -->
<g id="node_2" class="node">
<title>[root] azurerm_virtual_network.vnet (expand)</title>
<polygon fill="none" stroke="black" points="346,-322 346,-337 456,-337 456,-322 346,-322"/>
<text text-anchor="start" x="349" y="-327.6" font-family="courier new" font-size="8.00">azurerm_virtual_network</text>
<polygon fill="none" stroke="black" points="346,-307 346,-322 456,-322 456,-307 346,-307"/>
<text text-anchor="start" x="391.5" y="-312.6" font-family="courier new" font-size="8.00">vnet</text>
</g>
<!-- [root] azurerm_subnet.subnetexternal (expand)&#45;&gt;[root] azurerm_virtual_network.vnet (expand) -->
<g id="edge_0" class="edge">
<title>[root] azurerm_subnet.subnetexternal (expand)&#45;&gt;[root] azurerm_virtual_network.vnet (expand)</title>
<path fill="none" stroke="black" d="M326.97,-375.88C339.55,-366.89 355.13,-355.76 368.75,-346.03"/>
<polygon fill="black" stroke="black" points="370.83,-348.85 376.93,-340.19 366.76,-343.15 370.83,-348.85"/>
</g>
<!-- [root] azurerm_subnet.subnetinternal (expand) -->
<g id="node_1" class="node">
<title>[root] azurerm_subnet.subnetinternal (expand)</title>
<polygon fill="none" stroke="black" points="366,-394 366,-409 436,-409 436,-394 366,-394"/>
<text text-anchor="start" x="369" y="-399.6" font-family="courier new" font-size="8.00">azurerm_subnet</text>
<polygon fill="none" stroke="black" points="366,-379 366,-394 436,-394 436,-379 366,-379"/>
<text text-anchor="start" x="369" y="-384.6" font-family="courier new" font-size="8.00">subnetinternal</text>
</g>
<!-- [root] azurerm_subnet.subnetinternal (expand)&#45;&gt;[root] azurerm_virtual_network.vnet (expand) -->
<g id="edge_1" class="edge">
<title>[root] azurerm_subnet.subnetinternal (expand)&#45;&gt;[root] azurerm_virtual_network.vnet (expand)</title>
<path fill="none" stroke="black" d="M401,-375.7C401,-367.98 401,-358.71 401,-350.11"/>
<polygon fill="black" stroke="black" points="404.5,-350.1 401,-340.1 397.5,-350.1 404.5,-350.1"/>
</g>
<!-- [root] provider[&quot;registry.terraform.io/hashicorp/azurerm&quot;] -->
<g id="node_8" class="node">
<title>[root] provider[&quot;registry.terraform.io/hashicorp/azurerm&quot;]</title>
<polygon fill="none" stroke="black" points="274,-250 274,-265 384,-265 384,-250 274,-250"/>
<text text-anchor="start" x="308.5" y="-255.6" font-family="courier new" font-size="8.00">terraform</text>
<polygon fill="none" stroke="black" points="274,-235 274,-250 384,-250 384,-235 274,-235"/>
<text text-anchor="start" x="277" y="-240.6" font-family="courier new" font-size="8.00">io/hashicorp/azurerm\&quot;]</text>
</g>
<!-- [root] azurerm_virtual_network.vnet (expand)&#45;&gt;[root] provider[&quot;registry.terraform.io/hashicorp/azurerm&quot;] -->
<g id="edge_2" class="edge">
<title>[root] azurerm_virtual_network.vnet (expand)&#45;&gt;[root] provider[&quot;registry.terraform.io/hashicorp/azurerm&quot;]</title>
<path fill="none" stroke="black" d="M383.2,-303.7C374.4,-295.14 363.62,-284.66 354,-275.3"/>
<polygon fill="black" stroke="black" points="356.2,-272.57 346.59,-268.1 351.32,-277.58 356.2,-272.57"/>
</g>
<!-- [root] var.location -->
<g id="node_9" class="node">
<title>[root] var.location</title>
<polygon fill="none" stroke="black" points="414,-250 414,-265 457,-265 457,-250 414,-250"/>
<text text-anchor="start" x="428.5" y="-255.6" font-family="courier new" font-size="8.00">var</text>
<polygon fill="none" stroke="black" points="414,-235 414,-250 457,-250 457,-235 414,-235"/>
<text text-anchor="start" x="417" y="-240.6" font-family="courier new" font-size="8.00">location</text>
</g>
<!-- [root] azurerm_virtual_network.vnet (expand)&#45;&gt;[root] var.location -->
<g id="edge_3" class="edge">
<title>[root] azurerm_virtual_network.vnet (expand)&#45;&gt;[root] var.location</title>
<path fill="none" stroke="black" d="M409.4,-303.7C413.27,-295.73 417.95,-286.1 422.24,-277.26"/>
<polygon fill="black" stroke="black" points="425.47,-278.63 426.69,-268.1 419.17,-275.57 425.47,-278.63"/>
</g>
<!-- [root] provider[&quot;registry.terraform.io/hashicorp/azurerm&quot;] (close) -->
<g id="node_13" class="node">
<title>[root] provider[&quot;registry.terraform.io/hashicorp/azurerm&quot;] (close)</title>
<polygon fill="none" stroke="black" points="248,-466 248,-481 358,-481 358,-466 248,-466"/>
<text text-anchor="start" x="282.5" y="-471.6" font-family="courier new" font-size="8.00">terraform</text>
<polygon fill="none" stroke="black" points="248,-451 248,-466 358,-466 358,-451 248,-451"/>
<text text-anchor="start" x="251" y="-456.6" font-family="courier new" font-size="8.00">io/hashicorp/azurerm\&quot;]</text>
</g>
<!-- [root] provider[&quot;registry.terraform.io/hashicorp/azurerm&quot;] (close)&#45;&gt;[root] azurerm_subnet.subnetexternal (expand) -->
<g id="edge_10" class="edge">
<title>[root] provider[&quot;registry.terraform.io/hashicorp/azurerm&quot;] (close)&#45;&gt;[root] azurerm_subnet.subnetexternal (expand)</title>
<path fill="none" stroke="black" d="M303,-447.7C303,-439.98 303,-430.71 303,-422.11"/>
<polygon fill="black" stroke="black" points="306.5,-422.1 303,-412.1 299.5,-422.1 306.5,-422.1"/>
</g>
<!-- [root] provider[&quot;registry.terraform.io/hashicorp/azurerm&quot;] (close)&#45;&gt;[root] azurerm_subnet.subnetinternal (expand) -->
<g id="edge_11" class="edge">
<title>[root] provider[&quot;registry.terraform.io/hashicorp/azurerm&quot;] (close)&#45;&gt;[root] azurerm_subnet.subnetinternal (expand)</title>
<path fill="none" stroke="black" d="M326.97,-447.88C339.55,-438.89 355.13,-427.76 368.75,-418.03"/>
<polygon fill="black" stroke="black" points="370.83,-420.85 376.93,-412.19 366.76,-415.15 370.83,-420.85"/>
</g>
<!-- [root] root -->
<g id="node_14" class="node">
<title>[root] root</title>
<polygon fill="none" stroke="black" points="336,-556 270,-556 270,-520 336,-520 336,-556"/>
<text text-anchor="middle" x="303" y="-536.1" font-family="courier new" font-size="8.00">[root] root</text>
</g>
<!-- [root] root&#45;&gt;[root] provider[&quot;registry.terraform.io/hashicorp/azurerm&quot;] (close) -->
<g id="edge_17" class="edge">
<title>[root] root&#45;&gt;[root] provider[&quot;registry.terraform.io/hashicorp/azurerm&quot;] (close)</title>
<path fill="none" stroke="black" d="M303,-519.7C303,-511.98 303,-502.71 303,-494.11"/>
<polygon fill="black" stroke="black" points="306.5,-494.1 303,-484.1 299.5,-494.1 306.5,-494.1"/>
</g>
<!-- [root] output.subnetexternal -->
<g id="node_3" class="node">
<title>[root] output.subnetexternal</title>
<polygon fill="none" stroke="black" points="160,-466 160,-481 230,-481 230,-466 160,-466"/>
<text text-anchor="start" x="181" y="-471.6" font-family="courier new" font-size="8.00">output</text>
<polygon fill="none" stroke="black" points="160,-451 160,-466 230,-466 230,-451 160,-451"/>
<text text-anchor="start" x="163" y="-456.6" font-family="courier new" font-size="8.00">subnetexternal</text>
</g>
<!-- [root] root&#45;&gt;[root] output.subnetexternal -->
<g id="edge_12" class="edge">
<title>[root] root&#45;&gt;[root] output.subnetexternal</title>
<path fill="none" stroke="black" d="M276.58,-519.88C262.59,-510.81 245.22,-499.55 230.11,-489.76"/>
<polygon fill="black" stroke="black" points="231.82,-486.69 221.52,-484.19 228.01,-492.57 231.82,-486.69"/>
</g>
<!-- [root] output.subnetexternalstartadress -->
<g id="node_4" class="node">
<title>[root] output.subnetexternalstartadress</title>
<polygon fill="none" stroke="black" points="17,-466 17,-481 136,-481 136,-466 17,-466"/>
<text text-anchor="start" x="62.5" y="-471.6" font-family="courier new" font-size="8.00">output</text>
<polygon fill="none" stroke="black" points="17,-451 17,-466 136,-466 136,-451 17,-451"/>
<text text-anchor="start" x="20" y="-456.6" font-family="courier new" font-size="8.00">subnetexternalstartadress</text>
</g>
<!-- [root] root&#45;&gt;[root] output.subnetexternalstartadress -->
<g id="edge_13" class="edge">
<title>[root] root&#45;&gt;[root] output.subnetexternalstartadress</title>
<path fill="none" stroke="black" d="M269.89,-527.92C238.41,-519.16 189.78,-505.31 148,-492 143.36,-490.52 138.56,-488.95 133.75,-487.35"/>
<polygon fill="black" stroke="black" points="134.5,-483.91 123.91,-484.02 132.26,-490.54 134.5,-483.91"/>
</g>
<!-- [root] output.subnetinternal -->
<g id="node_5" class="node">
<title>[root] output.subnetinternal</title>
<polygon fill="none" stroke="black" points="376,-466 376,-481 446,-481 446,-466 376,-466"/>
<text text-anchor="start" x="397" y="-471.6" font-family="courier new" font-size="8.00">output</text>
<polygon fill="none" stroke="black" points="376,-451 376,-466 446,-466 446,-451 376,-451"/>
<text text-anchor="start" x="379" y="-456.6" font-family="courier new" font-size="8.00">subnetinternal</text>
</g>
<!-- [root] root&#45;&gt;[root] output.subnetinternal -->
<g id="edge_14" class="edge">
<title>[root] root&#45;&gt;[root] output.subnetinternal</title>
<path fill="none" stroke="black" d="M329.42,-519.88C343.41,-510.81 360.78,-499.55 375.89,-489.76"/>
<polygon fill="black" stroke="black" points="377.99,-492.57 384.48,-484.19 374.18,-486.69 377.99,-492.57"/>
</g>
<!-- [root] output.vnet -->
<g id="node_7" class="node">
<title>[root] output.vnet</title>
<polygon fill="none" stroke="black" points="480,-466 480,-481 514,-481 514,-466 480,-466"/>
<text text-anchor="start" x="483" y="-471.6" font-family="courier new" font-size="8.00">output</text>
<polygon fill="none" stroke="black" points="480,-451 480,-466 514,-466 514,-451 480,-451"/>
<text text-anchor="start" x="487.5" y="-456.6" font-family="courier new" font-size="8.00">vnet</text>
</g>
<!-- [root] root&#45;&gt;[root] output.vnet -->
<g id="edge_16" class="edge">
<title>[root] root&#45;&gt;[root] output.vnet</title>
<path fill="none" stroke="black" d="M336.03,-530.31C368.09,-523.16 417.69,-510.31 458,-492 459.81,-491.18 461.64,-490.28 463.46,-489.33"/>
<polygon fill="black" stroke="black" points="465.45,-492.22 472.43,-484.24 462,-486.13 465.45,-492.22"/>
</g>
<!-- [root] var.project -->
<g id="node_10" class="node">
<title>[root] var.project</title>
<polygon fill="none" stroke="black" points="419,-178 419,-193 457,-193 457,-178 419,-178"/>
<text text-anchor="start" x="431" y="-183.6" font-family="courier new" font-size="8.00">var</text>
<polygon fill="none" stroke="black" points="419,-163 419,-178 457,-178 457,-163 419,-163"/>
<text text-anchor="start" x="422" y="-168.6" font-family="courier new" font-size="8.00">project</text>
</g>
<!-- [root] var.location&#45;&gt;[root] var.project -->
<g id="edge_18" class="edge">
<title>[root] var.location&#45;&gt;[root] var.project</title>
<path fill="none" stroke="black" stroke-dasharray="5,2" d="M435.74,-231.7C436.21,-220.85 436.8,-206.92 437.27,-196.1"/>
</g>
<!-- [root] var.resourcegroupname -->
<g id="node_11" class="node">
<title>[root] var.resourcegroupname</title>
<polygon fill="none" stroke="black" points="401,-106 401,-121 484,-121 484,-106 401,-106"/>
<text text-anchor="start" x="435.5" y="-111.6" font-family="courier new" font-size="8.00">var</text>
<polygon fill="none" stroke="black" points="401,-91 401,-106 484,-106 484,-91 401,-91"/>
<text text-anchor="start" x="404" y="-96.6" font-family="courier new" font-size="8.00">resourcegroupname</text>
</g>
<!-- [root] var.project&#45;&gt;[root] var.resourcegroupname -->
<g id="edge_19" class="edge">
<title>[root] var.project&#45;&gt;[root] var.resourcegroupname</title>
<path fill="none" stroke="black" stroke-dasharray="5,2" d="M438.99,-159.7C439.61,-148.85 440.4,-134.92 441.02,-124.1"/>
</g>
<!-- [root] var.tags -->
<g id="node_12" class="node">
<title>[root] var.tags</title>
<polygon fill="none" stroke="black" points="430,-34 430,-49 455,-49 455,-34 430,-34"/>
<text text-anchor="start" x="435.5" y="-39.6" font-family="courier new" font-size="8.00">var</text>
<polygon fill="none" stroke="black" points="430,-19 430,-34 455,-34 455,-19 430,-19"/>
<text text-anchor="start" x="433" y="-24.6" font-family="courier new" font-size="8.00">tags</text>
</g>
<!-- [root] var.resourcegroupname&#45;&gt;[root] var.tags -->
<g id="edge_20" class="edge">
<title>[root] var.resourcegroupname&#45;&gt;[root] var.tags</title>
<path fill="none" stroke="black" stroke-dasharray="5,2" d="M442,-87.7C442,-76.85 442,-62.92 442,-52.1"/>
</g>
<!-- [root] output.subnetexternal&#45;&gt;[root] azurerm_subnet.subnetexternal (expand) -->
<g id="edge_7" class="edge">
<title>[root] output.subnetexternal&#45;&gt;[root] azurerm_subnet.subnetexternal (expand)</title>
<path fill="none" stroke="black" d="M221.42,-447.88C235.41,-438.81 252.78,-427.55 267.89,-417.76"/>
<polygon fill="black" stroke="black" points="269.99,-420.57 276.48,-412.19 266.18,-414.69 269.99,-420.57"/>
</g>
<!-- [root] output.subnetinternalstartadress -->
<g id="node_6" class="node">
<title>[root] output.subnetinternalstartadress</title>
<polygon fill="none" stroke="black" points="17,-394 17,-409 136,-409 136,-394 17,-394"/>
<text text-anchor="start" x="62.5" y="-399.6" font-family="courier new" font-size="8.00">output</text>
<polygon fill="none" stroke="black" points="17,-379 17,-394 136,-394 136,-379 17,-379"/>
<text text-anchor="start" x="20" y="-384.6" font-family="courier new" font-size="8.00">subnetinternalstartadress</text>
</g>
<!-- [root] output.subnetexternalstartadress&#45;&gt;[root] output.subnetinternalstartadress -->
<g id="edge_21" class="edge">
<title>[root] output.subnetexternalstartadress&#45;&gt;[root] output.subnetinternalstartadress</title>
<path fill="none" stroke="black" stroke-dasharray="5,2" d="M76,-447.7C76,-436.85 76,-422.92 76,-412.1"/>
</g>
<!-- [root] output.subnetinternal&#45;&gt;[root] azurerm_subnet.subnetinternal (expand) -->
<g id="edge_8" class="edge">
<title>[root] output.subnetinternal&#45;&gt;[root] azurerm_subnet.subnetinternal (expand)</title>
<path fill="none" stroke="black" d="M408.53,-447.7C407.43,-439.98 406.1,-430.71 404.87,-422.11"/>
<polygon fill="black" stroke="black" points="408.32,-421.51 403.44,-412.1 401.39,-422.5 408.32,-421.51"/>
</g>
<!-- [root] output.vnet&#45;&gt;[root] azurerm_virtual_network.vnet (expand) -->
<g id="edge_9" class="edge">
<title>[root] output.vnet&#45;&gt;[root] azurerm_virtual_network.vnet (expand)</title>
<path fill="none" stroke="black" d="M489.52,-447.67C480.45,-427.57 463.99,-393.88 445,-368 439.8,-360.91 433.51,-353.83 427.35,-347.45"/>
<polygon fill="black" stroke="black" points="429.78,-344.93 420.23,-340.33 424.82,-349.88 429.78,-344.93"/>
</g>
</g>
</svg>

