<?xml version="1.0" encoding="UTF-8" standalone="no"?>
<!DOCTYPE svg PUBLIC "-//W3C//DTD SVG 1.1//EN"
 "http://www.w3.org/Graphics/SVG/1.1/DTD/svg11.dtd">
<!-- Generated by graphviz version 2.43.0 (0)
 -->
<!-- Title: %3 Pages: 1 -->
<svg width="425pt" height="564pt"
 viewBox="0.00 0.00 425.00 564.00" xmlns="http://www.w3.org/2000/svg" xmlns:xlink="http://www.w3.org/1999/xlink">
<g id="graph0" class="graph" transform="scale(1 1) rotate(0) translate(4 560)">
<title>%3</title>
<polygon fill="white" stroke="transparent" points="-4,4 -4,-560 421,-560 421,4 -4,4"/>
<g id="clust2" class="cluster">
<title>cluster[root] azurerm_virtual_network.vnet (expand)_var_</title>
</g>
<g id="clust3" class="cluster">
<title>cluster[root] root_output_[root] azurerm_subnet.subnetexternal (expand)</title>
</g>
<g id="clust4" class="cluster">
<title>cluster[root] root_output_[root] azurerm_subnet.subnetinternal (expand)</title>
</g>
<g id="clust5" class="cluster">
<title>cluster[root] root_output_[root] azurerm_virtual_network.vnet (expand)</title>
</g>
<!-- [root] azurerm_subnet.subnetexternal (expand) -->
<g id="node_0" class="node">
<title>[root] azurerm_subnet.subnetexternal (expand)</title>
<polygon fill="none" stroke="black" points="124,-394 124,-409 194,-409 194,-394 124,-394"/>
<text text-anchor="start" x="127" y="-399.6" font-family="courier new" font-size="8.00">azurerm_subnet</text>
<polygon fill="none" stroke="black" points="124,-379 124,-394 194,-394 194,-379 124,-379"/>
<text text-anchor="start" x="127" y="-384.6" font-family="courier new" font-size="8.00">subnetexternal</text>
</g>
<!-- [root] azurerm_virtual_network.vnet (expand) -->
<g id="node_2" class="node">
<title>[root] azurerm_virtual_network.vnet (expand)</title>
<polygon fill="none" stroke="black" points="202,-322 202,-337 312,-337 312,-322 202,-322"/>
<text text-anchor="start" x="205" y="-327.6" font-family="courier new" font-size="8.00">azurerm_virtual_network</text>
<polygon fill="none" stroke="black" points="202,-307 202,-322 312,-322 312,-307 202,-307"/>
<text text-anchor="start" x="247.5" y="-312.6" font-family="courier new" font-size="8.00">vnet</text>
</g>
<!-- [root] azurerm_subnet.subnetexternal (expand)&#45;&gt;[root] azurerm_virtual_network.vnet (expand) -->
<g id="edge_0" class="edge">
<title>[root] azurerm_subnet.subnetexternal (expand)&#45;&gt;[root] azurerm_virtual_network.vnet (expand)</title>
<path fill="none" stroke="black" d="M182.97,-375.88C195.55,-366.89 211.13,-355.76 224.75,-346.03"/>
<polygon fill="black" stroke="black" points="226.83,-348.85 232.93,-340.19 222.76,-343.15 226.83,-348.85"/>
</g>
<!-- [root] azurerm_subnet.subnetinternal (expand) -->
<g id="node_1" class="node">
<title>[root] azurerm_subnet.subnetinternal (expand)</title>
<polygon fill="none" stroke="black" points="222,-394 222,-409 292,-409 292,-394 222,-394"/>
<text text-anchor="start" x="225" y="-399.6" font-family="courier new" font-size="8.00">azurerm_subnet</text>
<polygon fill="none" stroke="black" points="222,-379 222,-394 292,-394 292,-379 222,-379"/>
<text text-anchor="start" x="225" y="-384.6" font-family="courier new" font-size="8.00">subnetinternal</text>
</g>
<!-- [root] azurerm_subnet.subnetinternal (expand)&#45;&gt;[root] azurerm_virtual_network.vnet (expand) -->
<g id="edge_1" class="edge">
<title>[root] azurerm_subnet.subnetinternal (expand)&#45;&gt;[root] azurerm_virtual_network.vnet (expand)</title>
<path fill="none" stroke="black" d="M257,-375.7C257,-367.98 257,-358.71 257,-350.11"/>
<polygon fill="black" stroke="black" points="260.5,-350.1 257,-340.1 253.5,-350.1 260.5,-350.1"/>
</g>
<!-- [root] provider[&quot;registry.terraform.io/hashicorp/azurerm&quot;] -->
<g id="node_6" class="node">
<title>[root] provider[&quot;registry.terraform.io/hashicorp/azurerm&quot;]</title>
<polygon fill="none" stroke="black" points="191,-250 191,-265 301,-265 301,-250 191,-250"/>
<text text-anchor="start" x="225.5" y="-255.6" font-family="courier new" font-size="8.00">terraform</text>
<polygon fill="none" stroke="black" points="191,-235 191,-250 301,-250 301,-235 191,-235"/>
<text text-anchor="start" x="194" y="-240.6" font-family="courier new" font-size="8.00">io/hashicorp/azurerm\&quot;]</text>
</g>
<!-- [root] azurerm_virtual_network.vnet (expand)&#45;&gt;[root] provider[&quot;registry.terraform.io/hashicorp/azurerm&quot;] -->
<g id="edge_2" class="edge">
<title>[root] azurerm_virtual_network.vnet (expand)&#45;&gt;[root] provider[&quot;registry.terraform.io/hashicorp/azurerm&quot;]</title>
<path fill="none" stroke="black" d="M254.28,-303.7C253.07,-295.98 251.61,-286.71 250.26,-278.11"/>
<polygon fill="black" stroke="black" points="253.7,-277.44 248.69,-268.1 246.78,-278.53 253.7,-277.44"/>
</g>
<!-- [root] var.location -->
<g id="node_7" class="node">
<title>[root] var.location</title>
<polygon fill="none" stroke="black" points="331,-250 331,-265 374,-265 374,-250 331,-250"/>
<text text-anchor="start" x="345.5" y="-255.6" font-family="courier new" font-size="8.00">var</text>
<polygon fill="none" stroke="black" points="331,-235 331,-250 374,-250 374,-235 331,-235"/>
<text text-anchor="start" x="334" y="-240.6" font-family="courier new" font-size="8.00">location</text>
</g>
<!-- [root] azurerm_virtual_network.vnet (expand)&#45;&gt;[root] var.location -->
<g id="edge_3" class="edge">
<title>[root] azurerm_virtual_network.vnet (expand)&#45;&gt;[root] var.location</title>
<path fill="none" stroke="black" d="M280.48,-303.7C292.56,-294.8 307.45,-283.82 320.52,-274.2"/>
<polygon fill="black" stroke="black" points="322.81,-276.85 328.79,-268.1 318.66,-271.22 322.81,-276.85"/>
</g>
<!-- [root] provider[&quot;registry.terraform.io/hashicorp/azurerm&quot;] (close) -->
<g id="node_11" class="node">
<title>[root] provider[&quot;registry.terraform.io/hashicorp/azurerm&quot;] (close)</title>
<polygon fill="none" stroke="black" points="104,-466 104,-481 214,-481 214,-466 104,-466"/>
<text text-anchor="start" x="138.5" y="-471.6" font-family="courier new" font-size="8.00">terraform</text>
<polygon fill="none" stroke="black" points="104,-451 104,-466 214,-466 214,-451 104,-451"/>
<text text-anchor="start" x="107" y="-456.6" font-family="courier new" font-size="8.00">io/hashicorp/azurerm\&quot;]</text>
</g>
<!-- [root] provider[&quot;registry.terraform.io/hashicorp/azurerm&quot;] (close)&#45;&gt;[root] azurerm_subnet.subnetexternal (expand) -->
<g id="edge_10" class="edge">
<title>[root] provider[&quot;registry.terraform.io/hashicorp/azurerm&quot;] (close)&#45;&gt;[root] azurerm_subnet.subnetexternal (expand)</title>
<path fill="none" stroke="black" d="M159,-447.7C159,-439.98 159,-430.71 159,-422.11"/>
<polygon fill="black" stroke="black" points="162.5,-422.1 159,-412.1 155.5,-422.1 162.5,-422.1"/>
</g>
<!-- [root] provider[&quot;registry.terraform.io/hashicorp/azurerm&quot;] (close)&#45;&gt;[root] azurerm_subnet.subnetinternal (expand) -->
<g id="edge_11" class="edge">
<title>[root] provider[&quot;registry.terraform.io/hashicorp/azurerm&quot;] (close)&#45;&gt;[root] azurerm_subnet.subnetinternal (expand)</title>
<path fill="none" stroke="black" d="M182.97,-447.88C195.55,-438.89 211.13,-427.76 224.75,-418.03"/>
<polygon fill="black" stroke="black" points="226.83,-420.85 232.93,-412.19 222.76,-415.15 226.83,-420.85"/>
</g>
<!-- [root] root -->
<g id="node_12" class="node">
<title>[root] root</title>
<polygon fill="none" stroke="black" points="246,-556 180,-556 180,-520 246,-520 246,-556"/>
<text text-anchor="middle" x="213" y="-536.1" font-family="courier new" font-size="8.00">[root] root</text>
</g>
<!-- [root] root&#45;&gt;[root] provider[&quot;registry.terraform.io/hashicorp/azurerm&quot;] (close) -->
<g id="edge_15" class="edge">
<title>[root] root&#45;&gt;[root] provider[&quot;registry.terraform.io/hashicorp/azurerm&quot;] (close)</title>
<path fill="none" stroke="black" d="M199.65,-519.7C193.24,-511.39 185.44,-501.28 178.39,-492.14"/>
<polygon fill="black" stroke="black" points="181.07,-489.88 172.19,-484.1 175.53,-494.16 181.07,-489.88"/>
</g>
<!-- [root] output.subnetexternal -->
<g id="node_3" class="node">
<title>[root] output.subnetexternal</title>
<polygon fill="none" stroke="black" points="16,-466 16,-481 86,-481 86,-466 16,-466"/>
<text text-anchor="start" x="37" y="-471.6" font-family="courier new" font-size="8.00">output</text>
<polygon fill="none" stroke="black" points="16,-451 16,-466 86,-466 86,-451 16,-451"/>
<text text-anchor="start" x="19" y="-456.6" font-family="courier new" font-size="8.00">subnetexternal</text>
</g>
<!-- [root] root&#45;&gt;[root] output.subnetexternal -->
<g id="edge_12" class="edge">
<title>[root] root&#45;&gt;[root] output.subnetexternal</title>
<path fill="none" stroke="black" d="M179.89,-525.9C155.92,-517.49 122.96,-505.18 95,-492 92.93,-491.03 90.83,-489.99 88.73,-488.92"/>
<polygon fill="black" stroke="black" points="90.02,-485.64 79.54,-484.05 86.74,-491.83 90.02,-485.64"/>
</g>
<!-- [root] output.subnetinternal -->
<g id="node_4" class="node">
<title>[root] output.subnetinternal</title>
<polygon fill="none" stroke="black" points="232,-466 232,-481 302,-481 302,-466 232,-466"/>
<text text-anchor="start" x="253" y="-471.6" font-family="courier new" font-size="8.00">output</text>
<polygon fill="none" stroke="black" points="232,-451 232,-466 302,-466 302,-451 232,-451"/>
<text text-anchor="start" x="235" y="-456.6" font-family="courier new" font-size="8.00">subnetinternal</text>
</g>
<!-- [root] root&#45;&gt;[root] output.subnetinternal -->
<g id="edge_13" class="edge">
<title>[root] root&#45;&gt;[root] output.subnetinternal</title>
<path fill="none" stroke="black" d="M226.35,-519.7C232.76,-511.39 240.56,-501.28 247.61,-492.14"/>
<polygon fill="black" stroke="black" points="250.47,-494.16 253.81,-484.1 244.93,-489.88 250.47,-494.16"/>
</g>
<!-- [root] output.vnet -->
<g id="node_5" class="node">
<title>[root] output.vnet</title>
<polygon fill="none" stroke="black" points="336,-466 336,-481 370,-481 370,-466 336,-466"/>
<text text-anchor="start" x="339" y="-471.6" font-family="courier new" font-size="8.00">output</text>
<polygon fill="none" stroke="black" points="336,-451 336,-466 370,-466 370,-451 336,-451"/>
<text text-anchor="start" x="343.5" y="-456.6" font-family="courier new" font-size="8.00">vnet</text>
</g>
<!-- [root] root&#45;&gt;[root] output.vnet -->
<g id="edge_14" class="edge">
<title>[root] root&#45;&gt;[root] output.vnet</title>
<path fill="none" stroke="black" d="M246.35,-523.64C266.33,-515.26 292.04,-503.85 314,-492 315.51,-491.19 317.04,-490.33 318.57,-489.46"/>
<polygon fill="black" stroke="black" points="320.53,-492.37 327.32,-484.23 316.94,-486.36 320.53,-492.37"/>
</g>
<!-- [root] var.project -->
<g id="node_8" class="node">
<title>[root] var.project</title>
<polygon fill="none" stroke="black" points="336,-178 336,-193 374,-193 374,-178 336,-178"/>
<text text-anchor="start" x="348" y="-183.6" font-family="courier new" font-size="8.00">var</text>
<polygon fill="none" stroke="black" points="336,-163 336,-178 374,-178 374,-163 336,-163"/>
<text text-anchor="start" x="339" y="-168.6" font-family="courier new" font-size="8.00">project</text>
</g>
<!-- [root] var.location&#45;&gt;[root] var.project -->
<g id="edge_16" class="edge">
<title>[root] var.location&#45;&gt;[root] var.project</title>
<path fill="none" stroke="black" stroke-dasharray="5,2" d="M352.74,-231.7C353.21,-220.85 353.8,-206.92 354.27,-196.1"/>
</g>
<!-- [root] var.resourcegroupname -->
<g id="node_9" class="node">
<title>[root] var.resourcegroupname</title>
<polygon fill="none" stroke="black" points="318,-106 318,-121 401,-121 401,-106 318,-106"/>
<text text-anchor="start" x="352.5" y="-111.6" font-family="courier new" font-size="8.00">var</text>
<polygon fill="none" stroke="black" points="318,-91 318,-106 401,-106 401,-91 318,-91"/>
<text text-anchor="start" x="321" y="-96.6" font-family="courier new" font-size="8.00">resourcegroupname</text>
</g>
<!-- [root] var.project&#45;&gt;[root] var.resourcegroupname -->
<g id="edge_17" class="edge">
<title>[root] var.project&#45;&gt;[root] var.resourcegroupname</title>
<path fill="none" stroke="black" stroke-dasharray="5,2" d="M355.99,-159.7C356.61,-148.85 357.4,-134.92 358.02,-124.1"/>
</g>
<!-- [root] var.tags -->
<g id="node_10" class="node">
<title>[root] var.tags</title>
<polygon fill="none" stroke="black" points="347,-34 347,-49 372,-49 372,-34 347,-34"/>
<text text-anchor="start" x="352.5" y="-39.6" font-family="courier new" font-size="8.00">var</text>
<polygon fill="none" stroke="black" points="347,-19 347,-34 372,-34 372,-19 347,-19"/>
<text text-anchor="start" x="350" y="-24.6" font-family="courier new" font-size="8.00">tags</text>
</g>
<!-- [root] var.resourcegroupname&#45;&gt;[root] var.tags -->
<g id="edge_18" class="edge">
<title>[root] var.resourcegroupname&#45;&gt;[root] var.tags</title>
<path fill="none" stroke="black" stroke-dasharray="5,2" d="M359,-87.7C359,-76.85 359,-62.92 359,-52.1"/>
</g>
<!-- [root] output.subnetexternal&#45;&gt;[root] azurerm_subnet.subnetexternal (expand) -->
<g id="edge_7" class="edge">
<title>[root] output.subnetexternal&#45;&gt;[root] azurerm_subnet.subnetexternal (expand)</title>
<path fill="none" stroke="black" d="M77.42,-447.88C91.41,-438.81 108.78,-427.55 123.89,-417.76"/>
<polygon fill="black" stroke="black" points="125.99,-420.57 132.48,-412.19 122.18,-414.69 125.99,-420.57"/>
</g>
<!-- [root] output.subnetinternal&#45;&gt;[root] azurerm_subnet.subnetinternal (expand) -->
<g id="edge_8" class="edge">
<title>[root] output.subnetinternal&#45;&gt;[root] azurerm_subnet.subnetinternal (expand)</title>
<path fill="none" stroke="black" d="M264.53,-447.7C263.43,-439.98 262.1,-430.71 260.87,-422.11"/>
<polygon fill="black" stroke="black" points="264.32,-421.51 259.44,-412.1 257.39,-422.5 264.32,-421.51"/>
</g>
<!-- [root] output.vnet&#45;&gt;[root] azurerm_virtual_network.vnet (expand) -->
<g id="edge_9" class="edge">
<title>[root] output.vnet&#45;&gt;[root] azurerm_virtual_network.vnet (expand)</title>
<path fill="none" stroke="black" d="M344.02,-447.76C334.24,-429.44 317.73,-399.89 301,-376 294.35,-366.5 286.42,-356.59 279.14,-347.94"/>
<polygon fill="black" stroke="black" points="281.58,-345.41 272.42,-340.1 276.26,-349.97 281.58,-345.41"/>
</g>
</g>
</svg>

