<?xml version="1.0" encoding="UTF-8" standalone="no"?>
<!DOCTYPE svg PUBLIC "-//W3C//DTD SVG 1.1//EN"
 "http://www.w3.org/Graphics/SVG/1.1/DTD/svg11.dtd">
<!-- Generated by graphviz version 2.43.0 (0)
 -->
<!-- Title: %3 Pages: 1 -->
<svg width="362pt" height="492pt"
 viewBox="0.00 0.00 362.00 492.00" xmlns="http://www.w3.org/2000/svg" xmlns:xlink="http://www.w3.org/1999/xlink">
<g id="graph0" class="graph" transform="scale(1 1) rotate(0) translate(4 488)">
<title>%3</title>
<polygon fill="white" stroke="transparent" points="-4,4 -4,-488 358,-488 358,4 -4,4"/>
<g id="clust2" class="cluster">
<title>cluster[root] azurerm_virtual_network.vnet (expand)_var_</title>
</g>
<g id="clust3" class="cluster">
<title>cluster[root] root_var_</title>
</g>
<g id="clust4" class="cluster">
<title>cluster[root] root_output_</title>
</g>
<g id="clust5" class="cluster">
<title>cluster[root] root_output_[root] azurerm_virtual_network.vnet (expand)</title>
</g>
<!-- [root] azurerm_subnet.subnet1 (expand) -->
<g id="node_0" class="node">
<title>[root] azurerm_subnet.subnet1 (expand)</title>
<polygon fill="none" stroke="black" points="20,-322 20,-337 90,-337 90,-322 20,-322"/>
<text text-anchor="start" x="23" y="-327.6" font-family="courier new" font-size="8.00">azurerm_subnet</text>
<polygon fill="none" stroke="black" points="20,-307 20,-322 90,-322 90,-307 20,-307"/>
<text text-anchor="start" x="39" y="-312.6" font-family="courier new" font-size="8.00">subnet1</text>
</g>
<!-- [root] azurerm_virtual_network.vnet (expand) -->
<g id="node_2" class="node">
<title>[root] azurerm_virtual_network.vnet (expand)</title>
<polygon fill="none" stroke="black" points="88,-250 88,-265 198,-265 198,-250 88,-250"/>
<text text-anchor="start" x="91" y="-255.6" font-family="courier new" font-size="8.00">azurerm_virtual_network</text>
<polygon fill="none" stroke="black" points="88,-235 88,-250 198,-250 198,-235 88,-235"/>
<text text-anchor="start" x="133.5" y="-240.6" font-family="courier new" font-size="8.00">vnet</text>
</g>
<!-- [root] azurerm_subnet.subnet1 (expand)&#45;&gt;[root] azurerm_virtual_network.vnet (expand) -->
<g id="edge_0" class="edge">
<title>[root] azurerm_subnet.subnet1 (expand)&#45;&gt;[root] azurerm_virtual_network.vnet (expand)</title>
<path fill="none" stroke="black" d="M76.75,-303.7C87.84,-294.88 101.47,-284.03 113.49,-274.47"/>
<polygon fill="black" stroke="black" points="115.85,-277.07 121.5,-268.1 111.49,-271.59 115.85,-277.07"/>
</g>
<!-- [root] azurerm_subnet.subnet2 (expand) -->
<g id="node_1" class="node">
<title>[root] azurerm_subnet.subnet2 (expand)</title>
<polygon fill="none" stroke="black" points="108,-322 108,-337 178,-337 178,-322 108,-322"/>
<text text-anchor="start" x="111" y="-327.6" font-family="courier new" font-size="8.00">azurerm_subnet</text>
<polygon fill="none" stroke="black" points="108,-307 108,-322 178,-322 178,-307 108,-307"/>
<text text-anchor="start" x="127" y="-312.6" font-family="courier new" font-size="8.00">subnet2</text>
</g>
<!-- [root] azurerm_subnet.subnet2 (expand)&#45;&gt;[root] azurerm_virtual_network.vnet (expand) -->
<g id="edge_1" class="edge">
<title>[root] azurerm_subnet.subnet2 (expand)&#45;&gt;[root] azurerm_virtual_network.vnet (expand)</title>
<path fill="none" stroke="black" d="M143,-303.7C143,-295.98 143,-286.71 143,-278.11"/>
<polygon fill="black" stroke="black" points="146.5,-278.1 143,-268.1 139.5,-278.1 146.5,-278.1"/>
</g>
<!-- [root] provider[&quot;registry.terraform.io/hashicorp/azurerm&quot;] -->
<g id="node_6" class="node">
<title>[root] provider[&quot;registry.terraform.io/hashicorp/azurerm&quot;]</title>
<polygon fill="none" stroke="black" points="14,-178 14,-193 124,-193 124,-178 14,-178"/>
<text text-anchor="start" x="48.5" y="-183.6" font-family="courier new" font-size="8.00">terraform</text>
<polygon fill="none" stroke="black" points="14,-163 14,-178 124,-178 124,-163 14,-163"/>
<text text-anchor="start" x="17" y="-168.6" font-family="courier new" font-size="8.00">io/hashicorp/azurerm\&quot;]</text>
</g>
<!-- [root] azurerm_virtual_network.vnet (expand)&#45;&gt;[root] provider[&quot;registry.terraform.io/hashicorp/azurerm&quot;] -->
<g id="edge_2" class="edge">
<title>[root] azurerm_virtual_network.vnet (expand)&#45;&gt;[root] provider[&quot;registry.terraform.io/hashicorp/azurerm&quot;]</title>
<path fill="none" stroke="black" d="M124.71,-231.7C115.57,-223.05 104.36,-212.45 94.4,-203.03"/>
<polygon fill="black" stroke="black" points="96.75,-200.43 87.08,-196.1 91.94,-205.52 96.75,-200.43"/>
</g>
<!-- [root] var.location -->
<g id="node_7" class="node">
<title>[root] var.location</title>
<polygon fill="none" stroke="black" points="154,-178 154,-193 197,-193 197,-178 154,-178"/>
<text text-anchor="start" x="168.5" y="-183.6" font-family="courier new" font-size="8.00">var</text>
<polygon fill="none" stroke="black" points="154,-163 154,-178 197,-178 197,-163 154,-163"/>
<text text-anchor="start" x="157" y="-168.6" font-family="courier new" font-size="8.00">location</text>
</g>
<!-- [root] azurerm_virtual_network.vnet (expand)&#45;&gt;[root] var.location -->
<g id="edge_3" class="edge">
<title>[root] azurerm_virtual_network.vnet (expand)&#45;&gt;[root] var.location</title>
<path fill="none" stroke="black" d="M150.91,-231.7C154.55,-223.73 158.95,-214.1 162.99,-205.26"/>
<polygon fill="black" stroke="black" points="166.21,-206.65 167.18,-196.1 159.84,-203.74 166.21,-206.65"/>
</g>
<!-- [root] provider[&quot;registry.terraform.io/hashicorp/azurerm&quot;] (close) -->
<g id="node_11" class="node">
<title>[root] provider[&quot;registry.terraform.io/hashicorp/azurerm&quot;] (close)</title>
<polygon fill="none" stroke="black" points="0,-394 0,-409 110,-409 110,-394 0,-394"/>
<text text-anchor="start" x="34.5" y="-399.6" font-family="courier new" font-size="8.00">terraform</text>
<polygon fill="none" stroke="black" points="0,-379 0,-394 110,-394 110,-379 0,-379"/>
<text text-anchor="start" x="3" y="-384.6" font-family="courier new" font-size="8.00">io/hashicorp/azurerm\&quot;]</text>
</g>
<!-- [root] provider[&quot;registry.terraform.io/hashicorp/azurerm&quot;] (close)&#45;&gt;[root] azurerm_subnet.subnet1 (expand) -->
<g id="edge_7" class="edge">
<title>[root] provider[&quot;registry.terraform.io/hashicorp/azurerm&quot;] (close)&#45;&gt;[root] azurerm_subnet.subnet1 (expand)</title>
<path fill="none" stroke="black" d="M55,-375.7C55,-367.98 55,-358.71 55,-350.11"/>
<polygon fill="black" stroke="black" points="58.5,-350.1 55,-340.1 51.5,-350.1 58.5,-350.1"/>
</g>
<!-- [root] provider[&quot;registry.terraform.io/hashicorp/azurerm&quot;] (close)&#45;&gt;[root] azurerm_subnet.subnet2 (expand) -->
<g id="edge_8" class="edge">
<title>[root] provider[&quot;registry.terraform.io/hashicorp/azurerm&quot;] (close)&#45;&gt;[root] azurerm_subnet.subnet2 (expand)</title>
<path fill="none" stroke="black" d="M76.75,-375.7C87.84,-366.88 101.47,-356.03 113.49,-346.47"/>
<polygon fill="black" stroke="black" points="115.85,-349.07 121.5,-340.1 111.49,-343.59 115.85,-349.07"/>
</g>
<!-- [root] root -->
<g id="node_12" class="node">
<title>[root] root</title>
<polygon fill="none" stroke="black" points="227,-484 161,-484 161,-448 227,-448 227,-484"/>
<text text-anchor="middle" x="194" y="-464.1" font-family="courier new" font-size="8.00">[root] root</text>
</g>
<!-- [root] root&#45;&gt;[root] provider[&quot;registry.terraform.io/hashicorp/azurerm&quot;] (close) -->
<g id="edge_12" class="edge">
<title>[root] root&#45;&gt;[root] provider[&quot;registry.terraform.io/hashicorp/azurerm&quot;] (close)</title>
<path fill="none" stroke="black" d="M160.71,-448.23C141.9,-438.76 118.19,-426.82 97.99,-416.65"/>
<polygon fill="black" stroke="black" points="99.49,-413.49 88.99,-412.12 96.35,-419.74 99.49,-413.49"/>
</g>
<!-- [root] var.tags -->
<g id="node_10" class="node">
<title>[root] var.tags</title>
<polygon fill="none" stroke="black" points="143,-394 143,-409 168,-409 168,-394 143,-394"/>
<text text-anchor="start" x="148.5" y="-399.6" font-family="courier new" font-size="8.00">var</text>
<polygon fill="none" stroke="black" points="143,-379 143,-394 168,-394 168,-379 143,-379"/>
<text text-anchor="start" x="146" y="-384.6" font-family="courier new" font-size="8.00">tags</text>
</g>
<!-- [root] root&#45;&gt;[root] var.tags -->
<g id="edge_13" class="edge">
<title>[root] root&#45;&gt;[root] var.tags</title>
<path fill="none" stroke="black" d="M184.36,-447.7C179.87,-439.64 174.44,-429.89 169.48,-420.98"/>
<polygon fill="black" stroke="black" points="172.45,-419.14 164.53,-412.1 166.34,-422.54 172.45,-419.14"/>
</g>
<!-- [root] output.subnet1 -->
<g id="node_3" class="node">
<title>[root] output.subnet1</title>
<polygon fill="none" stroke="black" points="214,-394 214,-409 252,-409 252,-394 214,-394"/>
<text text-anchor="start" x="219" y="-399.6" font-family="courier new" font-size="8.00">output</text>
<polygon fill="none" stroke="black" points="214,-379 214,-394 252,-394 252,-379 214,-379"/>
<text text-anchor="start" x="217" y="-384.6" font-family="courier new" font-size="8.00">subnet1</text>
</g>
<!-- [root] root&#45;&gt;[root] output.subnet1 -->
<g id="edge_9" class="edge">
<title>[root] root&#45;&gt;[root] output.subnet1</title>
<path fill="none" stroke="black" d="M203.64,-447.7C208.13,-439.64 213.56,-429.89 218.52,-420.98"/>
<polygon fill="black" stroke="black" points="221.66,-422.54 223.47,-412.1 215.55,-419.14 221.66,-422.54"/>
</g>
<!-- [root] output.vnet -->
<g id="node_5" class="node">
<title>[root] output.vnet</title>
<polygon fill="none" stroke="black" points="294,-394 294,-409 328,-409 328,-394 294,-394"/>
<text text-anchor="start" x="297" y="-399.6" font-family="courier new" font-size="8.00">output</text>
<polygon fill="none" stroke="black" points="294,-379 294,-394 328,-394 328,-379 294,-379"/>
<text text-anchor="start" x="301.5" y="-384.6" font-family="courier new" font-size="8.00">vnet</text>
</g>
<!-- [root] root&#45;&gt;[root] output.vnet -->
<g id="edge_11" class="edge">
<title>[root] root&#45;&gt;[root] output.vnet</title>
<path fill="none" stroke="black" d="M224.57,-447.8C239.04,-439.55 256.51,-429.43 272,-420 273.29,-419.22 274.6,-418.41 275.92,-417.6"/>
<polygon fill="black" stroke="black" points="278.06,-420.39 284.67,-412.11 274.34,-414.46 278.06,-420.39"/>
</g>
<!-- [root] var.project -->
<g id="node_8" class="node">
<title>[root] var.project</title>
<polygon fill="none" stroke="black" points="159,-106 159,-121 197,-121 197,-106 159,-106"/>
<text text-anchor="start" x="171" y="-111.6" font-family="courier new" font-size="8.00">var</text>
<polygon fill="none" stroke="black" points="159,-91 159,-106 197,-106 197,-91 159,-91"/>
<text text-anchor="start" x="162" y="-96.6" font-family="courier new" font-size="8.00">project</text>
</g>
<!-- [root] var.location&#45;&gt;[root] var.project -->
<g id="edge_14" class="edge">
<title>[root] var.location&#45;&gt;[root] var.project</title>
<path fill="none" stroke="black" stroke-dasharray="5,2" d="M175.74,-159.7C176.21,-148.85 176.8,-134.92 177.27,-124.1"/>
</g>
<!-- [root] var.resourcegroupname -->
<g id="node_9" class="node">
<title>[root] var.resourcegroupname</title>
<polygon fill="none" stroke="black" points="141,-34 141,-49 224,-49 224,-34 141,-34"/>
<text text-anchor="start" x="175.5" y="-39.6" font-family="courier new" font-size="8.00">var</text>
<polygon fill="none" stroke="black" points="141,-19 141,-34 224,-34 224,-19 141,-19"/>
<text text-anchor="start" x="144" y="-24.6" font-family="courier new" font-size="8.00">resourcegroupname</text>
</g>
<!-- [root] var.project&#45;&gt;[root] var.resourcegroupname -->
<g id="edge_15" class="edge">
<title>[root] var.project&#45;&gt;[root] var.resourcegroupname</title>
<path fill="none" stroke="black" stroke-dasharray="5,2" d="M178.99,-87.7C179.61,-76.85 180.4,-62.92 181.02,-52.1"/>
</g>
<!-- [root] output.subnet2 -->
<g id="node_4" class="node">
<title>[root] output.subnet2</title>
<polygon fill="none" stroke="black" points="214,-322 214,-337 252,-337 252,-322 214,-322"/>
<text text-anchor="start" x="219" y="-327.6" font-family="courier new" font-size="8.00">output</text>
<polygon fill="none" stroke="black" points="214,-307 214,-322 252,-322 252,-307 214,-307"/>
<text text-anchor="start" x="217" y="-312.6" font-family="courier new" font-size="8.00">subnet2</text>
</g>
<!-- [root] output.subnet1&#45;&gt;[root] output.subnet2 -->
<g id="edge_16" class="edge">
<title>[root] output.subnet1&#45;&gt;[root] output.subnet2</title>
<path fill="none" stroke="black" stroke-dasharray="5,2" d="M233,-375.7C233,-364.85 233,-350.92 233,-340.1"/>
</g>
<!-- [root] output.vnet&#45;&gt;[root] azurerm_virtual_network.vnet (expand) -->
<g id="edge_6" class="edge">
<title>[root] output.vnet&#45;&gt;[root] azurerm_virtual_network.vnet (expand)</title>
<path fill="none" stroke="black" d="M308.52,-375.86C304.54,-354.36 294.72,-317.68 272,-296 254.51,-279.31 230.5,-268.78 207.94,-262.14"/>
<polygon fill="black" stroke="black" points="208.61,-258.7 198.04,-259.45 206.77,-265.45 208.61,-258.7"/>
</g>
</g>
</svg>

