<?xml version="1.0" encoding="UTF-8" standalone="no"?>
<!DOCTYPE svg PUBLIC "-//W3C//DTD SVG 1.1//EN"
 "http://www.w3.org/Graphics/SVG/1.1/DTD/svg11.dtd">
<!-- Generated by graphviz version 2.49.3 (20211023.0002)
 -->
<!-- Pages: 1 -->
<svg width="908pt" height="476pt"
 viewBox="0.00 0.00 908.00 476.00" xmlns="http://www.w3.org/2000/svg" xmlns:xlink="http://www.w3.org/1999/xlink">
<g id="graph0" class="graph" transform="scale(1 1) rotate(0) translate(4 472)">
<polygon fill="white" stroke="transparent" points="-4,4 -4,-472 904,-472 904,4 -4,4"/>
<!-- [root] azurerm_mssql_database.sqldb (expand) -->
<g id="node1" class="node">
<title>[root] azurerm_mssql_database.sqldb (expand)</title>
<polygon fill="none" stroke="black" points="464.5,-252 271.5,-252 271.5,-216 464.5,-216 464.5,-252"/>
<text text-anchor="middle" x="368" y="-230.3" font-family="Times New Roman,serif" font-size="14.00">azurerm_mssql_database.sqldb</text>
</g>
<!-- [root] azurerm_mssql_server.sqlserver (expand) -->
<g id="node3" class="node">
<title>[root] azurerm_mssql_server.sqlserver (expand)</title>
<polygon fill="none" stroke="black" points="599.5,-180 402.5,-180 402.5,-144 599.5,-144 599.5,-180"/>
<text text-anchor="middle" x="501" y="-158.3" font-family="Times New Roman,serif" font-size="14.00">azurerm_mssql_server.sqlserver</text>
</g>
<!-- [root] azurerm_mssql_database.sqldb (expand)&#45;&gt;[root] azurerm_mssql_server.sqlserver (expand) -->
<g id="edge1" class="edge">
<title>[root] azurerm_mssql_database.sqldb (expand)&#45;&gt;[root] azurerm_mssql_server.sqlserver (expand)</title>
<path fill="none" stroke="black" d="M400.54,-215.88C418.25,-206.55 440.35,-194.92 459.32,-184.94"/>
<polygon fill="black" stroke="black" points="461.12,-187.94 468.34,-180.19 457.86,-181.75 461.12,-187.94"/>
</g>
<!-- [root] azurerm_mssql_database_extended_auditing_policy.auditingpolicy (expand) -->
<g id="node2" class="node">
<title>[root] azurerm_mssql_database_extended_auditing_policy.auditingpolicy (expand)</title>
<polygon fill="none" stroke="black" points="390,-324 0,-324 0,-288 390,-288 390,-324"/>
<text text-anchor="middle" x="195" y="-302.3" font-family="Times New Roman,serif" font-size="14.00">azurerm_mssql_database_extended_auditing_policy.auditingpolicy</text>
</g>
<!-- [root] azurerm_mssql_database_extended_auditing_policy.auditingpolicy (expand)&#45;&gt;[root] azurerm_mssql_database.sqldb (expand) -->
<g id="edge2" class="edge">
<title>[root] azurerm_mssql_database_extended_auditing_policy.auditingpolicy (expand)&#45;&gt;[root] azurerm_mssql_database.sqldb (expand)</title>
<path fill="none" stroke="black" d="M237.32,-287.88C261.18,-278.22 291.17,-266.09 316.4,-255.88"/>
<polygon fill="black" stroke="black" points="317.86,-259.06 325.82,-252.07 315.23,-252.57 317.86,-259.06"/>
</g>
<!-- [root] azurerm_storage_account.storage (expand) -->
<g id="node7" class="node">
<title>[root] azurerm_storage_account.storage (expand)</title>
<polygon fill="none" stroke="black" points="369.5,-180 164.5,-180 164.5,-144 369.5,-144 369.5,-180"/>
<text text-anchor="middle" x="267" y="-158.3" font-family="Times New Roman,serif" font-size="14.00">azurerm_storage_account.storage</text>
</g>
<!-- [root] azurerm_mssql_database_extended_auditing_policy.auditingpolicy (expand)&#45;&gt;[root] azurerm_storage_account.storage (expand) -->
<g id="edge3" class="edge">
<title>[root] azurerm_mssql_database_extended_auditing_policy.auditingpolicy (expand)&#45;&gt;[root] azurerm_storage_account.storage (expand)</title>
<path fill="none" stroke="black" d="M203.68,-287.87C216.12,-263.35 239.1,-218.03 253.69,-189.26"/>
<polygon fill="black" stroke="black" points="256.88,-190.69 258.28,-180.19 250.64,-187.53 256.88,-190.69"/>
</g>
<!-- [root] azurerm_resource_group.rg (expand) -->
<g id="node4" class="node">
<title>[root] azurerm_resource_group.rg (expand)</title>
<polygon fill="none" stroke="black" points="587,-108 415,-108 415,-72 587,-72 587,-108"/>
<text text-anchor="middle" x="501" y="-86.3" font-family="Times New Roman,serif" font-size="14.00">azurerm_resource_group.rg</text>
</g>
<!-- [root] azurerm_mssql_server.sqlserver (expand)&#45;&gt;[root] azurerm_resource_group.rg (expand) -->
<g id="edge4" class="edge">
<title>[root] azurerm_mssql_server.sqlserver (expand)&#45;&gt;[root] azurerm_resource_group.rg (expand)</title>
<path fill="none" stroke="black" d="M501,-143.7C501,-135.98 501,-126.71 501,-118.11"/>
<polygon fill="black" stroke="black" points="504.5,-118.1 501,-108.1 497.5,-118.1 504.5,-118.1"/>
</g>
<!-- [root] provider[&quot;registry.terraform.io/hashicorp/azurerm&quot;] -->
<g id="node10" class="node">
<title>[root] provider[&quot;registry.terraform.io/hashicorp/azurerm&quot;]</title>
<polygon fill="none" stroke="black" points="332,-36 54.33,-18 332,0 609.67,-18 332,-36"/>
<text text-anchor="middle" x="332" y="-14.3" font-family="Times New Roman,serif" font-size="14.00">provider[&quot;registry.terraform.io/hashicorp/azurerm&quot;]</text>
</g>
<!-- [root] azurerm_resource_group.rg (expand)&#45;&gt;[root] provider[&quot;registry.terraform.io/hashicorp/azurerm&quot;] -->
<g id="edge5" class="edge">
<title>[root] azurerm_resource_group.rg (expand)&#45;&gt;[root] provider[&quot;registry.terraform.io/hashicorp/azurerm&quot;]</title>
<path fill="none" stroke="black" d="M459.66,-71.88C434.7,-61.54 402.88,-48.36 377.25,-37.74"/>
<polygon fill="black" stroke="black" points="378.34,-34.41 367.76,-33.81 375.66,-40.87 378.34,-34.41"/>
</g>
<!-- [root] var.resource -->
<g id="node11" class="node">
<title>[root] var.resource</title>
<polygon fill="none" stroke="black" points="708,-36 628,-36 628,0 714,0 714,-30 708,-36"/>
<polyline fill="none" stroke="black" points="708,-36 708,-30 "/>
<polyline fill="none" stroke="black" points="714,-30 708,-30 "/>
<text text-anchor="middle" x="671" y="-14.3" font-family="Times New Roman,serif" font-size="14.00">var.resource</text>
</g>
<!-- [root] azurerm_resource_group.rg (expand)&#45;&gt;[root] var.resource -->
<g id="edge6" class="edge">
<title>[root] azurerm_resource_group.rg (expand)&#45;&gt;[root] var.resource</title>
<path fill="none" stroke="black" d="M542.59,-71.88C566.03,-62.22 595.5,-50.09 620.3,-39.88"/>
<polygon fill="black" stroke="black" points="621.63,-43.11 629.55,-36.07 618.97,-36.64 621.63,-43.11"/>
</g>
<!-- [root] azurerm_sql_firewall_rule.firewall (expand) -->
<g id="node5" class="node">
<title>[root] azurerm_sql_firewall_rule.firewall (expand)</title>
<polygon fill="none" stroke="black" points="611.5,-324 408.5,-324 408.5,-288 611.5,-288 611.5,-324"/>
<text text-anchor="middle" x="510" y="-302.3" font-family="Times New Roman,serif" font-size="14.00">azurerm_sql_firewall_rule.firewall</text>
</g>
<!-- [root] azurerm_sql_firewall_rule.firewall (expand)&#45;&gt;[root] azurerm_mssql_server.sqlserver (expand) -->
<g id="edge7" class="edge">
<title>[root] azurerm_sql_firewall_rule.firewall (expand)&#45;&gt;[root] azurerm_mssql_server.sqlserver (expand)</title>
<path fill="none" stroke="black" d="M508.91,-287.87C507.38,-263.67 504.56,-219.21 502.74,-190.39"/>
<polygon fill="black" stroke="black" points="506.22,-189.95 502.09,-180.19 499.23,-190.39 506.22,-189.95"/>
</g>
<!-- [root] var.source_ip -->
<g id="node12" class="node">
<title>[root] var.source_ip</title>
<polygon fill="none" stroke="black" points="616.5,-252 529.5,-252 529.5,-216 622.5,-216 622.5,-246 616.5,-252"/>
<polyline fill="none" stroke="black" points="616.5,-252 616.5,-246 "/>
<polyline fill="none" stroke="black" points="622.5,-246 616.5,-246 "/>
<text text-anchor="middle" x="576" y="-230.3" font-family="Times New Roman,serif" font-size="14.00">var.source_ip</text>
</g>
<!-- [root] azurerm_sql_firewall_rule.firewall (expand)&#45;&gt;[root] var.source_ip -->
<g id="edge8" class="edge">
<title>[root] azurerm_sql_firewall_rule.firewall (expand)&#45;&gt;[root] var.source_ip</title>
<path fill="none" stroke="black" d="M526.31,-287.7C534.31,-279.22 544.07,-268.86 552.82,-259.58"/>
<polygon fill="black" stroke="black" points="555.56,-261.78 559.87,-252.1 550.47,-256.98 555.56,-261.78"/>
</g>
<!-- [root] azurerm_sql_virtual_network_rule.sqlvnetrule (expand) -->
<g id="node6" class="node">
<title>[root] azurerm_sql_virtual_network_rule.sqlvnetrule (expand)</title>
<polygon fill="none" stroke="black" points="900,-324 630,-324 630,-288 900,-288 900,-324"/>
<text text-anchor="middle" x="765" y="-302.3" font-family="Times New Roman,serif" font-size="14.00">azurerm_sql_virtual_network_rule.sqlvnetrule</text>
</g>
<!-- [root] azurerm_sql_virtual_network_rule.sqlvnetrule (expand)&#45;&gt;[root] azurerm_mssql_server.sqlserver (expand) -->
<g id="edge9" class="edge">
<title>[root] azurerm_sql_virtual_network_rule.sqlvnetrule (expand)&#45;&gt;[root] azurerm_mssql_server.sqlserver (expand)</title>
<path fill="none" stroke="black" d="M735.92,-287.98C719.05,-277.89 697.55,-264.64 679,-252 656.96,-236.99 654.2,-229.14 631,-216 608.92,-203.49 583.29,-192.39 560.66,-183.62"/>
<polygon fill="black" stroke="black" points="561.75,-180.29 551.16,-180.01 559.26,-186.84 561.75,-180.29"/>
</g>
<!-- [root] azurerm_subnet.subnet (expand) -->
<g id="node8" class="node">
<title>[root] azurerm_subnet.subnet (expand)</title>
<polygon fill="none" stroke="black" points="834,-252 688,-252 688,-216 834,-216 834,-252"/>
<text text-anchor="middle" x="761" y="-230.3" font-family="Times New Roman,serif" font-size="14.00">azurerm_subnet.subnet</text>
</g>
<!-- [root] azurerm_sql_virtual_network_rule.sqlvnetrule (expand)&#45;&gt;[root] azurerm_subnet.subnet (expand) -->
<g id="edge10" class="edge">
<title>[root] azurerm_sql_virtual_network_rule.sqlvnetrule (expand)&#45;&gt;[root] azurerm_subnet.subnet (expand)</title>
<path fill="none" stroke="black" d="M764.01,-287.7C763.57,-279.98 763.04,-270.71 762.55,-262.11"/>
<polygon fill="black" stroke="black" points="766.04,-261.89 761.98,-252.1 759.05,-262.29 766.04,-261.89"/>
</g>
<!-- [root] azurerm_storage_account.storage (expand)&#45;&gt;[root] azurerm_resource_group.rg (expand) -->
<g id="edge11" class="edge">
<title>[root] azurerm_storage_account.storage (expand)&#45;&gt;[root] azurerm_resource_group.rg (expand)</title>
<path fill="none" stroke="black" d="M323.94,-143.97C357.21,-134.01 399.36,-121.41 434.19,-110.99"/>
<polygon fill="black" stroke="black" points="435.22,-114.33 443.8,-108.11 433.22,-107.62 435.22,-114.33"/>
</g>
<!-- [root] azurerm_virtual_network.vnet (expand) -->
<g id="node9" class="node">
<title>[root] azurerm_virtual_network.vnet (expand)</title>
<polygon fill="none" stroke="black" points="821,-180 639,-180 639,-144 821,-144 821,-180"/>
<text text-anchor="middle" x="730" y="-158.3" font-family="Times New Roman,serif" font-size="14.00">azurerm_virtual_network.vnet</text>
</g>
<!-- [root] azurerm_subnet.subnet (expand)&#45;&gt;[root] azurerm_virtual_network.vnet (expand) -->
<g id="edge12" class="edge">
<title>[root] azurerm_subnet.subnet (expand)&#45;&gt;[root] azurerm_virtual_network.vnet (expand)</title>
<path fill="none" stroke="black" d="M753.34,-215.7C749.81,-207.73 745.54,-198.1 741.63,-189.26"/>
<polygon fill="black" stroke="black" points="744.82,-187.83 737.57,-180.1 738.42,-190.67 744.82,-187.83"/>
</g>
<!-- [root] azurerm_virtual_network.vnet (expand)&#45;&gt;[root] azurerm_resource_group.rg (expand) -->
<g id="edge13" class="edge">
<title>[root] azurerm_virtual_network.vnet (expand)&#45;&gt;[root] azurerm_resource_group.rg (expand)</title>
<path fill="none" stroke="black" d="M674.27,-143.97C641.86,-134.06 600.82,-121.51 566.82,-111.12"/>
<polygon fill="black" stroke="black" points="567.56,-107.69 556.98,-108.11 565.52,-114.38 567.56,-107.69"/>
</g>
<!-- [root] provider[&quot;registry.terraform.io/hashicorp/azurerm&quot;] (close) -->
<g id="node13" class="node">
<title>[root] provider[&quot;registry.terraform.io/hashicorp/azurerm&quot;] (close)</title>
<ellipse fill="none" stroke="black" cx="510" cy="-378" rx="246.96" ry="18"/>
<text text-anchor="middle" x="510" y="-374.3" font-family="Times New Roman,serif" font-size="14.00">[root] provider[&quot;registry.terraform.io/hashicorp/azurerm&quot;] (close)</text>
</g>
<!-- [root] provider[&quot;registry.terraform.io/hashicorp/azurerm&quot;] (close)&#45;&gt;[root] azurerm_mssql_database_extended_auditing_policy.auditingpolicy (expand) -->
<g id="edge14" class="edge">
<title>[root] provider[&quot;registry.terraform.io/hashicorp/azurerm&quot;] (close)&#45;&gt;[root] azurerm_mssql_database_extended_auditing_policy.auditingpolicy (expand)</title>
<path fill="none" stroke="black" d="M436.94,-360.76C390.52,-350.45 330.21,-337.05 281.42,-326.2"/>
<polygon fill="black" stroke="black" points="282.03,-322.75 271.5,-324 280.51,-329.59 282.03,-322.75"/>
</g>
<!-- [root] provider[&quot;registry.terraform.io/hashicorp/azurerm&quot;] (close)&#45;&gt;[root] azurerm_sql_firewall_rule.firewall (expand) -->
<g id="edge15" class="edge">
<title>[root] provider[&quot;registry.terraform.io/hashicorp/azurerm&quot;] (close)&#45;&gt;[root] azurerm_sql_firewall_rule.firewall (expand)</title>
<path fill="none" stroke="black" d="M510,-359.7C510,-351.98 510,-342.71 510,-334.11"/>
<polygon fill="black" stroke="black" points="513.5,-334.1 510,-324.1 506.5,-334.1 513.5,-334.1"/>
</g>
<!-- [root] provider[&quot;registry.terraform.io/hashicorp/azurerm&quot;] (close)&#45;&gt;[root] azurerm_sql_virtual_network_rule.sqlvnetrule (expand) -->
<g id="edge16" class="edge">
<title>[root] provider[&quot;registry.terraform.io/hashicorp/azurerm&quot;] (close)&#45;&gt;[root] azurerm_sql_virtual_network_rule.sqlvnetrule (expand)</title>
<path fill="none" stroke="black" d="M570.11,-360.5C606.89,-350.4 654.18,-337.42 692.97,-326.77"/>
<polygon fill="black" stroke="black" points="693.92,-330.14 702.63,-324.12 692.06,-323.39 693.92,-330.14"/>
</g>
<!-- [root] root -->
<g id="node14" class="node">
<title>[root] root</title>
<ellipse fill="none" stroke="black" cx="510" cy="-450" rx="49.29" ry="18"/>
<text text-anchor="middle" x="510" y="-446.3" font-family="Times New Roman,serif" font-size="14.00">[root] root</text>
</g>
<!-- [root] root&#45;&gt;[root] provider[&quot;registry.terraform.io/hashicorp/azurerm&quot;] (close) -->
<g id="edge17" class="edge">
<title>[root] root&#45;&gt;[root] provider[&quot;registry.terraform.io/hashicorp/azurerm&quot;] (close)</title>
<path fill="none" stroke="black" d="M510,-431.7C510,-423.98 510,-414.71 510,-406.11"/>
<polygon fill="black" stroke="black" points="513.5,-406.1 510,-396.1 506.5,-406.1 513.5,-406.1"/>
</g>
</g>
</svg>
