<?xml version="1.0" encoding="UTF-8" standalone="no"?>
<!DOCTYPE svg PUBLIC "-//W3C//DTD SVG 1.1//EN"
 "http://www.w3.org/Graphics/SVG/1.1/DTD/svg11.dtd">
<!-- Generated by graphviz version 2.49.3 (20211023.0002)
 -->
<!-- Pages: 1 -->
<svg width="758pt" height="476pt"
 viewBox="0.00 0.00 757.59 476.00" xmlns="http://www.w3.org/2000/svg" xmlns:xlink="http://www.w3.org/1999/xlink">
<g id="graph0" class="graph" transform="scale(1 1) rotate(0) translate(4 472)">
<polygon fill="white" stroke="transparent" points="-4,4 -4,-472 753.59,-472 753.59,4 -4,4"/>
<!-- [root] azurerm_mssql_database.sqldb (expand) -->
<g id="node1" class="node">
<title>[root] azurerm_mssql_database.sqldb (expand)</title>
<polygon fill="none" stroke="black" points="506.09,-252 313.09,-252 313.09,-216 506.09,-216 506.09,-252"/>
<text text-anchor="middle" x="409.59" y="-230.3" font-family="Times New Roman,serif" font-size="14.00">azurerm_mssql_database.sqldb</text>
</g>
<!-- [root] azurerm_mssql_server.sqlserver (expand) -->
<g id="node3" class="node">
<title>[root] azurerm_mssql_server.sqlserver (expand)</title>
<polygon fill="none" stroke="black" points="545.09,-180 348.09,-180 348.09,-144 545.09,-144 545.09,-180"/>
<text text-anchor="middle" x="446.59" y="-158.3" font-family="Times New Roman,serif" font-size="14.00">azurerm_mssql_server.sqlserver</text>
</g>
<!-- [root] azurerm_mssql_database.sqldb (expand)&#45;&gt;[root] azurerm_mssql_server.sqlserver (expand) -->
<g id="edge1" class="edge">
<title>[root] azurerm_mssql_database.sqldb (expand)&#45;&gt;[root] azurerm_mssql_server.sqlserver (expand)</title>
<path fill="none" stroke="black" d="M418.73,-215.7C422.99,-207.64 428.14,-197.89 432.85,-188.98"/>
<polygon fill="black" stroke="black" points="435.97,-190.58 437.54,-180.1 429.78,-187.31 435.97,-190.58"/>
</g>
<!-- [root] azurerm_mssql_database_extended_auditing_policy.auditingpolicy (expand) -->
<g id="node2" class="node">
<title>[root] azurerm_mssql_database_extended_auditing_policy.auditingpolicy (expand)</title>
<polygon fill="none" stroke="black" points="461.59,-324 71.59,-324 71.59,-288 461.59,-288 461.59,-324"/>
<text text-anchor="middle" x="266.59" y="-302.3" font-family="Times New Roman,serif" font-size="14.00">azurerm_mssql_database_extended_auditing_policy.auditingpolicy</text>
</g>
<!-- [root] azurerm_mssql_database_extended_auditing_policy.auditingpolicy (expand)&#45;&gt;[root] azurerm_mssql_database.sqldb (expand) -->
<g id="edge2" class="edge">
<title>[root] azurerm_mssql_database_extended_auditing_policy.auditingpolicy (expand)&#45;&gt;[root] azurerm_mssql_database.sqldb (expand)</title>
<path fill="none" stroke="black" d="M301.57,-287.88C320.78,-278.47 344.81,-266.71 365.32,-256.67"/>
<polygon fill="black" stroke="black" points="367.03,-259.73 374.47,-252.19 363.95,-253.44 367.03,-259.73"/>
</g>
<!-- [root] azurerm_storage_account.storage (expand) -->
<g id="node6" class="node">
<title>[root] azurerm_storage_account.storage (expand)</title>
<polygon fill="none" stroke="black" points="330.09,-180 125.09,-180 125.09,-144 330.09,-144 330.09,-180"/>
<text text-anchor="middle" x="227.59" y="-158.3" font-family="Times New Roman,serif" font-size="14.00">azurerm_storage_account.storage</text>
</g>
<!-- [root] azurerm_mssql_database_extended_auditing_policy.auditingpolicy (expand)&#45;&gt;[root] azurerm_storage_account.storage (expand) -->
<g id="edge3" class="edge">
<title>[root] azurerm_mssql_database_extended_auditing_policy.auditingpolicy (expand)&#45;&gt;[root] azurerm_storage_account.storage (expand)</title>
<path fill="none" stroke="black" d="M261.88,-287.87C255.21,-263.56 242.92,-218.82 235,-190.01"/>
<polygon fill="black" stroke="black" points="238.33,-188.91 232.31,-180.19 231.58,-190.76 238.33,-188.91"/>
</g>
<!-- [root] azurerm_resource_group.rg (expand) -->
<g id="node4" class="node">
<title>[root] azurerm_resource_group.rg (expand)</title>
<polygon fill="none" stroke="black" points="532.59,-108 360.59,-108 360.59,-72 532.59,-72 532.59,-108"/>
<text text-anchor="middle" x="446.59" y="-86.3" font-family="Times New Roman,serif" font-size="14.00">azurerm_resource_group.rg</text>
</g>
<!-- [root] azurerm_mssql_server.sqlserver (expand)&#45;&gt;[root] azurerm_resource_group.rg (expand) -->
<g id="edge4" class="edge">
<title>[root] azurerm_mssql_server.sqlserver (expand)&#45;&gt;[root] azurerm_resource_group.rg (expand)</title>
<path fill="none" stroke="black" d="M446.59,-143.7C446.59,-135.98 446.59,-126.71 446.59,-118.11"/>
<polygon fill="black" stroke="black" points="450.09,-118.1 446.59,-108.1 443.09,-118.1 450.09,-118.1"/>
</g>
<!-- [root] provider[&quot;registry.terraform.io/hashicorp/azurerm&quot;] -->
<g id="node9" class="node">
<title>[root] provider[&quot;registry.terraform.io/hashicorp/azurerm&quot;]</title>
<polygon fill="none" stroke="black" points="277.59,-36 -0.09,-18 277.59,0 555.26,-18 277.59,-36"/>
<text text-anchor="middle" x="277.59" y="-14.3" font-family="Times New Roman,serif" font-size="14.00">provider[&quot;registry.terraform.io/hashicorp/azurerm&quot;]</text>
</g>
<!-- [root] azurerm_resource_group.rg (expand)&#45;&gt;[root] provider[&quot;registry.terraform.io/hashicorp/azurerm&quot;] -->
<g id="edge5" class="edge">
<title>[root] azurerm_resource_group.rg (expand)&#45;&gt;[root] provider[&quot;registry.terraform.io/hashicorp/azurerm&quot;]</title>
<path fill="none" stroke="black" d="M405.24,-71.88C380.29,-61.54 348.47,-48.36 322.84,-37.74"/>
<polygon fill="black" stroke="black" points="323.93,-34.41 313.35,-33.81 321.25,-40.87 323.93,-34.41"/>
</g>
<!-- [root] var.resource -->
<g id="node10" class="node">
<title>[root] var.resource</title>
<polygon fill="none" stroke="black" points="653.59,-36 573.59,-36 573.59,0 659.59,0 659.59,-30 653.59,-36"/>
<polyline fill="none" stroke="black" points="653.59,-36 653.59,-30 "/>
<polyline fill="none" stroke="black" points="659.59,-30 653.59,-30 "/>
<text text-anchor="middle" x="616.59" y="-14.3" font-family="Times New Roman,serif" font-size="14.00">var.resource</text>
</g>
<!-- [root] azurerm_resource_group.rg (expand)&#45;&gt;[root] var.resource -->
<g id="edge6" class="edge">
<title>[root] azurerm_resource_group.rg (expand)&#45;&gt;[root] var.resource</title>
<path fill="none" stroke="black" d="M488.17,-71.88C511.62,-62.22 541.09,-50.09 565.88,-39.88"/>
<polygon fill="black" stroke="black" points="567.22,-43.11 575.13,-36.07 564.55,-36.64 567.22,-43.11"/>
</g>
<!-- [root] azurerm_sql_virtual_network_rule.sqlvnetrule (expand) -->
<g id="node5" class="node">
<title>[root] azurerm_sql_virtual_network_rule.sqlvnetrule (expand)</title>
<polygon fill="none" stroke="black" points="749.59,-324 479.59,-324 479.59,-288 749.59,-288 749.59,-324"/>
<text text-anchor="middle" x="614.59" y="-302.3" font-family="Times New Roman,serif" font-size="14.00">azurerm_sql_virtual_network_rule.sqlvnetrule</text>
</g>
<!-- [root] azurerm_sql_virtual_network_rule.sqlvnetrule (expand)&#45;&gt;[root] azurerm_mssql_server.sqlserver (expand) -->
<g id="edge7" class="edge">
<title>[root] azurerm_sql_virtual_network_rule.sqlvnetrule (expand)&#45;&gt;[root] azurerm_mssql_server.sqlserver (expand)</title>
<path fill="none" stroke="black" d="M596.35,-287.83C576.77,-269.58 544.55,-240.08 515.59,-216 503.62,-206.05 490.12,-195.53 478.24,-186.51"/>
<polygon fill="black" stroke="black" points="480.02,-183.46 469.94,-180.23 475.8,-189.05 480.02,-183.46"/>
</g>
<!-- [root] azurerm_subnet.subnet (expand) -->
<g id="node7" class="node">
<title>[root] azurerm_subnet.subnet (expand)</title>
<polygon fill="none" stroke="black" points="722.59,-252 576.59,-252 576.59,-216 722.59,-216 722.59,-252"/>
<text text-anchor="middle" x="649.59" y="-230.3" font-family="Times New Roman,serif" font-size="14.00">azurerm_subnet.subnet</text>
</g>
<!-- [root] azurerm_sql_virtual_network_rule.sqlvnetrule (expand)&#45;&gt;[root] azurerm_subnet.subnet (expand) -->
<g id="edge8" class="edge">
<title>[root] azurerm_sql_virtual_network_rule.sqlvnetrule (expand)&#45;&gt;[root] azurerm_subnet.subnet (expand)</title>
<path fill="none" stroke="black" d="M623.24,-287.7C627.22,-279.73 632.04,-270.1 636.45,-261.26"/>
<polygon fill="black" stroke="black" points="639.69,-262.61 641.03,-252.1 633.43,-259.48 639.69,-262.61"/>
</g>
<!-- [root] azurerm_storage_account.storage (expand)&#45;&gt;[root] azurerm_resource_group.rg (expand) -->
<g id="edge9" class="edge">
<title>[root] azurerm_storage_account.storage (expand)&#45;&gt;[root] azurerm_resource_group.rg (expand)</title>
<path fill="none" stroke="black" d="M280.88,-143.97C311.74,-134.1 350.78,-121.62 383.22,-111.25"/>
<polygon fill="black" stroke="black" points="384.59,-114.49 393.05,-108.11 382.46,-107.82 384.59,-114.49"/>
</g>
<!-- [root] azurerm_virtual_network.vnet (expand) -->
<g id="node8" class="node">
<title>[root] azurerm_virtual_network.vnet (expand)</title>
<polygon fill="none" stroke="black" points="745.59,-180 563.59,-180 563.59,-144 745.59,-144 745.59,-180"/>
<text text-anchor="middle" x="654.59" y="-158.3" font-family="Times New Roman,serif" font-size="14.00">azurerm_virtual_network.vnet</text>
</g>
<!-- [root] azurerm_subnet.subnet (expand)&#45;&gt;[root] azurerm_virtual_network.vnet (expand) -->
<g id="edge10" class="edge">
<title>[root] azurerm_subnet.subnet (expand)&#45;&gt;[root] azurerm_virtual_network.vnet (expand)</title>
<path fill="none" stroke="black" d="M650.82,-215.7C651.37,-207.98 652.03,-198.71 652.65,-190.11"/>
<polygon fill="black" stroke="black" points="656.14,-190.33 653.36,-180.1 649.16,-189.83 656.14,-190.33"/>
</g>
<!-- [root] azurerm_virtual_network.vnet (expand)&#45;&gt;[root] azurerm_resource_group.rg (expand) -->
<g id="edge11" class="edge">
<title>[root] azurerm_virtual_network.vnet (expand)&#45;&gt;[root] azurerm_resource_group.rg (expand)</title>
<path fill="none" stroke="black" d="M603.97,-143.97C574.78,-134.14 537.89,-121.73 507.17,-111.39"/>
<polygon fill="black" stroke="black" points="508.02,-107.98 497.43,-108.11 505.79,-114.62 508.02,-107.98"/>
</g>
<!-- [root] var.source_ip -->
<g id="node11" class="node">
<title>[root] var.source_ip</title>
<polygon fill="none" stroke="black" points="170.09,-396 83.09,-396 83.09,-360 176.09,-360 176.09,-390 170.09,-396"/>
<polyline fill="none" stroke="black" points="170.09,-396 170.09,-390 "/>
<polyline fill="none" stroke="black" points="176.09,-390 170.09,-390 "/>
<text text-anchor="middle" x="129.59" y="-374.3" font-family="Times New Roman,serif" font-size="14.00">var.source_ip</text>
</g>
<!-- [root] provider[&quot;registry.terraform.io/hashicorp/azurerm&quot;] (close) -->
<g id="node12" class="node">
<title>[root] provider[&quot;registry.terraform.io/hashicorp/azurerm&quot;] (close)</title>
<ellipse fill="none" stroke="black" cx="440.59" cy="-378" rx="246.96" ry="18"/>
<text text-anchor="middle" x="440.59" y="-374.3" font-family="Times New Roman,serif" font-size="14.00">[root] provider[&quot;registry.terraform.io/hashicorp/azurerm&quot;] (close)</text>
</g>
<!-- [root] provider[&quot;registry.terraform.io/hashicorp/azurerm&quot;] (close)&#45;&gt;[root] azurerm_mssql_database_extended_auditing_policy.auditingpolicy (expand) -->
<g id="edge12" class="edge">
<title>[root] provider[&quot;registry.terraform.io/hashicorp/azurerm&quot;] (close)&#45;&gt;[root] azurerm_mssql_database_extended_auditing_policy.auditingpolicy (expand)</title>
<path fill="none" stroke="black" d="M398.91,-360.23C374.84,-350.55 344.35,-338.28 318.7,-327.97"/>
<polygon fill="black" stroke="black" points="319.72,-324.6 309.13,-324.12 317.1,-331.1 319.72,-324.6"/>
</g>
<!-- [root] provider[&quot;registry.terraform.io/hashicorp/azurerm&quot;] (close)&#45;&gt;[root] azurerm_sql_virtual_network_rule.sqlvnetrule (expand) -->
<g id="edge13" class="edge">
<title>[root] provider[&quot;registry.terraform.io/hashicorp/azurerm&quot;] (close)&#45;&gt;[root] azurerm_sql_virtual_network_rule.sqlvnetrule (expand)</title>
<path fill="none" stroke="black" d="M482.26,-360.23C506.33,-350.55 536.83,-338.28 562.47,-327.97"/>
<polygon fill="black" stroke="black" points="564.07,-331.1 572.04,-324.12 561.46,-324.6 564.07,-331.1"/>
</g>
<!-- [root] root -->
<g id="node13" class="node">
<title>[root] root</title>
<ellipse fill="none" stroke="black" cx="284.59" cy="-450" rx="49.29" ry="18"/>
<text text-anchor="middle" x="284.59" y="-446.3" font-family="Times New Roman,serif" font-size="14.00">[root] root</text>
</g>
<!-- [root] root&#45;&gt;[root] var.source_ip -->
<g id="edge15" class="edge">
<title>[root] root&#45;&gt;[root] var.source_ip</title>
<path fill="none" stroke="black" d="M254.7,-435.5C232.62,-425.53 202.13,-411.76 176.78,-400.31"/>
<polygon fill="black" stroke="black" points="177.9,-396.98 167.34,-396.05 175.01,-403.36 177.9,-396.98"/>
</g>
<!-- [root] root&#45;&gt;[root] provider[&quot;registry.terraform.io/hashicorp/azurerm&quot;] (close) -->
<g id="edge14" class="edge">
<title>[root] root&#45;&gt;[root] provider[&quot;registry.terraform.io/hashicorp/azurerm&quot;] (close)</title>
<path fill="none" stroke="black" d="M314.66,-435.5C337.14,-425.42 368.28,-411.45 393.97,-399.92"/>
<polygon fill="black" stroke="black" points="395.47,-403.08 403.16,-395.79 392.6,-396.7 395.47,-403.08"/>
</g>
</g>
</svg>
