<?xml version="1.0" encoding="UTF-8" standalone="no"?>
<!DOCTYPE svg PUBLIC "-//W3C//DTD SVG 1.1//EN"
 "http://www.w3.org/Graphics/SVG/1.1/DTD/svg11.dtd">
<!-- Generated by graphviz version 2.43.0 (0)
 -->
<!-- Title: %3 Pages: 1 -->
<svg width="124pt" height="276pt"
 viewBox="0.00 0.00 124.00 276.00" xmlns="http://www.w3.org/2000/svg" xmlns:xlink="http://www.w3.org/1999/xlink">
<g id="graph0" class="graph" transform="scale(1 1) rotate(0) translate(4 272)">
<title>%3</title>
<polygon fill="white" stroke="transparent" points="-4,4 -4,-272 120,-272 120,4 -4,4"/>
<g id="clust2" class="cluster">
<title>cluster[root] root_var_</title>
</g>
<!-- [root] root -->
<g id="node_3" class="node">
<title>[root] root</title>
<polygon fill="none" stroke="black" points="91,-268 25,-268 25,-232 91,-232 91,-268"/>
<text text-anchor="middle" x="58" y="-248.1" font-family="courier new" font-size="8.00">[root] root</text>
</g>
<!-- [root] var.bastionmgmtvnet -->
<g id="node_0" class="node">
<title>[root] var.bastionmgmtvnet</title>
<polygon fill="none" stroke="black" points="21,-178 21,-193 95,-193 95,-178 21,-178"/>
<text text-anchor="start" x="51" y="-183.6" font-family="courier new" font-size="8.00">var</text>
<polygon fill="none" stroke="black" points="21,-163 21,-178 95,-178 95,-163 21,-163"/>
<text text-anchor="start" x="24" y="-168.6" font-family="courier new" font-size="8.00">bastionmgmtvnet</text>
</g>
<!-- [root] root&#45;&gt;[root] var.bastionmgmtvnet -->
<g id="edge_0" class="edge">
<title>[root] root&#45;&gt;[root] var.bastionmgmtvnet</title>
<path fill="none" stroke="black" d="M58,-231.7C58,-223.98 58,-214.71 58,-206.11"/>
<polygon fill="black" stroke="black" points="61.5,-206.1 58,-196.1 54.5,-206.1 61.5,-206.1"/>
</g>
<!-- [root] var.project -->
<g id="node_1" class="node">
<title>[root] var.project</title>
<polygon fill="none" stroke="black" points="39,-106 39,-121 77,-121 77,-106 39,-106"/>
<text text-anchor="start" x="51" y="-111.6" font-family="courier new" font-size="8.00">var</text>
<polygon fill="none" stroke="black" points="39,-91 39,-106 77,-106 77,-91 39,-91"/>
<text text-anchor="start" x="42" y="-96.6" font-family="courier new" font-size="8.00">project</text>
</g>
<!-- [root] var.bastionmgmtvnet&#45;&gt;[root] var.project -->
<g id="edge_3" class="edge">
<title>[root] var.bastionmgmtvnet&#45;&gt;[root] var.project</title>
<path fill="none" stroke="black" stroke-dasharray="5,2" d="M58,-159.7C58,-148.85 58,-134.92 58,-124.1"/>
</g>
<!-- [root] var.resourcegroupname -->
<g id="node_2" class="node">
<title>[root] var.resourcegroupname</title>
<polygon fill="none" stroke="black" points="17,-34 17,-49 100,-49 100,-34 17,-34"/>
<text text-anchor="start" x="51.5" y="-39.6" font-family="courier new" font-size="8.00">var</text>
<polygon fill="none" stroke="black" points="17,-19 17,-34 100,-34 100,-19 17,-19"/>
<text text-anchor="start" x="20" y="-24.6" font-family="courier new" font-size="8.00">resourcegroupname</text>
</g>
<!-- [root] var.project&#45;&gt;[root] var.resourcegroupname -->
<g id="edge_4" class="edge">
<title>[root] var.project&#45;&gt;[root] var.resourcegroupname</title>
<path fill="none" stroke="black" stroke-dasharray="5,2" d="M58,-87.7C58,-76.85 58,-62.92 58,-52.1"/>
</g>
</g>
</svg>

