<?xml version="1.0" encoding="UTF-8" standalone="no"?>
<!DOCTYPE svg PUBLIC "-//W3C//DTD SVG 1.1//EN"
 "http://www.w3.org/Graphics/SVG/1.1/DTD/svg11.dtd">
<!-- Generated by graphviz version 2.43.0 (0)
 -->
<!-- Title: %3 Pages: 1 -->
<svg width="416pt" height="420pt"
 viewBox="0.00 0.00 416.00 420.00" xmlns="http://www.w3.org/2000/svg" xmlns:xlink="http://www.w3.org/1999/xlink">
<g id="graph0" class="graph" transform="scale(1 1) rotate(0) translate(4 416)">
<title>%3</title>
<polygon fill="white" stroke="transparent" points="-4,4 -4,-416 412,-416 412,4 -4,4"/>
<g id="clust2" class="cluster">
<title>cluster[root] azurerm_virtual_network_peering.vnet&#45;peering&#45;dest (expand)_var_</title>
</g>
<g id="clust3" class="cluster">
<title>cluster[root] data.azurerm_virtual_network.vnetdest (expand)_var_</title>
</g>
<g id="clust4" class="cluster">
<title>cluster[root] azurerm_virtual_network_peering.vnet&#45;peering&#45;source (expand)_var_</title>
</g>
<!-- [root] azurerm_virtual_network_peering.vnet&#45;peering&#45;dest (expand) -->
<g id="node_0" class="node">
<title>[root] azurerm_virtual_network_peering.vnet&#45;peering&#45;dest (expand)</title>
<polygon fill="none" stroke="black" points="237,-250 237,-265 383,-265 383,-250 237,-250"/>
<text text-anchor="start" x="240" y="-255.6" font-family="courier new" font-size="8.00">azurerm_virtual_network_peering</text>
<polygon fill="none" stroke="black" points="237,-235 237,-250 383,-250 383,-235 237,-235"/>
<text text-anchor="start" x="271.5" y="-240.6" font-family="courier new" font-size="8.00">vnet&#45;peering&#45;dest</text>
</g>
<!-- [root] data.azurerm_virtual_network.vnetdest (expand) -->
<g id="node_2" class="node">
<title>[root] data.azurerm_virtual_network.vnetdest (expand)</title>
<polygon fill="none" stroke="black" points="118,-178 118,-193 228,-193 228,-178 118,-178"/>
<text text-anchor="start" x="121" y="-183.6" font-family="courier new" font-size="8.00">azurerm_virtual_network</text>
<polygon fill="none" stroke="black" points="118,-163 118,-178 228,-178 228,-163 118,-163"/>
<text text-anchor="start" x="154.5" y="-168.6" font-family="courier new" font-size="8.00">vnetdest</text>
</g>
<!-- [root] azurerm_virtual_network_peering.vnet&#45;peering&#45;dest (expand)&#45;&gt;[root] data.azurerm_virtual_network.vnetdest (expand) -->
<g id="edge_0" class="edge">
<title>[root] azurerm_virtual_network_peering.vnet&#45;peering&#45;dest (expand)&#45;&gt;[root] data.azurerm_virtual_network.vnetdest (expand)</title>
<path fill="none" stroke="black" d="M276.49,-231.88C258.16,-222.51 235.26,-210.81 215.67,-200.8"/>
<polygon fill="black" stroke="black" points="217.14,-197.62 206.64,-196.19 213.96,-203.86 217.14,-197.62"/>
</g>
<!-- [root] var.bastionmgmtvnet -->
<g id="node_4" class="node">
<title>[root] var.bastionmgmtvnet</title>
<polygon fill="none" stroke="black" points="246,-178 246,-193 320,-193 320,-178 246,-178"/>
<text text-anchor="start" x="276" y="-183.6" font-family="courier new" font-size="8.00">var</text>
<polygon fill="none" stroke="black" points="246,-163 246,-178 320,-178 320,-163 246,-163"/>
<text text-anchor="start" x="249" y="-168.6" font-family="courier new" font-size="8.00">bastionmgmtvnet</text>
</g>
<!-- [root] azurerm_virtual_network_peering.vnet&#45;peering&#45;dest (expand)&#45;&gt;[root] var.bastionmgmtvnet -->
<g id="edge_1" class="edge">
<title>[root] azurerm_virtual_network_peering.vnet&#45;peering&#45;dest (expand)&#45;&gt;[root] var.bastionmgmtvnet</title>
<path fill="none" stroke="black" d="M303.33,-231.7C300.29,-223.81 296.62,-214.3 293.24,-205.55"/>
<polygon fill="black" stroke="black" points="296.46,-204.17 289.6,-196.1 289.93,-206.69 296.46,-204.17"/>
</g>
<!-- [root] var.project -->
<g id="node_5" class="node">
<title>[root] var.project</title>
<polygon fill="none" stroke="black" points="346,-178 346,-193 384,-193 384,-178 346,-178"/>
<text text-anchor="start" x="358" y="-183.6" font-family="courier new" font-size="8.00">var</text>
<polygon fill="none" stroke="black" points="346,-163 346,-178 384,-178 384,-163 346,-163"/>
<text text-anchor="start" x="349" y="-168.6" font-family="courier new" font-size="8.00">project</text>
</g>
<!-- [root] azurerm_virtual_network_peering.vnet&#45;peering&#45;dest (expand)&#45;&gt;[root] var.project -->
<g id="edge_2" class="edge">
<title>[root] azurerm_virtual_network_peering.vnet&#45;peering&#45;dest (expand)&#45;&gt;[root] var.project</title>
<path fill="none" stroke="black" d="M323.6,-231.7C330.12,-223.39 338.07,-213.28 345.25,-204.14"/>
<polygon fill="black" stroke="black" points="348.13,-206.13 351.56,-196.1 342.63,-201.81 348.13,-206.13"/>
</g>
<!-- [root] azurerm_virtual_network_peering.vnet&#45;peering&#45;source (expand) -->
<g id="node_1" class="node">
<title>[root] azurerm_virtual_network_peering.vnet&#45;peering&#45;source (expand)</title>
<polygon fill="none" stroke="black" points="73,-250 73,-265 219,-265 219,-250 73,-250"/>
<text text-anchor="start" x="76" y="-255.6" font-family="courier new" font-size="8.00">azurerm_virtual_network_peering</text>
<polygon fill="none" stroke="black" points="73,-235 73,-250 219,-250 219,-235 73,-235"/>
<text text-anchor="start" x="103" y="-240.6" font-family="courier new" font-size="8.00">vnet&#45;peering&#45;source</text>
</g>
<!-- [root] azurerm_virtual_network_peering.vnet&#45;peering&#45;source (expand)&#45;&gt;[root] data.azurerm_virtual_network.vnetdest (expand) -->
<g id="edge_3" class="edge">
<title>[root] azurerm_virtual_network_peering.vnet&#45;peering&#45;source (expand)&#45;&gt;[root] data.azurerm_virtual_network.vnetdest (expand)</title>
<path fill="none" stroke="black" d="M152.67,-231.7C155.71,-223.81 159.38,-214.3 162.76,-205.55"/>
<polygon fill="black" stroke="black" points="166.07,-206.69 166.4,-196.1 159.54,-204.17 166.07,-206.69"/>
</g>
<!-- [root] azurerm_virtual_network_peering.vnet&#45;peering&#45;source (expand)&#45;&gt;[root] var.bastionmgmtvnet -->
<g id="edge_4" class="edge">
<title>[root] azurerm_virtual_network_peering.vnet&#45;peering&#45;source (expand)&#45;&gt;[root] var.bastionmgmtvnet</title>
<path fill="none" stroke="black" d="M181.6,-231.79C198.47,-223.54 218.85,-213.41 237,-204 238.97,-202.98 240.98,-201.93 243,-200.86"/>
<polygon fill="black" stroke="black" points="244.73,-203.9 251.91,-196.11 241.44,-197.72 244.73,-203.9"/>
</g>
<!-- [root] var.resourcegroupname -->
<g id="node_8" class="node">
<title>[root] var.resourcegroupname</title>
<polygon fill="none" stroke="black" points="17,-178 17,-193 100,-193 100,-178 17,-178"/>
<text text-anchor="start" x="51.5" y="-183.6" font-family="courier new" font-size="8.00">var</text>
<polygon fill="none" stroke="black" points="17,-163 17,-178 100,-178 100,-163 17,-163"/>
<text text-anchor="start" x="20" y="-168.6" font-family="courier new" font-size="8.00">resourcegroupname</text>
</g>
<!-- [root] azurerm_virtual_network_peering.vnet&#45;peering&#45;source (expand)&#45;&gt;[root] var.resourcegroupname -->
<g id="edge_5" class="edge">
<title>[root] azurerm_virtual_network_peering.vnet&#45;peering&#45;source (expand)&#45;&gt;[root] var.resourcegroupname</title>
<path fill="none" stroke="black" d="M124.25,-231.7C113.16,-222.88 99.53,-212.03 87.51,-202.47"/>
<polygon fill="black" stroke="black" points="89.51,-199.59 79.5,-196.1 85.15,-205.07 89.51,-199.59"/>
</g>
<!-- [root] provider[&quot;registry.terraform.io/hashicorp/azurerm&quot;] -->
<g id="node_3" class="node">
<title>[root] provider[&quot;registry.terraform.io/hashicorp/azurerm&quot;]</title>
<polygon fill="none" stroke="black" points="57,-106 57,-121 167,-121 167,-106 57,-106"/>
<text text-anchor="start" x="91.5" y="-111.6" font-family="courier new" font-size="8.00">terraform</text>
<polygon fill="none" stroke="black" points="57,-91 57,-106 167,-106 167,-91 57,-91"/>
<text text-anchor="start" x="60" y="-96.6" font-family="courier new" font-size="8.00">io/hashicorp/azurerm\&quot;]</text>
</g>
<!-- [root] data.azurerm_virtual_network.vnetdest (expand)&#45;&gt;[root] provider[&quot;registry.terraform.io/hashicorp/azurerm&quot;] -->
<g id="edge_6" class="edge">
<title>[root] data.azurerm_virtual_network.vnetdest (expand)&#45;&gt;[root] provider[&quot;registry.terraform.io/hashicorp/azurerm&quot;]</title>
<path fill="none" stroke="black" d="M157.92,-159.7C150.61,-151.3 141.69,-141.07 133.66,-131.86"/>
<polygon fill="black" stroke="black" points="136.11,-129.34 126.91,-124.1 130.84,-133.94 136.11,-129.34"/>
</g>
<!-- [root] var.remote_resourcegroup -->
<g id="node_6" class="node">
<title>[root] var.remote_resourcegroup</title>
<polygon fill="none" stroke="black" points="186,-106 186,-121 283,-121 283,-106 186,-106"/>
<text text-anchor="start" x="227.5" y="-111.6" font-family="courier new" font-size="8.00">var</text>
<polygon fill="none" stroke="black" points="186,-91 186,-106 283,-106 283,-91 186,-91"/>
<text text-anchor="start" x="189" y="-96.6" font-family="courier new" font-size="8.00">remote_resourcegroup</text>
</g>
<!-- [root] data.azurerm_virtual_network.vnetdest (expand)&#45;&gt;[root] var.remote_resourcegroup -->
<g id="edge_7" class="edge">
<title>[root] data.azurerm_virtual_network.vnetdest (expand)&#45;&gt;[root] var.remote_resourcegroup</title>
<path fill="none" stroke="black" d="M188.08,-159.7C195.39,-151.3 204.31,-141.07 212.34,-131.86"/>
<polygon fill="black" stroke="black" points="215.16,-133.94 219.09,-124.1 209.89,-129.34 215.16,-133.94"/>
</g>
<!-- [root] provider[&quot;registry.terraform.io/hashicorp/azurerm&quot;] (close) -->
<g id="node_9" class="node">
<title>[root] provider[&quot;registry.terraform.io/hashicorp/azurerm&quot;] (close)</title>
<polygon fill="none" stroke="black" points="173,-322 173,-337 283,-337 283,-322 173,-322"/>
<text text-anchor="start" x="207.5" y="-327.6" font-family="courier new" font-size="8.00">terraform</text>
<polygon fill="none" stroke="black" points="173,-307 173,-322 283,-322 283,-307 173,-307"/>
<text text-anchor="start" x="176" y="-312.6" font-family="courier new" font-size="8.00">io/hashicorp/azurerm\&quot;]</text>
</g>
<!-- [root] provider[&quot;registry.terraform.io/hashicorp/azurerm&quot;] (close)&#45;&gt;[root] azurerm_virtual_network_peering.vnet&#45;peering&#45;dest (expand) -->
<g id="edge_9" class="edge">
<title>[root] provider[&quot;registry.terraform.io/hashicorp/azurerm&quot;] (close)&#45;&gt;[root] azurerm_virtual_network_peering.vnet&#45;peering&#45;dest (expand)</title>
<path fill="none" stroke="black" d="M248.27,-303.7C258.5,-294.97 271.06,-284.24 282.18,-274.75"/>
<polygon fill="black" stroke="black" points="284.63,-277.26 289.96,-268.1 280.09,-271.94 284.63,-277.26"/>
</g>
<!-- [root] provider[&quot;registry.terraform.io/hashicorp/azurerm&quot;] (close)&#45;&gt;[root] azurerm_virtual_network_peering.vnet&#45;peering&#45;source (expand) -->
<g id="edge_10" class="edge">
<title>[root] provider[&quot;registry.terraform.io/hashicorp/azurerm&quot;] (close)&#45;&gt;[root] azurerm_virtual_network_peering.vnet&#45;peering&#45;source (expand)</title>
<path fill="none" stroke="black" d="M207.73,-303.7C197.5,-294.97 184.94,-284.24 173.82,-274.75"/>
<polygon fill="black" stroke="black" points="175.91,-271.94 166.04,-268.1 171.37,-277.26 175.91,-271.94"/>
</g>
<!-- [root] root -->
<g id="node_10" class="node">
<title>[root] root</title>
<polygon fill="none" stroke="black" points="261,-412 195,-412 195,-376 261,-376 261,-412"/>
<text text-anchor="middle" x="228" y="-392.1" font-family="courier new" font-size="8.00">[root] root</text>
</g>
<!-- [root] root&#45;&gt;[root] provider[&quot;registry.terraform.io/hashicorp/azurerm&quot;] (close) -->
<g id="edge_11" class="edge">
<title>[root] root&#45;&gt;[root] provider[&quot;registry.terraform.io/hashicorp/azurerm&quot;] (close)</title>
<path fill="none" stroke="black" d="M228,-375.7C228,-367.98 228,-358.71 228,-350.11"/>
<polygon fill="black" stroke="black" points="231.5,-350.1 228,-340.1 224.5,-350.1 231.5,-350.1"/>
</g>
<!-- [root] var.remote_vnet -->
<g id="node_7" class="node">
<title>[root] var.remote_vnet</title>
<polygon fill="none" stroke="black" points="206,-34 206,-49 262,-49 262,-34 206,-34"/>
<text text-anchor="start" x="227" y="-39.6" font-family="courier new" font-size="8.00">var</text>
<polygon fill="none" stroke="black" points="206,-19 206,-34 262,-34 262,-19 206,-19"/>
<text text-anchor="start" x="209" y="-24.6" font-family="courier new" font-size="8.00">remote_vnet</text>
</g>
<!-- [root] var.remote_resourcegroup&#45;&gt;[root] var.remote_vnet -->
<g id="edge_12" class="edge">
<title>[root] var.remote_resourcegroup&#45;&gt;[root] var.remote_vnet</title>
<path fill="none" stroke="black" stroke-dasharray="5,2" d="M234,-87.7C234,-76.85 234,-62.92 234,-52.1"/>
</g>
</g>
</svg>

