<?xml version="1.0" encoding="UTF-8" standalone="no"?>
<!DOCTYPE svg PUBLIC "-//W3C//DTD SVG 1.1//EN"
 "http://www.w3.org/Graphics/SVG/1.1/DTD/svg11.dtd">
<!-- Generated by graphviz version 2.43.0 (0)
 -->
<!-- Title: %3 Pages: 1 -->
<svg width="582pt" height="420pt"
 viewBox="0.00 0.00 581.50 420.00" xmlns="http://www.w3.org/2000/svg" xmlns:xlink="http://www.w3.org/1999/xlink">
<g id="graph0" class="graph" transform="scale(1 1) rotate(0) translate(4 416)">
<title>%3</title>
<polygon fill="white" stroke="transparent" points="-4,4 -4,-416 577.5,-416 577.5,4 -4,4"/>
<g id="clust2" class="cluster">
<title>cluster[root] azurerm_virtual_network.vnet (expand)_var_</title>
</g>
<g id="clust3" class="cluster">
<title>cluster[root] root_output_[root] azurerm_subnet.appgw (expand)</title>
</g>
<g id="clust4" class="cluster">
<title>cluster[root] root_output_[root] azurerm_route_table.podroutetable (expand)</title>
</g>
<g id="clust5" class="cluster">
<title>cluster[root] root_output_[root] azurerm_subnet.internal (expand)</title>
</g>
<!-- [root] azurerm_route_table.podroutetable (expand) -->
<g id="node_0" class="node">
<title>[root] azurerm_route_table.podroutetable (expand)</title>
<polygon fill="none" stroke="black" points="116.5,-178 116.5,-193 208.5,-193 208.5,-178 116.5,-178"/>
<text text-anchor="start" x="119.5" y="-183.6" font-family="courier new" font-size="8.00">azurerm_route_table</text>
<polygon fill="none" stroke="black" points="116.5,-163 116.5,-178 208.5,-178 208.5,-163 116.5,-163"/>
<text text-anchor="start" x="133" y="-168.6" font-family="courier new" font-size="8.00">podroutetable</text>
</g>
<!-- [root] provider[&quot;registry.terraform.io/hashicorp/azurerm&quot;] -->
<g id="node_9" class="node">
<title>[root] provider[&quot;registry.terraform.io/hashicorp/azurerm&quot;]</title>
<polygon fill="none" stroke="black" points="101.5,-34 101.5,-49 211.5,-49 211.5,-34 101.5,-34"/>
<text text-anchor="start" x="136" y="-39.6" font-family="courier new" font-size="8.00">terraform</text>
<polygon fill="none" stroke="black" points="101.5,-19 101.5,-34 211.5,-34 211.5,-19 101.5,-19"/>
<text text-anchor="start" x="104.5" y="-24.6" font-family="courier new" font-size="8.00">io/hashicorp/azurerm\&quot;]</text>
</g>
<!-- [root] azurerm_route_table.podroutetable (expand)&#45;&gt;[root] provider[&quot;registry.terraform.io/hashicorp/azurerm&quot;] -->
<g id="edge_0" class="edge">
<title>[root] azurerm_route_table.podroutetable (expand)&#45;&gt;[root] provider[&quot;registry.terraform.io/hashicorp/azurerm&quot;]</title>
<path fill="none" stroke="black" d="M161.78,-159.87C160.75,-135.67 158.88,-91.21 157.66,-62.39"/>
<polygon fill="black" stroke="black" points="161.15,-62.03 157.23,-52.19 154.15,-62.33 161.15,-62.03"/>
</g>
<!-- [root] var.location -->
<g id="node_10" class="node">
<title>[root] var.location</title>
<polygon fill="none" stroke="black" points="235.5,-34 235.5,-49 278.5,-49 278.5,-34 235.5,-34"/>
<text text-anchor="start" x="250" y="-39.6" font-family="courier new" font-size="8.00">var</text>
<polygon fill="none" stroke="black" points="235.5,-19 235.5,-34 278.5,-34 278.5,-19 235.5,-19"/>
<text text-anchor="start" x="238.5" y="-24.6" font-family="courier new" font-size="8.00">location</text>
</g>
<!-- [root] azurerm_route_table.podroutetable (expand)&#45;&gt;[root] var.location -->
<g id="edge_1" class="edge">
<title>[root] azurerm_route_table.podroutetable (expand)&#45;&gt;[root] var.location</title>
<path fill="none" stroke="black" d="M171.3,-159.78C180.9,-141.48 197.09,-111.94 213.5,-88 220,-78.52 227.75,-68.62 234.86,-59.97"/>
<polygon fill="black" stroke="black" points="237.7,-62.03 241.43,-52.12 232.33,-57.54 237.7,-62.03"/>
</g>
<!-- [root] var.resourcegroupname -->
<g id="node_12" class="node">
<title>[root] var.resourcegroupname</title>
<polygon fill="none" stroke="black" points="0.5,-34 0.5,-49 83.5,-49 83.5,-34 0.5,-34"/>
<text text-anchor="start" x="35" y="-39.6" font-family="courier new" font-size="8.00">var</text>
<polygon fill="none" stroke="black" points="0.5,-19 0.5,-34 83.5,-34 83.5,-19 0.5,-19"/>
<text text-anchor="start" x="3.5" y="-24.6" font-family="courier new" font-size="8.00">resourcegroupname</text>
</g>
<!-- [root] azurerm_route_table.podroutetable (expand)&#45;&gt;[root] var.resourcegroupname -->
<g id="edge_2" class="edge">
<title>[root] azurerm_route_table.podroutetable (expand)&#45;&gt;[root] var.resourcegroupname</title>
<path fill="none" stroke="black" d="M147.9,-159.87C126.74,-135.03 87.38,-88.85 62.92,-60.14"/>
<polygon fill="black" stroke="black" points="65.3,-57.53 56.15,-52.19 59.97,-62.07 65.3,-57.53"/>
</g>
<!-- [root] var.tags -->
<g id="node_13" class="node">
<title>[root] var.tags</title>
<polygon fill="none" stroke="black" points="388.5,-34 388.5,-49 413.5,-49 413.5,-34 388.5,-34"/>
<text text-anchor="start" x="394" y="-39.6" font-family="courier new" font-size="8.00">var</text>
<polygon fill="none" stroke="black" points="388.5,-19 388.5,-34 413.5,-34 413.5,-19 388.5,-19"/>
<text text-anchor="start" x="391.5" y="-24.6" font-family="courier new" font-size="8.00">tags</text>
</g>
<!-- [root] azurerm_route_table.podroutetable (expand)&#45;&gt;[root] var.tags -->
<g id="edge_3" class="edge">
<title>[root] azurerm_route_table.podroutetable (expand)&#45;&gt;[root] var.tags</title>
<path fill="none" stroke="black" d="M208.86,-165.04C258.2,-152.03 330.65,-132.02 341.5,-124 363.28,-107.9 379.41,-81.19 389.26,-61.22"/>
<polygon fill="black" stroke="black" points="392.49,-62.58 393.58,-52.04 386.15,-59.6 392.49,-62.58"/>
</g>
<!-- [root] azurerm_subnet.appgw (expand) -->
<g id="node_1" class="node">
<title>[root] azurerm_subnet.appgw (expand)</title>
<polygon fill="none" stroke="black" points="238.5,-178 238.5,-193 308.5,-193 308.5,-178 238.5,-178"/>
<text text-anchor="start" x="241.5" y="-183.6" font-family="courier new" font-size="8.00">azurerm_subnet</text>
<polygon fill="none" stroke="black" points="238.5,-163 238.5,-178 308.5,-178 308.5,-163 238.5,-163"/>
<text text-anchor="start" x="262" y="-168.6" font-family="courier new" font-size="8.00">appgw</text>
</g>
<!-- [root] azurerm_virtual_network.vnet (expand) -->
<g id="node_5" class="node">
<title>[root] azurerm_virtual_network.vnet (expand)</title>
<polygon fill="none" stroke="black" points="222.5,-106 222.5,-121 332.5,-121 332.5,-106 222.5,-106"/>
<text text-anchor="start" x="225.5" y="-111.6" font-family="courier new" font-size="8.00">azurerm_virtual_network</text>
<polygon fill="none" stroke="black" points="222.5,-91 222.5,-106 332.5,-106 332.5,-91 222.5,-91"/>
<text text-anchor="start" x="268" y="-96.6" font-family="courier new" font-size="8.00">vnet</text>
</g>
<!-- [root] azurerm_subnet.appgw (expand)&#45;&gt;[root] azurerm_virtual_network.vnet (expand) -->
<g id="edge_4" class="edge">
<title>[root] azurerm_subnet.appgw (expand)&#45;&gt;[root] azurerm_virtual_network.vnet (expand)</title>
<path fill="none" stroke="black" d="M274.49,-159.7C274.93,-151.98 275.46,-142.71 275.95,-134.11"/>
<polygon fill="black" stroke="black" points="279.45,-134.29 276.52,-124.1 272.46,-133.89 279.45,-134.29"/>
</g>
<!-- [root] azurerm_subnet.internal (expand) -->
<g id="node_2" class="node">
<title>[root] azurerm_subnet.internal (expand)</title>
<polygon fill="none" stroke="black" points="326.5,-178 326.5,-193 396.5,-193 396.5,-178 326.5,-178"/>
<text text-anchor="start" x="329.5" y="-183.6" font-family="courier new" font-size="8.00">azurerm_subnet</text>
<polygon fill="none" stroke="black" points="326.5,-163 326.5,-178 396.5,-178 396.5,-163 326.5,-163"/>
<text text-anchor="start" x="343" y="-168.6" font-family="courier new" font-size="8.00">internal</text>
</g>
<!-- [root] azurerm_subnet.internal (expand)&#45;&gt;[root] azurerm_virtual_network.vnet (expand) -->
<g id="edge_5" class="edge">
<title>[root] azurerm_subnet.internal (expand)&#45;&gt;[root] azurerm_virtual_network.vnet (expand)</title>
<path fill="none" stroke="black" d="M340.74,-159.7C330.26,-150.97 317.39,-140.24 306,-130.75"/>
<polygon fill="black" stroke="black" points="307.95,-127.82 298.03,-124.1 303.47,-133.19 307.95,-127.82"/>
</g>
<!-- [root] azurerm_subnet_route_table_association.podappgwrouteassoc (expand) -->
<g id="node_3" class="node">
<title>[root] azurerm_subnet_route_table_association.podappgwrouteassoc (expand)</title>
<polygon fill="none" stroke="black" points="73.5,-250 73.5,-265 251.5,-265 251.5,-250 73.5,-250"/>
<text text-anchor="start" x="76.5" y="-255.6" font-family="courier new" font-size="8.00">azurerm_subnet_route_table_association</text>
<polygon fill="none" stroke="black" points="73.5,-235 73.5,-250 251.5,-250 251.5,-235 73.5,-235"/>
<text text-anchor="start" x="121.5" y="-240.6" font-family="courier new" font-size="8.00">podappgwrouteassoc</text>
</g>
<!-- [root] azurerm_subnet_route_table_association.podappgwrouteassoc (expand)&#45;&gt;[root] azurerm_route_table.podroutetable (expand) -->
<g id="edge_6" class="edge">
<title>[root] azurerm_subnet_route_table_association.podappgwrouteassoc (expand)&#45;&gt;[root] azurerm_route_table.podroutetable (expand)</title>
<path fill="none" stroke="black" d="M162.5,-231.7C162.5,-223.98 162.5,-214.71 162.5,-206.11"/>
<polygon fill="black" stroke="black" points="166,-206.1 162.5,-196.1 159,-206.1 166,-206.1"/>
</g>
<!-- [root] azurerm_subnet_route_table_association.podappgwrouteassoc (expand)&#45;&gt;[root] azurerm_subnet.appgw (expand) -->
<g id="edge_7" class="edge">
<title>[root] azurerm_subnet_route_table_association.podappgwrouteassoc (expand)&#45;&gt;[root] azurerm_subnet.appgw (expand)</title>
<path fill="none" stroke="black" d="M189.65,-231.88C204.03,-222.81 221.88,-211.55 237.41,-201.76"/>
<polygon fill="black" stroke="black" points="239.65,-204.48 246.24,-196.19 235.92,-198.56 239.65,-204.48"/>
</g>
<!-- [root] azurerm_subnet_route_table_association.podnoderouteassoc (expand) -->
<g id="node_4" class="node">
<title>[root] azurerm_subnet_route_table_association.podnoderouteassoc (expand)</title>
<polygon fill="none" stroke="black" points="269.5,-250 269.5,-265 447.5,-265 447.5,-250 269.5,-250"/>
<text text-anchor="start" x="272.5" y="-255.6" font-family="courier new" font-size="8.00">azurerm_subnet_route_table_association</text>
<polygon fill="none" stroke="black" points="269.5,-235 269.5,-250 447.5,-250 447.5,-235 269.5,-235"/>
<text text-anchor="start" x="320" y="-240.6" font-family="courier new" font-size="8.00">podnoderouteassoc</text>
</g>
<!-- [root] azurerm_subnet_route_table_association.podnoderouteassoc (expand)&#45;&gt;[root] azurerm_route_table.podroutetable (expand) -->
<g id="edge_8" class="edge">
<title>[root] azurerm_subnet_route_table_association.podnoderouteassoc (expand)&#45;&gt;[root] azurerm_route_table.podroutetable (expand)</title>
<path fill="none" stroke="black" d="M310.8,-231.97C282.91,-222 247.55,-209.38 218.36,-198.95"/>
<polygon fill="black" stroke="black" points="219.31,-195.57 208.72,-195.51 216.96,-202.17 219.31,-195.57"/>
</g>
<!-- [root] azurerm_subnet_route_table_association.podnoderouteassoc (expand)&#45;&gt;[root] azurerm_subnet.internal (expand) -->
<g id="edge_9" class="edge">
<title>[root] azurerm_subnet_route_table_association.podnoderouteassoc (expand)&#45;&gt;[root] azurerm_subnet.internal (expand)</title>
<path fill="none" stroke="black" d="M359.24,-231.7C359.57,-223.98 359.97,-214.71 360.34,-206.11"/>
<polygon fill="black" stroke="black" points="363.84,-206.25 360.77,-196.1 356.84,-205.95 363.84,-206.25"/>
</g>
<!-- [root] azurerm_virtual_network.vnet (expand)&#45;&gt;[root] provider[&quot;registry.terraform.io/hashicorp/azurerm&quot;] -->
<g id="edge_10" class="edge">
<title>[root] azurerm_virtual_network.vnet (expand)&#45;&gt;[root] provider[&quot;registry.terraform.io/hashicorp/azurerm&quot;]</title>
<path fill="none" stroke="black" d="M247.9,-87.88C231.93,-78.64 212.04,-67.13 194.89,-57.21"/>
<polygon fill="black" stroke="black" points="196.62,-54.17 186.21,-52.19 193.12,-60.23 196.62,-54.17"/>
</g>
<!-- [root] azurerm_virtual_network.vnet (expand)&#45;&gt;[root] var.location -->
<g id="edge_11" class="edge">
<title>[root] azurerm_virtual_network.vnet (expand)&#45;&gt;[root] var.location</title>
<path fill="none" stroke="black" d="M272.31,-87.7C269.97,-79.9 267.15,-70.51 264.55,-61.83"/>
<polygon fill="black" stroke="black" points="267.86,-60.68 261.63,-52.1 261.15,-62.69 267.86,-60.68"/>
</g>
<!-- [root] azurerm_virtual_network.vnet (expand)&#45;&gt;[root] var.resourcegroupname -->
<g id="edge_13" class="edge">
<title>[root] azurerm_virtual_network.vnet (expand)&#45;&gt;[root] var.resourcegroupname</title>
<path fill="none" stroke="black" d="M222.34,-94.86C185.07,-87.21 135.08,-75.41 92.5,-60 89.39,-58.88 86.23,-57.62 83.07,-56.28"/>
<polygon fill="black" stroke="black" points="84.25,-52.97 73.69,-52.08 81.39,-59.36 84.25,-52.97"/>
</g>
<!-- [root] azurerm_virtual_network.vnet (expand)&#45;&gt;[root] var.tags -->
<g id="edge_14" class="edge">
<title>[root] azurerm_virtual_network.vnet (expand)&#45;&gt;[root] var.tags</title>
<path fill="none" stroke="black" d="M315.56,-87.89C331.92,-80.05 351.03,-70.23 367.5,-60 368.45,-59.41 369.4,-58.8 370.35,-58.18"/>
<polygon fill="black" stroke="black" points="372.67,-60.83 378.89,-52.26 368.68,-55.08 372.67,-60.83"/>
</g>
<!-- [root] var.prefix -->
<g id="node_11" class="node">
<title>[root] var.prefix</title>
<polygon fill="none" stroke="black" points="311.5,-34 311.5,-49 345.5,-49 345.5,-34 311.5,-34"/>
<text text-anchor="start" x="321.5" y="-39.6" font-family="courier new" font-size="8.00">var</text>
<polygon fill="none" stroke="black" points="311.5,-19 311.5,-34 345.5,-34 345.5,-19 311.5,-19"/>
<text text-anchor="start" x="314.5" y="-24.6" font-family="courier new" font-size="8.00">prefix</text>
</g>
<!-- [root] azurerm_virtual_network.vnet (expand)&#45;&gt;[root] var.prefix -->
<g id="edge_12" class="edge">
<title>[root] azurerm_virtual_network.vnet (expand)&#45;&gt;[root] var.prefix</title>
<path fill="none" stroke="black" d="M290.11,-87.7C296.1,-79.47 303.38,-69.48 309.98,-60.42"/>
<polygon fill="black" stroke="black" points="312.98,-62.25 316.04,-52.1 307.32,-58.13 312.98,-62.25"/>
</g>
<!-- [root] provider[&quot;registry.terraform.io/hashicorp/azurerm&quot;] (close) -->
<g id="node_14" class="node">
<title>[root] provider[&quot;registry.terraform.io/hashicorp/azurerm&quot;] (close)</title>
<polygon fill="none" stroke="black" points="243.5,-322 243.5,-337 353.5,-337 353.5,-322 243.5,-322"/>
<text text-anchor="start" x="278" y="-327.6" font-family="courier new" font-size="8.00">terraform</text>
<polygon fill="none" stroke="black" points="243.5,-307 243.5,-322 353.5,-322 353.5,-307 243.5,-307"/>
<text text-anchor="start" x="246.5" y="-312.6" font-family="courier new" font-size="8.00">io/hashicorp/azurerm\&quot;]</text>
</g>
<!-- [root] provider[&quot;registry.terraform.io/hashicorp/azurerm&quot;] (close)&#45;&gt;[root] azurerm_subnet_route_table_association.podappgwrouteassoc (expand) -->
<g id="edge_18" class="edge">
<title>[root] provider[&quot;registry.terraform.io/hashicorp/azurerm&quot;] (close)&#45;&gt;[root] azurerm_subnet_route_table_association.podappgwrouteassoc (expand)</title>
<path fill="none" stroke="black" d="M265.23,-303.88C247.04,-294.51 224.31,-282.81 204.86,-272.8"/>
<polygon fill="black" stroke="black" points="206.39,-269.65 195.9,-268.19 203.19,-275.88 206.39,-269.65"/>
</g>
<!-- [root] provider[&quot;registry.terraform.io/hashicorp/azurerm&quot;] (close)&#45;&gt;[root] azurerm_subnet_route_table_association.podnoderouteassoc (expand) -->
<g id="edge_19" class="edge">
<title>[root] provider[&quot;registry.terraform.io/hashicorp/azurerm&quot;] (close)&#45;&gt;[root] azurerm_subnet_route_table_association.podnoderouteassoc (expand)</title>
<path fill="none" stroke="black" d="M313.33,-303.7C320.52,-295.3 329.3,-285.07 337.19,-275.86"/>
<polygon fill="black" stroke="black" points="339.99,-277.97 343.84,-268.1 334.67,-273.42 339.99,-277.97"/>
</g>
<!-- [root] root -->
<g id="node_15" class="node">
<title>[root] root</title>
<polygon fill="none" stroke="black" points="386.5,-412 320.5,-412 320.5,-376 386.5,-376 386.5,-412"/>
<text text-anchor="middle" x="353.5" y="-392.1" font-family="courier new" font-size="8.00">[root] root</text>
</g>
<!-- [root] root&#45;&gt;[root] provider[&quot;registry.terraform.io/hashicorp/azurerm&quot;] (close) -->
<g id="edge_23" class="edge">
<title>[root] root&#45;&gt;[root] provider[&quot;registry.terraform.io/hashicorp/azurerm&quot;] (close)</title>
<path fill="none" stroke="black" d="M339.9,-375.7C333.38,-367.39 325.43,-357.28 318.25,-348.14"/>
<polygon fill="black" stroke="black" points="320.87,-345.81 311.94,-340.1 315.37,-350.13 320.87,-345.81"/>
</g>
<!-- [root] output.appgw_subnet_id -->
<g id="node_6" class="node">
<title>[root] output.appgw_subnet_id</title>
<polygon fill="none" stroke="black" points="371.5,-322 371.5,-337 445.5,-337 445.5,-322 371.5,-322"/>
<text text-anchor="start" x="394.5" y="-327.6" font-family="courier new" font-size="8.00">output</text>
<polygon fill="none" stroke="black" points="371.5,-307 371.5,-322 445.5,-322 445.5,-307 371.5,-307"/>
<text text-anchor="start" x="374.5" y="-312.6" font-family="courier new" font-size="8.00">appgw_subnet_id</text>
</g>
<!-- [root] root&#45;&gt;[root] output.appgw_subnet_id -->
<g id="edge_20" class="edge">
<title>[root] root&#45;&gt;[root] output.appgw_subnet_id</title>
<path fill="none" stroke="black" d="M367.1,-375.7C373.62,-367.39 381.57,-357.28 388.75,-348.14"/>
<polygon fill="black" stroke="black" points="391.63,-350.13 395.06,-340.1 386.13,-345.81 391.63,-350.13"/>
</g>
<!-- [root] output.customroutetable_id -->
<g id="node_7" class="node">
<title>[root] output.customroutetable_id</title>
<polygon fill="none" stroke="black" points="66.5,-322 66.5,-337 158.5,-337 158.5,-322 66.5,-322"/>
<text text-anchor="start" x="98.5" y="-327.6" font-family="courier new" font-size="8.00">output</text>
<polygon fill="none" stroke="black" points="66.5,-307 66.5,-322 158.5,-322 158.5,-307 66.5,-307"/>
<text text-anchor="start" x="69.5" y="-312.6" font-family="courier new" font-size="8.00">customroutetable_id</text>
</g>
<!-- [root] root&#45;&gt;[root] output.customroutetable_id -->
<g id="edge_21" class="edge">
<title>[root] root&#45;&gt;[root] output.customroutetable_id</title>
<path fill="none" stroke="black" d="M320.5,-383.41C281.38,-372.05 215.58,-352.94 168.46,-339.25"/>
<polygon fill="black" stroke="black" points="169.28,-335.85 158.7,-336.42 167.33,-342.57 169.28,-335.85"/>
</g>
<!-- [root] output.internal_subnet_id -->
<g id="node_8" class="node">
<title>[root] output.internal_subnet_id</title>
<polygon fill="none" stroke="black" points="469.5,-322 469.5,-337 557.5,-337 557.5,-322 469.5,-322"/>
<text text-anchor="start" x="499.5" y="-327.6" font-family="courier new" font-size="8.00">output</text>
<polygon fill="none" stroke="black" points="469.5,-307 469.5,-322 557.5,-322 557.5,-307 469.5,-307"/>
<text text-anchor="start" x="472.5" y="-312.6" font-family="courier new" font-size="8.00">internal_subnet_id</text>
</g>
<!-- [root] root&#45;&gt;[root] output.internal_subnet_id -->
<g id="edge_22" class="edge">
<title>[root] root&#45;&gt;[root] output.internal_subnet_id</title>
<path fill="none" stroke="black" d="M386.8,-378.71C407.23,-369.91 433.91,-358.37 457.5,-348 460.33,-346.75 463.24,-345.47 466.18,-344.17"/>
<polygon fill="black" stroke="black" points="467.85,-347.26 475.57,-340 465.01,-340.86 467.85,-347.26"/>
</g>
<!-- [root] output.appgw_subnet_id&#45;&gt;[root] azurerm_subnet.appgw (expand) -->
<g id="edge_15" class="edge">
<title>[root] output.appgw_subnet_id&#45;&gt;[root] azurerm_subnet.appgw (expand)</title>
<path fill="none" stroke="black" d="M429.1,-303.94C449.16,-285.26 474.23,-254.91 456.5,-232 419.35,-184 382.08,-212.41 318.86,-195.99"/>
<polygon fill="black" stroke="black" points="319.5,-192.53 308.92,-193.09 317.54,-199.25 319.5,-192.53"/>
</g>
<!-- [root] output.customroutetable_id&#45;&gt;[root] azurerm_route_table.podroutetable (expand) -->
<g id="edge_16" class="edge">
<title>[root] output.customroutetable_id&#45;&gt;[root] azurerm_route_table.podroutetable (expand)</title>
<path fill="none" stroke="black" d="M90.79,-303.79C80.74,-294.41 69.86,-281.9 64.5,-268 58.74,-253.07 56.31,-245.74 64.5,-232 74.11,-215.88 90.51,-204.36 107.18,-196.28"/>
<polygon fill="black" stroke="black" points="108.73,-199.42 116.43,-192.13 105.87,-193.03 108.73,-199.42"/>
</g>
<!-- [root] output.internal_subnet_id&#45;&gt;[root] azurerm_subnet.internal (expand) -->
<g id="edge_17" class="edge">
<title>[root] output.internal_subnet_id&#45;&gt;[root] azurerm_subnet.internal (expand)</title>
<path fill="none" stroke="black" d="M509.63,-303.88C504.43,-284.3 493.43,-252.32 473.5,-232 455.13,-213.27 428.85,-200.36 406.36,-191.97"/>
<polygon fill="black" stroke="black" points="407.25,-188.57 396.66,-188.54 404.92,-195.17 407.25,-188.57"/>
</g>
</g>
</svg>

