<?xml version="1.0" encoding="UTF-8" standalone="no"?>
<!DOCTYPE svg PUBLIC "-//W3C//DTD SVG 1.1//EN"
 "http://www.w3.org/Graphics/SVG/1.1/DTD/svg11.dtd">
<!-- Generated by graphviz version 2.43.0 (0)
 -->
<!-- Title: %3 Pages: 1 -->
<svg width="272pt" height="348pt"
 viewBox="0.00 0.00 272.00 348.00" xmlns="http://www.w3.org/2000/svg" xmlns:xlink="http://www.w3.org/1999/xlink">
<g id="graph0" class="graph" transform="scale(1 1) rotate(0) translate(4 344)">
<title>%3</title>
<polygon fill="white" stroke="transparent" points="-4,4 -4,-344 268,-344 268,4 -4,4"/>
<g id="clust2" class="cluster">
<title>cluster[root] root_var_</title>
</g>
<g id="clust3" class="cluster">
<title>cluster[root] azurerm_virtual_network.example (expand)_var_</title>
</g>
<!-- [root] azurerm_subnet.internal (expand) -->
<g id="node_0" class="node">
<title>[root] azurerm_subnet.internal (expand)</title>
<polygon fill="none" stroke="black" points="136,-178 136,-193 206,-193 206,-178 136,-178"/>
<text text-anchor="start" x="139" y="-183.6" font-family="courier new" font-size="8.00">azurerm_subnet</text>
<polygon fill="none" stroke="black" points="136,-163 136,-178 206,-178 206,-163 136,-163"/>
<text text-anchor="start" x="152.5" y="-168.6" font-family="courier new" font-size="8.00">internal</text>
</g>
<!-- [root] azurerm_virtual_network.example (expand) -->
<g id="node_1" class="node">
<title>[root] azurerm_virtual_network.example (expand)</title>
<polygon fill="none" stroke="black" points="116,-106 116,-121 226,-121 226,-106 116,-106"/>
<text text-anchor="start" x="119" y="-111.6" font-family="courier new" font-size="8.00">azurerm_virtual_network</text>
<polygon fill="none" stroke="black" points="116,-91 116,-106 226,-106 226,-91 116,-91"/>
<text text-anchor="start" x="155" y="-96.6" font-family="courier new" font-size="8.00">example</text>
</g>
<!-- [root] azurerm_subnet.internal (expand)&#45;&gt;[root] azurerm_virtual_network.example (expand) -->
<g id="edge_0" class="edge">
<title>[root] azurerm_subnet.internal (expand)&#45;&gt;[root] azurerm_virtual_network.example (expand)</title>
<path fill="none" stroke="black" d="M171,-159.7C171,-151.98 171,-142.71 171,-134.11"/>
<polygon fill="black" stroke="black" points="174.5,-134.1 171,-124.1 167.5,-134.1 174.5,-134.1"/>
</g>
<!-- [root] provider[&quot;registry.terraform.io/hashicorp/azurerm&quot;] -->
<g id="node_2" class="node">
<title>[root] provider[&quot;registry.terraform.io/hashicorp/azurerm&quot;]</title>
<polygon fill="none" stroke="black" points="66,-34 66,-49 176,-49 176,-34 66,-34"/>
<text text-anchor="start" x="100.5" y="-39.6" font-family="courier new" font-size="8.00">terraform</text>
<polygon fill="none" stroke="black" points="66,-19 66,-34 176,-34 176,-19 66,-19"/>
<text text-anchor="start" x="69" y="-24.6" font-family="courier new" font-size="8.00">io/hashicorp/azurerm\&quot;]</text>
</g>
<!-- [root] azurerm_virtual_network.example (expand)&#45;&gt;[root] provider[&quot;registry.terraform.io/hashicorp/azurerm&quot;] -->
<g id="edge_1" class="edge">
<title>[root] azurerm_virtual_network.example (expand)&#45;&gt;[root] provider[&quot;registry.terraform.io/hashicorp/azurerm&quot;]</title>
<path fill="none" stroke="black" d="M158.64,-87.7C152.77,-79.47 145.63,-69.48 139.16,-60.42"/>
<polygon fill="black" stroke="black" points="141.88,-58.21 133.22,-52.1 136.18,-62.28 141.88,-58.21"/>
</g>
<!-- [root] var.prefix -->
<g id="node_4" class="node">
<title>[root] var.prefix</title>
<polygon fill="none" stroke="black" points="204,-34 204,-49 238,-49 238,-34 204,-34"/>
<text text-anchor="start" x="214" y="-39.6" font-family="courier new" font-size="8.00">var</text>
<polygon fill="none" stroke="black" points="204,-19 204,-34 238,-34 238,-19 204,-19"/>
<text text-anchor="start" x="207" y="-24.6" font-family="courier new" font-size="8.00">prefix</text>
</g>
<!-- [root] azurerm_virtual_network.example (expand)&#45;&gt;[root] var.prefix -->
<g id="edge_2" class="edge">
<title>[root] azurerm_virtual_network.example (expand)&#45;&gt;[root] var.prefix</title>
<path fill="none" stroke="black" d="M183.36,-87.7C189.23,-79.47 196.37,-69.48 202.84,-60.42"/>
<polygon fill="black" stroke="black" points="205.82,-62.28 208.78,-52.1 200.12,-58.21 205.82,-62.28"/>
</g>
<!-- [root] provider[&quot;registry.terraform.io/hashicorp/azurerm&quot;] (close) -->
<g id="node_7" class="node">
<title>[root] provider[&quot;registry.terraform.io/hashicorp/azurerm&quot;] (close)</title>
<polygon fill="none" stroke="black" points="116,-250 116,-265 226,-265 226,-250 116,-250"/>
<text text-anchor="start" x="150.5" y="-255.6" font-family="courier new" font-size="8.00">terraform</text>
<polygon fill="none" stroke="black" points="116,-235 116,-250 226,-250 226,-235 116,-235"/>
<text text-anchor="start" x="119" y="-240.6" font-family="courier new" font-size="8.00">io/hashicorp/azurerm\&quot;]</text>
</g>
<!-- [root] provider[&quot;registry.terraform.io/hashicorp/azurerm&quot;] (close)&#45;&gt;[root] azurerm_subnet.internal (expand) -->
<g id="edge_3" class="edge">
<title>[root] provider[&quot;registry.terraform.io/hashicorp/azurerm&quot;] (close)&#45;&gt;[root] azurerm_subnet.internal (expand)</title>
<path fill="none" stroke="black" d="M171,-231.7C171,-223.98 171,-214.71 171,-206.11"/>
<polygon fill="black" stroke="black" points="174.5,-206.1 171,-196.1 167.5,-206.1 174.5,-206.1"/>
</g>
<!-- [root] root -->
<g id="node_8" class="node">
<title>[root] root</title>
<polygon fill="none" stroke="black" points="153,-340 87,-340 87,-304 153,-304 153,-340"/>
<text text-anchor="middle" x="120" y="-320.1" font-family="courier new" font-size="8.00">[root] root</text>
</g>
<!-- [root] root&#45;&gt;[root] provider[&quot;registry.terraform.io/hashicorp/azurerm&quot;] (close) -->
<g id="edge_4" class="edge">
<title>[root] root&#45;&gt;[root] provider[&quot;registry.terraform.io/hashicorp/azurerm&quot;] (close)</title>
<path fill="none" stroke="black" d="M132.61,-303.7C138.6,-295.47 145.88,-285.48 152.48,-276.42"/>
<polygon fill="black" stroke="black" points="155.48,-278.25 158.54,-268.1 149.82,-274.13 155.48,-278.25"/>
</g>
<!-- [root] var.location -->
<g id="node_3" class="node">
<title>[root] var.location</title>
<polygon fill="none" stroke="black" points="43,-250 43,-265 86,-265 86,-250 43,-250"/>
<text text-anchor="start" x="57.5" y="-255.6" font-family="courier new" font-size="8.00">var</text>
<polygon fill="none" stroke="black" points="43,-235 43,-250 86,-250 86,-235 43,-235"/>
<text text-anchor="start" x="46" y="-240.6" font-family="courier new" font-size="8.00">location</text>
</g>
<!-- [root] root&#45;&gt;[root] var.location -->
<g id="edge_5" class="edge">
<title>[root] root&#45;&gt;[root] var.location</title>
<path fill="none" stroke="black" d="M106.16,-303.7C99.51,-295.39 91.42,-285.28 84.11,-276.14"/>
<polygon fill="black" stroke="black" points="86.66,-273.73 77.68,-268.1 81.2,-278.1 86.66,-273.73"/>
</g>
<!-- [root] var.resourcegroupname -->
<g id="node_5" class="node">
<title>[root] var.resourcegroupname</title>
<polygon fill="none" stroke="black" points="17,-178 17,-193 100,-193 100,-178 17,-178"/>
<text text-anchor="start" x="51.5" y="-183.6" font-family="courier new" font-size="8.00">var</text>
<polygon fill="none" stroke="black" points="17,-163 17,-178 100,-178 100,-163 17,-163"/>
<text text-anchor="start" x="20" y="-168.6" font-family="courier new" font-size="8.00">resourcegroupname</text>
</g>
<!-- [root] var.location&#45;&gt;[root] var.resourcegroupname -->
<g id="edge_8" class="edge">
<title>[root] var.location&#45;&gt;[root] var.resourcegroupname</title>
<path fill="none" stroke="black" stroke-dasharray="5,2" d="M62.52,-231.7C61.59,-220.85 60.39,-206.92 59.47,-196.1"/>
</g>
<!-- [root] var.tags -->
<g id="node_6" class="node">
<title>[root] var.tags</title>
<polygon fill="none" stroke="black" points="46,-106 46,-121 71,-121 71,-106 46,-106"/>
<text text-anchor="start" x="51.5" y="-111.6" font-family="courier new" font-size="8.00">var</text>
<polygon fill="none" stroke="black" points="46,-91 46,-106 71,-106 71,-91 46,-91"/>
<text text-anchor="start" x="49" y="-96.6" font-family="courier new" font-size="8.00">tags</text>
</g>
<!-- [root] var.resourcegroupname&#45;&gt;[root] var.tags -->
<g id="edge_9" class="edge">
<title>[root] var.resourcegroupname&#45;&gt;[root] var.tags</title>
<path fill="none" stroke="black" stroke-dasharray="5,2" d="M58,-159.7C58,-148.85 58,-134.92 58,-124.1"/>
</g>
</g>
</svg>

