<?xml version="1.0" encoding="UTF-8" standalone="no"?>
<!DOCTYPE svg PUBLIC "-//W3C//DTD SVG 1.1//EN"
 "http://www.w3.org/Graphics/SVG/1.1/DTD/svg11.dtd">
<!-- Generated by graphviz version 2.43.0 (0)
 -->
<!-- Title: %3 Pages: 1 -->
<svg width="234pt" height="564pt"
 viewBox="0.00 0.00 234.00 564.00" xmlns="http://www.w3.org/2000/svg" xmlns:xlink="http://www.w3.org/1999/xlink">
<g id="graph0" class="graph" transform="scale(1 1) rotate(0) translate(4 560)">
<title>%3</title>
<polygon fill="white" stroke="transparent" points="-4,4 -4,-560 230,-560 230,4 -4,4"/>
<g id="clust2" class="cluster">
<title>cluster[root] azurerm_virtual_network.vnet (expand)_var_</title>
</g>
<g id="clust3" class="cluster">
<title>cluster[root] root_output_[root] azurerm_subnet.internal (expand)</title>
</g>
<!-- [root] azurerm_subnet.internal (expand) -->
<g id="node_0" class="node">
<title>[root] azurerm_subnet.internal (expand)</title>
<polygon fill="none" stroke="black" points="69,-394 69,-409 139,-409 139,-394 69,-394"/>
<text text-anchor="start" x="72" y="-399.6" font-family="courier new" font-size="8.00">azurerm_subnet</text>
<polygon fill="none" stroke="black" points="69,-379 69,-394 139,-394 139,-379 69,-379"/>
<text text-anchor="start" x="85.5" y="-384.6" font-family="courier new" font-size="8.00">internal</text>
</g>
<!-- [root] azurerm_virtual_network.vnet (expand) -->
<g id="node_1" class="node">
<title>[root] azurerm_virtual_network.vnet (expand)</title>
<polygon fill="none" stroke="black" points="49,-322 49,-337 159,-337 159,-322 49,-322"/>
<text text-anchor="start" x="52" y="-327.6" font-family="courier new" font-size="8.00">azurerm_virtual_network</text>
<polygon fill="none" stroke="black" points="49,-307 49,-322 159,-322 159,-307 49,-307"/>
<text text-anchor="start" x="94.5" y="-312.6" font-family="courier new" font-size="8.00">vnet</text>
</g>
<!-- [root] azurerm_subnet.internal (expand)&#45;&gt;[root] azurerm_virtual_network.vnet (expand) -->
<g id="edge_0" class="edge">
<title>[root] azurerm_subnet.internal (expand)&#45;&gt;[root] azurerm_virtual_network.vnet (expand)</title>
<path fill="none" stroke="black" d="M104,-375.7C104,-367.98 104,-358.71 104,-350.11"/>
<polygon fill="black" stroke="black" points="107.5,-350.1 104,-340.1 100.5,-350.1 107.5,-350.1"/>
</g>
<!-- [root] provider[&quot;registry.terraform.io/hashicorp/azurerm&quot;] -->
<g id="node_3" class="node">
<title>[root] provider[&quot;registry.terraform.io/hashicorp/azurerm&quot;]</title>
<polygon fill="none" stroke="black" points="0,-250 0,-265 110,-265 110,-250 0,-250"/>
<text text-anchor="start" x="34.5" y="-255.6" font-family="courier new" font-size="8.00">terraform</text>
<polygon fill="none" stroke="black" points="0,-235 0,-250 110,-250 110,-235 0,-235"/>
<text text-anchor="start" x="3" y="-240.6" font-family="courier new" font-size="8.00">io/hashicorp/azurerm\&quot;]</text>
</g>
<!-- [root] azurerm_virtual_network.vnet (expand)&#45;&gt;[root] provider[&quot;registry.terraform.io/hashicorp/azurerm&quot;] -->
<g id="edge_1" class="edge">
<title>[root] azurerm_virtual_network.vnet (expand)&#45;&gt;[root] provider[&quot;registry.terraform.io/hashicorp/azurerm&quot;]</title>
<path fill="none" stroke="black" d="M91.89,-303.7C86.13,-295.47 79.14,-285.48 72.79,-276.42"/>
<polygon fill="black" stroke="black" points="75.58,-274.29 66.97,-268.1 69.84,-278.3 75.58,-274.29"/>
</g>
<!-- [root] var.location -->
<g id="node_4" class="node">
<title>[root] var.location</title>
<polygon fill="none" stroke="black" points="140,-250 140,-265 183,-265 183,-250 140,-250"/>
<text text-anchor="start" x="154.5" y="-255.6" font-family="courier new" font-size="8.00">var</text>
<polygon fill="none" stroke="black" points="140,-235 140,-250 183,-250 183,-235 140,-235"/>
<text text-anchor="start" x="143" y="-240.6" font-family="courier new" font-size="8.00">location</text>
</g>
<!-- [root] azurerm_virtual_network.vnet (expand)&#45;&gt;[root] var.location -->
<g id="edge_2" class="edge">
<title>[root] azurerm_virtual_network.vnet (expand)&#45;&gt;[root] var.location</title>
<path fill="none" stroke="black" d="M118.09,-303.7C124.92,-295.3 133.26,-285.07 140.76,-275.86"/>
<polygon fill="black" stroke="black" points="143.47,-278.07 147.07,-268.1 138.04,-273.65 143.47,-278.07"/>
</g>
<!-- [root] provider[&quot;registry.terraform.io/hashicorp/azurerm&quot;] (close) -->
<g id="node_8" class="node">
<title>[root] provider[&quot;registry.terraform.io/hashicorp/azurerm&quot;] (close)</title>
<polygon fill="none" stroke="black" points="1,-466 1,-481 111,-481 111,-466 1,-466"/>
<text text-anchor="start" x="35.5" y="-471.6" font-family="courier new" font-size="8.00">terraform</text>
<polygon fill="none" stroke="black" points="1,-451 1,-466 111,-466 111,-451 1,-451"/>
<text text-anchor="start" x="4" y="-456.6" font-family="courier new" font-size="8.00">io/hashicorp/azurerm\&quot;]</text>
</g>
<!-- [root] provider[&quot;registry.terraform.io/hashicorp/azurerm&quot;] (close)&#45;&gt;[root] azurerm_subnet.internal (expand) -->
<g id="edge_7" class="edge">
<title>[root] provider[&quot;registry.terraform.io/hashicorp/azurerm&quot;] (close)&#45;&gt;[root] azurerm_subnet.internal (expand)</title>
<path fill="none" stroke="black" d="M67.87,-447.7C73.5,-439.47 80.35,-429.48 86.57,-420.42"/>
<polygon fill="black" stroke="black" points="89.5,-422.33 92.27,-412.1 83.73,-418.37 89.5,-422.33"/>
</g>
<!-- [root] root -->
<g id="node_9" class="node">
<title>[root] root</title>
<polygon fill="none" stroke="black" points="139,-556 73,-556 73,-520 139,-520 139,-556"/>
<text text-anchor="middle" x="106" y="-536.1" font-family="courier new" font-size="8.00">[root] root</text>
</g>
<!-- [root] root&#45;&gt;[root] provider[&quot;registry.terraform.io/hashicorp/azurerm&quot;] (close) -->
<g id="edge_9" class="edge">
<title>[root] root&#45;&gt;[root] provider[&quot;registry.terraform.io/hashicorp/azurerm&quot;] (close)</title>
<path fill="none" stroke="black" d="M93.64,-519.7C87.77,-511.47 80.63,-501.48 74.16,-492.42"/>
<polygon fill="black" stroke="black" points="76.88,-490.21 68.22,-484.1 71.18,-494.28 76.88,-490.21"/>
</g>
<!-- [root] output.subnet_id -->
<g id="node_2" class="node">
<title>[root] output.subnet_id</title>
<polygon fill="none" stroke="black" points="133,-466 133,-481 180,-481 180,-466 133,-466"/>
<text text-anchor="start" x="142.5" y="-471.6" font-family="courier new" font-size="8.00">output</text>
<polygon fill="none" stroke="black" points="133,-451 133,-466 180,-466 180,-451 133,-451"/>
<text text-anchor="start" x="136" y="-456.6" font-family="courier new" font-size="8.00">subnet_id</text>
</g>
<!-- [root] root&#45;&gt;[root] output.subnet_id -->
<g id="edge_8" class="edge">
<title>[root] root&#45;&gt;[root] output.subnet_id</title>
<path fill="none" stroke="black" d="M118.36,-519.7C124.23,-511.47 131.37,-501.48 137.84,-492.42"/>
<polygon fill="black" stroke="black" points="140.82,-494.28 143.78,-484.1 135.12,-490.21 140.82,-494.28"/>
</g>
<!-- [root] var.prefix -->
<g id="node_5" class="node">
<title>[root] var.prefix</title>
<polygon fill="none" stroke="black" points="147,-178 147,-193 181,-193 181,-178 147,-178"/>
<text text-anchor="start" x="157" y="-183.6" font-family="courier new" font-size="8.00">var</text>
<polygon fill="none" stroke="black" points="147,-163 147,-178 181,-178 181,-163 147,-163"/>
<text text-anchor="start" x="150" y="-168.6" font-family="courier new" font-size="8.00">prefix</text>
</g>
<!-- [root] var.location&#45;&gt;[root] var.prefix -->
<g id="edge_10" class="edge">
<title>[root] var.location&#45;&gt;[root] var.prefix</title>
<path fill="none" stroke="black" stroke-dasharray="5,2" d="M161.74,-231.7C162.21,-220.85 162.8,-206.92 163.27,-196.1"/>
</g>
<!-- [root] var.resourcegroupname -->
<g id="node_6" class="node">
<title>[root] var.resourcegroupname</title>
<polygon fill="none" stroke="black" points="127,-106 127,-121 210,-121 210,-106 127,-106"/>
<text text-anchor="start" x="161.5" y="-111.6" font-family="courier new" font-size="8.00">var</text>
<polygon fill="none" stroke="black" points="127,-91 127,-106 210,-106 210,-91 127,-91"/>
<text text-anchor="start" x="130" y="-96.6" font-family="courier new" font-size="8.00">resourcegroupname</text>
</g>
<!-- [root] var.prefix&#45;&gt;[root] var.resourcegroupname -->
<g id="edge_11" class="edge">
<title>[root] var.prefix&#45;&gt;[root] var.resourcegroupname</title>
<path fill="none" stroke="black" stroke-dasharray="5,2" d="M164.99,-159.7C165.61,-148.85 166.4,-134.92 167.02,-124.1"/>
</g>
<!-- [root] var.tags -->
<g id="node_7" class="node">
<title>[root] var.tags</title>
<polygon fill="none" stroke="black" points="156,-34 156,-49 181,-49 181,-34 156,-34"/>
<text text-anchor="start" x="161.5" y="-39.6" font-family="courier new" font-size="8.00">var</text>
<polygon fill="none" stroke="black" points="156,-19 156,-34 181,-34 181,-19 156,-19"/>
<text text-anchor="start" x="159" y="-24.6" font-family="courier new" font-size="8.00">tags</text>
</g>
<!-- [root] var.resourcegroupname&#45;&gt;[root] var.tags -->
<g id="edge_12" class="edge">
<title>[root] var.resourcegroupname&#45;&gt;[root] var.tags</title>
<path fill="none" stroke="black" stroke-dasharray="5,2" d="M168,-87.7C168,-76.85 168,-62.92 168,-52.1"/>
</g>
<!-- [root] output.subnet_id&#45;&gt;[root] azurerm_subnet.internal (expand) -->
<g id="edge_6" class="edge">
<title>[root] output.subnet_id&#45;&gt;[root] azurerm_subnet.internal (expand)</title>
<path fill="none" stroke="black" d="M143.15,-447.7C136.97,-439.39 129.46,-429.28 122.68,-420.14"/>
<polygon fill="black" stroke="black" points="125.48,-418.04 116.71,-412.1 119.86,-422.22 125.48,-418.04"/>
</g>
</g>
</svg>

