<?xml version="1.0" encoding="UTF-8" standalone="no"?>
<!DOCTYPE svg PUBLIC "-//W3C//DTD SVG 1.1//EN"
 "http://www.w3.org/Graphics/SVG/1.1/DTD/svg11.dtd">
<!-- Generated by graphviz version 2.43.0 (0)
 -->
<!-- Title: %3 Pages: 1 -->
<svg width="348pt" height="564pt"
 viewBox="0.00 0.00 348.00 564.00" xmlns="http://www.w3.org/2000/svg" xmlns:xlink="http://www.w3.org/1999/xlink">
<g id="graph0" class="graph" transform="scale(1 1) rotate(0) translate(4 560)">
<title>%3</title>
<polygon fill="white" stroke="transparent" points="-4,4 -4,-560 344,-560 344,4 -4,4"/>
<g id="clust2" class="cluster">
<title>cluster[root] azurerm_virtual_network.vnet (expand)_var_</title>
</g>
<g id="clust3" class="cluster">
<title>cluster[root] root_output_[root] azurerm_subnet.appgw (expand)</title>
</g>
<g id="clust4" class="cluster">
<title>cluster[root] root_output_[root] azurerm_subnet.internal (expand)</title>
</g>
<!-- [root] azurerm_subnet.appgw (expand) -->
<g id="node_0" class="node">
<title>[root] azurerm_subnet.appgw (expand)</title>
<polygon fill="none" stroke="black" points="84,-394 84,-409 154,-409 154,-394 84,-394"/>
<text text-anchor="start" x="87" y="-399.6" font-family="courier new" font-size="8.00">azurerm_subnet</text>
<polygon fill="none" stroke="black" points="84,-379 84,-394 154,-394 154,-379 84,-379"/>
<text text-anchor="start" x="107.5" y="-384.6" font-family="courier new" font-size="8.00">appgw</text>
</g>
<!-- [root] azurerm_virtual_network.vnet (expand) -->
<g id="node_2" class="node">
<title>[root] azurerm_virtual_network.vnet (expand)</title>
<polygon fill="none" stroke="black" points="108,-322 108,-337 218,-337 218,-322 108,-322"/>
<text text-anchor="start" x="111" y="-327.6" font-family="courier new" font-size="8.00">azurerm_virtual_network</text>
<polygon fill="none" stroke="black" points="108,-307 108,-322 218,-322 218,-307 108,-307"/>
<text text-anchor="start" x="153.5" y="-312.6" font-family="courier new" font-size="8.00">vnet</text>
</g>
<!-- [root] azurerm_subnet.appgw (expand)&#45;&gt;[root] azurerm_virtual_network.vnet (expand) -->
<g id="edge_0" class="edge">
<title>[root] azurerm_subnet.appgw (expand)&#45;&gt;[root] azurerm_virtual_network.vnet (expand)</title>
<path fill="none" stroke="black" d="M129.88,-375.7C134.99,-367.56 141.2,-357.69 146.84,-348.7"/>
<polygon fill="black" stroke="black" points="149.89,-350.43 152.25,-340.1 143.96,-346.71 149.89,-350.43"/>
</g>
<!-- [root] azurerm_subnet.internal (expand) -->
<g id="node_1" class="node">
<title>[root] azurerm_subnet.internal (expand)</title>
<polygon fill="none" stroke="black" points="172,-394 172,-409 242,-409 242,-394 172,-394"/>
<text text-anchor="start" x="175" y="-399.6" font-family="courier new" font-size="8.00">azurerm_subnet</text>
<polygon fill="none" stroke="black" points="172,-379 172,-394 242,-394 242,-379 172,-379"/>
<text text-anchor="start" x="188.5" y="-384.6" font-family="courier new" font-size="8.00">internal</text>
</g>
<!-- [root] azurerm_subnet.internal (expand)&#45;&gt;[root] azurerm_virtual_network.vnet (expand) -->
<g id="edge_1" class="edge">
<title>[root] azurerm_subnet.internal (expand)&#45;&gt;[root] azurerm_virtual_network.vnet (expand)</title>
<path fill="none" stroke="black" d="M196.12,-375.7C191.01,-367.56 184.8,-357.69 179.16,-348.7"/>
<polygon fill="black" stroke="black" points="182.04,-346.71 173.75,-340.1 176.11,-350.43 182.04,-346.71"/>
</g>
<!-- [root] provider[&quot;registry.terraform.io/hashicorp/azurerm&quot;] -->
<g id="node_5" class="node">
<title>[root] provider[&quot;registry.terraform.io/hashicorp/azurerm&quot;]</title>
<polygon fill="none" stroke="black" points="58,-250 58,-265 168,-265 168,-250 58,-250"/>
<text text-anchor="start" x="92.5" y="-255.6" font-family="courier new" font-size="8.00">terraform</text>
<polygon fill="none" stroke="black" points="58,-235 58,-250 168,-250 168,-235 58,-235"/>
<text text-anchor="start" x="61" y="-240.6" font-family="courier new" font-size="8.00">io/hashicorp/azurerm\&quot;]</text>
</g>
<!-- [root] azurerm_virtual_network.vnet (expand)&#45;&gt;[root] provider[&quot;registry.terraform.io/hashicorp/azurerm&quot;] -->
<g id="edge_2" class="edge">
<title>[root] azurerm_virtual_network.vnet (expand)&#45;&gt;[root] provider[&quot;registry.terraform.io/hashicorp/azurerm&quot;]</title>
<path fill="none" stroke="black" d="M150.64,-303.7C144.77,-295.47 137.63,-285.48 131.16,-276.42"/>
<polygon fill="black" stroke="black" points="133.88,-274.21 125.22,-268.1 128.18,-278.28 133.88,-274.21"/>
</g>
<!-- [root] var.location -->
<g id="node_6" class="node">
<title>[root] var.location</title>
<polygon fill="none" stroke="black" points="198,-250 198,-265 241,-265 241,-250 198,-250"/>
<text text-anchor="start" x="212.5" y="-255.6" font-family="courier new" font-size="8.00">var</text>
<polygon fill="none" stroke="black" points="198,-235 198,-250 241,-250 241,-235 198,-235"/>
<text text-anchor="start" x="201" y="-240.6" font-family="courier new" font-size="8.00">location</text>
</g>
<!-- [root] azurerm_virtual_network.vnet (expand)&#45;&gt;[root] var.location -->
<g id="edge_3" class="edge">
<title>[root] azurerm_virtual_network.vnet (expand)&#45;&gt;[root] var.location</title>
<path fill="none" stroke="black" d="M176.84,-303.7C183.49,-295.39 191.58,-285.28 198.89,-276.14"/>
<polygon fill="black" stroke="black" points="201.8,-278.1 205.32,-268.1 196.34,-273.73 201.8,-278.1"/>
</g>
<!-- [root] provider[&quot;registry.terraform.io/hashicorp/azurerm&quot;] (close) -->
<g id="node_10" class="node">
<title>[root] provider[&quot;registry.terraform.io/hashicorp/azurerm&quot;] (close)</title>
<polygon fill="none" stroke="black" points="108,-466 108,-481 218,-481 218,-466 108,-466"/>
<text text-anchor="start" x="142.5" y="-471.6" font-family="courier new" font-size="8.00">terraform</text>
<polygon fill="none" stroke="black" points="108,-451 108,-466 218,-466 218,-451 108,-451"/>
<text text-anchor="start" x="111" y="-456.6" font-family="courier new" font-size="8.00">io/hashicorp/azurerm\&quot;]</text>
</g>
<!-- [root] provider[&quot;registry.terraform.io/hashicorp/azurerm&quot;] (close)&#45;&gt;[root] azurerm_subnet.appgw (expand) -->
<g id="edge_9" class="edge">
<title>[root] provider[&quot;registry.terraform.io/hashicorp/azurerm&quot;] (close)&#45;&gt;[root] azurerm_subnet.appgw (expand)</title>
<path fill="none" stroke="black" d="M152.12,-447.7C147.01,-439.56 140.8,-429.69 135.16,-420.7"/>
<polygon fill="black" stroke="black" points="138.04,-418.71 129.75,-412.1 132.11,-422.43 138.04,-418.71"/>
</g>
<!-- [root] provider[&quot;registry.terraform.io/hashicorp/azurerm&quot;] (close)&#45;&gt;[root] azurerm_subnet.internal (expand) -->
<g id="edge_10" class="edge">
<title>[root] provider[&quot;registry.terraform.io/hashicorp/azurerm&quot;] (close)&#45;&gt;[root] azurerm_subnet.internal (expand)</title>
<path fill="none" stroke="black" d="M173.88,-447.7C178.99,-439.56 185.2,-429.69 190.84,-420.7"/>
<polygon fill="black" stroke="black" points="193.89,-422.43 196.25,-412.1 187.96,-418.71 193.89,-422.43"/>
</g>
<!-- [root] root -->
<g id="node_11" class="node">
<title>[root] root</title>
<polygon fill="none" stroke="black" points="196,-556 130,-556 130,-520 196,-520 196,-556"/>
<text text-anchor="middle" x="163" y="-536.1" font-family="courier new" font-size="8.00">[root] root</text>
</g>
<!-- [root] root&#45;&gt;[root] provider[&quot;registry.terraform.io/hashicorp/azurerm&quot;] (close) -->
<g id="edge_13" class="edge">
<title>[root] root&#45;&gt;[root] provider[&quot;registry.terraform.io/hashicorp/azurerm&quot;] (close)</title>
<path fill="none" stroke="black" d="M163,-519.7C163,-511.98 163,-502.71 163,-494.11"/>
<polygon fill="black" stroke="black" points="166.5,-494.1 163,-484.1 159.5,-494.1 166.5,-494.1"/>
</g>
<!-- [root] output.appgw_subnet_id -->
<g id="node_3" class="node">
<title>[root] output.appgw_subnet_id</title>
<polygon fill="none" stroke="black" points="16,-466 16,-481 90,-481 90,-466 16,-466"/>
<text text-anchor="start" x="39" y="-471.6" font-family="courier new" font-size="8.00">output</text>
<polygon fill="none" stroke="black" points="16,-451 16,-466 90,-466 90,-451 16,-451"/>
<text text-anchor="start" x="19" y="-456.6" font-family="courier new" font-size="8.00">appgw_subnet_id</text>
</g>
<!-- [root] root&#45;&gt;[root] output.appgw_subnet_id -->
<g id="edge_11" class="edge">
<title>[root] root&#45;&gt;[root] output.appgw_subnet_id</title>
<path fill="none" stroke="black" d="M136.09,-519.88C121.84,-510.81 104.15,-499.55 88.76,-489.76"/>
<polygon fill="black" stroke="black" points="90.33,-486.61 80.01,-484.19 86.57,-492.51 90.33,-486.61"/>
</g>
<!-- [root] output.internal_subnet_id -->
<g id="node_4" class="node">
<title>[root] output.internal_subnet_id</title>
<polygon fill="none" stroke="black" points="236,-466 236,-481 324,-481 324,-466 236,-466"/>
<text text-anchor="start" x="266" y="-471.6" font-family="courier new" font-size="8.00">output</text>
<polygon fill="none" stroke="black" points="236,-451 236,-466 324,-466 324,-451 236,-451"/>
<text text-anchor="start" x="239" y="-456.6" font-family="courier new" font-size="8.00">internal_subnet_id</text>
</g>
<!-- [root] root&#45;&gt;[root] output.internal_subnet_id -->
<g id="edge_12" class="edge">
<title>[root] root&#45;&gt;[root] output.internal_subnet_id</title>
<path fill="none" stroke="black" d="M191.62,-519.88C206.92,-510.72 225.94,-499.34 242.42,-489.48"/>
<polygon fill="black" stroke="black" points="244.48,-492.33 251.27,-484.19 240.89,-486.32 244.48,-492.33"/>
</g>
<!-- [root] var.prefix -->
<g id="node_7" class="node">
<title>[root] var.prefix</title>
<polygon fill="none" stroke="black" points="205,-178 205,-193 239,-193 239,-178 205,-178"/>
<text text-anchor="start" x="215" y="-183.6" font-family="courier new" font-size="8.00">var</text>
<polygon fill="none" stroke="black" points="205,-163 205,-178 239,-178 239,-163 205,-163"/>
<text text-anchor="start" x="208" y="-168.6" font-family="courier new" font-size="8.00">prefix</text>
</g>
<!-- [root] var.location&#45;&gt;[root] var.prefix -->
<g id="edge_14" class="edge">
<title>[root] var.location&#45;&gt;[root] var.prefix</title>
<path fill="none" stroke="black" stroke-dasharray="5,2" d="M219.74,-231.7C220.21,-220.85 220.8,-206.92 221.27,-196.1"/>
</g>
<!-- [root] var.resourcegroupname -->
<g id="node_8" class="node">
<title>[root] var.resourcegroupname</title>
<polygon fill="none" stroke="black" points="185,-106 185,-121 268,-121 268,-106 185,-106"/>
<text text-anchor="start" x="219.5" y="-111.6" font-family="courier new" font-size="8.00">var</text>
<polygon fill="none" stroke="black" points="185,-91 185,-106 268,-106 268,-91 185,-91"/>
<text text-anchor="start" x="188" y="-96.6" font-family="courier new" font-size="8.00">resourcegroupname</text>
</g>
<!-- [root] var.prefix&#45;&gt;[root] var.resourcegroupname -->
<g id="edge_15" class="edge">
<title>[root] var.prefix&#45;&gt;[root] var.resourcegroupname</title>
<path fill="none" stroke="black" stroke-dasharray="5,2" d="M222.99,-159.7C223.61,-148.85 224.4,-134.92 225.02,-124.1"/>
</g>
<!-- [root] var.tags -->
<g id="node_9" class="node">
<title>[root] var.tags</title>
<polygon fill="none" stroke="black" points="214,-34 214,-49 239,-49 239,-34 214,-34"/>
<text text-anchor="start" x="219.5" y="-39.6" font-family="courier new" font-size="8.00">var</text>
<polygon fill="none" stroke="black" points="214,-19 214,-34 239,-34 239,-19 214,-19"/>
<text text-anchor="start" x="217" y="-24.6" font-family="courier new" font-size="8.00">tags</text>
</g>
<!-- [root] var.resourcegroupname&#45;&gt;[root] var.tags -->
<g id="edge_16" class="edge">
<title>[root] var.resourcegroupname&#45;&gt;[root] var.tags</title>
<path fill="none" stroke="black" stroke-dasharray="5,2" d="M226,-87.7C226,-76.85 226,-62.92 226,-52.1"/>
</g>
<!-- [root] output.appgw_subnet_id&#45;&gt;[root] azurerm_subnet.appgw (expand) -->
<g id="edge_7" class="edge">
<title>[root] output.appgw_subnet_id&#45;&gt;[root] azurerm_subnet.appgw (expand)</title>
<path fill="none" stroke="black" d="M69.31,-447.7C77.31,-439.22 87.07,-428.86 95.82,-419.58"/>
<polygon fill="black" stroke="black" points="98.56,-421.78 102.87,-412.1 93.47,-416.98 98.56,-421.78"/>
</g>
<!-- [root] output.internal_subnet_id&#45;&gt;[root] azurerm_subnet.internal (expand) -->
<g id="edge_8" class="edge">
<title>[root] output.internal_subnet_id&#45;&gt;[root] azurerm_subnet.internal (expand)</title>
<path fill="none" stroke="black" d="M261.96,-447.7C252.94,-439.05 241.88,-428.45 232.06,-419.03"/>
<polygon fill="black" stroke="black" points="234.48,-416.5 224.84,-412.1 229.63,-421.55 234.48,-416.5"/>
</g>
</g>
</svg>

