<?xml version="1.0" encoding="UTF-8" standalone="no"?>
<!DOCTYPE svg PUBLIC "-//W3C//DTD SVG 1.1//EN"
 "http://www.w3.org/Graphics/SVG/1.1/DTD/svg11.dtd">
<!-- Generated by graphviz version 2.43.0 (0)
 -->
<!-- Title: %3 Pages: 1 -->
<svg width="576pt" height="420pt"
 viewBox="0.00 0.00 576.00 420.00" xmlns="http://www.w3.org/2000/svg" xmlns:xlink="http://www.w3.org/1999/xlink">
<g id="graph0" class="graph" transform="scale(1 1) rotate(0) translate(4 416)">
<title>%3</title>
<polygon fill="white" stroke="transparent" points="-4,4 -4,-416 572,-416 572,4 -4,4"/>
<g id="clust2" class="cluster">
<title>cluster[root] azurerm_virtual_network.vnet (expand)_var_</title>
</g>
<g id="clust3" class="cluster">
<title>cluster[root] root_output_[root] azurerm_subnet.appgw (expand)</title>
</g>
<g id="clust4" class="cluster">
<title>cluster[root] root_output_[root] azurerm_subnet.internal (expand)</title>
</g>
<!-- [root] azurerm_route_table.podroutetable (expand) -->
<g id="node_0" class="node">
<title>[root] azurerm_route_table.podroutetable (expand)</title>
<polygon fill="none" stroke="black" points="135,-178 135,-193 227,-193 227,-178 135,-178"/>
<text text-anchor="start" x="138" y="-183.6" font-family="courier new" font-size="8.00">azurerm_route_table</text>
<polygon fill="none" stroke="black" points="135,-163 135,-178 227,-178 227,-163 135,-163"/>
<text text-anchor="start" x="151.5" y="-168.6" font-family="courier new" font-size="8.00">podroutetable</text>
</g>
<!-- [root] provider[&quot;registry.terraform.io/hashicorp/azurerm&quot;] -->
<g id="node_8" class="node">
<title>[root] provider[&quot;registry.terraform.io/hashicorp/azurerm&quot;]</title>
<polygon fill="none" stroke="black" points="0,-34 0,-49 110,-49 110,-34 0,-34"/>
<text text-anchor="start" x="34.5" y="-39.6" font-family="courier new" font-size="8.00">terraform</text>
<polygon fill="none" stroke="black" points="0,-19 0,-34 110,-34 110,-19 0,-19"/>
<text text-anchor="start" x="3" y="-24.6" font-family="courier new" font-size="8.00">io/hashicorp/azurerm\&quot;]</text>
</g>
<!-- [root] azurerm_route_table.podroutetable (expand)&#45;&gt;[root] provider[&quot;registry.terraform.io/hashicorp/azurerm&quot;] -->
<g id="edge_0" class="edge">
<title>[root] azurerm_route_table.podroutetable (expand)&#45;&gt;[root] provider[&quot;registry.terraform.io/hashicorp/azurerm&quot;]</title>
<path fill="none" stroke="black" d="M165.8,-159.87C143.66,-134.92 102.43,-88.45 76.98,-59.77"/>
<polygon fill="black" stroke="black" points="79.51,-57.35 70.25,-52.19 74.27,-61.99 79.51,-57.35"/>
</g>
<!-- [root] var.location -->
<g id="node_9" class="node">
<title>[root] var.location</title>
<polygon fill="none" stroke="black" points="236,-34 236,-49 279,-49 279,-34 236,-34"/>
<text text-anchor="start" x="250.5" y="-39.6" font-family="courier new" font-size="8.00">var</text>
<polygon fill="none" stroke="black" points="236,-19 236,-34 279,-34 279,-19 236,-19"/>
<text text-anchor="start" x="239" y="-24.6" font-family="courier new" font-size="8.00">location</text>
</g>
<!-- [root] azurerm_route_table.podroutetable (expand)&#45;&gt;[root] var.location -->
<g id="edge_1" class="edge">
<title>[root] azurerm_route_table.podroutetable (expand)&#45;&gt;[root] var.location</title>
<path fill="none" stroke="black" d="M189.63,-159.84C198.73,-141.84 213.59,-112.78 227,-88 231.8,-79.12 237.2,-69.5 242.07,-60.91"/>
<polygon fill="black" stroke="black" points="245.19,-62.51 247.11,-52.09 239.11,-59.04 245.19,-62.51"/>
</g>
<!-- [root] var.resourcegroupname -->
<g id="node_11" class="node">
<title>[root] var.resourcegroupname</title>
<polygon fill="none" stroke="black" points="129,-34 129,-49 212,-49 212,-34 129,-34"/>
<text text-anchor="start" x="163.5" y="-39.6" font-family="courier new" font-size="8.00">var</text>
<polygon fill="none" stroke="black" points="129,-19 129,-34 212,-34 212,-19 129,-19"/>
<text text-anchor="start" x="132" y="-24.6" font-family="courier new" font-size="8.00">resourcegroupname</text>
</g>
<!-- [root] azurerm_route_table.podroutetable (expand)&#45;&gt;[root] var.resourcegroupname -->
<g id="edge_2" class="edge">
<title>[root] azurerm_route_table.podroutetable (expand)&#45;&gt;[root] var.resourcegroupname</title>
<path fill="none" stroke="black" d="M179.67,-159.87C177.8,-135.67 174.35,-91.21 172.12,-62.39"/>
<polygon fill="black" stroke="black" points="175.59,-61.89 171.33,-52.19 168.61,-62.43 175.59,-61.89"/>
</g>
<!-- [root] var.tags -->
<g id="node_12" class="node">
<title>[root] var.tags</title>
<polygon fill="none" stroke="black" points="389,-34 389,-49 414,-49 414,-34 389,-34"/>
<text text-anchor="start" x="394.5" y="-39.6" font-family="courier new" font-size="8.00">var</text>
<polygon fill="none" stroke="black" points="389,-19 389,-34 414,-34 414,-19 389,-19"/>
<text text-anchor="start" x="392" y="-24.6" font-family="courier new" font-size="8.00">tags</text>
</g>
<!-- [root] azurerm_route_table.podroutetable (expand)&#45;&gt;[root] var.tags -->
<g id="edge_3" class="edge">
<title>[root] azurerm_route_table.podroutetable (expand)&#45;&gt;[root] var.tags</title>
<path fill="none" stroke="black" d="M227.19,-163.4C277.87,-148.42 352.45,-126.13 355,-124 374.23,-107.98 386.38,-81.84 393.33,-62.03"/>
<polygon fill="black" stroke="black" points="396.72,-62.92 396.5,-52.33 390.06,-60.75 396.72,-62.92"/>
</g>
<!-- [root] azurerm_subnet.appgw (expand) -->
<g id="node_1" class="node">
<title>[root] azurerm_subnet.appgw (expand)</title>
<polygon fill="none" stroke="black" points="249,-178 249,-193 319,-193 319,-178 249,-178"/>
<text text-anchor="start" x="252" y="-183.6" font-family="courier new" font-size="8.00">azurerm_subnet</text>
<polygon fill="none" stroke="black" points="249,-163 249,-178 319,-178 319,-163 249,-163"/>
<text text-anchor="start" x="272.5" y="-168.6" font-family="courier new" font-size="8.00">appgw</text>
</g>
<!-- [root] azurerm_virtual_network.vnet (expand) -->
<g id="node_5" class="node">
<title>[root] azurerm_virtual_network.vnet (expand)</title>
<polygon fill="none" stroke="black" points="236,-106 236,-121 346,-121 346,-106 236,-106"/>
<text text-anchor="start" x="239" y="-111.6" font-family="courier new" font-size="8.00">azurerm_virtual_network</text>
<polygon fill="none" stroke="black" points="236,-91 236,-106 346,-106 346,-91 236,-91"/>
<text text-anchor="start" x="281.5" y="-96.6" font-family="courier new" font-size="8.00">vnet</text>
</g>
<!-- [root] azurerm_subnet.appgw (expand)&#45;&gt;[root] azurerm_virtual_network.vnet (expand) -->
<g id="edge_4" class="edge">
<title>[root] azurerm_subnet.appgw (expand)&#45;&gt;[root] azurerm_virtual_network.vnet (expand)</title>
<path fill="none" stroke="black" d="M285.73,-159.7C286.5,-151.98 287.43,-142.71 288.29,-134.11"/>
<polygon fill="black" stroke="black" points="291.78,-134.4 289.29,-124.1 284.81,-133.71 291.78,-134.4"/>
</g>
<!-- [root] azurerm_subnet.internal (expand) -->
<g id="node_2" class="node">
<title>[root] azurerm_subnet.internal (expand)</title>
<polygon fill="none" stroke="black" points="337,-178 337,-193 407,-193 407,-178 337,-178"/>
<text text-anchor="start" x="340" y="-183.6" font-family="courier new" font-size="8.00">azurerm_subnet</text>
<polygon fill="none" stroke="black" points="337,-163 337,-178 407,-178 407,-163 337,-163"/>
<text text-anchor="start" x="353.5" y="-168.6" font-family="courier new" font-size="8.00">internal</text>
</g>
<!-- [root] azurerm_subnet.internal (expand)&#45;&gt;[root] azurerm_virtual_network.vnet (expand) -->
<g id="edge_5" class="edge">
<title>[root] azurerm_subnet.internal (expand)&#45;&gt;[root] azurerm_virtual_network.vnet (expand)</title>
<path fill="none" stroke="black" d="M351.98,-159.7C341.87,-150.97 329.46,-140.24 318.48,-130.75"/>
<polygon fill="black" stroke="black" points="320.65,-127.99 310.79,-124.1 316.07,-133.29 320.65,-127.99"/>
</g>
<!-- [root] azurerm_subnet_route_table_association.podappgwrouteassoc (expand) -->
<g id="node_3" class="node">
<title>[root] azurerm_subnet_route_table_association.podappgwrouteassoc (expand)</title>
<polygon fill="none" stroke="black" points="23,-250 23,-265 201,-265 201,-250 23,-250"/>
<text text-anchor="start" x="26" y="-255.6" font-family="courier new" font-size="8.00">azurerm_subnet_route_table_association</text>
<polygon fill="none" stroke="black" points="23,-235 23,-250 201,-250 201,-235 23,-235"/>
<text text-anchor="start" x="71" y="-240.6" font-family="courier new" font-size="8.00">podappgwrouteassoc</text>
</g>
<!-- [root] azurerm_subnet_route_table_association.podappgwrouteassoc (expand)&#45;&gt;[root] azurerm_route_table.podroutetable (expand) -->
<g id="edge_6" class="edge">
<title>[root] azurerm_subnet_route_table_association.podappgwrouteassoc (expand)&#45;&gt;[root] azurerm_route_table.podroutetable (expand)</title>
<path fill="none" stroke="black" d="M129.06,-231.7C137.5,-223.14 147.82,-212.66 157.04,-203.3"/>
<polygon fill="black" stroke="black" points="159.61,-205.68 164.14,-196.1 154.63,-200.77 159.61,-205.68"/>
</g>
<!-- [root] azurerm_subnet_route_table_association.podappgwrouteassoc (expand)&#45;&gt;[root] azurerm_subnet.appgw (expand) -->
<g id="edge_7" class="edge">
<title>[root] azurerm_subnet_route_table_association.podappgwrouteassoc (expand)&#45;&gt;[root] azurerm_subnet.appgw (expand)</title>
<path fill="none" stroke="black" d="M154.08,-231.88C179.94,-221.35 213.05,-207.88 239.37,-197.16"/>
<polygon fill="black" stroke="black" points="240.79,-200.36 248.74,-193.35 238.15,-193.88 240.79,-200.36"/>
</g>
<!-- [root] azurerm_subnet_route_table_association.podnoderouteassoc (expand) -->
<g id="node_4" class="node">
<title>[root] azurerm_subnet_route_table_association.podnoderouteassoc (expand)</title>
<polygon fill="none" stroke="black" points="219,-250 219,-265 397,-265 397,-250 219,-250"/>
<text text-anchor="start" x="222" y="-255.6" font-family="courier new" font-size="8.00">azurerm_subnet_route_table_association</text>
<polygon fill="none" stroke="black" points="219,-235 219,-250 397,-250 397,-235 219,-235"/>
<text text-anchor="start" x="269.5" y="-240.6" font-family="courier new" font-size="8.00">podnoderouteassoc</text>
</g>
<!-- [root] azurerm_subnet_route_table_association.podnoderouteassoc (expand)&#45;&gt;[root] azurerm_route_table.podroutetable (expand) -->
<g id="edge_8" class="edge">
<title>[root] azurerm_subnet_route_table_association.podnoderouteassoc (expand)&#45;&gt;[root] azurerm_route_table.podroutetable (expand)</title>
<path fill="none" stroke="black" d="M276.93,-231.88C260.17,-222.64 239.29,-211.13 221.3,-201.21"/>
<polygon fill="black" stroke="black" points="222.63,-197.95 212.19,-196.19 219.26,-204.08 222.63,-197.95"/>
</g>
<!-- [root] azurerm_subnet_route_table_association.podnoderouteassoc (expand)&#45;&gt;[root] azurerm_subnet.internal (expand) -->
<g id="edge_9" class="edge">
<title>[root] azurerm_subnet_route_table_association.podnoderouteassoc (expand)&#45;&gt;[root] azurerm_subnet.internal (expand)</title>
<path fill="none" stroke="black" d="M323.82,-231.7C331.57,-223.22 341.04,-212.86 349.52,-203.58"/>
<polygon fill="black" stroke="black" points="352.2,-205.85 356.36,-196.1 347.03,-201.12 352.2,-205.85"/>
</g>
<!-- [root] azurerm_virtual_network.vnet (expand)&#45;&gt;[root] provider[&quot;registry.terraform.io/hashicorp/azurerm&quot;] -->
<g id="edge_10" class="edge">
<title>[root] azurerm_virtual_network.vnet (expand)&#45;&gt;[root] provider[&quot;registry.terraform.io/hashicorp/azurerm&quot;]</title>
<path fill="none" stroke="black" d="M235.92,-92.32C201.93,-84.07 157.6,-72.54 119,-60 114.8,-58.64 110.48,-57.14 106.16,-55.59"/>
<polygon fill="black" stroke="black" points="107.34,-52.3 96.75,-52.11 104.91,-58.86 107.34,-52.3"/>
</g>
<!-- [root] azurerm_virtual_network.vnet (expand)&#45;&gt;[root] var.location -->
<g id="edge_11" class="edge">
<title>[root] azurerm_virtual_network.vnet (expand)&#45;&gt;[root] var.location</title>
<path fill="none" stroke="black" d="M282.6,-87.7C278.73,-79.73 274.05,-70.1 269.76,-61.26"/>
<polygon fill="black" stroke="black" points="272.83,-59.57 265.31,-52.1 266.53,-62.63 272.83,-59.57"/>
</g>
<!-- [root] azurerm_virtual_network.vnet (expand)&#45;&gt;[root] var.resourcegroupname -->
<g id="edge_13" class="edge">
<title>[root] azurerm_virtual_network.vnet (expand)&#45;&gt;[root] var.resourcegroupname</title>
<path fill="none" stroke="black" d="M261.4,-87.88C245.43,-78.64 225.54,-67.13 208.39,-57.21"/>
<polygon fill="black" stroke="black" points="210.12,-54.17 199.71,-52.19 206.62,-60.23 210.12,-54.17"/>
</g>
<!-- [root] azurerm_virtual_network.vnet (expand)&#45;&gt;[root] var.tags -->
<g id="edge_14" class="edge">
<title>[root] azurerm_virtual_network.vnet (expand)&#45;&gt;[root] var.tags</title>
<path fill="none" stroke="black" d="M322.24,-87.87C336.44,-79.8 353.32,-69.8 368,-60 368.93,-59.38 369.86,-58.75 370.8,-58.1"/>
<polygon fill="black" stroke="black" points="373.16,-60.71 379.25,-52.05 369.09,-55.02 373.16,-60.71"/>
</g>
<!-- [root] var.prefix -->
<g id="node_10" class="node">
<title>[root] var.prefix</title>
<polygon fill="none" stroke="black" points="312,-34 312,-49 346,-49 346,-34 312,-34"/>
<text text-anchor="start" x="322" y="-39.6" font-family="courier new" font-size="8.00">var</text>
<polygon fill="none" stroke="black" points="312,-19 312,-34 346,-34 346,-19 312,-19"/>
<text text-anchor="start" x="315" y="-24.6" font-family="courier new" font-size="8.00">prefix</text>
</g>
<!-- [root] azurerm_virtual_network.vnet (expand)&#45;&gt;[root] var.prefix -->
<g id="edge_12" class="edge">
<title>[root] azurerm_virtual_network.vnet (expand)&#45;&gt;[root] var.prefix</title>
<path fill="none" stroke="black" d="M300.39,-87.7C304.76,-79.64 310.06,-69.89 314.9,-60.98"/>
<polygon fill="black" stroke="black" points="318.02,-62.56 319.71,-52.1 311.87,-59.22 318.02,-62.56"/>
</g>
<!-- [root] provider[&quot;registry.terraform.io/hashicorp/azurerm&quot;] (close) -->
<g id="node_13" class="node">
<title>[root] provider[&quot;registry.terraform.io/hashicorp/azurerm&quot;] (close)</title>
<polygon fill="none" stroke="black" points="238,-322 238,-337 348,-337 348,-322 238,-322"/>
<text text-anchor="start" x="272.5" y="-327.6" font-family="courier new" font-size="8.00">terraform</text>
<polygon fill="none" stroke="black" points="238,-307 238,-322 348,-322 348,-307 238,-307"/>
<text text-anchor="start" x="241" y="-312.6" font-family="courier new" font-size="8.00">io/hashicorp/azurerm\&quot;]</text>
</g>
<!-- [root] provider[&quot;registry.terraform.io/hashicorp/azurerm&quot;] (close)&#45;&gt;[root] azurerm_subnet_route_table_association.podappgwrouteassoc (expand) -->
<g id="edge_17" class="edge">
<title>[root] provider[&quot;registry.terraform.io/hashicorp/azurerm&quot;] (close)&#45;&gt;[root] azurerm_subnet_route_table_association.podappgwrouteassoc (expand)</title>
<path fill="none" stroke="black" d="M248.72,-303.88C223.65,-294.18 192.1,-281.98 165.63,-271.74"/>
<polygon fill="black" stroke="black" points="166.72,-268.41 156.13,-268.07 164.2,-274.94 166.72,-268.41"/>
</g>
<!-- [root] provider[&quot;registry.terraform.io/hashicorp/azurerm&quot;] (close)&#45;&gt;[root] azurerm_subnet_route_table_association.podnoderouteassoc (expand) -->
<g id="edge_18" class="edge">
<title>[root] provider[&quot;registry.terraform.io/hashicorp/azurerm&quot;] (close)&#45;&gt;[root] azurerm_subnet_route_table_association.podnoderouteassoc (expand)</title>
<path fill="none" stroke="black" d="M296.71,-303.7C298.36,-295.98 300.35,-286.71 302.19,-278.11"/>
<polygon fill="black" stroke="black" points="305.66,-278.62 304.33,-268.1 298.82,-277.15 305.66,-278.62"/>
</g>
<!-- [root] root -->
<g id="node_14" class="node">
<title>[root] root</title>
<polygon fill="none" stroke="black" points="436,-412 370,-412 370,-376 436,-376 436,-412"/>
<text text-anchor="middle" x="403" y="-392.1" font-family="courier new" font-size="8.00">[root] root</text>
</g>
<!-- [root] root&#45;&gt;[root] provider[&quot;registry.terraform.io/hashicorp/azurerm&quot;] (close) -->
<g id="edge_21" class="edge">
<title>[root] root&#45;&gt;[root] provider[&quot;registry.terraform.io/hashicorp/azurerm&quot;] (close)</title>
<path fill="none" stroke="black" d="M376.09,-375.88C361.84,-366.81 344.15,-355.55 328.76,-345.76"/>
<polygon fill="black" stroke="black" points="330.33,-342.61 320.01,-340.19 326.57,-348.51 330.33,-342.61"/>
</g>
<!-- [root] output.appgw_subnet_id -->
<g id="node_6" class="node">
<title>[root] output.appgw_subnet_id</title>
<polygon fill="none" stroke="black" points="366,-322 366,-337 440,-337 440,-322 366,-322"/>
<text text-anchor="start" x="389" y="-327.6" font-family="courier new" font-size="8.00">output</text>
<polygon fill="none" stroke="black" points="366,-307 366,-322 440,-322 440,-307 366,-307"/>
<text text-anchor="start" x="369" y="-312.6" font-family="courier new" font-size="8.00">appgw_subnet_id</text>
</g>
<!-- [root] root&#45;&gt;[root] output.appgw_subnet_id -->
<g id="edge_19" class="edge">
<title>[root] root&#45;&gt;[root] output.appgw_subnet_id</title>
<path fill="none" stroke="black" d="M403,-375.7C403,-367.98 403,-358.71 403,-350.11"/>
<polygon fill="black" stroke="black" points="406.5,-350.1 403,-340.1 399.5,-350.1 406.5,-350.1"/>
</g>
<!-- [root] output.internal_subnet_id -->
<g id="node_7" class="node">
<title>[root] output.internal_subnet_id</title>
<polygon fill="none" stroke="black" points="464,-322 464,-337 552,-337 552,-322 464,-322"/>
<text text-anchor="start" x="494" y="-327.6" font-family="courier new" font-size="8.00">output</text>
<polygon fill="none" stroke="black" points="464,-307 464,-322 552,-322 552,-307 464,-307"/>
<text text-anchor="start" x="467" y="-312.6" font-family="courier new" font-size="8.00">internal_subnet_id</text>
</g>
<!-- [root] root&#45;&gt;[root] output.internal_subnet_id -->
<g id="edge_20" class="edge">
<title>[root] root&#45;&gt;[root] output.internal_subnet_id</title>
<path fill="none" stroke="black" d="M428.69,-375.88C442.29,-366.81 459.17,-355.55 473.86,-345.76"/>
<polygon fill="black" stroke="black" points="475.84,-348.65 482.22,-340.19 471.95,-342.82 475.84,-348.65"/>
</g>
<!-- [root] output.appgw_subnet_id&#45;&gt;[root] azurerm_subnet.appgw (expand) -->
<g id="edge_15" class="edge">
<title>[root] output.appgw_subnet_id&#45;&gt;[root] azurerm_subnet.appgw (expand)</title>
<path fill="none" stroke="black" d="M409.07,-303.69C414.63,-284.51 420.07,-253.46 406,-232 403.63,-228.39 362.45,-210.93 328.58,-197.03"/>
<polygon fill="black" stroke="black" points="329.84,-193.76 319.26,-193.21 327.19,-200.24 329.84,-193.76"/>
</g>
<!-- [root] output.internal_subnet_id&#45;&gt;[root] azurerm_subnet.internal (expand) -->
<g id="edge_16" class="edge">
<title>[root] output.internal_subnet_id&#45;&gt;[root] azurerm_subnet.internal (expand)</title>
<path fill="none" stroke="black" d="M491.99,-303.85C475.16,-285.85 447.87,-256.8 424,-232 414.92,-222.57 404.86,-212.28 396.03,-203.29"/>
<polygon fill="black" stroke="black" points="398.46,-200.77 388.95,-196.1 393.47,-205.68 398.46,-200.77"/>
</g>
</g>
</svg>

