<?xml version="1.0" encoding="UTF-8" standalone="no"?>
<!DOCTYPE svg PUBLIC "-//W3C//DTD SVG 1.1//EN"
 "http://www.w3.org/Graphics/SVG/1.1/DTD/svg11.dtd">
<!-- Generated by graphviz version 2.43.0 (0)
 -->
<!-- Title: %3 Pages: 1 -->
<svg width="604pt" height="564pt"
 viewBox="0.00 0.00 604.00 564.00" xmlns="http://www.w3.org/2000/svg" xmlns:xlink="http://www.w3.org/1999/xlink">
<g id="graph0" class="graph" transform="scale(1 1) rotate(0) translate(4 560)">
<title>%3</title>
<polygon fill="white" stroke="transparent" points="-4,4 -4,-560 600,-560 600,4 -4,4"/>
<g id="clust2" class="cluster">
<title>cluster[root] azurerm_virtual_network.vnet (expand)_var_</title>
</g>
<g id="clust3" class="cluster">
<title>cluster[root] root_output_[root] azurerm_subnet.appgw (expand)</title>
</g>
<g id="clust4" class="cluster">
<title>cluster[root] root_output_[root] azurerm_subnet.defaultpod (expand)</title>
</g>
<g id="clust5" class="cluster">
<title>cluster[root] root_output_[root] azurerm_subnet.internal (expand)</title>
</g>
<g id="clust6" class="cluster">
<title>cluster[root] root_output_[root] azurerm_subnet.nodepoolpod (expand)</title>
</g>
<!-- [root] azurerm_subnet.appgw (expand) -->
<g id="node_0" class="node">
<title>[root] azurerm_subnet.appgw (expand)</title>
<polygon fill="none" stroke="black" points="122,-394 122,-409 192,-409 192,-394 122,-394"/>
<text text-anchor="start" x="125" y="-399.6" font-family="courier new" font-size="8.00">azurerm_subnet</text>
<polygon fill="none" stroke="black" points="122,-379 122,-394 192,-394 192,-379 122,-379"/>
<text text-anchor="start" x="145.5" y="-384.6" font-family="courier new" font-size="8.00">appgw</text>
</g>
<!-- [root] azurerm_virtual_network.vnet (expand) -->
<g id="node_4" class="node">
<title>[root] azurerm_virtual_network.vnet (expand)</title>
<polygon fill="none" stroke="black" points="234,-322 234,-337 344,-337 344,-322 234,-322"/>
<text text-anchor="start" x="237" y="-327.6" font-family="courier new" font-size="8.00">azurerm_virtual_network</text>
<polygon fill="none" stroke="black" points="234,-307 234,-322 344,-322 344,-307 234,-307"/>
<text text-anchor="start" x="279.5" y="-312.6" font-family="courier new" font-size="8.00">vnet</text>
</g>
<!-- [root] azurerm_subnet.appgw (expand)&#45;&gt;[root] azurerm_virtual_network.vnet (expand) -->
<g id="edge_0" class="edge">
<title>[root] azurerm_subnet.appgw (expand)&#45;&gt;[root] azurerm_virtual_network.vnet (expand)</title>
<path fill="none" stroke="black" d="M189.29,-375.88C206.87,-366.55 228.81,-354.92 247.63,-344.94"/>
<polygon fill="black" stroke="black" points="249.39,-347.97 256.59,-340.19 246.11,-341.78 249.39,-347.97"/>
</g>
<!-- [root] azurerm_subnet.defaultpod (expand) -->
<g id="node_1" class="node">
<title>[root] azurerm_subnet.defaultpod (expand)</title>
<polygon fill="none" stroke="black" points="210,-394 210,-409 280,-409 280,-394 210,-394"/>
<text text-anchor="start" x="213" y="-399.6" font-family="courier new" font-size="8.00">azurerm_subnet</text>
<polygon fill="none" stroke="black" points="210,-379 210,-394 280,-394 280,-379 210,-379"/>
<text text-anchor="start" x="222" y="-384.6" font-family="courier new" font-size="8.00">defaultpod</text>
</g>
<!-- [root] azurerm_subnet.defaultpod (expand)&#45;&gt;[root] azurerm_virtual_network.vnet (expand) -->
<g id="edge_1" class="edge">
<title>[root] azurerm_subnet.defaultpod (expand)&#45;&gt;[root] azurerm_virtual_network.vnet (expand)</title>
<path fill="none" stroke="black" d="M255.88,-375.7C260.99,-367.56 267.2,-357.69 272.84,-348.7"/>
<polygon fill="black" stroke="black" points="275.89,-350.43 278.25,-340.1 269.96,-346.71 275.89,-350.43"/>
</g>
<!-- [root] azurerm_subnet.internal (expand) -->
<g id="node_2" class="node">
<title>[root] azurerm_subnet.internal (expand)</title>
<polygon fill="none" stroke="black" points="298,-394 298,-409 368,-409 368,-394 298,-394"/>
<text text-anchor="start" x="301" y="-399.6" font-family="courier new" font-size="8.00">azurerm_subnet</text>
<polygon fill="none" stroke="black" points="298,-379 298,-394 368,-394 368,-379 298,-379"/>
<text text-anchor="start" x="314.5" y="-384.6" font-family="courier new" font-size="8.00">internal</text>
</g>
<!-- [root] azurerm_subnet.internal (expand)&#45;&gt;[root] azurerm_virtual_network.vnet (expand) -->
<g id="edge_2" class="edge">
<title>[root] azurerm_subnet.internal (expand)&#45;&gt;[root] azurerm_virtual_network.vnet (expand)</title>
<path fill="none" stroke="black" d="M322.12,-375.7C317.01,-367.56 310.8,-357.69 305.16,-348.7"/>
<polygon fill="black" stroke="black" points="308.04,-346.71 299.75,-340.1 302.11,-350.43 308.04,-346.71"/>
</g>
<!-- [root] azurerm_subnet.nodepoolpod (expand) -->
<g id="node_3" class="node">
<title>[root] azurerm_subnet.nodepoolpod (expand)</title>
<polygon fill="none" stroke="black" points="386,-394 386,-409 456,-409 456,-394 386,-394"/>
<text text-anchor="start" x="389" y="-399.6" font-family="courier new" font-size="8.00">azurerm_subnet</text>
<polygon fill="none" stroke="black" points="386,-379 386,-394 456,-394 456,-379 386,-379"/>
<text text-anchor="start" x="396" y="-384.6" font-family="courier new" font-size="8.00">nodepoolpod</text>
</g>
<!-- [root] azurerm_subnet.nodepoolpod (expand)&#45;&gt;[root] azurerm_virtual_network.vnet (expand) -->
<g id="edge_3" class="edge">
<title>[root] azurerm_subnet.nodepoolpod (expand)&#45;&gt;[root] azurerm_virtual_network.vnet (expand)</title>
<path fill="none" stroke="black" d="M388.71,-375.88C371.13,-366.55 349.19,-354.92 330.37,-344.94"/>
<polygon fill="black" stroke="black" points="331.89,-341.78 321.41,-340.19 328.61,-347.97 331.89,-341.78"/>
</g>
<!-- [root] provider[&quot;registry.terraform.io/hashicorp/azurerm&quot;] -->
<g id="node_9" class="node">
<title>[root] provider[&quot;registry.terraform.io/hashicorp/azurerm&quot;]</title>
<polygon fill="none" stroke="black" points="184,-250 184,-265 294,-265 294,-250 184,-250"/>
<text text-anchor="start" x="218.5" y="-255.6" font-family="courier new" font-size="8.00">terraform</text>
<polygon fill="none" stroke="black" points="184,-235 184,-250 294,-250 294,-235 184,-235"/>
<text text-anchor="start" x="187" y="-240.6" font-family="courier new" font-size="8.00">io/hashicorp/azurerm\&quot;]</text>
</g>
<!-- [root] azurerm_virtual_network.vnet (expand)&#45;&gt;[root] provider[&quot;registry.terraform.io/hashicorp/azurerm&quot;] -->
<g id="edge_4" class="edge">
<title>[root] azurerm_virtual_network.vnet (expand)&#45;&gt;[root] provider[&quot;registry.terraform.io/hashicorp/azurerm&quot;]</title>
<path fill="none" stroke="black" d="M276.64,-303.7C270.77,-295.47 263.63,-285.48 257.16,-276.42"/>
<polygon fill="black" stroke="black" points="259.88,-274.21 251.22,-268.1 254.18,-278.28 259.88,-274.21"/>
</g>
<!-- [root] var.location -->
<g id="node_10" class="node">
<title>[root] var.location</title>
<polygon fill="none" stroke="black" points="324,-250 324,-265 367,-265 367,-250 324,-250"/>
<text text-anchor="start" x="338.5" y="-255.6" font-family="courier new" font-size="8.00">var</text>
<polygon fill="none" stroke="black" points="324,-235 324,-250 367,-250 367,-235 324,-235"/>
<text text-anchor="start" x="327" y="-240.6" font-family="courier new" font-size="8.00">location</text>
</g>
<!-- [root] azurerm_virtual_network.vnet (expand)&#45;&gt;[root] var.location -->
<g id="edge_5" class="edge">
<title>[root] azurerm_virtual_network.vnet (expand)&#45;&gt;[root] var.location</title>
<path fill="none" stroke="black" d="M302.84,-303.7C309.49,-295.39 317.58,-285.28 324.89,-276.14"/>
<polygon fill="black" stroke="black" points="327.8,-278.1 331.32,-268.1 322.34,-273.73 327.8,-278.1"/>
</g>
<!-- [root] provider[&quot;registry.terraform.io/hashicorp/azurerm&quot;] (close) -->
<g id="node_14" class="node">
<title>[root] provider[&quot;registry.terraform.io/hashicorp/azurerm&quot;] (close)</title>
<polygon fill="none" stroke="black" points="234,-466 234,-481 344,-481 344,-466 234,-466"/>
<text text-anchor="start" x="268.5" y="-471.6" font-family="courier new" font-size="8.00">terraform</text>
<polygon fill="none" stroke="black" points="234,-451 234,-466 344,-466 344,-451 234,-451"/>
<text text-anchor="start" x="237" y="-456.6" font-family="courier new" font-size="8.00">io/hashicorp/azurerm\&quot;]</text>
</g>
<!-- [root] provider[&quot;registry.terraform.io/hashicorp/azurerm&quot;] (close)&#45;&gt;[root] azurerm_subnet.appgw (expand) -->
<g id="edge_13" class="edge">
<title>[root] provider[&quot;registry.terraform.io/hashicorp/azurerm&quot;] (close)&#45;&gt;[root] azurerm_subnet.appgw (expand)</title>
<path fill="none" stroke="black" d="M256.71,-447.88C239.13,-438.55 217.19,-426.92 198.37,-416.94"/>
<polygon fill="black" stroke="black" points="199.89,-413.78 189.41,-412.19 196.61,-419.97 199.89,-413.78"/>
</g>
<!-- [root] provider[&quot;registry.terraform.io/hashicorp/azurerm&quot;] (close)&#45;&gt;[root] azurerm_subnet.defaultpod (expand) -->
<g id="edge_14" class="edge">
<title>[root] provider[&quot;registry.terraform.io/hashicorp/azurerm&quot;] (close)&#45;&gt;[root] azurerm_subnet.defaultpod (expand)</title>
<path fill="none" stroke="black" d="M278.12,-447.7C273.01,-439.56 266.8,-429.69 261.16,-420.7"/>
<polygon fill="black" stroke="black" points="264.04,-418.71 255.75,-412.1 258.11,-422.43 264.04,-418.71"/>
</g>
<!-- [root] provider[&quot;registry.terraform.io/hashicorp/azurerm&quot;] (close)&#45;&gt;[root] azurerm_subnet.internal (expand) -->
<g id="edge_15" class="edge">
<title>[root] provider[&quot;registry.terraform.io/hashicorp/azurerm&quot;] (close)&#45;&gt;[root] azurerm_subnet.internal (expand)</title>
<path fill="none" stroke="black" d="M299.88,-447.7C304.99,-439.56 311.2,-429.69 316.84,-420.7"/>
<polygon fill="black" stroke="black" points="319.89,-422.43 322.25,-412.1 313.96,-418.71 319.89,-422.43"/>
</g>
<!-- [root] provider[&quot;registry.terraform.io/hashicorp/azurerm&quot;] (close)&#45;&gt;[root] azurerm_subnet.nodepoolpod (expand) -->
<g id="edge_16" class="edge">
<title>[root] provider[&quot;registry.terraform.io/hashicorp/azurerm&quot;] (close)&#45;&gt;[root] azurerm_subnet.nodepoolpod (expand)</title>
<path fill="none" stroke="black" d="M321.29,-447.88C338.87,-438.55 360.81,-426.92 379.63,-416.94"/>
<polygon fill="black" stroke="black" points="381.39,-419.97 388.59,-412.19 378.11,-413.78 381.39,-419.97"/>
</g>
<!-- [root] root -->
<g id="node_15" class="node">
<title>[root] root</title>
<polygon fill="none" stroke="black" points="322,-556 256,-556 256,-520 322,-520 322,-556"/>
<text text-anchor="middle" x="289" y="-536.1" font-family="courier new" font-size="8.00">[root] root</text>
</g>
<!-- [root] root&#45;&gt;[root] provider[&quot;registry.terraform.io/hashicorp/azurerm&quot;] (close) -->
<g id="edge_21" class="edge">
<title>[root] root&#45;&gt;[root] provider[&quot;registry.terraform.io/hashicorp/azurerm&quot;] (close)</title>
<path fill="none" stroke="black" d="M289,-519.7C289,-511.98 289,-502.71 289,-494.11"/>
<polygon fill="black" stroke="black" points="292.5,-494.1 289,-484.1 285.5,-494.1 292.5,-494.1"/>
</g>
<!-- [root] output.appgw_subnet_id -->
<g id="node_5" class="node">
<title>[root] output.appgw_subnet_id</title>
<polygon fill="none" stroke="black" points="16,-466 16,-481 90,-481 90,-466 16,-466"/>
<text text-anchor="start" x="39" y="-471.6" font-family="courier new" font-size="8.00">output</text>
<polygon fill="none" stroke="black" points="16,-451 16,-466 90,-466 90,-451 16,-451"/>
<text text-anchor="start" x="19" y="-456.6" font-family="courier new" font-size="8.00">appgw_subnet_id</text>
</g>
<!-- [root] root&#45;&gt;[root] output.appgw_subnet_id -->
<g id="edge_17" class="edge">
<title>[root] root&#45;&gt;[root] output.appgw_subnet_id</title>
<path fill="none" stroke="black" d="M255.88,-531.47C217.95,-524.59 154.31,-511.33 102,-492 98.95,-490.87 95.85,-489.61 92.77,-488.26"/>
<polygon fill="black" stroke="black" points="94.15,-485.04 83.61,-484 91.21,-491.39 94.15,-485.04"/>
</g>
<!-- [root] output.default_pod_subnet_id -->
<g id="node_6" class="node">
<title>[root] output.default_pod_subnet_id</title>
<polygon fill="none" stroke="black" points="115,-466 115,-481 216,-481 216,-466 115,-466"/>
<text text-anchor="start" x="151.5" y="-471.6" font-family="courier new" font-size="8.00">output</text>
<polygon fill="none" stroke="black" points="115,-451 115,-466 216,-466 216,-451 115,-451"/>
<text text-anchor="start" x="118" y="-456.6" font-family="courier new" font-size="8.00">default_pod_subnet_id</text>
</g>
<!-- [root] root&#45;&gt;[root] output.default_pod_subnet_id -->
<g id="edge_18" class="edge">
<title>[root] root&#45;&gt;[root] output.default_pod_subnet_id</title>
<path fill="none" stroke="black" d="M258.67,-519.88C242.3,-510.64 221.92,-499.13 204.35,-489.21"/>
<polygon fill="black" stroke="black" points="205.88,-486.06 195.45,-484.19 202.44,-492.15 205.88,-486.06"/>
</g>
<!-- [root] output.internal_subnet_id -->
<g id="node_7" class="node">
<title>[root] output.internal_subnet_id</title>
<polygon fill="none" stroke="black" points="362,-466 362,-481 450,-481 450,-466 362,-466"/>
<text text-anchor="start" x="392" y="-471.6" font-family="courier new" font-size="8.00">output</text>
<polygon fill="none" stroke="black" points="362,-451 362,-466 450,-466 450,-451 362,-451"/>
<text text-anchor="start" x="365" y="-456.6" font-family="courier new" font-size="8.00">internal_subnet_id</text>
</g>
<!-- [root] root&#45;&gt;[root] output.internal_subnet_id -->
<g id="edge_19" class="edge">
<title>[root] root&#45;&gt;[root] output.internal_subnet_id</title>
<path fill="none" stroke="black" d="M317.62,-519.88C332.92,-510.72 351.94,-499.34 368.42,-489.48"/>
<polygon fill="black" stroke="black" points="370.48,-492.33 377.27,-484.19 366.89,-486.32 370.48,-492.33"/>
</g>
<!-- [root] output.nodepool_pod_subnet_id -->
<g id="node_8" class="node">
<title>[root] output.nodepool_pod_subnet_id</title>
<polygon fill="none" stroke="black" points="474,-466 474,-481 580,-481 580,-466 474,-466"/>
<text text-anchor="start" x="513" y="-471.6" font-family="courier new" font-size="8.00">output</text>
<polygon fill="none" stroke="black" points="474,-451 474,-466 580,-466 580,-451 474,-451"/>
<text text-anchor="start" x="477" y="-456.6" font-family="courier new" font-size="8.00">nodepool_pod_subnet_id</text>
</g>
<!-- [root] root&#45;&gt;[root] output.nodepool_pod_subnet_id -->
<g id="edge_20" class="edge">
<title>[root] root&#45;&gt;[root] output.nodepool_pod_subnet_id</title>
<path fill="none" stroke="black" d="M322.16,-529.55C357.22,-521.4 413.99,-507.42 462,-492 466.26,-490.63 470.64,-489.14 475.03,-487.58"/>
<polygon fill="black" stroke="black" points="476.39,-490.81 484.59,-484.1 473.99,-484.23 476.39,-490.81"/>
</g>
<!-- [root] var.prefix -->
<g id="node_11" class="node">
<title>[root] var.prefix</title>
<polygon fill="none" stroke="black" points="331,-178 331,-193 365,-193 365,-178 331,-178"/>
<text text-anchor="start" x="341" y="-183.6" font-family="courier new" font-size="8.00">var</text>
<polygon fill="none" stroke="black" points="331,-163 331,-178 365,-178 365,-163 331,-163"/>
<text text-anchor="start" x="334" y="-168.6" font-family="courier new" font-size="8.00">prefix</text>
</g>
<!-- [root] var.location&#45;&gt;[root] var.prefix -->
<g id="edge_22" class="edge">
<title>[root] var.location&#45;&gt;[root] var.prefix</title>
<path fill="none" stroke="black" stroke-dasharray="5,2" d="M345.74,-231.7C346.21,-220.85 346.8,-206.92 347.27,-196.1"/>
</g>
<!-- [root] var.resourcegroupname -->
<g id="node_12" class="node">
<title>[root] var.resourcegroupname</title>
<polygon fill="none" stroke="black" points="311,-106 311,-121 394,-121 394,-106 311,-106"/>
<text text-anchor="start" x="345.5" y="-111.6" font-family="courier new" font-size="8.00">var</text>
<polygon fill="none" stroke="black" points="311,-91 311,-106 394,-106 394,-91 311,-91"/>
<text text-anchor="start" x="314" y="-96.6" font-family="courier new" font-size="8.00">resourcegroupname</text>
</g>
<!-- [root] var.prefix&#45;&gt;[root] var.resourcegroupname -->
<g id="edge_23" class="edge">
<title>[root] var.prefix&#45;&gt;[root] var.resourcegroupname</title>
<path fill="none" stroke="black" stroke-dasharray="5,2" d="M348.99,-159.7C349.61,-148.85 350.4,-134.92 351.02,-124.1"/>
</g>
<!-- [root] var.tags -->
<g id="node_13" class="node">
<title>[root] var.tags</title>
<polygon fill="none" stroke="black" points="340,-34 340,-49 365,-49 365,-34 340,-34"/>
<text text-anchor="start" x="345.5" y="-39.6" font-family="courier new" font-size="8.00">var</text>
<polygon fill="none" stroke="black" points="340,-19 340,-34 365,-34 365,-19 340,-19"/>
<text text-anchor="start" x="343" y="-24.6" font-family="courier new" font-size="8.00">tags</text>
</g>
<!-- [root] var.resourcegroupname&#45;&gt;[root] var.tags -->
<g id="edge_24" class="edge">
<title>[root] var.resourcegroupname&#45;&gt;[root] var.tags</title>
<path fill="none" stroke="black" stroke-dasharray="5,2" d="M352,-87.7C352,-76.85 352,-62.92 352,-52.1"/>
</g>
<!-- [root] output.appgw_subnet_id&#45;&gt;[root] azurerm_subnet.appgw (expand) -->
<g id="edge_9" class="edge">
<title>[root] output.appgw_subnet_id&#45;&gt;[root] azurerm_subnet.appgw (expand)</title>
<path fill="none" stroke="black" d="M78.44,-447.88C91.79,-438.89 108.32,-427.76 122.78,-418.03"/>
<polygon fill="black" stroke="black" points="125.12,-420.68 131.46,-412.19 121.21,-414.87 125.12,-420.68"/>
</g>
<!-- [root] output.default_pod_subnet_id&#45;&gt;[root] azurerm_subnet.defaultpod (expand) -->
<g id="edge_10" class="edge">
<title>[root] output.default_pod_subnet_id&#45;&gt;[root] azurerm_subnet.defaultpod (expand)</title>
<path fill="none" stroke="black" d="M184.78,-447.7C194.75,-438.97 207.01,-428.24 217.86,-418.75"/>
<polygon fill="black" stroke="black" points="220.23,-421.32 225.45,-412.1 215.62,-416.06 220.23,-421.32"/>
</g>
<!-- [root] output.internal_subnet_id&#45;&gt;[root] azurerm_subnet.internal (expand) -->
<g id="edge_11" class="edge">
<title>[root] output.internal_subnet_id&#45;&gt;[root] azurerm_subnet.internal (expand)</title>
<path fill="none" stroke="black" d="M387.96,-447.7C378.94,-439.05 367.88,-428.45 358.06,-419.03"/>
<polygon fill="black" stroke="black" points="360.48,-416.5 350.84,-412.1 355.63,-421.55 360.48,-416.5"/>
</g>
<!-- [root] output.nodepool_pod_subnet_id&#45;&gt;[root] azurerm_subnet.nodepoolpod (expand) -->
<g id="edge_12" class="edge">
<title>[root] output.nodepool_pod_subnet_id&#45;&gt;[root] azurerm_subnet.nodepoolpod (expand)</title>
<path fill="none" stroke="black" d="M501.07,-447.88C487.34,-438.81 470.29,-427.55 455.46,-417.76"/>
<polygon fill="black" stroke="black" points="457.3,-414.78 447.03,-412.19 453.45,-420.62 457.3,-414.78"/>
</g>
</g>
</svg>

