<?xml version="1.0" encoding="UTF-8" standalone="no"?>
<!DOCTYPE svg PUBLIC "-//W3C//DTD SVG 1.1//EN"
 "http://www.w3.org/Graphics/SVG/1.1/DTD/svg11.dtd">
<!-- Generated by graphviz version 2.49.3 (20211023.0002)
 -->
<!-- Pages: 1 -->
<svg width="927pt" height="404pt"
 viewBox="0.00 0.00 926.56 404.00" xmlns="http://www.w3.org/2000/svg" xmlns:xlink="http://www.w3.org/1999/xlink">
<g id="graph0" class="graph" transform="scale(1 1) rotate(0) translate(4 400)">
<polygon fill="white" stroke="transparent" points="-4,4 -4,-400 922.56,-400 922.56,4 -4,4"/>
<!-- [root] azurerm_app_service.appservice (expand) -->
<g id="node1" class="node">
<title>[root] azurerm_app_service.appservice (expand)</title>
<polygon fill="none" stroke="black" points="546.59,-252 346.59,-252 346.59,-216 546.59,-216 546.59,-252"/>
<text text-anchor="middle" x="446.59" y="-230.3" font-family="Times New Roman,serif" font-size="14.00">azurerm_app_service.appservice</text>
</g>
<!-- [root] azurerm_app_service_plan.service_plan (expand) -->
<g id="node2" class="node">
<title>[root] azurerm_app_service_plan.service_plan (expand)</title>
<polygon fill="none" stroke="black" points="566.59,-180 326.59,-180 326.59,-144 566.59,-144 566.59,-180"/>
<text text-anchor="middle" x="446.59" y="-158.3" font-family="Times New Roman,serif" font-size="14.00">azurerm_app_service_plan.service_plan</text>
</g>
<!-- [root] azurerm_app_service.appservice (expand)&#45;&gt;[root] azurerm_app_service_plan.service_plan (expand) -->
<g id="edge1" class="edge">
<title>[root] azurerm_app_service.appservice (expand)&#45;&gt;[root] azurerm_app_service_plan.service_plan (expand)</title>
<path fill="none" stroke="black" d="M446.59,-215.7C446.59,-207.98 446.59,-198.71 446.59,-190.11"/>
<polygon fill="black" stroke="black" points="450.09,-190.1 446.59,-180.1 443.09,-190.1 450.09,-190.1"/>
</g>
<!-- [root] azurerm_resource_group.rg (expand) -->
<g id="node3" class="node">
<title>[root] azurerm_resource_group.rg (expand)</title>
<polygon fill="none" stroke="black" points="532.59,-108 360.59,-108 360.59,-72 532.59,-72 532.59,-108"/>
<text text-anchor="middle" x="446.59" y="-86.3" font-family="Times New Roman,serif" font-size="14.00">azurerm_resource_group.rg</text>
</g>
<!-- [root] azurerm_app_service_plan.service_plan (expand)&#45;&gt;[root] azurerm_resource_group.rg (expand) -->
<g id="edge2" class="edge">
<title>[root] azurerm_app_service_plan.service_plan (expand)&#45;&gt;[root] azurerm_resource_group.rg (expand)</title>
<path fill="none" stroke="black" d="M446.59,-143.7C446.59,-135.98 446.59,-126.71 446.59,-118.11"/>
<polygon fill="black" stroke="black" points="450.09,-118.1 446.59,-108.1 443.09,-118.1 450.09,-118.1"/>
</g>
<!-- [root] provider[&quot;registry.terraform.io/hashicorp/azurerm&quot;] -->
<g id="node5" class="node">
<title>[root] provider[&quot;registry.terraform.io/hashicorp/azurerm&quot;]</title>
<polygon fill="none" stroke="black" points="277.59,-36 -0.09,-18 277.59,0 555.26,-18 277.59,-36"/>
<text text-anchor="middle" x="277.59" y="-14.3" font-family="Times New Roman,serif" font-size="14.00">provider[&quot;registry.terraform.io/hashicorp/azurerm&quot;]</text>
</g>
<!-- [root] azurerm_resource_group.rg (expand)&#45;&gt;[root] provider[&quot;registry.terraform.io/hashicorp/azurerm&quot;] -->
<g id="edge3" class="edge">
<title>[root] azurerm_resource_group.rg (expand)&#45;&gt;[root] provider[&quot;registry.terraform.io/hashicorp/azurerm&quot;]</title>
<path fill="none" stroke="black" d="M405.24,-71.88C380.29,-61.54 348.47,-48.36 322.84,-37.74"/>
<polygon fill="black" stroke="black" points="323.93,-34.41 313.35,-33.81 321.25,-40.87 323.93,-34.41"/>
</g>
<!-- [root] var.resource -->
<g id="node6" class="node">
<title>[root] var.resource</title>
<polygon fill="none" stroke="black" points="653.59,-36 573.59,-36 573.59,0 659.59,0 659.59,-30 653.59,-36"/>
<polyline fill="none" stroke="black" points="653.59,-36 653.59,-30 "/>
<polyline fill="none" stroke="black" points="659.59,-30 653.59,-30 "/>
<text text-anchor="middle" x="616.59" y="-14.3" font-family="Times New Roman,serif" font-size="14.00">var.resource</text>
</g>
<!-- [root] azurerm_resource_group.rg (expand)&#45;&gt;[root] var.resource -->
<g id="edge4" class="edge">
<title>[root] azurerm_resource_group.rg (expand)&#45;&gt;[root] var.resource</title>
<path fill="none" stroke="black" d="M488.17,-71.88C511.62,-62.22 541.09,-50.09 565.88,-39.88"/>
<polygon fill="black" stroke="black" points="567.22,-43.11 575.13,-36.07 564.55,-36.64 567.22,-43.11"/>
</g>
<!-- [root] output.app_service_url -->
<g id="node4" class="node">
<title>[root] output.app_service_url</title>
<polygon fill="none" stroke="black" points="289.59,-324 149.59,-324 149.59,-288 295.59,-288 295.59,-318 289.59,-324"/>
<polyline fill="none" stroke="black" points="289.59,-324 289.59,-318 "/>
<polyline fill="none" stroke="black" points="295.59,-318 289.59,-318 "/>
<text text-anchor="middle" x="222.59" y="-302.3" font-family="Times New Roman,serif" font-size="14.00">output.app_service_url</text>
</g>
<!-- [root] output.app_service_url&#45;&gt;[root] azurerm_app_service.appservice (expand) -->
<g id="edge5" class="edge">
<title>[root] output.app_service_url&#45;&gt;[root] azurerm_app_service.appservice (expand)</title>
<path fill="none" stroke="black" d="M277.1,-287.97C308.8,-278.06 348.94,-265.51 382.2,-255.12"/>
<polygon fill="black" stroke="black" points="383.33,-258.43 391.83,-252.11 381.24,-251.75 383.33,-258.43"/>
</g>
<!-- [root] var.source_ip -->
<g id="node7" class="node">
<title>[root] var.source_ip</title>
<polygon fill="none" stroke="black" points="401.09,-324 314.09,-324 314.09,-288 407.09,-288 407.09,-318 401.09,-324"/>
<polyline fill="none" stroke="black" points="401.09,-324 401.09,-318 "/>
<polyline fill="none" stroke="black" points="407.09,-318 401.09,-318 "/>
<text text-anchor="middle" x="360.59" y="-302.3" font-family="Times New Roman,serif" font-size="14.00">var.source_ip</text>
</g>
<!-- [root] provider[&quot;registry.terraform.io/hashicorp/azurerm&quot;] (close) -->
<g id="node8" class="node">
<title>[root] provider[&quot;registry.terraform.io/hashicorp/azurerm&quot;] (close)</title>
<ellipse fill="none" stroke="black" cx="671.59" cy="-306" rx="246.96" ry="18"/>
<text text-anchor="middle" x="671.59" y="-302.3" font-family="Times New Roman,serif" font-size="14.00">[root] provider[&quot;registry.terraform.io/hashicorp/azurerm&quot;] (close)</text>
</g>
<!-- [root] provider[&quot;registry.terraform.io/hashicorp/azurerm&quot;] (close)&#45;&gt;[root] azurerm_app_service.appservice (expand) -->
<g id="edge6" class="edge">
<title>[root] provider[&quot;registry.terraform.io/hashicorp/azurerm&quot;] (close)&#45;&gt;[root] azurerm_app_service.appservice (expand)</title>
<path fill="none" stroke="black" d="M618.26,-288.41C586.21,-278.44 545.2,-265.68 511.3,-255.13"/>
<polygon fill="black" stroke="black" points="512.07,-251.71 501.48,-252.08 509.99,-258.39 512.07,-251.71"/>
</g>
<!-- [root] root -->
<g id="node9" class="node">
<title>[root] root</title>
<ellipse fill="none" stroke="black" cx="360.59" cy="-378" rx="49.29" ry="18"/>
<text text-anchor="middle" x="360.59" y="-374.3" font-family="Times New Roman,serif" font-size="14.00">[root] root</text>
</g>
<!-- [root] root&#45;&gt;[root] output.app_service_url -->
<g id="edge7" class="edge">
<title>[root] root&#45;&gt;[root] output.app_service_url</title>
<path fill="none" stroke="black" d="M332.99,-363C313.65,-353.19 287.43,-339.89 265.39,-328.71"/>
<polygon fill="black" stroke="black" points="266.73,-325.47 256.23,-324.07 263.57,-331.71 266.73,-325.47"/>
</g>
<!-- [root] root&#45;&gt;[root] var.source_ip -->
<g id="edge9" class="edge">
<title>[root] root&#45;&gt;[root] var.source_ip</title>
<path fill="none" stroke="black" d="M360.59,-359.7C360.59,-351.98 360.59,-342.71 360.59,-334.11"/>
<polygon fill="black" stroke="black" points="364.09,-334.1 360.59,-324.1 357.09,-334.1 364.09,-334.1"/>
</g>
<!-- [root] root&#45;&gt;[root] provider[&quot;registry.terraform.io/hashicorp/azurerm&quot;] (close) -->
<g id="edge8" class="edge">
<title>[root] root&#45;&gt;[root] provider[&quot;registry.terraform.io/hashicorp/azurerm&quot;] (close)</title>
<path fill="none" stroke="black" d="M401.56,-367.78C449.22,-357.05 529.07,-339.08 589.61,-325.45"/>
<polygon fill="black" stroke="black" points="590.55,-328.83 599.53,-323.22 589.01,-322 590.55,-328.83"/>
</g>
</g>
</svg>
