<?xml version="1.0" encoding="UTF-8" standalone="no"?>
<!DOCTYPE svg PUBLIC "-//W3C//DTD SVG 1.1//EN"
 "http://www.w3.org/Graphics/SVG/1.1/DTD/svg11.dtd">
<!-- Generated by graphviz version 2.43.0 (0)
 -->
<!-- Title: %3 Pages: 1 -->
<svg width="404pt" height="636pt"
 viewBox="0.00 0.00 404.00 636.00" xmlns="http://www.w3.org/2000/svg" xmlns:xlink="http://www.w3.org/1999/xlink">
<g id="graph0" class="graph" transform="scale(1 1) rotate(0) translate(4 632)">
<title>%3</title>
<polygon fill="white" stroke="transparent" points="-4,4 -4,-632 400,-632 400,4 -4,4"/>
<g id="clust2" class="cluster">
<title>cluster[root] provider[&quot;registry.terraform.io/hashicorp/helm&quot;]_var_</title>
</g>
<g id="clust3" class="cluster">
<title>cluster[root] helm_release.external_dns (expand)_var_</title>
</g>
<g id="clust4" class="cluster">
<title>cluster[root] local.external_dns_vars (expand)_var_</title>
</g>
<!-- [root] data.azurerm_client_config.current (expand) -->
<g id="node_0" class="node">
<title>[root] data.azurerm_client_config.current (expand)</title>
<polygon fill="none" stroke="black" points="7,-250 7,-265 108,-265 108,-250 7,-250"/>
<text text-anchor="start" x="10" y="-255.6" font-family="courier new" font-size="8.00">azurerm_client_config</text>
<polygon fill="none" stroke="black" points="7,-235 7,-250 108,-250 108,-235 7,-235"/>
<text text-anchor="start" x="41.5" y="-240.6" font-family="courier new" font-size="8.00">current</text>
</g>
<!-- [root] provider[&quot;registry.terraform.io/hashicorp/azurerm&quot;] -->
<g id="node_2" class="node">
<title>[root] provider[&quot;registry.terraform.io/hashicorp/azurerm&quot;]</title>
<polygon fill="none" stroke="black" points="0,-178 0,-193 110,-193 110,-178 0,-178"/>
<text text-anchor="start" x="34.5" y="-183.6" font-family="courier new" font-size="8.00">terraform</text>
<polygon fill="none" stroke="black" points="0,-163 0,-178 110,-178 110,-163 0,-163"/>
<text text-anchor="start" x="3" y="-168.6" font-family="courier new" font-size="8.00">io/hashicorp/azurerm\&quot;]</text>
</g>
<!-- [root] data.azurerm_client_config.current (expand)&#45;&gt;[root] provider[&quot;registry.terraform.io/hashicorp/azurerm&quot;] -->
<g id="edge_0" class="edge">
<title>[root] data.azurerm_client_config.current (expand)&#45;&gt;[root] provider[&quot;registry.terraform.io/hashicorp/azurerm&quot;]</title>
<path fill="none" stroke="black" d="M56.51,-231.7C56.29,-223.98 56.02,-214.71 55.77,-206.11"/>
<polygon fill="black" stroke="black" points="59.27,-206 55.49,-196.1 52.28,-206.2 59.27,-206"/>
</g>
<!-- [root] helm_release.external_dns (expand) -->
<g id="node_1" class="node">
<title>[root] helm_release.external_dns (expand)</title>
<polygon fill="none" stroke="black" points="191,-466 191,-481 252,-481 252,-466 191,-466"/>
<text text-anchor="start" x="194" y="-471.6" font-family="courier new" font-size="8.00">helm_release</text>
<polygon fill="none" stroke="black" points="191,-451 191,-466 252,-466 252,-451 191,-451"/>
<text text-anchor="start" x="194" y="-456.6" font-family="courier new" font-size="8.00">external_dns</text>
</g>
<!-- [root] provider[&quot;registry.terraform.io/hashicorp/helm&quot;] -->
<g id="node_3" class="node">
<title>[root] provider[&quot;registry.terraform.io/hashicorp/helm&quot;]</title>
<polygon fill="none" stroke="black" points="279,-394 279,-409 376,-409 376,-394 279,-394"/>
<text text-anchor="start" x="307" y="-399.6" font-family="courier new" font-size="8.00">terraform</text>
<polygon fill="none" stroke="black" points="279,-379 279,-394 376,-394 376,-379 279,-379"/>
<text text-anchor="start" x="282" y="-384.6" font-family="courier new" font-size="8.00">io/hashicorp/helm\&quot;]</text>
</g>
<!-- [root] helm_release.external_dns (expand)&#45;&gt;[root] provider[&quot;registry.terraform.io/hashicorp/helm&quot;] -->
<g id="edge_2" class="edge">
<title>[root] helm_release.external_dns (expand)&#45;&gt;[root] provider[&quot;registry.terraform.io/hashicorp/helm&quot;]</title>
<path fill="none" stroke="black" d="M246.93,-447.88C260.66,-438.81 277.71,-427.55 292.54,-417.76"/>
<polygon fill="black" stroke="black" points="294.55,-420.62 300.97,-412.19 290.7,-414.78 294.55,-420.62"/>
</g>
<!-- [root] local.external_dns_values (expand) -->
<g id="node_13" class="node">
<title>[root] local.external_dns_values (expand)</title>
<polygon fill="none" stroke="black" points="85,-394 85,-409 177,-409 177,-394 85,-394"/>
<text text-anchor="start" x="119.5" y="-399.6" font-family="courier new" font-size="8.00">local</text>
<polygon fill="none" stroke="black" points="85,-379 85,-394 177,-394 177,-379 85,-379"/>
<text text-anchor="start" x="88" y="-384.6" font-family="courier new" font-size="8.00">external_dns_values</text>
</g>
<!-- [root] helm_release.external_dns (expand)&#45;&gt;[root] local.external_dns_values (expand) -->
<g id="edge_1" class="edge">
<title>[root] helm_release.external_dns (expand)&#45;&gt;[root] local.external_dns_values (expand)</title>
<path fill="none" stroke="black" d="M198.75,-447.7C187.42,-438.88 173.47,-428.03 161.18,-418.47"/>
<polygon fill="black" stroke="black" points="163.03,-415.48 152.99,-412.1 158.74,-421.01 163.03,-415.48"/>
</g>
<!-- [root] var.dns_namespace -->
<g id="node_8" class="node">
<title>[root] var.dns_namespace</title>
<polygon fill="none" stroke="black" points="196,-394 196,-409 261,-409 261,-394 196,-394"/>
<text text-anchor="start" x="221.5" y="-399.6" font-family="courier new" font-size="8.00">var</text>
<polygon fill="none" stroke="black" points="196,-379 196,-394 261,-394 261,-379 196,-379"/>
<text text-anchor="start" x="199" y="-384.6" font-family="courier new" font-size="8.00">dns_namespace</text>
</g>
<!-- [root] helm_release.external_dns (expand)&#45;&gt;[root] var.dns_namespace -->
<g id="edge_3" class="edge">
<title>[root] helm_release.external_dns (expand)&#45;&gt;[root] var.dns_namespace</title>
<path fill="none" stroke="black" d="M222.73,-447.7C223.5,-439.98 224.43,-430.71 225.29,-422.11"/>
<polygon fill="black" stroke="black" points="228.78,-422.4 226.29,-412.1 221.81,-421.71 228.78,-422.4"/>
</g>
<!-- [root] var.client_certificate -->
<g id="node_4" class="node">
<title>[root] var.client_certificate</title>
<polygon fill="none" stroke="black" points="283,-322 283,-337 371,-337 371,-322 283,-322"/>
<text text-anchor="start" x="320" y="-327.6" font-family="courier new" font-size="8.00">var</text>
<polygon fill="none" stroke="black" points="283,-307 283,-322 371,-322 371,-307 283,-307"/>
<text text-anchor="start" x="286" y="-312.6" font-family="courier new" font-size="8.00">client_certificate</text>
</g>
<!-- [root] provider[&quot;registry.terraform.io/hashicorp/helm&quot;]&#45;&gt;[root] var.client_certificate -->
<g id="edge_11" class="edge">
<title>[root] provider[&quot;registry.terraform.io/hashicorp/helm&quot;]&#45;&gt;[root] var.client_certificate</title>
<path fill="none" stroke="black" d="M327,-375.7C327,-367.98 327,-358.71 327,-350.11"/>
<polygon fill="black" stroke="black" points="330.5,-350.1 327,-340.1 323.5,-350.1 330.5,-350.1"/>
</g>
<!-- [root] local.external_dns_vars (expand) -->
<g id="node_14" class="node">
<title>[root] local.external_dns_vars (expand)</title>
<polygon fill="none" stroke="black" points="90,-322 90,-337 173,-337 173,-322 90,-322"/>
<text text-anchor="start" x="120" y="-327.6" font-family="courier new" font-size="8.00">local</text>
<polygon fill="none" stroke="black" points="90,-307 90,-322 173,-322 173,-307 90,-307"/>
<text text-anchor="start" x="93" y="-312.6" font-family="courier new" font-size="8.00">external_dns_vars</text>
</g>
<!-- [root] local.external_dns_values (expand)&#45;&gt;[root] local.external_dns_vars (expand) -->
<g id="edge_4" class="edge">
<title>[root] local.external_dns_values (expand)&#45;&gt;[root] local.external_dns_vars (expand)</title>
<path fill="none" stroke="black" d="M131,-375.7C131,-367.98 131,-358.71 131,-350.11"/>
<polygon fill="black" stroke="black" points="134.5,-350.1 131,-340.1 127.5,-350.1 134.5,-350.1"/>
</g>
<!-- [root] local.external_dns_vars (expand)&#45;&gt;[root] data.azurerm_client_config.current (expand) -->
<g id="edge_5" class="edge">
<title>[root] local.external_dns_vars (expand)&#45;&gt;[root] data.azurerm_client_config.current (expand)</title>
<path fill="none" stroke="black" d="M112.71,-303.7C103.57,-295.05 92.36,-284.45 82.4,-275.03"/>
<polygon fill="black" stroke="black" points="84.75,-272.43 75.08,-268.1 79.94,-277.52 84.75,-272.43"/>
</g>
<!-- [root] var.domainname -->
<g id="node_9" class="node">
<title>[root] var.domainname</title>
<polygon fill="none" stroke="black" points="136,-250 136,-265 188,-265 188,-250 136,-250"/>
<text text-anchor="start" x="155" y="-255.6" font-family="courier new" font-size="8.00">var</text>
<polygon fill="none" stroke="black" points="136,-235 136,-250 188,-250 188,-235 136,-235"/>
<text text-anchor="start" x="139" y="-240.6" font-family="courier new" font-size="8.00">domainname</text>
</g>
<!-- [root] local.external_dns_vars (expand)&#45;&gt;[root] var.domainname -->
<g id="edge_6" class="edge">
<title>[root] local.external_dns_vars (expand)&#45;&gt;[root] var.domainname</title>
<path fill="none" stroke="black" d="M138.66,-303.7C142.19,-295.73 146.46,-286.1 150.37,-277.26"/>
<polygon fill="black" stroke="black" points="153.58,-278.67 154.43,-268.1 147.18,-275.83 153.58,-278.67"/>
</g>
<!-- [root] provider[&quot;registry.terraform.io/hashicorp/azurerm&quot;] (close) -->
<g id="node_15" class="node">
<title>[root] provider[&quot;registry.terraform.io/hashicorp/azurerm&quot;] (close)</title>
<polygon fill="none" stroke="black" points="26,-538 26,-553 136,-553 136,-538 26,-538"/>
<text text-anchor="start" x="60.5" y="-543.6" font-family="courier new" font-size="8.00">terraform</text>
<polygon fill="none" stroke="black" points="26,-523 26,-538 136,-538 136,-523 26,-523"/>
<text text-anchor="start" x="29" y="-528.6" font-family="courier new" font-size="8.00">io/hashicorp/azurerm\&quot;]</text>
</g>
<!-- [root] provider[&quot;registry.terraform.io/hashicorp/azurerm&quot;] (close)&#45;&gt;[root] data.azurerm_client_config.current (expand) -->
<g id="edge_9" class="edge">
<title>[root] provider[&quot;registry.terraform.io/hashicorp/azurerm&quot;] (close)&#45;&gt;[root] data.azurerm_client_config.current (expand)</title>
<path fill="none" stroke="black" d="M79.57,-519.97C75.57,-472.29 64.23,-337.18 59.32,-278.63"/>
<polygon fill="black" stroke="black" points="62.78,-277.98 58.45,-268.31 55.8,-278.56 62.78,-277.98"/>
</g>
<!-- [root] provider[&quot;registry.terraform.io/hashicorp/helm&quot;] (close) -->
<g id="node_16" class="node">
<title>[root] provider[&quot;registry.terraform.io/hashicorp/helm&quot;] (close)</title>
<polygon fill="none" stroke="black" points="167,-538 167,-553 264,-553 264,-538 167,-538"/>
<text text-anchor="start" x="195" y="-543.6" font-family="courier new" font-size="8.00">terraform</text>
<polygon fill="none" stroke="black" points="167,-523 167,-538 264,-538 264,-523 167,-523"/>
<text text-anchor="start" x="170" y="-528.6" font-family="courier new" font-size="8.00">io/hashicorp/helm\&quot;]</text>
</g>
<!-- [root] provider[&quot;registry.terraform.io/hashicorp/helm&quot;] (close)&#45;&gt;[root] helm_release.external_dns (expand) -->
<g id="edge_10" class="edge">
<title>[root] provider[&quot;registry.terraform.io/hashicorp/helm&quot;] (close)&#45;&gt;[root] helm_release.external_dns (expand)</title>
<path fill="none" stroke="black" d="M216.48,-519.7C217.14,-511.98 217.94,-502.71 218.68,-494.11"/>
<polygon fill="black" stroke="black" points="222.17,-494.37 219.53,-484.1 215.19,-493.77 222.17,-494.37"/>
</g>
<!-- [root] root -->
<g id="node_17" class="node">
<title>[root] root</title>
<polygon fill="none" stroke="black" points="175,-628 109,-628 109,-592 175,-592 175,-628"/>
<text text-anchor="middle" x="142" y="-608.1" font-family="courier new" font-size="8.00">[root] root</text>
</g>
<!-- [root] root&#45;&gt;[root] provider[&quot;registry.terraform.io/hashicorp/azurerm&quot;] (close) -->
<g id="edge_16" class="edge">
<title>[root] root&#45;&gt;[root] provider[&quot;registry.terraform.io/hashicorp/azurerm&quot;] (close)</title>
<path fill="none" stroke="black" d="M126.92,-591.7C119.61,-583.3 110.69,-573.07 102.66,-563.86"/>
<polygon fill="black" stroke="black" points="105.11,-561.34 95.91,-556.1 99.84,-565.94 105.11,-561.34"/>
</g>
<!-- [root] root&#45;&gt;[root] provider[&quot;registry.terraform.io/hashicorp/helm&quot;] (close) -->
<g id="edge_17" class="edge">
<title>[root] root&#45;&gt;[root] provider[&quot;registry.terraform.io/hashicorp/helm&quot;] (close)</title>
<path fill="none" stroke="black" d="M160.04,-591.7C169.06,-583.05 180.12,-572.45 189.94,-563.03"/>
<polygon fill="black" stroke="black" points="192.37,-565.55 197.16,-556.1 187.52,-560.5 192.37,-565.55"/>
</g>
<!-- [root] var.client_key -->
<g id="node_5" class="node">
<title>[root] var.client_key</title>
<polygon fill="none" stroke="black" points="301,-250 301,-265 353,-265 353,-250 301,-250"/>
<text text-anchor="start" x="320" y="-255.6" font-family="courier new" font-size="8.00">var</text>
<polygon fill="none" stroke="black" points="301,-235 301,-250 353,-250 353,-235 301,-235"/>
<text text-anchor="start" x="304" y="-240.6" font-family="courier new" font-size="8.00">client_key</text>
</g>
<!-- [root] var.client_certificate&#45;&gt;[root] var.client_key -->
<g id="edge_18" class="edge">
<title>[root] var.client_certificate&#45;&gt;[root] var.client_key</title>
<path fill="none" stroke="black" stroke-dasharray="5,2" d="M327,-303.7C327,-292.85 327,-278.92 327,-268.1"/>
</g>
<!-- [root] var.cluster_ca_certificate -->
<g id="node_6" class="node">
<title>[root] var.cluster_ca_certificate</title>
<polygon fill="none" stroke="black" points="274,-178 274,-193 380,-193 380,-178 274,-178"/>
<text text-anchor="start" x="320" y="-183.6" font-family="courier new" font-size="8.00">var</text>
<polygon fill="none" stroke="black" points="274,-163 274,-178 380,-178 380,-163 274,-163"/>
<text text-anchor="start" x="277" y="-168.6" font-family="courier new" font-size="8.00">cluster_ca_certificate</text>
</g>
<!-- [root] var.client_key&#45;&gt;[root] var.cluster_ca_certificate -->
<g id="edge_19" class="edge">
<title>[root] var.client_key&#45;&gt;[root] var.cluster_ca_certificate</title>
<path fill="none" stroke="black" stroke-dasharray="5,2" d="M327,-231.7C327,-220.85 327,-206.92 327,-196.1"/>
</g>
<!-- [root] var.cluster_token -->
<g id="node_7" class="node">
<title>[root] var.cluster_token</title>
<polygon fill="none" stroke="black" points="295,-106 295,-121 360,-121 360,-106 295,-106"/>
<text text-anchor="start" x="320.5" y="-111.6" font-family="courier new" font-size="8.00">var</text>
<polygon fill="none" stroke="black" points="295,-91 295,-106 360,-106 360,-91 295,-91"/>
<text text-anchor="start" x="298" y="-96.6" font-family="courier new" font-size="8.00">cluster_token</text>
</g>
<!-- [root] var.cluster_ca_certificate&#45;&gt;[root] var.cluster_token -->
<g id="edge_20" class="edge">
<title>[root] var.cluster_ca_certificate&#45;&gt;[root] var.cluster_token</title>
<path fill="none" stroke="black" stroke-dasharray="5,2" d="M327,-159.7C327,-148.85 327,-134.92 327,-124.1"/>
</g>
<!-- [root] var.kubernetes_host -->
<g id="node_11" class="node">
<title>[root] var.kubernetes_host</title>
<polygon fill="none" stroke="black" points="290,-34 290,-49 364,-49 364,-34 290,-34"/>
<text text-anchor="start" x="320" y="-39.6" font-family="courier new" font-size="8.00">var</text>
<polygon fill="none" stroke="black" points="290,-19 290,-34 364,-34 364,-19 290,-19"/>
<text text-anchor="start" x="293" y="-24.6" font-family="courier new" font-size="8.00">kubernetes_host</text>
</g>
<!-- [root] var.cluster_token&#45;&gt;[root] var.kubernetes_host -->
<g id="edge_21" class="edge">
<title>[root] var.cluster_token&#45;&gt;[root] var.kubernetes_host</title>
<path fill="none" stroke="black" stroke-dasharray="5,2" d="M327,-87.7C327,-76.85 327,-62.92 327,-52.1"/>
</g>
<!-- [root] var.gateway_client_id -->
<g id="node_10" class="node">
<title>[root] var.gateway_client_id</title>
<polygon fill="none" stroke="black" points="129,-178 129,-193 212,-193 212,-178 129,-178"/>
<text text-anchor="start" x="163.5" y="-183.6" font-family="courier new" font-size="8.00">var</text>
<polygon fill="none" stroke="black" points="129,-163 129,-178 212,-178 212,-163 129,-163"/>
<text text-anchor="start" x="132" y="-168.6" font-family="courier new" font-size="8.00">gateway_client_id</text>
</g>
<!-- [root] var.domainname&#45;&gt;[root] var.gateway_client_id -->
<g id="edge_22" class="edge">
<title>[root] var.domainname&#45;&gt;[root] var.gateway_client_id</title>
<path fill="none" stroke="black" stroke-dasharray="5,2" d="M163.98,-231.7C165.22,-220.85 166.81,-206.92 168.05,-196.1"/>
</g>
<!-- [root] var.resourcegroupname -->
<g id="node_12" class="node">
<title>[root] var.resourcegroupname</title>
<polygon fill="none" stroke="black" points="129,-106 129,-121 212,-121 212,-106 129,-106"/>
<text text-anchor="start" x="163.5" y="-111.6" font-family="courier new" font-size="8.00">var</text>
<polygon fill="none" stroke="black" points="129,-91 129,-106 212,-106 212,-91 129,-91"/>
<text text-anchor="start" x="132" y="-96.6" font-family="courier new" font-size="8.00">resourcegroupname</text>
</g>
<!-- [root] var.gateway_client_id&#45;&gt;[root] var.resourcegroupname -->
<g id="edge_23" class="edge">
<title>[root] var.gateway_client_id&#45;&gt;[root] var.resourcegroupname</title>
<path fill="none" stroke="black" stroke-dasharray="5,2" d="M170,-159.7C170,-148.85 170,-134.92 170,-124.1"/>
</g>
</g>
</svg>

