<?xml version="1.0" encoding="UTF-8" standalone="no"?>
<!DOCTYPE svg PUBLIC "-//W3C//DTD SVG 1.1//EN"
 "http://www.w3.org/Graphics/SVG/1.1/DTD/svg11.dtd">
<!-- Generated by graphviz version 2.43.0 (0)
 -->
<!-- Title: %3 Pages: 1 -->
<svg width="3022pt" height="332pt"
 viewBox="0.00 0.00 3021.50 332.00" xmlns="http://www.w3.org/2000/svg" xmlns:xlink="http://www.w3.org/1999/xlink">
<g id="graph0" class="graph" transform="scale(1 1) rotate(0) translate(4 328)">
<title>%3</title>
<polygon fill="white" stroke="transparent" points="-4,4 -4,-328 3017.5,-328 3017.5,4 -4,4"/>
<!-- [root] azurerm_policy_assignment.allowedImagesPolicyAssignment (orphan) -->
<g id="node1" class="node">
<title>[root] azurerm_policy_assignment.allowedImagesPolicyAssignment (orphan)</title>
<polygon fill="none" stroke="black" points="1817.5,-180 1365.5,-180 1365.5,-144 1817.5,-144 1817.5,-180"/>
<text text-anchor="middle" x="1591.5" y="-158.3" font-family="Times,serif" font-size="14.00">azurerm_policy_assignment.allowedImagesPolicyAssignment</text>
</g>
<!-- [root] provider[&quot;registry.terraform.io/hashicorp/azurerm&quot;] -->
<g id="node10" class="node">
<title>[root] provider[&quot;registry.terraform.io/hashicorp/azurerm&quot;]</title>
<polygon fill="none" stroke="black" points="801.5,-36 446.91,-18 801.5,0 1156.09,-18 801.5,-36"/>
<text text-anchor="middle" x="801.5" y="-14.3" font-family="Times,serif" font-size="14.00">provider[&quot;registry.terraform.io/hashicorp/azurerm&quot;]</text>
</g>
<!-- [root] azurerm_policy_assignment.allowedImagesPolicyAssignment (orphan)&#45;&gt;[root] provider[&quot;registry.terraform.io/hashicorp/azurerm&quot;] -->
<g id="edge1" class="edge">
<title>[root] azurerm_policy_assignment.allowedImagesPolicyAssignment (orphan)&#45;&gt;[root] provider[&quot;registry.terraform.io/hashicorp/azurerm&quot;]</title>
<path fill="none" stroke="black" d="M1365.41,-144.66C1362.08,-144.44 1358.78,-144.22 1355.5,-144 1289.41,-139.62 805.9,-156.23 760.5,-108 743.08,-89.49 759.96,-62.27 777.04,-42.81"/>
<polygon fill="black" stroke="black" points="779.8,-44.97 784.02,-35.25 774.66,-40.23 779.8,-44.97"/>
</g>
<!-- [root] azurerm_policy_assignment.allowedLocationPolicyAssignment (orphan) -->
<g id="node2" class="node">
<title>[root] azurerm_policy_assignment.allowedLocationPolicyAssignment (orphan)</title>
<polygon fill="none" stroke="black" points="461,-180 0,-180 0,-144 461,-144 461,-180"/>
<text text-anchor="middle" x="230.5" y="-158.3" font-family="Times,serif" font-size="14.00">azurerm_policy_assignment.allowedLocationPolicyAssignment</text>
</g>
<!-- [root] azurerm_policy_assignment.allowedLocationPolicyAssignment (orphan)&#45;&gt;[root] provider[&quot;registry.terraform.io/hashicorp/azurerm&quot;] -->
<g id="edge2" class="edge">
<title>[root] azurerm_policy_assignment.allowedLocationPolicyAssignment (orphan)&#45;&gt;[root] provider[&quot;registry.terraform.io/hashicorp/azurerm&quot;]</title>
<path fill="none" stroke="black" d="M299.09,-143.94C409.43,-116.5 625.03,-62.89 734.41,-35.69"/>
<polygon fill="black" stroke="black" points="735.47,-39.03 744.33,-33.22 733.78,-32.23 735.47,-39.03"/>
</g>
<!-- [root] azurerm_policy_assignment.allowedSkuPolicyAssignment (orphan) -->
<g id="node3" class="node">
<title>[root] azurerm_policy_assignment.allowedSkuPolicyAssignment (orphan)</title>
<polygon fill="none" stroke="black" points="906,-180 479,-180 479,-144 906,-144 906,-180"/>
<text text-anchor="middle" x="692.5" y="-158.3" font-family="Times,serif" font-size="14.00">azurerm_policy_assignment.allowedSkuPolicyAssignment</text>
</g>
<!-- [root] azurerm_policy_assignment.allowedSkuPolicyAssignment (orphan)&#45;&gt;[root] provider[&quot;registry.terraform.io/hashicorp/azurerm&quot;] -->
<g id="edge3" class="edge">
<title>[root] azurerm_policy_assignment.allowedSkuPolicyAssignment (orphan)&#45;&gt;[root] provider[&quot;registry.terraform.io/hashicorp/azurerm&quot;]</title>
<path fill="none" stroke="black" d="M686.56,-143.77C681.11,-124.67 675.77,-93.68 689.5,-72 699.5,-56.2 715.62,-45.03 732.55,-37.15"/>
<polygon fill="black" stroke="black" points="734.19,-40.26 742,-33.1 731.43,-33.82 734.19,-40.26"/>
</g>
<!-- [root] azurerm_policy_assignment.requireTagPolicyAssignment (orphan) -->
<g id="node4" class="node">
<title>[root] azurerm_policy_assignment.requireTagPolicyAssignment (orphan)</title>
<polygon fill="none" stroke="black" points="1347,-180 924,-180 924,-144 1347,-144 1347,-180"/>
<text text-anchor="middle" x="1135.5" y="-158.3" font-family="Times,serif" font-size="14.00">azurerm_policy_assignment.requireTagPolicyAssignment</text>
</g>
<!-- [root] azurerm_policy_assignment.requireTagPolicyAssignment (orphan)&#45;&gt;[root] provider[&quot;registry.terraform.io/hashicorp/azurerm&quot;] -->
<g id="edge4" class="edge">
<title>[root] azurerm_policy_assignment.requireTagPolicyAssignment (orphan)&#45;&gt;[root] provider[&quot;registry.terraform.io/hashicorp/azurerm&quot;]</title>
<path fill="none" stroke="black" d="M964.9,-143.97C856.78,-132.33 735.74,-117.38 727.5,-108 716.94,-95.98 720.19,-86.23 727.5,-72 734.37,-58.64 746.34,-47.89 758.67,-39.66"/>
<polygon fill="black" stroke="black" points="760.56,-42.61 767.22,-34.36 756.87,-36.66 760.56,-42.61"/>
</g>
<!-- [root] azurerm_policy_definition.allowedimagespolicy (expand) -->
<g id="node5" class="node">
<title>[root] azurerm_policy_definition.allowedimagespolicy (expand)</title>
<polygon fill="none" stroke="black" points="1121.5,-108 769.5,-108 769.5,-72 1121.5,-72 1121.5,-108"/>
<text text-anchor="middle" x="945.5" y="-86.3" font-family="Times,serif" font-size="14.00">azurerm_policy_definition.allowedimagespolicy</text>
</g>
<!-- [root] azurerm_policy_definition.allowedimagespolicy (expand)&#45;&gt;[root] provider[&quot;registry.terraform.io/hashicorp/azurerm&quot;] -->
<g id="edge5" class="edge">
<title>[root] azurerm_policy_definition.allowedimagespolicy (expand)&#45;&gt;[root] provider[&quot;registry.terraform.io/hashicorp/azurerm&quot;]</title>
<path fill="none" stroke="black" d="M910.27,-71.88C889.82,-61.93 863.95,-49.36 842.58,-38.97"/>
<polygon fill="black" stroke="black" points="843.94,-35.74 833.41,-34.51 840.88,-42.03 843.94,-35.74"/>
</g>
<!-- [root] var.resource -->
<g id="node17" class="node">
<title>[root] var.resource</title>
<polygon fill="none" stroke="black" points="1756,-36 1657,-36 1657,0 1762,0 1762,-30 1756,-36"/>
<polyline fill="none" stroke="black" points="1756,-36 1756,-30 "/>
<polyline fill="none" stroke="black" points="1762,-30 1756,-30 "/>
<text text-anchor="middle" x="1709.5" y="-14.3" font-family="Times,serif" font-size="14.00">var.resource</text>
</g>
<!-- [root] azurerm_policy_definition.allowedimagespolicy (expand)&#45;&gt;[root] var.resource -->
<g id="edge6" class="edge">
<title>[root] azurerm_policy_definition.allowedimagespolicy (expand)&#45;&gt;[root] var.resource</title>
<path fill="none" stroke="black" d="M1121.75,-72.72C1124.69,-72.48 1127.61,-72.24 1130.5,-72 1354.33,-53.72 1412.35,-68.92 1634.5,-36 1638.59,-35.39 1642.78,-34.69 1647,-33.91"/>
<polygon fill="black" stroke="black" points="1647.69,-37.34 1656.83,-31.99 1646.35,-30.47 1647.69,-37.34"/>
</g>
<!-- [root] azurerm_subscription_policy_assignment.allowedImagesPolicyAssignment (expand) -->
<g id="node6" class="node">
<title>[root] azurerm_subscription_policy_assignment.allowedImagesPolicyAssignment (expand)</title>
<polygon fill="none" stroke="black" points="2537,-180 1990,-180 1990,-144 2537,-144 2537,-180"/>
<text text-anchor="middle" x="2263.5" y="-158.3" font-family="Times,serif" font-size="14.00">azurerm_subscription_policy_assignment.allowedImagesPolicyAssignment</text>
</g>
<!-- [root] azurerm_subscription_policy_assignment.allowedImagesPolicyAssignment (expand)&#45;&gt;[root] azurerm_policy_definition.allowedimagespolicy (expand) -->
<g id="edge7" class="edge">
<title>[root] azurerm_subscription_policy_assignment.allowedImagesPolicyAssignment (expand)&#45;&gt;[root] azurerm_policy_definition.allowedimagespolicy (expand)</title>
<path fill="none" stroke="black" d="M1989.85,-149.61C1714.51,-137.91 1307.43,-119.86 1131.95,-108.07"/>
<polygon fill="black" stroke="black" points="1131.96,-104.57 1121.74,-107.38 1131.48,-111.55 1131.96,-104.57"/>
</g>
<!-- [root] var.allowedImages -->
<g id="node11" class="node">
<title>[root] var.allowedImages</title>
<polygon fill="none" stroke="black" points="2434,-108 2291,-108 2291,-72 2440,-72 2440,-102 2434,-108"/>
<polyline fill="none" stroke="black" points="2434,-108 2434,-102 "/>
<polyline fill="none" stroke="black" points="2440,-102 2434,-102 "/>
<text text-anchor="middle" x="2365.5" y="-86.3" font-family="Times,serif" font-size="14.00">var.allowedImages</text>
</g>
<!-- [root] azurerm_subscription_policy_assignment.allowedImagesPolicyAssignment (expand)&#45;&gt;[root] var.allowedImages -->
<g id="edge8" class="edge">
<title>[root] azurerm_subscription_policy_assignment.allowedImagesPolicyAssignment (expand)&#45;&gt;[root] var.allowedImages</title>
<path fill="none" stroke="black" d="M2288.45,-143.88C2301.54,-134.89 2317.76,-123.76 2331.94,-114.03"/>
<polygon fill="black" stroke="black" points="2334.19,-116.73 2340.45,-108.19 2330.23,-110.96 2334.19,-116.73"/>
</g>
<!-- [root] var.networkwatcher_rg_Id -->
<g id="node16" class="node">
<title>[root] var.networkwatcher_rg_Id</title>
<polygon fill="none" stroke="black" points="2563,-36 2366,-36 2366,0 2569,0 2569,-30 2563,-36"/>
<polyline fill="none" stroke="black" points="2563,-36 2563,-30 "/>
<polyline fill="none" stroke="black" points="2569,-30 2563,-30 "/>
<text text-anchor="middle" x="2467.5" y="-14.3" font-family="Times,serif" font-size="14.00">var.networkwatcher_rg_Id</text>
</g>
<!-- [root] azurerm_subscription_policy_assignment.allowedImagesPolicyAssignment (expand)&#45;&gt;[root] var.networkwatcher_rg_Id -->
<g id="edge9" class="edge">
<title>[root] azurerm_subscription_policy_assignment.allowedImagesPolicyAssignment (expand)&#45;&gt;[root] var.networkwatcher_rg_Id</title>
<path fill="none" stroke="black" d="M2391.67,-143.92C2412.97,-135.96 2433.11,-124.48 2448.5,-108 2463.87,-91.53 2468.02,-65.8 2468.67,-46.23"/>
<polygon fill="black" stroke="black" points="2472.17,-46.11 2468.72,-36.09 2465.17,-46.07 2472.17,-46.11"/>
</g>
<!-- [root] var.subscriptionId -->
<g id="node18" class="node">
<title>[root] var.subscriptionId</title>
<polygon fill="none" stroke="black" points="2303.5,-36 2163.5,-36 2163.5,0 2309.5,0 2309.5,-30 2303.5,-36"/>
<polyline fill="none" stroke="black" points="2303.5,-36 2303.5,-30 "/>
<polyline fill="none" stroke="black" points="2309.5,-30 2303.5,-30 "/>
<text text-anchor="middle" x="2236.5" y="-14.3" font-family="Times,serif" font-size="14.00">var.subscriptionId</text>
</g>
<!-- [root] azurerm_subscription_policy_assignment.allowedImagesPolicyAssignment (expand)&#45;&gt;[root] var.subscriptionId -->
<g id="edge10" class="edge">
<title>[root] azurerm_subscription_policy_assignment.allowedImagesPolicyAssignment (expand)&#45;&gt;[root] var.subscriptionId</title>
<path fill="none" stroke="black" d="M2260.24,-143.87C2255.64,-119.67 2247.19,-75.21 2241.71,-46.39"/>
<polygon fill="black" stroke="black" points="2245.07,-45.36 2239.77,-36.19 2238.2,-46.67 2245.07,-45.36"/>
</g>
<!-- [root] azurerm_subscription_policy_assignment.allowedLocationPolicyAssignment (expand) -->
<g id="node7" class="node">
<title>[root] azurerm_subscription_policy_assignment.allowedLocationPolicyAssignment (expand)</title>
<polygon fill="none" stroke="black" points="1695.5,-108 1139.5,-108 1139.5,-72 1695.5,-72 1695.5,-108"/>
<text text-anchor="middle" x="1417.5" y="-86.3" font-family="Times,serif" font-size="14.00">azurerm_subscription_policy_assignment.allowedLocationPolicyAssignment</text>
</g>
<!-- [root] azurerm_subscription_policy_assignment.allowedLocationPolicyAssignment (expand)&#45;&gt;[root] provider[&quot;registry.terraform.io/hashicorp/azurerm&quot;] -->
<g id="edge11" class="edge">
<title>[root] azurerm_subscription_policy_assignment.allowedLocationPolicyAssignment (expand)&#45;&gt;[root] provider[&quot;registry.terraform.io/hashicorp/azurerm&quot;]</title>
<path fill="none" stroke="black" d="M1267.6,-71.97C1158.97,-59.62 1014.34,-43.19 915.17,-31.92"/>
<polygon fill="black" stroke="black" points="915.45,-28.43 905.11,-30.77 914.65,-35.38 915.45,-28.43"/>
</g>
<!-- [root] var.allowedLocationSubPolicyId -->
<g id="node12" class="node">
<title>[root] var.allowedLocationSubPolicyId</title>
<polygon fill="none" stroke="black" points="1435.5,-36 1199.5,-36 1199.5,0 1441.5,0 1441.5,-30 1435.5,-36"/>
<polyline fill="none" stroke="black" points="1435.5,-36 1435.5,-30 "/>
<polyline fill="none" stroke="black" points="1441.5,-30 1435.5,-30 "/>
<text text-anchor="middle" x="1320.5" y="-14.3" font-family="Times,serif" font-size="14.00">var.allowedLocationSubPolicyId</text>
</g>
<!-- [root] azurerm_subscription_policy_assignment.allowedLocationPolicyAssignment (expand)&#45;&gt;[root] var.allowedLocationSubPolicyId -->
<g id="edge12" class="edge">
<title>[root] azurerm_subscription_policy_assignment.allowedLocationPolicyAssignment (expand)&#45;&gt;[root] var.allowedLocationSubPolicyId</title>
<path fill="none" stroke="black" d="M1393.52,-71.7C1381.19,-62.8 1365.98,-51.82 1352.65,-42.2"/>
<polygon fill="black" stroke="black" points="1354.36,-39.12 1344.2,-36.1 1350.26,-44.79 1354.36,-39.12"/>
</g>
<!-- [root] var.allowedLocations -->
<g id="node13" class="node">
<title>[root] var.allowedLocations</title>
<polygon fill="none" stroke="black" points="1619.5,-36 1459.5,-36 1459.5,0 1625.5,0 1625.5,-30 1619.5,-36"/>
<polyline fill="none" stroke="black" points="1619.5,-36 1619.5,-30 "/>
<polyline fill="none" stroke="black" points="1625.5,-30 1619.5,-30 "/>
<text text-anchor="middle" x="1542.5" y="-14.3" font-family="Times,serif" font-size="14.00">var.allowedLocations</text>
</g>
<!-- [root] azurerm_subscription_policy_assignment.allowedLocationPolicyAssignment (expand)&#45;&gt;[root] var.allowedLocations -->
<g id="edge13" class="edge">
<title>[root] azurerm_subscription_policy_assignment.allowedLocationPolicyAssignment (expand)&#45;&gt;[root] var.allowedLocations</title>
<path fill="none" stroke="black" d="M1448.08,-71.88C1464.57,-62.64 1485.12,-51.13 1502.84,-41.21"/>
<polygon fill="black" stroke="black" points="1504.79,-44.13 1511.8,-36.19 1501.37,-38.02 1504.79,-44.13"/>
</g>
<!-- [root] azurerm_subscription_policy_assignment.allowedLocationPolicyAssignment (expand)&#45;&gt;[root] var.resource -->
<g id="edge14" class="edge">
<title>[root] azurerm_subscription_policy_assignment.allowedLocationPolicyAssignment (expand)&#45;&gt;[root] var.resource</title>
<path fill="none" stroke="black" d="M1488.56,-71.97C1537,-60.35 1600.54,-45.12 1647.04,-33.97"/>
<polygon fill="black" stroke="black" points="1648.08,-37.32 1656.99,-31.59 1646.45,-30.52 1648.08,-37.32"/>
</g>
<!-- [root] azurerm_subscription_policy_assignment.allowedLocationPolicyAssignment (expand)&#45;&gt;[root] var.subscriptionId -->
<g id="edge15" class="edge">
<title>[root] azurerm_subscription_policy_assignment.allowedLocationPolicyAssignment (expand)&#45;&gt;[root] var.subscriptionId</title>
<path fill="none" stroke="black" d="M1673.46,-71.99C1839.93,-60.52 2041.35,-45.75 2126.5,-36 2135.15,-35.01 2144.16,-33.84 2153.14,-32.59"/>
<polygon fill="black" stroke="black" points="2153.83,-36.03 2163.24,-31.14 2152.84,-29.1 2153.83,-36.03"/>
</g>
<!-- [root] azurerm_subscription_policy_assignment.allowedSkuPolicyAssignment (expand) -->
<g id="node8" class="node">
<title>[root] azurerm_subscription_policy_assignment.allowedSkuPolicyAssignment (expand)</title>
<polygon fill="none" stroke="black" points="2235.5,-108 1713.5,-108 1713.5,-72 2235.5,-72 2235.5,-108"/>
<text text-anchor="middle" x="1974.5" y="-86.3" font-family="Times,serif" font-size="14.00">azurerm_subscription_policy_assignment.allowedSkuPolicyAssignment</text>
</g>
<!-- [root] azurerm_subscription_policy_assignment.allowedSkuPolicyAssignment (expand)&#45;&gt;[root] provider[&quot;registry.terraform.io/hashicorp/azurerm&quot;] -->
<g id="edge16" class="edge">
<title>[root] azurerm_subscription_policy_assignment.allowedSkuPolicyAssignment (expand)&#45;&gt;[root] provider[&quot;registry.terraform.io/hashicorp/azurerm&quot;]</title>
<path fill="none" stroke="black" d="M1713.34,-72.54C1710.38,-72.36 1707.43,-72.18 1704.5,-72 1447.97,-56.4 1150.39,-39.08 969.08,-28.62"/>
<polygon fill="black" stroke="black" points="969.11,-25.12 958.93,-28.04 968.71,-32.11 969.11,-25.12"/>
</g>
<!-- [root] var.allowedSkuPolicyId -->
<g id="node14" class="node">
<title>[root] var.allowedSkuPolicyId</title>
<polygon fill="none" stroke="black" points="2112,-36 1937,-36 1937,0 2118,0 2118,-30 2112,-36"/>
<polyline fill="none" stroke="black" points="2112,-36 2112,-30 "/>
<polyline fill="none" stroke="black" points="2118,-30 2112,-30 "/>
<text text-anchor="middle" x="2027.5" y="-14.3" font-family="Times,serif" font-size="14.00">var.allowedSkuPolicyId</text>
</g>
<!-- [root] azurerm_subscription_policy_assignment.allowedSkuPolicyAssignment (expand)&#45;&gt;[root] var.allowedSkuPolicyId -->
<g id="edge17" class="edge">
<title>[root] azurerm_subscription_policy_assignment.allowedSkuPolicyAssignment (expand)&#45;&gt;[root] var.allowedSkuPolicyId</title>
<path fill="none" stroke="black" d="M1987.6,-71.7C1993.89,-63.39 2001.55,-53.28 2008.46,-44.14"/>
<polygon fill="black" stroke="black" points="2011.3,-46.19 2014.55,-36.1 2005.72,-41.96 2011.3,-46.19"/>
</g>
<!-- [root] var.allowedSkus -->
<g id="node15" class="node">
<title>[root] var.allowedSkus</title>
<polygon fill="none" stroke="black" points="1912.5,-36 1786.5,-36 1786.5,0 1918.5,0 1918.5,-30 1912.5,-36"/>
<polyline fill="none" stroke="black" points="1912.5,-36 1912.5,-30 "/>
<polyline fill="none" stroke="black" points="1918.5,-30 1912.5,-30 "/>
<text text-anchor="middle" x="1852.5" y="-14.3" font-family="Times,serif" font-size="14.00">var.allowedSkus</text>
</g>
<!-- [root] azurerm_subscription_policy_assignment.allowedSkuPolicyAssignment (expand)&#45;&gt;[root] var.allowedSkus -->
<g id="edge18" class="edge">
<title>[root] azurerm_subscription_policy_assignment.allowedSkuPolicyAssignment (expand)&#45;&gt;[root] var.allowedSkus</title>
<path fill="none" stroke="black" d="M1944.66,-71.88C1928.56,-62.64 1908.5,-51.13 1891.21,-41.21"/>
<polygon fill="black" stroke="black" points="1892.87,-38.13 1882.46,-36.19 1889.39,-44.2 1892.87,-38.13"/>
</g>
<!-- [root] azurerm_subscription_policy_assignment.allowedSkuPolicyAssignment (expand)&#45;&gt;[root] var.networkwatcher_rg_Id -->
<g id="edge19" class="edge">
<title>[root] azurerm_subscription_policy_assignment.allowedSkuPolicyAssignment (expand)&#45;&gt;[root] var.networkwatcher_rg_Id</title>
<path fill="none" stroke="black" d="M2094.47,-71.97C2173.98,-60.68 2277.59,-45.96 2355.44,-34.91"/>
<polygon fill="black" stroke="black" points="2356.35,-38.32 2365.76,-33.45 2355.37,-31.39 2356.35,-38.32"/>
</g>
<!-- [root] azurerm_subscription_policy_assignment.allowedSkuPolicyAssignment (expand)&#45;&gt;[root] var.resource -->
<g id="edge20" class="edge">
<title>[root] azurerm_subscription_policy_assignment.allowedSkuPolicyAssignment (expand)&#45;&gt;[root] var.resource</title>
<path fill="none" stroke="black" d="M1910.01,-71.97C1868.03,-60.88 1813.55,-46.48 1771.97,-35.5"/>
<polygon fill="black" stroke="black" points="1772.8,-32.1 1762.24,-32.93 1771.01,-38.87 1772.8,-32.1"/>
</g>
<!-- [root] azurerm_subscription_policy_assignment.allowedSkuPolicyAssignment (expand)&#45;&gt;[root] var.subscriptionId -->
<g id="edge21" class="edge">
<title>[root] azurerm_subscription_policy_assignment.allowedSkuPolicyAssignment (expand)&#45;&gt;[root] var.subscriptionId</title>
<path fill="none" stroke="black" d="M2038.26,-71.97C2075.82,-61.93 2123.5,-49.19 2162.69,-38.72"/>
<polygon fill="black" stroke="black" points="2163.7,-42.07 2172.46,-36.11 2161.89,-35.31 2163.7,-42.07"/>
</g>
<!-- [root] azurerm_subscription_policy_assignment.requireTagPolicyAssignment (expand) -->
<g id="node9" class="node">
<title>[root] azurerm_subscription_policy_assignment.requireTagPolicyAssignment (expand)</title>
<polygon fill="none" stroke="black" points="3013.5,-108 2495.5,-108 2495.5,-72 3013.5,-72 3013.5,-108"/>
<text text-anchor="middle" x="2754.5" y="-86.3" font-family="Times,serif" font-size="14.00">azurerm_subscription_policy_assignment.requireTagPolicyAssignment</text>
</g>
<!-- [root] azurerm_subscription_policy_assignment.requireTagPolicyAssignment (expand)&#45;&gt;[root] provider[&quot;registry.terraform.io/hashicorp/azurerm&quot;] -->
<g id="edge22" class="edge">
<title>[root] azurerm_subscription_policy_assignment.requireTagPolicyAssignment (expand)&#45;&gt;[root] provider[&quot;registry.terraform.io/hashicorp/azurerm&quot;]</title>
<path fill="none" stroke="black" d="M2495.34,-74.12C2479.49,-73.36 2463.78,-72.64 2448.5,-72 1889.65,-48.48 1749.47,-56.21 1190.5,-36 1123.81,-33.59 1050.71,-30.51 986.06,-27.64"/>
<polygon fill="black" stroke="black" points="985.9,-24.12 975.76,-27.18 985.59,-31.12 985.9,-24.12"/>
</g>
<!-- [root] azurerm_subscription_policy_assignment.requireTagPolicyAssignment (expand)&#45;&gt;[root] var.networkwatcher_rg_Id -->
<g id="edge23" class="edge">
<title>[root] azurerm_subscription_policy_assignment.requireTagPolicyAssignment (expand)&#45;&gt;[root] var.networkwatcher_rg_Id</title>
<path fill="none" stroke="black" d="M2684.66,-71.97C2643.25,-61.87 2590.62,-49.03 2547.54,-38.52"/>
<polygon fill="black" stroke="black" points="2548.2,-35.08 2537.65,-36.11 2546.54,-41.88 2548.2,-35.08"/>
</g>
<!-- [root] azurerm_subscription_policy_assignment.requireTagPolicyAssignment (expand)&#45;&gt;[root] var.resource -->
<g id="edge24" class="edge">
<title>[root] azurerm_subscription_policy_assignment.requireTagPolicyAssignment (expand)&#45;&gt;[root] var.resource</title>
<path fill="none" stroke="black" d="M2495.32,-74.57C2479.48,-73.7 2463.77,-72.83 2448.5,-72 2150.29,-55.72 2072.83,-80.42 1777.5,-36 1775.76,-35.74 1774,-35.45 1772.23,-35.15"/>
<polygon fill="black" stroke="black" points="1772.49,-31.63 1762.01,-33.18 1771.18,-38.51 1772.49,-31.63"/>
</g>
<!-- [root] azurerm_subscription_policy_assignment.requireTagPolicyAssignment (expand)&#45;&gt;[root] var.subscriptionId -->
<g id="edge25" class="edge">
<title>[root] azurerm_subscription_policy_assignment.requireTagPolicyAssignment (expand)&#45;&gt;[root] var.subscriptionId</title>
<path fill="none" stroke="black" d="M2624.51,-71.97C2546.73,-61.71 2445.93,-48.29 2356.5,-36 2344.69,-34.38 2332.24,-32.64 2320,-30.92"/>
<polygon fill="black" stroke="black" points="2320.17,-27.41 2309.78,-29.48 2319.2,-34.34 2320.17,-27.41"/>
</g>
<!-- [root] var.tagName -->
<g id="node19" class="node">
<title>[root] var.tagName</title>
<polygon fill="none" stroke="black" points="2745.5,-36 2643.5,-36 2643.5,0 2751.5,0 2751.5,-30 2745.5,-36"/>
<polyline fill="none" stroke="black" points="2745.5,-36 2745.5,-30 "/>
<polyline fill="none" stroke="black" points="2751.5,-30 2745.5,-30 "/>
<text text-anchor="middle" x="2697.5" y="-14.3" font-family="Times,serif" font-size="14.00">var.tagName</text>
</g>
<!-- [root] azurerm_subscription_policy_assignment.requireTagPolicyAssignment (expand)&#45;&gt;[root] var.tagName -->
<g id="edge26" class="edge">
<title>[root] azurerm_subscription_policy_assignment.requireTagPolicyAssignment (expand)&#45;&gt;[root] var.tagName</title>
<path fill="none" stroke="black" d="M2740.41,-71.7C2733.58,-63.3 2725.24,-53.07 2717.74,-43.86"/>
<polygon fill="black" stroke="black" points="2720.46,-41.65 2711.43,-36.1 2715.03,-46.07 2720.46,-41.65"/>
</g>
<!-- [root] var.tagPolicyId -->
<g id="node20" class="node">
<title>[root] var.tagPolicyId</title>
<polygon fill="none" stroke="black" points="2885.5,-36 2769.5,-36 2769.5,0 2891.5,0 2891.5,-30 2885.5,-36"/>
<polyline fill="none" stroke="black" points="2885.5,-36 2885.5,-30 "/>
<polyline fill="none" stroke="black" points="2891.5,-30 2885.5,-30 "/>
<text text-anchor="middle" x="2830.5" y="-14.3" font-family="Times,serif" font-size="14.00">var.tagPolicyId</text>
</g>
<!-- [root] azurerm_subscription_policy_assignment.requireTagPolicyAssignment (expand)&#45;&gt;[root] var.tagPolicyId -->
<g id="edge27" class="edge">
<title>[root] azurerm_subscription_policy_assignment.requireTagPolicyAssignment (expand)&#45;&gt;[root] var.tagPolicyId</title>
<path fill="none" stroke="black" d="M2773.29,-71.7C2782.67,-63.05 2794.18,-52.45 2804.41,-43.03"/>
<polygon fill="black" stroke="black" points="2806.95,-45.45 2811.93,-36.1 2802.2,-40.3 2806.95,-45.45"/>
</g>
<!-- [root] provider[&quot;registry.terraform.io/hashicorp/azurerm&quot;] (close) -->
<g id="node21" class="node">
<title>[root] provider[&quot;registry.terraform.io/hashicorp/azurerm&quot;] (close)</title>
<ellipse fill="none" stroke="black" cx="1718.5" cy="-234" rx="313.04" ry="18"/>
<text text-anchor="middle" x="1718.5" y="-230.3" font-family="Times,serif" font-size="14.00">[root] provider[&quot;registry.terraform.io/hashicorp/azurerm&quot;] (close)</text>
</g>
<!-- [root] provider[&quot;registry.terraform.io/hashicorp/azurerm&quot;] (close)&#45;&gt;[root] azurerm_policy_assignment.allowedImagesPolicyAssignment (orphan) -->
<g id="edge28" class="edge">
<title>[root] provider[&quot;registry.terraform.io/hashicorp/azurerm&quot;] (close)&#45;&gt;[root] azurerm_policy_assignment.allowedImagesPolicyAssignment (orphan)</title>
<path fill="none" stroke="black" d="M1687.76,-216.05C1670.88,-206.75 1649.75,-195.11 1631.59,-185.1"/>
<polygon fill="black" stroke="black" points="1632.85,-181.79 1622.4,-180.03 1629.47,-187.92 1632.85,-181.79"/>
</g>
<!-- [root] provider[&quot;registry.terraform.io/hashicorp/azurerm&quot;] (close)&#45;&gt;[root] azurerm_policy_assignment.allowedLocationPolicyAssignment (orphan) -->
<g id="edge29" class="edge">
<title>[root] provider[&quot;registry.terraform.io/hashicorp/azurerm&quot;] (close)&#45;&gt;[root] azurerm_policy_assignment.allowedLocationPolicyAssignment (orphan)</title>
<path fill="none" stroke="black" d="M1457.04,-224.08C1206.67,-215.03 818,-199.66 471.03,-180.08"/>
<polygon fill="black" stroke="black" points="471.22,-176.58 461.04,-179.51 470.82,-183.57 471.22,-176.58"/>
</g>
<!-- [root] provider[&quot;registry.terraform.io/hashicorp/azurerm&quot;] (close)&#45;&gt;[root] azurerm_policy_assignment.allowedSkuPolicyAssignment (orphan) -->
<g id="edge30" class="edge">
<title>[root] provider[&quot;registry.terraform.io/hashicorp/azurerm&quot;] (close)&#45;&gt;[root] azurerm_policy_assignment.allowedSkuPolicyAssignment (orphan)</title>
<path fill="none" stroke="black" d="M1516.07,-220.25C1356.01,-210.03 1126.57,-195.06 916.07,-180.11"/>
<polygon fill="black" stroke="black" points="916.28,-176.61 906.06,-179.4 915.78,-183.6 916.28,-176.61"/>
</g>
<!-- [root] provider[&quot;registry.terraform.io/hashicorp/azurerm&quot;] (close)&#45;&gt;[root] azurerm_policy_assignment.requireTagPolicyAssignment (orphan) -->
<g id="edge31" class="edge">
<title>[root] provider[&quot;registry.terraform.io/hashicorp/azurerm&quot;] (close)&#45;&gt;[root] azurerm_policy_assignment.requireTagPolicyAssignment (orphan)</title>
<path fill="none" stroke="black" d="M1589.84,-217.55C1500.54,-206.83 1381.23,-192.5 1287.28,-181.22"/>
<polygon fill="black" stroke="black" points="1287.46,-177.72 1277.11,-180 1286.62,-184.67 1287.46,-177.72"/>
</g>
<!-- [root] provider[&quot;registry.terraform.io/hashicorp/azurerm&quot;] (close)&#45;&gt;[root] azurerm_subscription_policy_assignment.allowedImagesPolicyAssignment (expand) -->
<g id="edge32" class="edge">
<title>[root] provider[&quot;registry.terraform.io/hashicorp/azurerm&quot;] (close)&#45;&gt;[root] azurerm_subscription_policy_assignment.allowedImagesPolicyAssignment (expand)</title>
<path fill="none" stroke="black" d="M1840.13,-217.38C1923.2,-206.71 2033.59,-192.53 2120.82,-181.33"/>
<polygon fill="black" stroke="black" points="2121.32,-184.79 2130.79,-180.04 2120.43,-177.85 2121.32,-184.79"/>
</g>
<!-- [root] provider[&quot;registry.terraform.io/hashicorp/azurerm&quot;] (close)&#45;&gt;[root] azurerm_subscription_policy_assignment.allowedLocationPolicyAssignment (expand) -->
<g id="edge33" class="edge">
<title>[root] provider[&quot;registry.terraform.io/hashicorp/azurerm&quot;] (close)&#45;&gt;[root] azurerm_subscription_policy_assignment.allowedLocationPolicyAssignment (expand)</title>
<path fill="none" stroke="black" d="M1780.75,-216.33C1798.61,-208.36 1816.06,-196.75 1826.5,-180 1834.96,-166.42 1837.06,-156.02 1826.5,-144 1813.71,-129.45 1738.64,-117.73 1656.23,-109.05"/>
<polygon fill="black" stroke="black" points="1656.45,-105.55 1646.15,-108 1655.73,-112.51 1656.45,-105.55"/>
</g>
<!-- [root] provider[&quot;registry.terraform.io/hashicorp/azurerm&quot;] (close)&#45;&gt;[root] azurerm_subscription_policy_assignment.allowedSkuPolicyAssignment (expand) -->
<g id="edge34" class="edge">
<title>[root] provider[&quot;registry.terraform.io/hashicorp/azurerm&quot;] (close)&#45;&gt;[root] azurerm_subscription_policy_assignment.allowedSkuPolicyAssignment (expand)</title>
<path fill="none" stroke="black" d="M1774.44,-216.28C1801.04,-207.26 1832.78,-194.91 1859.5,-180 1892.29,-161.7 1925.8,-134.62 1948.12,-115.14"/>
<polygon fill="black" stroke="black" points="1950.64,-117.59 1955.81,-108.34 1946,-112.34 1950.64,-117.59"/>
</g>
<!-- [root] provider[&quot;registry.terraform.io/hashicorp/azurerm&quot;] (close)&#45;&gt;[root] azurerm_subscription_policy_assignment.requireTagPolicyAssignment (expand) -->
<g id="edge35" class="edge">
<title>[root] provider[&quot;registry.terraform.io/hashicorp/azurerm&quot;] (close)&#45;&gt;[root] azurerm_subscription_policy_assignment.requireTagPolicyAssignment (expand)</title>
<path fill="none" stroke="black" d="M1993.73,-225.39C2193.21,-217.99 2445,-204.21 2546.5,-180 2607.82,-165.38 2674.01,-134.11 2714.86,-112.81"/>
<polygon fill="black" stroke="black" points="2716.71,-115.79 2723.93,-108.03 2713.45,-109.6 2716.71,-115.79"/>
</g>
<!-- [root] root -->
<g id="node22" class="node">
<title>[root] root</title>
<ellipse fill="none" stroke="black" cx="1718.5" cy="-306" rx="58.49" ry="18"/>
<text text-anchor="middle" x="1718.5" y="-302.3" font-family="Times,serif" font-size="14.00">[root] root</text>
</g>
<!-- [root] root&#45;&gt;[root] provider[&quot;registry.terraform.io/hashicorp/azurerm&quot;] (close) -->
<g id="edge36" class="edge">
<title>[root] root&#45;&gt;[root] provider[&quot;registry.terraform.io/hashicorp/azurerm&quot;] (close)</title>
<path fill="none" stroke="black" d="M1718.5,-287.7C1718.5,-279.98 1718.5,-270.71 1718.5,-262.11"/>
<polygon fill="black" stroke="black" points="1722,-262.1 1718.5,-252.1 1715,-262.1 1722,-262.1"/>
</g>
</g>
</svg>
