<?xml version="1.0" encoding="UTF-8" standalone="no"?>
<!DOCTYPE svg PUBLIC "-//W3C//DTD SVG 1.1//EN"
 "http://www.w3.org/Graphics/SVG/1.1/DTD/svg11.dtd">
<!-- Generated by graphviz version 2.43.0 (0)
 -->
<!-- Title: %3 Pages: 1 -->
<svg width="1371pt" height="332pt"
 viewBox="0.00 0.00 1371.38 332.00" xmlns="http://www.w3.org/2000/svg" xmlns:xlink="http://www.w3.org/1999/xlink">
<g id="graph0" class="graph" transform="scale(1 1) rotate(0) translate(4 328)">
<title>%3</title>
<polygon fill="white" stroke="transparent" points="-4,4 -4,-328 1367.38,-328 1367.38,4 -4,4"/>
<g id="clust2" class="cluster">
<title>cluster[root] azurerm_subscription_policy_assignment.allowedImagesPolicyAssignment (expand)_var_</title>
</g>
<g id="clust3" class="cluster">
<title>cluster[root] azurerm_subscription_policy_assignment.allowedLocationPolicyAssignment (expand)_var_</title>
</g>
<g id="clust4" class="cluster">
<title>cluster[root] azurerm_subscription_policy_assignment.allowedSkuPolicyAssignment (expand)_var_</title>
</g>
<g id="clust5" class="cluster">
<title>cluster[root] azurerm_subscription_policy_assignment.requireTagPolicyAssignment (expand)_var_</title>
</g>
<!-- [root] azurerm_policy_definition.allowedimagespolicy (expand) -->
<g id="node_0" class="node">
<title>[root] azurerm_policy_definition.allowedimagespolicy (expand)</title>
<polygon fill="none" stroke="black" points="371.38,-90 371.38,-105 490.38,-105 490.38,-90 371.38,-90"/>
<text text-anchor="start" x="374.38" y="-95.6" font-family="courier new" font-size="8.00">azurerm_policy_definition</text>
<polygon fill="none" stroke="black" points="371.38,-75 371.38,-90 490.38,-90 490.38,-75 371.38,-75"/>
<text text-anchor="start" x="387.88" y="-80.6" font-family="courier new" font-size="8.00">allowedimagespolicy</text>
</g>
<!-- [root] provider[&quot;registry.terraform.io/hashicorp/azurerm&quot;] -->
<g id="node_11" class="node">
<title>[root] provider[&quot;registry.terraform.io/hashicorp/azurerm&quot;]</title>
<polygon fill="none" stroke="black" points="663.38,-18 663.38,-33 773.38,-33 773.38,-18 663.38,-18"/>
<text text-anchor="start" x="697.88" y="-23.6" font-family="courier new" font-size="8.00">terraform</text>
<polygon fill="none" stroke="black" points="663.38,-3 663.38,-18 773.38,-18 773.38,-3 663.38,-3"/>
<text text-anchor="start" x="666.38" y="-8.6" font-family="courier new" font-size="8.00">io/hashicorp/azurerm\&quot;]</text>
</g>
<!-- [root] azurerm_policy_definition.allowedimagespolicy (expand)&#45;&gt;[root] provider[&quot;registry.terraform.io/hashicorp/azurerm&quot;] -->
<g id="edge_0" class="edge">
<title>[root] azurerm_policy_definition.allowedimagespolicy (expand)&#45;&gt;[root] provider[&quot;registry.terraform.io/hashicorp/azurerm&quot;]</title>
<path fill="none" stroke="black" d="M474.61,-71.9C482.78,-69.05 491.29,-66.28 499.38,-64 550.32,-49.62 609.14,-37.79 652.98,-29.87"/>
<polygon fill="black" stroke="black" points="653.72,-33.3 662.95,-28.1 652.49,-26.41 653.72,-33.3"/>
</g>
<!-- [root] var.resource -->
<g id="node_15" class="node">
<title>[root] var.resource</title>
<polygon fill="none" stroke="black" points="503.38,-18 503.38,-33 546.38,-33 546.38,-18 503.38,-18"/>
<text text-anchor="start" x="517.88" y="-23.6" font-family="courier new" font-size="8.00">var</text>
<polygon fill="none" stroke="black" points="503.38,-3 503.38,-18 546.38,-18 546.38,-3 503.38,-3"/>
<text text-anchor="start" x="506.38" y="-8.6" font-family="courier new" font-size="8.00">resource</text>
</g>
<!-- [root] azurerm_policy_definition.allowedimagespolicy (expand)&#45;&gt;[root] var.resource -->
<g id="edge_1" class="edge">
<title>[root] azurerm_policy_definition.allowedimagespolicy (expand)&#45;&gt;[root] var.resource</title>
<path fill="none" stroke="black" d="M453.61,-71.7C465.57,-62.8 480.3,-51.82 493.23,-42.2"/>
<polygon fill="black" stroke="black" points="495.48,-44.88 501.41,-36.1 491.3,-39.27 495.48,-44.88"/>
</g>
<!-- [root] azurerm_subscription_policy_assignment.allowedImagesPolicyAssignment (expand) -->
<g id="node_1" class="node">
<title>[root] azurerm_subscription_policy_assignment.allowedImagesPolicyAssignment (expand)</title>
<polygon fill="none" stroke="black" points="452.38,-162 452.38,-177 630.38,-177 630.38,-162 452.38,-162"/>
<text text-anchor="start" x="455.38" y="-167.6" font-family="courier new" font-size="8.00">azurerm_subscription_policy_assignment</text>
<polygon fill="none" stroke="black" points="452.38,-147 452.38,-162 630.38,-162 630.38,-147 452.38,-147"/>
<text text-anchor="start" x="475.88" y="-152.6" font-family="courier new" font-size="8.00">allowedImagesPolicyAssignment</text>
</g>
<!-- [root] azurerm_subscription_policy_assignment.allowedImagesPolicyAssignment (expand)&#45;&gt;[root] azurerm_policy_definition.allowedimagespolicy (expand) -->
<g id="edge_2" class="edge">
<title>[root] azurerm_subscription_policy_assignment.allowedImagesPolicyAssignment (expand)&#45;&gt;[root] azurerm_policy_definition.allowedimagespolicy (expand)</title>
<path fill="none" stroke="black" d="M514.23,-143.88C499.85,-134.81 482,-123.55 466.47,-113.76"/>
<polygon fill="black" stroke="black" points="467.96,-110.56 457.64,-108.19 464.23,-116.48 467.96,-110.56"/>
</g>
<!-- [root] data.azurerm_client_config.current (expand) -->
<g id="node_5" class="node">
<title>[root] data.azurerm_client_config.current (expand)</title>
<polygon fill="none" stroke="black" points="508.38,-90 508.38,-105 609.38,-105 609.38,-90 508.38,-90"/>
<text text-anchor="start" x="511.38" y="-95.6" font-family="courier new" font-size="8.00">azurerm_client_config</text>
<polygon fill="none" stroke="black" points="508.38,-75 508.38,-90 609.38,-90 609.38,-75 508.38,-75"/>
<text text-anchor="start" x="542.88" y="-80.6" font-family="courier new" font-size="8.00">current</text>
</g>
<!-- [root] azurerm_subscription_policy_assignment.allowedImagesPolicyAssignment (expand)&#45;&gt;[root] data.azurerm_client_config.current (expand) -->
<g id="edge_3" class="edge">
<title>[root] azurerm_subscription_policy_assignment.allowedImagesPolicyAssignment (expand)&#45;&gt;[root] data.azurerm_client_config.current (expand)</title>
<path fill="none" stroke="black" d="M545.58,-143.7C547.47,-135.9 549.76,-126.51 551.86,-117.83"/>
<polygon fill="black" stroke="black" points="555.27,-118.65 554.22,-108.1 548.46,-117 555.27,-118.65"/>
</g>
<!-- [root] data.azurerm_resource_group.defaultRG (expand) -->
<g id="node_9" class="node">
<title>[root] data.azurerm_resource_group.defaultRG (expand)</title>
<polygon fill="none" stroke="black" points="665.38,-90 665.38,-105 771.38,-105 771.38,-90 665.38,-90"/>
<text text-anchor="start" x="668.38" y="-95.6" font-family="courier new" font-size="8.00">azurerm_resource_group</text>
<polygon fill="none" stroke="black" points="665.38,-75 665.38,-90 771.38,-90 771.38,-75 665.38,-75"/>
<text text-anchor="start" x="697.88" y="-80.6" font-family="courier new" font-size="8.00">defaultRG</text>
</g>
<!-- [root] azurerm_subscription_policy_assignment.allowedImagesPolicyAssignment (expand)&#45;&gt;[root] data.azurerm_resource_group.defaultRG (expand) -->
<g id="edge_4" class="edge">
<title>[root] azurerm_subscription_policy_assignment.allowedImagesPolicyAssignment (expand)&#45;&gt;[root] data.azurerm_resource_group.defaultRG (expand)</title>
<path fill="none" stroke="black" d="M584.68,-143.88C609.09,-134.22 639.77,-122.09 665.59,-111.88"/>
<polygon fill="black" stroke="black" points="667.21,-115 675.22,-108.07 664.63,-108.49 667.21,-115"/>
</g>
<!-- [root] data.azurerm_resource_group.networkwatcherRG (expand) -->
<g id="node_10" class="node">
<title>[root] data.azurerm_resource_group.networkwatcherRG (expand)</title>
<polygon fill="none" stroke="black" points="863.38,-90 863.38,-105 969.38,-105 969.38,-90 863.38,-90"/>
<text text-anchor="start" x="866.38" y="-95.6" font-family="courier new" font-size="8.00">azurerm_resource_group</text>
<polygon fill="none" stroke="black" points="863.38,-75 863.38,-90 969.38,-90 969.38,-75 863.38,-75"/>
<text text-anchor="start" x="879.88" y="-80.6" font-family="courier new" font-size="8.00">networkwatcherRG</text>
</g>
<!-- [root] azurerm_subscription_policy_assignment.allowedImagesPolicyAssignment (expand)&#45;&gt;[root] data.azurerm_resource_group.networkwatcherRG (expand) -->
<g id="edge_5" class="edge">
<title>[root] azurerm_subscription_policy_assignment.allowedImagesPolicyAssignment (expand)&#45;&gt;[root] data.azurerm_resource_group.networkwatcherRG (expand)</title>
<path fill="none" stroke="black" d="M630.55,-145.36C633.53,-144.89 636.48,-144.44 639.38,-144 735.97,-129.43 763.09,-141.52 857.38,-116 861.79,-114.81 866.3,-113.35 870.77,-111.76"/>
<polygon fill="black" stroke="black" points="872.33,-114.9 880.42,-108.07 869.83,-108.37 872.33,-114.9"/>
</g>
<!-- [root] var.allowedImages -->
<g id="node_12" class="node">
<title>[root] var.allowedImages</title>
<polygon fill="none" stroke="black" points="288.38,-90 288.38,-105 353.38,-105 353.38,-90 288.38,-90"/>
<text text-anchor="start" x="313.88" y="-95.6" font-family="courier new" font-size="8.00">var</text>
<polygon fill="none" stroke="black" points="288.38,-75 288.38,-90 353.38,-90 353.38,-75 288.38,-75"/>
<text text-anchor="start" x="291.38" y="-80.6" font-family="courier new" font-size="8.00">allowedImages</text>
</g>
<!-- [root] azurerm_subscription_policy_assignment.allowedImagesPolicyAssignment (expand)&#45;&gt;[root] var.allowedImages -->
<g id="edge_6" class="edge">
<title>[root] azurerm_subscription_policy_assignment.allowedImagesPolicyAssignment (expand)&#45;&gt;[root] var.allowedImages</title>
<path fill="none" stroke="black" d="M452.34,-144C423.09,-137 390.81,-127.74 362.38,-116 360.05,-115.04 357.69,-113.96 355.34,-112.81"/>
<polygon fill="black" stroke="black" points="356.91,-109.68 346.43,-108.08 353.63,-115.86 356.91,-109.68"/>
</g>
<!-- [root] azurerm_subscription_policy_assignment.allowedLocationPolicyAssignment (expand) -->
<g id="node_2" class="node">
<title>[root] azurerm_subscription_policy_assignment.allowedLocationPolicyAssignment (expand)</title>
<polygon fill="none" stroke="black" points="135.38,-162 135.38,-177 313.38,-177 313.38,-162 135.38,-162"/>
<text text-anchor="start" x="138.38" y="-167.6" font-family="courier new" font-size="8.00">azurerm_subscription_policy_assignment</text>
<polygon fill="none" stroke="black" points="135.38,-147 135.38,-162 313.38,-162 313.38,-147 135.38,-147"/>
<text text-anchor="start" x="154.38" y="-152.6" font-family="courier new" font-size="8.00">allowedLocationPolicyAssignment</text>
</g>
<!-- [root] azurerm_subscription_policy_assignment.allowedLocationPolicyAssignment (expand)&#45;&gt;[root] data.azurerm_client_config.current (expand) -->
<g id="edge_7" class="edge">
<title>[root] azurerm_subscription_policy_assignment.allowedLocationPolicyAssignment (expand)&#45;&gt;[root] data.azurerm_client_config.current (expand)</title>
<path fill="none" stroke="black" d="M313.5,-151.88C367.91,-144.98 438.5,-133.61 499.38,-116 503.64,-114.77 508.01,-113.31 512.34,-111.73"/>
<polygon fill="black" stroke="black" points="513.66,-114.98 521.73,-108.12 511.14,-108.45 513.66,-114.98"/>
</g>
<!-- [root] data.azurerm_policy_definition.allowedLocationPolicyDefinition (expand) -->
<g id="node_6" class="node">
<title>[root] data.azurerm_policy_definition.allowedLocationPolicyDefinition (expand)</title>
<polygon fill="none" stroke="black" points="20.38,-90 20.38,-105 166.38,-105 166.38,-90 20.38,-90"/>
<text text-anchor="start" x="36.88" y="-95.6" font-family="courier new" font-size="8.00">azurerm_policy_definition</text>
<polygon fill="none" stroke="black" points="20.38,-75 20.38,-90 166.38,-90 166.38,-75 20.38,-75"/>
<text text-anchor="start" x="23.38" y="-80.6" font-family="courier new" font-size="8.00">allowedLocationPolicyDefinition</text>
</g>
<!-- [root] azurerm_subscription_policy_assignment.allowedLocationPolicyAssignment (expand)&#45;&gt;[root] data.azurerm_policy_definition.allowedLocationPolicyDefinition (expand) -->
<g id="edge_8" class="edge">
<title>[root] azurerm_subscription_policy_assignment.allowedLocationPolicyAssignment (expand)&#45;&gt;[root] data.azurerm_policy_definition.allowedLocationPolicyDefinition (expand)</title>
<path fill="none" stroke="black" d="M192.33,-143.88C174.89,-134.55 153.11,-122.92 134.44,-112.94"/>
<polygon fill="black" stroke="black" points="136.02,-109.82 125.55,-108.19 132.72,-115.99 136.02,-109.82"/>
</g>
<!-- [root] azurerm_subscription_policy_assignment.allowedLocationPolicyAssignment (expand)&#45;&gt;[root] var.resource -->
<g id="edge_10" class="edge">
<title>[root] azurerm_subscription_policy_assignment.allowedLocationPolicyAssignment (expand)&#45;&gt;[root] var.resource</title>
<path fill="none" stroke="black" d="M135.37,-153.37C84.3,-146.95 27.24,-135.56 11.38,-116 -3.18,-98.05 -4.23,-81.04 11.38,-64 43.37,-29.08 373.92,-21.14 486.82,-19.44"/>
<polygon fill="black" stroke="black" points="487.1,-22.93 497.05,-19.29 487,-15.93 487.1,-22.93"/>
</g>
<!-- [root] var.allowedLocations -->
<g id="node_13" class="node">
<title>[root] var.allowedLocations</title>
<polygon fill="none" stroke="black" points="185.38,-90 185.38,-105 264.38,-105 264.38,-90 185.38,-90"/>
<text text-anchor="start" x="217.88" y="-95.6" font-family="courier new" font-size="8.00">var</text>
<polygon fill="none" stroke="black" points="185.38,-75 185.38,-90 264.38,-90 264.38,-75 185.38,-75"/>
<text text-anchor="start" x="188.38" y="-80.6" font-family="courier new" font-size="8.00">allowedLocations</text>
</g>
<!-- [root] azurerm_subscription_policy_assignment.allowedLocationPolicyAssignment (expand)&#45;&gt;[root] var.allowedLocations -->
<g id="edge_9" class="edge">
<title>[root] azurerm_subscription_policy_assignment.allowedLocationPolicyAssignment (expand)&#45;&gt;[root] var.allowedLocations</title>
<path fill="none" stroke="black" d="M224.38,-143.7C224.38,-135.98 224.38,-126.71 224.38,-118.11"/>
<polygon fill="black" stroke="black" points="227.88,-118.1 224.38,-108.1 220.88,-118.1 227.88,-118.1"/>
</g>
<!-- [root] azurerm_subscription_policy_assignment.allowedSkuPolicyAssignment (expand) -->
<g id="node_3" class="node">
<title>[root] azurerm_subscription_policy_assignment.allowedSkuPolicyAssignment (expand)</title>
<polygon fill="none" stroke="black" points="648.38,-162 648.38,-177 826.38,-177 826.38,-162 648.38,-162"/>
<text text-anchor="start" x="651.38" y="-167.6" font-family="courier new" font-size="8.00">azurerm_subscription_policy_assignment</text>
<polygon fill="none" stroke="black" points="648.38,-147 648.38,-162 826.38,-162 826.38,-147 648.38,-147"/>
<text text-anchor="start" x="678.38" y="-152.6" font-family="courier new" font-size="8.00">allowedSkuPolicyAssignment</text>
</g>
<!-- [root] azurerm_subscription_policy_assignment.allowedSkuPolicyAssignment (expand)&#45;&gt;[root] data.azurerm_client_config.current (expand) -->
<g id="edge_11" class="edge">
<title>[root] azurerm_subscription_policy_assignment.allowedSkuPolicyAssignment (expand)&#45;&gt;[root] data.azurerm_client_config.current (expand)</title>
<path fill="none" stroke="black" d="M693.59,-143.88C668.79,-134.18 637.6,-121.98 611.42,-111.74"/>
<polygon fill="black" stroke="black" points="612.61,-108.45 602.02,-108.07 610.06,-114.97 612.61,-108.45"/>
</g>
<!-- [root] data.azurerm_policy_definition.allowedSkuPolicyDefinition (expand) -->
<g id="node_7" class="node">
<title>[root] data.azurerm_policy_definition.allowedSkuPolicyDefinition (expand)</title>
<polygon fill="none" stroke="black" points="987.38,-90 987.38,-105 1111.38,-105 1111.38,-90 987.38,-90"/>
<text text-anchor="start" x="992.88" y="-95.6" font-family="courier new" font-size="8.00">azurerm_policy_definition</text>
<polygon fill="none" stroke="black" points="987.38,-75 987.38,-90 1111.38,-90 1111.38,-75 987.38,-75"/>
<text text-anchor="start" x="990.38" y="-80.6" font-family="courier new" font-size="8.00">allowedSkuPolicyDefinition</text>
</g>
<!-- [root] azurerm_subscription_policy_assignment.allowedSkuPolicyAssignment (expand)&#45;&gt;[root] data.azurerm_policy_definition.allowedSkuPolicyDefinition (expand) -->
<g id="edge_12" class="edge">
<title>[root] azurerm_subscription_policy_assignment.allowedSkuPolicyAssignment (expand)&#45;&gt;[root] data.azurerm_policy_definition.allowedSkuPolicyDefinition (expand)</title>
<path fill="none" stroke="black" d="M826.58,-145.03C888.91,-133.75 963.55,-119.97 978.38,-116 983.66,-114.58 989.12,-112.96 994.55,-111.24"/>
<polygon fill="black" stroke="black" points="995.84,-114.5 1004.25,-108.06 993.66,-107.85 995.84,-114.5"/>
</g>
<!-- [root] azurerm_subscription_policy_assignment.allowedSkuPolicyAssignment (expand)&#45;&gt;[root] data.azurerm_resource_group.defaultRG (expand) -->
<g id="edge_13" class="edge">
<title>[root] azurerm_subscription_policy_assignment.allowedSkuPolicyAssignment (expand)&#45;&gt;[root] data.azurerm_resource_group.defaultRG (expand)</title>
<path fill="none" stroke="black" d="M732.68,-143.7C730.57,-135.9 728.02,-126.51 725.66,-117.83"/>
<polygon fill="black" stroke="black" points="729.02,-116.84 723.02,-108.1 722.26,-118.67 729.02,-116.84"/>
</g>
<!-- [root] azurerm_subscription_policy_assignment.allowedSkuPolicyAssignment (expand)&#45;&gt;[root] data.azurerm_resource_group.networkwatcherRG (expand) -->
<g id="edge_14" class="edge">
<title>[root] azurerm_subscription_policy_assignment.allowedSkuPolicyAssignment (expand)&#45;&gt;[root] data.azurerm_resource_group.networkwatcherRG (expand)</title>
<path fill="none" stroke="black" d="M784.28,-143.93C806.52,-135.7 833.41,-125.57 857.38,-116 860.63,-114.7 863.97,-113.35 867.33,-111.97"/>
<polygon fill="black" stroke="black" points="868.91,-115.1 876.8,-108.04 866.22,-108.64 868.91,-115.1"/>
</g>
<!-- [root] azurerm_subscription_policy_assignment.allowedSkuPolicyAssignment (expand)&#45;&gt;[root] var.resource -->
<g id="edge_16" class="edge">
<title>[root] azurerm_subscription_policy_assignment.allowedSkuPolicyAssignment (expand)&#45;&gt;[root] var.resource</title>
<path fill="none" stroke="black" d="M698.88,-143.96C684.64,-136.58 668.92,-127.07 656.38,-116 634.92,-97.05 640.4,-82.29 618.38,-64 601.51,-49.99 579.54,-39.16 561.08,-31.63"/>
<polygon fill="black" stroke="black" points="562.11,-28.28 551.52,-27.9 559.56,-34.8 562.11,-28.28"/>
</g>
<!-- [root] var.allowedSkus -->
<g id="node_14" class="node">
<title>[root] var.allowedSkus</title>
<polygon fill="none" stroke="black" points="789.38,-90 789.38,-105 845.38,-105 845.38,-90 789.38,-90"/>
<text text-anchor="start" x="810.38" y="-95.6" font-family="courier new" font-size="8.00">var</text>
<polygon fill="none" stroke="black" points="789.38,-75 789.38,-90 845.38,-90 845.38,-75 789.38,-75"/>
<text text-anchor="start" x="792.38" y="-80.6" font-family="courier new" font-size="8.00">allowedSkus</text>
</g>
<!-- [root] azurerm_subscription_policy_assignment.allowedSkuPolicyAssignment (expand)&#45;&gt;[root] var.allowedSkus -->
<g id="edge_15" class="edge">
<title>[root] azurerm_subscription_policy_assignment.allowedSkuPolicyAssignment (expand)&#45;&gt;[root] var.allowedSkus</title>
<path fill="none" stroke="black" d="M757.15,-143.7C767.13,-134.97 779.39,-124.24 790.24,-114.75"/>
<polygon fill="black" stroke="black" points="792.61,-117.32 797.83,-108.1 788,-112.06 792.61,-117.32"/>
</g>
<!-- [root] azurerm_subscription_policy_assignment.requireTagPolicyAssignment (expand) -->
<g id="node_4" class="node">
<title>[root] azurerm_subscription_policy_assignment.requireTagPolicyAssignment (expand)</title>
<polygon fill="none" stroke="black" points="844.38,-162 844.38,-177 1022.38,-177 1022.38,-162 844.38,-162"/>
<text text-anchor="start" x="847.38" y="-167.6" font-family="courier new" font-size="8.00">azurerm_subscription_policy_assignment</text>
<polygon fill="none" stroke="black" points="844.38,-147 844.38,-162 1022.38,-162 1022.38,-147 844.38,-147"/>
<text text-anchor="start" x="874.38" y="-152.6" font-family="courier new" font-size="8.00">requireTagPolicyAssignment</text>
</g>
<!-- [root] azurerm_subscription_policy_assignment.requireTagPolicyAssignment (expand)&#45;&gt;[root] data.azurerm_client_config.current (expand) -->
<g id="edge_17" class="edge">
<title>[root] azurerm_subscription_policy_assignment.requireTagPolicyAssignment (expand)&#45;&gt;[root] data.azurerm_client_config.current (expand)</title>
<path fill="none" stroke="black" d="M844.19,-145.46C841.22,-144.97 838.28,-144.48 835.38,-144 755.93,-130.9 735.26,-132.19 656.38,-116 644.16,-113.49 631.18,-110.45 618.8,-107.37"/>
<polygon fill="black" stroke="black" points="619.58,-103.96 609.03,-104.89 617.87,-110.74 619.58,-103.96"/>
</g>
<!-- [root] data.azurerm_policy_definition.requireTagPolicyDefinition (expand) -->
<g id="node_8" class="node">
<title>[root] data.azurerm_policy_definition.requireTagPolicyDefinition (expand)</title>
<polygon fill="none" stroke="black" points="1239.38,-90 1239.38,-105 1363.38,-105 1363.38,-90 1239.38,-90"/>
<text text-anchor="start" x="1244.88" y="-95.6" font-family="courier new" font-size="8.00">azurerm_policy_definition</text>
<polygon fill="none" stroke="black" points="1239.38,-75 1239.38,-90 1363.38,-90 1363.38,-75 1239.38,-75"/>
<text text-anchor="start" x="1242.38" y="-80.6" font-family="courier new" font-size="8.00">requireTagPolicyDefinition</text>
</g>
<!-- [root] azurerm_subscription_policy_assignment.requireTagPolicyAssignment (expand)&#45;&gt;[root] data.azurerm_policy_definition.requireTagPolicyDefinition (expand) -->
<g id="edge_18" class="edge">
<title>[root] azurerm_subscription_policy_assignment.requireTagPolicyAssignment (expand)&#45;&gt;[root] data.azurerm_policy_definition.requireTagPolicyDefinition (expand)</title>
<path fill="none" stroke="black" d="M1022.61,-151.12C1080.81,-143.74 1158.17,-132.12 1225.38,-116 1231.41,-114.55 1237.64,-112.85 1243.83,-111.03"/>
<polygon fill="black" stroke="black" points="1244.94,-114.35 1253.48,-108.08 1242.89,-107.66 1244.94,-114.35"/>
</g>
<!-- [root] azurerm_subscription_policy_assignment.requireTagPolicyAssignment (expand)&#45;&gt;[root] data.azurerm_resource_group.defaultRG (expand) -->
<g id="edge_19" class="edge">
<title>[root] azurerm_subscription_policy_assignment.requireTagPolicyAssignment (expand)&#45;&gt;[root] data.azurerm_resource_group.defaultRG (expand)</title>
<path fill="none" stroke="black" d="M867.55,-143.9C839.51,-136.13 806.6,-126.36 777.38,-116 773.71,-114.7 769.94,-113.29 766.17,-111.82"/>
<polygon fill="black" stroke="black" points="767.42,-108.55 756.84,-108.08 764.82,-115.05 767.42,-108.55"/>
</g>
<!-- [root] azurerm_subscription_policy_assignment.requireTagPolicyAssignment (expand)&#45;&gt;[root] data.azurerm_resource_group.networkwatcherRG (expand) -->
<g id="edge_20" class="edge">
<title>[root] azurerm_subscription_policy_assignment.requireTagPolicyAssignment (expand)&#45;&gt;[root] data.azurerm_resource_group.networkwatcherRG (expand)</title>
<path fill="none" stroke="black" d="M929.18,-143.7C927.28,-135.9 925,-126.51 922.89,-117.83"/>
<polygon fill="black" stroke="black" points="926.29,-117 920.53,-108.1 919.49,-118.65 926.29,-117"/>
</g>
<!-- [root] azurerm_subscription_policy_assignment.requireTagPolicyAssignment (expand)&#45;&gt;[root] var.resource -->
<g id="edge_21" class="edge">
<title>[root] azurerm_subscription_policy_assignment.requireTagPolicyAssignment (expand)&#45;&gt;[root] var.resource</title>
<path fill="none" stroke="black" d="M1022.51,-157.65C1089.52,-153.04 1173.4,-142.07 1195.38,-116 1210.27,-98.33 1211.29,-80.76 1195.38,-64 1174.66,-42.18 684.35,-38.73 654.38,-36 623.1,-33.15 587.77,-28.43 561.85,-24.69"/>
<polygon fill="black" stroke="black" points="562.1,-21.19 551.7,-23.21 561.09,-28.12 562.1,-21.19"/>
</g>
<!-- [root] var.tagName -->
<g id="node_16" class="node">
<title>[root] var.tagName</title>
<polygon fill="none" stroke="black" points="1137.38,-90 1137.38,-105 1175.38,-105 1175.38,-90 1137.38,-90"/>
<text text-anchor="start" x="1149.38" y="-95.6" font-family="courier new" font-size="8.00">var</text>
<polygon fill="none" stroke="black" points="1137.38,-75 1137.38,-90 1175.38,-90 1175.38,-75 1137.38,-75"/>
<text text-anchor="start" x="1140.38" y="-80.6" font-family="courier new" font-size="8.00">tagName</text>
</g>
<!-- [root] azurerm_subscription_policy_assignment.requireTagPolicyAssignment (expand)&#45;&gt;[root] var.tagName -->
<g id="edge_22" class="edge">
<title>[root] azurerm_subscription_policy_assignment.requireTagPolicyAssignment (expand)&#45;&gt;[root] var.tagName</title>
<path fill="none" stroke="black" d="M1022.65,-146.56C1054.36,-139.62 1089.76,-129.73 1120.38,-116 1122.15,-115.21 1123.92,-114.32 1125.69,-113.37"/>
<polygon fill="black" stroke="black" points="1127.51,-116.36 1134.29,-108.22 1123.91,-110.36 1127.51,-116.36"/>
</g>
<!-- [root] data.azurerm_client_config.current (expand)&#45;&gt;[root] provider[&quot;registry.terraform.io/hashicorp/azurerm&quot;] -->
<g id="edge_23" class="edge">
<title>[root] data.azurerm_client_config.current (expand)&#45;&gt;[root] provider[&quot;registry.terraform.io/hashicorp/azurerm&quot;]</title>
<path fill="none" stroke="black" d="M597.52,-71.88C619.39,-62.31 646.84,-50.3 670.04,-40.15"/>
<polygon fill="black" stroke="black" points="671.61,-43.28 679.37,-36.07 668.8,-36.87 671.61,-43.28"/>
</g>
<!-- [root] data.azurerm_policy_definition.allowedLocationPolicyDefinition (expand)&#45;&gt;[root] provider[&quot;registry.terraform.io/hashicorp/azurerm&quot;] -->
<g id="edge_24" class="edge">
<title>[root] data.azurerm_policy_definition.allowedLocationPolicyDefinition (expand)&#45;&gt;[root] provider[&quot;registry.terraform.io/hashicorp/azurerm&quot;]</title>
<path fill="none" stroke="black" d="M141.57,-71.98C151.95,-68.86 162.94,-65.98 173.38,-64 342.8,-31.85 388.62,-51.45 560.38,-36 590.85,-33.26 624.56,-29.7 653,-26.55"/>
<polygon fill="black" stroke="black" points="653.67,-30 663.22,-25.41 652.89,-23.04 653.67,-30"/>
</g>
<!-- [root] data.azurerm_policy_definition.allowedSkuPolicyDefinition (expand)&#45;&gt;[root] provider[&quot;registry.terraform.io/hashicorp/azurerm&quot;] -->
<g id="edge_25" class="edge">
<title>[root] data.azurerm_policy_definition.allowedSkuPolicyDefinition (expand)&#45;&gt;[root] provider[&quot;registry.terraform.io/hashicorp/azurerm&quot;]</title>
<path fill="none" stroke="black" d="M1004.66,-71.98C996.02,-69.06 986.98,-66.24 978.38,-64 912.89,-46.93 836.4,-34.58 783.42,-27.18"/>
<polygon fill="black" stroke="black" points="783.86,-23.71 773.48,-25.81 782.91,-30.64 783.86,-23.71"/>
</g>
<!-- [root] data.azurerm_policy_definition.requireTagPolicyDefinition (expand)&#45;&gt;[root] provider[&quot;registry.terraform.io/hashicorp/azurerm&quot;] -->
<g id="edge_26" class="edge">
<title>[root] data.azurerm_policy_definition.requireTagPolicyDefinition (expand)&#45;&gt;[root] provider[&quot;registry.terraform.io/hashicorp/azurerm&quot;]</title>
<path fill="none" stroke="black" d="M1255.21,-71.95C1245.47,-68.88 1235.17,-66.02 1225.38,-64 1069.22,-31.83 881.34,-22.65 784.02,-20.04"/>
<polygon fill="black" stroke="black" points="783.83,-16.53 773.75,-19.78 783.65,-23.53 783.83,-16.53"/>
</g>
<!-- [root] data.azurerm_resource_group.defaultRG (expand)&#45;&gt;[root] provider[&quot;registry.terraform.io/hashicorp/azurerm&quot;] -->
<g id="edge_27" class="edge">
<title>[root] data.azurerm_resource_group.defaultRG (expand)&#45;&gt;[root] provider[&quot;registry.terraform.io/hashicorp/azurerm&quot;]</title>
<path fill="none" stroke="black" d="M718.38,-71.7C718.38,-63.98 718.38,-54.71 718.38,-46.11"/>
<polygon fill="black" stroke="black" points="721.88,-46.1 718.38,-36.1 714.88,-46.1 721.88,-46.1"/>
</g>
<!-- [root] data.azurerm_resource_group.networkwatcherRG (expand)&#45;&gt;[root] provider[&quot;registry.terraform.io/hashicorp/azurerm&quot;] -->
<g id="edge_28" class="edge">
<title>[root] data.azurerm_resource_group.networkwatcherRG (expand)&#45;&gt;[root] provider[&quot;registry.terraform.io/hashicorp/azurerm&quot;]</title>
<path fill="none" stroke="black" d="M877.54,-71.97C870.85,-69.21 863.95,-66.45 857.38,-64 833.46,-55.08 806.87,-46.22 783.41,-38.75"/>
<polygon fill="black" stroke="black" points="784.15,-35.32 773.56,-35.64 782.04,-41.99 784.15,-35.32"/>
</g>
<!-- [root] provider[&quot;registry.terraform.io/hashicorp/azurerm&quot;] (close) -->
<g id="node_17" class="node">
<title>[root] provider[&quot;registry.terraform.io/hashicorp/azurerm&quot;] (close)</title>
<polygon fill="none" stroke="black" points="584.38,-234 584.38,-249 694.38,-249 694.38,-234 584.38,-234"/>
<text text-anchor="start" x="618.88" y="-239.6" font-family="courier new" font-size="8.00">terraform</text>
<polygon fill="none" stroke="black" points="584.38,-219 584.38,-234 694.38,-234 694.38,-219 584.38,-219"/>
<text text-anchor="start" x="587.38" y="-224.6" font-family="courier new" font-size="8.00">io/hashicorp/azurerm\&quot;]</text>
</g>
<!-- [root] provider[&quot;registry.terraform.io/hashicorp/azurerm&quot;] (close)&#45;&gt;[root] azurerm_subscription_policy_assignment.allowedImagesPolicyAssignment (expand) -->
<g id="edge_29" class="edge">
<title>[root] provider[&quot;registry.terraform.io/hashicorp/azurerm&quot;] (close)&#45;&gt;[root] azurerm_subscription_policy_assignment.allowedImagesPolicyAssignment (expand)</title>
<path fill="none" stroke="black" d="M615.41,-215.88C602.83,-206.89 587.25,-195.76 573.63,-186.03"/>
<polygon fill="black" stroke="black" points="575.62,-183.15 565.44,-180.19 571.55,-188.85 575.62,-183.15"/>
</g>
<!-- [root] provider[&quot;registry.terraform.io/hashicorp/azurerm&quot;] (close)&#45;&gt;[root] azurerm_subscription_policy_assignment.allowedLocationPolicyAssignment (expand) -->
<g id="edge_30" class="edge">
<title>[root] provider[&quot;registry.terraform.io/hashicorp/azurerm&quot;] (close)&#45;&gt;[root] azurerm_subscription_policy_assignment.allowedLocationPolicyAssignment (expand)</title>
<path fill="none" stroke="black" d="M584.27,-223.7C517.98,-212.52 405.45,-193.54 323.84,-179.78"/>
<polygon fill="black" stroke="black" points="323.99,-176.25 313.55,-178.04 322.83,-183.16 323.99,-176.25"/>
</g>
<!-- [root] provider[&quot;registry.terraform.io/hashicorp/azurerm&quot;] (close)&#45;&gt;[root] azurerm_subscription_policy_assignment.allowedSkuPolicyAssignment (expand) -->
<g id="edge_31" class="edge">
<title>[root] provider[&quot;registry.terraform.io/hashicorp/azurerm&quot;] (close)&#45;&gt;[root] azurerm_subscription_policy_assignment.allowedSkuPolicyAssignment (expand)</title>
<path fill="none" stroke="black" d="M663.35,-215.88C675.93,-206.89 691.51,-195.76 705.13,-186.03"/>
<polygon fill="black" stroke="black" points="707.21,-188.85 713.31,-180.19 703.14,-183.15 707.21,-188.85"/>
</g>
<!-- [root] provider[&quot;registry.terraform.io/hashicorp/azurerm&quot;] (close)&#45;&gt;[root] azurerm_subscription_policy_assignment.requireTagPolicyAssignment (expand) -->
<g id="edge_32" class="edge">
<title>[root] provider[&quot;registry.terraform.io/hashicorp/azurerm&quot;] (close)&#45;&gt;[root] azurerm_subscription_policy_assignment.requireTagPolicyAssignment (expand)</title>
<path fill="none" stroke="black" d="M694.68,-219.83C739.04,-209.27 801.96,-194.29 852.07,-182.36"/>
<polygon fill="black" stroke="black" points="852.99,-185.74 861.91,-180.02 851.37,-178.93 852.99,-185.74"/>
</g>
<!-- [root] root -->
<g id="node_18" class="node">
<title>[root] root</title>
<polygon fill="none" stroke="black" points="672.38,-324 606.38,-324 606.38,-288 672.38,-288 672.38,-324"/>
<text text-anchor="middle" x="639.38" y="-304.1" font-family="courier new" font-size="8.00">[root] root</text>
</g>
<!-- [root] root&#45;&gt;[root] provider[&quot;registry.terraform.io/hashicorp/azurerm&quot;] (close) -->
<g id="edge_33" class="edge">
<title>[root] root&#45;&gt;[root] provider[&quot;registry.terraform.io/hashicorp/azurerm&quot;] (close)</title>
<path fill="none" stroke="black" d="M639.38,-287.7C639.38,-279.98 639.38,-270.71 639.38,-262.11"/>
<polygon fill="black" stroke="black" points="642.88,-262.1 639.38,-252.1 635.88,-262.1 642.88,-262.1"/>
</g>
</g>
</svg>

