<?xml version="1.0" encoding="UTF-8" standalone="no"?>
<!DOCTYPE svg PUBLIC "-//W3C//DTD SVG 1.1//EN"
 "http://www.w3.org/Graphics/SVG/1.1/DTD/svg11.dtd">
<!-- Generated by graphviz version 2.43.0 (0)
 -->
<!-- Title: %3 Pages: 1 -->
<svg width="1702pt" height="332pt"
 viewBox="0.00 0.00 1702.36 332.00" xmlns="http://www.w3.org/2000/svg" xmlns:xlink="http://www.w3.org/1999/xlink">
<g id="graph0" class="graph" transform="scale(1 1) rotate(0) translate(4 328)">
<title>%3</title>
<polygon fill="white" stroke="transparent" points="-4,4 -4,-328 1698.36,-328 1698.36,4 -4,4"/>
<g id="clust2" class="cluster">
<title>cluster[root] azurerm_subscription_policy_assignment.allowedImagesPolicyAssignment (expand)_var_</title>
</g>
<g id="clust3" class="cluster">
<title>cluster[root] azurerm_subscription_policy_assignment.allowedLocationPolicyAssignment (expand)_var_</title>
</g>
<g id="clust4" class="cluster">
<title>cluster[root] azurerm_subscription_policy_assignment.allowedSkuPolicyAssignment (expand)_var_</title>
</g>
<g id="clust5" class="cluster">
<title>cluster[root] azurerm_subscription_policy_assignment.inheritTagFromRGIFMissingPolicyAssignment (expand)_var_</title>
</g>
<!-- [root] azurerm_policy_definition.allowedimagespolicy (expand) -->
<g id="node_0" class="node">
<title>[root] azurerm_policy_definition.allowedimagespolicy (expand)</title>
<polygon fill="none" stroke="black" points="603,-90 603,-105 722,-105 722,-90 603,-90"/>
<text text-anchor="start" x="606" y="-95.6" font-family="courier new" font-size="8.00">azurerm_policy_definition</text>
<polygon fill="none" stroke="black" points="603,-75 603,-90 722,-90 722,-75 603,-75"/>
<text text-anchor="start" x="619.5" y="-80.6" font-family="courier new" font-size="8.00">allowedimagespolicy</text>
</g>
<!-- [root] provider[&quot;registry.terraform.io/hashicorp/azurerm&quot;] -->
<g id="node_13" class="node">
<title>[root] provider[&quot;registry.terraform.io/hashicorp/azurerm&quot;]</title>
<polygon fill="none" stroke="black" points="677,-18 677,-33 787,-33 787,-18 677,-18"/>
<text text-anchor="start" x="711.5" y="-23.6" font-family="courier new" font-size="8.00">terraform</text>
<polygon fill="none" stroke="black" points="677,-3 677,-18 787,-18 787,-3 677,-3"/>
<text text-anchor="start" x="680" y="-8.6" font-family="courier new" font-size="8.00">io/hashicorp/azurerm\&quot;]</text>
</g>
<!-- [root] azurerm_policy_definition.allowedimagespolicy (expand)&#45;&gt;[root] provider[&quot;registry.terraform.io/hashicorp/azurerm&quot;] -->
<g id="edge_0" class="edge">
<title>[root] azurerm_policy_definition.allowedimagespolicy (expand)&#45;&gt;[root] provider[&quot;registry.terraform.io/hashicorp/azurerm&quot;]</title>
<path fill="none" stroke="black" d="M679.3,-71.7C687.86,-63.14 698.34,-52.66 707.7,-43.3"/>
<polygon fill="black" stroke="black" points="710.3,-45.65 714.9,-36.1 705.35,-40.7 710.3,-45.65"/>
</g>
<!-- [root] var.resource -->
<g id="node_18" class="node">
<title>[root] var.resource</title>
<polygon fill="none" stroke="black" points="987,-18 987,-33 1030,-33 1030,-18 987,-18"/>
<text text-anchor="start" x="1001.5" y="-23.6" font-family="courier new" font-size="8.00">var</text>
<polygon fill="none" stroke="black" points="987,-3 987,-18 1030,-18 1030,-3 987,-3"/>
<text text-anchor="start" x="990" y="-8.6" font-family="courier new" font-size="8.00">resource</text>
</g>
<!-- [root] azurerm_policy_definition.allowedimagespolicy (expand)&#45;&gt;[root] var.resource -->
<g id="edge_1" class="edge">
<title>[root] azurerm_policy_definition.allowedimagespolicy (expand)&#45;&gt;[root] var.resource</title>
<path fill="none" stroke="black" d="M705.41,-71.88C713.82,-68.97 722.61,-66.18 731,-64 815.43,-42.05 917.27,-28.79 970.86,-22.8"/>
<polygon fill="black" stroke="black" points="971.35,-26.27 980.91,-21.7 970.59,-19.31 971.35,-26.27"/>
</g>
<!-- [root] azurerm_subscription_policy_assignment.allowedImagesPolicyAssignment (expand) -->
<g id="node_1" class="node">
<title>[root] azurerm_subscription_policy_assignment.allowedImagesPolicyAssignment (expand)</title>
<polygon fill="none" stroke="black" points="530,-162 530,-177 708,-177 708,-162 530,-162"/>
<text text-anchor="start" x="533" y="-167.6" font-family="courier new" font-size="8.00">azurerm_subscription_policy_assignment</text>
<polygon fill="none" stroke="black" points="530,-147 530,-162 708,-162 708,-147 530,-147"/>
<text text-anchor="start" x="553.5" y="-152.6" font-family="courier new" font-size="8.00">allowedImagesPolicyAssignment</text>
</g>
<!-- [root] azurerm_subscription_policy_assignment.allowedImagesPolicyAssignment (expand)&#45;&gt;[root] azurerm_policy_definition.allowedimagespolicy (expand) -->
<g id="edge_2" class="edge">
<title>[root] azurerm_subscription_policy_assignment.allowedImagesPolicyAssignment (expand)&#45;&gt;[root] azurerm_policy_definition.allowedimagespolicy (expand)</title>
<path fill="none" stroke="black" d="M629.63,-143.7C634.63,-135.56 640.69,-125.69 646.21,-116.7"/>
<polygon fill="black" stroke="black" points="649.24,-118.46 651.49,-108.1 643.28,-114.79 649.24,-118.46"/>
</g>
<!-- [root] data.azurerm_resource_group.defaultRG (expand) -->
<g id="node_10" class="node">
<title>[root] data.azurerm_resource_group.defaultRG (expand)</title>
<polygon fill="none" stroke="black" points="354,-90 354,-105 460,-105 460,-90 354,-90"/>
<text text-anchor="start" x="357" y="-95.6" font-family="courier new" font-size="8.00">azurerm_resource_group</text>
<polygon fill="none" stroke="black" points="354,-75 354,-90 460,-90 460,-75 354,-75"/>
<text text-anchor="start" x="386.5" y="-80.6" font-family="courier new" font-size="8.00">defaultRG</text>
</g>
<!-- [root] azurerm_subscription_policy_assignment.allowedImagesPolicyAssignment (expand)&#45;&gt;[root] data.azurerm_resource_group.defaultRG (expand) -->
<g id="edge_3" class="edge">
<title>[root] azurerm_subscription_policy_assignment.allowedImagesPolicyAssignment (expand)&#45;&gt;[root] data.azurerm_resource_group.defaultRG (expand)</title>
<path fill="none" stroke="black" d="M557.65,-143.98C530.33,-136.04 497.86,-126.12 469,-116 465.23,-114.68 461.35,-113.26 457.46,-111.79"/>
<polygon fill="black" stroke="black" points="458.41,-108.41 447.82,-108.08 455.89,-114.94 458.41,-108.41"/>
</g>
<!-- [root] data.azurerm_resource_group.networkwatcherRG (expand) -->
<g id="node_11" class="node">
<title>[root] data.azurerm_resource_group.networkwatcherRG (expand)</title>
<polygon fill="none" stroke="black" points="478,-90 478,-105 584,-105 584,-90 478,-90"/>
<text text-anchor="start" x="481" y="-95.6" font-family="courier new" font-size="8.00">azurerm_resource_group</text>
<polygon fill="none" stroke="black" points="478,-75 478,-90 584,-90 584,-75 478,-75"/>
<text text-anchor="start" x="494.5" y="-80.6" font-family="courier new" font-size="8.00">networkwatcherRG</text>
</g>
<!-- [root] azurerm_subscription_policy_assignment.allowedImagesPolicyAssignment (expand)&#45;&gt;[root] data.azurerm_resource_group.networkwatcherRG (expand) -->
<g id="edge_4" class="edge">
<title>[root] azurerm_subscription_policy_assignment.allowedImagesPolicyAssignment (expand)&#45;&gt;[root] data.azurerm_resource_group.networkwatcherRG (expand)</title>
<path fill="none" stroke="black" d="M597.25,-143.7C586.16,-134.88 572.53,-124.03 560.51,-114.47"/>
<polygon fill="black" stroke="black" points="562.51,-111.59 552.5,-108.1 558.15,-117.07 562.51,-111.59"/>
</g>
<!-- [root] data.azurerm_subscription.current (expand) -->
<g id="node_12" class="node">
<title>[root] data.azurerm_subscription.current (expand)</title>
<polygon fill="none" stroke="black" points="883,-90 883,-105 980,-105 980,-90 883,-90"/>
<text text-anchor="start" x="886" y="-95.6" font-family="courier new" font-size="8.00">azurerm_subscription</text>
<polygon fill="none" stroke="black" points="883,-75 883,-90 980,-90 980,-75 883,-75"/>
<text text-anchor="start" x="915.5" y="-80.6" font-family="courier new" font-size="8.00">current</text>
</g>
<!-- [root] azurerm_subscription_policy_assignment.allowedImagesPolicyAssignment (expand)&#45;&gt;[root] data.azurerm_subscription.current (expand) -->
<g id="edge_5" class="edge">
<title>[root] azurerm_subscription_policy_assignment.allowedImagesPolicyAssignment (expand)&#45;&gt;[root] data.azurerm_subscription.current (expand)</title>
<path fill="none" stroke="black" d="M708.05,-145.72C777.99,-133.65 864.9,-118.43 873,-116 877.08,-114.78 881.25,-113.35 885.4,-111.81"/>
<polygon fill="black" stroke="black" points="886.94,-114.97 894.97,-108.05 884.38,-108.45 886.94,-114.97"/>
</g>
<!-- [root] var.allowedImages -->
<g id="node_14" class="node">
<title>[root] var.allowedImages</title>
<polygon fill="none" stroke="black" points="271,-90 271,-105 336,-105 336,-90 271,-90"/>
<text text-anchor="start" x="296.5" y="-95.6" font-family="courier new" font-size="8.00">var</text>
<polygon fill="none" stroke="black" points="271,-75 271,-90 336,-90 336,-75 271,-75"/>
<text text-anchor="start" x="274" y="-80.6" font-family="courier new" font-size="8.00">allowedImages</text>
</g>
<!-- [root] azurerm_subscription_policy_assignment.allowedImagesPolicyAssignment (expand)&#45;&gt;[root] var.allowedImages -->
<g id="edge_6" class="edge">
<title>[root] azurerm_subscription_policy_assignment.allowedImagesPolicyAssignment (expand)&#45;&gt;[root] var.allowedImages</title>
<path fill="none" stroke="black" d="M529.91,-147.18C453.33,-135.18 353.82,-119.22 345,-116 342.47,-115.08 339.92,-114 337.4,-112.82"/>
<polygon fill="black" stroke="black" points="338.95,-109.68 328.46,-108.19 335.73,-115.9 338.95,-109.68"/>
</g>
<!-- [root] azurerm_subscription_policy_assignment.allowedLocationPolicyAssignment (expand) -->
<g id="node_2" class="node">
<title>[root] azurerm_subscription_policy_assignment.allowedLocationPolicyAssignment (expand)</title>
<polygon fill="none" stroke="black" points="1412,-162 1412,-177 1590,-177 1590,-162 1412,-162"/>
<text text-anchor="start" x="1415" y="-167.6" font-family="courier new" font-size="8.00">azurerm_subscription_policy_assignment</text>
<polygon fill="none" stroke="black" points="1412,-147 1412,-162 1590,-162 1590,-147 1412,-147"/>
<text text-anchor="start" x="1431" y="-152.6" font-family="courier new" font-size="8.00">allowedLocationPolicyAssignment</text>
</g>
<!-- [root] data.azurerm_policy_definition.allowedLocationPolicyDefinition (expand) -->
<g id="node_6" class="node">
<title>[root] data.azurerm_policy_definition.allowedLocationPolicyDefinition (expand)</title>
<polygon fill="none" stroke="black" points="1428,-90 1428,-105 1574,-105 1574,-90 1428,-90"/>
<text text-anchor="start" x="1444.5" y="-95.6" font-family="courier new" font-size="8.00">azurerm_policy_definition</text>
<polygon fill="none" stroke="black" points="1428,-75 1428,-90 1574,-90 1574,-75 1428,-75"/>
<text text-anchor="start" x="1431" y="-80.6" font-family="courier new" font-size="8.00">allowedLocationPolicyDefinition</text>
</g>
<!-- [root] azurerm_subscription_policy_assignment.allowedLocationPolicyAssignment (expand)&#45;&gt;[root] data.azurerm_policy_definition.allowedLocationPolicyDefinition (expand) -->
<g id="edge_7" class="edge">
<title>[root] azurerm_subscription_policy_assignment.allowedLocationPolicyAssignment (expand)&#45;&gt;[root] data.azurerm_policy_definition.allowedLocationPolicyDefinition (expand)</title>
<path fill="none" stroke="black" d="M1501,-143.7C1501,-135.98 1501,-126.71 1501,-118.11"/>
<polygon fill="black" stroke="black" points="1504.5,-118.1 1501,-108.1 1497.5,-118.1 1504.5,-118.1"/>
</g>
<!-- [root] azurerm_subscription_policy_assignment.allowedLocationPolicyAssignment (expand)&#45;&gt;[root] data.azurerm_subscription.current (expand) -->
<g id="edge_8" class="edge">
<title>[root] azurerm_subscription_policy_assignment.allowedLocationPolicyAssignment (expand)&#45;&gt;[root] data.azurerm_subscription.current (expand)</title>
<path fill="none" stroke="black" d="M1411.76,-156.8C1316.05,-151.3 1159.89,-139.46 1027,-116 1014.69,-113.83 1001.64,-110.88 989.26,-107.76"/>
<polygon fill="black" stroke="black" points="990.06,-104.36 979.5,-105.24 988.31,-111.13 990.06,-104.36"/>
</g>
<!-- [root] azurerm_subscription_policy_assignment.allowedLocationPolicyAssignment (expand)&#45;&gt;[root] var.resource -->
<g id="edge_10" class="edge">
<title>[root] azurerm_subscription_policy_assignment.allowedLocationPolicyAssignment (expand)&#45;&gt;[root] var.resource</title>
<path fill="none" stroke="black" d="M1590.33,-149.41C1630.22,-142.23 1670.96,-131.38 1683,-116 1697.25,-97.8 1698.79,-80.88 1683,-64 1639.3,-17.29 1181.17,-17.49 1045.59,-18.59"/>
<polygon fill="black" stroke="black" points="1045.27,-15.09 1035.3,-18.68 1045.33,-22.09 1045.27,-15.09"/>
</g>
<!-- [root] var.allowedLocations -->
<g id="node_15" class="node">
<title>[root] var.allowedLocations</title>
<polygon fill="none" stroke="black" points="1593,-90 1593,-105 1672,-105 1672,-90 1593,-90"/>
<text text-anchor="start" x="1625.5" y="-95.6" font-family="courier new" font-size="8.00">var</text>
<polygon fill="none" stroke="black" points="1593,-75 1593,-90 1672,-90 1672,-75 1593,-75"/>
<text text-anchor="start" x="1596" y="-80.6" font-family="courier new" font-size="8.00">allowedLocations</text>
</g>
<!-- [root] azurerm_subscription_policy_assignment.allowedLocationPolicyAssignment (expand)&#45;&gt;[root] var.allowedLocations -->
<g id="edge_9" class="edge">
<title>[root] azurerm_subscription_policy_assignment.allowedLocationPolicyAssignment (expand)&#45;&gt;[root] var.allowedLocations</title>
<path fill="none" stroke="black" d="M1533.05,-143.88C1550.49,-134.55 1572.27,-122.92 1590.94,-112.94"/>
<polygon fill="black" stroke="black" points="1592.66,-115.99 1599.83,-108.19 1589.36,-109.82 1592.66,-115.99"/>
</g>
<!-- [root] azurerm_subscription_policy_assignment.allowedSkuPolicyAssignment (expand) -->
<g id="node_3" class="node">
<title>[root] azurerm_subscription_policy_assignment.allowedSkuPolicyAssignment (expand)</title>
<polygon fill="none" stroke="black" points="318,-162 318,-177 496,-177 496,-162 318,-162"/>
<text text-anchor="start" x="321" y="-167.6" font-family="courier new" font-size="8.00">azurerm_subscription_policy_assignment</text>
<polygon fill="none" stroke="black" points="318,-147 318,-162 496,-162 496,-147 318,-147"/>
<text text-anchor="start" x="348" y="-152.6" font-family="courier new" font-size="8.00">allowedSkuPolicyAssignment</text>
</g>
<!-- [root] data.azurerm_policy_definition.allowedSkuPolicyDefinition (expand) -->
<g id="node_7" class="node">
<title>[root] data.azurerm_policy_definition.allowedSkuPolicyDefinition (expand)</title>
<polygon fill="none" stroke="black" points="90,-90 90,-105 214,-105 214,-90 90,-90"/>
<text text-anchor="start" x="95.5" y="-95.6" font-family="courier new" font-size="8.00">azurerm_policy_definition</text>
<polygon fill="none" stroke="black" points="90,-75 90,-90 214,-90 214,-75 90,-75"/>
<text text-anchor="start" x="93" y="-80.6" font-family="courier new" font-size="8.00">allowedSkuPolicyDefinition</text>
</g>
<!-- [root] azurerm_subscription_policy_assignment.allowedSkuPolicyAssignment (expand)&#45;&gt;[root] data.azurerm_policy_definition.allowedSkuPolicyDefinition (expand) -->
<g id="edge_11" class="edge">
<title>[root] azurerm_subscription_policy_assignment.allowedSkuPolicyAssignment (expand)&#45;&gt;[root] data.azurerm_policy_definition.allowedSkuPolicyDefinition (expand)</title>
<path fill="none" stroke="black" d="M334.39,-144C301.73,-136.03 262.78,-126.08 228,-116 222.75,-114.48 217.31,-112.83 211.88,-111.14"/>
<polygon fill="black" stroke="black" points="212.72,-107.73 202.13,-108.05 210.6,-114.41 212.72,-107.73"/>
</g>
<!-- [root] azurerm_subscription_policy_assignment.allowedSkuPolicyAssignment (expand)&#45;&gt;[root] data.azurerm_resource_group.defaultRG (expand) -->
<g id="edge_12" class="edge">
<title>[root] azurerm_subscription_policy_assignment.allowedSkuPolicyAssignment (expand)&#45;&gt;[root] data.azurerm_resource_group.defaultRG (expand)</title>
<path fill="none" stroke="black" d="M407,-143.7C407,-135.98 407,-126.71 407,-118.11"/>
<polygon fill="black" stroke="black" points="410.5,-118.1 407,-108.1 403.5,-118.1 410.5,-118.1"/>
</g>
<!-- [root] azurerm_subscription_policy_assignment.allowedSkuPolicyAssignment (expand)&#45;&gt;[root] data.azurerm_resource_group.networkwatcherRG (expand) -->
<g id="edge_13" class="edge">
<title>[root] azurerm_subscription_policy_assignment.allowedSkuPolicyAssignment (expand)&#45;&gt;[root] data.azurerm_resource_group.networkwatcherRG (expand)</title>
<path fill="none" stroke="black" d="M437.33,-143.88C453.7,-134.64 474.08,-123.13 491.65,-113.21"/>
<polygon fill="black" stroke="black" points="493.56,-116.15 500.55,-108.19 490.12,-110.06 493.56,-116.15"/>
</g>
<!-- [root] azurerm_subscription_policy_assignment.allowedSkuPolicyAssignment (expand)&#45;&gt;[root] data.azurerm_subscription.current (expand) -->
<g id="edge_14" class="edge">
<title>[root] azurerm_subscription_policy_assignment.allowedSkuPolicyAssignment (expand)&#45;&gt;[root] data.azurerm_subscription.current (expand)</title>
<path fill="none" stroke="black" d="M496.23,-147.1C504.59,-145.97 512.95,-144.92 521,-144 676.93,-126.19 720.68,-153.79 873,-116 877.61,-114.86 882.33,-113.38 886.97,-111.72"/>
<polygon fill="black" stroke="black" points="888.29,-114.97 896.37,-108.11 885.78,-108.43 888.29,-114.97"/>
</g>
<!-- [root] azurerm_subscription_policy_assignment.allowedSkuPolicyAssignment (expand)&#45;&gt;[root] var.resource -->
<g id="edge_16" class="edge">
<title>[root] azurerm_subscription_policy_assignment.allowedSkuPolicyAssignment (expand)&#45;&gt;[root] var.resource</title>
<path fill="none" stroke="black" d="M317.81,-153.18C294.72,-146.63 272.34,-135.31 258,-116 244.22,-97.45 242.09,-80.76 258,-64 278.61,-42.29 766.14,-37.97 796,-36 857.31,-31.95 928.48,-25.98 970.8,-22.3"/>
<polygon fill="black" stroke="black" points="971.25,-25.77 980.91,-21.42 970.64,-18.8 971.25,-25.77"/>
</g>
<!-- [root] var.allowedSkus -->
<g id="node_16" class="node">
<title>[root] var.allowedSkus</title>
<polygon fill="none" stroke="black" points="16,-90 16,-105 72,-105 72,-90 16,-90"/>
<text text-anchor="start" x="37" y="-95.6" font-family="courier new" font-size="8.00">var</text>
<polygon fill="none" stroke="black" points="16,-75 16,-90 72,-90 72,-75 16,-75"/>
<text text-anchor="start" x="19" y="-80.6" font-family="courier new" font-size="8.00">allowedSkus</text>
</g>
<!-- [root] azurerm_subscription_policy_assignment.allowedSkuPolicyAssignment (expand)&#45;&gt;[root] var.allowedSkus -->
<g id="edge_15" class="edge">
<title>[root] azurerm_subscription_policy_assignment.allowedSkuPolicyAssignment (expand)&#45;&gt;[root] var.allowedSkus</title>
<path fill="none" stroke="black" d="M317.82,-159.55C250.73,-155.91 157.57,-145.32 81,-116 78.88,-115.19 76.77,-114.24 74.68,-113.19"/>
<polygon fill="black" stroke="black" points="76.2,-110.03 65.79,-108.09 72.72,-116.1 76.2,-110.03"/>
</g>
<!-- [root] azurerm_subscription_policy_assignment.inheritTagFromRGIFMissingPolicyAssignment (expand) -->
<g id="node_4" class="node">
<title>[root] azurerm_subscription_policy_assignment.inheritTagFromRGIFMissingPolicyAssignment (expand)</title>
<polygon fill="none" stroke="black" points="939,-162 939,-177 1130,-177 1130,-162 939,-162"/>
<text text-anchor="start" x="948.5" y="-167.6" font-family="courier new" font-size="8.00">azurerm_subscription_policy_assignment</text>
<polygon fill="none" stroke="black" points="939,-147 939,-162 1130,-162 1130,-147 939,-147"/>
<text text-anchor="start" x="942" y="-152.6" font-family="courier new" font-size="8.00">inheritTagFromRGIFMissingPolicyAssignment</text>
</g>
<!-- [root] data.azurerm_policy_definition.inheritTagFromRGIFMissingPolicyDefinition (expand) -->
<g id="node_8" class="node">
<title>[root] data.azurerm_policy_definition.inheritTagFromRGIFMissingPolicyDefinition (expand)</title>
<polygon fill="none" stroke="black" points="1109,-90 1109,-105 1300,-105 1300,-90 1109,-90"/>
<text text-anchor="start" x="1148" y="-95.6" font-family="courier new" font-size="8.00">azurerm_policy_definition</text>
<polygon fill="none" stroke="black" points="1109,-75 1109,-90 1300,-90 1300,-75 1109,-75"/>
<text text-anchor="start" x="1112" y="-80.6" font-family="courier new" font-size="8.00">inheritTagFromRGIFMissingPolicyDefinition</text>
</g>
<!-- [root] azurerm_subscription_policy_assignment.inheritTagFromRGIFMissingPolicyAssignment (expand)&#45;&gt;[root] data.azurerm_policy_definition.inheritTagFromRGIFMissingPolicyDefinition (expand) -->
<g id="edge_17" class="edge">
<title>[root] azurerm_subscription_policy_assignment.inheritTagFromRGIFMissingPolicyAssignment (expand)&#45;&gt;[root] data.azurerm_policy_definition.inheritTagFromRGIFMissingPolicyDefinition (expand)</title>
<path fill="none" stroke="black" d="M1075.59,-143.88C1099.03,-134.22 1128.5,-122.09 1153.3,-111.88"/>
<polygon fill="black" stroke="black" points="1154.63,-115.11 1162.55,-108.07 1151.97,-108.64 1154.63,-115.11"/>
</g>
<!-- [root] azurerm_subscription_policy_assignment.inheritTagFromRGIFMissingPolicyAssignment (expand)&#45;&gt;[root] data.azurerm_resource_group.defaultRG (expand) -->
<g id="edge_18" class="edge">
<title>[root] azurerm_subscription_policy_assignment.inheritTagFromRGIFMissingPolicyAssignment (expand)&#45;&gt;[root] data.azurerm_resource_group.defaultRG (expand)</title>
<path fill="none" stroke="black" d="M938.45,-146.78C930.19,-145.76 921.95,-144.81 914,-144 716.86,-123.86 662.26,-159.84 469,-116 463.9,-114.84 458.67,-113.32 453.51,-111.59"/>
<polygon fill="black" stroke="black" points="454.35,-108.17 443.75,-108.06 451.97,-114.75 454.35,-108.17"/>
</g>
<!-- [root] azurerm_subscription_policy_assignment.inheritTagFromRGIFMissingPolicyAssignment (expand)&#45;&gt;[root] data.azurerm_resource_group.networkwatcherRG (expand) -->
<g id="edge_19" class="edge">
<title>[root] azurerm_subscription_policy_assignment.inheritTagFromRGIFMissingPolicyAssignment (expand)&#45;&gt;[root] data.azurerm_resource_group.networkwatcherRG (expand)</title>
<path fill="none" stroke="black" d="M938.43,-146.99C930.17,-145.92 921.94,-144.91 914,-144 772.16,-127.76 732.92,-148.9 594,-116 588.91,-114.79 583.68,-113.25 578.52,-111.53"/>
<polygon fill="black" stroke="black" points="579.33,-108.1 568.74,-108.03 576.98,-114.69 579.33,-108.1"/>
</g>
<!-- [root] azurerm_subscription_policy_assignment.inheritTagFromRGIFMissingPolicyAssignment (expand)&#45;&gt;[root] data.azurerm_subscription.current (expand) -->
<g id="edge_20" class="edge">
<title>[root] azurerm_subscription_policy_assignment.inheritTagFromRGIFMissingPolicyAssignment (expand)&#45;&gt;[root] data.azurerm_subscription.current (expand)</title>
<path fill="none" stroke="black" d="M1008.8,-143.88C995.59,-134.89 979.21,-123.76 964.89,-114.03"/>
<polygon fill="black" stroke="black" points="966.53,-110.92 956.29,-108.19 962.6,-116.71 966.53,-110.92"/>
</g>
<!-- [root] azurerm_subscription_policy_assignment.inheritTagFromRGIFMissingPolicyAssignment (expand)&#45;&gt;[root] var.resource -->
<g id="edge_22" class="edge">
<title>[root] azurerm_subscription_policy_assignment.inheritTagFromRGIFMissingPolicyAssignment (expand)&#45;&gt;[root] var.resource</title>
<path fill="none" stroke="black" d="M1129.66,-158.14C1199.61,-153.8 1286.09,-142.96 1309,-116 1323.96,-98.39 1324.09,-81.51 1309,-64 1275.39,-24.99 1118.47,-19.3 1045.49,-18.8"/>
<polygon fill="black" stroke="black" points="1045.38,-15.3 1035.36,-18.76 1045.35,-22.3 1045.38,-15.3"/>
</g>
<!-- [root] var.tagName -->
<g id="node_19" class="node">
<title>[root] var.tagName</title>
<polygon fill="none" stroke="black" points="1044,-90 1044,-105 1082,-105 1082,-90 1044,-90"/>
<text text-anchor="start" x="1056" y="-95.6" font-family="courier new" font-size="8.00">var</text>
<polygon fill="none" stroke="black" points="1044,-75 1044,-90 1082,-90 1082,-75 1044,-75"/>
<text text-anchor="start" x="1047" y="-80.6" font-family="courier new" font-size="8.00">tagName</text>
</g>
<!-- [root] azurerm_subscription_policy_assignment.inheritTagFromRGIFMissingPolicyAssignment (expand)&#45;&gt;[root] var.tagName -->
<g id="edge_23" class="edge">
<title>[root] azurerm_subscription_policy_assignment.inheritTagFromRGIFMissingPolicyAssignment (expand)&#45;&gt;[root] var.tagName</title>
<path fill="none" stroke="black" d="M1041.17,-143.7C1044.43,-135.81 1048.37,-126.3 1052,-117.55"/>
<polygon fill="black" stroke="black" points="1055.32,-118.68 1055.91,-108.1 1048.85,-116 1055.32,-118.68"/>
</g>
<!-- [root] var.location -->
<g id="node_17" class="node">
<title>[root] var.location</title>
<polygon fill="none" stroke="black" points="1362,-90 1362,-105 1405,-105 1405,-90 1362,-90"/>
<text text-anchor="start" x="1376.5" y="-95.6" font-family="courier new" font-size="8.00">var</text>
<polygon fill="none" stroke="black" points="1362,-75 1362,-90 1405,-90 1405,-75 1362,-75"/>
<text text-anchor="start" x="1365" y="-80.6" font-family="courier new" font-size="8.00">location</text>
</g>
<!-- [root] azurerm_subscription_policy_assignment.inheritTagFromRGIFMissingPolicyAssignment (expand)&#45;&gt;[root] var.location -->
<g id="edge_21" class="edge">
<title>[root] azurerm_subscription_policy_assignment.inheritTagFromRGIFMissingPolicyAssignment (expand)&#45;&gt;[root] var.location</title>
<path fill="none" stroke="black" d="M1129.73,-156.91C1191.78,-151.88 1273.5,-140.72 1342,-116 1344.56,-115.08 1347.13,-113.98 1349.67,-112.78"/>
<polygon fill="black" stroke="black" points="1351.45,-115.79 1358.66,-108.02 1348.18,-109.61 1351.45,-115.79"/>
</g>
<!-- [root] azurerm_subscription_policy_assignment.requireTagPolicyAssignment (expand) -->
<g id="node_5" class="node">
<title>[root] azurerm_subscription_policy_assignment.requireTagPolicyAssignment (expand)</title>
<polygon fill="none" stroke="black" points="727,-162 727,-177 905,-177 905,-162 727,-162"/>
<text text-anchor="start" x="730" y="-167.6" font-family="courier new" font-size="8.00">azurerm_subscription_policy_assignment</text>
<polygon fill="none" stroke="black" points="727,-147 727,-162 905,-162 905,-147 727,-147"/>
<text text-anchor="start" x="757" y="-152.6" font-family="courier new" font-size="8.00">requireTagPolicyAssignment</text>
</g>
<!-- [root] data.azurerm_policy_definition.requireTagPolicyDefinition (expand) -->
<g id="node_9" class="node">
<title>[root] data.azurerm_policy_definition.requireTagPolicyDefinition (expand)</title>
<polygon fill="none" stroke="black" points="740,-90 740,-105 864,-105 864,-90 740,-90"/>
<text text-anchor="start" x="745.5" y="-95.6" font-family="courier new" font-size="8.00">azurerm_policy_definition</text>
<polygon fill="none" stroke="black" points="740,-75 740,-90 864,-90 864,-75 740,-75"/>
<text text-anchor="start" x="743" y="-80.6" font-family="courier new" font-size="8.00">requireTagPolicyDefinition</text>
</g>
<!-- [root] azurerm_subscription_policy_assignment.requireTagPolicyAssignment (expand)&#45;&gt;[root] data.azurerm_policy_definition.requireTagPolicyDefinition (expand) -->
<g id="edge_24" class="edge">
<title>[root] azurerm_subscription_policy_assignment.requireTagPolicyAssignment (expand)&#45;&gt;[root] data.azurerm_policy_definition.requireTagPolicyDefinition (expand)</title>
<path fill="none" stroke="black" d="M812.54,-143.7C811,-135.98 809.14,-126.71 807.42,-118.11"/>
<polygon fill="black" stroke="black" points="810.81,-117.22 805.42,-108.1 803.95,-118.6 810.81,-117.22"/>
</g>
<!-- [root] azurerm_subscription_policy_assignment.requireTagPolicyAssignment (expand)&#45;&gt;[root] data.azurerm_resource_group.defaultRG (expand) -->
<g id="edge_25" class="edge">
<title>[root] azurerm_subscription_policy_assignment.requireTagPolicyAssignment (expand)&#45;&gt;[root] data.azurerm_resource_group.defaultRG (expand)</title>
<path fill="none" stroke="black" d="M726.99,-145.47C723.62,-144.96 720.28,-144.47 717,-144 607.18,-128.39 576.53,-143.21 469,-116 464.06,-114.75 459,-113.2 453.99,-111.48"/>
<polygon fill="black" stroke="black" points="455.08,-108.15 444.49,-108 452.68,-114.72 455.08,-108.15"/>
</g>
<!-- [root] azurerm_subscription_policy_assignment.requireTagPolicyAssignment (expand)&#45;&gt;[root] data.azurerm_resource_group.networkwatcherRG (expand) -->
<g id="edge_26" class="edge">
<title>[root] azurerm_subscription_policy_assignment.requireTagPolicyAssignment (expand)&#45;&gt;[root] data.azurerm_resource_group.networkwatcherRG (expand)</title>
<path fill="none" stroke="black" d="M726.85,-144.59C676.46,-134.99 618.74,-123.35 594,-116 589.63,-114.7 585.14,-113.22 580.67,-111.65"/>
<polygon fill="black" stroke="black" points="581.55,-108.25 570.96,-108.09 579.14,-114.82 581.55,-108.25"/>
</g>
<!-- [root] azurerm_subscription_policy_assignment.requireTagPolicyAssignment (expand)&#45;&gt;[root] data.azurerm_subscription.current (expand) -->
<g id="edge_27" class="edge">
<title>[root] azurerm_subscription_policy_assignment.requireTagPolicyAssignment (expand)&#45;&gt;[root] data.azurerm_subscription.current (expand)</title>
<path fill="none" stroke="black" d="M844.13,-143.88C859.17,-134.72 877.87,-123.34 894.06,-113.48"/>
<polygon fill="black" stroke="black" points="896.04,-116.38 902.76,-108.19 892.4,-110.4 896.04,-116.38"/>
</g>
<!-- [root] azurerm_subscription_policy_assignment.requireTagPolicyAssignment (expand)&#45;&gt;[root] var.resource -->
<g id="edge_28" class="edge">
<title>[root] azurerm_subscription_policy_assignment.requireTagPolicyAssignment (expand)&#45;&gt;[root] var.resource</title>
<path fill="none" stroke="black" d="M905.45,-146.72C941.25,-139.22 976.88,-128.88 989,-116 1006.4,-97.5 1010.03,-67.97 1010,-46.35"/>
<polygon fill="black" stroke="black" points="1013.49,-46.06 1009.72,-36.16 1006.5,-46.25 1013.49,-46.06"/>
</g>
<!-- [root] azurerm_subscription_policy_assignment.requireTagPolicyAssignment (expand)&#45;&gt;[root] var.tagName -->
<g id="edge_29" class="edge">
<title>[root] azurerm_subscription_policy_assignment.requireTagPolicyAssignment (expand)&#45;&gt;[root] var.tagName</title>
<path fill="none" stroke="black" d="M905.13,-148.22C942.12,-141.21 984.96,-130.85 1022,-116 1024.14,-115.14 1026.29,-114.18 1028.43,-113.14"/>
<polygon fill="black" stroke="black" points="1030.47,-116.02 1037.66,-108.23 1027.18,-109.84 1030.47,-116.02"/>
</g>
<!-- [root] data.azurerm_policy_definition.allowedLocationPolicyDefinition (expand)&#45;&gt;[root] provider[&quot;registry.terraform.io/hashicorp/azurerm&quot;] -->
<g id="edge_30" class="edge">
<title>[root] data.azurerm_policy_definition.allowedLocationPolicyDefinition (expand)&#45;&gt;[root] provider[&quot;registry.terraform.io/hashicorp/azurerm&quot;]</title>
<path fill="none" stroke="black" d="M1453.43,-71.89C1443.18,-68.78 1432.32,-65.92 1422,-64 1225.01,-27.27 1171.94,-49.3 972,-36 912.85,-32.07 845.54,-27.27 797.28,-23.78"/>
<polygon fill="black" stroke="black" points="797.51,-20.28 787.28,-23.05 797,-27.26 797.51,-20.28"/>
</g>
<!-- [root] data.azurerm_policy_definition.allowedSkuPolicyDefinition (expand)&#45;&gt;[root] provider[&quot;registry.terraform.io/hashicorp/azurerm&quot;] -->
<g id="edge_31" class="edge">
<title>[root] data.azurerm_policy_definition.allowedSkuPolicyDefinition (expand)&#45;&gt;[root] provider[&quot;registry.terraform.io/hashicorp/azurerm&quot;]</title>
<path fill="none" stroke="black" d="M198.17,-71.95C207.91,-68.88 218.21,-66.02 228,-64 383.23,-31.98 570,-22.74 666.75,-20.08"/>
<polygon fill="black" stroke="black" points="667.05,-23.57 676.96,-19.81 666.87,-16.57 667.05,-23.57"/>
</g>
<!-- [root] data.azurerm_policy_definition.inheritTagFromRGIFMissingPolicyDefinition (expand)&#45;&gt;[root] provider[&quot;registry.terraform.io/hashicorp/azurerm&quot;] -->
<g id="edge_32" class="edge">
<title>[root] data.azurerm_policy_definition.inheritTagFromRGIFMissingPolicyDefinition (expand)&#45;&gt;[root] provider[&quot;registry.terraform.io/hashicorp/azurerm&quot;]</title>
<path fill="none" stroke="black" d="M1137.3,-71.94C1124.63,-69.03 1111.45,-66.24 1099,-64 994.01,-45.12 870.67,-31.79 797.05,-24.76"/>
<polygon fill="black" stroke="black" points="797.29,-21.27 787,-23.81 796.63,-28.24 797.29,-21.27"/>
</g>
<!-- [root] data.azurerm_policy_definition.requireTagPolicyDefinition (expand)&#45;&gt;[root] provider[&quot;registry.terraform.io/hashicorp/azurerm&quot;] -->
<g id="edge_33" class="edge">
<title>[root] data.azurerm_policy_definition.requireTagPolicyDefinition (expand)&#45;&gt;[root] provider[&quot;registry.terraform.io/hashicorp/azurerm&quot;]</title>
<path fill="none" stroke="black" d="M784.7,-71.7C776.14,-63.14 765.66,-52.66 756.3,-43.3"/>
<polygon fill="black" stroke="black" points="758.65,-40.7 749.1,-36.1 753.7,-45.65 758.65,-40.7"/>
</g>
<!-- [root] data.azurerm_resource_group.defaultRG (expand)&#45;&gt;[root] provider[&quot;registry.terraform.io/hashicorp/azurerm&quot;] -->
<g id="edge_34" class="edge">
<title>[root] data.azurerm_resource_group.defaultRG (expand)&#45;&gt;[root] provider[&quot;registry.terraform.io/hashicorp/azurerm&quot;]</title>
<path fill="none" stroke="black" d="M445.58,-71.97C453.24,-69.01 461.3,-66.19 469,-64 535.15,-45.24 613.01,-33.1 666.76,-26.22"/>
<polygon fill="black" stroke="black" points="667.35,-29.67 676.84,-24.95 666.48,-22.73 667.35,-29.67"/>
</g>
<!-- [root] data.azurerm_resource_group.networkwatcherRG (expand)&#45;&gt;[root] provider[&quot;registry.terraform.io/hashicorp/azurerm&quot;] -->
<g id="edge_35" class="edge">
<title>[root] data.azurerm_resource_group.networkwatcherRG (expand)&#45;&gt;[root] provider[&quot;registry.terraform.io/hashicorp/azurerm&quot;]</title>
<path fill="none" stroke="black" d="M572.88,-71.96C579.9,-69.22 587.14,-66.48 594,-64 617.75,-55.43 644.04,-46.67 667.26,-39.19"/>
<polygon fill="black" stroke="black" points="668.54,-42.45 677,-36.07 666.41,-35.79 668.54,-42.45"/>
</g>
<!-- [root] data.azurerm_subscription.current (expand)&#45;&gt;[root] provider[&quot;registry.terraform.io/hashicorp/azurerm&quot;] -->
<g id="edge_36" class="edge">
<title>[root] data.azurerm_subscription.current (expand)&#45;&gt;[root] provider[&quot;registry.terraform.io/hashicorp/azurerm&quot;]</title>
<path fill="none" stroke="black" d="M892.84,-71.92C886.27,-69.16 879.47,-66.42 873,-64 848.46,-54.82 821.11,-45.82 797.07,-38.3"/>
<polygon fill="black" stroke="black" points="797.92,-34.9 787.34,-35.29 795.85,-41.59 797.92,-34.9"/>
</g>
<!-- [root] provider[&quot;registry.terraform.io/hashicorp/azurerm&quot;] (close) -->
<g id="node_20" class="node">
<title>[root] provider[&quot;registry.terraform.io/hashicorp/azurerm&quot;] (close)</title>
<polygon fill="none" stroke="black" points="761,-234 761,-249 871,-249 871,-234 761,-234"/>
<text text-anchor="start" x="795.5" y="-239.6" font-family="courier new" font-size="8.00">terraform</text>
<polygon fill="none" stroke="black" points="761,-219 761,-234 871,-234 871,-219 761,-219"/>
<text text-anchor="start" x="764" y="-224.6" font-family="courier new" font-size="8.00">io/hashicorp/azurerm\&quot;]</text>
</g>
<!-- [root] provider[&quot;registry.terraform.io/hashicorp/azurerm&quot;] (close)&#45;&gt;[root] azurerm_subscription_policy_assignment.allowedImagesPolicyAssignment (expand) -->
<g id="edge_37" class="edge">
<title>[root] provider[&quot;registry.terraform.io/hashicorp/azurerm&quot;] (close)&#45;&gt;[root] azurerm_subscription_policy_assignment.allowedImagesPolicyAssignment (expand)</title>
<path fill="none" stroke="black" d="M768.06,-215.97C740.53,-206.19 705.78,-193.84 676.76,-183.52"/>
<polygon fill="black" stroke="black" points="677.75,-180.16 667.15,-180.11 675.41,-186.76 677.75,-180.16"/>
</g>
<!-- [root] provider[&quot;registry.terraform.io/hashicorp/azurerm&quot;] (close)&#45;&gt;[root] azurerm_subscription_policy_assignment.allowedLocationPolicyAssignment (expand) -->
<g id="edge_38" class="edge">
<title>[root] provider[&quot;registry.terraform.io/hashicorp/azurerm&quot;] (close)&#45;&gt;[root] azurerm_subscription_policy_assignment.allowedLocationPolicyAssignment (expand)</title>
<path fill="none" stroke="black" d="M871.19,-227.36C986.63,-215.56 1255.01,-188.14 1401.4,-173.18"/>
<polygon fill="black" stroke="black" points="1402.13,-176.62 1411.73,-172.12 1401.42,-169.66 1402.13,-176.62"/>
</g>
<!-- [root] provider[&quot;registry.terraform.io/hashicorp/azurerm&quot;] (close)&#45;&gt;[root] azurerm_subscription_policy_assignment.allowedSkuPolicyAssignment (expand) -->
<g id="edge_39" class="edge">
<title>[root] provider[&quot;registry.terraform.io/hashicorp/azurerm&quot;] (close)&#45;&gt;[root] azurerm_subscription_policy_assignment.allowedSkuPolicyAssignment (expand)</title>
<path fill="none" stroke="black" d="M760.84,-223.56C695.7,-212.41 586.13,-193.66 506.14,-179.97"/>
<polygon fill="black" stroke="black" points="506.49,-176.48 496.04,-178.24 505.31,-183.38 506.49,-176.48"/>
</g>
<!-- [root] provider[&quot;registry.terraform.io/hashicorp/azurerm&quot;] (close)&#45;&gt;[root] azurerm_subscription_policy_assignment.inheritTagFromRGIFMissingPolicyAssignment (expand) -->
<g id="edge_40" class="edge">
<title>[root] provider[&quot;registry.terraform.io/hashicorp/azurerm&quot;] (close)&#45;&gt;[root] azurerm_subscription_policy_assignment.inheritTagFromRGIFMissingPolicyAssignment (expand)</title>
<path fill="none" stroke="black" d="M869.05,-215.97C899.77,-206.1 938.64,-193.62 970.92,-183.25"/>
<polygon fill="black" stroke="black" points="972.26,-186.5 980.71,-180.11 970.12,-179.84 972.26,-186.5"/>
</g>
<!-- [root] provider[&quot;registry.terraform.io/hashicorp/azurerm&quot;] (close)&#45;&gt;[root] azurerm_subscription_policy_assignment.requireTagPolicyAssignment (expand) -->
<g id="edge_41" class="edge">
<title>[root] provider[&quot;registry.terraform.io/hashicorp/azurerm&quot;] (close)&#45;&gt;[root] azurerm_subscription_policy_assignment.requireTagPolicyAssignment (expand)</title>
<path fill="none" stroke="black" d="M816,-215.7C816,-207.98 816,-198.71 816,-190.11"/>
<polygon fill="black" stroke="black" points="819.5,-190.1 816,-180.1 812.5,-190.1 819.5,-190.1"/>
</g>
<!-- [root] root -->
<g id="node_21" class="node">
<title>[root] root</title>
<polygon fill="none" stroke="black" points="849,-324 783,-324 783,-288 849,-288 849,-324"/>
<text text-anchor="middle" x="816" y="-304.1" font-family="courier new" font-size="8.00">[root] root</text>
</g>
<!-- [root] root&#45;&gt;[root] provider[&quot;registry.terraform.io/hashicorp/azurerm&quot;] (close) -->
<g id="edge_42" class="edge">
<title>[root] root&#45;&gt;[root] provider[&quot;registry.terraform.io/hashicorp/azurerm&quot;] (close)</title>
<path fill="none" stroke="black" d="M816,-287.7C816,-279.98 816,-270.71 816,-262.11"/>
<polygon fill="black" stroke="black" points="819.5,-262.1 816,-252.1 812.5,-262.1 819.5,-262.1"/>
</g>
</g>
</svg>

