<?xml version="1.0" encoding="UTF-8" standalone="no"?>
<!DOCTYPE svg PUBLIC "-//W3C//DTD SVG 1.1//EN"
 "http://www.w3.org/Graphics/SVG/1.1/DTD/svg11.dtd">
<!-- Generated by graphviz version 2.49.3 (20211023.0002)
 -->
<!-- Pages: 1 -->
<svg width="2614pt" height="332pt"
 viewBox="0.00 0.00 2614.42 332.00" xmlns="http://www.w3.org/2000/svg" xmlns:xlink="http://www.w3.org/1999/xlink">
<g id="graph0" class="graph" transform="scale(1 1) rotate(0) translate(4 328)">
<polygon fill="white" stroke="transparent" points="-4,4 -4,-328 2610.42,-328 2610.42,4 -4,4"/>
<!-- [root] azurerm_policy_assignment.allowedImagesPolicyAssignment (expand) -->
<g id="node1" class="node">
<title>[root] azurerm_policy_assignment.allowedImagesPolicyAssignment (expand)</title>
<polygon fill="none" stroke="black" points="796.69,-180 437.69,-180 437.69,-144 796.69,-144 796.69,-180"/>
<text text-anchor="middle" x="617.19" y="-158.3" font-family="Times New Roman,serif" font-size="14.00">azurerm_policy_assignment.allowedImagesPolicyAssignment</text>
</g>
<!-- [root] azurerm_policy_definition.allowedimagespolicy (expand) -->
<g id="node5" class="node">
<title>[root] azurerm_policy_definition.allowedimagespolicy (expand)</title>
<polygon fill="none" stroke="black" points="634.69,-108 353.69,-108 353.69,-72 634.69,-72 634.69,-108"/>
<text text-anchor="middle" x="494.19" y="-86.3" font-family="Times New Roman,serif" font-size="14.00">azurerm_policy_definition.allowedimagespolicy</text>
</g>
<!-- [root] azurerm_policy_assignment.allowedImagesPolicyAssignment (expand)&#45;&gt;[root] azurerm_policy_definition.allowedimagespolicy (expand) -->
<g id="edge1" class="edge">
<title>[root] azurerm_policy_assignment.allowedImagesPolicyAssignment (expand)&#45;&gt;[root] azurerm_policy_definition.allowedimagespolicy (expand)</title>
<path fill="none" stroke="black" d="M587.1,-143.88C570.87,-134.64 550.65,-123.13 533.22,-113.21"/>
<polygon fill="black" stroke="black" points="534.81,-110.09 524.39,-108.19 531.35,-116.18 534.81,-110.09"/>
</g>
<!-- [root] var.allowedSkus -->
<g id="node11" class="node">
<title>[root] var.allowedSkus</title>
<polygon fill="none" stroke="black" points="329.19,-108 227.19,-108 227.19,-72 335.19,-72 335.19,-102 329.19,-108"/>
<polyline fill="none" stroke="black" points="329.19,-108 329.19,-102 "/>
<polyline fill="none" stroke="black" points="335.19,-102 329.19,-102 "/>
<text text-anchor="middle" x="281.19" y="-86.3" font-family="Times New Roman,serif" font-size="14.00">var.allowedSkus</text>
</g>
<!-- [root] azurerm_policy_assignment.allowedImagesPolicyAssignment (expand)&#45;&gt;[root] var.allowedSkus -->
<g id="edge2" class="edge">
<title>[root] azurerm_policy_assignment.allowedImagesPolicyAssignment (expand)&#45;&gt;[root] var.allowedSkus</title>
<path fill="none" stroke="black" d="M520.49,-143.98C470.68,-134.79 408.78,-122.73 345.22,-108.16"/>
<polygon fill="black" stroke="black" points="345.95,-104.74 335.42,-105.9 344.38,-111.56 345.95,-104.74"/>
</g>
<!-- [root] var.networkwatcher_rg_Id -->
<g id="node12" class="node">
<title>[root] var.networkwatcher_rg_Id</title>
<polygon fill="none" stroke="black" points="811.19,-108 653.19,-108 653.19,-72 817.19,-72 817.19,-102 811.19,-108"/>
<polyline fill="none" stroke="black" points="811.19,-108 811.19,-102 "/>
<polyline fill="none" stroke="black" points="817.19,-102 811.19,-102 "/>
<text text-anchor="middle" x="735.19" y="-86.3" font-family="Times New Roman,serif" font-size="14.00">var.networkwatcher_rg_Id</text>
</g>
<!-- [root] azurerm_policy_assignment.allowedImagesPolicyAssignment (expand)&#45;&gt;[root] var.networkwatcher_rg_Id -->
<g id="edge3" class="edge">
<title>[root] azurerm_policy_assignment.allowedImagesPolicyAssignment (expand)&#45;&gt;[root] var.networkwatcher_rg_Id</title>
<path fill="none" stroke="black" d="M646.05,-143.88C661.48,-134.72 680.67,-123.34 697.28,-113.48"/>
<polygon fill="black" stroke="black" points="699.4,-116.3 706.21,-108.19 695.82,-110.28 699.4,-116.3"/>
</g>
<!-- [root] var.subscriptionId -->
<g id="node14" class="node">
<title>[root] var.subscriptionId</title>
<polygon fill="none" stroke="black" points="948.69,-108 835.69,-108 835.69,-72 954.69,-72 954.69,-102 948.69,-108"/>
<polyline fill="none" stroke="black" points="948.69,-108 948.69,-102 "/>
<polyline fill="none" stroke="black" points="954.69,-102 948.69,-102 "/>
<text text-anchor="middle" x="895.19" y="-86.3" font-family="Times New Roman,serif" font-size="14.00">var.subscriptionId</text>
</g>
<!-- [root] azurerm_policy_assignment.allowedImagesPolicyAssignment (expand)&#45;&gt;[root] var.subscriptionId -->
<g id="edge4" class="edge">
<title>[root] azurerm_policy_assignment.allowedImagesPolicyAssignment (expand)&#45;&gt;[root] var.subscriptionId</title>
<path fill="none" stroke="black" d="M684.84,-143.97C727.48,-133.23 782.42,-119.39 825.46,-108.56"/>
<polygon fill="black" stroke="black" points="826.44,-111.92 835.28,-106.08 824.73,-105.13 826.44,-111.92"/>
</g>
<!-- [root] azurerm_policy_assignment.allowedLocationPolicyAssignment (expand) -->
<g id="node2" class="node">
<title>[root] azurerm_policy_assignment.allowedLocationPolicyAssignment (expand)</title>
<polygon fill="none" stroke="black" points="1537.19,-180 1169.19,-180 1169.19,-144 1537.19,-144 1537.19,-180"/>
<text text-anchor="middle" x="1353.19" y="-158.3" font-family="Times New Roman,serif" font-size="14.00">azurerm_policy_assignment.allowedLocationPolicyAssignment</text>
</g>
<!-- [root] provider[&quot;registry.terraform.io/hashicorp/azurerm&quot;] -->
<g id="node6" class="node">
<title>[root] provider[&quot;registry.terraform.io/hashicorp/azurerm&quot;]</title>
<polygon fill="none" stroke="black" points="719.19,-36 441.52,-18 719.19,0 996.86,-18 719.19,-36"/>
<text text-anchor="middle" x="719.19" y="-14.3" font-family="Times New Roman,serif" font-size="14.00">provider[&quot;registry.terraform.io/hashicorp/azurerm&quot;]</text>
</g>
<!-- [root] azurerm_policy_assignment.allowedLocationPolicyAssignment (expand)&#45;&gt;[root] provider[&quot;registry.terraform.io/hashicorp/azurerm&quot;] -->
<g id="edge5" class="edge">
<title>[root] azurerm_policy_assignment.allowedLocationPolicyAssignment (expand)&#45;&gt;[root] provider[&quot;registry.terraform.io/hashicorp/azurerm&quot;]</title>
<path fill="none" stroke="black" d="M1335.15,-143.78C1311.98,-122.82 1269.56,-88.21 1226.19,-72 1164.44,-48.92 1002.88,-34.75 878.58,-26.94"/>
<polygon fill="black" stroke="black" points="878.76,-23.45 868.57,-26.32 878.33,-30.44 878.76,-23.45"/>
</g>
<!-- [root] var.allowedLocationSubPolicyId -->
<g id="node8" class="node">
<title>[root] var.allowedLocationSubPolicyId</title>
<polygon fill="none" stroke="black" points="1543.19,-108 1349.19,-108 1349.19,-72 1549.19,-72 1549.19,-102 1543.19,-108"/>
<polyline fill="none" stroke="black" points="1543.19,-108 1543.19,-102 "/>
<polyline fill="none" stroke="black" points="1549.19,-102 1543.19,-102 "/>
<text text-anchor="middle" x="1449.19" y="-86.3" font-family="Times New Roman,serif" font-size="14.00">var.allowedLocationSubPolicyId</text>
</g>
<!-- [root] azurerm_policy_assignment.allowedLocationPolicyAssignment (expand)&#45;&gt;[root] var.allowedLocationSubPolicyId -->
<g id="edge6" class="edge">
<title>[root] azurerm_policy_assignment.allowedLocationPolicyAssignment (expand)&#45;&gt;[root] var.allowedLocationSubPolicyId</title>
<path fill="none" stroke="black" d="M1376.92,-143.7C1389.12,-134.8 1404.17,-123.82 1417.37,-114.2"/>
<polygon fill="black" stroke="black" points="1419.71,-116.82 1425.73,-108.1 1415.59,-111.17 1419.71,-116.82"/>
</g>
<!-- [root] var.allowedLocations -->
<g id="node9" class="node">
<title>[root] var.allowedLocations</title>
<polygon fill="none" stroke="black" points="1697.19,-108 1567.19,-108 1567.19,-72 1703.19,-72 1703.19,-102 1697.19,-108"/>
<polyline fill="none" stroke="black" points="1697.19,-108 1697.19,-102 "/>
<polyline fill="none" stroke="black" points="1703.19,-102 1697.19,-102 "/>
<text text-anchor="middle" x="1635.19" y="-86.3" font-family="Times New Roman,serif" font-size="14.00">var.allowedLocations</text>
</g>
<!-- [root] azurerm_policy_assignment.allowedLocationPolicyAssignment (expand)&#45;&gt;[root] var.allowedLocations -->
<g id="edge7" class="edge">
<title>[root] azurerm_policy_assignment.allowedLocationPolicyAssignment (expand)&#45;&gt;[root] var.allowedLocations</title>
<path fill="none" stroke="black" d="M1421.81,-143.97C1462.65,-133.83 1514.6,-120.93 1557.02,-110.4"/>
<polygon fill="black" stroke="black" points="1557.88,-113.8 1566.74,-107.99 1556.2,-107 1557.88,-113.8"/>
</g>
<!-- [root] var.resource -->
<g id="node13" class="node">
<title>[root] var.resource</title>
<polygon fill="none" stroke="black" points="1207.19,-36 1127.19,-36 1127.19,0 1213.19,0 1213.19,-30 1207.19,-36"/>
<polyline fill="none" stroke="black" points="1207.19,-36 1207.19,-30 "/>
<polyline fill="none" stroke="black" points="1213.19,-30 1207.19,-30 "/>
<text text-anchor="middle" x="1170.19" y="-14.3" font-family="Times New Roman,serif" font-size="14.00">var.resource</text>
</g>
<!-- [root] azurerm_policy_assignment.allowedLocationPolicyAssignment (expand)&#45;&gt;[root] var.resource -->
<g id="edge8" class="edge">
<title>[root] azurerm_policy_assignment.allowedLocationPolicyAssignment (expand)&#45;&gt;[root] var.resource</title>
<path fill="none" stroke="black" d="M1346.18,-143.7C1337.4,-123.95 1320.6,-91.81 1297.19,-72 1275.85,-53.95 1247.5,-41.33 1223,-32.94"/>
<polygon fill="black" stroke="black" points="1224.06,-29.61 1213.47,-29.83 1221.88,-36.26 1224.06,-29.61"/>
</g>
<!-- [root] azurerm_policy_assignment.allowedLocationPolicyAssignment (expand)&#45;&gt;[root] var.subscriptionId -->
<g id="edge9" class="edge">
<title>[root] azurerm_policy_assignment.allowedLocationPolicyAssignment (expand)&#45;&gt;[root] var.subscriptionId</title>
<path fill="none" stroke="black" d="M1238.94,-143.98C1170.29,-133.69 1081.21,-120.24 1002.19,-108 990.09,-106.13 977.22,-104.1 964.76,-102.13"/>
<polygon fill="black" stroke="black" points="965.31,-98.68 954.88,-100.57 964.21,-105.59 965.31,-98.68"/>
</g>
<!-- [root] azurerm_policy_assignment.allowedSkuPolicyAssignment (expand) -->
<g id="node3" class="node">
<title>[root] azurerm_policy_assignment.allowedSkuPolicyAssignment (expand)</title>
<polygon fill="none" stroke="black" points="419.69,-180 78.69,-180 78.69,-144 419.69,-144 419.69,-180"/>
<text text-anchor="middle" x="249.19" y="-158.3" font-family="Times New Roman,serif" font-size="14.00">azurerm_policy_assignment.allowedSkuPolicyAssignment</text>
</g>
<!-- [root] azurerm_policy_assignment.allowedSkuPolicyAssignment (expand)&#45;&gt;[root] provider[&quot;registry.terraform.io/hashicorp/azurerm&quot;] -->
<g id="edge10" class="edge">
<title>[root] azurerm_policy_assignment.allowedSkuPolicyAssignment (expand)&#45;&gt;[root] provider[&quot;registry.terraform.io/hashicorp/azurerm&quot;]</title>
<path fill="none" stroke="black" d="M83.74,-143.96C23.31,-131.34 -22.64,-109.54 12.19,-72 43.85,-37.87 285.02,-25.57 477.01,-21.22"/>
<polygon fill="black" stroke="black" points="477.34,-24.71 487.26,-20.99 477.19,-17.71 477.34,-24.71"/>
</g>
<!-- [root] var.allowedSkuPolicyId -->
<g id="node10" class="node">
<title>[root] var.allowedSkuPolicyId</title>
<polygon fill="none" stroke="black" points="164.69,-108 21.69,-108 21.69,-72 170.69,-72 170.69,-102 164.69,-108"/>
<polyline fill="none" stroke="black" points="164.69,-108 164.69,-102 "/>
<polyline fill="none" stroke="black" points="170.69,-102 164.69,-102 "/>
<text text-anchor="middle" x="96.19" y="-86.3" font-family="Times New Roman,serif" font-size="14.00">var.allowedSkuPolicyId</text>
</g>
<!-- [root] azurerm_policy_assignment.allowedSkuPolicyAssignment (expand)&#45;&gt;[root] var.allowedSkuPolicyId -->
<g id="edge11" class="edge">
<title>[root] azurerm_policy_assignment.allowedSkuPolicyAssignment (expand)&#45;&gt;[root] var.allowedSkuPolicyId</title>
<path fill="none" stroke="black" d="M211.76,-143.88C190.94,-134.35 164.83,-122.41 142.71,-112.28"/>
<polygon fill="black" stroke="black" points="144.04,-109.05 133.49,-108.07 141.13,-115.41 144.04,-109.05"/>
</g>
<!-- [root] azurerm_policy_assignment.allowedSkuPolicyAssignment (expand)&#45;&gt;[root] var.allowedSkus -->
<g id="edge12" class="edge">
<title>[root] azurerm_policy_assignment.allowedSkuPolicyAssignment (expand)&#45;&gt;[root] var.allowedSkus</title>
<path fill="none" stroke="black" d="M257.1,-143.7C260.74,-135.73 265.14,-126.1 269.18,-117.26"/>
<polygon fill="black" stroke="black" points="272.39,-118.65 273.37,-108.1 266.03,-115.74 272.39,-118.65"/>
</g>
<!-- [root] azurerm_policy_assignment.allowedSkuPolicyAssignment (expand)&#45;&gt;[root] var.networkwatcher_rg_Id -->
<g id="edge13" class="edge">
<title>[root] azurerm_policy_assignment.allowedSkuPolicyAssignment (expand)&#45;&gt;[root] var.networkwatcher_rg_Id</title>
<path fill="none" stroke="black" d="M388.47,-143.95C461.32,-134.63 552.2,-122.36 643.03,-107.98"/>
<polygon fill="black" stroke="black" points="643.64,-111.43 652.96,-106.4 642.54,-104.51 643.64,-111.43"/>
</g>
<!-- [root] azurerm_policy_assignment.allowedSkuPolicyAssignment (expand)&#45;&gt;[root] var.resource -->
<g id="edge14" class="edge">
<title>[root] azurerm_policy_assignment.allowedSkuPolicyAssignment (expand)&#45;&gt;[root] var.resource</title>
<path fill="none" stroke="black" d="M233.99,-143.73C218.48,-123.99 199.2,-91.88 218.19,-72 248.46,-40.31 962.49,-39.26 1006.19,-36 1043.28,-33.23 1084.97,-28.89 1117.03,-25.29"/>
<polygon fill="black" stroke="black" points="1117.54,-28.76 1127.09,-24.15 1116.75,-21.8 1117.54,-28.76"/>
</g>
<!-- [root] azurerm_policy_assignment.allowedSkuPolicyAssignment (expand)&#45;&gt;[root] var.subscriptionId -->
<g id="edge15" class="edge">
<title>[root] azurerm_policy_assignment.allowedSkuPolicyAssignment (expand)&#45;&gt;[root] var.subscriptionId</title>
<path fill="none" stroke="black" d="M419.73,-144.79C422.57,-144.52 425.39,-144.26 428.19,-144 601.76,-127.91 649.26,-136.98 825.34,-107.99"/>
<polygon fill="black" stroke="black" points="826.17,-111.4 835.46,-106.3 825.02,-104.49 826.17,-111.4"/>
</g>
<!-- [root] azurerm_policy_assignment.requireTagPolicyAssignment (expand) -->
<g id="node4" class="node">
<title>[root] azurerm_policy_assignment.requireTagPolicyAssignment (expand)</title>
<polygon fill="none" stroke="black" points="1151.19,-180 815.19,-180 815.19,-144 1151.19,-144 1151.19,-180"/>
<text text-anchor="middle" x="983.19" y="-158.3" font-family="Times New Roman,serif" font-size="14.00">azurerm_policy_assignment.requireTagPolicyAssignment</text>
</g>
<!-- [root] azurerm_policy_assignment.requireTagPolicyAssignment (expand)&#45;&gt;[root] provider[&quot;registry.terraform.io/hashicorp/azurerm&quot;] -->
<g id="edge16" class="edge">
<title>[root] azurerm_policy_assignment.requireTagPolicyAssignment (expand)&#45;&gt;[root] provider[&quot;registry.terraform.io/hashicorp/azurerm&quot;]</title>
<path fill="none" stroke="black" d="M984.41,-143.68C984.81,-123.6 982.18,-90.86 963.19,-72 943.67,-52.62 883.56,-39.43 827.89,-31.06"/>
<polygon fill="black" stroke="black" points="828.32,-27.59 817.92,-29.6 827.31,-34.51 828.32,-27.59"/>
</g>
<!-- [root] azurerm_policy_assignment.requireTagPolicyAssignment (expand)&#45;&gt;[root] var.networkwatcher_rg_Id -->
<g id="edge17" class="edge">
<title>[root] azurerm_policy_assignment.requireTagPolicyAssignment (expand)&#45;&gt;[root] var.networkwatcher_rg_Id</title>
<path fill="none" stroke="black" d="M922.84,-143.97C887.43,-133.97 842.53,-121.3 805.53,-110.85"/>
<polygon fill="black" stroke="black" points="806.38,-107.46 795.81,-108.11 804.48,-114.2 806.38,-107.46"/>
</g>
<!-- [root] azurerm_policy_assignment.requireTagPolicyAssignment (expand)&#45;&gt;[root] var.resource -->
<g id="edge18" class="edge">
<title>[root] azurerm_policy_assignment.requireTagPolicyAssignment (expand)&#45;&gt;[root] var.resource</title>
<path fill="none" stroke="black" d="M1132.43,-144C1174.79,-135.93 1213.02,-124.35 1226.19,-108 1242.84,-87.32 1222.5,-61.42 1201.83,-42.9"/>
<polygon fill="black" stroke="black" points="1203.84,-40.02 1193.96,-36.19 1199.3,-45.34 1203.84,-40.02"/>
</g>
<!-- [root] azurerm_policy_assignment.requireTagPolicyAssignment (expand)&#45;&gt;[root] var.subscriptionId -->
<g id="edge19" class="edge">
<title>[root] azurerm_policy_assignment.requireTagPolicyAssignment (expand)&#45;&gt;[root] var.subscriptionId</title>
<path fill="none" stroke="black" d="M961.43,-143.7C950.35,-134.88 936.71,-124.03 924.7,-114.47"/>
<polygon fill="black" stroke="black" points="926.69,-111.59 916.69,-108.1 922.34,-117.07 926.69,-111.59"/>
</g>
<!-- [root] var.tagName -->
<g id="node15" class="node">
<title>[root] var.tagName</title>
<polygon fill="none" stroke="black" points="1211.19,-108 1131.19,-108 1131.19,-72 1217.19,-72 1217.19,-102 1211.19,-108"/>
<polyline fill="none" stroke="black" points="1211.19,-108 1211.19,-102 "/>
<polyline fill="none" stroke="black" points="1217.19,-102 1211.19,-102 "/>
<text text-anchor="middle" x="1174.19" y="-86.3" font-family="Times New Roman,serif" font-size="14.00">var.tagName</text>
</g>
<!-- [root] azurerm_policy_assignment.requireTagPolicyAssignment (expand)&#45;&gt;[root] var.tagName -->
<g id="edge20" class="edge">
<title>[root] azurerm_policy_assignment.requireTagPolicyAssignment (expand)&#45;&gt;[root] var.tagName</title>
<path fill="none" stroke="black" d="M1029.91,-143.88C1057.59,-133.73 1092.75,-120.85 1121.43,-110.33"/>
<polygon fill="black" stroke="black" points="1122.7,-113.6 1130.89,-106.87 1120.29,-107.02 1122.7,-113.6"/>
</g>
<!-- [root] var.tagPolicyId -->
<g id="node16" class="node">
<title>[root] var.tagPolicyId</title>
<polygon fill="none" stroke="black" points="1106.69,-108 1011.69,-108 1011.69,-72 1112.69,-72 1112.69,-102 1106.69,-108"/>
<polyline fill="none" stroke="black" points="1106.69,-108 1106.69,-102 "/>
<polyline fill="none" stroke="black" points="1112.69,-102 1106.69,-102 "/>
<text text-anchor="middle" x="1062.19" y="-86.3" font-family="Times New Roman,serif" font-size="14.00">var.tagPolicyId</text>
</g>
<!-- [root] azurerm_policy_assignment.requireTagPolicyAssignment (expand)&#45;&gt;[root] var.tagPolicyId -->
<g id="edge21" class="edge">
<title>[root] azurerm_policy_assignment.requireTagPolicyAssignment (expand)&#45;&gt;[root] var.tagPolicyId</title>
<path fill="none" stroke="black" d="M1002.72,-143.7C1012.57,-134.97 1024.67,-124.24 1035.38,-114.75"/>
<polygon fill="black" stroke="black" points="1037.72,-117.36 1042.88,-108.1 1033.08,-112.12 1037.72,-117.36"/>
</g>
<!-- [root] azurerm_policy_definition.allowedimagespolicy (expand)&#45;&gt;[root] provider[&quot;registry.terraform.io/hashicorp/azurerm&quot;] -->
<g id="edge22" class="edge">
<title>[root] azurerm_policy_definition.allowedimagespolicy (expand)&#45;&gt;[root] provider[&quot;registry.terraform.io/hashicorp/azurerm&quot;]</title>
<path fill="none" stroke="black" d="M548.94,-71.97C583.9,-61.09 629.06,-47.04 664.08,-36.14"/>
<polygon fill="black" stroke="black" points="665.17,-39.47 673.68,-33.16 663.09,-32.79 665.17,-39.47"/>
</g>
<!-- [root] azurerm_policy_definition.allowedimagespolicy (expand)&#45;&gt;[root] var.resource -->
<g id="edge23" class="edge">
<title>[root] azurerm_policy_definition.allowedimagespolicy (expand)&#45;&gt;[root] var.resource</title>
<path fill="none" stroke="black" d="M634.71,-73.02C637.9,-72.67 641.06,-72.33 644.19,-72 804.96,-54.9 845.33,-52.34 1006.19,-36 1043.19,-32.24 1084.88,-27.92 1116.97,-24.57"/>
<polygon fill="black" stroke="black" points="1117.45,-28.04 1127.03,-23.52 1116.72,-21.08 1117.45,-28.04"/>
</g>
<!-- [root] var.allowedImages -->
<g id="node7" class="node">
<title>[root] var.allowedImages</title>
<polygon fill="none" stroke="black" points="1764.19,-180 1650.19,-180 1650.19,-144 1770.19,-144 1770.19,-174 1764.19,-180"/>
<polyline fill="none" stroke="black" points="1764.19,-180 1764.19,-174 "/>
<polyline fill="none" stroke="black" points="1770.19,-174 1764.19,-174 "/>
<text text-anchor="middle" x="1710.19" y="-158.3" font-family="Times New Roman,serif" font-size="14.00">var.allowedImages</text>
</g>
<!-- [root] local.allowedOffers (expand) -->
<g id="node17" class="node">
<title>[root] local.allowedOffers (expand)</title>
<ellipse fill="none" stroke="black" cx="1805.19" cy="-234" rx="139.98" ry="18"/>
<text text-anchor="middle" x="1805.19" y="-230.3" font-family="Times New Roman,serif" font-size="14.00">[root] local.allowedOffers (expand)</text>
</g>
<!-- [root] local.allowedOffers (expand)&#45;&gt;[root] var.allowedImages -->
<g id="edge24" class="edge">
<title>[root] local.allowedOffers (expand)&#45;&gt;[root] var.allowedImages</title>
<path fill="none" stroke="black" d="M1782.19,-216.05C1770.03,-207.09 1754.91,-195.96 1741.68,-186.2"/>
<polygon fill="black" stroke="black" points="1743.43,-183.15 1733.3,-180.03 1739.28,-188.78 1743.43,-183.15"/>
</g>
<!-- [root] local.allowedPublishers (expand) -->
<g id="node18" class="node">
<title>[root] local.allowedPublishers (expand)</title>
<ellipse fill="none" stroke="black" cx="2116.19" cy="-234" rx="153.27" ry="18"/>
<text text-anchor="middle" x="2116.19" y="-230.3" font-family="Times New Roman,serif" font-size="14.00">[root] local.allowedPublishers (expand)</text>
</g>
<!-- [root] local.allowedPublishers (expand)&#45;&gt;[root] var.allowedImages -->
<g id="edge25" class="edge">
<title>[root] local.allowedPublishers (expand)&#45;&gt;[root] var.allowedImages</title>
<path fill="none" stroke="black" d="M2033.54,-218.75C1959.07,-205.91 1850.77,-187.24 1780.4,-175.11"/>
<polygon fill="black" stroke="black" points="1780.76,-171.62 1770.31,-173.37 1779.57,-178.51 1780.76,-171.62"/>
</g>
<!-- [root] local.allowedSkus (expand) -->
<g id="node19" class="node">
<title>[root] local.allowedSkus (expand)</title>
<ellipse fill="none" stroke="black" cx="1199.19" cy="-234" rx="133.78" ry="18"/>
<text text-anchor="middle" x="1199.19" y="-230.3" font-family="Times New Roman,serif" font-size="14.00">[root] local.allowedSkus (expand)</text>
</g>
<!-- [root] local.allowedSkus (expand)&#45;&gt;[root] var.allowedImages -->
<g id="edge26" class="edge">
<title>[root] local.allowedSkus (expand)&#45;&gt;[root] var.allowedImages</title>
<path fill="none" stroke="black" d="M1289.37,-220.65C1389.48,-206.93 1548.93,-185.09 1640.11,-172.6"/>
<polygon fill="black" stroke="black" points="1640.64,-176.06 1650.07,-171.24 1639.69,-169.12 1640.64,-176.06"/>
</g>
<!-- [root] local.allowedVersions (expand) -->
<g id="node20" class="node">
<title>[root] local.allowedVersions (expand)</title>
<ellipse fill="none" stroke="black" cx="1499.19" cy="-234" rx="148.37" ry="18"/>
<text text-anchor="middle" x="1499.19" y="-230.3" font-family="Times New Roman,serif" font-size="14.00">[root] local.allowedVersions (expand)</text>
</g>
<!-- [root] local.allowedVersions (expand)&#45;&gt;[root] var.allowedImages -->
<g id="edge27" class="edge">
<title>[root] local.allowedVersions (expand)&#45;&gt;[root] var.allowedImages</title>
<path fill="none" stroke="black" d="M1547.59,-216.94C1577.7,-206.95 1616.67,-194.02 1648.92,-183.33"/>
<polygon fill="black" stroke="black" points="1650.3,-186.56 1658.69,-180.08 1648.1,-179.91 1650.3,-186.56"/>
</g>
<!-- [root] provider[&quot;registry.terraform.io/hashicorp/azurerm&quot;] (close) -->
<g id="node21" class="node">
<title>[root] provider[&quot;registry.terraform.io/hashicorp/azurerm&quot;] (close)</title>
<ellipse fill="none" stroke="black" cx="800.19" cy="-234" rx="246.96" ry="18"/>
<text text-anchor="middle" x="800.19" y="-230.3" font-family="Times New Roman,serif" font-size="14.00">[root] provider[&quot;registry.terraform.io/hashicorp/azurerm&quot;] (close)</text>
</g>
<!-- [root] provider[&quot;registry.terraform.io/hashicorp/azurerm&quot;] (close)&#45;&gt;[root] azurerm_policy_assignment.allowedImagesPolicyAssignment (expand) -->
<g id="edge28" class="edge">
<title>[root] provider[&quot;registry.terraform.io/hashicorp/azurerm&quot;] (close)&#45;&gt;[root] azurerm_policy_assignment.allowedImagesPolicyAssignment (expand)</title>
<path fill="none" stroke="black" d="M756.35,-216.23C730.82,-206.46 698.4,-194.07 671.29,-183.69"/>
<polygon fill="black" stroke="black" points="672.52,-180.42 661.93,-180.12 670.02,-186.96 672.52,-180.42"/>
</g>
<!-- [root] provider[&quot;registry.terraform.io/hashicorp/azurerm&quot;] (close)&#45;&gt;[root] azurerm_policy_assignment.allowedLocationPolicyAssignment (expand) -->
<g id="edge29" class="edge">
<title>[root] provider[&quot;registry.terraform.io/hashicorp/azurerm&quot;] (close)&#45;&gt;[root] azurerm_policy_assignment.allowedLocationPolicyAssignment (expand)</title>
<path fill="none" stroke="black" d="M917.46,-218.15C1002.42,-207.4 1117.79,-192.8 1208.48,-181.32"/>
<polygon fill="black" stroke="black" points="1209.09,-184.77 1218.57,-180.04 1208.21,-177.82 1209.09,-184.77"/>
</g>
<!-- [root] provider[&quot;registry.terraform.io/hashicorp/azurerm&quot;] (close)&#45;&gt;[root] azurerm_policy_assignment.allowedSkuPolicyAssignment (expand) -->
<g id="edge30" class="edge">
<title>[root] provider[&quot;registry.terraform.io/hashicorp/azurerm&quot;] (close)&#45;&gt;[root] azurerm_policy_assignment.allowedSkuPolicyAssignment (expand)</title>
<path fill="none" stroke="black" d="M683,-218.11C598.33,-207.36 483.46,-192.76 393.2,-181.3"/>
<polygon fill="black" stroke="black" points="393.52,-177.81 383.16,-180.02 392.63,-184.75 393.52,-177.81"/>
</g>
<!-- [root] provider[&quot;registry.terraform.io/hashicorp/azurerm&quot;] (close)&#45;&gt;[root] azurerm_policy_assignment.requireTagPolicyAssignment (expand) -->
<g id="edge31" class="edge">
<title>[root] provider[&quot;registry.terraform.io/hashicorp/azurerm&quot;] (close)&#45;&gt;[root] azurerm_policy_assignment.requireTagPolicyAssignment (expand)</title>
<path fill="none" stroke="black" d="M844.02,-216.23C869.56,-206.46 901.97,-194.07 929.09,-183.69"/>
<polygon fill="black" stroke="black" points="930.35,-186.96 938.44,-180.12 927.85,-180.42 930.35,-186.96"/>
</g>
<!-- [root] root -->
<g id="node22" class="node">
<title>[root] root</title>
<ellipse fill="none" stroke="black" cx="1652.19" cy="-306" rx="49.29" ry="18"/>
<text text-anchor="middle" x="1652.19" y="-302.3" font-family="Times New Roman,serif" font-size="14.00">[root] root</text>
</g>
<!-- [root] root&#45;&gt;[root] local.allowedOffers (expand) -->
<g id="edge32" class="edge">
<title>[root] root&#45;&gt;[root] local.allowedOffers (expand)</title>
<path fill="none" stroke="black" d="M1681.69,-291.5C1703.86,-281.36 1734.64,-267.28 1759.92,-255.71"/>
<polygon fill="black" stroke="black" points="1761.68,-258.76 1769.32,-251.41 1758.77,-252.39 1761.68,-258.76"/>
</g>
<!-- [root] root&#45;&gt;[root] local.allowedPublishers (expand) -->
<g id="edge33" class="edge">
<title>[root] root&#45;&gt;[root] local.allowedPublishers (expand)</title>
<path fill="none" stroke="black" d="M1697.1,-298.22C1770.32,-287.18 1917.16,-265.03 2016.09,-250.1"/>
<polygon fill="black" stroke="black" points="2016.74,-253.54 2026.1,-248.59 2015.69,-246.62 2016.74,-253.54"/>
</g>
<!-- [root] root&#45;&gt;[root] local.allowedSkus (expand) -->
<g id="edge34" class="edge">
<title>[root] root&#45;&gt;[root] local.allowedSkus (expand)</title>
<path fill="none" stroke="black" d="M1607.51,-298.1C1534.97,-286.89 1390,-264.48 1293.78,-249.62"/>
<polygon fill="black" stroke="black" points="1294.17,-246.14 1283.75,-248.07 1293.1,-253.05 1294.17,-246.14"/>
</g>
<!-- [root] root&#45;&gt;[root] local.allowedVersions (expand) -->
<g id="edge35" class="edge">
<title>[root] root&#45;&gt;[root] local.allowedVersions (expand)</title>
<path fill="none" stroke="black" d="M1622.69,-291.5C1600.59,-281.39 1569.95,-267.37 1544.71,-255.83"/>
<polygon fill="black" stroke="black" points="1545.89,-252.52 1535.34,-251.54 1542.97,-258.88 1545.89,-252.52"/>
</g>
<!-- [root] root&#45;&gt;[root] provider[&quot;registry.terraform.io/hashicorp/azurerm&quot;] (close) -->
<g id="edge37" class="edge">
<title>[root] root&#45;&gt;[root] provider[&quot;registry.terraform.io/hashicorp/azurerm&quot;] (close)</title>
<path fill="none" stroke="black" d="M1604.55,-301.09C1484.68,-291.24 1165.97,-265.05 967.6,-248.75"/>
<polygon fill="black" stroke="black" points="967.62,-245.24 957.36,-247.91 967.04,-252.22 967.62,-245.24"/>
</g>
<!-- [root] local.tenant_environment (expand) -->
<g id="node23" class="node">
<title>[root] local.tenant_environment (expand)</title>
<ellipse fill="none" stroke="black" cx="2447.19" cy="-234" rx="159.47" ry="18"/>
<text text-anchor="middle" x="2447.19" y="-230.3" font-family="Times New Roman,serif" font-size="14.00">[root] local.tenant_environment (expand)</text>
</g>
<!-- [root] root&#45;&gt;[root] local.tenant_environment (expand) -->
<g id="edge36" class="edge">
<title>[root] root&#45;&gt;[root] local.tenant_environment (expand)</title>
<path fill="none" stroke="black" d="M1700.12,-301.2C1804.97,-292.84 2062.61,-271.97 2278.19,-252 2292.88,-250.64 2308.29,-249.16 2323.56,-247.66"/>
<polygon fill="black" stroke="black" points="2323.97,-251.14 2333.58,-246.68 2323.28,-244.17 2323.97,-251.14"/>
</g>
</g>
</svg>
