<?xml version="1.0" encoding="UTF-8" standalone="no"?>
<!DOCTYPE svg PUBLIC "-//W3C//DTD SVG 1.1//EN"
 "http://www.w3.org/Graphics/SVG/1.1/DTD/svg11.dtd">
<!-- Generated by graphviz version 2.43.0 (0)
 -->
<!-- Title: %3 Pages: 1 -->
<svg width="1412pt" height="332pt"
 viewBox="0.00 0.00 1412.00 332.00" xmlns="http://www.w3.org/2000/svg" xmlns:xlink="http://www.w3.org/1999/xlink">
<g id="graph0" class="graph" transform="scale(1 1) rotate(0) translate(4 328)">
<title>%3</title>
<polygon fill="white" stroke="transparent" points="-4,4 -4,-328 1408,-328 1408,4 -4,4"/>
<g id="clust2" class="cluster">
<title>cluster[root] azurerm_subscription_policy_assignment.allowedImagesPolicyAssignment (expand)_var_</title>
</g>
<g id="clust3" class="cluster">
<title>cluster[root] azurerm_subscription_policy_assignment.allowedLocationPolicyAssignment (expand)_var_</title>
</g>
<g id="clust4" class="cluster">
<title>cluster[root] azurerm_subscription_policy_assignment.allowedSkuPolicyAssignment (expand)_var_</title>
</g>
<g id="clust5" class="cluster">
<title>cluster[root] azurerm_subscription_policy_assignment.requireTagPolicyAssignment (expand)_var_</title>
</g>
<!-- [root] azurerm_policy_definition.allowedimagespolicy (expand) -->
<g id="node_0" class="node">
<title>[root] azurerm_policy_definition.allowedimagespolicy (expand)</title>
<polygon fill="none" stroke="black" points="399,-90 399,-105 518,-105 518,-90 399,-90"/>
<text text-anchor="start" x="402" y="-95.6" font-family="courier new" font-size="8.00">azurerm_policy_definition</text>
<polygon fill="none" stroke="black" points="399,-75 399,-90 518,-90 518,-75 399,-75"/>
<text text-anchor="start" x="415.5" y="-80.6" font-family="courier new" font-size="8.00">allowedimagespolicy</text>
</g>
<!-- [root] provider[&quot;registry.terraform.io/hashicorp/azurerm&quot;] -->
<g id="node_11" class="node">
<title>[root] provider[&quot;registry.terraform.io/hashicorp/azurerm&quot;]</title>
<polygon fill="none" stroke="black" points="697,-18 697,-33 807,-33 807,-18 697,-18"/>
<text text-anchor="start" x="731.5" y="-23.6" font-family="courier new" font-size="8.00">terraform</text>
<polygon fill="none" stroke="black" points="697,-3 697,-18 807,-18 807,-3 697,-3"/>
<text text-anchor="start" x="700" y="-8.6" font-family="courier new" font-size="8.00">io/hashicorp/azurerm\&quot;]</text>
</g>
<!-- [root] azurerm_policy_definition.allowedimagespolicy (expand)&#45;&gt;[root] provider[&quot;registry.terraform.io/hashicorp/azurerm&quot;] -->
<g id="edge_0" class="edge">
<title>[root] azurerm_policy_definition.allowedimagespolicy (expand)&#45;&gt;[root] provider[&quot;registry.terraform.io/hashicorp/azurerm&quot;]</title>
<path fill="none" stroke="black" d="M517.85,-74.75C566.96,-63.06 636.38,-46.53 686.87,-34.51"/>
<polygon fill="black" stroke="black" points="687.79,-37.89 696.71,-32.17 686.17,-31.08 687.79,-37.89"/>
</g>
<!-- [root] var.resource -->
<g id="node_15" class="node">
<title>[root] var.resource</title>
<polygon fill="none" stroke="black" points="481,-18 481,-33 524,-33 524,-18 481,-18"/>
<text text-anchor="start" x="495.5" y="-23.6" font-family="courier new" font-size="8.00">var</text>
<polygon fill="none" stroke="black" points="481,-3 481,-18 524,-18 524,-3 481,-3"/>
<text text-anchor="start" x="484" y="-8.6" font-family="courier new" font-size="8.00">resource</text>
</g>
<!-- [root] azurerm_policy_definition.allowedimagespolicy (expand)&#45;&gt;[root] var.resource -->
<g id="edge_1" class="edge">
<title>[root] azurerm_policy_definition.allowedimagespolicy (expand)&#45;&gt;[root] var.resource</title>
<path fill="none" stroke="black" d="M468.88,-71.7C473.99,-63.56 480.2,-53.69 485.84,-44.7"/>
<polygon fill="black" stroke="black" points="488.89,-46.43 491.25,-36.1 482.96,-42.71 488.89,-46.43"/>
</g>
<!-- [root] azurerm_subscription_policy_assignment.allowedImagesPolicyAssignment (expand) -->
<g id="node_1" class="node">
<title>[root] azurerm_subscription_policy_assignment.allowedImagesPolicyAssignment (expand)</title>
<polygon fill="none" stroke="black" points="534,-162 534,-177 712,-177 712,-162 534,-162"/>
<text text-anchor="start" x="537" y="-167.6" font-family="courier new" font-size="8.00">azurerm_subscription_policy_assignment</text>
<polygon fill="none" stroke="black" points="534,-147 534,-162 712,-162 712,-147 534,-147"/>
<text text-anchor="start" x="557.5" y="-152.6" font-family="courier new" font-size="8.00">allowedImagesPolicyAssignment</text>
</g>
<!-- [root] azurerm_subscription_policy_assignment.allowedImagesPolicyAssignment (expand)&#45;&gt;[root] azurerm_policy_definition.allowedimagespolicy (expand) -->
<g id="edge_2" class="edge">
<title>[root] azurerm_subscription_policy_assignment.allowedImagesPolicyAssignment (expand)&#45;&gt;[root] azurerm_policy_definition.allowedimagespolicy (expand)</title>
<path fill="none" stroke="black" d="M582.64,-143.88C559.98,-134.26 531.53,-122.19 507.53,-112.01"/>
<polygon fill="black" stroke="black" points="508.81,-108.75 498.23,-108.07 506.07,-115.2 508.81,-108.75"/>
</g>
<!-- [root] data.azurerm_resource_group.defaultRG (expand) -->
<g id="node_8" class="node">
<title>[root] data.azurerm_resource_group.defaultRG (expand)</title>
<polygon fill="none" stroke="black" points="1030,-90 1030,-105 1136,-105 1136,-90 1030,-90"/>
<text text-anchor="start" x="1033" y="-95.6" font-family="courier new" font-size="8.00">azurerm_resource_group</text>
<polygon fill="none" stroke="black" points="1030,-75 1030,-90 1136,-90 1136,-75 1030,-75"/>
<text text-anchor="start" x="1062.5" y="-80.6" font-family="courier new" font-size="8.00">defaultRG</text>
</g>
<!-- [root] azurerm_subscription_policy_assignment.allowedImagesPolicyAssignment (expand)&#45;&gt;[root] data.azurerm_resource_group.defaultRG (expand) -->
<g id="edge_3" class="edge">
<title>[root] azurerm_subscription_policy_assignment.allowedImagesPolicyAssignment (expand)&#45;&gt;[root] data.azurerm_resource_group.defaultRG (expand)</title>
<path fill="none" stroke="black" d="M712.15,-145.22C715.13,-144.8 718.09,-144.39 721,-144 855.06,-126.21 892.85,-149 1024,-116 1028.68,-114.82 1033.46,-113.33 1038.18,-111.66"/>
<polygon fill="black" stroke="black" points="1039.63,-114.85 1047.73,-108.02 1037.14,-108.31 1039.63,-114.85"/>
</g>
<!-- [root] data.azurerm_resource_group.networkwatcherRG (expand) -->
<g id="node_9" class="node">
<title>[root] data.azurerm_resource_group.networkwatcherRG (expand)</title>
<polygon fill="none" stroke="black" points="832,-90 832,-105 938,-105 938,-90 832,-90"/>
<text text-anchor="start" x="835" y="-95.6" font-family="courier new" font-size="8.00">azurerm_resource_group</text>
<polygon fill="none" stroke="black" points="832,-75 832,-90 938,-90 938,-75 832,-75"/>
<text text-anchor="start" x="848.5" y="-80.6" font-family="courier new" font-size="8.00">networkwatcherRG</text>
</g>
<!-- [root] azurerm_subscription_policy_assignment.allowedImagesPolicyAssignment (expand)&#45;&gt;[root] data.azurerm_resource_group.networkwatcherRG (expand) -->
<g id="edge_4" class="edge">
<title>[root] azurerm_subscription_policy_assignment.allowedImagesPolicyAssignment (expand)&#45;&gt;[root] data.azurerm_resource_group.networkwatcherRG (expand)</title>
<path fill="none" stroke="black" d="M712.43,-144.11C747.27,-136.69 787.32,-127.13 823,-116 827.23,-114.68 831.57,-113.2 835.91,-111.64"/>
<polygon fill="black" stroke="black" points="837.19,-114.89 845.32,-108.1 834.73,-108.34 837.19,-114.89"/>
</g>
<!-- [root] data.azurerm_subscription.current (expand) -->
<g id="node_10" class="node">
<title>[root] data.azurerm_subscription.current (expand)</title>
<polygon fill="none" stroke="black" points="575,-90 575,-105 672,-105 672,-90 575,-90"/>
<text text-anchor="start" x="578" y="-95.6" font-family="courier new" font-size="8.00">azurerm_subscription</text>
<polygon fill="none" stroke="black" points="575,-75 575,-90 672,-90 672,-75 575,-75"/>
<text text-anchor="start" x="607.5" y="-80.6" font-family="courier new" font-size="8.00">current</text>
</g>
<!-- [root] azurerm_subscription_policy_assignment.allowedImagesPolicyAssignment (expand)&#45;&gt;[root] data.azurerm_subscription.current (expand) -->
<g id="edge_5" class="edge">
<title>[root] azurerm_subscription_policy_assignment.allowedImagesPolicyAssignment (expand)&#45;&gt;[root] data.azurerm_subscription.current (expand)</title>
<path fill="none" stroke="black" d="M623,-143.7C623,-135.98 623,-126.71 623,-118.11"/>
<polygon fill="black" stroke="black" points="626.5,-118.1 623,-108.1 619.5,-118.1 626.5,-118.1"/>
</g>
<!-- [root] var.allowedImages -->
<g id="node_12" class="node">
<title>[root] var.allowedImages</title>
<polygon fill="none" stroke="black" points="316,-90 316,-105 381,-105 381,-90 316,-90"/>
<text text-anchor="start" x="341.5" y="-95.6" font-family="courier new" font-size="8.00">var</text>
<polygon fill="none" stroke="black" points="316,-75 316,-90 381,-90 381,-75 316,-75"/>
<text text-anchor="start" x="319" y="-80.6" font-family="courier new" font-size="8.00">allowedImages</text>
</g>
<!-- [root] azurerm_subscription_policy_assignment.allowedImagesPolicyAssignment (expand)&#45;&gt;[root] var.allowedImages -->
<g id="edge_6" class="edge">
<title>[root] azurerm_subscription_policy_assignment.allowedImagesPolicyAssignment (expand)&#45;&gt;[root] var.allowedImages</title>
<path fill="none" stroke="black" d="M533.97,-151.5C489.39,-144.86 435.21,-133.86 389,-116 386.62,-115.08 384.22,-114.02 381.84,-112.87"/>
<polygon fill="black" stroke="black" points="383.33,-109.7 372.86,-108.08 380.04,-115.88 383.33,-109.7"/>
</g>
<!-- [root] azurerm_subscription_policy_assignment.allowedLocationPolicyAssignment (expand) -->
<g id="node_2" class="node">
<title>[root] azurerm_subscription_policy_assignment.allowedLocationPolicyAssignment (expand)</title>
<polygon fill="none" stroke="black" points="135,-162 135,-177 313,-177 313,-162 135,-162"/>
<text text-anchor="start" x="138" y="-167.6" font-family="courier new" font-size="8.00">azurerm_subscription_policy_assignment</text>
<polygon fill="none" stroke="black" points="135,-147 135,-162 313,-162 313,-147 135,-147"/>
<text text-anchor="start" x="154" y="-152.6" font-family="courier new" font-size="8.00">allowedLocationPolicyAssignment</text>
</g>
<!-- [root] data.azurerm_policy_definition.allowedLocationPolicyDefinition (expand) -->
<g id="node_5" class="node">
<title>[root] data.azurerm_policy_definition.allowedLocationPolicyDefinition (expand)</title>
<polygon fill="none" stroke="black" points="151,-90 151,-105 297,-105 297,-90 151,-90"/>
<text text-anchor="start" x="167.5" y="-95.6" font-family="courier new" font-size="8.00">azurerm_policy_definition</text>
<polygon fill="none" stroke="black" points="151,-75 151,-90 297,-90 297,-75 151,-75"/>
<text text-anchor="start" x="154" y="-80.6" font-family="courier new" font-size="8.00">allowedLocationPolicyDefinition</text>
</g>
<!-- [root] azurerm_subscription_policy_assignment.allowedLocationPolicyAssignment (expand)&#45;&gt;[root] data.azurerm_policy_definition.allowedLocationPolicyDefinition (expand) -->
<g id="edge_7" class="edge">
<title>[root] azurerm_subscription_policy_assignment.allowedLocationPolicyAssignment (expand)&#45;&gt;[root] data.azurerm_policy_definition.allowedLocationPolicyDefinition (expand)</title>
<path fill="none" stroke="black" d="M224,-143.7C224,-135.98 224,-126.71 224,-118.11"/>
<polygon fill="black" stroke="black" points="227.5,-118.1 224,-108.1 220.5,-118.1 227.5,-118.1"/>
</g>
<!-- [root] azurerm_subscription_policy_assignment.allowedLocationPolicyAssignment (expand)&#45;&gt;[root] data.azurerm_subscription.current (expand) -->
<g id="edge_8" class="edge">
<title>[root] azurerm_subscription_policy_assignment.allowedLocationPolicyAssignment (expand)&#45;&gt;[root] data.azurerm_subscription.current (expand)</title>
<path fill="none" stroke="black" d="M313.29,-150.18C373.64,-142.26 454.96,-130.41 526,-116 538.51,-113.46 551.81,-110.33 564.44,-107.14"/>
<polygon fill="black" stroke="black" points="565.57,-110.47 574.38,-104.59 563.82,-103.69 565.57,-110.47"/>
</g>
<!-- [root] azurerm_subscription_policy_assignment.allowedLocationPolicyAssignment (expand)&#45;&gt;[root] var.resource -->
<g id="edge_10" class="edge">
<title>[root] azurerm_subscription_policy_assignment.allowedLocationPolicyAssignment (expand)&#45;&gt;[root] var.resource</title>
<path fill="none" stroke="black" d="M173.38,-143.95C160.97,-137.25 149.2,-128.16 142,-116 130.23,-96.11 126.71,-81.33 142,-64 163.15,-40.04 377.12,-25.78 464.82,-20.91"/>
<polygon fill="black" stroke="black" points="465.07,-24.4 474.86,-20.36 464.69,-17.41 465.07,-24.4"/>
</g>
<!-- [root] var.allowedLocations -->
<g id="node_13" class="node">
<title>[root] var.allowedLocations</title>
<polygon fill="none" stroke="black" points="16,-90 16,-105 95,-105 95,-90 16,-90"/>
<text text-anchor="start" x="48.5" y="-95.6" font-family="courier new" font-size="8.00">var</text>
<polygon fill="none" stroke="black" points="16,-75 16,-90 95,-90 95,-75 16,-75"/>
<text text-anchor="start" x="19" y="-80.6" font-family="courier new" font-size="8.00">allowedLocations</text>
</g>
<!-- [root] azurerm_subscription_policy_assignment.allowedLocationPolicyAssignment (expand)&#45;&gt;[root] var.allowedLocations -->
<g id="edge_9" class="edge">
<title>[root] azurerm_subscription_policy_assignment.allowedLocationPolicyAssignment (expand)&#45;&gt;[root] var.allowedLocations</title>
<path fill="none" stroke="black" d="M178.69,-144C157.41,-135.83 131.78,-125.72 109,-116 106.19,-114.8 103.31,-113.55 100.42,-112.27"/>
<polygon fill="black" stroke="black" points="101.73,-109.02 91.17,-108.11 98.86,-115.4 101.73,-109.02"/>
</g>
<!-- [root] azurerm_subscription_policy_assignment.allowedSkuPolicyAssignment (expand) -->
<g id="node_3" class="node">
<title>[root] azurerm_subscription_policy_assignment.allowedSkuPolicyAssignment (expand)</title>
<polygon fill="none" stroke="black" points="730,-162 730,-177 908,-177 908,-162 730,-162"/>
<text text-anchor="start" x="733" y="-167.6" font-family="courier new" font-size="8.00">azurerm_subscription_policy_assignment</text>
<polygon fill="none" stroke="black" points="730,-147 730,-162 908,-162 908,-147 730,-147"/>
<text text-anchor="start" x="760" y="-152.6" font-family="courier new" font-size="8.00">allowedSkuPolicyAssignment</text>
</g>
<!-- [root] data.azurerm_policy_definition.allowedSkuPolicyDefinition (expand) -->
<g id="node_6" class="node">
<title>[root] data.azurerm_policy_definition.allowedSkuPolicyDefinition (expand)</title>
<polygon fill="none" stroke="black" points="690,-90 690,-105 814,-105 814,-90 690,-90"/>
<text text-anchor="start" x="695.5" y="-95.6" font-family="courier new" font-size="8.00">azurerm_policy_definition</text>
<polygon fill="none" stroke="black" points="690,-75 690,-90 814,-90 814,-75 690,-75"/>
<text text-anchor="start" x="693" y="-80.6" font-family="courier new" font-size="8.00">allowedSkuPolicyDefinition</text>
</g>
<!-- [root] azurerm_subscription_policy_assignment.allowedSkuPolicyAssignment (expand)&#45;&gt;[root] data.azurerm_policy_definition.allowedSkuPolicyDefinition (expand) -->
<g id="edge_11" class="edge">
<title>[root] azurerm_subscription_policy_assignment.allowedSkuPolicyAssignment (expand)&#45;&gt;[root] data.azurerm_policy_definition.allowedSkuPolicyDefinition (expand)</title>
<path fill="none" stroke="black" d="M802.44,-143.7C794.32,-135.22 784.41,-124.86 775.53,-115.58"/>
<polygon fill="black" stroke="black" points="777.81,-112.91 768.37,-108.1 772.76,-117.75 777.81,-112.91"/>
</g>
<!-- [root] azurerm_subscription_policy_assignment.allowedSkuPolicyAssignment (expand)&#45;&gt;[root] data.azurerm_resource_group.defaultRG (expand) -->
<g id="edge_12" class="edge">
<title>[root] azurerm_subscription_policy_assignment.allowedSkuPolicyAssignment (expand)&#45;&gt;[root] data.azurerm_resource_group.defaultRG (expand)</title>
<path fill="none" stroke="black" d="M908.24,-145.14C944.55,-137.73 986.68,-127.89 1024,-116 1027.99,-114.73 1032.09,-113.29 1036.18,-111.76"/>
<polygon fill="black" stroke="black" points="1037.59,-114.96 1045.62,-108.06 1035.03,-108.45 1037.59,-114.96"/>
</g>
<!-- [root] azurerm_subscription_policy_assignment.allowedSkuPolicyAssignment (expand)&#45;&gt;[root] data.azurerm_resource_group.networkwatcherRG (expand) -->
<g id="edge_13" class="edge">
<title>[root] azurerm_subscription_policy_assignment.allowedSkuPolicyAssignment (expand)&#45;&gt;[root] data.azurerm_resource_group.networkwatcherRG (expand)</title>
<path fill="none" stroke="black" d="M835.31,-143.7C843.31,-135.22 853.07,-124.86 861.82,-115.58"/>
<polygon fill="black" stroke="black" points="864.56,-117.78 868.87,-108.1 859.47,-112.98 864.56,-117.78"/>
</g>
<!-- [root] azurerm_subscription_policy_assignment.allowedSkuPolicyAssignment (expand)&#45;&gt;[root] data.azurerm_subscription.current (expand) -->
<g id="edge_14" class="edge">
<title>[root] azurerm_subscription_policy_assignment.allowedSkuPolicyAssignment (expand)&#45;&gt;[root] data.azurerm_subscription.current (expand)</title>
<path fill="none" stroke="black" d="M762.86,-143.98C737.65,-136.01 707.64,-126.06 681,-116 677.57,-114.7 674.04,-113.32 670.5,-111.89"/>
<polygon fill="black" stroke="black" points="671.75,-108.62 661.17,-108.04 669.08,-115.09 671.75,-108.62"/>
</g>
<!-- [root] azurerm_subscription_policy_assignment.allowedSkuPolicyAssignment (expand)&#45;&gt;[root] var.resource -->
<g id="edge_16" class="edge">
<title>[root] azurerm_subscription_policy_assignment.allowedSkuPolicyAssignment (expand)&#45;&gt;[root] var.resource</title>
<path fill="none" stroke="black" d="M729.88,-145.36C657.38,-132.6 566.89,-116.59 566,-116 552.34,-107.01 530.32,-70.52 516,-44.95"/>
<polygon fill="black" stroke="black" points="519.01,-43.16 511.11,-36.1 512.88,-46.55 519.01,-43.16"/>
</g>
<!-- [root] var.allowedSkus -->
<g id="node_14" class="node">
<title>[root] var.allowedSkus</title>
<polygon fill="none" stroke="black" points="956,-90 956,-105 1012,-105 1012,-90 956,-90"/>
<text text-anchor="start" x="977" y="-95.6" font-family="courier new" font-size="8.00">var</text>
<polygon fill="none" stroke="black" points="956,-75 956,-90 1012,-90 1012,-75 956,-75"/>
<text text-anchor="start" x="959" y="-80.6" font-family="courier new" font-size="8.00">allowedSkus</text>
</g>
<!-- [root] azurerm_subscription_policy_assignment.allowedSkuPolicyAssignment (expand)&#45;&gt;[root] var.allowedSkus -->
<g id="edge_15" class="edge">
<title>[root] azurerm_subscription_policy_assignment.allowedSkuPolicyAssignment (expand)&#45;&gt;[root] var.allowedSkus</title>
<path fill="none" stroke="black" d="M877.32,-144C899.65,-136.59 925.01,-127.06 947,-116 948.57,-115.21 950.15,-114.36 951.74,-113.48"/>
<polygon fill="black" stroke="black" points="953.92,-116.24 960.66,-108.07 950.3,-110.26 953.92,-116.24"/>
</g>
<!-- [root] azurerm_subscription_policy_assignment.requireTagPolicyAssignment (expand) -->
<g id="node_4" class="node">
<title>[root] azurerm_subscription_policy_assignment.requireTagPolicyAssignment (expand)</title>
<polygon fill="none" stroke="black" points="994,-162 994,-177 1172,-177 1172,-162 994,-162"/>
<text text-anchor="start" x="997" y="-167.6" font-family="courier new" font-size="8.00">azurerm_subscription_policy_assignment</text>
<polygon fill="none" stroke="black" points="994,-147 994,-162 1172,-162 1172,-147 994,-147"/>
<text text-anchor="start" x="1024" y="-152.6" font-family="courier new" font-size="8.00">requireTagPolicyAssignment</text>
</g>
<!-- [root] data.azurerm_policy_definition.requireTagPolicyDefinition (expand) -->
<g id="node_7" class="node">
<title>[root] data.azurerm_policy_definition.requireTagPolicyDefinition (expand)</title>
<polygon fill="none" stroke="black" points="1192,-90 1192,-105 1316,-105 1316,-90 1192,-90"/>
<text text-anchor="start" x="1197.5" y="-95.6" font-family="courier new" font-size="8.00">azurerm_policy_definition</text>
<polygon fill="none" stroke="black" points="1192,-75 1192,-90 1316,-90 1316,-75 1192,-75"/>
<text text-anchor="start" x="1195" y="-80.6" font-family="courier new" font-size="8.00">requireTagPolicyDefinition</text>
</g>
<!-- [root] azurerm_subscription_policy_assignment.requireTagPolicyAssignment (expand)&#45;&gt;[root] data.azurerm_policy_definition.requireTagPolicyDefinition (expand) -->
<g id="edge_17" class="edge">
<title>[root] azurerm_subscription_policy_assignment.requireTagPolicyAssignment (expand)&#45;&gt;[root] data.azurerm_policy_definition.requireTagPolicyDefinition (expand)</title>
<path fill="none" stroke="black" d="M1124.83,-143.88C1148.42,-134.22 1178.06,-122.09 1203,-111.88"/>
<polygon fill="black" stroke="black" points="1204.38,-115.1 1212.3,-108.07 1201.72,-108.62 1204.38,-115.1"/>
</g>
<!-- [root] azurerm_subscription_policy_assignment.requireTagPolicyAssignment (expand)&#45;&gt;[root] data.azurerm_resource_group.defaultRG (expand) -->
<g id="edge_18" class="edge">
<title>[root] azurerm_subscription_policy_assignment.requireTagPolicyAssignment (expand)&#45;&gt;[root] data.azurerm_resource_group.defaultRG (expand)</title>
<path fill="none" stroke="black" d="M1083,-143.7C1083,-135.98 1083,-126.71 1083,-118.11"/>
<polygon fill="black" stroke="black" points="1086.5,-118.1 1083,-108.1 1079.5,-118.1 1086.5,-118.1"/>
</g>
<!-- [root] azurerm_subscription_policy_assignment.requireTagPolicyAssignment (expand)&#45;&gt;[root] data.azurerm_resource_group.networkwatcherRG (expand) -->
<g id="edge_19" class="edge">
<title>[root] azurerm_subscription_policy_assignment.requireTagPolicyAssignment (expand)&#45;&gt;[root] data.azurerm_resource_group.networkwatcherRG (expand)</title>
<path fill="none" stroke="black" d="M1026.48,-143.94C1001.09,-135.96 970.86,-126.02 944,-116 940.51,-114.7 936.93,-113.31 933.33,-111.88"/>
<polygon fill="black" stroke="black" points="934.42,-108.55 923.84,-108.03 931.79,-115.03 934.42,-108.55"/>
</g>
<!-- [root] azurerm_subscription_policy_assignment.requireTagPolicyAssignment (expand)&#45;&gt;[root] data.azurerm_subscription.current (expand) -->
<g id="edge_20" class="edge">
<title>[root] azurerm_subscription_policy_assignment.requireTagPolicyAssignment (expand)&#45;&gt;[root] data.azurerm_subscription.current (expand)</title>
<path fill="none" stroke="black" d="M993.65,-151.67C879.82,-139.69 695.91,-119.95 681,-116 676.59,-114.83 672.08,-113.38 667.62,-111.77"/>
<polygon fill="black" stroke="black" points="668.58,-108.39 657.99,-108.04 666.05,-114.92 668.58,-108.39"/>
</g>
<!-- [root] azurerm_subscription_policy_assignment.requireTagPolicyAssignment (expand)&#45;&gt;[root] var.resource -->
<g id="edge_21" class="edge">
<title>[root] azurerm_subscription_policy_assignment.requireTagPolicyAssignment (expand)&#45;&gt;[root] var.resource</title>
<path fill="none" stroke="black" d="M1118.26,-143.79C1128.82,-136.74 1139.14,-127.49 1145,-116 1155.5,-95.41 1160.83,-80.83 1145,-64 1110.14,-26.94 738.73,-39.87 688,-36 636.28,-32.05 576.57,-26.4 539.05,-22.72"/>
<polygon fill="black" stroke="black" points="539.38,-19.23 529.09,-21.73 538.69,-26.2 539.38,-19.23"/>
</g>
<!-- [root] var.tagName -->
<g id="node_16" class="node">
<title>[root] var.tagName</title>
<polygon fill="none" stroke="black" points="1342,-90 1342,-105 1380,-105 1380,-90 1342,-90"/>
<text text-anchor="start" x="1354" y="-95.6" font-family="courier new" font-size="8.00">var</text>
<polygon fill="none" stroke="black" points="1342,-75 1342,-90 1380,-90 1380,-75 1342,-75"/>
<text text-anchor="start" x="1345" y="-80.6" font-family="courier new" font-size="8.00">tagName</text>
</g>
<!-- [root] azurerm_subscription_policy_assignment.requireTagPolicyAssignment (expand)&#45;&gt;[root] var.tagName -->
<g id="edge_22" class="edge">
<title>[root] azurerm_subscription_policy_assignment.requireTagPolicyAssignment (expand)&#45;&gt;[root] var.tagName</title>
<path fill="none" stroke="black" d="M1172.09,-153.54C1218.97,-147.38 1276.59,-136.21 1325,-116 1326.84,-115.23 1328.69,-114.36 1330.51,-113.41"/>
<polygon fill="black" stroke="black" points="1332.56,-116.26 1339.39,-108.17 1329,-110.24 1332.56,-116.26"/>
</g>
<!-- [root] data.azurerm_policy_definition.allowedLocationPolicyDefinition (expand)&#45;&gt;[root] provider[&quot;registry.terraform.io/hashicorp/azurerm&quot;] -->
<g id="edge_23" class="edge">
<title>[root] data.azurerm_policy_definition.allowedLocationPolicyDefinition (expand)&#45;&gt;[root] provider[&quot;registry.terraform.io/hashicorp/azurerm&quot;]</title>
<path fill="none" stroke="black" d="M272.47,-71.93C282.46,-68.9 293,-66.06 303,-64 374.57,-49.26 580.23,-32.11 686.58,-23.88"/>
<polygon fill="black" stroke="black" points="687.16,-27.35 696.86,-23.09 686.62,-20.37 687.16,-27.35"/>
</g>
<!-- [root] data.azurerm_policy_definition.allowedSkuPolicyDefinition (expand)&#45;&gt;[root] provider[&quot;registry.terraform.io/hashicorp/azurerm&quot;] -->
<g id="edge_24" class="edge">
<title>[root] data.azurerm_policy_definition.allowedSkuPolicyDefinition (expand)&#45;&gt;[root] provider[&quot;registry.terraform.io/hashicorp/azurerm&quot;]</title>
<path fill="none" stroke="black" d="M752,-71.7C752,-63.98 752,-54.71 752,-46.11"/>
<polygon fill="black" stroke="black" points="755.5,-46.1 752,-36.1 748.5,-46.1 755.5,-46.1"/>
</g>
<!-- [root] data.azurerm_policy_definition.requireTagPolicyDefinition (expand)&#45;&gt;[root] provider[&quot;registry.terraform.io/hashicorp/azurerm&quot;] -->
<g id="edge_25" class="edge">
<title>[root] data.azurerm_policy_definition.requireTagPolicyDefinition (expand)&#45;&gt;[root] provider[&quot;registry.terraform.io/hashicorp/azurerm&quot;]</title>
<path fill="none" stroke="black" d="M1207.4,-71.95C1197.78,-68.92 1187.64,-66.07 1178,-64 1052.01,-36.95 901.41,-25.9 817.24,-21.58"/>
<polygon fill="black" stroke="black" points="817.22,-18.08 807.06,-21.08 816.87,-25.07 817.22,-18.08"/>
</g>
<!-- [root] data.azurerm_resource_group.defaultRG (expand)&#45;&gt;[root] provider[&quot;registry.terraform.io/hashicorp/azurerm&quot;] -->
<g id="edge_26" class="edge">
<title>[root] data.azurerm_resource_group.defaultRG (expand)&#45;&gt;[root] provider[&quot;registry.terraform.io/hashicorp/azurerm&quot;]</title>
<path fill="none" stroke="black" d="M1046.35,-71.89C1039.06,-68.94 1031.37,-66.14 1024,-64 954.76,-43.91 872.84,-31.88 817.12,-25.39"/>
<polygon fill="black" stroke="black" points="817.37,-21.89 807.03,-24.24 816.57,-28.85 817.37,-21.89"/>
</g>
<!-- [root] data.azurerm_resource_group.networkwatcherRG (expand)&#45;&gt;[root] provider[&quot;registry.terraform.io/hashicorp/azurerm&quot;] -->
<g id="edge_27" class="edge">
<title>[root] data.azurerm_resource_group.networkwatcherRG (expand)&#45;&gt;[root] provider[&quot;registry.terraform.io/hashicorp/azurerm&quot;]</title>
<path fill="none" stroke="black" d="M852.46,-71.88C834.75,-62.55 812.65,-50.92 793.68,-40.94"/>
<polygon fill="black" stroke="black" points="795.14,-37.75 784.66,-36.19 791.88,-43.94 795.14,-37.75"/>
</g>
<!-- [root] data.azurerm_subscription.current (expand)&#45;&gt;[root] provider[&quot;registry.terraform.io/hashicorp/azurerm&quot;] -->
<g id="edge_28" class="edge">
<title>[root] data.azurerm_subscription.current (expand)&#45;&gt;[root] provider[&quot;registry.terraform.io/hashicorp/azurerm&quot;]</title>
<path fill="none" stroke="black" d="M654.56,-71.88C671.66,-62.6 692.98,-51.03 711.32,-41.08"/>
<polygon fill="black" stroke="black" points="713.2,-44.04 720.32,-36.19 709.86,-37.88 713.2,-44.04"/>
</g>
<!-- [root] provider[&quot;registry.terraform.io/hashicorp/azurerm&quot;] (close) -->
<g id="node_17" class="node">
<title>[root] provider[&quot;registry.terraform.io/hashicorp/azurerm&quot;] (close)</title>
<polygon fill="none" stroke="black" points="666,-234 666,-249 776,-249 776,-234 666,-234"/>
<text text-anchor="start" x="700.5" y="-239.6" font-family="courier new" font-size="8.00">terraform</text>
<polygon fill="none" stroke="black" points="666,-219 666,-234 776,-234 776,-219 666,-219"/>
<text text-anchor="start" x="669" y="-224.6" font-family="courier new" font-size="8.00">io/hashicorp/azurerm\&quot;]</text>
</g>
<!-- [root] provider[&quot;registry.terraform.io/hashicorp/azurerm&quot;] (close)&#45;&gt;[root] azurerm_subscription_policy_assignment.allowedImagesPolicyAssignment (expand) -->
<g id="edge_29" class="edge">
<title>[root] provider[&quot;registry.terraform.io/hashicorp/azurerm&quot;] (close)&#45;&gt;[root] azurerm_subscription_policy_assignment.allowedImagesPolicyAssignment (expand)</title>
<path fill="none" stroke="black" d="M697.03,-215.88C684.45,-206.89 668.87,-195.76 655.25,-186.03"/>
<polygon fill="black" stroke="black" points="657.24,-183.15 647.07,-180.19 653.17,-188.85 657.24,-183.15"/>
</g>
<!-- [root] provider[&quot;registry.terraform.io/hashicorp/azurerm&quot;] (close)&#45;&gt;[root] azurerm_subscription_policy_assignment.allowedLocationPolicyAssignment (expand) -->
<g id="edge_30" class="edge">
<title>[root] provider[&quot;registry.terraform.io/hashicorp/azurerm&quot;] (close)&#45;&gt;[root] azurerm_subscription_policy_assignment.allowedLocationPolicyAssignment (expand)</title>
<path fill="none" stroke="black" d="M665.91,-225.24C583.36,-213.61 426.29,-191.49 323.38,-177"/>
<polygon fill="black" stroke="black" points="323.67,-173.5 313.28,-175.57 322.7,-180.44 323.67,-173.5"/>
</g>
<!-- [root] provider[&quot;registry.terraform.io/hashicorp/azurerm&quot;] (close)&#45;&gt;[root] azurerm_subscription_policy_assignment.allowedSkuPolicyAssignment (expand) -->
<g id="edge_31" class="edge">
<title>[root] provider[&quot;registry.terraform.io/hashicorp/azurerm&quot;] (close)&#45;&gt;[root] azurerm_subscription_policy_assignment.allowedSkuPolicyAssignment (expand)</title>
<path fill="none" stroke="black" d="M744.97,-215.88C757.55,-206.89 773.13,-195.76 786.75,-186.03"/>
<polygon fill="black" stroke="black" points="788.83,-188.85 794.93,-180.19 784.76,-183.15 788.83,-188.85"/>
</g>
<!-- [root] provider[&quot;registry.terraform.io/hashicorp/azurerm&quot;] (close)&#45;&gt;[root] azurerm_subscription_policy_assignment.requireTagPolicyAssignment (expand) -->
<g id="edge_32" class="edge">
<title>[root] provider[&quot;registry.terraform.io/hashicorp/azurerm&quot;] (close)&#45;&gt;[root] azurerm_subscription_policy_assignment.requireTagPolicyAssignment (expand)</title>
<path fill="none" stroke="black" d="M776.37,-222.29C831.67,-211.6 917.82,-194.94 984.75,-182"/>
<polygon fill="black" stroke="black" points="985.74,-185.37 994.89,-180.04 984.41,-178.5 985.74,-185.37"/>
</g>
<!-- [root] root -->
<g id="node_18" class="node">
<title>[root] root</title>
<polygon fill="none" stroke="black" points="754,-324 688,-324 688,-288 754,-288 754,-324"/>
<text text-anchor="middle" x="721" y="-304.1" font-family="courier new" font-size="8.00">[root] root</text>
</g>
<!-- [root] root&#45;&gt;[root] provider[&quot;registry.terraform.io/hashicorp/azurerm&quot;] (close) -->
<g id="edge_33" class="edge">
<title>[root] root&#45;&gt;[root] provider[&quot;registry.terraform.io/hashicorp/azurerm&quot;] (close)</title>
<path fill="none" stroke="black" d="M721,-287.7C721,-279.98 721,-270.71 721,-262.11"/>
<polygon fill="black" stroke="black" points="724.5,-262.1 721,-252.1 717.5,-262.1 724.5,-262.1"/>
</g>
</g>
</svg>

