<?xml version="1.0" encoding="UTF-8" standalone="no"?>
<!DOCTYPE svg PUBLIC "-//W3C//DTD SVG 1.1//EN"
 "http://www.w3.org/Graphics/SVG/1.1/DTD/svg11.dtd">
<!-- Generated by graphviz version 2.43.0 (0)
 -->
<!-- Title: %3 Pages: 1 -->
<svg width="146pt" height="420pt"
 viewBox="0.00 0.00 146.00 420.00" xmlns="http://www.w3.org/2000/svg" xmlns:xlink="http://www.w3.org/1999/xlink">
<g id="graph0" class="graph" transform="scale(1 1) rotate(0) translate(4 416)">
<title>%3</title>
<polygon fill="white" stroke="transparent" points="-4,4 -4,-416 142,-416 142,4 -4,4"/>
<g id="clust2" class="cluster">
<title>cluster[root] root_var_</title>
</g>
<!-- [root] root -->
<g id="node_5" class="node">
<title>[root] root</title>
<polygon fill="none" stroke="black" points="102,-412 36,-412 36,-376 102,-376 102,-412"/>
<text text-anchor="middle" x="69" y="-392.1" font-family="courier new" font-size="8.00">[root] root</text>
</g>
<!-- [root] var.client_certificate -->
<g id="node_0" class="node">
<title>[root] var.client_certificate</title>
<polygon fill="none" stroke="black" points="25,-322 25,-337 113,-337 113,-322 25,-322"/>
<text text-anchor="start" x="62" y="-327.6" font-family="courier new" font-size="8.00">var</text>
<polygon fill="none" stroke="black" points="25,-307 25,-322 113,-322 113,-307 25,-307"/>
<text text-anchor="start" x="28" y="-312.6" font-family="courier new" font-size="8.00">client_certificate</text>
</g>
<!-- [root] root&#45;&gt;[root] var.client_certificate -->
<g id="edge_0" class="edge">
<title>[root] root&#45;&gt;[root] var.client_certificate</title>
<path fill="none" stroke="black" d="M69,-375.7C69,-367.98 69,-358.71 69,-350.11"/>
<polygon fill="black" stroke="black" points="72.5,-350.1 69,-340.1 65.5,-350.1 72.5,-350.1"/>
</g>
<!-- [root] var.client_key -->
<g id="node_1" class="node">
<title>[root] var.client_key</title>
<polygon fill="none" stroke="black" points="43,-250 43,-265 95,-265 95,-250 43,-250"/>
<text text-anchor="start" x="62" y="-255.6" font-family="courier new" font-size="8.00">var</text>
<polygon fill="none" stroke="black" points="43,-235 43,-250 95,-250 95,-235 43,-235"/>
<text text-anchor="start" x="46" y="-240.6" font-family="courier new" font-size="8.00">client_key</text>
</g>
<!-- [root] var.client_certificate&#45;&gt;[root] var.client_key -->
<g id="edge_5" class="edge">
<title>[root] var.client_certificate&#45;&gt;[root] var.client_key</title>
<path fill="none" stroke="black" stroke-dasharray="5,2" d="M69,-303.7C69,-292.85 69,-278.92 69,-268.1"/>
</g>
<!-- [root] var.cluster_ca_certificate -->
<g id="node_2" class="node">
<title>[root] var.cluster_ca_certificate</title>
<polygon fill="none" stroke="black" points="16,-178 16,-193 122,-193 122,-178 16,-178"/>
<text text-anchor="start" x="62" y="-183.6" font-family="courier new" font-size="8.00">var</text>
<polygon fill="none" stroke="black" points="16,-163 16,-178 122,-178 122,-163 16,-163"/>
<text text-anchor="start" x="19" y="-168.6" font-family="courier new" font-size="8.00">cluster_ca_certificate</text>
</g>
<!-- [root] var.client_key&#45;&gt;[root] var.cluster_ca_certificate -->
<g id="edge_6" class="edge">
<title>[root] var.client_key&#45;&gt;[root] var.cluster_ca_certificate</title>
<path fill="none" stroke="black" stroke-dasharray="5,2" d="M69,-231.7C69,-220.85 69,-206.92 69,-196.1"/>
</g>
<!-- [root] var.cluster_token -->
<g id="node_3" class="node">
<title>[root] var.cluster_token</title>
<polygon fill="none" stroke="black" points="37,-106 37,-121 102,-121 102,-106 37,-106"/>
<text text-anchor="start" x="62.5" y="-111.6" font-family="courier new" font-size="8.00">var</text>
<polygon fill="none" stroke="black" points="37,-91 37,-106 102,-106 102,-91 37,-91"/>
<text text-anchor="start" x="40" y="-96.6" font-family="courier new" font-size="8.00">cluster_token</text>
</g>
<!-- [root] var.cluster_ca_certificate&#45;&gt;[root] var.cluster_token -->
<g id="edge_7" class="edge">
<title>[root] var.cluster_ca_certificate&#45;&gt;[root] var.cluster_token</title>
<path fill="none" stroke="black" stroke-dasharray="5,2" d="M69,-159.7C69,-148.85 69,-134.92 69,-124.1"/>
</g>
<!-- [root] var.kubernetes_host -->
<g id="node_4" class="node">
<title>[root] var.kubernetes_host</title>
<polygon fill="none" stroke="black" points="32,-34 32,-49 106,-49 106,-34 32,-34"/>
<text text-anchor="start" x="62" y="-39.6" font-family="courier new" font-size="8.00">var</text>
<polygon fill="none" stroke="black" points="32,-19 32,-34 106,-34 106,-19 32,-19"/>
<text text-anchor="start" x="35" y="-24.6" font-family="courier new" font-size="8.00">kubernetes_host</text>
</g>
<!-- [root] var.cluster_token&#45;&gt;[root] var.kubernetes_host -->
<g id="edge_8" class="edge">
<title>[root] var.cluster_token&#45;&gt;[root] var.kubernetes_host</title>
<path fill="none" stroke="black" stroke-dasharray="5,2" d="M69,-87.7C69,-76.85 69,-62.92 69,-52.1"/>
</g>
</g>
</svg>

