<?xml version="1.0" encoding="UTF-8" standalone="no"?>
<!DOCTYPE svg PUBLIC "-//W3C//DTD SVG 1.1//EN"
 "http://www.w3.org/Graphics/SVG/1.1/DTD/svg11.dtd">
<!-- Generated by graphviz version 2.43.0 (0)
 -->
<!-- Title: %3 Pages: 1 -->
<svg width="234pt" height="636pt"
 viewBox="0.00 0.00 234.00 636.00" xmlns="http://www.w3.org/2000/svg" xmlns:xlink="http://www.w3.org/1999/xlink">
<g id="graph0" class="graph" transform="scale(1 1) rotate(0) translate(4 632)">
<title>%3</title>
<polygon fill="white" stroke="transparent" points="-4,4 -4,-632 230,-632 230,4 -4,4"/>
<g id="clust2" class="cluster">
<title>cluster[root] provider[&quot;registry.terraform.io/hashicorp/helm&quot;]_var_</title>
</g>
<g id="clust3" class="cluster">
<title>cluster[root] helm_release.vault (expand)_var_</title>
</g>
<!-- [root] helm_release.vault (expand) -->
<g id="node_0" class="node">
<title>[root] helm_release.vault (expand)</title>
<polygon fill="none" stroke="black" points="91,-466 91,-481 152,-481 152,-466 91,-466"/>
<text text-anchor="start" x="94" y="-471.6" font-family="courier new" font-size="8.00">helm_release</text>
<polygon fill="none" stroke="black" points="91,-451 91,-466 152,-466 152,-451 91,-451"/>
<text text-anchor="start" x="110" y="-456.6" font-family="courier new" font-size="8.00">vault</text>
</g>
<!-- [root] provider[&quot;registry.terraform.io/hashicorp/helm&quot;] -->
<g id="node_1" class="node">
<title>[root] provider[&quot;registry.terraform.io/hashicorp/helm&quot;]</title>
<polygon fill="none" stroke="black" points="21,-394 21,-409 118,-409 118,-394 21,-394"/>
<text text-anchor="start" x="49" y="-399.6" font-family="courier new" font-size="8.00">terraform</text>
<polygon fill="none" stroke="black" points="21,-379 21,-394 118,-394 118,-379 21,-379"/>
<text text-anchor="start" x="24" y="-384.6" font-family="courier new" font-size="8.00">io/hashicorp/helm\&quot;]</text>
</g>
<!-- [root] helm_release.vault (expand)&#45;&gt;[root] provider[&quot;registry.terraform.io/hashicorp/helm&quot;] -->
<g id="edge_0" class="edge">
<title>[root] helm_release.vault (expand)&#45;&gt;[root] provider[&quot;registry.terraform.io/hashicorp/helm&quot;]</title>
<path fill="none" stroke="black" d="M108.15,-447.7C101.97,-439.39 94.46,-429.28 87.68,-420.14"/>
<polygon fill="black" stroke="black" points="90.48,-418.04 81.71,-412.1 84.86,-422.22 90.48,-418.04"/>
</g>
<!-- [root] var.vault_namespace -->
<g id="node_7" class="node">
<title>[root] var.vault_namespace</title>
<polygon fill="none" stroke="black" points="136,-394 136,-409 210,-409 210,-394 136,-394"/>
<text text-anchor="start" x="166" y="-399.6" font-family="courier new" font-size="8.00">var</text>
<polygon fill="none" stroke="black" points="136,-379 136,-394 210,-394 210,-379 136,-379"/>
<text text-anchor="start" x="139" y="-384.6" font-family="courier new" font-size="8.00">vault_namespace</text>
</g>
<!-- [root] helm_release.vault (expand)&#45;&gt;[root] var.vault_namespace -->
<g id="edge_1" class="edge">
<title>[root] helm_release.vault (expand)&#45;&gt;[root] var.vault_namespace</title>
<path fill="none" stroke="black" d="M133.85,-447.7C140.03,-439.39 147.54,-429.28 154.32,-420.14"/>
<polygon fill="black" stroke="black" points="157.14,-422.22 160.29,-412.1 151.52,-418.04 157.14,-422.22"/>
</g>
<!-- [root] var.client_certificate -->
<g id="node_2" class="node">
<title>[root] var.client_certificate</title>
<polygon fill="none" stroke="black" points="25,-322 25,-337 113,-337 113,-322 25,-322"/>
<text text-anchor="start" x="62" y="-327.6" font-family="courier new" font-size="8.00">var</text>
<polygon fill="none" stroke="black" points="25,-307 25,-322 113,-322 113,-307 25,-307"/>
<text text-anchor="start" x="28" y="-312.6" font-family="courier new" font-size="8.00">client_certificate</text>
</g>
<!-- [root] provider[&quot;registry.terraform.io/hashicorp/helm&quot;]&#45;&gt;[root] var.client_certificate -->
<g id="edge_3" class="edge">
<title>[root] provider[&quot;registry.terraform.io/hashicorp/helm&quot;]&#45;&gt;[root] var.client_certificate</title>
<path fill="none" stroke="black" d="M69,-375.7C69,-367.98 69,-358.71 69,-350.11"/>
<polygon fill="black" stroke="black" points="72.5,-350.1 69,-340.1 65.5,-350.1 72.5,-350.1"/>
</g>
<!-- [root] provider[&quot;registry.terraform.io/hashicorp/helm&quot;] (close) -->
<g id="node_8" class="node">
<title>[root] provider[&quot;registry.terraform.io/hashicorp/helm&quot;] (close)</title>
<polygon fill="none" stroke="black" points="73,-538 73,-553 170,-553 170,-538 73,-538"/>
<text text-anchor="start" x="101" y="-543.6" font-family="courier new" font-size="8.00">terraform</text>
<polygon fill="none" stroke="black" points="73,-523 73,-538 170,-538 170,-523 73,-523"/>
<text text-anchor="start" x="76" y="-528.6" font-family="courier new" font-size="8.00">io/hashicorp/helm\&quot;]</text>
</g>
<!-- [root] provider[&quot;registry.terraform.io/hashicorp/helm&quot;] (close)&#45;&gt;[root] helm_release.vault (expand) -->
<g id="edge_2" class="edge">
<title>[root] provider[&quot;registry.terraform.io/hashicorp/helm&quot;] (close)&#45;&gt;[root] helm_release.vault (expand)</title>
<path fill="none" stroke="black" d="M121,-519.7C121,-511.98 121,-502.71 121,-494.11"/>
<polygon fill="black" stroke="black" points="124.5,-494.1 121,-484.1 117.5,-494.1 124.5,-494.1"/>
</g>
<!-- [root] root -->
<g id="node_9" class="node">
<title>[root] root</title>
<polygon fill="none" stroke="black" points="154,-628 88,-628 88,-592 154,-592 154,-628"/>
<text text-anchor="middle" x="121" y="-608.1" font-family="courier new" font-size="8.00">[root] root</text>
</g>
<!-- [root] root&#45;&gt;[root] provider[&quot;registry.terraform.io/hashicorp/helm&quot;] (close) -->
<g id="edge_8" class="edge">
<title>[root] root&#45;&gt;[root] provider[&quot;registry.terraform.io/hashicorp/helm&quot;] (close)</title>
<path fill="none" stroke="black" d="M121,-591.7C121,-583.98 121,-574.71 121,-566.11"/>
<polygon fill="black" stroke="black" points="124.5,-566.1 121,-556.1 117.5,-566.1 124.5,-566.1"/>
</g>
<!-- [root] var.client_key -->
<g id="node_3" class="node">
<title>[root] var.client_key</title>
<polygon fill="none" stroke="black" points="43,-250 43,-265 95,-265 95,-250 43,-250"/>
<text text-anchor="start" x="62" y="-255.6" font-family="courier new" font-size="8.00">var</text>
<polygon fill="none" stroke="black" points="43,-235 43,-250 95,-250 95,-235 43,-235"/>
<text text-anchor="start" x="46" y="-240.6" font-family="courier new" font-size="8.00">client_key</text>
</g>
<!-- [root] var.client_certificate&#45;&gt;[root] var.client_key -->
<g id="edge_9" class="edge">
<title>[root] var.client_certificate&#45;&gt;[root] var.client_key</title>
<path fill="none" stroke="black" stroke-dasharray="5,2" d="M69,-303.7C69,-292.85 69,-278.92 69,-268.1"/>
</g>
<!-- [root] var.cluster_ca_certificate -->
<g id="node_4" class="node">
<title>[root] var.cluster_ca_certificate</title>
<polygon fill="none" stroke="black" points="16,-178 16,-193 122,-193 122,-178 16,-178"/>
<text text-anchor="start" x="62" y="-183.6" font-family="courier new" font-size="8.00">var</text>
<polygon fill="none" stroke="black" points="16,-163 16,-178 122,-178 122,-163 16,-163"/>
<text text-anchor="start" x="19" y="-168.6" font-family="courier new" font-size="8.00">cluster_ca_certificate</text>
</g>
<!-- [root] var.client_key&#45;&gt;[root] var.cluster_ca_certificate -->
<g id="edge_10" class="edge">
<title>[root] var.client_key&#45;&gt;[root] var.cluster_ca_certificate</title>
<path fill="none" stroke="black" stroke-dasharray="5,2" d="M69,-231.7C69,-220.85 69,-206.92 69,-196.1"/>
</g>
<!-- [root] var.cluster_token -->
<g id="node_5" class="node">
<title>[root] var.cluster_token</title>
<polygon fill="none" stroke="black" points="37,-106 37,-121 102,-121 102,-106 37,-106"/>
<text text-anchor="start" x="62.5" y="-111.6" font-family="courier new" font-size="8.00">var</text>
<polygon fill="none" stroke="black" points="37,-91 37,-106 102,-106 102,-91 37,-91"/>
<text text-anchor="start" x="40" y="-96.6" font-family="courier new" font-size="8.00">cluster_token</text>
</g>
<!-- [root] var.cluster_ca_certificate&#45;&gt;[root] var.cluster_token -->
<g id="edge_11" class="edge">
<title>[root] var.cluster_ca_certificate&#45;&gt;[root] var.cluster_token</title>
<path fill="none" stroke="black" stroke-dasharray="5,2" d="M69,-159.7C69,-148.85 69,-134.92 69,-124.1"/>
</g>
<!-- [root] var.kubernetes_host -->
<g id="node_6" class="node">
<title>[root] var.kubernetes_host</title>
<polygon fill="none" stroke="black" points="32,-34 32,-49 106,-49 106,-34 32,-34"/>
<text text-anchor="start" x="62" y="-39.6" font-family="courier new" font-size="8.00">var</text>
<polygon fill="none" stroke="black" points="32,-19 32,-34 106,-34 106,-19 32,-19"/>
<text text-anchor="start" x="35" y="-24.6" font-family="courier new" font-size="8.00">kubernetes_host</text>
</g>
<!-- [root] var.cluster_token&#45;&gt;[root] var.kubernetes_host -->
<g id="edge_12" class="edge">
<title>[root] var.cluster_token&#45;&gt;[root] var.kubernetes_host</title>
<path fill="none" stroke="black" stroke-dasharray="5,2" d="M69,-87.7C69,-76.85 69,-62.92 69,-52.1"/>
</g>
</g>
</svg>

