<?xml version="1.0" encoding="UTF-8" standalone="no"?>
<!DOCTYPE svg PUBLIC "-//W3C//DTD SVG 1.1//EN"
 "http://www.w3.org/Graphics/SVG/1.1/DTD/svg11.dtd">
<!-- Generated by graphviz version 2.43.0 (0)
 -->
<!-- Title: %3 Pages: 1 -->
<svg width="244pt" height="636pt"
 viewBox="0.00 0.00 244.00 636.00" xmlns="http://www.w3.org/2000/svg" xmlns:xlink="http://www.w3.org/1999/xlink">
<g id="graph0" class="graph" transform="scale(1 1) rotate(0) translate(4 632)">
<title>%3</title>
<polygon fill="white" stroke="transparent" points="-4,4 -4,-632 240,-632 240,4 -4,4"/>
<g id="clust2" class="cluster">
<title>cluster[root] provider[&quot;registry.terraform.io/hashicorp/helm&quot;]_var_</title>
</g>
<g id="clust3" class="cluster">
<title>cluster[root] local.vault_vars (expand)_var_</title>
</g>
<!-- [root] helm_release.vault (expand) -->
<g id="node_0" class="node">
<title>[root] helm_release.vault (expand)</title>
<polygon fill="none" stroke="black" points="96,-466 96,-481 157,-481 157,-466 96,-466"/>
<text text-anchor="start" x="99" y="-471.6" font-family="courier new" font-size="8.00">helm_release</text>
<polygon fill="none" stroke="black" points="96,-451 96,-466 157,-466 157,-451 96,-451"/>
<text text-anchor="start" x="115" y="-456.6" font-family="courier new" font-size="8.00">vault</text>
</g>
<!-- [root] provider[&quot;registry.terraform.io/hashicorp/helm&quot;] -->
<g id="node_1" class="node">
<title>[root] provider[&quot;registry.terraform.io/hashicorp/helm&quot;]</title>
<polygon fill="none" stroke="black" points="31,-394 31,-409 128,-409 128,-394 31,-394"/>
<text text-anchor="start" x="59" y="-399.6" font-family="courier new" font-size="8.00">terraform</text>
<polygon fill="none" stroke="black" points="31,-379 31,-394 128,-394 128,-379 31,-379"/>
<text text-anchor="start" x="34" y="-384.6" font-family="courier new" font-size="8.00">io/hashicorp/helm\&quot;]</text>
</g>
<!-- [root] helm_release.vault (expand)&#45;&gt;[root] provider[&quot;registry.terraform.io/hashicorp/helm&quot;] -->
<g id="edge_1" class="edge">
<title>[root] helm_release.vault (expand)&#45;&gt;[root] provider[&quot;registry.terraform.io/hashicorp/helm&quot;]</title>
<path fill="none" stroke="black" d="M114.38,-447.7C108.86,-439.47 102.15,-429.48 96.07,-420.42"/>
<polygon fill="black" stroke="black" points="98.96,-418.46 90.48,-412.1 93.15,-422.36 98.96,-418.46"/>
</g>
<!-- [root] local.vault_vars (expand) -->
<g id="node_9" class="node">
<title>[root] local.vault_vars (expand)</title>
<polygon fill="none" stroke="black" points="150,-394 150,-409 202,-409 202,-394 150,-394"/>
<text text-anchor="start" x="164.5" y="-399.6" font-family="courier new" font-size="8.00">local</text>
<polygon fill="none" stroke="black" points="150,-379 150,-394 202,-394 202,-379 150,-379"/>
<text text-anchor="start" x="153" y="-384.6" font-family="courier new" font-size="8.00">vault_vars</text>
</g>
<!-- [root] helm_release.vault (expand)&#45;&gt;[root] local.vault_vars (expand) -->
<g id="edge_0" class="edge">
<title>[root] helm_release.vault (expand)&#45;&gt;[root] local.vault_vars (expand)</title>
<path fill="none" stroke="black" d="M138.36,-447.7C144.23,-439.47 151.37,-429.48 157.84,-420.42"/>
<polygon fill="black" stroke="black" points="160.82,-422.28 163.78,-412.1 155.12,-418.21 160.82,-422.28"/>
</g>
<!-- [root] var.client_certificate -->
<g id="node_2" class="node">
<title>[root] var.client_certificate</title>
<polygon fill="none" stroke="black" points="30,-322 30,-337 118,-337 118,-322 30,-322"/>
<text text-anchor="start" x="67" y="-327.6" font-family="courier new" font-size="8.00">var</text>
<polygon fill="none" stroke="black" points="30,-307 30,-322 118,-322 118,-307 30,-307"/>
<text text-anchor="start" x="33" y="-312.6" font-family="courier new" font-size="8.00">client_certificate</text>
</g>
<!-- [root] provider[&quot;registry.terraform.io/hashicorp/helm&quot;]&#45;&gt;[root] var.client_certificate -->
<g id="edge_5" class="edge">
<title>[root] provider[&quot;registry.terraform.io/hashicorp/helm&quot;]&#45;&gt;[root] var.client_certificate</title>
<path fill="none" stroke="black" d="M77.76,-375.7C77.21,-367.98 76.55,-358.71 75.94,-350.11"/>
<polygon fill="black" stroke="black" points="79.43,-349.83 75.22,-340.1 72.44,-350.33 79.43,-349.83"/>
</g>
<!-- [root] var.domainname -->
<g id="node_6" class="node">
<title>[root] var.domainname</title>
<polygon fill="none" stroke="black" points="152,-322 152,-337 204,-337 204,-322 152,-322"/>
<text text-anchor="start" x="171" y="-327.6" font-family="courier new" font-size="8.00">var</text>
<polygon fill="none" stroke="black" points="152,-307 152,-322 204,-322 204,-307 152,-307"/>
<text text-anchor="start" x="155" y="-312.6" font-family="courier new" font-size="8.00">domainname</text>
</g>
<!-- [root] local.vault_vars (expand)&#45;&gt;[root] var.domainname -->
<g id="edge_2" class="edge">
<title>[root] local.vault_vars (expand)&#45;&gt;[root] var.domainname</title>
<path fill="none" stroke="black" d="M176.49,-375.7C176.71,-367.98 176.98,-358.71 177.23,-350.11"/>
<polygon fill="black" stroke="black" points="180.72,-350.2 177.51,-340.1 173.73,-350 180.72,-350.2"/>
</g>
<!-- [root] provider[&quot;registry.terraform.io/hashicorp/helm&quot;] (close) -->
<g id="node_10" class="node">
<title>[root] provider[&quot;registry.terraform.io/hashicorp/helm&quot;] (close)</title>
<polygon fill="none" stroke="black" points="78,-538 78,-553 175,-553 175,-538 78,-538"/>
<text text-anchor="start" x="106" y="-543.6" font-family="courier new" font-size="8.00">terraform</text>
<polygon fill="none" stroke="black" points="78,-523 78,-538 175,-538 175,-523 78,-523"/>
<text text-anchor="start" x="81" y="-528.6" font-family="courier new" font-size="8.00">io/hashicorp/helm\&quot;]</text>
</g>
<!-- [root] provider[&quot;registry.terraform.io/hashicorp/helm&quot;] (close)&#45;&gt;[root] helm_release.vault (expand) -->
<g id="edge_4" class="edge">
<title>[root] provider[&quot;registry.terraform.io/hashicorp/helm&quot;] (close)&#45;&gt;[root] helm_release.vault (expand)</title>
<path fill="none" stroke="black" d="M126,-519.7C126,-511.98 126,-502.71 126,-494.11"/>
<polygon fill="black" stroke="black" points="129.5,-494.1 126,-484.1 122.5,-494.1 129.5,-494.1"/>
</g>
<!-- [root] root -->
<g id="node_11" class="node">
<title>[root] root</title>
<polygon fill="none" stroke="black" points="159,-628 93,-628 93,-592 159,-592 159,-628"/>
<text text-anchor="middle" x="126" y="-608.1" font-family="courier new" font-size="8.00">[root] root</text>
</g>
<!-- [root] root&#45;&gt;[root] provider[&quot;registry.terraform.io/hashicorp/helm&quot;] (close) -->
<g id="edge_10" class="edge">
<title>[root] root&#45;&gt;[root] provider[&quot;registry.terraform.io/hashicorp/helm&quot;] (close)</title>
<path fill="none" stroke="black" d="M126,-591.7C126,-583.98 126,-574.71 126,-566.11"/>
<polygon fill="black" stroke="black" points="129.5,-566.1 126,-556.1 122.5,-566.1 129.5,-566.1"/>
</g>
<!-- [root] var.client_key -->
<g id="node_3" class="node">
<title>[root] var.client_key</title>
<polygon fill="none" stroke="black" points="44,-250 44,-265 96,-265 96,-250 44,-250"/>
<text text-anchor="start" x="63" y="-255.6" font-family="courier new" font-size="8.00">var</text>
<polygon fill="none" stroke="black" points="44,-235 44,-250 96,-250 96,-235 44,-235"/>
<text text-anchor="start" x="47" y="-240.6" font-family="courier new" font-size="8.00">client_key</text>
</g>
<!-- [root] var.client_certificate&#45;&gt;[root] var.client_key -->
<g id="edge_11" class="edge">
<title>[root] var.client_certificate&#45;&gt;[root] var.client_key</title>
<path fill="none" stroke="black" stroke-dasharray="5,2" d="M73.01,-303.7C72.39,-292.85 71.6,-278.92 70.98,-268.1"/>
</g>
<!-- [root] var.cluster_ca_certificate -->
<g id="node_4" class="node">
<title>[root] var.cluster_ca_certificate</title>
<polygon fill="none" stroke="black" points="16,-178 16,-193 122,-193 122,-178 16,-178"/>
<text text-anchor="start" x="62" y="-183.6" font-family="courier new" font-size="8.00">var</text>
<polygon fill="none" stroke="black" points="16,-163 16,-178 122,-178 122,-163 16,-163"/>
<text text-anchor="start" x="19" y="-168.6" font-family="courier new" font-size="8.00">cluster_ca_certificate</text>
</g>
<!-- [root] var.client_key&#45;&gt;[root] var.cluster_ca_certificate -->
<g id="edge_12" class="edge">
<title>[root] var.client_key&#45;&gt;[root] var.cluster_ca_certificate</title>
<path fill="none" stroke="black" stroke-dasharray="5,2" d="M69.75,-231.7C69.6,-220.85 69.4,-206.92 69.24,-196.1"/>
</g>
<!-- [root] var.cluster_token -->
<g id="node_5" class="node">
<title>[root] var.cluster_token</title>
<polygon fill="none" stroke="black" points="37,-106 37,-121 102,-121 102,-106 37,-106"/>
<text text-anchor="start" x="62.5" y="-111.6" font-family="courier new" font-size="8.00">var</text>
<polygon fill="none" stroke="black" points="37,-91 37,-106 102,-106 102,-91 37,-91"/>
<text text-anchor="start" x="40" y="-96.6" font-family="courier new" font-size="8.00">cluster_token</text>
</g>
<!-- [root] var.cluster_ca_certificate&#45;&gt;[root] var.cluster_token -->
<g id="edge_13" class="edge">
<title>[root] var.cluster_ca_certificate&#45;&gt;[root] var.cluster_token</title>
<path fill="none" stroke="black" stroke-dasharray="5,2" d="M69,-159.7C69,-148.85 69,-134.92 69,-124.1"/>
</g>
<!-- [root] var.kubernetes_host -->
<g id="node_7" class="node">
<title>[root] var.kubernetes_host</title>
<polygon fill="none" stroke="black" points="32,-34 32,-49 106,-49 106,-34 32,-34"/>
<text text-anchor="start" x="62" y="-39.6" font-family="courier new" font-size="8.00">var</text>
<polygon fill="none" stroke="black" points="32,-19 32,-34 106,-34 106,-19 32,-19"/>
<text text-anchor="start" x="35" y="-24.6" font-family="courier new" font-size="8.00">kubernetes_host</text>
</g>
<!-- [root] var.cluster_token&#45;&gt;[root] var.kubernetes_host -->
<g id="edge_14" class="edge">
<title>[root] var.cluster_token&#45;&gt;[root] var.kubernetes_host</title>
<path fill="none" stroke="black" stroke-dasharray="5,2" d="M69,-87.7C69,-76.85 69,-62.92 69,-52.1"/>
</g>
<!-- [root] var.vault_namespace -->
<g id="node_8" class="node">
<title>[root] var.vault_namespace</title>
<polygon fill="none" stroke="black" points="146,-250 146,-265 220,-265 220,-250 146,-250"/>
<text text-anchor="start" x="176" y="-255.6" font-family="courier new" font-size="8.00">var</text>
<polygon fill="none" stroke="black" points="146,-235 146,-250 220,-250 220,-235 146,-235"/>
<text text-anchor="start" x="149" y="-240.6" font-family="courier new" font-size="8.00">vault_namespace</text>
</g>
<!-- [root] var.domainname&#45;&gt;[root] var.vault_namespace -->
<g id="edge_15" class="edge">
<title>[root] var.domainname&#45;&gt;[root] var.vault_namespace</title>
<path fill="none" stroke="black" stroke-dasharray="5,2" d="M179.24,-303.7C180.01,-292.85 181.01,-278.92 181.78,-268.1"/>
</g>
</g>
</svg>

