<?xml version="1.0" encoding="UTF-8" standalone="no"?>
<!DOCTYPE svg PUBLIC "-//W3C//DTD SVG 1.1//EN"
 "http://www.w3.org/Graphics/SVG/1.1/DTD/svg11.dtd">
<!-- Generated by graphviz version 2.43.0 (0)
 -->
<!-- Title: %3 Pages: 1 -->
<svg width="789pt" height="492pt"
 viewBox="0.00 0.00 789.05 492.00" xmlns="http://www.w3.org/2000/svg" xmlns:xlink="http://www.w3.org/1999/xlink">
<g id="graph0" class="graph" transform="scale(1 1) rotate(0) translate(4 488)">
<title>%3</title>
<polygon fill="white" stroke="transparent" points="-4,4 -4,-488 785.05,-488 785.05,4 -4,4"/>
<g id="clust2" class="cluster">
<title>cluster[root] aws_s3_bucket.statestorage (expand)_var_</title>
</g>
<g id="clust3" class="cluster">
<title>cluster[root] root_output_[root] aws_s3_bucket.statestorage (expand)</title>
</g>
<!-- [root] aws_s3_bucket.statestorage (expand) -->
<g id="node_0" class="node">
<title>[root] aws_s3_bucket.statestorage (expand)</title>
<polygon fill="none" stroke="black" points="409.5,-178 409.5,-193 474.5,-193 474.5,-178 409.5,-178"/>
<text text-anchor="start" x="412.5" y="-183.6" font-family="courier new" font-size="8.00">aws_s3_bucket</text>
<polygon fill="none" stroke="black" points="409.5,-163 409.5,-178 474.5,-178 474.5,-163 409.5,-163"/>
<text text-anchor="start" x="414.5" y="-168.6" font-family="courier new" font-size="8.00">statestorage</text>
</g>
<!-- [root] provider[&quot;registry.terraform.io/hashicorp/aws&quot;] -->
<g id="node_8" class="node">
<title>[root] provider[&quot;registry.terraform.io/hashicorp/aws&quot;]</title>
<polygon fill="none" stroke="black" points="328.5,-106 328.5,-121 420.5,-121 420.5,-106 328.5,-106"/>
<text text-anchor="start" x="354" y="-111.6" font-family="courier new" font-size="8.00">terraform</text>
<polygon fill="none" stroke="black" points="328.5,-91 328.5,-106 420.5,-106 420.5,-91 328.5,-91"/>
<text text-anchor="start" x="331.5" y="-96.6" font-family="courier new" font-size="8.00">io/hashicorp/aws\&quot;]</text>
</g>
<!-- [root] aws_s3_bucket.statestorage (expand)&#45;&gt;[root] provider[&quot;registry.terraform.io/hashicorp/aws&quot;] -->
<g id="edge_0" class="edge">
<title>[root] aws_s3_bucket.statestorage (expand)&#45;&gt;[root] provider[&quot;registry.terraform.io/hashicorp/aws&quot;]</title>
<path fill="none" stroke="black" d="M424.94,-159.7C416.82,-151.22 406.91,-140.86 398.03,-131.58"/>
<polygon fill="black" stroke="black" points="400.31,-128.91 390.87,-124.1 395.26,-133.75 400.31,-128.91"/>
</g>
<!-- [root] var.random_string -->
<g id="node_9" class="node">
<title>[root] var.random_string</title>
<polygon fill="none" stroke="black" points="439.5,-106 439.5,-121 504.5,-121 504.5,-106 439.5,-106"/>
<text text-anchor="start" x="465" y="-111.6" font-family="courier new" font-size="8.00">var</text>
<polygon fill="none" stroke="black" points="439.5,-91 439.5,-106 504.5,-106 504.5,-91 439.5,-91"/>
<text text-anchor="start" x="442.5" y="-96.6" font-family="courier new" font-size="8.00">random_string</text>
</g>
<!-- [root] aws_s3_bucket.statestorage (expand)&#45;&gt;[root] var.random_string -->
<g id="edge_1" class="edge">
<title>[root] aws_s3_bucket.statestorage (expand)&#45;&gt;[root] var.random_string</title>
<path fill="none" stroke="black" d="M448.92,-159.7C452.29,-151.81 456.37,-142.3 460.12,-133.55"/>
<polygon fill="black" stroke="black" points="463.45,-134.67 464.17,-124.1 457.01,-131.92 463.45,-134.67"/>
</g>
<!-- [root] aws_s3_bucket_acl.statestorage_acl (expand) -->
<g id="node_1" class="node">
<title>[root] aws_s3_bucket_acl.statestorage_acl (expand)</title>
<polygon fill="none" stroke="black" points="0.5,-322 0.5,-337 83.5,-337 83.5,-322 0.5,-322"/>
<text text-anchor="start" x="3.5" y="-327.6" font-family="courier new" font-size="8.00">aws_s3_bucket_acl</text>
<polygon fill="none" stroke="black" points="0.5,-307 0.5,-322 83.5,-322 83.5,-307 0.5,-307"/>
<text text-anchor="start" x="5.5" y="-312.6" font-family="courier new" font-size="8.00">statestorage_acl</text>
</g>
<!-- [root] aws_s3_bucket_acl.statestorage_acl (expand)&#45;&gt;[root] aws_s3_bucket.statestorage (expand) -->
<g id="edge_3" class="edge">
<title>[root] aws_s3_bucket_acl.statestorage_acl (expand)&#45;&gt;[root] aws_s3_bucket.statestorage (expand)</title>
<path fill="none" stroke="black" d="M70.5,-303.89C104.99,-284.17 164.79,-251.91 219.5,-232 280.13,-209.94 353.44,-194.5 398.77,-186.19"/>
<polygon fill="black" stroke="black" points="399.62,-189.59 408.84,-184.37 398.37,-182.7 399.62,-189.59"/>
</g>
<!-- [root] aws_s3_bucket_policy.restrict_access (expand) -->
<g id="node_2" class="node">
<title>[root] aws_s3_bucket_policy.restrict_access (expand)</title>
<polygon fill="none" stroke="black" points="101.5,-322 101.5,-337 198.5,-337 198.5,-322 101.5,-322"/>
<text text-anchor="start" x="104.5" y="-327.6" font-family="courier new" font-size="8.00">aws_s3_bucket_policy</text>
<polygon fill="none" stroke="black" points="101.5,-307 101.5,-322 198.5,-322 198.5,-307 101.5,-307"/>
<text text-anchor="start" x="116" y="-312.6" font-family="courier new" font-size="8.00">restrict_access</text>
</g>
<!-- [root] data.aws_iam_policy_document.restrict_access (expand) -->
<g id="node_6" class="node">
<title>[root] data.aws_iam_policy_document.restrict_access (expand)</title>
<polygon fill="none" stroke="black" points="228.5,-250 228.5,-265 338.5,-265 338.5,-250 228.5,-250"/>
<text text-anchor="start" x="231.5" y="-255.6" font-family="courier new" font-size="8.00">aws_iam_policy_document</text>
<polygon fill="none" stroke="black" points="228.5,-235 228.5,-250 338.5,-250 338.5,-235 228.5,-235"/>
<text text-anchor="start" x="249.5" y="-240.6" font-family="courier new" font-size="8.00">restrict_access</text>
</g>
<!-- [root] aws_s3_bucket_policy.restrict_access (expand)&#45;&gt;[root] data.aws_iam_policy_document.restrict_access (expand) -->
<g id="edge_4" class="edge">
<title>[root] aws_s3_bucket_policy.restrict_access (expand)&#45;&gt;[root] data.aws_iam_policy_document.restrict_access (expand)</title>
<path fill="none" stroke="black" d="M182.28,-303.88C200.13,-294.55 222.4,-282.92 241.5,-272.94"/>
<polygon fill="black" stroke="black" points="243.35,-275.92 250.59,-268.19 240.11,-269.72 243.35,-275.92"/>
</g>
<!-- [root] aws_s3_bucket_public_access_block.blockpublic (expand) -->
<g id="node_3" class="node">
<title>[root] aws_s3_bucket_public_access_block.blockpublic (expand)</title>
<polygon fill="none" stroke="black" points="216.5,-322 216.5,-337 371.5,-337 371.5,-322 216.5,-322"/>
<text text-anchor="start" x="219.5" y="-327.6" font-family="courier new" font-size="8.00">aws_s3_bucket_public_access_block</text>
<polygon fill="none" stroke="black" points="216.5,-307 216.5,-322 371.5,-322 371.5,-307 216.5,-307"/>
<text text-anchor="start" x="269" y="-312.6" font-family="courier new" font-size="8.00">blockpublic</text>
</g>
<!-- [root] aws_s3_bucket_public_access_block.blockpublic (expand)&#45;&gt;[root] aws_s3_bucket.statestorage (expand) -->
<g id="edge_5" class="edge">
<title>[root] aws_s3_bucket_public_access_block.blockpublic (expand)&#45;&gt;[root] aws_s3_bucket.statestorage (expand)</title>
<path fill="none" stroke="black" d="M311.35,-303.87C337.47,-278.82 386.21,-232.05 416.06,-203.41"/>
<polygon fill="black" stroke="black" points="418.79,-205.64 423.58,-196.19 413.95,-200.59 418.79,-205.64"/>
</g>
<!-- [root] aws_s3_bucket_server_side_encryption_configuration.bucketsse (expand) -->
<g id="node_4" class="node">
<title>[root] aws_s3_bucket_server_side_encryption_configuration.bucketsse (expand)</title>
<polygon fill="none" stroke="black" points="389.5,-322 389.5,-337 621.5,-337 621.5,-322 389.5,-322"/>
<text text-anchor="start" x="392.5" y="-327.6" font-family="courier new" font-size="8.00">aws_s3_bucket_server_side_encryption_configuration</text>
<polygon fill="none" stroke="black" points="389.5,-307 389.5,-322 621.5,-322 621.5,-307 389.5,-307"/>
<text text-anchor="start" x="485" y="-312.6" font-family="courier new" font-size="8.00">bucketsse</text>
</g>
<!-- [root] aws_s3_bucket_server_side_encryption_configuration.bucketsse (expand)&#45;&gt;[root] aws_s3_bucket.statestorage (expand) -->
<g id="edge_6" class="edge">
<title>[root] aws_s3_bucket_server_side_encryption_configuration.bucketsse (expand)&#45;&gt;[root] aws_s3_bucket.statestorage (expand)</title>
<path fill="none" stroke="black" d="M497.78,-303.87C486.78,-279.46 466.48,-234.43 453.5,-205.64"/>
<polygon fill="black" stroke="black" points="456.55,-203.87 449.25,-196.19 450.17,-206.74 456.55,-203.87"/>
</g>
<!-- [root] aws_s3_bucket_versioning.versioning_state (expand) -->
<g id="node_5" class="node">
<title>[root] aws_s3_bucket_versioning.versioning_state (expand)</title>
<polygon fill="none" stroke="black" points="640.5,-322 640.5,-337 755.5,-337 755.5,-322 640.5,-322"/>
<text text-anchor="start" x="643.5" y="-327.6" font-family="courier new" font-size="8.00">aws_s3_bucket_versioning</text>
<polygon fill="none" stroke="black" points="640.5,-307 640.5,-322 755.5,-322 755.5,-307 640.5,-307"/>
<text text-anchor="start" x="661.5" y="-312.6" font-family="courier new" font-size="8.00">versioning_state</text>
</g>
<!-- [root] aws_s3_bucket_versioning.versioning_state (expand)&#45;&gt;[root] aws_s3_bucket.statestorage (expand) -->
<g id="edge_7" class="edge">
<title>[root] aws_s3_bucket_versioning.versioning_state (expand)&#45;&gt;[root] aws_s3_bucket.statestorage (expand)</title>
<path fill="none" stroke="black" d="M666.62,-303.87C620.2,-278.12 532.45,-229.45 481.29,-201.07"/>
<polygon fill="black" stroke="black" points="482.93,-197.98 472.49,-196.19 479.54,-204.1 482.93,-197.98"/>
</g>
<!-- [root] data.aws_iam_policy_document.restrict_access (expand)&#45;&gt;[root] aws_s3_bucket.statestorage (expand) -->
<g id="edge_8" class="edge">
<title>[root] data.aws_iam_policy_document.restrict_access (expand)&#45;&gt;[root] aws_s3_bucket.statestorage (expand)</title>
<path fill="none" stroke="black" d="M322.15,-231.88C345.62,-221.48 375.59,-208.2 399.62,-197.55"/>
<polygon fill="black" stroke="black" points="401.12,-200.72 408.85,-193.47 398.29,-194.32 401.12,-200.72"/>
</g>
<!-- [root] provider[&quot;registry.terraform.io/hashicorp/aws&quot;] (close) -->
<g id="node_11" class="node">
<title>[root] provider[&quot;registry.terraform.io/hashicorp/aws&quot;] (close)</title>
<polygon fill="none" stroke="black" points="285.5,-394 285.5,-409 377.5,-409 377.5,-394 285.5,-394"/>
<text text-anchor="start" x="311" y="-399.6" font-family="courier new" font-size="8.00">terraform</text>
<polygon fill="none" stroke="black" points="285.5,-379 285.5,-394 377.5,-394 377.5,-379 285.5,-379"/>
<text text-anchor="start" x="288.5" y="-384.6" font-family="courier new" font-size="8.00">io/hashicorp/aws\&quot;]</text>
</g>
<!-- [root] provider[&quot;registry.terraform.io/hashicorp/aws&quot;] (close)&#45;&gt;[root] aws_s3_bucket_acl.statestorage_acl (expand) -->
<g id="edge_10" class="edge">
<title>[root] provider[&quot;registry.terraform.io/hashicorp/aws&quot;] (close)&#45;&gt;[root] aws_s3_bucket_acl.statestorage_acl (expand)</title>
<path fill="none" stroke="black" d="M285.12,-384.34C238.59,-375.29 164.76,-359.99 92.81,-340.23"/>
<polygon fill="black" stroke="black" points="93.71,-336.84 83.13,-337.54 91.83,-343.59 93.71,-336.84"/>
</g>
<!-- [root] provider[&quot;registry.terraform.io/hashicorp/aws&quot;] (close)&#45;&gt;[root] aws_s3_bucket_policy.restrict_access (expand) -->
<g id="edge_11" class="edge">
<title>[root] provider[&quot;registry.terraform.io/hashicorp/aws&quot;] (close)&#45;&gt;[root] aws_s3_bucket_policy.restrict_access (expand)</title>
<path fill="none" stroke="black" d="M286.98,-375.88C261.77,-366.18 230.05,-353.98 203.43,-343.74"/>
<polygon fill="black" stroke="black" points="204.47,-340.39 193.88,-340.07 201.95,-346.92 204.47,-340.39"/>
</g>
<!-- [root] provider[&quot;registry.terraform.io/hashicorp/aws&quot;] (close)&#45;&gt;[root] aws_s3_bucket_public_access_block.blockpublic (expand) -->
<g id="edge_12" class="edge">
<title>[root] provider[&quot;registry.terraform.io/hashicorp/aws&quot;] (close)&#45;&gt;[root] aws_s3_bucket_public_access_block.blockpublic (expand)</title>
<path fill="none" stroke="black" d="M322.11,-375.7C317.74,-367.64 312.44,-357.89 307.6,-348.98"/>
<polygon fill="black" stroke="black" points="310.63,-347.22 302.79,-340.1 304.48,-350.56 310.63,-347.22"/>
</g>
<!-- [root] provider[&quot;registry.terraform.io/hashicorp/aws&quot;] (close)&#45;&gt;[root] aws_s3_bucket_server_side_encryption_configuration.bucketsse (expand) -->
<g id="edge_13" class="edge">
<title>[root] provider[&quot;registry.terraform.io/hashicorp/aws&quot;] (close)&#45;&gt;[root] aws_s3_bucket_server_side_encryption_configuration.bucketsse (expand)</title>
<path fill="none" stroke="black" d="M374.07,-375.88C398.06,-366.22 428.23,-354.09 453.6,-343.88"/>
<polygon fill="black" stroke="black" points="455.1,-347.05 463.07,-340.07 452.49,-340.55 455.1,-347.05"/>
</g>
<!-- [root] provider[&quot;registry.terraform.io/hashicorp/aws&quot;] (close)&#45;&gt;[root] aws_s3_bucket_versioning.versioning_state (expand) -->
<g id="edge_14" class="edge">
<title>[root] provider[&quot;registry.terraform.io/hashicorp/aws&quot;] (close)&#45;&gt;[root] aws_s3_bucket_versioning.versioning_state (expand)</title>
<path fill="none" stroke="black" d="M375.37,-375.89C384.25,-372.9 393.59,-370.09 402.5,-368 498.79,-345.42 528.32,-357.97 629.81,-339.96"/>
<polygon fill="black" stroke="black" points="630.65,-343.36 639.86,-338.12 629.39,-336.48 630.65,-343.36"/>
</g>
<!-- [root] root -->
<g id="node_12" class="node">
<title>[root] root</title>
<polygon fill="none" stroke="black" points="409.5,-484 343.5,-484 343.5,-448 409.5,-448 409.5,-484"/>
<text text-anchor="middle" x="376.5" y="-464.1" font-family="courier new" font-size="8.00">[root] root</text>
</g>
<!-- [root] root&#45;&gt;[root] provider[&quot;registry.terraform.io/hashicorp/aws&quot;] (close) -->
<g id="edge_16" class="edge">
<title>[root] root&#45;&gt;[root] provider[&quot;registry.terraform.io/hashicorp/aws&quot;] (close)</title>
<path fill="none" stroke="black" d="M365.38,-447.7C360.14,-439.56 353.8,-429.69 348.02,-420.7"/>
<polygon fill="black" stroke="black" points="350.85,-418.62 342.5,-412.1 344.96,-422.41 350.85,-418.62"/>
</g>
<!-- [root] output.bucketname -->
<g id="node_7" class="node">
<title>[root] output.bucketname</title>
<polygon fill="none" stroke="black" points="415.5,-394 415.5,-409 467.5,-409 467.5,-394 415.5,-394"/>
<text text-anchor="start" x="427.5" y="-399.6" font-family="courier new" font-size="8.00">output</text>
<polygon fill="none" stroke="black" points="415.5,-379 415.5,-394 467.5,-394 467.5,-379 415.5,-379"/>
<text text-anchor="start" x="418.5" y="-384.6" font-family="courier new" font-size="8.00">bucketname</text>
</g>
<!-- [root] root&#45;&gt;[root] output.bucketname -->
<g id="edge_15" class="edge">
<title>[root] root&#45;&gt;[root] output.bucketname</title>
<path fill="none" stroke="black" d="M392.57,-447.7C400.44,-439.22 410.06,-428.86 418.67,-419.58"/>
<polygon fill="black" stroke="black" points="421.38,-421.81 425.62,-412.1 416.25,-417.05 421.38,-421.81"/>
</g>
<!-- [root] var.tags -->
<g id="node_10" class="node">
<title>[root] var.tags</title>
<polygon fill="none" stroke="black" points="459.5,-34 459.5,-49 484.5,-49 484.5,-34 459.5,-34"/>
<text text-anchor="start" x="465" y="-39.6" font-family="courier new" font-size="8.00">var</text>
<polygon fill="none" stroke="black" points="459.5,-19 459.5,-34 484.5,-34 484.5,-19 459.5,-19"/>
<text text-anchor="start" x="462.5" y="-24.6" font-family="courier new" font-size="8.00">tags</text>
</g>
<!-- [root] var.random_string&#45;&gt;[root] var.tags -->
<g id="edge_17" class="edge">
<title>[root] var.random_string&#45;&gt;[root] var.tags</title>
<path fill="none" stroke="black" stroke-dasharray="5,2" d="M471.5,-87.7C471.5,-76.85 471.5,-62.92 471.5,-52.1"/>
</g>
<!-- [root] output.bucketname&#45;&gt;[root] aws_s3_bucket.statestorage (expand) -->
<g id="edge_9" class="edge">
<title>[root] output.bucketname&#45;&gt;[root] aws_s3_bucket.statestorage (expand)</title>
<path fill="none" stroke="black" d="M468.54,-392.84C539.19,-391.8 726.47,-384.78 764.5,-340 847.81,-241.9 589.48,-197.57 484.12,-183.88"/>
<polygon fill="black" stroke="black" points="484.48,-180.4 474.12,-182.62 483.6,-187.35 484.48,-180.4"/>
</g>
</g>
</svg>

