<?xml version="1.0" encoding="UTF-8" standalone="no"?>
<!DOCTYPE svg PUBLIC "-//W3C//DTD SVG 1.1//EN"
 "http://www.w3.org/Graphics/SVG/1.1/DTD/svg11.dtd">
<!-- Generated by graphviz version 2.43.0 (0)
 -->
<!-- Title: %3 Pages: 1 -->
<svg width="882pt" height="476pt"
 viewBox="0.00 0.00 882.00 476.00" xmlns="http://www.w3.org/2000/svg" xmlns:xlink="http://www.w3.org/1999/xlink">
<g id="graph0" class="graph" transform="scale(1 1) rotate(0) translate(4 472)">
<title>%3</title>
<polygon fill="white" stroke="transparent" points="-4,4 -4,-472 878,-472 878,4 -4,4"/>
<g id="clust2" class="cluster">
<title>cluster[root] aws_s3_bucket.statestorage (expand)_var_</title>
</g>
<g id="clust3" class="cluster">
<title>cluster[root] root_output_[root] aws_s3_bucket.statestorage (expand)</title>
</g>
<!-- [root] aws_s3_bucket.statestorage (expand) -->
<g id="node_0" class="node">
<title>[root] aws_s3_bucket.statestorage (expand)</title>
<polygon fill="none" stroke="black" points="501,-162 501,-177 566,-177 566,-162 501,-162"/>
<text text-anchor="start" x="504" y="-167.6" font-family="courier new" font-size="8.00">aws_s3_bucket</text>
<polygon fill="none" stroke="black" points="501,-147 501,-162 566,-162 566,-147 501,-147"/>
<text text-anchor="start" x="506" y="-152.6" font-family="courier new" font-size="8.00">statestorage</text>
</g>
<!-- [root] provider[&quot;registry.terraform.io/hashicorp/aws&quot;] -->
<g id="node_8" class="node">
<title>[root] provider[&quot;registry.terraform.io/hashicorp/aws&quot;]</title>
<polygon fill="none" stroke="black" points="533,-90 533,-105 625,-105 625,-90 533,-90"/>
<text text-anchor="start" x="558.5" y="-95.6" font-family="courier new" font-size="8.00">terraform</text>
<polygon fill="none" stroke="black" points="533,-75 533,-90 625,-90 625,-75 533,-75"/>
<text text-anchor="start" x="536" y="-80.6" font-family="courier new" font-size="8.00">io/hashicorp/aws\&quot;]</text>
</g>
<!-- [root] aws_s3_bucket.statestorage (expand)&#45;&gt;[root] provider[&quot;registry.terraform.io/hashicorp/aws&quot;] -->
<g id="edge_0" class="edge">
<title>[root] aws_s3_bucket.statestorage (expand)&#45;&gt;[root] provider[&quot;registry.terraform.io/hashicorp/aws&quot;]</title>
<path fill="none" stroke="black" d="M544.37,-143.7C549.72,-135.56 556.2,-125.69 562.11,-116.7"/>
<polygon fill="black" stroke="black" points="565.19,-118.38 567.76,-108.1 559.34,-114.54 565.19,-118.38"/>
</g>
<!-- [root] random_string.bucketname (expand) -->
<g id="node_10" class="node">
<title>[root] random_string.bucketname (expand)</title>
<polygon fill="none" stroke="black" points="717,-90 717,-105 782,-105 782,-90 717,-90"/>
<text text-anchor="start" x="720" y="-95.6" font-family="courier new" font-size="8.00">random_string</text>
<polygon fill="none" stroke="black" points="717,-75 717,-90 782,-90 782,-75 717,-75"/>
<text text-anchor="start" x="726.5" y="-80.6" font-family="courier new" font-size="8.00">bucketname</text>
</g>
<!-- [root] aws_s3_bucket.statestorage (expand)&#45;&gt;[root] random_string.bucketname (expand) -->
<g id="edge_1" class="edge">
<title>[root] aws_s3_bucket.statestorage (expand)&#45;&gt;[root] random_string.bucketname (expand)</title>
<path fill="none" stroke="black" d="M565.81,-150.37C603.42,-138.18 665.19,-118.16 706.47,-104.78"/>
<polygon fill="black" stroke="black" points="707.81,-108.03 716.24,-101.62 705.65,-101.37 707.81,-108.03"/>
</g>
<!-- [root] var.tags -->
<g id="node_11" class="node">
<title>[root] var.tags</title>
<polygon fill="none" stroke="black" points="476,-90 476,-105 501,-105 501,-90 476,-90"/>
<text text-anchor="start" x="481.5" y="-95.6" font-family="courier new" font-size="8.00">var</text>
<polygon fill="none" stroke="black" points="476,-75 476,-90 501,-90 501,-75 476,-75"/>
<text text-anchor="start" x="479" y="-80.6" font-family="courier new" font-size="8.00">tags</text>
</g>
<!-- [root] aws_s3_bucket.statestorage (expand)&#45;&gt;[root] var.tags -->
<g id="edge_2" class="edge">
<title>[root] aws_s3_bucket.statestorage (expand)&#45;&gt;[root] var.tags</title>
<path fill="none" stroke="black" d="M521.88,-143.7C516.64,-135.56 510.3,-125.69 504.52,-116.7"/>
<polygon fill="black" stroke="black" points="507.35,-114.62 499,-108.1 501.46,-118.41 507.35,-114.62"/>
</g>
<!-- [root] aws_s3_bucket_acl.statestorage_acl (expand) -->
<g id="node_1" class="node">
<title>[root] aws_s3_bucket_acl.statestorage_acl (expand)</title>
<polygon fill="none" stroke="black" points="384,-306 384,-321 467,-321 467,-306 384,-306"/>
<text text-anchor="start" x="387" y="-311.6" font-family="courier new" font-size="8.00">aws_s3_bucket_acl</text>
<polygon fill="none" stroke="black" points="384,-291 384,-306 467,-306 467,-291 384,-291"/>
<text text-anchor="start" x="389" y="-296.6" font-family="courier new" font-size="8.00">statestorage_acl</text>
</g>
<!-- [root] aws_s3_bucket_acl.statestorage_acl (expand)&#45;&gt;[root] aws_s3_bucket.statestorage (expand) -->
<g id="edge_3" class="edge">
<title>[root] aws_s3_bucket_acl.statestorage_acl (expand)&#45;&gt;[root] aws_s3_bucket.statestorage (expand)</title>
<path fill="none" stroke="black" d="M431.04,-287.71C438.18,-268.83 451.36,-238.31 469,-216 477.7,-205 489.02,-194.71 499.72,-186.18"/>
<polygon fill="black" stroke="black" points="501.94,-188.89 507.73,-180.01 497.67,-183.34 501.94,-188.89"/>
</g>
<!-- [root] aws_s3_bucket_policy.allow_access (expand) -->
<g id="node_2" class="node">
<title>[root] aws_s3_bucket_policy.allow_access (expand)</title>
<polygon fill="none" stroke="black" points="485,-306 485,-321 582,-321 582,-306 485,-306"/>
<text text-anchor="start" x="488" y="-311.6" font-family="courier new" font-size="8.00">aws_s3_bucket_policy</text>
<polygon fill="none" stroke="black" points="485,-291 485,-306 582,-306 582,-291 485,-291"/>
<text text-anchor="start" x="506" y="-296.6" font-family="courier new" font-size="8.00">allow_access</text>
</g>
<!-- [root] data.aws_iam_policy_document.allow_access (expand) -->
<g id="node_6" class="node">
<title>[root] data.aws_iam_policy_document.allow_access (expand)</title>
<polygon fill="none" stroke="black" points="478,-234 478,-249 588,-249 588,-234 478,-234"/>
<text text-anchor="start" x="481" y="-239.6" font-family="courier new" font-size="8.00">aws_iam_policy_document</text>
<polygon fill="none" stroke="black" points="478,-219 478,-234 588,-234 588,-219 478,-219"/>
<text text-anchor="start" x="505.5" y="-224.6" font-family="courier new" font-size="8.00">allow_access</text>
</g>
<!-- [root] aws_s3_bucket_policy.allow_access (expand)&#45;&gt;[root] data.aws_iam_policy_document.allow_access (expand) -->
<g id="edge_4" class="edge">
<title>[root] aws_s3_bucket_policy.allow_access (expand)&#45;&gt;[root] data.aws_iam_policy_document.allow_access (expand)</title>
<path fill="none" stroke="black" d="M533,-287.7C533,-279.98 533,-270.71 533,-262.11"/>
<polygon fill="black" stroke="black" points="536.5,-262.1 533,-252.1 529.5,-262.1 536.5,-262.1"/>
</g>
<!-- [root] aws_s3_bucket_public_access_block.blockpublic (expand) -->
<g id="node_3" class="node">
<title>[root] aws_s3_bucket_public_access_block.blockpublic (expand)</title>
<polygon fill="none" stroke="black" points="600,-306 600,-321 755,-321 755,-306 600,-306"/>
<text text-anchor="start" x="603" y="-311.6" font-family="courier new" font-size="8.00">aws_s3_bucket_public_access_block</text>
<polygon fill="none" stroke="black" points="600,-291 600,-306 755,-306 755,-291 600,-291"/>
<text text-anchor="start" x="652.5" y="-296.6" font-family="courier new" font-size="8.00">blockpublic</text>
</g>
<!-- [root] aws_s3_bucket_public_access_block.blockpublic (expand)&#45;&gt;[root] aws_s3_bucket.statestorage (expand) -->
<g id="edge_5" class="edge">
<title>[root] aws_s3_bucket_public_access_block.blockpublic (expand)&#45;&gt;[root] aws_s3_bucket.statestorage (expand)</title>
<path fill="none" stroke="black" d="M662.95,-287.92C647.5,-269.49 621.58,-239.6 597,-216 586.47,-205.89 574.26,-195.49 563.35,-186.61"/>
<polygon fill="black" stroke="black" points="565.3,-183.68 555.31,-180.14 560.91,-189.14 565.3,-183.68"/>
</g>
<!-- [root] aws_s3_bucket_server_side_encryption_configuration.bucketsse (expand) -->
<g id="node_4" class="node">
<title>[root] aws_s3_bucket_server_side_encryption_configuration.bucketsse (expand)</title>
<polygon fill="none" stroke="black" points="0,-306 0,-321 232,-321 232,-306 0,-306"/>
<text text-anchor="start" x="3" y="-311.6" font-family="courier new" font-size="8.00">aws_s3_bucket_server_side_encryption_configuration</text>
<polygon fill="none" stroke="black" points="0,-291 0,-306 232,-306 232,-291 0,-291"/>
<text text-anchor="start" x="95.5" y="-296.6" font-family="courier new" font-size="8.00">bucketsse</text>
</g>
<!-- [root] aws_s3_bucket_server_side_encryption_configuration.bucketsse (expand)&#45;&gt;[root] aws_s3_bucket.statestorage (expand) -->
<g id="edge_6" class="edge">
<title>[root] aws_s3_bucket_server_side_encryption_configuration.bucketsse (expand)&#45;&gt;[root] aws_s3_bucket.statestorage (expand)</title>
<path fill="none" stroke="black" d="M166.3,-287.87C249.22,-259.63 413.14,-203.81 490.58,-177.44"/>
<polygon fill="black" stroke="black" points="492.14,-180.61 500.47,-174.08 489.88,-173.99 492.14,-180.61"/>
</g>
<!-- [root] aws_s3_bucket_versioning.versioning_state (expand) -->
<g id="node_5" class="node">
<title>[root] aws_s3_bucket_versioning.versioning_state (expand)</title>
<polygon fill="none" stroke="black" points="251,-306 251,-321 366,-321 366,-306 251,-306"/>
<text text-anchor="start" x="254" y="-311.6" font-family="courier new" font-size="8.00">aws_s3_bucket_versioning</text>
<polygon fill="none" stroke="black" points="251,-291 251,-306 366,-306 366,-291 251,-291"/>
<text text-anchor="start" x="272" y="-296.6" font-family="courier new" font-size="8.00">versioning_state</text>
</g>
<!-- [root] aws_s3_bucket_versioning.versioning_state (expand)&#45;&gt;[root] aws_s3_bucket.statestorage (expand) -->
<g id="edge_7" class="edge">
<title>[root] aws_s3_bucket_versioning.versioning_state (expand)&#45;&gt;[root] aws_s3_bucket.statestorage (expand)</title>
<path fill="none" stroke="black" d="M333.36,-287.94C360.52,-269.78 404.99,-240.36 444,-216 460.45,-205.73 478.83,-194.7 494.6,-185.39"/>
<polygon fill="black" stroke="black" points="496.71,-188.21 503.55,-180.12 493.16,-182.18 496.71,-188.21"/>
</g>
<!-- [root] data.aws_iam_policy_document.allow_access (expand)&#45;&gt;[root] aws_s3_bucket.statestorage (expand) -->
<g id="edge_8" class="edge">
<title>[root] data.aws_iam_policy_document.allow_access (expand)&#45;&gt;[root] aws_s3_bucket.statestorage (expand)</title>
<path fill="none" stroke="black" d="M533,-215.7C533,-207.98 533,-198.71 533,-190.11"/>
<polygon fill="black" stroke="black" points="536.5,-190.1 533,-180.1 529.5,-190.1 536.5,-190.1"/>
</g>
<!-- [root] provider[&quot;registry.terraform.io/hashicorp/random&quot;] -->
<g id="node_9" class="node">
<title>[root] provider[&quot;registry.terraform.io/hashicorp/random&quot;]</title>
<polygon fill="none" stroke="black" points="696,-18 696,-33 802,-33 802,-18 696,-18"/>
<text text-anchor="start" x="728.5" y="-23.6" font-family="courier new" font-size="8.00">terraform</text>
<polygon fill="none" stroke="black" points="696,-3 696,-18 802,-18 802,-3 696,-3"/>
<text text-anchor="start" x="699" y="-8.6" font-family="courier new" font-size="8.00">io/hashicorp/random\&quot;]</text>
</g>
<!-- [root] random_string.bucketname (expand)&#45;&gt;[root] provider[&quot;registry.terraform.io/hashicorp/random&quot;] -->
<g id="edge_16" class="edge">
<title>[root] random_string.bucketname (expand)&#45;&gt;[root] provider[&quot;registry.terraform.io/hashicorp/random&quot;]</title>
<path fill="none" stroke="black" d="M749,-71.7C749,-63.98 749,-54.71 749,-46.11"/>
<polygon fill="black" stroke="black" points="752.5,-46.1 749,-36.1 745.5,-46.1 752.5,-46.1"/>
</g>
<!-- [root] provider[&quot;registry.terraform.io/hashicorp/aws&quot;] (close) -->
<g id="node_12" class="node">
<title>[root] provider[&quot;registry.terraform.io/hashicorp/aws&quot;] (close)</title>
<polygon fill="none" stroke="black" points="433,-378 433,-393 525,-393 525,-378 433,-378"/>
<text text-anchor="start" x="458.5" y="-383.6" font-family="courier new" font-size="8.00">terraform</text>
<polygon fill="none" stroke="black" points="433,-363 433,-378 525,-378 525,-363 433,-363"/>
<text text-anchor="start" x="436" y="-368.6" font-family="courier new" font-size="8.00">io/hashicorp/aws\&quot;]</text>
</g>
<!-- [root] provider[&quot;registry.terraform.io/hashicorp/aws&quot;] (close)&#45;&gt;[root] aws_s3_bucket_acl.statestorage_acl (expand) -->
<g id="edge_10" class="edge">
<title>[root] provider[&quot;registry.terraform.io/hashicorp/aws&quot;] (close)&#45;&gt;[root] aws_s3_bucket_acl.statestorage_acl (expand)</title>
<path fill="none" stroke="black" d="M465.65,-359.7C459.24,-351.39 451.44,-341.28 444.39,-332.14"/>
<polygon fill="black" stroke="black" points="447.07,-329.88 438.19,-324.1 441.53,-334.16 447.07,-329.88"/>
</g>
<!-- [root] provider[&quot;registry.terraform.io/hashicorp/aws&quot;] (close)&#45;&gt;[root] aws_s3_bucket_policy.allow_access (expand) -->
<g id="edge_11" class="edge">
<title>[root] provider[&quot;registry.terraform.io/hashicorp/aws&quot;] (close)&#45;&gt;[root] aws_s3_bucket_policy.allow_access (expand)</title>
<path fill="none" stroke="black" d="M492.35,-359.7C498.76,-351.39 506.56,-341.28 513.61,-332.14"/>
<polygon fill="black" stroke="black" points="516.47,-334.16 519.81,-324.1 510.93,-329.88 516.47,-334.16"/>
</g>
<!-- [root] provider[&quot;registry.terraform.io/hashicorp/aws&quot;] (close)&#45;&gt;[root] aws_s3_bucket_public_access_block.blockpublic (expand) -->
<g id="edge_12" class="edge">
<title>[root] provider[&quot;registry.terraform.io/hashicorp/aws&quot;] (close)&#45;&gt;[root] aws_s3_bucket_public_access_block.blockpublic (expand)</title>
<path fill="none" stroke="black" d="M525.17,-360.68C553.22,-350.76 589.27,-338.02 619.2,-327.44"/>
<polygon fill="black" stroke="black" points="620.42,-330.72 628.68,-324.08 618.09,-324.12 620.42,-330.72"/>
</g>
<!-- [root] provider[&quot;registry.terraform.io/hashicorp/aws&quot;] (close)&#45;&gt;[root] aws_s3_bucket_server_side_encryption_configuration.bucketsse (expand) -->
<g id="edge_13" class="edge">
<title>[root] provider[&quot;registry.terraform.io/hashicorp/aws&quot;] (close)&#45;&gt;[root] aws_s3_bucket_server_side_encryption_configuration.bucketsse (expand)</title>
<path fill="none" stroke="black" d="M432.66,-368.06C377.89,-357.5 285.25,-339.64 214.28,-325.95"/>
<polygon fill="black" stroke="black" points="214.9,-322.51 204.42,-324.05 213.58,-329.38 214.9,-322.51"/>
</g>
<!-- [root] provider[&quot;registry.terraform.io/hashicorp/aws&quot;] (close)&#45;&gt;[root] aws_s3_bucket_versioning.versioning_state (expand) -->
<g id="edge_14" class="edge">
<title>[root] provider[&quot;registry.terraform.io/hashicorp/aws&quot;] (close)&#45;&gt;[root] aws_s3_bucket_versioning.versioning_state (expand)</title>
<path fill="none" stroke="black" d="M437.17,-359.88C413.58,-350.22 383.94,-338.09 359,-327.88"/>
<polygon fill="black" stroke="black" points="360.28,-324.62 349.7,-324.07 357.62,-331.1 360.28,-324.62"/>
</g>
<!-- [root] provider[&quot;registry.terraform.io/hashicorp/random&quot;] (close) -->
<g id="node_13" class="node">
<title>[root] provider[&quot;registry.terraform.io/hashicorp/random&quot;] (close)</title>
<polygon fill="none" stroke="black" points="768,-378 768,-393 874,-393 874,-378 768,-378"/>
<text text-anchor="start" x="800.5" y="-383.6" font-family="courier new" font-size="8.00">terraform</text>
<polygon fill="none" stroke="black" points="768,-363 768,-378 874,-378 874,-363 768,-363"/>
<text text-anchor="start" x="771" y="-368.6" font-family="courier new" font-size="8.00">io/hashicorp/random\&quot;]</text>
</g>
<!-- [root] provider[&quot;registry.terraform.io/hashicorp/random&quot;] (close)&#45;&gt;[root] random_string.bucketname (expand) -->
<g id="edge_15" class="edge">
<title>[root] provider[&quot;registry.terraform.io/hashicorp/random&quot;] (close)&#45;&gt;[root] random_string.bucketname (expand)</title>
<path fill="none" stroke="black" d="M816.71,-359.97C804.68,-312.19 770.56,-176.62 755.86,-118.27"/>
<polygon fill="black" stroke="black" points="759.19,-117.15 753.36,-108.31 752.4,-118.86 759.19,-117.15"/>
</g>
<!-- [root] root -->
<g id="node_14" class="node">
<title>[root] root</title>
<polygon fill="none" stroke="black" points="756,-468 690,-468 690,-432 756,-432 756,-468"/>
<text text-anchor="middle" x="723" y="-448.1" font-family="courier new" font-size="8.00">[root] root</text>
</g>
<!-- [root] root&#45;&gt;[root] provider[&quot;registry.terraform.io/hashicorp/aws&quot;] (close) -->
<g id="edge_18" class="edge">
<title>[root] root&#45;&gt;[root] provider[&quot;registry.terraform.io/hashicorp/aws&quot;] (close)</title>
<path fill="none" stroke="black" d="M689.84,-439.49C650.18,-428.11 583.17,-408.89 535.34,-395.16"/>
<polygon fill="black" stroke="black" points="536.02,-391.72 525.44,-392.32 534.09,-398.45 536.02,-391.72"/>
</g>
<!-- [root] root&#45;&gt;[root] provider[&quot;registry.terraform.io/hashicorp/random&quot;] (close) -->
<g id="edge_19" class="edge">
<title>[root] root&#45;&gt;[root] provider[&quot;registry.terraform.io/hashicorp/random&quot;] (close)</title>
<path fill="none" stroke="black" d="M746.97,-431.88C759.55,-422.89 775.13,-411.76 788.75,-402.03"/>
<polygon fill="black" stroke="black" points="790.83,-404.85 796.93,-396.19 786.76,-399.15 790.83,-404.85"/>
</g>
<!-- [root] output.bucketname -->
<g id="node_7" class="node">
<title>[root] output.bucketname</title>
<polygon fill="none" stroke="black" points="697,-378 697,-393 749,-393 749,-378 697,-378"/>
<text text-anchor="start" x="709" y="-383.6" font-family="courier new" font-size="8.00">output</text>
<polygon fill="none" stroke="black" points="697,-363 697,-378 749,-378 749,-363 697,-363"/>
<text text-anchor="start" x="700" y="-368.6" font-family="courier new" font-size="8.00">bucketname</text>
</g>
<!-- [root] root&#45;&gt;[root] output.bucketname -->
<g id="edge_17" class="edge">
<title>[root] root&#45;&gt;[root] output.bucketname</title>
<path fill="none" stroke="black" d="M723,-431.7C723,-423.98 723,-414.71 723,-406.11"/>
<polygon fill="black" stroke="black" points="726.5,-406.1 723,-396.1 719.5,-406.1 726.5,-406.1"/>
</g>
<!-- [root] output.bucketname&#45;&gt;[root] aws_s3_bucket.statestorage (expand) -->
<g id="edge_9" class="edge">
<title>[root] output.bucketname&#45;&gt;[root] aws_s3_bucket.statestorage (expand)</title>
<path fill="none" stroke="black" d="M740.92,-359.73C757.69,-341.39 778.19,-311.82 764,-288 723.13,-219.41 630.1,-186.17 575.38,-172.01"/>
<polygon fill="black" stroke="black" points="576.18,-168.6 565.63,-169.58 574.49,-175.4 576.18,-168.6"/>
</g>
</g>
</svg>

