<?xml version="1.0" encoding="UTF-8" standalone="no"?>
<!DOCTYPE svg PUBLIC "-//W3C//DTD SVG 1.1//EN"
 "http://www.w3.org/Graphics/SVG/1.1/DTD/svg11.dtd">
<!-- Generated by graphviz version 2.43.0 (0)
 -->
<!-- Title: %3 Pages: 1 -->
<svg width="786pt" height="492pt"
 viewBox="0.00 0.00 785.83 492.00" xmlns="http://www.w3.org/2000/svg" xmlns:xlink="http://www.w3.org/1999/xlink">
<g id="graph0" class="graph" transform="scale(1 1) rotate(0) translate(4 488)">
<title>%3</title>
<polygon fill="white" stroke="transparent" points="-4,4 -4,-488 781.83,-488 781.83,4 -4,4"/>
<g id="clust2" class="cluster">
<title>cluster[root] aws_s3_bucket.statestorage (expand)_var_</title>
</g>
<g id="clust3" class="cluster">
<title>cluster[root] root_output_[root] aws_s3_bucket.statestorage (expand)</title>
</g>
<!-- [root] aws_s3_bucket.statestorage (expand) -->
<g id="node_0" class="node">
<title>[root] aws_s3_bucket.statestorage (expand)</title>
<polygon fill="none" stroke="black" points="491.5,-178 491.5,-193 556.5,-193 556.5,-178 491.5,-178"/>
<text text-anchor="start" x="494.5" y="-183.6" font-family="courier new" font-size="8.00">aws_s3_bucket</text>
<polygon fill="none" stroke="black" points="491.5,-163 491.5,-178 556.5,-178 556.5,-163 491.5,-163"/>
<text text-anchor="start" x="496.5" y="-168.6" font-family="courier new" font-size="8.00">statestorage</text>
</g>
<!-- [root] provider[&quot;registry.terraform.io/hashicorp/aws&quot;] -->
<g id="node_9" class="node">
<title>[root] provider[&quot;registry.terraform.io/hashicorp/aws&quot;]</title>
<polygon fill="none" stroke="black" points="374.5,-106 374.5,-121 466.5,-121 466.5,-106 374.5,-106"/>
<text text-anchor="start" x="400" y="-111.6" font-family="courier new" font-size="8.00">terraform</text>
<polygon fill="none" stroke="black" points="374.5,-91 374.5,-106 466.5,-106 466.5,-91 374.5,-91"/>
<text text-anchor="start" x="377.5" y="-96.6" font-family="courier new" font-size="8.00">io/hashicorp/aws\&quot;]</text>
</g>
<!-- [root] aws_s3_bucket.statestorage (expand)&#45;&gt;[root] provider[&quot;registry.terraform.io/hashicorp/aws&quot;] -->
<g id="edge_0" class="edge">
<title>[root] aws_s3_bucket.statestorage (expand)&#45;&gt;[root] provider[&quot;registry.terraform.io/hashicorp/aws&quot;]</title>
<path fill="none" stroke="black" d="M498.3,-159.88C485.09,-150.89 468.71,-139.76 454.39,-130.03"/>
<polygon fill="black" stroke="black" points="456.03,-126.92 445.79,-124.19 452.1,-132.71 456.03,-126.92"/>
</g>
<!-- [root] var.random_string -->
<g id="node_10" class="node">
<title>[root] var.random_string</title>
<polygon fill="none" stroke="black" points="491.5,-106 491.5,-121 556.5,-121 556.5,-106 491.5,-106"/>
<text text-anchor="start" x="517" y="-111.6" font-family="courier new" font-size="8.00">var</text>
<polygon fill="none" stroke="black" points="491.5,-91 491.5,-106 556.5,-106 556.5,-91 491.5,-91"/>
<text text-anchor="start" x="494.5" y="-96.6" font-family="courier new" font-size="8.00">random_string</text>
</g>
<!-- [root] aws_s3_bucket.statestorage (expand)&#45;&gt;[root] var.random_string -->
<g id="edge_1" class="edge">
<title>[root] aws_s3_bucket.statestorage (expand)&#45;&gt;[root] var.random_string</title>
<path fill="none" stroke="black" d="M523.5,-159.7C523.5,-151.98 523.5,-142.71 523.5,-134.11"/>
<polygon fill="black" stroke="black" points="527,-134.1 523.5,-124.1 520,-134.1 527,-134.1"/>
</g>
<!-- [root] aws_s3_bucket_acl.statestorage_acl (expand) -->
<g id="node_1" class="node">
<title>[root] aws_s3_bucket_acl.statestorage_acl (expand)</title>
<polygon fill="none" stroke="black" points="672.5,-322 672.5,-337 755.5,-337 755.5,-322 672.5,-322"/>
<text text-anchor="start" x="675.5" y="-327.6" font-family="courier new" font-size="8.00">aws_s3_bucket_acl</text>
<polygon fill="none" stroke="black" points="672.5,-307 672.5,-322 755.5,-322 755.5,-307 672.5,-307"/>
<text text-anchor="start" x="677.5" y="-312.6" font-family="courier new" font-size="8.00">statestorage_acl</text>
</g>
<!-- [root] aws_s3_bucket_acl.statestorage_acl (expand)&#45;&gt;[root] aws_s3_bucket.statestorage (expand) -->
<g id="edge_3" class="edge">
<title>[root] aws_s3_bucket_acl.statestorage_acl (expand)&#45;&gt;[root] aws_s3_bucket.statestorage (expand)</title>
<path fill="none" stroke="black" d="M690.58,-303.87C656.63,-278.5 592.88,-230.85 554.7,-202.32"/>
<polygon fill="black" stroke="black" points="556.61,-199.37 546.5,-196.19 552.41,-204.98 556.61,-199.37"/>
</g>
<!-- [root] aws_s3_bucket_policy.restrict_access (expand) -->
<g id="node_2" class="node">
<title>[root] aws_s3_bucket_policy.restrict_access (expand)</title>
<polygon fill="none" stroke="black" points="0.5,-322 0.5,-337 97.5,-337 97.5,-322 0.5,-322"/>
<text text-anchor="start" x="3.5" y="-327.6" font-family="courier new" font-size="8.00">aws_s3_bucket_policy</text>
<polygon fill="none" stroke="black" points="0.5,-307 0.5,-322 97.5,-322 97.5,-307 0.5,-307"/>
<text text-anchor="start" x="15" y="-312.6" font-family="courier new" font-size="8.00">restrict_access</text>
</g>
<!-- [root] data.aws_iam_policy_document.restrict_access (expand) -->
<g id="node_7" class="node">
<title>[root] data.aws_iam_policy_document.restrict_access (expand)</title>
<polygon fill="none" stroke="black" points="347.5,-250 347.5,-265 457.5,-265 457.5,-250 347.5,-250"/>
<text text-anchor="start" x="350.5" y="-255.6" font-family="courier new" font-size="8.00">aws_iam_policy_document</text>
<polygon fill="none" stroke="black" points="347.5,-235 347.5,-250 457.5,-250 457.5,-235 347.5,-235"/>
<text text-anchor="start" x="368.5" y="-240.6" font-family="courier new" font-size="8.00">restrict_access</text>
</g>
<!-- [root] aws_s3_bucket_policy.restrict_access (expand)&#45;&gt;[root] data.aws_iam_policy_document.restrict_access (expand) -->
<g id="edge_4" class="edge">
<title>[root] aws_s3_bucket_policy.restrict_access (expand)&#45;&gt;[root] data.aws_iam_policy_document.restrict_access (expand)</title>
<path fill="none" stroke="black" d="M97.22,-306.07C100.01,-305.34 102.79,-304.64 105.5,-304 184.5,-285.23 276.74,-269.76 337.21,-260.47"/>
<polygon fill="black" stroke="black" points="338.02,-263.89 347.38,-258.92 336.96,-256.97 338.02,-263.89"/>
</g>
<!-- [root] aws_s3_bucket_public_access_block.blockpublic (expand) -->
<g id="node_3" class="node">
<title>[root] aws_s3_bucket_public_access_block.blockpublic (expand)</title>
<polygon fill="none" stroke="black" points="115.5,-322 115.5,-337 270.5,-337 270.5,-322 115.5,-322"/>
<text text-anchor="start" x="118.5" y="-327.6" font-family="courier new" font-size="8.00">aws_s3_bucket_public_access_block</text>
<polygon fill="none" stroke="black" points="115.5,-307 115.5,-322 270.5,-322 270.5,-307 115.5,-307"/>
<text text-anchor="start" x="168" y="-312.6" font-family="courier new" font-size="8.00">blockpublic</text>
</g>
<!-- [root] aws_s3_bucket_public_access_block.blockpublic (expand)&#45;&gt;[root] aws_s3_bucket.statestorage (expand) -->
<g id="edge_5" class="edge">
<title>[root] aws_s3_bucket_public_access_block.blockpublic (expand)&#45;&gt;[root] aws_s3_bucket.statestorage (expand)</title>
<path fill="none" stroke="black" d="M270.29,-305.79C273.4,-305.18 276.48,-304.59 279.5,-304 362.59,-287.88 396.44,-315.49 466.5,-268 488.82,-252.87 504.3,-225.78 513.43,-205.45"/>
<polygon fill="black" stroke="black" points="516.72,-206.67 517.41,-196.1 510.28,-203.93 516.72,-206.67"/>
</g>
<!-- [root] aws_s3_bucket_server_side_encryption_configuration.bucketsse (expand) -->
<g id="node_4" class="node">
<title>[root] aws_s3_bucket_server_side_encryption_configuration.bucketsse (expand)</title>
<polygon fill="none" stroke="black" points="288.5,-322 288.5,-337 520.5,-337 520.5,-322 288.5,-322"/>
<text text-anchor="start" x="291.5" y="-327.6" font-family="courier new" font-size="8.00">aws_s3_bucket_server_side_encryption_configuration</text>
<polygon fill="none" stroke="black" points="288.5,-307 288.5,-322 520.5,-322 520.5,-307 288.5,-307"/>
<text text-anchor="start" x="384" y="-312.6" font-family="courier new" font-size="8.00">bucketsse</text>
</g>
<!-- [root] aws_s3_bucket_server_side_encryption_configuration.bucketsse (expand)&#45;&gt;[root] aws_s3_bucket.statestorage (expand) -->
<g id="edge_6" class="edge">
<title>[root] aws_s3_bucket_server_side_encryption_configuration.bucketsse (expand)&#45;&gt;[root] aws_s3_bucket.statestorage (expand)</title>
<path fill="none" stroke="black" d="M451.44,-303.99C468.78,-295.58 487.18,-283.78 499.5,-268 513.31,-250.3 519.19,-225.28 521.69,-206.28"/>
<polygon fill="black" stroke="black" points="525.19,-206.47 522.78,-196.15 518.23,-205.72 525.19,-206.47"/>
</g>
<!-- [root] aws_s3_bucket_versioning.versioning_state (expand) -->
<g id="node_5" class="node">
<title>[root] aws_s3_bucket_versioning.versioning_state (expand)</title>
<polygon fill="none" stroke="black" points="539.5,-322 539.5,-337 654.5,-337 654.5,-322 539.5,-322"/>
<text text-anchor="start" x="542.5" y="-327.6" font-family="courier new" font-size="8.00">aws_s3_bucket_versioning</text>
<polygon fill="none" stroke="black" points="539.5,-307 539.5,-322 654.5,-322 654.5,-307 539.5,-307"/>
<text text-anchor="start" x="560.5" y="-312.6" font-family="courier new" font-size="8.00">versioning_state</text>
</g>
<!-- [root] aws_s3_bucket_versioning.versioning_state (expand)&#45;&gt;[root] aws_s3_bucket.statestorage (expand) -->
<g id="edge_7" class="edge">
<title>[root] aws_s3_bucket_versioning.versioning_state (expand)&#45;&gt;[root] aws_s3_bucket.statestorage (expand)</title>
<path fill="none" stroke="black" d="M587.69,-303.87C575.09,-279.35 551.79,-234.03 537,-205.26"/>
<polygon fill="black" stroke="black" points="540.02,-203.48 532.34,-196.19 533.8,-206.68 540.02,-203.48"/>
</g>
<!-- [root] data.aws_caller_identity.current (expand) -->
<g id="node_6" class="node">
<title>[root] data.aws_caller_identity.current (expand)</title>
<polygon fill="none" stroke="black" points="362.5,-178 362.5,-193 454.5,-193 454.5,-178 362.5,-178"/>
<text text-anchor="start" x="365.5" y="-183.6" font-family="courier new" font-size="8.00">aws_caller_identity</text>
<polygon fill="none" stroke="black" points="362.5,-163 362.5,-178 454.5,-178 454.5,-163 362.5,-163"/>
<text text-anchor="start" x="392.5" y="-168.6" font-family="courier new" font-size="8.00">current</text>
</g>
<!-- [root] data.aws_caller_identity.current (expand)&#45;&gt;[root] provider[&quot;registry.terraform.io/hashicorp/aws&quot;] -->
<g id="edge_8" class="edge">
<title>[root] data.aws_caller_identity.current (expand)&#45;&gt;[root] provider[&quot;registry.terraform.io/hashicorp/aws&quot;]</title>
<path fill="none" stroke="black" d="M411.47,-159.7C412.79,-151.98 414.38,-142.71 415.85,-134.11"/>
<polygon fill="black" stroke="black" points="419.33,-134.55 417.57,-124.1 412.43,-133.37 419.33,-134.55"/>
</g>
<!-- [root] data.aws_iam_policy_document.restrict_access (expand)&#45;&gt;[root] aws_s3_bucket.statestorage (expand) -->
<g id="edge_9" class="edge">
<title>[root] data.aws_iam_policy_document.restrict_access (expand)&#45;&gt;[root] aws_s3_bucket.statestorage (expand)</title>
<path fill="none" stroke="black" d="M432.1,-231.88C448.07,-222.64 467.96,-211.13 485.11,-201.21"/>
<polygon fill="black" stroke="black" points="486.88,-204.23 493.79,-196.19 483.38,-198.17 486.88,-204.23"/>
</g>
<!-- [root] data.aws_iam_policy_document.restrict_access (expand)&#45;&gt;[root] data.aws_caller_identity.current (expand) -->
<g id="edge_10" class="edge">
<title>[root] data.aws_iam_policy_document.restrict_access (expand)&#45;&gt;[root] data.aws_caller_identity.current (expand)</title>
<path fill="none" stroke="black" d="M403.98,-231.7C404.64,-223.98 405.44,-214.71 406.18,-206.11"/>
<polygon fill="black" stroke="black" points="409.67,-206.37 407.03,-196.1 402.69,-205.77 409.67,-206.37"/>
</g>
<!-- [root] provider[&quot;registry.terraform.io/hashicorp/aws&quot;] (close) -->
<g id="node_12" class="node">
<title>[root] provider[&quot;registry.terraform.io/hashicorp/aws&quot;] (close)</title>
<polygon fill="none" stroke="black" points="365.5,-394 365.5,-409 457.5,-409 457.5,-394 365.5,-394"/>
<text text-anchor="start" x="391" y="-399.6" font-family="courier new" font-size="8.00">terraform</text>
<polygon fill="none" stroke="black" points="365.5,-379 365.5,-394 457.5,-394 457.5,-379 365.5,-379"/>
<text text-anchor="start" x="368.5" y="-384.6" font-family="courier new" font-size="8.00">io/hashicorp/aws\&quot;]</text>
</g>
<!-- [root] provider[&quot;registry.terraform.io/hashicorp/aws&quot;] (close)&#45;&gt;[root] aws_s3_bucket_acl.statestorage_acl (expand) -->
<g id="edge_12" class="edge">
<title>[root] provider[&quot;registry.terraform.io/hashicorp/aws&quot;] (close)&#45;&gt;[root] aws_s3_bucket_acl.statestorage_acl (expand)</title>
<path fill="none" stroke="black" d="M452.61,-375.89C460.76,-372.94 469.32,-370.14 477.5,-368 555.22,-347.68 580.32,-358.8 661.71,-340.18"/>
<polygon fill="black" stroke="black" points="663,-343.47 671.92,-337.76 661.38,-336.66 663,-343.47"/>
</g>
<!-- [root] provider[&quot;registry.terraform.io/hashicorp/aws&quot;] (close)&#45;&gt;[root] aws_s3_bucket_policy.restrict_access (expand) -->
<g id="edge_13" class="edge">
<title>[root] provider[&quot;registry.terraform.io/hashicorp/aws&quot;] (close)&#45;&gt;[root] aws_s3_bucket_policy.restrict_access (expand)</title>
<path fill="none" stroke="black" d="M365.28,-386.74C307.06,-378.46 203.84,-362.52 107.15,-340.26"/>
<polygon fill="black" stroke="black" points="107.75,-336.8 97.22,-337.94 106.16,-343.62 107.75,-336.8"/>
</g>
<!-- [root] provider[&quot;registry.terraform.io/hashicorp/aws&quot;] (close)&#45;&gt;[root] aws_s3_bucket_public_access_block.blockpublic (expand) -->
<g id="edge_14" class="edge">
<title>[root] provider[&quot;registry.terraform.io/hashicorp/aws&quot;] (close)&#45;&gt;[root] aws_s3_bucket_public_access_block.blockpublic (expand)</title>
<path fill="none" stroke="black" d="M365.32,-378.24C333.43,-368.05 290.63,-354.37 255.6,-343.17"/>
<polygon fill="black" stroke="black" points="256.53,-339.79 245.94,-340.08 254.4,-346.46 256.53,-339.79"/>
</g>
<!-- [root] provider[&quot;registry.terraform.io/hashicorp/aws&quot;] (close)&#45;&gt;[root] aws_s3_bucket_server_side_encryption_configuration.bucketsse (expand) -->
<g id="edge_15" class="edge">
<title>[root] provider[&quot;registry.terraform.io/hashicorp/aws&quot;] (close)&#45;&gt;[root] aws_s3_bucket_server_side_encryption_configuration.bucketsse (expand)</title>
<path fill="none" stroke="black" d="M409.77,-375.7C409,-367.98 408.07,-358.71 407.21,-350.11"/>
<polygon fill="black" stroke="black" points="410.69,-349.71 406.21,-340.1 403.72,-350.4 410.69,-349.71"/>
</g>
<!-- [root] provider[&quot;registry.terraform.io/hashicorp/aws&quot;] (close)&#45;&gt;[root] aws_s3_bucket_versioning.versioning_state (expand) -->
<g id="edge_16" class="edge">
<title>[root] provider[&quot;registry.terraform.io/hashicorp/aws&quot;] (close)&#45;&gt;[root] aws_s3_bucket_versioning.versioning_state (expand)</title>
<path fill="none" stroke="black" d="M456.59,-375.92C463.59,-373.27 470.74,-370.56 477.5,-368 498.54,-360.04 521.68,-351.28 541.92,-343.63"/>
<polygon fill="black" stroke="black" points="543.18,-346.9 551.29,-340.09 540.7,-340.35 543.18,-346.9"/>
</g>
<!-- [root] root -->
<g id="node_13" class="node">
<title>[root] root</title>
<polygon fill="none" stroke="black" points="489.5,-484 423.5,-484 423.5,-448 489.5,-448 489.5,-484"/>
<text text-anchor="middle" x="456.5" y="-464.1" font-family="courier new" font-size="8.00">[root] root</text>
</g>
<!-- [root] root&#45;&gt;[root] provider[&quot;registry.terraform.io/hashicorp/aws&quot;] (close) -->
<g id="edge_18" class="edge">
<title>[root] root&#45;&gt;[root] provider[&quot;registry.terraform.io/hashicorp/aws&quot;] (close)</title>
<path fill="none" stroke="black" d="M445.38,-447.7C440.14,-439.56 433.8,-429.69 428.02,-420.7"/>
<polygon fill="black" stroke="black" points="430.85,-418.62 422.5,-412.1 424.96,-422.41 430.85,-418.62"/>
</g>
<!-- [root] output.bucketname -->
<g id="node_8" class="node">
<title>[root] output.bucketname</title>
<polygon fill="none" stroke="black" points="490.5,-394 490.5,-409 542.5,-409 542.5,-394 490.5,-394"/>
<text text-anchor="start" x="502.5" y="-399.6" font-family="courier new" font-size="8.00">output</text>
<polygon fill="none" stroke="black" points="490.5,-379 490.5,-394 542.5,-394 542.5,-379 490.5,-379"/>
<text text-anchor="start" x="493.5" y="-384.6" font-family="courier new" font-size="8.00">bucketname</text>
</g>
<!-- [root] root&#45;&gt;[root] output.bucketname -->
<g id="edge_17" class="edge">
<title>[root] root&#45;&gt;[root] output.bucketname</title>
<path fill="none" stroke="black" d="M471.33,-447.7C478.52,-439.3 487.3,-429.07 495.19,-419.86"/>
<polygon fill="black" stroke="black" points="497.99,-421.97 501.84,-412.1 492.67,-417.42 497.99,-421.97"/>
</g>
<!-- [root] var.tags -->
<g id="node_11" class="node">
<title>[root] var.tags</title>
<polygon fill="none" stroke="black" points="511.5,-34 511.5,-49 536.5,-49 536.5,-34 511.5,-34"/>
<text text-anchor="start" x="517" y="-39.6" font-family="courier new" font-size="8.00">var</text>
<polygon fill="none" stroke="black" points="511.5,-19 511.5,-34 536.5,-34 536.5,-19 511.5,-19"/>
<text text-anchor="start" x="514.5" y="-24.6" font-family="courier new" font-size="8.00">tags</text>
</g>
<!-- [root] var.random_string&#45;&gt;[root] var.tags -->
<g id="edge_19" class="edge">
<title>[root] var.random_string&#45;&gt;[root] var.tags</title>
<path fill="none" stroke="black" stroke-dasharray="5,2" d="M523.5,-87.7C523.5,-76.85 523.5,-62.92 523.5,-52.1"/>
</g>
<!-- [root] output.bucketname&#45;&gt;[root] aws_s3_bucket.statestorage (expand) -->
<g id="edge_11" class="edge">
<title>[root] output.bucketname&#45;&gt;[root] aws_s3_bucket.statestorage (expand)</title>
<path fill="none" stroke="black" d="M543.81,-391.35C602.37,-387.19 736.95,-374.06 764.5,-340 826.84,-262.93 650.53,-209.14 565.95,-188.43"/>
<polygon fill="black" stroke="black" points="566.65,-185 556.11,-186.07 565.01,-191.81 566.65,-185"/>
</g>
</g>
</svg>

