<?xml version="1.0" encoding="UTF-8" standalone="no"?>
<!DOCTYPE svg PUBLIC "-//W3C//DTD SVG 1.1//EN"
 "http://www.w3.org/Graphics/SVG/1.1/DTD/svg11.dtd">
<!-- Generated by graphviz version 2.43.0 (0)
 -->
<!-- Title: %3 Pages: 1 -->
<svg width="652pt" height="476pt"
 viewBox="0.00 0.00 651.92 476.00" xmlns="http://www.w3.org/2000/svg" xmlns:xlink="http://www.w3.org/1999/xlink">
<g id="graph0" class="graph" transform="scale(1 1) rotate(0) translate(4 472)">
<title>%3</title>
<polygon fill="white" stroke="transparent" points="-4,4 -4,-472 647.92,-472 647.92,4 -4,4"/>
<g id="clust2" class="cluster">
<title>cluster[root] aws_s3_bucket.statestorage (expand)_var_</title>
</g>
<!-- [root] aws_s3_bucket.statestorage (expand) -->
<g id="node_0" class="node">
<title>[root] aws_s3_bucket.statestorage (expand)</title>
<polygon fill="none" stroke="black" points="261.5,-162 261.5,-177 326.5,-177 326.5,-162 261.5,-162"/>
<text text-anchor="start" x="264.5" y="-167.6" font-family="courier new" font-size="8.00">aws_s3_bucket</text>
<polygon fill="none" stroke="black" points="261.5,-147 261.5,-162 326.5,-162 326.5,-147 261.5,-147"/>
<text text-anchor="start" x="266.5" y="-152.6" font-family="courier new" font-size="8.00">statestorage</text>
</g>
<!-- [root] provider[&quot;registry.terraform.io/hashicorp/aws&quot;] -->
<g id="node_6" class="node">
<title>[root] provider[&quot;registry.terraform.io/hashicorp/aws&quot;]</title>
<polygon fill="none" stroke="black" points="202.5,-90 202.5,-105 294.5,-105 294.5,-90 202.5,-90"/>
<text text-anchor="start" x="228" y="-95.6" font-family="courier new" font-size="8.00">terraform</text>
<polygon fill="none" stroke="black" points="202.5,-75 202.5,-90 294.5,-90 294.5,-75 202.5,-75"/>
<text text-anchor="start" x="205.5" y="-80.6" font-family="courier new" font-size="8.00">io/hashicorp/aws\&quot;]</text>
</g>
<!-- [root] aws_s3_bucket.statestorage (expand)&#45;&gt;[root] provider[&quot;registry.terraform.io/hashicorp/aws&quot;] -->
<g id="edge_0" class="edge">
<title>[root] aws_s3_bucket.statestorage (expand)&#45;&gt;[root] provider[&quot;registry.terraform.io/hashicorp/aws&quot;]</title>
<path fill="none" stroke="black" d="M282.38,-143.7C277.14,-135.56 270.8,-125.69 265.02,-116.7"/>
<polygon fill="black" stroke="black" points="267.85,-114.62 259.5,-108.1 261.96,-118.41 267.85,-114.62"/>
</g>
<!-- [root] random_string.bucketname (expand) -->
<g id="node_8" class="node">
<title>[root] random_string.bucketname (expand)</title>
<polygon fill="none" stroke="black" points="501.5,-90 501.5,-105 566.5,-105 566.5,-90 501.5,-90"/>
<text text-anchor="start" x="504.5" y="-95.6" font-family="courier new" font-size="8.00">random_string</text>
<polygon fill="none" stroke="black" points="501.5,-75 501.5,-90 566.5,-90 566.5,-75 501.5,-75"/>
<text text-anchor="start" x="511" y="-80.6" font-family="courier new" font-size="8.00">bucketname</text>
</g>
<!-- [root] aws_s3_bucket.statestorage (expand)&#45;&gt;[root] random_string.bucketname (expand) -->
<g id="edge_1" class="edge">
<title>[root] aws_s3_bucket.statestorage (expand)&#45;&gt;[root] random_string.bucketname (expand)</title>
<path fill="none" stroke="black" d="M326.12,-151.49C368.95,-138.99 444.24,-117.04 491.35,-103.29"/>
<polygon fill="black" stroke="black" points="492.33,-106.65 500.95,-100.49 490.37,-99.93 492.33,-106.65"/>
</g>
<!-- [root] var.tags -->
<g id="node_9" class="node">
<title>[root] var.tags</title>
<polygon fill="none" stroke="black" points="327.5,-90 327.5,-105 352.5,-105 352.5,-90 327.5,-90"/>
<text text-anchor="start" x="333" y="-95.6" font-family="courier new" font-size="8.00">var</text>
<polygon fill="none" stroke="black" points="327.5,-75 327.5,-90 352.5,-90 352.5,-75 327.5,-75"/>
<text text-anchor="start" x="330.5" y="-80.6" font-family="courier new" font-size="8.00">tags</text>
</g>
<!-- [root] aws_s3_bucket.statestorage (expand)&#45;&gt;[root] var.tags -->
<g id="edge_2" class="edge">
<title>[root] aws_s3_bucket.statestorage (expand)&#45;&gt;[root] var.tags</title>
<path fill="none" stroke="black" d="M304.87,-143.7C310.22,-135.56 316.7,-125.69 322.61,-116.7"/>
<polygon fill="black" stroke="black" points="325.69,-118.38 328.26,-108.1 319.84,-114.54 325.69,-118.38"/>
</g>
<!-- [root] aws_s3_bucket_acl.statestorage_acl (expand) -->
<g id="node_1" class="node">
<title>[root] aws_s3_bucket_acl.statestorage_acl (expand)</title>
<polygon fill="none" stroke="black" points="0.5,-306 0.5,-321 83.5,-321 83.5,-306 0.5,-306"/>
<text text-anchor="start" x="3.5" y="-311.6" font-family="courier new" font-size="8.00">aws_s3_bucket_acl</text>
<polygon fill="none" stroke="black" points="0.5,-291 0.5,-306 83.5,-306 83.5,-291 0.5,-291"/>
<text text-anchor="start" x="5.5" y="-296.6" font-family="courier new" font-size="8.00">statestorage_acl</text>
</g>
<!-- [root] aws_s3_bucket_acl.statestorage_acl (expand)&#45;&gt;[root] aws_s3_bucket.statestorage (expand) -->
<g id="edge_3" class="edge">
<title>[root] aws_s3_bucket_acl.statestorage_acl (expand)&#45;&gt;[root] aws_s3_bucket.statestorage (expand)</title>
<path fill="none" stroke="black" d="M51.29,-287.99C63.71,-267.89 86.99,-234.81 115.5,-216 156.83,-188.73 212.62,-175.1 250.66,-168.57"/>
<polygon fill="black" stroke="black" points="251.58,-171.96 260.89,-166.91 250.46,-165.05 251.58,-171.96"/>
</g>
<!-- [root] aws_s3_bucket_policy.allow_access (expand) -->
<g id="node_2" class="node">
<title>[root] aws_s3_bucket_policy.allow_access (expand)</title>
<polygon fill="none" stroke="black" points="101.5,-306 101.5,-321 198.5,-321 198.5,-306 101.5,-306"/>
<text text-anchor="start" x="104.5" y="-311.6" font-family="courier new" font-size="8.00">aws_s3_bucket_policy</text>
<polygon fill="none" stroke="black" points="101.5,-291 101.5,-306 198.5,-306 198.5,-291 101.5,-291"/>
<text text-anchor="start" x="122.5" y="-296.6" font-family="courier new" font-size="8.00">allow_access</text>
</g>
<!-- [root] data.aws_iam_policy_document.allow_access (expand) -->
<g id="node_5" class="node">
<title>[root] data.aws_iam_policy_document.allow_access (expand)</title>
<polygon fill="none" stroke="black" points="124.5,-234 124.5,-249 234.5,-249 234.5,-234 124.5,-234"/>
<text text-anchor="start" x="127.5" y="-239.6" font-family="courier new" font-size="8.00">aws_iam_policy_document</text>
<polygon fill="none" stroke="black" points="124.5,-219 124.5,-234 234.5,-234 234.5,-219 124.5,-219"/>
<text text-anchor="start" x="152" y="-224.6" font-family="courier new" font-size="8.00">allow_access</text>
</g>
<!-- [root] aws_s3_bucket_policy.allow_access (expand)&#45;&gt;[root] data.aws_iam_policy_document.allow_access (expand) -->
<g id="edge_4" class="edge">
<title>[root] aws_s3_bucket_policy.allow_access (expand)&#45;&gt;[root] data.aws_iam_policy_document.allow_access (expand)</title>
<path fill="none" stroke="black" d="M156.92,-287.7C160.29,-279.81 164.37,-270.3 168.12,-261.55"/>
<polygon fill="black" stroke="black" points="171.45,-262.67 172.17,-252.1 165.01,-259.92 171.45,-262.67"/>
</g>
<!-- [root] aws_s3_bucket_public_access_block.blockpublic (expand) -->
<g id="node_3" class="node">
<title>[root] aws_s3_bucket_public_access_block.blockpublic (expand)</title>
<polygon fill="none" stroke="black" points="216.5,-306 216.5,-321 371.5,-321 371.5,-306 216.5,-306"/>
<text text-anchor="start" x="219.5" y="-311.6" font-family="courier new" font-size="8.00">aws_s3_bucket_public_access_block</text>
<polygon fill="none" stroke="black" points="216.5,-291 216.5,-306 371.5,-306 371.5,-291 216.5,-291"/>
<text text-anchor="start" x="269" y="-296.6" font-family="courier new" font-size="8.00">blockpublic</text>
</g>
<!-- [root] aws_s3_bucket_public_access_block.blockpublic (expand)&#45;&gt;[root] aws_s3_bucket.statestorage (expand) -->
<g id="edge_5" class="edge">
<title>[root] aws_s3_bucket_public_access_block.blockpublic (expand)&#45;&gt;[root] aws_s3_bucket.statestorage (expand)</title>
<path fill="none" stroke="black" d="M293.5,-287.87C293.5,-263.67 293.5,-219.21 293.5,-190.39"/>
<polygon fill="black" stroke="black" points="297,-190.19 293.5,-180.19 290,-190.19 297,-190.19"/>
</g>
<!-- [root] aws_s3_bucket_server_side_encryption_configuration.bucketsse (expand) -->
<g id="node_4" class="node">
<title>[root] aws_s3_bucket_server_side_encryption_configuration.bucketsse (expand)</title>
<polygon fill="none" stroke="black" points="389.5,-306 389.5,-321 621.5,-321 621.5,-306 389.5,-306"/>
<text text-anchor="start" x="392.5" y="-311.6" font-family="courier new" font-size="8.00">aws_s3_bucket_server_side_encryption_configuration</text>
<polygon fill="none" stroke="black" points="389.5,-291 389.5,-306 621.5,-306 621.5,-291 389.5,-291"/>
<text text-anchor="start" x="485" y="-296.6" font-family="courier new" font-size="8.00">bucketsse</text>
</g>
<!-- [root] aws_s3_bucket_server_side_encryption_configuration.bucketsse (expand)&#45;&gt;[root] aws_s3_bucket.statestorage (expand) -->
<g id="edge_6" class="edge">
<title>[root] aws_s3_bucket_server_side_encryption_configuration.bucketsse (expand)&#45;&gt;[root] aws_s3_bucket.statestorage (expand)</title>
<path fill="none" stroke="black" d="M479.93,-287.87C441.81,-262.34 370.02,-214.25 327.51,-185.78"/>
<polygon fill="black" stroke="black" points="329.42,-182.85 319.16,-180.19 325.52,-188.66 329.42,-182.85"/>
</g>
<!-- [root] data.aws_iam_policy_document.allow_access (expand)&#45;&gt;[root] aws_s3_bucket.statestorage (expand) -->
<g id="edge_7" class="edge">
<title>[root] data.aws_iam_policy_document.allow_access (expand)&#45;&gt;[root] aws_s3_bucket.statestorage (expand)</title>
<path fill="none" stroke="black" d="M207.39,-215.88C222.29,-206.72 240.83,-195.34 256.88,-185.48"/>
<polygon fill="black" stroke="black" points="258.81,-188.41 265.51,-180.19 255.15,-182.44 258.81,-188.41"/>
</g>
<!-- [root] provider[&quot;registry.terraform.io/hashicorp/random&quot;] -->
<g id="node_7" class="node">
<title>[root] provider[&quot;registry.terraform.io/hashicorp/random&quot;]</title>
<polygon fill="none" stroke="black" points="480.5,-18 480.5,-33 586.5,-33 586.5,-18 480.5,-18"/>
<text text-anchor="start" x="513" y="-23.6" font-family="courier new" font-size="8.00">terraform</text>
<polygon fill="none" stroke="black" points="480.5,-3 480.5,-18 586.5,-18 586.5,-3 480.5,-3"/>
<text text-anchor="start" x="483.5" y="-8.6" font-family="courier new" font-size="8.00">io/hashicorp/random\&quot;]</text>
</g>
<!-- [root] random_string.bucketname (expand)&#45;&gt;[root] provider[&quot;registry.terraform.io/hashicorp/random&quot;] -->
<g id="edge_13" class="edge">
<title>[root] random_string.bucketname (expand)&#45;&gt;[root] provider[&quot;registry.terraform.io/hashicorp/random&quot;]</title>
<path fill="none" stroke="black" d="M533.5,-71.7C533.5,-63.98 533.5,-54.71 533.5,-46.11"/>
<polygon fill="black" stroke="black" points="537,-46.1 533.5,-36.1 530,-46.1 537,-46.1"/>
</g>
<!-- [root] provider[&quot;registry.terraform.io/hashicorp/aws&quot;] (close) -->
<g id="node_10" class="node">
<title>[root] provider[&quot;registry.terraform.io/hashicorp/aws&quot;] (close)</title>
<polygon fill="none" stroke="black" points="247.5,-378 247.5,-393 339.5,-393 339.5,-378 247.5,-378"/>
<text text-anchor="start" x="273" y="-383.6" font-family="courier new" font-size="8.00">terraform</text>
<polygon fill="none" stroke="black" points="247.5,-363 247.5,-378 339.5,-378 339.5,-363 247.5,-363"/>
<text text-anchor="start" x="250.5" y="-368.6" font-family="courier new" font-size="8.00">io/hashicorp/aws\&quot;]</text>
</g>
<!-- [root] provider[&quot;registry.terraform.io/hashicorp/aws&quot;] (close)&#45;&gt;[root] aws_s3_bucket_acl.statestorage_acl (expand) -->
<g id="edge_8" class="edge">
<title>[root] provider[&quot;registry.terraform.io/hashicorp/aws&quot;] (close)&#45;&gt;[root] aws_s3_bucket_acl.statestorage_acl (expand)</title>
<path fill="none" stroke="black" d="M247.11,-365.82C208.16,-356.22 150.88,-341.57 92.86,-324.32"/>
<polygon fill="black" stroke="black" points="93.75,-320.93 83.17,-321.42 91.74,-327.64 93.75,-320.93"/>
</g>
<!-- [root] provider[&quot;registry.terraform.io/hashicorp/aws&quot;] (close)&#45;&gt;[root] aws_s3_bucket_policy.allow_access (expand) -->
<g id="edge_9" class="edge">
<title>[root] provider[&quot;registry.terraform.io/hashicorp/aws&quot;] (close)&#45;&gt;[root] aws_s3_bucket_policy.allow_access (expand)</title>
<path fill="none" stroke="black" d="M258.27,-359.88C238.92,-350.47 214.73,-338.71 194.07,-328.67"/>
<polygon fill="black" stroke="black" points="195.39,-325.41 184.86,-324.19 192.33,-331.71 195.39,-325.41"/>
</g>
<!-- [root] provider[&quot;registry.terraform.io/hashicorp/aws&quot;] (close)&#45;&gt;[root] aws_s3_bucket_public_access_block.blockpublic (expand) -->
<g id="edge_10" class="edge">
<title>[root] provider[&quot;registry.terraform.io/hashicorp/aws&quot;] (close)&#45;&gt;[root] aws_s3_bucket_public_access_block.blockpublic (expand)</title>
<path fill="none" stroke="black" d="M293.5,-359.7C293.5,-351.98 293.5,-342.71 293.5,-334.11"/>
<polygon fill="black" stroke="black" points="297,-334.1 293.5,-324.1 290,-334.1 297,-334.1"/>
</g>
<!-- [root] provider[&quot;registry.terraform.io/hashicorp/aws&quot;] (close)&#45;&gt;[root] aws_s3_bucket_server_side_encryption_configuration.bucketsse (expand) -->
<g id="edge_11" class="edge">
<title>[root] provider[&quot;registry.terraform.io/hashicorp/aws&quot;] (close)&#45;&gt;[root] aws_s3_bucket_server_side_encryption_configuration.bucketsse (expand)</title>
<path fill="none" stroke="black" d="M339.5,-361.81C370.2,-351.67 410.92,-338.23 444.34,-327.19"/>
<polygon fill="black" stroke="black" points="445.61,-330.46 454.01,-324 443.42,-323.81 445.61,-330.46"/>
</g>
<!-- [root] provider[&quot;registry.terraform.io/hashicorp/random&quot;] (close) -->
<g id="node_11" class="node">
<title>[root] provider[&quot;registry.terraform.io/hashicorp/random&quot;] (close)</title>
<polygon fill="none" stroke="black" points="476.5,-378 476.5,-393 582.5,-393 582.5,-378 476.5,-378"/>
<text text-anchor="start" x="509" y="-383.6" font-family="courier new" font-size="8.00">terraform</text>
<polygon fill="none" stroke="black" points="476.5,-363 476.5,-378 582.5,-378 582.5,-363 476.5,-363"/>
<text text-anchor="start" x="479.5" y="-368.6" font-family="courier new" font-size="8.00">io/hashicorp/random\&quot;]</text>
</g>
<!-- [root] provider[&quot;registry.terraform.io/hashicorp/random&quot;] (close)&#45;&gt;[root] random_string.bucketname (expand) -->
<g id="edge_12" class="edge">
<title>[root] provider[&quot;registry.terraform.io/hashicorp/random&quot;] (close)&#45;&gt;[root] random_string.bucketname (expand)</title>
<path fill="none" stroke="black" d="M582.5,-361.89C601,-353.79 619.79,-341.71 630.5,-324 673.48,-252.9 599.58,-159.3 558.36,-115.53"/>
<polygon fill="black" stroke="black" points="560.77,-112.99 551.32,-108.21 555.72,-117.84 560.77,-112.99"/>
</g>
<!-- [root] root -->
<g id="node_12" class="node">
<title>[root] root</title>
<polygon fill="none" stroke="black" points="384.5,-468 318.5,-468 318.5,-432 384.5,-432 384.5,-468"/>
<text text-anchor="middle" x="351.5" y="-448.1" font-family="courier new" font-size="8.00">[root] root</text>
</g>
<!-- [root] root&#45;&gt;[root] provider[&quot;registry.terraform.io/hashicorp/aws&quot;] (close) -->
<g id="edge_14" class="edge">
<title>[root] root&#45;&gt;[root] provider[&quot;registry.terraform.io/hashicorp/aws&quot;] (close)</title>
<path fill="none" stroke="black" d="M337.16,-431.7C330.21,-423.3 321.73,-413.07 314.1,-403.86"/>
<polygon fill="black" stroke="black" points="316.75,-401.57 307.67,-396.1 311.36,-406.04 316.75,-401.57"/>
</g>
<!-- [root] root&#45;&gt;[root] provider[&quot;registry.terraform.io/hashicorp/random&quot;] (close) -->
<g id="edge_15" class="edge">
<title>[root] root&#45;&gt;[root] provider[&quot;registry.terraform.io/hashicorp/random&quot;] (close)</title>
<path fill="none" stroke="black" d="M384.56,-436C410.42,-425.83 446.87,-411.5 476.74,-399.75"/>
<polygon fill="black" stroke="black" points="478.16,-402.95 486.19,-396.03 475.6,-396.43 478.16,-402.95"/>
</g>
</g>
</svg>

