<?xml version="1.0" encoding="UTF-8" standalone="no"?>
<!DOCTYPE svg PUBLIC "-//W3C//DTD SVG 1.1//EN"
 "http://www.w3.org/Graphics/SVG/1.1/DTD/svg11.dtd">
<!-- Generated by graphviz version 2.43.0 (0)
 -->
<!-- Title: %3 Pages: 1 -->
<svg width="289pt" height="492pt"
 viewBox="0.00 0.00 289.00 492.00" xmlns="http://www.w3.org/2000/svg" xmlns:xlink="http://www.w3.org/1999/xlink">
<g id="graph0" class="graph" transform="scale(1 1) rotate(0) translate(4 488)">
<title>%3</title>
<polygon fill="white" stroke="transparent" points="-4,4 -4,-488 285,-488 285,4 -4,4"/>
<g id="clust2" class="cluster">
<title>cluster[root] azurerm_network_interface.externalnic (expand)_var_</title>
</g>
<g id="clust3" class="cluster">
<title>cluster[root] root_var_</title>
</g>
<!-- [root] azurerm_network_interface.externalnic (expand) -->
<g id="node_0" class="node">
<title>[root] azurerm_network_interface.externalnic (expand)</title>
<polygon fill="none" stroke="black" points="103,-322 103,-337 222,-337 222,-322 103,-322"/>
<text text-anchor="start" x="106" y="-327.6" font-family="courier new" font-size="8.00">azurerm_network_interface</text>
<polygon fill="none" stroke="black" points="103,-307 103,-322 222,-322 222,-307 103,-307"/>
<text text-anchor="start" x="137.5" y="-312.6" font-family="courier new" font-size="8.00">externalnic</text>
</g>
<!-- [root] provider[&quot;registry.terraform.io/hashicorp/azurerm&quot;] -->
<g id="node_1" class="node">
<title>[root] provider[&quot;registry.terraform.io/hashicorp/azurerm&quot;]</title>
<polygon fill="none" stroke="black" points="55,-250 55,-265 165,-265 165,-250 55,-250"/>
<text text-anchor="start" x="89.5" y="-255.6" font-family="courier new" font-size="8.00">terraform</text>
<polygon fill="none" stroke="black" points="55,-235 55,-250 165,-250 165,-235 55,-235"/>
<text text-anchor="start" x="58" y="-240.6" font-family="courier new" font-size="8.00">io/hashicorp/azurerm\&quot;]</text>
</g>
<!-- [root] azurerm_network_interface.externalnic (expand)&#45;&gt;[root] provider[&quot;registry.terraform.io/hashicorp/azurerm&quot;] -->
<g id="edge_0" class="edge">
<title>[root] azurerm_network_interface.externalnic (expand)&#45;&gt;[root] provider[&quot;registry.terraform.io/hashicorp/azurerm&quot;]</title>
<path fill="none" stroke="black" d="M149.15,-303.7C142.97,-295.39 135.46,-285.28 128.68,-276.14"/>
<polygon fill="black" stroke="black" points="131.48,-274.04 122.71,-268.1 125.86,-278.22 131.48,-274.04"/>
</g>
<!-- [root] var.location -->
<g id="node_2" class="node">
<title>[root] var.location</title>
<polygon fill="none" stroke="black" points="193,-250 193,-265 236,-265 236,-250 193,-250"/>
<text text-anchor="start" x="207.5" y="-255.6" font-family="courier new" font-size="8.00">var</text>
<polygon fill="none" stroke="black" points="193,-235 193,-250 236,-250 236,-235 193,-235"/>
<text text-anchor="start" x="196" y="-240.6" font-family="courier new" font-size="8.00">location</text>
</g>
<!-- [root] azurerm_network_interface.externalnic (expand)&#45;&gt;[root] var.location -->
<g id="edge_1" class="edge">
<title>[root] azurerm_network_interface.externalnic (expand)&#45;&gt;[root] var.location</title>
<path fill="none" stroke="black" d="M174.85,-303.7C181.03,-295.39 188.54,-285.28 195.32,-276.14"/>
<polygon fill="black" stroke="black" points="198.14,-278.22 201.29,-268.1 192.52,-274.04 198.14,-278.22"/>
</g>
<!-- [root] provider[&quot;registry.terraform.io/hashicorp/azurerm&quot;] (close) -->
<g id="node_8" class="node">
<title>[root] provider[&quot;registry.terraform.io/hashicorp/azurerm&quot;] (close)</title>
<polygon fill="none" stroke="black" points="105,-394 105,-409 215,-409 215,-394 105,-394"/>
<text text-anchor="start" x="139.5" y="-399.6" font-family="courier new" font-size="8.00">terraform</text>
<polygon fill="none" stroke="black" points="105,-379 105,-394 215,-394 215,-379 105,-379"/>
<text text-anchor="start" x="108" y="-384.6" font-family="courier new" font-size="8.00">io/hashicorp/azurerm\&quot;]</text>
</g>
<!-- [root] provider[&quot;registry.terraform.io/hashicorp/azurerm&quot;] (close)&#45;&gt;[root] azurerm_network_interface.externalnic (expand) -->
<g id="edge_5" class="edge">
<title>[root] provider[&quot;registry.terraform.io/hashicorp/azurerm&quot;] (close)&#45;&gt;[root] azurerm_network_interface.externalnic (expand)</title>
<path fill="none" stroke="black" d="M160.49,-375.7C160.71,-367.98 160.98,-358.71 161.23,-350.11"/>
<polygon fill="black" stroke="black" points="164.72,-350.2 161.51,-340.1 157.73,-350 164.72,-350.2"/>
</g>
<!-- [root] root -->
<g id="node_9" class="node">
<title>[root] root</title>
<polygon fill="none" stroke="black" points="138,-484 72,-484 72,-448 138,-448 138,-484"/>
<text text-anchor="middle" x="105" y="-464.1" font-family="courier new" font-size="8.00">[root] root</text>
</g>
<!-- [root] root&#45;&gt;[root] provider[&quot;registry.terraform.io/hashicorp/azurerm&quot;] (close) -->
<g id="edge_6" class="edge">
<title>[root] root&#45;&gt;[root] provider[&quot;registry.terraform.io/hashicorp/azurerm&quot;] (close)</title>
<path fill="none" stroke="black" d="M118.6,-447.7C125.12,-439.39 133.07,-429.28 140.25,-420.14"/>
<polygon fill="black" stroke="black" points="143.13,-422.13 146.56,-412.1 137.63,-417.81 143.13,-422.13"/>
</g>
<!-- [root] var.subnetinternal -->
<g id="node_6" class="node">
<title>[root] var.subnetinternal</title>
<polygon fill="none" stroke="black" points="16,-394 16,-409 86,-409 86,-394 16,-394"/>
<text text-anchor="start" x="44" y="-399.6" font-family="courier new" font-size="8.00">var</text>
<polygon fill="none" stroke="black" points="16,-379 16,-394 86,-394 86,-379 16,-379"/>
<text text-anchor="start" x="19" y="-384.6" font-family="courier new" font-size="8.00">subnetinternal</text>
</g>
<!-- [root] root&#45;&gt;[root] var.subnetinternal -->
<g id="edge_7" class="edge">
<title>[root] root&#45;&gt;[root] var.subnetinternal</title>
<path fill="none" stroke="black" d="M91.65,-447.7C85.24,-439.39 77.44,-429.28 70.39,-420.14"/>
<polygon fill="black" stroke="black" points="73.07,-417.88 64.19,-412.1 67.53,-422.16 73.07,-417.88"/>
</g>
<!-- [root] var.project -->
<g id="node_3" class="node">
<title>[root] var.project</title>
<polygon fill="none" stroke="black" points="198,-178 198,-193 236,-193 236,-178 198,-178"/>
<text text-anchor="start" x="210" y="-183.6" font-family="courier new" font-size="8.00">var</text>
<polygon fill="none" stroke="black" points="198,-163 198,-178 236,-178 236,-163 198,-163"/>
<text text-anchor="start" x="201" y="-168.6" font-family="courier new" font-size="8.00">project</text>
</g>
<!-- [root] var.location&#45;&gt;[root] var.project -->
<g id="edge_9" class="edge">
<title>[root] var.location&#45;&gt;[root] var.project</title>
<path fill="none" stroke="black" stroke-dasharray="5,2" d="M214.74,-231.7C215.21,-220.85 215.8,-206.92 216.27,-196.1"/>
</g>
<!-- [root] var.resourcegroupname -->
<g id="node_4" class="node">
<title>[root] var.resourcegroupname</title>
<polygon fill="none" stroke="black" points="182,-106 182,-121 265,-121 265,-106 182,-106"/>
<text text-anchor="start" x="216.5" y="-111.6" font-family="courier new" font-size="8.00">var</text>
<polygon fill="none" stroke="black" points="182,-91 182,-106 265,-106 265,-91 182,-91"/>
<text text-anchor="start" x="185" y="-96.6" font-family="courier new" font-size="8.00">resourcegroupname</text>
</g>
<!-- [root] var.project&#45;&gt;[root] var.resourcegroupname -->
<g id="edge_10" class="edge">
<title>[root] var.project&#45;&gt;[root] var.resourcegroupname</title>
<path fill="none" stroke="black" stroke-dasharray="5,2" d="M218.48,-159.7C219.41,-148.85 220.61,-134.92 221.53,-124.1"/>
</g>
<!-- [root] var.subnetexternal -->
<g id="node_5" class="node">
<title>[root] var.subnetexternal</title>
<polygon fill="none" stroke="black" points="188,-34 188,-49 258,-49 258,-34 188,-34"/>
<text text-anchor="start" x="216" y="-39.6" font-family="courier new" font-size="8.00">var</text>
<polygon fill="none" stroke="black" points="188,-19 188,-34 258,-34 258,-19 188,-19"/>
<text text-anchor="start" x="191" y="-24.6" font-family="courier new" font-size="8.00">subnetexternal</text>
</g>
<!-- [root] var.resourcegroupname&#45;&gt;[root] var.subnetexternal -->
<g id="edge_11" class="edge">
<title>[root] var.resourcegroupname&#45;&gt;[root] var.subnetexternal</title>
<path fill="none" stroke="black" stroke-dasharray="5,2" d="M223,-87.7C223,-76.85 223,-62.92 223,-52.1"/>
</g>
<!-- [root] var.tags -->
<g id="node_7" class="node">
<title>[root] var.tags</title>
<polygon fill="none" stroke="black" points="39,-322 39,-337 64,-337 64,-322 39,-322"/>
<text text-anchor="start" x="44.5" y="-327.6" font-family="courier new" font-size="8.00">var</text>
<polygon fill="none" stroke="black" points="39,-307 39,-322 64,-322 64,-307 39,-307"/>
<text text-anchor="start" x="42" y="-312.6" font-family="courier new" font-size="8.00">tags</text>
</g>
<!-- [root] var.subnetinternal&#45;&gt;[root] var.tags -->
<g id="edge_12" class="edge">
<title>[root] var.subnetinternal&#45;&gt;[root] var.tags</title>
<path fill="none" stroke="black" stroke-dasharray="5,2" d="M51,-375.7C51,-364.85 51,-350.92 51,-340.1"/>
</g>
</g>
</svg>

