<?xml version="1.0" encoding="UTF-8" standalone="no"?>
<!DOCTYPE svg PUBLIC "-//W3C//DTD SVG 1.1//EN"
 "http://www.w3.org/Graphics/SVG/1.1/DTD/svg11.dtd">
<!-- Generated by graphviz version 2.43.0 (0)
 -->
<!-- Title: %3 Pages: 1 -->
<svg width="788pt" height="564pt"
 viewBox="0.00 0.00 788.00 564.00" xmlns="http://www.w3.org/2000/svg" xmlns:xlink="http://www.w3.org/1999/xlink">
<g id="graph0" class="graph" transform="scale(1 1) rotate(0) translate(4 560)">
<title>%3</title>
<polygon fill="white" stroke="transparent" points="-4,4 -4,-560 784,-560 784,4 -4,4"/>
<g id="clust2" class="cluster">
<title>cluster[root] azurerm_linux_virtual_machine.fortivm (expand)_var_</title>
</g>
<g id="clust3" class="cluster">
<title>cluster[root] azurerm_network_security_group.fortinsg (expand)_var_</title>
</g>
<g id="clust4" class="cluster">
<title>cluster[root] azurerm_network_interface.externalnic (expand)_var_</title>
</g>
<g id="clust5" class="cluster">
<title>cluster[root] azurerm_network_interface.internalnic (expand)_var_</title>
</g>
<!-- [root] azurerm_linux_virtual_machine.fortivm (expand) -->
<g id="node_0" class="node">
<title>[root] azurerm_linux_virtual_machine.fortivm (expand)</title>
<polygon fill="none" stroke="black" points="463,-250 463,-265 600,-265 600,-250 463,-250"/>
<text text-anchor="start" x="466" y="-255.6" font-family="courier new" font-size="8.00">azurerm_linux_virtual_machine</text>
<polygon fill="none" stroke="black" points="463,-235 463,-250 600,-250 600,-235 463,-235"/>
<text text-anchor="start" x="515.5" y="-240.6" font-family="courier new" font-size="8.00">fortivm</text>
</g>
<!-- [root] azurerm_network_interface.externalnic (expand) -->
<g id="node_2" class="node">
<title>[root] azurerm_network_interface.externalnic (expand)</title>
<polygon fill="none" stroke="black" points="176,-178 176,-193 295,-193 295,-178 176,-178"/>
<text text-anchor="start" x="179" y="-183.6" font-family="courier new" font-size="8.00">azurerm_network_interface</text>
<polygon fill="none" stroke="black" points="176,-163 176,-178 295,-178 295,-163 176,-163"/>
<text text-anchor="start" x="210.5" y="-168.6" font-family="courier new" font-size="8.00">externalnic</text>
</g>
<!-- [root] azurerm_linux_virtual_machine.fortivm (expand)&#45;&gt;[root] azurerm_network_interface.externalnic (expand) -->
<g id="edge_0" class="edge">
<title>[root] azurerm_linux_virtual_machine.fortivm (expand)&#45;&gt;[root] azurerm_network_interface.externalnic (expand)</title>
<path fill="none" stroke="black" d="M462.18,-233.69C459.42,-233.11 456.68,-232.55 454,-232 387.55,-218.47 369.43,-221.83 304,-204 298.98,-202.63 293.81,-201.06 288.66,-199.4"/>
<polygon fill="black" stroke="black" points="289.42,-195.96 278.83,-196.09 287.19,-202.59 289.42,-195.96"/>
</g>
<!-- [root] azurerm_network_interface.internalnic (expand) -->
<g id="node_3" class="node">
<title>[root] azurerm_network_interface.internalnic (expand)</title>
<polygon fill="none" stroke="black" points="313,-178 313,-193 432,-193 432,-178 313,-178"/>
<text text-anchor="start" x="316" y="-183.6" font-family="courier new" font-size="8.00">azurerm_network_interface</text>
<polygon fill="none" stroke="black" points="313,-163 313,-178 432,-178 432,-163 313,-163"/>
<text text-anchor="start" x="347.5" y="-168.6" font-family="courier new" font-size="8.00">internalnic</text>
</g>
<!-- [root] azurerm_linux_virtual_machine.fortivm (expand)&#45;&gt;[root] azurerm_network_interface.internalnic (expand) -->
<g id="edge_1" class="edge">
<title>[root] azurerm_linux_virtual_machine.fortivm (expand)&#45;&gt;[root] azurerm_network_interface.internalnic (expand)</title>
<path fill="none" stroke="black" d="M492.1,-231.88C470.37,-222.31 443.1,-210.3 420.04,-200.15"/>
<polygon fill="black" stroke="black" points="421.33,-196.89 410.77,-196.07 418.51,-203.3 421.33,-196.89"/>
</g>
<!-- [root] var.tags -->
<g id="node_15" class="node">
<title>[root] var.tags</title>
<polygon fill="none" stroke="black" points="653,-106 653,-121 678,-121 678,-106 653,-106"/>
<text text-anchor="start" x="658.5" y="-111.6" font-family="courier new" font-size="8.00">var</text>
<polygon fill="none" stroke="black" points="653,-91 653,-106 678,-106 678,-91 653,-91"/>
<text text-anchor="start" x="656" y="-96.6" font-family="courier new" font-size="8.00">tags</text>
</g>
<!-- [root] azurerm_linux_virtual_machine.fortivm (expand)&#45;&gt;[root] var.tags -->
<g id="edge_3" class="edge">
<title>[root] azurerm_linux_virtual_machine.fortivm (expand)&#45;&gt;[root] var.tags</title>
<path fill="none" stroke="black" d="M563.72,-231.84C576.23,-224.33 590.11,-214.76 601,-204 622.16,-183.09 640.17,-154.1 651.64,-133.26"/>
<polygon fill="black" stroke="black" points="654.8,-134.79 656.44,-124.32 648.63,-131.48 654.8,-134.79"/>
</g>
<!-- [root] var.password -->
<g id="node_9" class="node">
<title>[root] var.password</title>
<polygon fill="none" stroke="black" points="716,-178 716,-193 759,-193 759,-178 716,-178"/>
<text text-anchor="start" x="730.5" y="-183.6" font-family="courier new" font-size="8.00">var</text>
<polygon fill="none" stroke="black" points="716,-163 716,-178 759,-178 759,-163 716,-163"/>
<text text-anchor="start" x="719" y="-168.6" font-family="courier new" font-size="8.00">password</text>
</g>
<!-- [root] azurerm_linux_virtual_machine.fortivm (expand)&#45;&gt;[root] var.password -->
<g id="edge_2" class="edge">
<title>[root] azurerm_linux_virtual_machine.fortivm (expand)&#45;&gt;[root] var.password</title>
<path fill="none" stroke="black" d="M581.54,-231.95C606.39,-223.55 636.77,-213.27 664,-204 675.77,-199.99 688.6,-195.61 700.18,-191.64"/>
<polygon fill="black" stroke="black" points="701.64,-194.84 709.97,-188.28 699.37,-188.22 701.64,-194.84"/>
</g>
<!-- [root] azurerm_managed_disk.fortidisk (expand) -->
<g id="node_1" class="node">
<title>[root] azurerm_managed_disk.fortidisk (expand)</title>
<polygon fill="none" stroke="black" points="473,-322 473,-337 570,-337 570,-322 473,-322"/>
<text text-anchor="start" x="476" y="-327.6" font-family="courier new" font-size="8.00">azurerm_managed_disk</text>
<polygon fill="none" stroke="black" points="473,-307 473,-322 570,-322 570,-307 473,-307"/>
<text text-anchor="start" x="501" y="-312.6" font-family="courier new" font-size="8.00">fortidisk</text>
</g>
<!-- [root] azurerm_managed_disk.fortidisk (expand)&#45;&gt;[root] azurerm_linux_virtual_machine.fortivm (expand) -->
<g id="edge_6" class="edge">
<title>[root] azurerm_managed_disk.fortidisk (expand)&#45;&gt;[root] azurerm_linux_virtual_machine.fortivm (expand)</title>
<path fill="none" stroke="black" d="M523.47,-303.7C524.57,-295.98 525.9,-286.71 527.13,-278.11"/>
<polygon fill="black" stroke="black" points="530.61,-278.5 528.56,-268.1 523.68,-277.51 530.61,-278.5"/>
</g>
<!-- [root] provider[&quot;registry.terraform.io/hashicorp/azurerm&quot;] -->
<g id="node_7" class="node">
<title>[root] provider[&quot;registry.terraform.io/hashicorp/azurerm&quot;]</title>
<polygon fill="none" stroke="black" points="104,-106 104,-121 214,-121 214,-106 104,-106"/>
<text text-anchor="start" x="138.5" y="-111.6" font-family="courier new" font-size="8.00">terraform</text>
<polygon fill="none" stroke="black" points="104,-91 104,-106 214,-106 214,-91 104,-91"/>
<text text-anchor="start" x="107" y="-96.6" font-family="courier new" font-size="8.00">io/hashicorp/azurerm\&quot;]</text>
</g>
<!-- [root] azurerm_network_interface.externalnic (expand)&#45;&gt;[root] provider[&quot;registry.terraform.io/hashicorp/azurerm&quot;] -->
<g id="edge_7" class="edge">
<title>[root] azurerm_network_interface.externalnic (expand)&#45;&gt;[root] provider[&quot;registry.terraform.io/hashicorp/azurerm&quot;]</title>
<path fill="none" stroke="black" d="M216.21,-159.7C206.83,-151.05 195.32,-140.45 185.09,-131.03"/>
<polygon fill="black" stroke="black" points="187.3,-128.3 177.57,-124.1 182.55,-133.45 187.3,-128.3"/>
</g>
<!-- [root] var.location -->
<g id="node_8" class="node">
<title>[root] var.location</title>
<polygon fill="none" stroke="black" points="238,-106 238,-121 281,-121 281,-106 238,-106"/>
<text text-anchor="start" x="252.5" y="-111.6" font-family="courier new" font-size="8.00">var</text>
<polygon fill="none" stroke="black" points="238,-91 238,-106 281,-106 281,-91 238,-91"/>
<text text-anchor="start" x="241" y="-96.6" font-family="courier new" font-size="8.00">location</text>
</g>
<!-- [root] azurerm_network_interface.externalnic (expand)&#45;&gt;[root] var.location -->
<g id="edge_8" class="edge">
<title>[root] azurerm_network_interface.externalnic (expand)&#45;&gt;[root] var.location</title>
<path fill="none" stroke="black" d="M240.93,-159.7C243.61,-151.9 246.83,-142.51 249.8,-133.83"/>
<polygon fill="black" stroke="black" points="253.2,-134.7 253.14,-124.1 246.58,-132.43 253.2,-134.7"/>
</g>
<!-- [root] var.project -->
<g id="node_10" class="node">
<title>[root] var.project</title>
<polygon fill="none" stroke="black" points="400,-106 400,-121 438,-121 438,-106 400,-106"/>
<text text-anchor="start" x="412" y="-111.6" font-family="courier new" font-size="8.00">var</text>
<polygon fill="none" stroke="black" points="400,-91 400,-106 438,-106 438,-91 400,-91"/>
<text text-anchor="start" x="403" y="-96.6" font-family="courier new" font-size="8.00">project</text>
</g>
<!-- [root] azurerm_network_interface.externalnic (expand)&#45;&gt;[root] var.project -->
<g id="edge_9" class="edge">
<title>[root] azurerm_network_interface.externalnic (expand)&#45;&gt;[root] var.project</title>
<path fill="none" stroke="black" d="M294.84,-161.51C329.65,-152.05 369.77,-140.22 386,-132 387.36,-131.31 388.73,-130.56 390.08,-129.77"/>
<polygon fill="black" stroke="black" points="392.35,-132.47 398.8,-124.07 388.52,-126.61 392.35,-132.47"/>
</g>
<!-- [root] var.resourcegroupname -->
<g id="node_11" class="node">
<title>[root] var.resourcegroupname</title>
<polygon fill="none" stroke="black" points="465,-106 465,-121 548,-121 548,-106 465,-106"/>
<text text-anchor="start" x="499.5" y="-111.6" font-family="courier new" font-size="8.00">var</text>
<polygon fill="none" stroke="black" points="465,-91 465,-106 548,-106 548,-91 465,-91"/>
<text text-anchor="start" x="468" y="-96.6" font-family="courier new" font-size="8.00">resourcegroupname</text>
</g>
<!-- [root] azurerm_network_interface.externalnic (expand)&#45;&gt;[root] var.resourcegroupname -->
<g id="edge_10" class="edge">
<title>[root] azurerm_network_interface.externalnic (expand)&#45;&gt;[root] var.resourcegroupname</title>
<path fill="none" stroke="black" d="M294.79,-162.04C297.9,-161.34 300.99,-160.65 304,-160 370.72,-145.61 390.2,-153.44 455,-132 458.33,-130.9 461.72,-129.62 465.09,-128.23"/>
<polygon fill="black" stroke="black" points="466.72,-131.34 474.46,-124.11 463.9,-124.94 466.72,-131.34"/>
</g>
<!-- [root] var.subnetexternal -->
<g id="node_13" class="node">
<title>[root] var.subnetexternal</title>
<polygon fill="none" stroke="black" points="16,-106 16,-121 86,-121 86,-106 16,-106"/>
<text text-anchor="start" x="44" y="-111.6" font-family="courier new" font-size="8.00">var</text>
<polygon fill="none" stroke="black" points="16,-91 16,-106 86,-106 86,-91 16,-91"/>
<text text-anchor="start" x="19" y="-96.6" font-family="courier new" font-size="8.00">subnetexternal</text>
</g>
<!-- [root] azurerm_network_interface.externalnic (expand)&#45;&gt;[root] var.subnetexternal -->
<g id="edge_11" class="edge">
<title>[root] azurerm_network_interface.externalnic (expand)&#45;&gt;[root] var.subnetexternal</title>
<path fill="none" stroke="black" d="M175.42,-160.8C150.18,-153.19 120.71,-143.29 95,-132 92.68,-130.98 90.32,-129.87 87.96,-128.71"/>
<polygon fill="black" stroke="black" points="89.45,-125.54 78.96,-124.02 86.21,-131.74 89.45,-125.54"/>
</g>
<!-- [root] azurerm_network_interface.internalnic (expand)&#45;&gt;[root] provider[&quot;registry.terraform.io/hashicorp/azurerm&quot;] -->
<g id="edge_12" class="edge">
<title>[root] azurerm_network_interface.internalnic (expand)&#45;&gt;[root] provider[&quot;registry.terraform.io/hashicorp/azurerm&quot;]</title>
<path fill="none" stroke="black" d="M312.2,-160.11C284.85,-152.09 252.11,-142.07 223,-132 219,-130.62 214.89,-129.14 210.76,-127.62"/>
<polygon fill="black" stroke="black" points="211.76,-124.26 201.17,-124.02 209.3,-130.81 211.76,-124.26"/>
</g>
<!-- [root] azurerm_network_interface.internalnic (expand)&#45;&gt;[root] var.location -->
<g id="edge_13" class="edge">
<title>[root] azurerm_network_interface.internalnic (expand)&#45;&gt;[root] var.location</title>
<path fill="none" stroke="black" d="M339.1,-159.81C324.41,-151.8 307.06,-141.87 292,-132 291.07,-131.39 290.13,-130.76 289.18,-130.12"/>
<polygon fill="black" stroke="black" points="290.89,-127.04 280.71,-124.1 286.84,-132.74 290.89,-127.04"/>
</g>
<!-- [root] azurerm_network_interface.internalnic (expand)&#45;&gt;[root] var.project -->
<g id="edge_14" class="edge">
<title>[root] azurerm_network_interface.internalnic (expand)&#45;&gt;[root] var.project</title>
<path fill="none" stroke="black" d="M383.62,-159.7C389.14,-151.47 395.85,-141.48 401.93,-132.42"/>
<polygon fill="black" stroke="black" points="404.85,-134.36 407.52,-124.1 399.04,-130.46 404.85,-134.36"/>
</g>
<!-- [root] azurerm_network_interface.internalnic (expand)&#45;&gt;[root] var.resourcegroupname -->
<g id="edge_15" class="edge">
<title>[root] azurerm_network_interface.internalnic (expand)&#45;&gt;[root] var.resourcegroupname</title>
<path fill="none" stroke="black" d="M404.78,-159.88C422.63,-150.55 444.9,-138.92 464,-128.94"/>
<polygon fill="black" stroke="black" points="465.85,-131.92 473.09,-124.19 462.61,-125.72 465.85,-131.92"/>
</g>
<!-- [root] var.subnetinternal -->
<g id="node_14" class="node">
<title>[root] var.subnetinternal</title>
<polygon fill="none" stroke="black" points="304,-106 304,-121 374,-121 374,-106 304,-106"/>
<text text-anchor="start" x="332" y="-111.6" font-family="courier new" font-size="8.00">var</text>
<polygon fill="none" stroke="black" points="304,-91 304,-106 374,-106 374,-91 304,-91"/>
<text text-anchor="start" x="307" y="-96.6" font-family="courier new" font-size="8.00">subnetinternal</text>
</g>
<!-- [root] azurerm_network_interface.internalnic (expand)&#45;&gt;[root] var.subnetinternal -->
<g id="edge_16" class="edge">
<title>[root] azurerm_network_interface.internalnic (expand)&#45;&gt;[root] var.subnetinternal</title>
<path fill="none" stroke="black" d="M363.84,-159.7C360.09,-151.73 355.55,-142.1 351.38,-133.26"/>
<polygon fill="black" stroke="black" points="354.49,-131.66 347.06,-124.1 348.16,-134.64 354.49,-131.66"/>
</g>
<!-- [root] azurerm_network_interface_security_group_association.externalnic_fortinsg_ass (expand) -->
<g id="node_4" class="node">
<title>[root] azurerm_network_interface_security_group_association.externalnic_fortinsg_ass (expand)</title>
<polygon fill="none" stroke="black" points="204,-250 204,-265 445,-265 445,-250 204,-250"/>
<text text-anchor="start" x="207" y="-255.6" font-family="courier new" font-size="8.00">azurerm_network_interface_security_group_association</text>
<polygon fill="none" stroke="black" points="204,-235 204,-250 445,-250 445,-235 204,-235"/>
<text text-anchor="start" x="270" y="-240.6" font-family="courier new" font-size="8.00">externalnic_fortinsg_ass</text>
</g>
<!-- [root] azurerm_network_interface_security_group_association.externalnic_fortinsg_ass (expand)&#45;&gt;[root] azurerm_network_interface.externalnic (expand) -->
<g id="edge_17" class="edge">
<title>[root] azurerm_network_interface_security_group_association.externalnic_fortinsg_ass (expand)&#45;&gt;[root] azurerm_network_interface.externalnic (expand)</title>
<path fill="none" stroke="black" d="M302,-231.7C290.79,-222.88 277,-212.03 264.85,-202.47"/>
<polygon fill="black" stroke="black" points="266.77,-199.54 256.75,-196.1 262.44,-205.04 266.77,-199.54"/>
</g>
<!-- [root] azurerm_network_security_group.fortinsg (expand) -->
<g id="node_5" class="node">
<title>[root] azurerm_network_security_group.fortinsg (expand)</title>
<polygon fill="none" stroke="black" points="450,-178 450,-193 592,-193 592,-178 450,-178"/>
<text text-anchor="start" x="453" y="-183.6" font-family="courier new" font-size="8.00">azurerm_network_security_group</text>
<polygon fill="none" stroke="black" points="450,-163 450,-178 592,-178 592,-163 450,-163"/>
<text text-anchor="start" x="502.5" y="-168.6" font-family="courier new" font-size="8.00">fortinsg</text>
</g>
<!-- [root] azurerm_network_interface_security_group_association.externalnic_fortinsg_ass (expand)&#45;&gt;[root] azurerm_network_security_group.fortinsg (expand) -->
<g id="edge_18" class="edge">
<title>[root] azurerm_network_interface_security_group_association.externalnic_fortinsg_ass (expand)&#45;&gt;[root] azurerm_network_security_group.fortinsg (expand)</title>
<path fill="none" stroke="black" d="M371.94,-231.97C399.47,-222.19 434.22,-209.84 463.24,-199.52"/>
<polygon fill="black" stroke="black" points="464.59,-202.76 472.85,-196.11 462.25,-196.16 464.59,-202.76"/>
</g>
<!-- [root] azurerm_network_security_group.fortinsg (expand)&#45;&gt;[root] provider[&quot;registry.terraform.io/hashicorp/azurerm&quot;] -->
<g id="edge_19" class="edge">
<title>[root] azurerm_network_security_group.fortinsg (expand)&#45;&gt;[root] provider[&quot;registry.terraform.io/hashicorp/azurerm&quot;]</title>
<path fill="none" stroke="black" d="M449.96,-161.59C446.94,-161.03 443.94,-160.5 441,-160 344.7,-143.61 317.65,-156.17 223,-132 218,-130.72 212.86,-129.16 207.77,-127.45"/>
<polygon fill="black" stroke="black" points="208.7,-124.07 198.11,-124.01 206.35,-130.66 208.7,-124.07"/>
</g>
<!-- [root] azurerm_network_security_group.fortinsg (expand)&#45;&gt;[root] var.location -->
<g id="edge_20" class="edge">
<title>[root] azurerm_network_security_group.fortinsg (expand)&#45;&gt;[root] var.location</title>
<path fill="none" stroke="black" d="M449.92,-161.8C446.91,-161.19 443.92,-160.59 441,-160 374.93,-146.77 353.61,-159.29 292,-132 290.42,-131.3 288.84,-130.51 287.29,-129.65"/>
<polygon fill="black" stroke="black" points="288.98,-126.58 278.66,-124.19 285.23,-132.5 288.98,-126.58"/>
</g>
<!-- [root] azurerm_network_security_group.fortinsg (expand)&#45;&gt;[root] var.project -->
<g id="edge_21" class="edge">
<title>[root] azurerm_network_security_group.fortinsg (expand)&#45;&gt;[root] var.project</title>
<path fill="none" stroke="black" d="M496.05,-159.88C482.96,-150.89 466.74,-139.76 452.56,-130.03"/>
<polygon fill="black" stroke="black" points="454.27,-126.96 444.05,-124.19 450.31,-132.73 454.27,-126.96"/>
</g>
<!-- [root] azurerm_network_security_group.fortinsg (expand)&#45;&gt;[root] var.resourcegroupname -->
<g id="edge_22" class="edge">
<title>[root] azurerm_network_security_group.fortinsg (expand)&#45;&gt;[root] var.resourcegroupname</title>
<path fill="none" stroke="black" d="M517.29,-159.7C515.64,-151.98 513.65,-142.71 511.81,-134.11"/>
<polygon fill="black" stroke="black" points="515.18,-133.15 509.67,-124.1 508.34,-134.62 515.18,-133.15"/>
</g>
<!-- [root] azurerm_network_security_group.fortinsg (expand)&#45;&gt;[root] var.tags -->
<g id="edge_24" class="edge">
<title>[root] azurerm_network_security_group.fortinsg (expand)&#45;&gt;[root] var.tags</title>
<path fill="none" stroke="black" d="M570.93,-159.97C590.51,-152.48 612.84,-142.89 632,-132 633.12,-131.36 634.25,-130.69 635.38,-129.99"/>
<polygon fill="black" stroke="black" points="637.56,-132.74 643.91,-124.26 633.65,-126.93 637.56,-132.74"/>
</g>
<!-- [root] var.source_ip -->
<g id="node_12" class="node">
<title>[root] var.source_ip</title>
<polygon fill="none" stroke="black" points="570,-106 570,-121 617,-121 617,-106 570,-106"/>
<text text-anchor="start" x="586.5" y="-111.6" font-family="courier new" font-size="8.00">var</text>
<polygon fill="none" stroke="black" points="570,-91 570,-106 617,-106 617,-91 570,-91"/>
<text text-anchor="start" x="573" y="-96.6" font-family="courier new" font-size="8.00">source_ip</text>
</g>
<!-- [root] azurerm_network_security_group.fortinsg (expand)&#45;&gt;[root] var.source_ip -->
<g id="edge_23" class="edge">
<title>[root] azurerm_network_security_group.fortinsg (expand)&#45;&gt;[root] var.source_ip</title>
<path fill="none" stroke="black" d="M538.8,-159.7C547.6,-151.14 558.38,-140.66 568,-131.3"/>
<polygon fill="black" stroke="black" points="570.68,-133.58 575.41,-124.1 565.8,-128.57 570.68,-133.58"/>
</g>
<!-- [root] azurerm_virtual_machine_data_disk_attachment.diskattachment (expand) -->
<g id="node_6" class="node">
<title>[root] azurerm_virtual_machine_data_disk_attachment.diskattachment (expand)</title>
<polygon fill="none" stroke="black" points="410,-394 410,-409 615,-409 615,-394 410,-394"/>
<text text-anchor="start" x="413" y="-399.6" font-family="courier new" font-size="8.00">azurerm_virtual_machine_data_disk_attachment</text>
<polygon fill="none" stroke="black" points="410,-379 410,-394 615,-394 615,-379 410,-379"/>
<text text-anchor="start" x="480.5" y="-384.6" font-family="courier new" font-size="8.00">diskattachment</text>
</g>
<!-- [root] azurerm_virtual_machine_data_disk_attachment.diskattachment (expand)&#45;&gt;[root] azurerm_managed_disk.fortidisk (expand) -->
<g id="edge_25" class="edge">
<title>[root] azurerm_virtual_machine_data_disk_attachment.diskattachment (expand)&#45;&gt;[root] azurerm_managed_disk.fortidisk (expand)</title>
<path fill="none" stroke="black" d="M514.22,-375.7C515.22,-367.98 516.41,-358.71 517.51,-350.11"/>
<polygon fill="black" stroke="black" points="521,-350.47 518.8,-340.1 514.05,-349.58 521,-350.47"/>
</g>
<!-- [root] provider[&quot;registry.terraform.io/hashicorp/azurerm&quot;] (close) -->
<g id="node_18" class="node">
<title>[root] provider[&quot;registry.terraform.io/hashicorp/azurerm&quot;] (close)</title>
<polygon fill="none" stroke="black" points="372,-466 372,-481 482,-481 482,-466 372,-466"/>
<text text-anchor="start" x="406.5" y="-471.6" font-family="courier new" font-size="8.00">terraform</text>
<polygon fill="none" stroke="black" points="372,-451 372,-466 482,-466 482,-451 372,-451"/>
<text text-anchor="start" x="375" y="-456.6" font-family="courier new" font-size="8.00">io/hashicorp/azurerm\&quot;]</text>
</g>
<!-- [root] provider[&quot;registry.terraform.io/hashicorp/azurerm&quot;] (close)&#45;&gt;[root] azurerm_network_interface_security_group_association.externalnic_fortinsg_ass (expand) -->
<g id="edge_26" class="edge">
<title>[root] provider[&quot;registry.terraform.io/hashicorp/azurerm&quot;] (close)&#45;&gt;[root] azurerm_network_interface_security_group_association.externalnic_fortinsg_ass (expand)</title>
<path fill="none" stroke="black" d="M418.53,-447.84C413.42,-437.47 406.81,-423.99 401,-412 378.11,-364.74 351.78,-309.5 336.6,-277.55"/>
<polygon fill="black" stroke="black" points="339.71,-275.95 332.26,-268.42 333.39,-278.95 339.71,-275.95"/>
</g>
<!-- [root] provider[&quot;registry.terraform.io/hashicorp/azurerm&quot;] (close)&#45;&gt;[root] azurerm_virtual_machine_data_disk_attachment.diskattachment (expand) -->
<g id="edge_27" class="edge">
<title>[root] provider[&quot;registry.terraform.io/hashicorp/azurerm&quot;] (close)&#45;&gt;[root] azurerm_virtual_machine_data_disk_attachment.diskattachment (expand)</title>
<path fill="none" stroke="black" d="M448.01,-447.7C458.72,-438.88 471.89,-428.03 483.5,-418.47"/>
<polygon fill="black" stroke="black" points="485.74,-421.16 491.23,-412.1 481.29,-415.76 485.74,-421.16"/>
</g>
<!-- [root] root -->
<g id="node_19" class="node">
<title>[root] root</title>
<polygon fill="none" stroke="black" points="460,-556 394,-556 394,-520 460,-520 460,-556"/>
<text text-anchor="middle" x="427" y="-536.1" font-family="courier new" font-size="8.00">[root] root</text>
</g>
<!-- [root] root&#45;&gt;[root] provider[&quot;registry.terraform.io/hashicorp/azurerm&quot;] (close) -->
<g id="edge_28" class="edge">
<title>[root] root&#45;&gt;[root] provider[&quot;registry.terraform.io/hashicorp/azurerm&quot;] (close)</title>
<path fill="none" stroke="black" d="M427,-519.7C427,-511.98 427,-502.71 427,-494.11"/>
<polygon fill="black" stroke="black" points="430.5,-494.1 427,-484.1 423.5,-494.1 430.5,-494.1"/>
</g>
<!-- [root] var.username -->
<g id="node_16" class="node">
<title>[root] var.username</title>
<polygon fill="none" stroke="black" points="716,-106 716,-121 759,-121 759,-106 716,-106"/>
<text text-anchor="start" x="730.5" y="-111.6" font-family="courier new" font-size="8.00">var</text>
<polygon fill="none" stroke="black" points="716,-91 716,-106 759,-106 759,-91 716,-91"/>
<text text-anchor="start" x="719" y="-96.6" font-family="courier new" font-size="8.00">username</text>
</g>
<!-- [root] var.password&#45;&gt;[root] var.username -->
<g id="edge_29" class="edge">
<title>[root] var.password&#45;&gt;[root] var.username</title>
<path fill="none" stroke="black" stroke-dasharray="5,2" d="M737,-159.7C737,-148.85 737,-134.92 737,-124.1"/>
</g>
<!-- [root] var.vmsize -->
<g id="node_17" class="node">
<title>[root] var.vmsize</title>
<polygon fill="none" stroke="black" points="720,-34 720,-49 754,-49 754,-34 720,-34"/>
<text text-anchor="start" x="730" y="-39.6" font-family="courier new" font-size="8.00">var</text>
<polygon fill="none" stroke="black" points="720,-19 720,-34 754,-34 754,-19 720,-19"/>
<text text-anchor="start" x="723" y="-24.6" font-family="courier new" font-size="8.00">vmsize</text>
</g>
<!-- [root] var.username&#45;&gt;[root] var.vmsize -->
<g id="edge_30" class="edge">
<title>[root] var.username&#45;&gt;[root] var.vmsize</title>
<path fill="none" stroke="black" stroke-dasharray="5,2" d="M737,-87.7C737,-76.85 737,-62.92 737,-52.1"/>
</g>
</g>
</svg>

