<?xml version="1.0" encoding="UTF-8" standalone="no"?>
<!DOCTYPE svg PUBLIC "-//W3C//DTD SVG 1.1//EN"
 "http://www.w3.org/Graphics/SVG/1.1/DTD/svg11.dtd">
<!-- Generated by graphviz version 2.43.0 (0)
 -->
<!-- Title: %3 Pages: 1 -->
<svg width="888pt" height="564pt"
 viewBox="0.00 0.00 888.00 564.00" xmlns="http://www.w3.org/2000/svg" xmlns:xlink="http://www.w3.org/1999/xlink">
<g id="graph0" class="graph" transform="scale(1 1) rotate(0) translate(4 560)">
<title>%3</title>
<polygon fill="white" stroke="transparent" points="-4,4 -4,-560 884,-560 884,4 -4,4"/>
<g id="clust2" class="cluster">
<title>cluster[root] azurerm_linux_virtual_machine.fortivm (expand)_var_</title>
</g>
<g id="clust3" class="cluster">
<title>cluster[root] azurerm_network_security_group.fortinsg (expand)_var_</title>
</g>
<g id="clust4" class="cluster">
<title>cluster[root] azurerm_network_interface.externalnic (expand)_var_</title>
</g>
<g id="clust5" class="cluster">
<title>cluster[root] azurerm_network_interface.internalnic (expand)_var_</title>
</g>
<!-- [root] azurerm_linux_virtual_machine.fortivm (expand) -->
<g id="node_0" class="node">
<title>[root] azurerm_linux_virtual_machine.fortivm (expand)</title>
<polygon fill="none" stroke="black" points="103,-250 103,-265 240,-265 240,-250 103,-250"/>
<text text-anchor="start" x="106" y="-255.6" font-family="courier new" font-size="8.00">azurerm_linux_virtual_machine</text>
<polygon fill="none" stroke="black" points="103,-235 103,-250 240,-250 240,-235 103,-235"/>
<text text-anchor="start" x="155.5" y="-240.6" font-family="courier new" font-size="8.00">fortivm</text>
</g>
<!-- [root] azurerm_network_interface.externalnic (expand) -->
<g id="node_2" class="node">
<title>[root] azurerm_network_interface.externalnic (expand)</title>
<polygon fill="none" stroke="black" points="292,-178 292,-193 411,-193 411,-178 292,-178"/>
<text text-anchor="start" x="295" y="-183.6" font-family="courier new" font-size="8.00">azurerm_network_interface</text>
<polygon fill="none" stroke="black" points="292,-163 292,-178 411,-178 411,-163 292,-163"/>
<text text-anchor="start" x="326.5" y="-168.6" font-family="courier new" font-size="8.00">externalnic</text>
</g>
<!-- [root] azurerm_linux_virtual_machine.fortivm (expand)&#45;&gt;[root] azurerm_network_interface.externalnic (expand) -->
<g id="edge_0" class="edge">
<title>[root] azurerm_linux_virtual_machine.fortivm (expand)&#45;&gt;[root] azurerm_network_interface.externalnic (expand)</title>
<path fill="none" stroke="black" d="M215.03,-231.88C239.97,-222.18 271.34,-209.98 297.66,-199.74"/>
<polygon fill="black" stroke="black" points="299.06,-202.95 307.11,-196.07 296.52,-196.43 299.06,-202.95"/>
</g>
<!-- [root] azurerm_network_interface.internalnic (expand) -->
<g id="node_3" class="node">
<title>[root] azurerm_network_interface.internalnic (expand)</title>
<polygon fill="none" stroke="black" points="429,-178 429,-193 548,-193 548,-178 429,-178"/>
<text text-anchor="start" x="432" y="-183.6" font-family="courier new" font-size="8.00">azurerm_network_interface</text>
<polygon fill="none" stroke="black" points="429,-163 429,-178 548,-178 548,-163 429,-163"/>
<text text-anchor="start" x="463.5" y="-168.6" font-family="courier new" font-size="8.00">internalnic</text>
</g>
<!-- [root] azurerm_linux_virtual_machine.fortivm (expand)&#45;&gt;[root] azurerm_network_interface.internalnic (expand) -->
<g id="edge_1" class="edge">
<title>[root] azurerm_linux_virtual_machine.fortivm (expand)&#45;&gt;[root] azurerm_network_interface.internalnic (expand)</title>
<path fill="none" stroke="black" d="M239.86,-233.79C242.95,-233.17 246,-232.57 249,-232 324.65,-217.57 345.52,-223.6 420,-204 425.04,-202.67 430.23,-201.12 435.39,-199.45"/>
<polygon fill="black" stroke="black" points="436.88,-202.64 445.23,-196.12 434.63,-196.01 436.88,-202.64"/>
</g>
<!-- [root] var.password -->
<g id="node_10" class="node">
<title>[root] var.password</title>
<polygon fill="none" stroke="black" points="22,-178 22,-193 65,-193 65,-178 22,-178"/>
<text text-anchor="start" x="36.5" y="-183.6" font-family="courier new" font-size="8.00">var</text>
<polygon fill="none" stroke="black" points="22,-163 22,-178 65,-178 65,-163 22,-163"/>
<text text-anchor="start" x="25" y="-168.6" font-family="courier new" font-size="8.00">password</text>
</g>
<!-- [root] azurerm_linux_virtual_machine.fortivm (expand)&#45;&gt;[root] var.password -->
<g id="edge_2" class="edge">
<title>[root] azurerm_linux_virtual_machine.fortivm (expand)&#45;&gt;[root] var.password</title>
<path fill="none" stroke="black" d="M139.69,-231.88C121.37,-221.86 98.17,-209.17 79.08,-198.73"/>
<polygon fill="black" stroke="black" points="80.54,-195.54 70.09,-193.81 77.18,-201.68 80.54,-195.54"/>
</g>
<!-- [root] azurerm_managed_disk.fortidisk (expand) -->
<g id="node_1" class="node">
<title>[root] azurerm_managed_disk.fortidisk (expand)</title>
<polygon fill="none" stroke="black" points="161,-322 161,-337 258,-337 258,-322 161,-322"/>
<text text-anchor="start" x="164" y="-327.6" font-family="courier new" font-size="8.00">azurerm_managed_disk</text>
<polygon fill="none" stroke="black" points="161,-307 161,-322 258,-322 258,-307 161,-307"/>
<text text-anchor="start" x="189" y="-312.6" font-family="courier new" font-size="8.00">fortidisk</text>
</g>
<!-- [root] azurerm_managed_disk.fortidisk (expand)&#45;&gt;[root] azurerm_linux_virtual_machine.fortivm (expand) -->
<g id="edge_5" class="edge">
<title>[root] azurerm_managed_disk.fortidisk (expand)&#45;&gt;[root] azurerm_linux_virtual_machine.fortivm (expand)</title>
<path fill="none" stroke="black" d="M199.61,-303.7C195.24,-295.64 189.94,-285.89 185.1,-276.98"/>
<polygon fill="black" stroke="black" points="188.13,-275.22 180.29,-268.1 181.98,-278.56 188.13,-275.22"/>
</g>
<!-- [root] provider[&quot;registry.terraform.io/hashicorp/azurerm&quot;] -->
<g id="node_8" class="node">
<title>[root] provider[&quot;registry.terraform.io/hashicorp/azurerm&quot;]</title>
<polygon fill="none" stroke="black" points="682,-106 682,-121 792,-121 792,-106 682,-106"/>
<text text-anchor="start" x="716.5" y="-111.6" font-family="courier new" font-size="8.00">terraform</text>
<polygon fill="none" stroke="black" points="682,-91 682,-106 792,-106 792,-91 682,-91"/>
<text text-anchor="start" x="685" y="-96.6" font-family="courier new" font-size="8.00">io/hashicorp/azurerm\&quot;]</text>
</g>
<!-- [root] azurerm_network_interface.externalnic (expand)&#45;&gt;[root] provider[&quot;registry.terraform.io/hashicorp/azurerm&quot;] -->
<g id="edge_6" class="edge">
<title>[root] azurerm_network_interface.externalnic (expand)&#45;&gt;[root] provider[&quot;registry.terraform.io/hashicorp/azurerm&quot;]</title>
<path fill="none" stroke="black" d="M410.74,-161.77C413.86,-161.14 416.96,-160.54 420,-160 531.39,-140.2 563.15,-159.04 673,-132 678.01,-130.77 683.16,-129.24 688.25,-127.54"/>
<polygon fill="black" stroke="black" points="689.66,-130.76 697.92,-124.13 687.33,-124.16 689.66,-130.76"/>
</g>
<!-- [root] var.location -->
<g id="node_9" class="node">
<title>[root] var.location</title>
<polygon fill="none" stroke="black" points="544,-106 544,-121 587,-121 587,-106 544,-106"/>
<text text-anchor="start" x="558.5" y="-111.6" font-family="courier new" font-size="8.00">var</text>
<polygon fill="none" stroke="black" points="544,-91 544,-106 587,-106 587,-91 544,-91"/>
<text text-anchor="start" x="547" y="-96.6" font-family="courier new" font-size="8.00">location</text>
</g>
<!-- [root] azurerm_network_interface.externalnic (expand)&#45;&gt;[root] var.location -->
<g id="edge_7" class="edge">
<title>[root] azurerm_network_interface.externalnic (expand)&#45;&gt;[root] var.location</title>
<path fill="none" stroke="black" d="M410.84,-162.25C413.94,-161.49 417,-160.74 420,-160 470.66,-147.54 487.24,-155.15 534,-132 535.36,-131.33 536.71,-130.59 538.04,-129.8"/>
<polygon fill="black" stroke="black" points="540.25,-132.53 546.55,-124.01 536.32,-126.74 540.25,-132.53"/>
</g>
<!-- [root] var.project -->
<g id="node_11" class="node">
<title>[root] var.project</title>
<polygon fill="none" stroke="black" points="618,-106 618,-121 656,-121 656,-106 618,-106"/>
<text text-anchor="start" x="630" y="-111.6" font-family="courier new" font-size="8.00">var</text>
<polygon fill="none" stroke="black" points="618,-91 618,-106 656,-106 656,-91 618,-91"/>
<text text-anchor="start" x="621" y="-96.6" font-family="courier new" font-size="8.00">project</text>
</g>
<!-- [root] azurerm_network_interface.externalnic (expand)&#45;&gt;[root] var.project -->
<g id="edge_8" class="edge">
<title>[root] azurerm_network_interface.externalnic (expand)&#45;&gt;[root] var.project</title>
<path fill="none" stroke="black" d="M410.77,-161.93C413.88,-161.25 416.98,-160.61 420,-160 499.82,-144.03 525.41,-162.21 601,-132 603.07,-131.17 605.13,-130.21 607.17,-129.15"/>
<polygon fill="black" stroke="black" points="609,-132.13 615.83,-124.03 605.44,-126.11 609,-132.13"/>
</g>
<!-- [root] var.resourcegroupname -->
<g id="node_12" class="node">
<title>[root] var.resourcegroupname</title>
<polygon fill="none" stroke="black" points="231,-106 231,-121 314,-121 314,-106 231,-106"/>
<text text-anchor="start" x="265.5" y="-111.6" font-family="courier new" font-size="8.00">var</text>
<polygon fill="none" stroke="black" points="231,-91 231,-106 314,-106 314,-91 231,-91"/>
<text text-anchor="start" x="234" y="-96.6" font-family="courier new" font-size="8.00">resourcegroupname</text>
</g>
<!-- [root] azurerm_network_interface.externalnic (expand)&#45;&gt;[root] var.resourcegroupname -->
<g id="edge_9" class="edge">
<title>[root] azurerm_network_interface.externalnic (expand)&#45;&gt;[root] var.resourcegroupname</title>
<path fill="none" stroke="black" d="M331.47,-159.7C321.62,-150.97 309.51,-140.24 298.8,-130.75"/>
<polygon fill="black" stroke="black" points="301.11,-128.12 291.3,-124.1 296.47,-133.36 301.11,-128.12"/>
</g>
<!-- [root] var.tags -->
<g id="node_18" class="node">
<title>[root] var.tags</title>
<polygon fill="none" stroke="black" points="347,-106 347,-121 372,-121 372,-106 347,-106"/>
<text text-anchor="start" x="352.5" y="-111.6" font-family="courier new" font-size="8.00">var</text>
<polygon fill="none" stroke="black" points="347,-91 347,-106 372,-106 372,-91 347,-91"/>
<text text-anchor="start" x="350" y="-96.6" font-family="courier new" font-size="8.00">tags</text>
</g>
<!-- [root] azurerm_network_interface.externalnic (expand)&#45;&gt;[root] var.tags -->
<g id="edge_12" class="edge">
<title>[root] azurerm_network_interface.externalnic (expand)&#45;&gt;[root] var.tags</title>
<path fill="none" stroke="black" d="M352.98,-159.7C353.86,-151.98 354.92,-142.71 355.9,-134.11"/>
<polygon fill="black" stroke="black" points="359.39,-134.44 357.05,-124.1 352.43,-133.64 359.39,-134.44"/>
</g>
<!-- [root] var.subnetexternal -->
<g id="node_14" class="node">
<title>[root] var.subnetexternal</title>
<polygon fill="none" stroke="black" points="130,-106 130,-121 200,-121 200,-106 130,-106"/>
<text text-anchor="start" x="158" y="-111.6" font-family="courier new" font-size="8.00">var</text>
<polygon fill="none" stroke="black" points="130,-91 130,-106 200,-106 200,-91 130,-91"/>
<text text-anchor="start" x="133" y="-96.6" font-family="courier new" font-size="8.00">subnetexternal</text>
</g>
<!-- [root] azurerm_network_interface.externalnic (expand)&#45;&gt;[root] var.subnetexternal -->
<g id="edge_10" class="edge">
<title>[root] azurerm_network_interface.externalnic (expand)&#45;&gt;[root] var.subnetexternal</title>
<path fill="none" stroke="black" d="M299.19,-159.95C275.5,-151.9 247.17,-141.89 222,-132 217.87,-130.38 213.6,-128.63 209.34,-126.85"/>
<polygon fill="black" stroke="black" points="210.66,-123.6 200.09,-122.9 207.92,-130.04 210.66,-123.6"/>
</g>
<!-- [root] azurerm_network_interface.internalnic (expand)&#45;&gt;[root] provider[&quot;registry.terraform.io/hashicorp/azurerm&quot;] -->
<g id="edge_13" class="edge">
<title>[root] azurerm_network_interface.internalnic (expand)&#45;&gt;[root] provider[&quot;registry.terraform.io/hashicorp/azurerm&quot;]</title>
<path fill="none" stroke="black" d="M547.83,-162.24C550.93,-161.48 554,-160.73 557,-160 608.53,-147.43 622.41,-147.91 673,-132 677.28,-130.66 681.68,-129.17 686.07,-127.61"/>
<polygon fill="black" stroke="black" points="687.45,-130.83 695.63,-124.1 685.04,-124.26 687.45,-130.83"/>
</g>
<!-- [root] azurerm_network_interface.internalnic (expand)&#45;&gt;[root] var.location -->
<g id="edge_14" class="edge">
<title>[root] azurerm_network_interface.internalnic (expand)&#45;&gt;[root] var.location</title>
<path fill="none" stroke="black" d="M507.03,-159.7C516.54,-151.05 528.21,-140.45 538.57,-131.03"/>
<polygon fill="black" stroke="black" points="541.14,-133.42 546.19,-124.1 536.43,-128.24 541.14,-133.42"/>
</g>
<!-- [root] azurerm_network_interface.internalnic (expand)&#45;&gt;[root] var.project -->
<g id="edge_15" class="edge">
<title>[root] azurerm_network_interface.internalnic (expand)&#45;&gt;[root] var.project</title>
<path fill="none" stroke="black" d="M537.77,-159.99C557.87,-152.4 581,-142.74 601,-132 602.34,-131.28 603.69,-130.52 605.04,-129.73"/>
<polygon fill="black" stroke="black" points="607.25,-132.48 613.86,-124.2 603.53,-126.55 607.25,-132.48"/>
</g>
<!-- [root] azurerm_network_interface.internalnic (expand)&#45;&gt;[root] var.resourcegroupname -->
<g id="edge_16" class="edge">
<title>[root] azurerm_network_interface.internalnic (expand)&#45;&gt;[root] var.resourcegroupname</title>
<path fill="none" stroke="black" d="M428.21,-161.96C389.29,-151.93 342.31,-139.29 323,-132 319.96,-130.85 316.85,-129.58 313.75,-128.24"/>
<polygon fill="black" stroke="black" points="315.07,-125 304.52,-124.07 312.19,-131.38 315.07,-125"/>
</g>
<!-- [root] azurerm_network_interface.internalnic (expand)&#45;&gt;[root] var.tags -->
<g id="edge_19" class="edge">
<title>[root] azurerm_network_interface.internalnic (expand)&#45;&gt;[root] var.tags</title>
<path fill="none" stroke="black" d="M444.84,-159.95C427.32,-152.32 407.19,-142.65 390,-132 389.06,-131.42 388.12,-130.81 387.17,-130.18"/>
<polygon fill="black" stroke="black" points="388.97,-127.16 378.81,-124.16 384.88,-132.85 388.97,-127.16"/>
</g>
<!-- [root] var.subnetinternal -->
<g id="node_16" class="node">
<title>[root] var.subnetinternal</title>
<polygon fill="none" stroke="black" points="439,-106 439,-121 509,-121 509,-106 439,-106"/>
<text text-anchor="start" x="467" y="-111.6" font-family="courier new" font-size="8.00">var</text>
<polygon fill="none" stroke="black" points="439,-91 439,-106 509,-106 509,-91 439,-91"/>
<text text-anchor="start" x="442" y="-96.6" font-family="courier new" font-size="8.00">subnetinternal</text>
</g>
<!-- [root] azurerm_network_interface.internalnic (expand)&#45;&gt;[root] var.subnetinternal -->
<g id="edge_17" class="edge">
<title>[root] azurerm_network_interface.internalnic (expand)&#45;&gt;[root] var.subnetinternal</title>
<path fill="none" stroke="black" d="M484.54,-159.7C483,-151.98 481.14,-142.71 479.42,-134.11"/>
<polygon fill="black" stroke="black" points="482.81,-133.22 477.42,-124.1 475.95,-134.6 482.81,-133.22"/>
</g>
<!-- [root] azurerm_network_interface_security_group_association.externalnic_fortinsg_ass (expand) -->
<g id="node_4" class="node">
<title>[root] azurerm_network_interface_security_group_association.externalnic_fortinsg_ass (expand)</title>
<polygon fill="none" stroke="black" points="258,-250 258,-265 499,-265 499,-250 258,-250"/>
<text text-anchor="start" x="261" y="-255.6" font-family="courier new" font-size="8.00">azurerm_network_interface_security_group_association</text>
<polygon fill="none" stroke="black" points="258,-235 258,-250 499,-250 499,-235 258,-235"/>
<text text-anchor="start" x="324" y="-240.6" font-family="courier new" font-size="8.00">externalnic_fortinsg_ass</text>
</g>
<!-- [root] azurerm_network_interface_security_group_association.externalnic_fortinsg_ass (expand)&#45;&gt;[root] azurerm_network_interface.externalnic (expand) -->
<g id="edge_20" class="edge">
<title>[root] azurerm_network_interface_security_group_association.externalnic_fortinsg_ass (expand)&#45;&gt;[root] azurerm_network_interface.externalnic (expand)</title>
<path fill="none" stroke="black" d="M371.33,-231.7C368.29,-223.81 364.62,-214.3 361.24,-205.55"/>
<polygon fill="black" stroke="black" points="364.46,-204.17 357.6,-196.1 357.93,-206.69 364.46,-204.17"/>
</g>
<!-- [root] azurerm_network_security_group.fortinsg (expand) -->
<g id="node_6" class="node">
<title>[root] azurerm_network_security_group.fortinsg (expand)</title>
<polygon fill="none" stroke="black" points="566,-178 566,-193 708,-193 708,-178 566,-178"/>
<text text-anchor="start" x="569" y="-183.6" font-family="courier new" font-size="8.00">azurerm_network_security_group</text>
<polygon fill="none" stroke="black" points="566,-163 566,-178 708,-178 708,-163 566,-163"/>
<text text-anchor="start" x="618.5" y="-168.6" font-family="courier new" font-size="8.00">fortinsg</text>
</g>
<!-- [root] azurerm_network_interface_security_group_association.externalnic_fortinsg_ass (expand)&#45;&gt;[root] azurerm_network_security_group.fortinsg (expand) -->
<g id="edge_21" class="edge">
<title>[root] azurerm_network_interface_security_group_association.externalnic_fortinsg_ass (expand)&#45;&gt;[root] azurerm_network_security_group.fortinsg (expand)</title>
<path fill="none" stroke="black" d="M449.67,-231.97C482.5,-223.91 521.84,-213.9 557,-204 562.56,-202.43 568.33,-200.75 574.09,-199.03"/>
<polygon fill="black" stroke="black" points="575.21,-202.34 583.77,-196.1 573.18,-195.64 575.21,-202.34"/>
</g>
<!-- [root] azurerm_network_interface_security_group_association.internalnic_fortinsg_ass (expand) -->
<g id="node_5" class="node">
<title>[root] azurerm_network_interface_security_group_association.internalnic_fortinsg_ass (expand)</title>
<polygon fill="none" stroke="black" points="517,-250 517,-265 758,-265 758,-250 517,-250"/>
<text text-anchor="start" x="520" y="-255.6" font-family="courier new" font-size="8.00">azurerm_network_interface_security_group_association</text>
<polygon fill="none" stroke="black" points="517,-235 517,-250 758,-250 758,-235 517,-235"/>
<text text-anchor="start" x="583" y="-240.6" font-family="courier new" font-size="8.00">internalnic_fortinsg_ass</text>
</g>
<!-- [root] azurerm_network_interface_security_group_association.internalnic_fortinsg_ass (expand)&#45;&gt;[root] azurerm_network_interface.internalnic (expand) -->
<g id="edge_22" class="edge">
<title>[root] azurerm_network_interface_security_group_association.internalnic_fortinsg_ass (expand)&#45;&gt;[root] azurerm_network_interface.internalnic (expand)</title>
<path fill="none" stroke="black" d="M600.55,-231.88C580.36,-222.39 555.08,-210.51 533.59,-200.42"/>
<polygon fill="black" stroke="black" points="534.87,-197.15 524.33,-196.07 531.89,-203.49 534.87,-197.15"/>
</g>
<!-- [root] azurerm_network_interface_security_group_association.internalnic_fortinsg_ass (expand)&#45;&gt;[root] azurerm_network_security_group.fortinsg (expand) -->
<g id="edge_23" class="edge">
<title>[root] azurerm_network_interface_security_group_association.internalnic_fortinsg_ass (expand)&#45;&gt;[root] azurerm_network_security_group.fortinsg (expand)</title>
<path fill="none" stroke="black" d="M637,-231.7C637,-223.98 637,-214.71 637,-206.11"/>
<polygon fill="black" stroke="black" points="640.5,-206.1 637,-196.1 633.5,-206.1 640.5,-206.1"/>
</g>
<!-- [root] azurerm_network_security_group.fortinsg (expand)&#45;&gt;[root] provider[&quot;registry.terraform.io/hashicorp/azurerm&quot;] -->
<g id="edge_24" class="edge">
<title>[root] azurerm_network_security_group.fortinsg (expand)&#45;&gt;[root] provider[&quot;registry.terraform.io/hashicorp/azurerm&quot;]</title>
<path fill="none" stroke="black" d="M661.46,-159.88C674.3,-150.89 690.2,-139.76 704.09,-130.03"/>
<polygon fill="black" stroke="black" points="706.26,-132.79 712.44,-124.19 702.24,-127.06 706.26,-132.79"/>
</g>
<!-- [root] azurerm_network_security_group.fortinsg (expand)&#45;&gt;[root] var.location -->
<g id="edge_25" class="edge">
<title>[root] azurerm_network_security_group.fortinsg (expand)&#45;&gt;[root] var.location</title>
<path fill="none" stroke="black" d="M619.2,-159.7C610.4,-151.14 599.62,-140.66 590,-131.3"/>
<polygon fill="black" stroke="black" points="592.2,-128.57 582.59,-124.1 587.32,-133.58 592.2,-128.57"/>
</g>
<!-- [root] azurerm_network_security_group.fortinsg (expand)&#45;&gt;[root] var.project -->
<g id="edge_26" class="edge">
<title>[root] azurerm_network_security_group.fortinsg (expand)&#45;&gt;[root] var.project</title>
<path fill="none" stroke="black" d="M637,-159.7C637,-151.98 637,-142.71 637,-134.11"/>
<polygon fill="black" stroke="black" points="640.5,-134.1 637,-124.1 633.5,-134.1 640.5,-134.1"/>
</g>
<!-- [root] azurerm_network_security_group.fortinsg (expand)&#45;&gt;[root] var.resourcegroupname -->
<g id="edge_27" class="edge">
<title>[root] azurerm_network_security_group.fortinsg (expand)&#45;&gt;[root] var.resourcegroupname</title>
<path fill="none" stroke="black" d="M565.96,-161.56C562.94,-161.01 559.94,-160.49 557,-160 453.67,-142.87 423.44,-161.69 323,-132 319.38,-130.93 315.71,-129.62 312.07,-128.17"/>
<polygon fill="black" stroke="black" points="313.18,-124.84 302.61,-124.06 310.39,-131.26 313.18,-124.84"/>
</g>
<!-- [root] azurerm_network_security_group.fortinsg (expand)&#45;&gt;[root] var.tags -->
<g id="edge_29" class="edge">
<title>[root] azurerm_network_security_group.fortinsg (expand)&#45;&gt;[root] var.tags</title>
<path fill="none" stroke="black" d="M565.93,-161.73C562.92,-161.14 559.93,-160.56 557,-160 483.06,-145.95 458.64,-162.85 390,-132 388.44,-131.3 386.89,-130.5 385.37,-129.63"/>
<polygon fill="black" stroke="black" points="387.24,-126.67 376.99,-124.02 383.35,-132.49 387.24,-126.67"/>
</g>
<!-- [root] var.source_ip -->
<g id="node_13" class="node">
<title>[root] var.source_ip</title>
<polygon fill="none" stroke="black" points="814,-106 814,-121 861,-121 861,-106 814,-106"/>
<text text-anchor="start" x="830.5" y="-111.6" font-family="courier new" font-size="8.00">var</text>
<polygon fill="none" stroke="black" points="814,-91 814,-106 861,-106 861,-91 814,-91"/>
<text text-anchor="start" x="817" y="-96.6" font-family="courier new" font-size="8.00">source_ip</text>
</g>
<!-- [root] azurerm_network_security_group.fortinsg (expand)&#45;&gt;[root] var.source_ip -->
<g id="edge_28" class="edge">
<title>[root] azurerm_network_security_group.fortinsg (expand)&#45;&gt;[root] var.source_ip</title>
<path fill="none" stroke="black" d="M708.29,-163.01C737.79,-155.81 771.85,-145.63 801,-132 802.76,-131.18 804.52,-130.27 806.28,-129.31"/>
<polygon fill="black" stroke="black" points="808.12,-132.28 814.85,-124.1 804.49,-126.3 808.12,-132.28"/>
</g>
<!-- [root] azurerm_virtual_machine_data_disk_attachment.diskattachment (expand) -->
<g id="node_7" class="node">
<title>[root] azurerm_virtual_machine_data_disk_attachment.diskattachment (expand)</title>
<polygon fill="none" stroke="black" points="126,-394 126,-409 331,-409 331,-394 126,-394"/>
<text text-anchor="start" x="129" y="-399.6" font-family="courier new" font-size="8.00">azurerm_virtual_machine_data_disk_attachment</text>
<polygon fill="none" stroke="black" points="126,-379 126,-394 331,-394 331,-379 126,-379"/>
<text text-anchor="start" x="196.5" y="-384.6" font-family="courier new" font-size="8.00">diskattachment</text>
</g>
<!-- [root] azurerm_virtual_machine_data_disk_attachment.diskattachment (expand)&#45;&gt;[root] azurerm_managed_disk.fortidisk (expand) -->
<g id="edge_30" class="edge">
<title>[root] azurerm_virtual_machine_data_disk_attachment.diskattachment (expand)&#45;&gt;[root] azurerm_managed_disk.fortidisk (expand)</title>
<path fill="none" stroke="black" d="M223.3,-375.7C221.19,-367.9 218.64,-358.51 216.28,-349.83"/>
<polygon fill="black" stroke="black" points="219.64,-348.84 213.64,-340.1 212.88,-350.67 219.64,-348.84"/>
</g>
<!-- [root] provider[&quot;registry.terraform.io/hashicorp/azurerm&quot;] (close) -->
<g id="node_21" class="node">
<title>[root] provider[&quot;registry.terraform.io/hashicorp/azurerm&quot;] (close)</title>
<polygon fill="none" stroke="black" points="323,-466 323,-481 433,-481 433,-466 323,-466"/>
<text text-anchor="start" x="357.5" y="-471.6" font-family="courier new" font-size="8.00">terraform</text>
<polygon fill="none" stroke="black" points="323,-451 323,-466 433,-466 433,-451 323,-451"/>
<text text-anchor="start" x="326" y="-456.6" font-family="courier new" font-size="8.00">io/hashicorp/azurerm\&quot;]</text>
</g>
<!-- [root] provider[&quot;registry.terraform.io/hashicorp/azurerm&quot;] (close)&#45;&gt;[root] azurerm_network_interface_security_group_association.externalnic_fortinsg_ass (expand) -->
<g id="edge_31" class="edge">
<title>[root] provider[&quot;registry.terraform.io/hashicorp/azurerm&quot;] (close)&#45;&gt;[root] azurerm_network_interface_security_group_association.externalnic_fortinsg_ass (expand)</title>
<path fill="none" stroke="black" d="M378,-447.85C378,-410.83 378,-323.18 378,-278.39"/>
<polygon fill="black" stroke="black" points="381.5,-278.23 378,-268.23 374.5,-278.23 381.5,-278.23"/>
</g>
<!-- [root] provider[&quot;registry.terraform.io/hashicorp/azurerm&quot;] (close)&#45;&gt;[root] azurerm_network_interface_security_group_association.internalnic_fortinsg_ass (expand) -->
<g id="edge_32" class="edge">
<title>[root] provider[&quot;registry.terraform.io/hashicorp/azurerm&quot;] (close)&#45;&gt;[root] azurerm_network_interface_security_group_association.internalnic_fortinsg_ass (expand)</title>
<path fill="none" stroke="black" d="M398.76,-447.85C444.79,-409.81 555.52,-318.32 608.21,-274.79"/>
<polygon fill="black" stroke="black" points="610.66,-277.3 616.14,-268.23 606.21,-271.9 610.66,-277.3"/>
</g>
<!-- [root] provider[&quot;registry.terraform.io/hashicorp/azurerm&quot;] (close)&#45;&gt;[root] azurerm_virtual_machine_data_disk_attachment.diskattachment (expand) -->
<g id="edge_33" class="edge">
<title>[root] provider[&quot;registry.terraform.io/hashicorp/azurerm&quot;] (close)&#45;&gt;[root] azurerm_virtual_machine_data_disk_attachment.diskattachment (expand)</title>
<path fill="none" stroke="black" d="M341.31,-447.88C320.98,-438.39 295.53,-426.51 273.9,-416.42"/>
<polygon fill="black" stroke="black" points="275.12,-413.13 264.57,-412.07 272.16,-419.47 275.12,-413.13"/>
</g>
<!-- [root] root -->
<g id="node_22" class="node">
<title>[root] root</title>
<polygon fill="none" stroke="black" points="411,-556 345,-556 345,-520 411,-520 411,-556"/>
<text text-anchor="middle" x="378" y="-536.1" font-family="courier new" font-size="8.00">[root] root</text>
</g>
<!-- [root] root&#45;&gt;[root] provider[&quot;registry.terraform.io/hashicorp/azurerm&quot;] (close) -->
<g id="edge_34" class="edge">
<title>[root] root&#45;&gt;[root] provider[&quot;registry.terraform.io/hashicorp/azurerm&quot;] (close)</title>
<path fill="none" stroke="black" d="M378,-519.7C378,-511.98 378,-502.71 378,-494.11"/>
<polygon fill="black" stroke="black" points="381.5,-494.1 378,-484.1 374.5,-494.1 381.5,-494.1"/>
</g>
<!-- [root] var.username -->
<g id="node_19" class="node">
<title>[root] var.username</title>
<polygon fill="none" stroke="black" points="22,-106 22,-121 65,-121 65,-106 22,-106"/>
<text text-anchor="start" x="36.5" y="-111.6" font-family="courier new" font-size="8.00">var</text>
<polygon fill="none" stroke="black" points="22,-91 22,-106 65,-106 65,-91 22,-91"/>
<text text-anchor="start" x="25" y="-96.6" font-family="courier new" font-size="8.00">username</text>
</g>
<!-- [root] var.password&#45;&gt;[root] var.username -->
<g id="edge_35" class="edge">
<title>[root] var.password&#45;&gt;[root] var.username</title>
<path fill="none" stroke="black" stroke-dasharray="5,2" d="M43,-159.7C43,-148.85 43,-134.92 43,-124.1"/>
</g>
<!-- [root] var.vmsize -->
<g id="node_20" class="node">
<title>[root] var.vmsize</title>
<polygon fill="none" stroke="black" points="26,-34 26,-49 60,-49 60,-34 26,-34"/>
<text text-anchor="start" x="36" y="-39.6" font-family="courier new" font-size="8.00">var</text>
<polygon fill="none" stroke="black" points="26,-19 26,-34 60,-34 60,-19 26,-19"/>
<text text-anchor="start" x="29" y="-24.6" font-family="courier new" font-size="8.00">vmsize</text>
</g>
<!-- [root] var.username&#45;&gt;[root] var.vmsize -->
<g id="edge_36" class="edge">
<title>[root] var.username&#45;&gt;[root] var.vmsize</title>
<path fill="none" stroke="black" stroke-dasharray="5,2" d="M43,-87.7C43,-76.85 43,-62.92 43,-52.1"/>
</g>
<!-- [root] var.subnetexternalstartadress -->
<g id="node_15" class="node">
<title>[root] var.subnetexternalstartadress</title>
<polygon fill="none" stroke="black" points="95,-34 95,-49 214,-49 214,-34 95,-34"/>
<text text-anchor="start" x="147.5" y="-39.6" font-family="courier new" font-size="8.00">var</text>
<polygon fill="none" stroke="black" points="95,-19 95,-34 214,-34 214,-19 95,-19"/>
<text text-anchor="start" x="98" y="-24.6" font-family="courier new" font-size="8.00">subnetexternalstartadress</text>
</g>
<!-- [root] var.subnetexternal&#45;&gt;[root] var.subnetexternalstartadress -->
<g id="edge_37" class="edge">
<title>[root] var.subnetexternal&#45;&gt;[root] var.subnetexternalstartadress</title>
<path fill="none" stroke="black" stroke-dasharray="5,2" d="M162.28,-87.7C160.58,-76.85 158.39,-62.92 156.69,-52.1"/>
</g>
<!-- [root] var.subnetinternalstartadress -->
<g id="node_17" class="node">
<title>[root] var.subnetinternalstartadress</title>
<polygon fill="none" stroke="black" points="403,-34 403,-49 522,-49 522,-34 403,-34"/>
<text text-anchor="start" x="455.5" y="-39.6" font-family="courier new" font-size="8.00">var</text>
<polygon fill="none" stroke="black" points="403,-19 403,-34 522,-34 522,-19 403,-19"/>
<text text-anchor="start" x="406" y="-24.6" font-family="courier new" font-size="8.00">subnetinternalstartadress</text>
</g>
<!-- [root] var.subnetinternal&#45;&gt;[root] var.subnetinternalstartadress -->
<g id="edge_38" class="edge">
<title>[root] var.subnetinternal&#45;&gt;[root] var.subnetinternalstartadress</title>
<path fill="none" stroke="black" stroke-dasharray="5,2" d="M471.03,-87.7C469.17,-76.85 466.79,-62.92 464.93,-52.1"/>
</g>
</g>
</svg>

