<?xml version="1.0" encoding="UTF-8" standalone="no"?>
<!DOCTYPE svg PUBLIC "-//W3C//DTD SVG 1.1//EN"
 "http://www.w3.org/Graphics/SVG/1.1/DTD/svg11.dtd">
<!-- Generated by graphviz version 2.43.0 (0)
 -->
<!-- Title: %3 Pages: 1 -->
<svg width="794pt" height="564pt"
 viewBox="0.00 0.00 794.00 564.00" xmlns="http://www.w3.org/2000/svg" xmlns:xlink="http://www.w3.org/1999/xlink">
<g id="graph0" class="graph" transform="scale(1 1) rotate(0) translate(4 560)">
<title>%3</title>
<polygon fill="white" stroke="transparent" points="-4,4 -4,-560 790,-560 790,4 -4,4"/>
<g id="clust2" class="cluster">
<title>cluster[root] azurerm_linux_virtual_machine.fortivm (expand)_var_</title>
</g>
<g id="clust3" class="cluster">
<title>cluster[root] azurerm_network_security_group.fortinsg (expand)_var_</title>
</g>
<g id="clust4" class="cluster">
<title>cluster[root] azurerm_network_interface.externalnic (expand)_var_</title>
</g>
<g id="clust5" class="cluster">
<title>cluster[root] azurerm_network_interface.internalnic (expand)_var_</title>
</g>
<!-- [root] azurerm_linux_virtual_machine.fortivm (expand) -->
<g id="node_0" class="node">
<title>[root] azurerm_linux_virtual_machine.fortivm (expand)</title>
<polygon fill="none" stroke="black" points="461,-250 461,-265 598,-265 598,-250 461,-250"/>
<text text-anchor="start" x="464" y="-255.6" font-family="courier new" font-size="8.00">azurerm_linux_virtual_machine</text>
<polygon fill="none" stroke="black" points="461,-235 461,-250 598,-250 598,-235 461,-235"/>
<text text-anchor="start" x="513.5" y="-240.6" font-family="courier new" font-size="8.00">fortivm</text>
</g>
<!-- [root] azurerm_network_interface.externalnic (expand) -->
<g id="node_3" class="node">
<title>[root] azurerm_network_interface.externalnic (expand)</title>
<polygon fill="none" stroke="black" points="341,-178 341,-193 460,-193 460,-178 341,-178"/>
<text text-anchor="start" x="344" y="-183.6" font-family="courier new" font-size="8.00">azurerm_network_interface</text>
<polygon fill="none" stroke="black" points="341,-163 341,-178 460,-178 460,-163 341,-163"/>
<text text-anchor="start" x="375.5" y="-168.6" font-family="courier new" font-size="8.00">externalnic</text>
</g>
<!-- [root] azurerm_linux_virtual_machine.fortivm (expand)&#45;&gt;[root] azurerm_network_interface.externalnic (expand) -->
<g id="edge_0" class="edge">
<title>[root] azurerm_linux_virtual_machine.fortivm (expand)&#45;&gt;[root] azurerm_network_interface.externalnic (expand)</title>
<path fill="none" stroke="black" d="M497.44,-231.88C480.34,-222.6 459.02,-211.03 440.68,-201.08"/>
<polygon fill="black" stroke="black" points="442.14,-197.88 431.68,-196.19 438.8,-204.04 442.14,-197.88"/>
</g>
<!-- [root] azurerm_network_interface.internalnic (expand) -->
<g id="node_4" class="node">
<title>[root] azurerm_network_interface.internalnic (expand)</title>
<polygon fill="none" stroke="black" points="478,-178 478,-193 597,-193 597,-178 478,-178"/>
<text text-anchor="start" x="481" y="-183.6" font-family="courier new" font-size="8.00">azurerm_network_interface</text>
<polygon fill="none" stroke="black" points="478,-163 478,-178 597,-178 597,-163 478,-163"/>
<text text-anchor="start" x="512.5" y="-168.6" font-family="courier new" font-size="8.00">internalnic</text>
</g>
<!-- [root] azurerm_linux_virtual_machine.fortivm (expand)&#45;&gt;[root] azurerm_network_interface.internalnic (expand) -->
<g id="edge_1" class="edge">
<title>[root] azurerm_linux_virtual_machine.fortivm (expand)&#45;&gt;[root] azurerm_network_interface.internalnic (expand)</title>
<path fill="none" stroke="black" d="M530.98,-231.7C531.86,-223.98 532.92,-214.71 533.9,-206.11"/>
<polygon fill="black" stroke="black" points="537.39,-206.44 535.05,-196.1 530.43,-205.64 537.39,-206.44"/>
</g>
<!-- [root] var.password -->
<g id="node_10" class="node">
<title>[root] var.password</title>
<polygon fill="none" stroke="black" points="722,-178 722,-193 765,-193 765,-178 722,-178"/>
<text text-anchor="start" x="736.5" y="-183.6" font-family="courier new" font-size="8.00">var</text>
<polygon fill="none" stroke="black" points="722,-163 722,-178 765,-178 765,-163 722,-163"/>
<text text-anchor="start" x="725" y="-168.6" font-family="courier new" font-size="8.00">password</text>
</g>
<!-- [root] azurerm_linux_virtual_machine.fortivm (expand)&#45;&gt;[root] var.password -->
<g id="edge_2" class="edge">
<title>[root] azurerm_linux_virtual_machine.fortivm (expand)&#45;&gt;[root] var.password</title>
<path fill="none" stroke="black" d="M581.08,-231.97C619.81,-219.29 671.72,-202.31 706.21,-191.03"/>
<polygon fill="black" stroke="black" points="707.47,-194.3 715.89,-187.87 705.29,-187.65 707.47,-194.3"/>
</g>
<!-- [root] azurerm_managed_disk.fortidisk (expand) -->
<g id="node_1" class="node">
<title>[root] azurerm_managed_disk.fortidisk (expand)</title>
<polygon fill="none" stroke="black" points="460,-322 460,-337 557,-337 557,-322 460,-322"/>
<text text-anchor="start" x="463" y="-327.6" font-family="courier new" font-size="8.00">azurerm_managed_disk</text>
<polygon fill="none" stroke="black" points="460,-307 460,-322 557,-322 557,-307 460,-307"/>
<text text-anchor="start" x="488" y="-312.6" font-family="courier new" font-size="8.00">fortidisk</text>
</g>
<!-- [root] azurerm_managed_disk.fortidisk (expand)&#45;&gt;[root] azurerm_linux_virtual_machine.fortivm (expand) -->
<g id="edge_5" class="edge">
<title>[root] azurerm_managed_disk.fortidisk (expand)&#45;&gt;[root] azurerm_linux_virtual_machine.fortivm (expand)</title>
<path fill="none" stroke="black" d="M513.19,-303.7C515.53,-295.9 518.35,-286.51 520.95,-277.83"/>
<polygon fill="black" stroke="black" points="524.35,-278.69 523.87,-268.1 517.64,-276.68 524.35,-278.69"/>
</g>
<!-- [root] azurerm_marketplace_agreement.fortiweb (expand) -->
<g id="node_2" class="node">
<title>[root] azurerm_marketplace_agreement.fortiweb (expand)</title>
<polygon fill="none" stroke="black" points="115,-394 115,-409 252,-409 252,-394 115,-394"/>
<text text-anchor="start" x="118" y="-399.6" font-family="courier new" font-size="8.00">azurerm_marketplace_agreement</text>
<polygon fill="none" stroke="black" points="115,-379 115,-394 252,-394 252,-379 115,-379"/>
<text text-anchor="start" x="165" y="-384.6" font-family="courier new" font-size="8.00">fortiweb</text>
</g>
<!-- [root] provider[&quot;registry.terraform.io/hashicorp/azurerm&quot;] -->
<g id="node_8" class="node">
<title>[root] provider[&quot;registry.terraform.io/hashicorp/azurerm&quot;]</title>
<polygon fill="none" stroke="black" points="88,-106 88,-121 198,-121 198,-106 88,-106"/>
<text text-anchor="start" x="122.5" y="-111.6" font-family="courier new" font-size="8.00">terraform</text>
<polygon fill="none" stroke="black" points="88,-91 88,-106 198,-106 198,-91 88,-91"/>
<text text-anchor="start" x="91" y="-96.6" font-family="courier new" font-size="8.00">io/hashicorp/azurerm\&quot;]</text>
</g>
<!-- [root] azurerm_marketplace_agreement.fortiweb (expand)&#45;&gt;[root] provider[&quot;registry.terraform.io/hashicorp/azurerm&quot;] -->
<g id="edge_6" class="edge">
<title>[root] azurerm_marketplace_agreement.fortiweb (expand)&#45;&gt;[root] provider[&quot;registry.terraform.io/hashicorp/azurerm&quot;]</title>
<path fill="none" stroke="black" d="M180.62,-375.97C173.94,-328.19 154.98,-192.62 146.81,-134.27"/>
<polygon fill="black" stroke="black" points="150.27,-133.73 145.42,-124.31 143.34,-134.69 150.27,-133.73"/>
</g>
<!-- [root] azurerm_network_interface.externalnic (expand)&#45;&gt;[root] provider[&quot;registry.terraform.io/hashicorp/azurerm&quot;] -->
<g id="edge_7" class="edge">
<title>[root] azurerm_network_interface.externalnic (expand)&#45;&gt;[root] provider[&quot;registry.terraform.io/hashicorp/azurerm&quot;]</title>
<path fill="none" stroke="black" d="M340.18,-162.17C337.08,-161.43 334,-160.7 331,-160 274.71,-146.86 259.17,-149.25 204,-132 199.77,-130.68 195.42,-129.18 191.09,-127.6"/>
<polygon fill="black" stroke="black" points="192.28,-124.3 181.68,-124.02 189.79,-130.85 192.28,-124.3"/>
</g>
<!-- [root] var.location -->
<g id="node_9" class="node">
<title>[root] var.location</title>
<polygon fill="none" stroke="black" points="310,-106 310,-121 353,-121 353,-106 310,-106"/>
<text text-anchor="start" x="324.5" y="-111.6" font-family="courier new" font-size="8.00">var</text>
<polygon fill="none" stroke="black" points="310,-91 310,-106 353,-106 353,-91 310,-91"/>
<text text-anchor="start" x="313" y="-96.6" font-family="courier new" font-size="8.00">location</text>
</g>
<!-- [root] azurerm_network_interface.externalnic (expand)&#45;&gt;[root] var.location -->
<g id="edge_8" class="edge">
<title>[root] azurerm_network_interface.externalnic (expand)&#45;&gt;[root] var.location</title>
<path fill="none" stroke="black" d="M382.94,-159.7C374.5,-151.14 364.18,-140.66 354.96,-131.3"/>
<polygon fill="black" stroke="black" points="357.37,-128.77 347.86,-124.1 352.39,-133.68 357.37,-128.77"/>
</g>
<!-- [root] var.project -->
<g id="node_11" class="node">
<title>[root] var.project</title>
<polygon fill="none" stroke="black" points="384,-106 384,-121 422,-121 422,-106 384,-106"/>
<text text-anchor="start" x="396" y="-111.6" font-family="courier new" font-size="8.00">var</text>
<polygon fill="none" stroke="black" points="384,-91 384,-106 422,-106 422,-91 384,-91"/>
<text text-anchor="start" x="387" y="-96.6" font-family="courier new" font-size="8.00">project</text>
</g>
<!-- [root] azurerm_network_interface.externalnic (expand)&#45;&gt;[root] var.project -->
<g id="edge_9" class="edge">
<title>[root] azurerm_network_interface.externalnic (expand)&#45;&gt;[root] var.project</title>
<path fill="none" stroke="black" d="M400.74,-159.7C401.07,-151.98 401.47,-142.71 401.84,-134.11"/>
<polygon fill="black" stroke="black" points="405.34,-134.25 402.27,-124.1 398.34,-133.95 405.34,-134.25"/>
</g>
<!-- [root] var.resourcegroupname -->
<g id="node_12" class="node">
<title>[root] var.resourcegroupname</title>
<polygon fill="none" stroke="black" points="449,-106 449,-121 532,-121 532,-106 449,-106"/>
<text text-anchor="start" x="483.5" y="-111.6" font-family="courier new" font-size="8.00">var</text>
<polygon fill="none" stroke="black" points="449,-91 449,-106 532,-106 532,-91 449,-91"/>
<text text-anchor="start" x="452" y="-96.6" font-family="courier new" font-size="8.00">resourcegroupname</text>
</g>
<!-- [root] azurerm_network_interface.externalnic (expand)&#45;&gt;[root] var.resourcegroupname -->
<g id="edge_10" class="edge">
<title>[root] azurerm_network_interface.externalnic (expand)&#45;&gt;[root] var.resourcegroupname</title>
<path fill="none" stroke="black" d="M422.25,-159.7C433.58,-150.88 447.53,-140.03 459.82,-130.47"/>
<polygon fill="black" stroke="black" points="462.26,-133.01 468.01,-124.1 457.97,-127.48 462.26,-133.01"/>
</g>
<!-- [root] var.tags -->
<g id="node_16" class="node">
<title>[root] var.tags</title>
<polygon fill="none" stroke="black" points="565,-106 565,-121 590,-121 590,-106 565,-106"/>
<text text-anchor="start" x="570.5" y="-111.6" font-family="courier new" font-size="8.00">var</text>
<polygon fill="none" stroke="black" points="565,-91 565,-106 590,-106 590,-91 565,-91"/>
<text text-anchor="start" x="568" y="-96.6" font-family="courier new" font-size="8.00">tags</text>
</g>
<!-- [root] azurerm_network_interface.externalnic (expand)&#45;&gt;[root] var.tags -->
<g id="edge_12" class="edge">
<title>[root] azurerm_network_interface.externalnic (expand)&#45;&gt;[root] var.tags</title>
<path fill="none" stroke="black" d="M459.84,-162.18C485.51,-154.75 515.42,-144.61 541,-132 542.55,-131.24 544.11,-130.41 545.66,-129.54"/>
<polygon fill="black" stroke="black" points="547.68,-132.41 554.39,-124.2 544.03,-126.43 547.68,-132.41"/>
</g>
<!-- [root] var.subnetexternal -->
<g id="node_14" class="node">
<title>[root] var.subnetexternal</title>
<polygon fill="none" stroke="black" points="216,-106 216,-121 286,-121 286,-106 216,-106"/>
<text text-anchor="start" x="244" y="-111.6" font-family="courier new" font-size="8.00">var</text>
<polygon fill="none" stroke="black" points="216,-91 216,-106 286,-106 286,-91 216,-91"/>
<text text-anchor="start" x="219" y="-96.6" font-family="courier new" font-size="8.00">subnetexternal</text>
</g>
<!-- [root] azurerm_network_interface.externalnic (expand)&#45;&gt;[root] var.subnetexternal -->
<g id="edge_11" class="edge">
<title>[root] azurerm_network_interface.externalnic (expand)&#45;&gt;[root] var.subnetexternal</title>
<path fill="none" stroke="black" d="M357.36,-160C338.09,-151.99 315.16,-142.01 295,-132 293.02,-131.02 291,-129.98 288.97,-128.92"/>
<polygon fill="black" stroke="black" points="290.56,-125.8 280.1,-124.14 287.24,-131.97 290.56,-125.8"/>
</g>
<!-- [root] azurerm_network_interface.internalnic (expand)&#45;&gt;[root] provider[&quot;registry.terraform.io/hashicorp/azurerm&quot;] -->
<g id="edge_13" class="edge">
<title>[root] azurerm_network_interface.internalnic (expand)&#45;&gt;[root] provider[&quot;registry.terraform.io/hashicorp/azurerm&quot;]</title>
<path fill="none" stroke="black" d="M477.4,-161.6C474.57,-161.02 471.76,-160.49 469,-160 352.38,-139.37 318.84,-160.97 204,-132 199.26,-130.8 194.4,-129.31 189.59,-127.65"/>
<polygon fill="black" stroke="black" points="190.45,-124.24 179.86,-124.06 188.02,-130.8 190.45,-124.24"/>
</g>
<!-- [root] azurerm_network_interface.internalnic (expand)&#45;&gt;[root] var.location -->
<g id="edge_14" class="edge">
<title>[root] azurerm_network_interface.internalnic (expand)&#45;&gt;[root] var.location</title>
<path fill="none" stroke="black" d="M477.3,-161.72C430.44,-149.64 372.23,-134.42 367,-132 365.24,-131.19 363.47,-130.29 361.72,-129.33"/>
<polygon fill="black" stroke="black" points="363.5,-126.31 353.13,-124.13 359.88,-132.3 363.5,-126.31"/>
</g>
<!-- [root] azurerm_network_interface.internalnic (expand)&#45;&gt;[root] var.project -->
<g id="edge_15" class="edge">
<title>[root] azurerm_network_interface.internalnic (expand)&#45;&gt;[root] var.project</title>
<path fill="none" stroke="black" d="M496.16,-159.8C478.56,-151.94 457.94,-142.14 440,-132 438.69,-131.26 437.37,-130.49 436.04,-129.7"/>
<polygon fill="black" stroke="black" points="437.66,-126.58 427.33,-124.24 433.95,-132.51 437.66,-126.58"/>
</g>
<!-- [root] azurerm_network_interface.internalnic (expand)&#45;&gt;[root] var.resourcegroupname -->
<g id="edge_16" class="edge">
<title>[root] azurerm_network_interface.internalnic (expand)&#45;&gt;[root] var.resourcegroupname</title>
<path fill="none" stroke="black" d="M525.38,-159.7C519.86,-151.47 513.15,-141.48 507.07,-132.42"/>
<polygon fill="black" stroke="black" points="509.96,-130.46 501.48,-124.1 504.15,-134.36 509.96,-130.46"/>
</g>
<!-- [root] azurerm_network_interface.internalnic (expand)&#45;&gt;[root] var.tags -->
<g id="edge_18" class="edge">
<title>[root] azurerm_network_interface.internalnic (expand)&#45;&gt;[root] var.tags</title>
<path fill="none" stroke="black" d="M546.89,-159.7C551.49,-151.64 557.06,-141.89 562.15,-132.98"/>
<polygon fill="black" stroke="black" points="565.3,-134.52 567.23,-124.1 559.23,-131.05 565.3,-134.52"/>
</g>
<!-- [root] var.subnetinternal -->
<g id="node_15" class="node">
<title>[root] var.subnetinternal</title>
<polygon fill="none" stroke="black" points="622,-106 622,-121 692,-121 692,-106 622,-106"/>
<text text-anchor="start" x="650" y="-111.6" font-family="courier new" font-size="8.00">var</text>
<polygon fill="none" stroke="black" points="622,-91 622,-106 692,-106 692,-91 622,-91"/>
<text text-anchor="start" x="625" y="-96.6" font-family="courier new" font-size="8.00">subnetinternal</text>
</g>
<!-- [root] azurerm_network_interface.internalnic (expand)&#45;&gt;[root] var.subnetinternal -->
<g id="edge_17" class="edge">
<title>[root] azurerm_network_interface.internalnic (expand)&#45;&gt;[root] var.subnetinternal</title>
<path fill="none" stroke="black" d="M566.36,-159.88C582.05,-150.72 601.56,-139.34 618.45,-129.48"/>
<polygon fill="black" stroke="black" points="620.66,-132.25 627.53,-124.19 617.13,-126.21 620.66,-132.25"/>
</g>
<!-- [root] azurerm_network_interface_security_group_association.externalnic_fortinsg_ass (expand) -->
<g id="node_5" class="node">
<title>[root] azurerm_network_interface_security_group_association.externalnic_fortinsg_ass (expand)</title>
<polygon fill="none" stroke="black" points="194,-250 194,-265 435,-265 435,-250 194,-250"/>
<text text-anchor="start" x="197" y="-255.6" font-family="courier new" font-size="8.00">azurerm_network_interface_security_group_association</text>
<polygon fill="none" stroke="black" points="194,-235 194,-250 435,-250 435,-235 194,-235"/>
<text text-anchor="start" x="260" y="-240.6" font-family="courier new" font-size="8.00">externalnic_fortinsg_ass</text>
</g>
<!-- [root] azurerm_network_interface_security_group_association.externalnic_fortinsg_ass (expand)&#45;&gt;[root] azurerm_network_interface.externalnic (expand) -->
<g id="edge_19" class="edge">
<title>[root] azurerm_network_interface_security_group_association.externalnic_fortinsg_ass (expand)&#45;&gt;[root] azurerm_network_interface.externalnic (expand)</title>
<path fill="none" stroke="black" d="M335.26,-231.7C346.09,-222.88 359.42,-212.03 371.16,-202.47"/>
<polygon fill="black" stroke="black" points="373.44,-205.13 378.99,-196.1 369.02,-199.7 373.44,-205.13"/>
</g>
<!-- [root] azurerm_network_security_group.fortinsg (expand) -->
<g id="node_6" class="node">
<title>[root] azurerm_network_security_group.fortinsg (expand)</title>
<polygon fill="none" stroke="black" points="180,-178 180,-193 322,-193 322,-178 180,-178"/>
<text text-anchor="start" x="183" y="-183.6" font-family="courier new" font-size="8.00">azurerm_network_security_group</text>
<polygon fill="none" stroke="black" points="180,-163 180,-178 322,-178 322,-163 180,-163"/>
<text text-anchor="start" x="232.5" y="-168.6" font-family="courier new" font-size="8.00">fortinsg</text>
</g>
<!-- [root] azurerm_network_interface_security_group_association.externalnic_fortinsg_ass (expand)&#45;&gt;[root] azurerm_network_security_group.fortinsg (expand) -->
<g id="edge_20" class="edge">
<title>[root] azurerm_network_interface_security_group_association.externalnic_fortinsg_ass (expand)&#45;&gt;[root] azurerm_network_security_group.fortinsg (expand)</title>
<path fill="none" stroke="black" d="M298.43,-231.7C290.8,-223.22 281.48,-212.86 273.12,-203.58"/>
<polygon fill="black" stroke="black" points="275.69,-201.2 266.39,-196.1 270.48,-205.88 275.69,-201.2"/>
</g>
<!-- [root] azurerm_network_security_group.fortinsg (expand)&#45;&gt;[root] provider[&quot;registry.terraform.io/hashicorp/azurerm&quot;] -->
<g id="edge_21" class="edge">
<title>[root] azurerm_network_security_group.fortinsg (expand)&#45;&gt;[root] provider[&quot;registry.terraform.io/hashicorp/azurerm&quot;]</title>
<path fill="none" stroke="black" d="M224.58,-159.88C210.59,-150.81 193.22,-139.55 178.11,-129.76"/>
<polygon fill="black" stroke="black" points="179.82,-126.69 169.52,-124.19 176.01,-132.57 179.82,-126.69"/>
</g>
<!-- [root] azurerm_network_security_group.fortinsg (expand)&#45;&gt;[root] var.location -->
<g id="edge_22" class="edge">
<title>[root] azurerm_network_security_group.fortinsg (expand)&#45;&gt;[root] var.location</title>
<path fill="none" stroke="black" d="M270.78,-159.7C280.75,-150.97 293.01,-140.24 303.86,-130.75"/>
<polygon fill="black" stroke="black" points="306.23,-133.32 311.45,-124.1 301.62,-128.06 306.23,-133.32"/>
</g>
<!-- [root] azurerm_network_security_group.fortinsg (expand)&#45;&gt;[root] var.project -->
<g id="edge_23" class="edge">
<title>[root] azurerm_network_security_group.fortinsg (expand)&#45;&gt;[root] var.project</title>
<path fill="none" stroke="black" d="M302.69,-159.93C323.2,-152.4 346.69,-142.8 367,-132 368.34,-131.29 369.7,-130.53 371.05,-129.75"/>
<polygon fill="black" stroke="black" points="373.25,-132.5 379.88,-124.24 369.54,-126.56 373.25,-132.5"/>
</g>
<!-- [root] azurerm_network_security_group.fortinsg (expand)&#45;&gt;[root] var.resourcegroupname -->
<g id="edge_24" class="edge">
<title>[root] azurerm_network_security_group.fortinsg (expand)&#45;&gt;[root] var.resourcegroupname</title>
<path fill="none" stroke="black" d="M322.04,-161.7C365.81,-151.94 417.53,-139.73 439,-132 442.11,-130.88 445.28,-129.63 448.44,-128.29"/>
<polygon fill="black" stroke="black" points="450.11,-131.38 457.82,-124.1 447.26,-124.99 450.11,-131.38"/>
</g>
<!-- [root] azurerm_network_security_group.fortinsg (expand)&#45;&gt;[root] var.tags -->
<g id="edge_26" class="edge">
<title>[root] azurerm_network_security_group.fortinsg (expand)&#45;&gt;[root] var.tags</title>
<path fill="none" stroke="black" d="M322.06,-161.78C325.42,-161.16 328.74,-160.56 332,-160 424.37,-144.14 453.63,-165.9 541,-132 543.08,-131.19 545.15,-130.25 547.19,-129.2"/>
<polygon fill="black" stroke="black" points="549.01,-132.19 555.86,-124.11 545.46,-126.15 549.01,-132.19"/>
</g>
<!-- [root] var.source_ip -->
<g id="node_13" class="node">
<title>[root] var.source_ip</title>
<polygon fill="none" stroke="black" points="20,-106 20,-121 67,-121 67,-106 20,-106"/>
<text text-anchor="start" x="36.5" y="-111.6" font-family="courier new" font-size="8.00">var</text>
<polygon fill="none" stroke="black" points="20,-91 20,-106 67,-106 67,-91 20,-91"/>
<text text-anchor="start" x="23" y="-96.6" font-family="courier new" font-size="8.00">source_ip</text>
</g>
<!-- [root] azurerm_network_security_group.fortinsg (expand)&#45;&gt;[root] var.source_ip -->
<g id="edge_25" class="edge">
<title>[root] azurerm_network_security_group.fortinsg (expand)&#45;&gt;[root] var.source_ip</title>
<path fill="none" stroke="black" d="M179.61,-164.22C147.91,-157.06 110.68,-146.59 79,-132 77.24,-131.19 75.47,-130.29 73.71,-129.33"/>
<polygon fill="black" stroke="black" points="75.49,-126.32 65.12,-124.14 71.87,-132.31 75.49,-126.32"/>
</g>
<!-- [root] azurerm_virtual_machine_data_disk_attachment.diskattachment (expand) -->
<g id="node_7" class="node">
<title>[root] azurerm_virtual_machine_data_disk_attachment.diskattachment (expand)</title>
<polygon fill="none" stroke="black" points="385,-394 385,-409 590,-409 590,-394 385,-394"/>
<text text-anchor="start" x="388" y="-399.6" font-family="courier new" font-size="8.00">azurerm_virtual_machine_data_disk_attachment</text>
<polygon fill="none" stroke="black" points="385,-379 385,-394 590,-394 590,-379 385,-379"/>
<text text-anchor="start" x="455.5" y="-384.6" font-family="courier new" font-size="8.00">diskattachment</text>
</g>
<!-- [root] azurerm_virtual_machine_data_disk_attachment.diskattachment (expand)&#45;&gt;[root] azurerm_managed_disk.fortidisk (expand) -->
<g id="edge_27" class="edge">
<title>[root] azurerm_virtual_machine_data_disk_attachment.diskattachment (expand)&#45;&gt;[root] azurerm_managed_disk.fortidisk (expand)</title>
<path fill="none" stroke="black" d="M492.19,-375.7C494.53,-367.9 497.35,-358.51 499.95,-349.83"/>
<polygon fill="black" stroke="black" points="503.35,-350.69 502.87,-340.1 496.64,-348.68 503.35,-350.69"/>
</g>
<!-- [root] provider[&quot;registry.terraform.io/hashicorp/azurerm&quot;] (close) -->
<g id="node_19" class="node">
<title>[root] provider[&quot;registry.terraform.io/hashicorp/azurerm&quot;] (close)</title>
<polygon fill="none" stroke="black" points="259,-466 259,-481 369,-481 369,-466 259,-466"/>
<text text-anchor="start" x="293.5" y="-471.6" font-family="courier new" font-size="8.00">terraform</text>
<polygon fill="none" stroke="black" points="259,-451 259,-466 369,-466 369,-451 259,-451"/>
<text text-anchor="start" x="262" y="-456.6" font-family="courier new" font-size="8.00">io/hashicorp/azurerm\&quot;]</text>
</g>
<!-- [root] provider[&quot;registry.terraform.io/hashicorp/azurerm&quot;] (close)&#45;&gt;[root] azurerm_marketplace_agreement.fortiweb (expand) -->
<g id="edge_28" class="edge">
<title>[root] provider[&quot;registry.terraform.io/hashicorp/azurerm&quot;] (close)&#45;&gt;[root] azurerm_marketplace_agreement.fortiweb (expand)</title>
<path fill="none" stroke="black" d="M281.95,-447.88C264.51,-438.55 242.73,-426.92 224.06,-416.94"/>
<polygon fill="black" stroke="black" points="225.64,-413.82 215.17,-412.19 222.34,-419.99 225.64,-413.82"/>
</g>
<!-- [root] provider[&quot;registry.terraform.io/hashicorp/azurerm&quot;] (close)&#45;&gt;[root] azurerm_network_interface_security_group_association.externalnic_fortinsg_ass (expand) -->
<g id="edge_29" class="edge">
<title>[root] provider[&quot;registry.terraform.io/hashicorp/azurerm&quot;] (close)&#45;&gt;[root] azurerm_network_interface_security_group_association.externalnic_fortinsg_ass (expand)</title>
<path fill="none" stroke="black" d="M314,-447.85C314,-410.83 314,-323.18 314,-278.39"/>
<polygon fill="black" stroke="black" points="317.5,-278.23 314,-268.23 310.5,-278.23 317.5,-278.23"/>
</g>
<!-- [root] provider[&quot;registry.terraform.io/hashicorp/azurerm&quot;] (close)&#45;&gt;[root] azurerm_virtual_machine_data_disk_attachment.diskattachment (expand) -->
<g id="edge_30" class="edge">
<title>[root] provider[&quot;registry.terraform.io/hashicorp/azurerm&quot;] (close)&#45;&gt;[root] azurerm_virtual_machine_data_disk_attachment.diskattachment (expand)</title>
<path fill="none" stroke="black" d="M356.32,-447.88C380.18,-438.22 410.17,-426.09 435.4,-415.88"/>
<polygon fill="black" stroke="black" points="436.86,-419.06 444.82,-412.07 434.23,-412.57 436.86,-419.06"/>
</g>
<!-- [root] root -->
<g id="node_20" class="node">
<title>[root] root</title>
<polygon fill="none" stroke="black" points="347,-556 281,-556 281,-520 347,-520 347,-556"/>
<text text-anchor="middle" x="314" y="-536.1" font-family="courier new" font-size="8.00">[root] root</text>
</g>
<!-- [root] root&#45;&gt;[root] provider[&quot;registry.terraform.io/hashicorp/azurerm&quot;] (close) -->
<g id="edge_31" class="edge">
<title>[root] root&#45;&gt;[root] provider[&quot;registry.terraform.io/hashicorp/azurerm&quot;] (close)</title>
<path fill="none" stroke="black" d="M314,-519.7C314,-511.98 314,-502.71 314,-494.11"/>
<polygon fill="black" stroke="black" points="317.5,-494.1 314,-484.1 310.5,-494.1 317.5,-494.1"/>
</g>
<!-- [root] var.username -->
<g id="node_17" class="node">
<title>[root] var.username</title>
<polygon fill="none" stroke="black" points="722,-106 722,-121 765,-121 765,-106 722,-106"/>
<text text-anchor="start" x="736.5" y="-111.6" font-family="courier new" font-size="8.00">var</text>
<polygon fill="none" stroke="black" points="722,-91 722,-106 765,-106 765,-91 722,-91"/>
<text text-anchor="start" x="725" y="-96.6" font-family="courier new" font-size="8.00">username</text>
</g>
<!-- [root] var.password&#45;&gt;[root] var.username -->
<g id="edge_32" class="edge">
<title>[root] var.password&#45;&gt;[root] var.username</title>
<path fill="none" stroke="black" stroke-dasharray="5,2" d="M743,-159.7C743,-148.85 743,-134.92 743,-124.1"/>
</g>
<!-- [root] var.vmsize -->
<g id="node_18" class="node">
<title>[root] var.vmsize</title>
<polygon fill="none" stroke="black" points="726,-34 726,-49 760,-49 760,-34 726,-34"/>
<text text-anchor="start" x="736" y="-39.6" font-family="courier new" font-size="8.00">var</text>
<polygon fill="none" stroke="black" points="726,-19 726,-34 760,-34 760,-19 726,-19"/>
<text text-anchor="start" x="729" y="-24.6" font-family="courier new" font-size="8.00">vmsize</text>
</g>
<!-- [root] var.username&#45;&gt;[root] var.vmsize -->
<g id="edge_33" class="edge">
<title>[root] var.username&#45;&gt;[root] var.vmsize</title>
<path fill="none" stroke="black" stroke-dasharray="5,2" d="M743,-87.7C743,-76.85 743,-62.92 743,-52.1"/>
</g>
</g>
</svg>

