<?xml version="1.0" encoding="UTF-8" standalone="no"?>
<!DOCTYPE svg PUBLIC "-//W3C//DTD SVG 1.1//EN"
 "http://www.w3.org/Graphics/SVG/1.1/DTD/svg11.dtd">
<!-- Generated by graphviz version 2.43.0 (0)
 -->
<!-- Title: %3 Pages: 1 -->
<svg width="800pt" height="564pt"
 viewBox="0.00 0.00 800.00 564.00" xmlns="http://www.w3.org/2000/svg" xmlns:xlink="http://www.w3.org/1999/xlink">
<g id="graph0" class="graph" transform="scale(1 1) rotate(0) translate(4 560)">
<title>%3</title>
<polygon fill="white" stroke="transparent" points="-4,4 -4,-560 796,-560 796,4 -4,4"/>
<g id="clust2" class="cluster">
<title>cluster[root] azurerm_linux_virtual_machine.fortivm (expand)_var_</title>
</g>
<g id="clust3" class="cluster">
<title>cluster[root] azurerm_network_security_group.fortinsg (expand)_var_</title>
</g>
<g id="clust4" class="cluster">
<title>cluster[root] azurerm_network_interface.externalnic (expand)_var_</title>
</g>
<g id="clust5" class="cluster">
<title>cluster[root] azurerm_network_interface.internalnic (expand)_var_</title>
</g>
<!-- [root] azurerm_linux_virtual_machine.fortivm (expand) -->
<g id="node_0" class="node">
<title>[root] azurerm_linux_virtual_machine.fortivm (expand)</title>
<polygon fill="none" stroke="black" points="204,-250 204,-265 341,-265 341,-250 204,-250"/>
<text text-anchor="start" x="207" y="-255.6" font-family="courier new" font-size="8.00">azurerm_linux_virtual_machine</text>
<polygon fill="none" stroke="black" points="204,-235 204,-250 341,-250 341,-235 204,-235"/>
<text text-anchor="start" x="256.5" y="-240.6" font-family="courier new" font-size="8.00">fortivm</text>
</g>
<!-- [root] azurerm_network_interface.externalnic (expand) -->
<g id="node_2" class="node">
<title>[root] azurerm_network_interface.externalnic (expand)</title>
<polygon fill="none" stroke="black" points="350,-178 350,-193 469,-193 469,-178 350,-178"/>
<text text-anchor="start" x="353" y="-183.6" font-family="courier new" font-size="8.00">azurerm_network_interface</text>
<polygon fill="none" stroke="black" points="350,-163 350,-178 469,-178 469,-163 350,-163"/>
<text text-anchor="start" x="384.5" y="-168.6" font-family="courier new" font-size="8.00">externalnic</text>
</g>
<!-- [root] azurerm_linux_virtual_machine.fortivm (expand)&#45;&gt;[root] azurerm_network_interface.externalnic (expand) -->
<g id="edge_0" class="edge">
<title>[root] azurerm_linux_virtual_machine.fortivm (expand)&#45;&gt;[root] azurerm_network_interface.externalnic (expand)</title>
<path fill="none" stroke="black" d="M305.51,-231.88C323.84,-222.51 346.74,-210.81 366.33,-200.8"/>
<polygon fill="black" stroke="black" points="368.04,-203.86 375.36,-196.19 364.86,-197.62 368.04,-203.86"/>
</g>
<!-- [root] azurerm_network_interface.internalnic (expand) -->
<g id="node_3" class="node">
<title>[root] azurerm_network_interface.internalnic (expand)</title>
<polygon fill="none" stroke="black" points="213,-178 213,-193 332,-193 332,-178 213,-178"/>
<text text-anchor="start" x="216" y="-183.6" font-family="courier new" font-size="8.00">azurerm_network_interface</text>
<polygon fill="none" stroke="black" points="213,-163 213,-178 332,-178 332,-163 213,-163"/>
<text text-anchor="start" x="247.5" y="-168.6" font-family="courier new" font-size="8.00">internalnic</text>
</g>
<!-- [root] azurerm_linux_virtual_machine.fortivm (expand)&#45;&gt;[root] azurerm_network_interface.internalnic (expand) -->
<g id="edge_1" class="edge">
<title>[root] azurerm_linux_virtual_machine.fortivm (expand)&#45;&gt;[root] azurerm_network_interface.internalnic (expand)</title>
<path fill="none" stroke="black" d="M272,-231.7C272,-223.98 272,-214.71 272,-206.11"/>
<polygon fill="black" stroke="black" points="275.5,-206.1 272,-196.1 268.5,-206.1 275.5,-206.1"/>
</g>
<!-- [root] var.password -->
<g id="node_9" class="node">
<title>[root] var.password</title>
<polygon fill="none" stroke="black" points="22,-178 22,-193 65,-193 65,-178 22,-178"/>
<text text-anchor="start" x="36.5" y="-183.6" font-family="courier new" font-size="8.00">var</text>
<polygon fill="none" stroke="black" points="22,-163 22,-178 65,-178 65,-163 22,-163"/>
<text text-anchor="start" x="25" y="-168.6" font-family="courier new" font-size="8.00">password</text>
</g>
<!-- [root] azurerm_linux_virtual_machine.fortivm (expand)&#45;&gt;[root] var.password -->
<g id="edge_2" class="edge">
<title>[root] azurerm_linux_virtual_machine.fortivm (expand)&#45;&gt;[root] var.password</title>
<path fill="none" stroke="black" d="M216.27,-231.97C173.92,-219.02 116.84,-201.57 79.98,-190.3"/>
<polygon fill="black" stroke="black" points="80.73,-186.87 70.15,-187.3 78.69,-193.57 80.73,-186.87"/>
</g>
<!-- [root] azurerm_managed_disk.fortidisk (expand) -->
<g id="node_1" class="node">
<title>[root] azurerm_managed_disk.fortidisk (expand)</title>
<polygon fill="none" stroke="black" points="243,-322 243,-337 340,-337 340,-322 243,-322"/>
<text text-anchor="start" x="246" y="-327.6" font-family="courier new" font-size="8.00">azurerm_managed_disk</text>
<polygon fill="none" stroke="black" points="243,-307 243,-322 340,-322 340,-307 243,-307"/>
<text text-anchor="start" x="271" y="-312.6" font-family="courier new" font-size="8.00">fortidisk</text>
</g>
<!-- [root] azurerm_managed_disk.fortidisk (expand)&#45;&gt;[root] azurerm_linux_virtual_machine.fortivm (expand) -->
<g id="edge_5" class="edge">
<title>[root] azurerm_managed_disk.fortidisk (expand)&#45;&gt;[root] azurerm_linux_virtual_machine.fortivm (expand)</title>
<path fill="none" stroke="black" d="M286.3,-303.7C284.19,-295.9 281.64,-286.51 279.28,-277.83"/>
<polygon fill="black" stroke="black" points="282.64,-276.84 276.64,-268.1 275.88,-278.67 282.64,-276.84"/>
</g>
<!-- [root] provider[&quot;registry.terraform.io/hashicorp/azurerm&quot;] -->
<g id="node_7" class="node">
<title>[root] provider[&quot;registry.terraform.io/hashicorp/azurerm&quot;]</title>
<polygon fill="none" stroke="black" points="254,-106 254,-121 364,-121 364,-106 254,-106"/>
<text text-anchor="start" x="288.5" y="-111.6" font-family="courier new" font-size="8.00">terraform</text>
<polygon fill="none" stroke="black" points="254,-91 254,-106 364,-106 364,-91 254,-91"/>
<text text-anchor="start" x="257" y="-96.6" font-family="courier new" font-size="8.00">io/hashicorp/azurerm\&quot;]</text>
</g>
<!-- [root] azurerm_network_interface.externalnic (expand)&#45;&gt;[root] provider[&quot;registry.terraform.io/hashicorp/azurerm&quot;] -->
<g id="edge_6" class="edge">
<title>[root] azurerm_network_interface.externalnic (expand)&#45;&gt;[root] provider[&quot;registry.terraform.io/hashicorp/azurerm&quot;]</title>
<path fill="none" stroke="black" d="M384.54,-159.88C371.7,-150.89 355.8,-139.76 341.91,-130.03"/>
<polygon fill="black" stroke="black" points="343.76,-127.06 333.56,-124.19 339.74,-132.79 343.76,-127.06"/>
</g>
<!-- [root] var.location -->
<g id="node_8" class="node">
<title>[root] var.location</title>
<polygon fill="none" stroke="black" points="388,-106 388,-121 431,-121 431,-106 388,-106"/>
<text text-anchor="start" x="402.5" y="-111.6" font-family="courier new" font-size="8.00">var</text>
<polygon fill="none" stroke="black" points="388,-91 388,-106 431,-106 431,-91 388,-91"/>
<text text-anchor="start" x="391" y="-96.6" font-family="courier new" font-size="8.00">location</text>
</g>
<!-- [root] azurerm_network_interface.externalnic (expand)&#45;&gt;[root] var.location -->
<g id="edge_7" class="edge">
<title>[root] azurerm_network_interface.externalnic (expand)&#45;&gt;[root] var.location</title>
<path fill="none" stroke="black" d="M409,-159.7C409,-151.98 409,-142.71 409,-134.11"/>
<polygon fill="black" stroke="black" points="412.5,-134.1 409,-124.1 405.5,-134.1 412.5,-134.1"/>
</g>
<!-- [root] var.project -->
<g id="node_10" class="node">
<title>[root] var.project</title>
<polygon fill="none" stroke="black" points="462,-106 462,-121 500,-121 500,-106 462,-106"/>
<text text-anchor="start" x="474" y="-111.6" font-family="courier new" font-size="8.00">var</text>
<polygon fill="none" stroke="black" points="462,-91 462,-106 500,-106 500,-91 462,-91"/>
<text text-anchor="start" x="465" y="-96.6" font-family="courier new" font-size="8.00">project</text>
</g>
<!-- [root] azurerm_network_interface.externalnic (expand)&#45;&gt;[root] var.project -->
<g id="edge_8" class="edge">
<title>[root] azurerm_network_interface.externalnic (expand)&#45;&gt;[root] var.project</title>
<path fill="none" stroke="black" d="M426.8,-159.7C435.6,-151.14 446.38,-140.66 456,-131.3"/>
<polygon fill="black" stroke="black" points="458.68,-133.58 463.41,-124.1 453.8,-128.57 458.68,-133.58"/>
</g>
<!-- [root] var.resourcegroupname -->
<g id="node_11" class="node">
<title>[root] var.resourcegroupname</title>
<polygon fill="none" stroke="black" points="527,-106 527,-121 610,-121 610,-106 527,-106"/>
<text text-anchor="start" x="561.5" y="-111.6" font-family="courier new" font-size="8.00">var</text>
<polygon fill="none" stroke="black" points="527,-91 527,-106 610,-106 610,-91 527,-91"/>
<text text-anchor="start" x="530" y="-96.6" font-family="courier new" font-size="8.00">resourcegroupname</text>
</g>
<!-- [root] azurerm_network_interface.externalnic (expand)&#45;&gt;[root] var.resourcegroupname -->
<g id="edge_9" class="edge">
<title>[root] azurerm_network_interface.externalnic (expand)&#45;&gt;[root] var.resourcegroupname</title>
<path fill="none" stroke="black" d="M451.57,-159.96C471.56,-151.78 495.63,-141.68 517,-132 519.48,-130.88 522.02,-129.7 524.58,-128.5"/>
<polygon fill="black" stroke="black" points="526.32,-131.55 533.84,-124.1 523.31,-125.23 526.32,-131.55"/>
</g>
<!-- [root] var.tags -->
<g id="node_15" class="node">
<title>[root] var.tags</title>
<polygon fill="none" stroke="black" points="197,-106 197,-121 222,-121 222,-106 197,-106"/>
<text text-anchor="start" x="202.5" y="-111.6" font-family="courier new" font-size="8.00">var</text>
<polygon fill="none" stroke="black" points="197,-91 197,-106 222,-106 222,-91 197,-91"/>
<text text-anchor="start" x="200" y="-96.6" font-family="courier new" font-size="8.00">tags</text>
</g>
<!-- [root] azurerm_network_interface.externalnic (expand)&#45;&gt;[root] var.tags -->
<g id="edge_11" class="edge">
<title>[root] azurerm_network_interface.externalnic (expand)&#45;&gt;[root] var.tags</title>
<path fill="none" stroke="black" d="M349.15,-161.63C306.38,-150.46 254.73,-136.55 245,-132 243.24,-131.18 241.48,-130.27 239.72,-129.31"/>
<polygon fill="black" stroke="black" points="241.51,-126.3 231.15,-124.1 237.88,-132.28 241.51,-126.3"/>
</g>
<!-- [root] var.subnetexternal -->
<g id="node_13" class="node">
<title>[root] var.subnetexternal</title>
<polygon fill="none" stroke="black" points="628,-106 628,-121 698,-121 698,-106 628,-106"/>
<text text-anchor="start" x="656" y="-111.6" font-family="courier new" font-size="8.00">var</text>
<polygon fill="none" stroke="black" points="628,-91 628,-106 698,-106 698,-91 628,-91"/>
<text text-anchor="start" x="631" y="-96.6" font-family="courier new" font-size="8.00">subnetexternal</text>
</g>
<!-- [root] azurerm_network_interface.externalnic (expand)&#45;&gt;[root] var.subnetexternal -->
<g id="edge_10" class="edge">
<title>[root] azurerm_network_interface.externalnic (expand)&#45;&gt;[root] var.subnetexternal</title>
<path fill="none" stroke="black" d="M468.8,-162.09C471.91,-161.37 474.99,-160.67 478,-160 540.37,-146.13 559.12,-154.29 619,-132 621.7,-130.99 624.43,-129.84 627.14,-128.58"/>
<polygon fill="black" stroke="black" points="628.84,-131.64 636.2,-124.02 625.69,-125.39 628.84,-131.64"/>
</g>
<!-- [root] azurerm_network_interface.internalnic (expand)&#45;&gt;[root] provider[&quot;registry.terraform.io/hashicorp/azurerm&quot;] -->
<g id="edge_12" class="edge">
<title>[root] azurerm_network_interface.internalnic (expand)&#45;&gt;[root] provider[&quot;registry.terraform.io/hashicorp/azurerm&quot;]</title>
<path fill="none" stroke="black" d="M281.15,-159.7C285.4,-151.64 290.56,-141.89 295.27,-132.98"/>
<polygon fill="black" stroke="black" points="298.38,-134.58 299.96,-124.1 292.19,-131.31 298.38,-134.58"/>
</g>
<!-- [root] azurerm_network_interface.internalnic (expand)&#45;&gt;[root] var.location -->
<g id="edge_13" class="edge">
<title>[root] azurerm_network_interface.internalnic (expand)&#45;&gt;[root] var.location</title>
<path fill="none" stroke="black" d="M315.13,-159.9C333.37,-152.13 354.6,-142.36 373,-132 374.33,-131.25 375.66,-130.47 377.01,-129.66"/>
<polygon fill="black" stroke="black" points="379.24,-132.39 385.78,-124.06 375.47,-126.49 379.24,-132.39"/>
</g>
<!-- [root] azurerm_network_interface.internalnic (expand)&#45;&gt;[root] var.project -->
<g id="edge_14" class="edge">
<title>[root] azurerm_network_interface.internalnic (expand)&#45;&gt;[root] var.project</title>
<path fill="none" stroke="black" d="M331.8,-161.97C379.66,-149.86 439.64,-134.46 445,-132 446.76,-131.19 448.53,-130.29 450.29,-129.33"/>
<polygon fill="black" stroke="black" points="452.13,-132.31 458.88,-124.15 448.51,-126.32 452.13,-132.31"/>
</g>
<!-- [root] azurerm_network_interface.internalnic (expand)&#45;&gt;[root] var.resourcegroupname -->
<g id="edge_15" class="edge">
<title>[root] azurerm_network_interface.internalnic (expand)&#45;&gt;[root] var.resourcegroupname</title>
<path fill="none" stroke="black" d="M331.77,-161.95C334.89,-161.27 337.98,-160.61 341,-160 418.63,-144.29 441.49,-155.92 517,-132 520.5,-130.89 524.05,-129.58 527.58,-128.14"/>
<polygon fill="black" stroke="black" points="529.02,-131.33 536.78,-124.11 526.21,-124.92 529.02,-131.33"/>
</g>
<!-- [root] azurerm_network_interface.internalnic (expand)&#45;&gt;[root] var.tags -->
<g id="edge_17" class="edge">
<title>[root] azurerm_network_interface.internalnic (expand)&#45;&gt;[root] var.tags</title>
<path fill="none" stroke="black" d="M256.43,-159.7C248.8,-151.22 239.48,-140.86 231.12,-131.58"/>
<polygon fill="black" stroke="black" points="233.69,-129.2 224.39,-124.1 228.48,-133.88 233.69,-129.2"/>
</g>
<!-- [root] var.subnetinternal -->
<g id="node_14" class="node">
<title>[root] var.subnetinternal</title>
<polygon fill="none" stroke="black" points="94,-106 94,-121 164,-121 164,-106 94,-106"/>
<text text-anchor="start" x="122" y="-111.6" font-family="courier new" font-size="8.00">var</text>
<polygon fill="none" stroke="black" points="94,-91 94,-106 164,-106 164,-91 94,-91"/>
<text text-anchor="start" x="97" y="-96.6" font-family="courier new" font-size="8.00">subnetinternal</text>
</g>
<!-- [root] azurerm_network_interface.internalnic (expand)&#45;&gt;[root] var.subnetinternal -->
<g id="edge_16" class="edge">
<title>[root] azurerm_network_interface.internalnic (expand)&#45;&gt;[root] var.subnetinternal</title>
<path fill="none" stroke="black" d="M232.11,-159.85C213.9,-151.77 192.17,-141.78 173,-132 171.03,-130.99 169.02,-129.94 167,-128.87"/>
<polygon fill="black" stroke="black" points="168.6,-125.76 158.15,-124.05 165.25,-131.9 168.6,-125.76"/>
</g>
<!-- [root] azurerm_network_interface_security_group_association.externalnic_fortinsg_ass (expand) -->
<g id="node_4" class="node">
<title>[root] azurerm_network_interface_security_group_association.externalnic_fortinsg_ass (expand)</title>
<polygon fill="none" stroke="black" points="359,-250 359,-265 600,-265 600,-250 359,-250"/>
<text text-anchor="start" x="362" y="-255.6" font-family="courier new" font-size="8.00">azurerm_network_interface_security_group_association</text>
<polygon fill="none" stroke="black" points="359,-235 359,-250 600,-250 600,-235 359,-235"/>
<text text-anchor="start" x="425" y="-240.6" font-family="courier new" font-size="8.00">externalnic_fortinsg_ass</text>
</g>
<!-- [root] azurerm_network_interface_security_group_association.externalnic_fortinsg_ass (expand)&#45;&gt;[root] azurerm_network_interface.externalnic (expand) -->
<g id="edge_18" class="edge">
<title>[root] azurerm_network_interface_security_group_association.externalnic_fortinsg_ass (expand)&#45;&gt;[root] azurerm_network_interface.externalnic (expand)</title>
<path fill="none" stroke="black" d="M461.7,-231.7C453.14,-223.14 442.66,-212.66 433.3,-203.3"/>
<polygon fill="black" stroke="black" points="435.65,-200.7 426.1,-196.1 430.7,-205.65 435.65,-200.7"/>
</g>
<!-- [root] azurerm_network_security_group.fortinsg (expand) -->
<g id="node_5" class="node">
<title>[root] azurerm_network_security_group.fortinsg (expand)</title>
<polygon fill="none" stroke="black" points="487,-178 487,-193 629,-193 629,-178 487,-178"/>
<text text-anchor="start" x="490" y="-183.6" font-family="courier new" font-size="8.00">azurerm_network_security_group</text>
<polygon fill="none" stroke="black" points="487,-163 487,-178 629,-178 629,-163 487,-163"/>
<text text-anchor="start" x="539.5" y="-168.6" font-family="courier new" font-size="8.00">fortinsg</text>
</g>
<!-- [root] azurerm_network_interface_security_group_association.externalnic_fortinsg_ass (expand)&#45;&gt;[root] azurerm_network_security_group.fortinsg (expand) -->
<g id="edge_19" class="edge">
<title>[root] azurerm_network_interface_security_group_association.externalnic_fortinsg_ass (expand)&#45;&gt;[root] azurerm_network_security_group.fortinsg (expand)</title>
<path fill="none" stroke="black" d="M498.53,-231.7C508.38,-222.97 520.49,-212.24 531.2,-202.75"/>
<polygon fill="black" stroke="black" points="533.53,-205.36 538.7,-196.1 528.89,-200.12 533.53,-205.36"/>
</g>
<!-- [root] azurerm_network_security_group.fortinsg (expand)&#45;&gt;[root] provider[&quot;registry.terraform.io/hashicorp/azurerm&quot;] -->
<g id="edge_20" class="edge">
<title>[root] azurerm_network_security_group.fortinsg (expand)&#45;&gt;[root] provider[&quot;registry.terraform.io/hashicorp/azurerm&quot;]</title>
<path fill="none" stroke="black" d="M486.67,-162C452.05,-154.12 410.04,-143.68 373,-132 368.72,-130.65 364.33,-129.16 359.93,-127.6"/>
<polygon fill="black" stroke="black" points="360.96,-124.25 350.37,-124.09 358.55,-130.82 360.96,-124.25"/>
</g>
<!-- [root] azurerm_network_security_group.fortinsg (expand)&#45;&gt;[root] var.location -->
<g id="edge_21" class="edge">
<title>[root] azurerm_network_security_group.fortinsg (expand)&#45;&gt;[root] var.location</title>
<path fill="none" stroke="black" d="M508.23,-159.99C488.13,-152.4 465,-142.74 445,-132 443.66,-131.28 442.31,-130.52 440.96,-129.73"/>
<polygon fill="black" stroke="black" points="442.47,-126.55 432.14,-124.2 438.75,-132.48 442.47,-126.55"/>
</g>
<!-- [root] azurerm_network_security_group.fortinsg (expand)&#45;&gt;[root] var.project -->
<g id="edge_22" class="edge">
<title>[root] azurerm_network_security_group.fortinsg (expand)&#45;&gt;[root] var.project</title>
<path fill="none" stroke="black" d="M538.97,-159.7C529.46,-151.05 517.79,-140.45 507.43,-131.03"/>
<polygon fill="black" stroke="black" points="509.57,-128.24 499.81,-124.1 504.86,-133.42 509.57,-128.24"/>
</g>
<!-- [root] azurerm_network_security_group.fortinsg (expand)&#45;&gt;[root] var.resourcegroupname -->
<g id="edge_23" class="edge">
<title>[root] azurerm_network_security_group.fortinsg (expand)&#45;&gt;[root] var.resourcegroupname</title>
<path fill="none" stroke="black" d="M560.47,-159.7C561.57,-151.98 562.9,-142.71 564.13,-134.11"/>
<polygon fill="black" stroke="black" points="567.61,-134.5 565.56,-124.1 560.68,-133.51 567.61,-134.5"/>
</g>
<!-- [root] azurerm_network_security_group.fortinsg (expand)&#45;&gt;[root] var.tags -->
<g id="edge_25" class="edge">
<title>[root] azurerm_network_security_group.fortinsg (expand)&#45;&gt;[root] var.tags</title>
<path fill="none" stroke="black" d="M486.96,-161.56C483.94,-161.01 480.94,-160.49 478,-160 375.11,-142.92 342.49,-169.06 245,-132 242.92,-131.21 240.84,-130.27 238.8,-129.23"/>
<polygon fill="black" stroke="black" points="240.52,-126.19 230.12,-124.16 236.99,-132.23 240.52,-126.19"/>
</g>
<!-- [root] var.source_ip -->
<g id="node_12" class="node">
<title>[root] var.source_ip</title>
<polygon fill="none" stroke="black" points="726,-106 726,-121 773,-121 773,-106 726,-106"/>
<text text-anchor="start" x="742.5" y="-111.6" font-family="courier new" font-size="8.00">var</text>
<polygon fill="none" stroke="black" points="726,-91 726,-106 773,-106 773,-91 726,-91"/>
<text text-anchor="start" x="729" y="-96.6" font-family="courier new" font-size="8.00">source_ip</text>
</g>
<!-- [root] azurerm_network_security_group.fortinsg (expand)&#45;&gt;[root] var.source_ip -->
<g id="edge_24" class="edge">
<title>[root] azurerm_network_security_group.fortinsg (expand)&#45;&gt;[root] var.source_ip</title>
<path fill="none" stroke="black" d="M629.12,-160.41C655.16,-153.19 684.47,-143.68 710,-132 711.81,-131.17 713.63,-130.27 715.45,-129.32"/>
<polygon fill="black" stroke="black" points="717.45,-132.21 724.42,-124.22 713.99,-126.12 717.45,-132.21"/>
</g>
<!-- [root] azurerm_virtual_machine_data_disk_attachment.diskattachment (expand) -->
<g id="node_6" class="node">
<title>[root] azurerm_virtual_machine_data_disk_attachment.diskattachment (expand)</title>
<polygon fill="none" stroke="black" points="227,-394 227,-409 432,-409 432,-394 227,-394"/>
<text text-anchor="start" x="230" y="-399.6" font-family="courier new" font-size="8.00">azurerm_virtual_machine_data_disk_attachment</text>
<polygon fill="none" stroke="black" points="227,-379 227,-394 432,-394 432,-379 227,-379"/>
<text text-anchor="start" x="297.5" y="-384.6" font-family="courier new" font-size="8.00">diskattachment</text>
</g>
<!-- [root] azurerm_virtual_machine_data_disk_attachment.diskattachment (expand)&#45;&gt;[root] azurerm_managed_disk.fortidisk (expand) -->
<g id="edge_26" class="edge">
<title>[root] azurerm_virtual_machine_data_disk_attachment.diskattachment (expand)&#45;&gt;[root] azurerm_managed_disk.fortidisk (expand)</title>
<path fill="none" stroke="black" d="M319.61,-375.7C315.24,-367.64 309.94,-357.89 305.1,-348.98"/>
<polygon fill="black" stroke="black" points="308.13,-347.22 300.29,-340.1 301.98,-350.56 308.13,-347.22"/>
</g>
<!-- [root] provider[&quot;registry.terraform.io/hashicorp/azurerm&quot;] (close) -->
<g id="node_18" class="node">
<title>[root] provider[&quot;registry.terraform.io/hashicorp/azurerm&quot;] (close)</title>
<polygon fill="none" stroke="black" points="339,-466 339,-481 449,-481 449,-466 339,-466"/>
<text text-anchor="start" x="373.5" y="-471.6" font-family="courier new" font-size="8.00">terraform</text>
<polygon fill="none" stroke="black" points="339,-451 339,-466 449,-466 449,-451 339,-451"/>
<text text-anchor="start" x="342" y="-456.6" font-family="courier new" font-size="8.00">io/hashicorp/azurerm\&quot;]</text>
</g>
<!-- [root] provider[&quot;registry.terraform.io/hashicorp/azurerm&quot;] (close)&#45;&gt;[root] azurerm_network_interface_security_group_association.externalnic_fortinsg_ass (expand) -->
<g id="edge_27" class="edge">
<title>[root] provider[&quot;registry.terraform.io/hashicorp/azurerm&quot;] (close)&#45;&gt;[root] azurerm_network_interface_security_group_association.externalnic_fortinsg_ass (expand)</title>
<path fill="none" stroke="black" d="M413.47,-447.58C423.09,-437.98 434.09,-425.32 441,-412 463.46,-368.71 472.84,-312.02 476.62,-278.74"/>
<polygon fill="black" stroke="black" points="480.14,-278.72 477.69,-268.41 473.17,-277.99 480.14,-278.72"/>
</g>
<!-- [root] provider[&quot;registry.terraform.io/hashicorp/azurerm&quot;] (close)&#45;&gt;[root] azurerm_virtual_machine_data_disk_attachment.diskattachment (expand) -->
<g id="edge_28" class="edge">
<title>[root] provider[&quot;registry.terraform.io/hashicorp/azurerm&quot;] (close)&#45;&gt;[root] azurerm_virtual_machine_data_disk_attachment.diskattachment (expand)</title>
<path fill="none" stroke="black" d="M377.93,-447.7C370.06,-439.22 360.44,-428.86 351.83,-419.58"/>
<polygon fill="black" stroke="black" points="354.25,-417.05 344.88,-412.1 349.12,-421.81 354.25,-417.05"/>
</g>
<!-- [root] root -->
<g id="node_19" class="node">
<title>[root] root</title>
<polygon fill="none" stroke="black" points="427,-556 361,-556 361,-520 427,-520 427,-556"/>
<text text-anchor="middle" x="394" y="-536.1" font-family="courier new" font-size="8.00">[root] root</text>
</g>
<!-- [root] root&#45;&gt;[root] provider[&quot;registry.terraform.io/hashicorp/azurerm&quot;] (close) -->
<g id="edge_29" class="edge">
<title>[root] root&#45;&gt;[root] provider[&quot;registry.terraform.io/hashicorp/azurerm&quot;] (close)</title>
<path fill="none" stroke="black" d="M394,-519.7C394,-511.98 394,-502.71 394,-494.11"/>
<polygon fill="black" stroke="black" points="397.5,-494.1 394,-484.1 390.5,-494.1 397.5,-494.1"/>
</g>
<!-- [root] var.username -->
<g id="node_16" class="node">
<title>[root] var.username</title>
<polygon fill="none" stroke="black" points="22,-106 22,-121 65,-121 65,-106 22,-106"/>
<text text-anchor="start" x="36.5" y="-111.6" font-family="courier new" font-size="8.00">var</text>
<polygon fill="none" stroke="black" points="22,-91 22,-106 65,-106 65,-91 22,-91"/>
<text text-anchor="start" x="25" y="-96.6" font-family="courier new" font-size="8.00">username</text>
</g>
<!-- [root] var.password&#45;&gt;[root] var.username -->
<g id="edge_30" class="edge">
<title>[root] var.password&#45;&gt;[root] var.username</title>
<path fill="none" stroke="black" stroke-dasharray="5,2" d="M43,-159.7C43,-148.85 43,-134.92 43,-124.1"/>
</g>
<!-- [root] var.vmsize -->
<g id="node_17" class="node">
<title>[root] var.vmsize</title>
<polygon fill="none" stroke="black" points="26,-34 26,-49 60,-49 60,-34 26,-34"/>
<text text-anchor="start" x="36" y="-39.6" font-family="courier new" font-size="8.00">var</text>
<polygon fill="none" stroke="black" points="26,-19 26,-34 60,-34 60,-19 26,-19"/>
<text text-anchor="start" x="29" y="-24.6" font-family="courier new" font-size="8.00">vmsize</text>
</g>
<!-- [root] var.username&#45;&gt;[root] var.vmsize -->
<g id="edge_31" class="edge">
<title>[root] var.username&#45;&gt;[root] var.vmsize</title>
<path fill="none" stroke="black" stroke-dasharray="5,2" d="M43,-87.7C43,-76.85 43,-62.92 43,-52.1"/>
</g>
</g>
</svg>

