<?xml version="1.0" encoding="UTF-8" standalone="no"?>
<!DOCTYPE svg PUBLIC "-//W3C//DTD SVG 1.1//EN"
 "http://www.w3.org/Graphics/SVG/1.1/DTD/svg11.dtd">
<!-- Generated by graphviz version 2.49.3 (20211023.0002)
 -->
<!-- Title: G Pages: 1 -->
<svg width="1050pt" height="332pt"
 viewBox="0.00 0.00 1050.02 332.00" xmlns="http://www.w3.org/2000/svg" xmlns:xlink="http://www.w3.org/1999/xlink">
<g id="graph0" class="graph" transform="scale(1 1) rotate(0) translate(4 328)">
<title>G</title>
<polygon fill="white" stroke="transparent" points="-4,4 -4,-328 1046.02,-328 1046.02,4 -4,4"/>
<!-- azurerm_public_ip.public_ip -->
<g id="node1" class="node">
<title>azurerm_public_ip.public_ip</title>
<ellipse fill="none" stroke="black" cx="304.73" cy="-162" rx="115.08" ry="18"/>
<text text-anchor="middle" x="304.73" y="-158.3" font-family="Times New Roman,serif" font-size="14.00">azurerm_public_ip.public_ip</text>
</g>
<!-- azurerm_resource_group.rg -->
<g id="node2" class="node">
<title>azurerm_resource_group.rg</title>
<ellipse fill="none" stroke="black" cx="485.73" cy="-18" rx="111.58" ry="18"/>
<text text-anchor="middle" x="485.73" y="-14.3" font-family="Times New Roman,serif" font-size="14.00">azurerm_resource_group.rg</text>
</g>
<!-- azurerm_public_ip.public_ip&#45;&gt;azurerm_resource_group.rg -->
<g id="edge1" class="edge">
<title>azurerm_public_ip.public_ip&#45;&gt;azurerm_resource_group.rg</title>
<path fill="none" stroke="black" d="M326.2,-144.15C358.45,-118.85 419.49,-70.96 456,-42.32"/>
<polygon fill="black" stroke="black" points="458.57,-44.75 464.28,-35.82 454.25,-39.24 458.57,-44.75"/>
</g>
<!-- azurerm_virtual_network.vnet -->
<g id="node3" class="node">
<title>azurerm_virtual_network.vnet</title>
<ellipse fill="none" stroke="black" cx="631.73" cy="-90" rx="118.08" ry="18"/>
<text text-anchor="middle" x="631.73" y="-86.3" font-family="Times New Roman,serif" font-size="14.00">azurerm_virtual_network.vnet</text>
</g>
<!-- azurerm_virtual_network.vnet&#45;&gt;azurerm_resource_group.rg -->
<g id="edge2" class="edge">
<title>azurerm_virtual_network.vnet&#45;&gt;azurerm_resource_group.rg</title>
<path fill="none" stroke="black" d="M597.5,-72.59C576.92,-62.72 550.56,-50.08 528.6,-39.56"/>
<polygon fill="black" stroke="black" points="530.02,-36.36 519.49,-35.19 527,-42.67 530.02,-36.36"/>
</g>
<!-- azurerm_subnet.subnet -->
<g id="node4" class="node">
<title>azurerm_subnet.subnet</title>
<ellipse fill="none" stroke="black" cx="570.73" cy="-162" rx="94.78" ry="18"/>
<text text-anchor="middle" x="570.73" y="-158.3" font-family="Times New Roman,serif" font-size="14.00">azurerm_subnet.subnet</text>
</g>
<!-- azurerm_subnet.subnet&#45;&gt;azurerm_resource_group.rg -->
<g id="edge3" class="edge">
<title>azurerm_subnet.subnet&#45;&gt;azurerm_resource_group.rg</title>
<path fill="none" stroke="black" d="M542.47,-144.73C529.06,-135.6 513.98,-123.01 504.73,-108 493.29,-89.45 488.67,-65.05 486.83,-46.49"/>
<polygon fill="black" stroke="black" points="490.3,-46.03 486.04,-36.33 483.32,-46.57 490.3,-46.03"/>
</g>
<!-- azurerm_subnet.subnet&#45;&gt;azurerm_virtual_network.vnet -->
<g id="edge4" class="edge">
<title>azurerm_subnet.subnet&#45;&gt;azurerm_virtual_network.vnet</title>
<path fill="none" stroke="black" d="M585.49,-144.05C592.88,-135.58 601.95,-125.17 610.1,-115.82"/>
<polygon fill="black" stroke="black" points="612.74,-118.11 616.67,-108.28 607.46,-113.51 612.74,-118.11"/>
</g>
<!-- azurerm_network_security_group.sg -->
<g id="node5" class="node">
<title>azurerm_network_security_group.sg</title>
<ellipse fill="none" stroke="black" cx="180.73" cy="-90" rx="143.77" ry="18"/>
<text text-anchor="middle" x="180.73" y="-86.3" font-family="Times New Roman,serif" font-size="14.00">azurerm_network_security_group.sg</text>
</g>
<!-- azurerm_network_security_group.sg&#45;&gt;azurerm_resource_group.rg -->
<g id="edge5" class="edge">
<title>azurerm_network_security_group.sg&#45;&gt;azurerm_resource_group.rg</title>
<path fill="none" stroke="black" d="M246.53,-73.9C296.03,-62.54 363.78,-46.99 414.54,-35.34"/>
<polygon fill="black" stroke="black" points="415.49,-38.71 424.45,-33.06 413.92,-31.89 415.49,-38.71"/>
</g>
<!-- azurerm_network_interface_security_group_association.nic_sg_ass -->
<g id="node6" class="node">
<title>azurerm_network_interface_security_group_association.nic_sg_ass</title>
<ellipse fill="none" stroke="black" cx="256.73" cy="-306" rx="256.95" ry="18"/>
<text text-anchor="middle" x="256.73" y="-302.3" font-family="Times New Roman,serif" font-size="14.00">azurerm_network_interface_security_group_association.nic_sg_ass</text>
</g>
<!-- azurerm_network_interface_security_group_association.nic_sg_ass&#45;&gt;azurerm_network_security_group.sg -->
<g id="edge7" class="edge">
<title>azurerm_network_interface_security_group_association.nic_sg_ass&#45;&gt;azurerm_network_security_group.sg</title>
<path fill="none" stroke="black" d="M242,-287.84C223.47,-265.01 192.65,-222.55 180.73,-180 175.07,-159.82 175.41,-136.04 176.98,-118.15"/>
<polygon fill="black" stroke="black" points="180.47,-118.41 178.04,-108.1 173.51,-117.68 180.47,-118.41"/>
</g>
<!-- azurerm_network_interface.nic -->
<g id="node7" class="node">
<title>azurerm_network_interface.nic</title>
<ellipse fill="none" stroke="black" cx="447.73" cy="-234" rx="122.38" ry="18"/>
<text text-anchor="middle" x="447.73" y="-230.3" font-family="Times New Roman,serif" font-size="14.00">azurerm_network_interface.nic</text>
</g>
<!-- azurerm_network_interface_security_group_association.nic_sg_ass&#45;&gt;azurerm_network_interface.nic -->
<g id="edge6" class="edge">
<title>azurerm_network_interface_security_group_association.nic_sg_ass&#45;&gt;azurerm_network_interface.nic</title>
<path fill="none" stroke="black" d="M302.48,-288.23C330.24,-278.06 365.79,-265.03 394.76,-254.41"/>
<polygon fill="black" stroke="black" points="396.13,-257.64 404.32,-250.91 393.73,-251.06 396.13,-257.64"/>
</g>
<!-- azurerm_network_interface.nic&#45;&gt;azurerm_public_ip.public_ip -->
<g id="edge9" class="edge">
<title>azurerm_network_interface.nic&#45;&gt;azurerm_public_ip.public_ip</title>
<path fill="none" stroke="black" d="M414.2,-216.59C394.21,-206.8 368.64,-194.29 347.24,-183.81"/>
<polygon fill="black" stroke="black" points="348.56,-180.56 338.04,-179.31 345.49,-186.85 348.56,-180.56"/>
</g>
<!-- azurerm_network_interface.nic&#45;&gt;azurerm_resource_group.rg -->
<g id="edge10" class="edge">
<title>azurerm_network_interface.nic&#45;&gt;azurerm_resource_group.rg</title>
<path fill="none" stroke="black" d="M450.77,-215.85C457.36,-178.75 472.98,-90.81 480.91,-46.1"/>
<polygon fill="black" stroke="black" points="484.36,-46.69 482.67,-36.23 477.47,-45.47 484.36,-46.69"/>
</g>
<!-- azurerm_network_interface.nic&#45;&gt;azurerm_subnet.subnet -->
<g id="edge8" class="edge">
<title>azurerm_network_interface.nic&#45;&gt;azurerm_subnet.subnet</title>
<path fill="none" stroke="black" d="M476.88,-216.41C493.69,-206.84 515.02,-194.7 533.1,-184.42"/>
<polygon fill="black" stroke="black" points="535.25,-187.22 542.21,-179.23 531.79,-181.13 535.25,-187.22"/>
</g>
<!-- azurerm_windows_virtual_machine.vm -->
<g id="node8" class="node">
<title>azurerm_windows_virtual_machine.vm</title>
<ellipse fill="none" stroke="black" cx="777.73" cy="-306" rx="152.17" ry="18"/>
<text text-anchor="middle" x="777.73" y="-302.3" font-family="Times New Roman,serif" font-size="14.00">azurerm_windows_virtual_machine.vm</text>
</g>
<!-- azurerm_windows_virtual_machine.vm&#45;&gt;azurerm_resource_group.rg -->
<g id="edge11" class="edge">
<title>azurerm_windows_virtual_machine.vm&#45;&gt;azurerm_resource_group.rg</title>
<path fill="none" stroke="black" d="M782.53,-287.7C793.23,-245.02 813.95,-133.69 758.73,-72 736.98,-47.71 662.19,-34.3 596.38,-27.04"/>
<polygon fill="black" stroke="black" points="596.63,-23.55 586.32,-25.98 595.89,-30.51 596.63,-23.55"/>
</g>
<!-- azurerm_windows_virtual_machine.vm&#45;&gt;azurerm_network_interface.nic -->
<g id="edge12" class="edge">
<title>azurerm_windows_virtual_machine.vm&#45;&gt;azurerm_network_interface.nic</title>
<path fill="none" stroke="black" d="M706.93,-289.98C653.27,-278.6 579.61,-262.98 524.53,-251.29"/>
<polygon fill="black" stroke="black" points="524.97,-247.81 514.47,-249.16 523.52,-254.66 524.97,-247.81"/>
</g>
<!-- azurerm_availability_set.avset -->
<g id="node9" class="node">
<title>azurerm_availability_set.avset</title>
<ellipse fill="none" stroke="black" cx="923.73" cy="-234" rx="118.08" ry="18"/>
<text text-anchor="middle" x="923.73" y="-230.3" font-family="Times New Roman,serif" font-size="14.00">azurerm_availability_set.avset</text>
</g>
<!-- azurerm_windows_virtual_machine.vm&#45;&gt;azurerm_availability_set.avset -->
<g id="edge13" class="edge">
<title>azurerm_windows_virtual_machine.vm&#45;&gt;azurerm_availability_set.avset</title>
<path fill="none" stroke="black" d="M812.33,-288.41C832.77,-278.61 858.82,-266.12 880.59,-255.68"/>
<polygon fill="black" stroke="black" points="882.12,-258.83 889.63,-251.35 879.1,-252.52 882.12,-258.83"/>
</g>
<!-- azurerm_availability_set.avset&#45;&gt;azurerm_resource_group.rg -->
<g id="edge14" class="edge">
<title>azurerm_availability_set.avset&#45;&gt;azurerm_resource_group.rg</title>
<path fill="none" stroke="black" d="M915.19,-215.98C897.33,-182.33 852.62,-107.5 791.73,-72 757.9,-52.28 663.98,-37.88 589.02,-29.11"/>
<polygon fill="black" stroke="black" points="589.38,-25.63 579.05,-27.96 588.58,-32.58 589.38,-25.63"/>
</g>
</g>
</svg>
