<?xml version="1.0" encoding="UTF-8" standalone="no"?>
<!DOCTYPE svg PUBLIC "-//W3C//DTD SVG 1.1//EN"
 "http://www.w3.org/Graphics/SVG/1.1/DTD/svg11.dtd">
<!-- Generated by graphviz version 2.49.3 (20211023.0002)
 -->
<!-- Pages: 1 -->
<svg width="843pt" height="548pt"
 viewBox="0.00 0.00 842.59 548.00" xmlns="http://www.w3.org/2000/svg" xmlns:xlink="http://www.w3.org/1999/xlink">
<g id="graph0" class="graph" transform="scale(1 1) rotate(0) translate(4 544)">
<polygon fill="white" stroke="transparent" points="-4,4 -4,-544 838.59,-544 838.59,4 -4,4"/>
<!-- [root] azurerm_availability_set.avset (expand) -->
<g id="node1" class="node">
<title>[root] azurerm_availability_set.avset (expand)</title>
<polygon fill="none" stroke="black" points="834.59,-180 652.59,-180 652.59,-144 834.59,-144 834.59,-180"/>
<text text-anchor="middle" x="743.59" y="-158.3" font-family="Times New Roman,serif" font-size="14.00">azurerm_availability_set.avset</text>
</g>
<!-- [root] azurerm_resource_group.rg (expand) -->
<g id="node6" class="node">
<title>[root] azurerm_resource_group.rg (expand)</title>
<polygon fill="none" stroke="black" points="532.59,-108 360.59,-108 360.59,-72 532.59,-72 532.59,-108"/>
<text text-anchor="middle" x="446.59" y="-86.3" font-family="Times New Roman,serif" font-size="14.00">azurerm_resource_group.rg</text>
</g>
<!-- [root] azurerm_availability_set.avset (expand)&#45;&gt;[root] azurerm_resource_group.rg (expand) -->
<g id="edge1" class="edge">
<title>[root] azurerm_availability_set.avset (expand)&#45;&gt;[root] azurerm_resource_group.rg (expand)</title>
<path fill="none" stroke="black" d="M671.31,-143.97C628.29,-133.83 573.56,-120.93 528.88,-110.4"/>
<polygon fill="black" stroke="black" points="529.46,-106.94 518.93,-108.05 527.86,-113.75 529.46,-106.94"/>
</g>
<!-- [root] azurerm_network_interface.nic (expand) -->
<g id="node2" class="node">
<title>[root] azurerm_network_interface.nic (expand)</title>
<polygon fill="none" stroke="black" points="571.59,-324 383.59,-324 383.59,-288 571.59,-288 571.59,-324"/>
<text text-anchor="middle" x="477.59" y="-302.3" font-family="Times New Roman,serif" font-size="14.00">azurerm_network_interface.nic</text>
</g>
<!-- [root] azurerm_public_ip.public_ip (expand) -->
<g id="node5" class="node">
<title>[root] azurerm_public_ip.public_ip (expand)</title>
<polygon fill="none" stroke="black" points="634.09,-180 457.09,-180 457.09,-144 634.09,-144 634.09,-180"/>
<text text-anchor="middle" x="545.59" y="-158.3" font-family="Times New Roman,serif" font-size="14.00">azurerm_public_ip.public_ip</text>
</g>
<!-- [root] azurerm_network_interface.nic (expand)&#45;&gt;[root] azurerm_public_ip.public_ip (expand) -->
<g id="edge2" class="edge">
<title>[root] azurerm_network_interface.nic (expand)&#45;&gt;[root] azurerm_public_ip.public_ip (expand)</title>
<path fill="none" stroke="black" d="M485.79,-287.87C497.53,-263.35 519.23,-218.03 533.01,-189.26"/>
<polygon fill="black" stroke="black" points="536.19,-190.72 537.35,-180.19 529.88,-187.7 536.19,-190.72"/>
</g>
<!-- [root] azurerm_subnet.subnet (expand) -->
<g id="node7" class="node">
<title>[root] azurerm_subnet.subnet (expand)</title>
<polygon fill="none" stroke="black" points="462.59,-252 316.59,-252 316.59,-216 462.59,-216 462.59,-252"/>
<text text-anchor="middle" x="389.59" y="-230.3" font-family="Times New Roman,serif" font-size="14.00">azurerm_subnet.subnet</text>
</g>
<!-- [root] azurerm_network_interface.nic (expand)&#45;&gt;[root] azurerm_subnet.subnet (expand) -->
<g id="edge3" class="edge">
<title>[root] azurerm_network_interface.nic (expand)&#45;&gt;[root] azurerm_subnet.subnet (expand)</title>
<path fill="none" stroke="black" d="M455.83,-287.7C444.75,-278.88 431.11,-268.03 419.1,-258.47"/>
<polygon fill="black" stroke="black" points="421.09,-255.59 411.09,-252.1 416.74,-261.07 421.09,-255.59"/>
</g>
<!-- [root] azurerm_network_interface_security_group_association.nic_sg_ass (expand) -->
<g id="node3" class="node">
<title>[root] azurerm_network_interface_security_group_association.nic_sg_ass (expand)</title>
<polygon fill="none" stroke="black" points="477.09,-396 82.09,-396 82.09,-360 477.09,-360 477.09,-396"/>
<text text-anchor="middle" x="279.59" y="-374.3" font-family="Times New Roman,serif" font-size="14.00">azurerm_network_interface_security_group_association.nic_sg_ass</text>
</g>
<!-- [root] azurerm_network_interface_security_group_association.nic_sg_ass (expand)&#45;&gt;[root] azurerm_network_interface.nic (expand) -->
<g id="edge4" class="edge">
<title>[root] azurerm_network_interface_security_group_association.nic_sg_ass (expand)&#45;&gt;[root] azurerm_network_interface.nic (expand)</title>
<path fill="none" stroke="black" d="M327.77,-359.97C355.43,-350.19 390.36,-337.84 419.53,-327.52"/>
<polygon fill="black" stroke="black" points="420.92,-330.74 429.19,-324.11 418.59,-324.14 420.92,-330.74"/>
</g>
<!-- [root] azurerm_network_security_group.sg (expand) -->
<g id="node4" class="node">
<title>[root] azurerm_network_security_group.sg (expand)</title>
<polygon fill="none" stroke="black" points="339.09,-324 118.09,-324 118.09,-288 339.09,-288 339.09,-324"/>
<text text-anchor="middle" x="228.59" y="-302.3" font-family="Times New Roman,serif" font-size="14.00">azurerm_network_security_group.sg</text>
</g>
<!-- [root] azurerm_network_interface_security_group_association.nic_sg_ass (expand)&#45;&gt;[root] azurerm_network_security_group.sg (expand) -->
<g id="edge5" class="edge">
<title>[root] azurerm_network_interface_security_group_association.nic_sg_ass (expand)&#45;&gt;[root] azurerm_network_security_group.sg (expand)</title>
<path fill="none" stroke="black" d="M266.98,-359.7C260.99,-351.47 253.71,-341.48 247.11,-332.42"/>
<polygon fill="black" stroke="black" points="249.76,-330.13 241.05,-324.1 244.11,-334.25 249.76,-330.13"/>
</g>
<!-- [root] azurerm_network_security_group.sg (expand)&#45;&gt;[root] azurerm_resource_group.rg (expand) -->
<g id="edge6" class="edge">
<title>[root] azurerm_network_security_group.sg (expand)&#45;&gt;[root] azurerm_resource_group.rg (expand)</title>
<path fill="none" stroke="black" d="M224.92,-287.5C219.2,-254.98 212.2,-184.84 247.59,-144 261.73,-127.67 306.88,-114.95 350.6,-106.06"/>
<polygon fill="black" stroke="black" points="351.34,-109.48 360.48,-104.11 349.99,-102.62 351.34,-109.48"/>
</g>
<!-- [root] var.source_ip -->
<g id="node12" class="node">
<title>[root] var.source_ip</title>
<polygon fill="none" stroke="black" points="194.09,-252 107.09,-252 107.09,-216 200.09,-216 200.09,-246 194.09,-252"/>
<polyline fill="none" stroke="black" points="194.09,-252 194.09,-246 "/>
<polyline fill="none" stroke="black" points="200.09,-246 194.09,-246 "/>
<text text-anchor="middle" x="153.59" y="-230.3" font-family="Times New Roman,serif" font-size="14.00">var.source_ip</text>
</g>
<!-- [root] azurerm_network_security_group.sg (expand)&#45;&gt;[root] var.source_ip -->
<g id="edge7" class="edge">
<title>[root] azurerm_network_security_group.sg (expand)&#45;&gt;[root] var.source_ip</title>
<path fill="none" stroke="black" d="M210.05,-287.7C200.78,-279.05 189.42,-268.45 179.33,-259.03"/>
<polygon fill="black" stroke="black" points="181.61,-256.37 171.91,-252.1 176.83,-261.49 181.61,-256.37"/>
</g>
<!-- [root] azurerm_public_ip.public_ip (expand)&#45;&gt;[root] azurerm_resource_group.rg (expand) -->
<g id="edge8" class="edge">
<title>[root] azurerm_public_ip.public_ip (expand)&#45;&gt;[root] azurerm_resource_group.rg (expand)</title>
<path fill="none" stroke="black" d="M521.37,-143.88C508.66,-134.89 492.92,-123.76 479.16,-114.03"/>
<polygon fill="black" stroke="black" points="481.08,-111.11 470.9,-108.19 477.04,-116.82 481.08,-111.11"/>
</g>
<!-- [root] provider[&quot;registry.terraform.io/hashicorp/azurerm&quot;] -->
<g id="node10" class="node">
<title>[root] provider[&quot;registry.terraform.io/hashicorp/azurerm&quot;]</title>
<polygon fill="none" stroke="black" points="277.59,-36 -0.09,-18 277.59,0 555.26,-18 277.59,-36"/>
<text text-anchor="middle" x="277.59" y="-14.3" font-family="Times New Roman,serif" font-size="14.00">provider[&quot;registry.terraform.io/hashicorp/azurerm&quot;]</text>
</g>
<!-- [root] azurerm_resource_group.rg (expand)&#45;&gt;[root] provider[&quot;registry.terraform.io/hashicorp/azurerm&quot;] -->
<g id="edge9" class="edge">
<title>[root] azurerm_resource_group.rg (expand)&#45;&gt;[root] provider[&quot;registry.terraform.io/hashicorp/azurerm&quot;]</title>
<path fill="none" stroke="black" d="M405.24,-71.88C380.29,-61.54 348.47,-48.36 322.84,-37.74"/>
<polygon fill="black" stroke="black" points="323.93,-34.41 313.35,-33.81 321.25,-40.87 323.93,-34.41"/>
</g>
<!-- [root] var.resource -->
<g id="node11" class="node">
<title>[root] var.resource</title>
<polygon fill="none" stroke="black" points="653.59,-36 573.59,-36 573.59,0 659.59,0 659.59,-30 653.59,-36"/>
<polyline fill="none" stroke="black" points="653.59,-36 653.59,-30 "/>
<polyline fill="none" stroke="black" points="659.59,-30 653.59,-30 "/>
<text text-anchor="middle" x="616.59" y="-14.3" font-family="Times New Roman,serif" font-size="14.00">var.resource</text>
</g>
<!-- [root] azurerm_resource_group.rg (expand)&#45;&gt;[root] var.resource -->
<g id="edge10" class="edge">
<title>[root] azurerm_resource_group.rg (expand)&#45;&gt;[root] var.resource</title>
<path fill="none" stroke="black" d="M488.17,-71.88C511.62,-62.22 541.09,-50.09 565.88,-39.88"/>
<polygon fill="black" stroke="black" points="567.22,-43.11 575.13,-36.07 564.55,-36.64 567.22,-43.11"/>
</g>
<!-- [root] azurerm_virtual_network.vnet (expand) -->
<g id="node8" class="node">
<title>[root] azurerm_virtual_network.vnet (expand)</title>
<polygon fill="none" stroke="black" points="438.59,-180 256.59,-180 256.59,-144 438.59,-144 438.59,-180"/>
<text text-anchor="middle" x="347.59" y="-158.3" font-family="Times New Roman,serif" font-size="14.00">azurerm_virtual_network.vnet</text>
</g>
<!-- [root] azurerm_subnet.subnet (expand)&#45;&gt;[root] azurerm_virtual_network.vnet (expand) -->
<g id="edge11" class="edge">
<title>[root] azurerm_subnet.subnet (expand)&#45;&gt;[root] azurerm_virtual_network.vnet (expand)</title>
<path fill="none" stroke="black" d="M379.2,-215.7C374.32,-207.56 368.4,-197.69 363.01,-188.7"/>
<polygon fill="black" stroke="black" points="365.99,-186.88 357.85,-180.1 359.99,-190.48 365.99,-186.88"/>
</g>
<!-- [root] azurerm_virtual_network.vnet (expand)&#45;&gt;[root] azurerm_resource_group.rg (expand) -->
<g id="edge12" class="edge">
<title>[root] azurerm_virtual_network.vnet (expand)&#45;&gt;[root] azurerm_resource_group.rg (expand)</title>
<path fill="none" stroke="black" d="M371.8,-143.88C384.51,-134.89 400.25,-123.76 414.01,-114.03"/>
<polygon fill="black" stroke="black" points="416.13,-116.82 422.27,-108.19 412.09,-111.11 416.13,-116.82"/>
</g>
<!-- [root] azurerm_windows_virtual_machine.vm (expand) -->
<g id="node9" class="node">
<title>[root] azurerm_windows_virtual_machine.vm (expand)</title>
<polygon fill="none" stroke="black" points="729.59,-396 495.59,-396 495.59,-360 729.59,-360 729.59,-396"/>
<text text-anchor="middle" x="612.59" y="-374.3" font-family="Times New Roman,serif" font-size="14.00">azurerm_windows_virtual_machine.vm</text>
</g>
<!-- [root] azurerm_windows_virtual_machine.vm (expand)&#45;&gt;[root] azurerm_availability_set.avset (expand) -->
<g id="edge13" class="edge">
<title>[root] azurerm_windows_virtual_machine.vm (expand)&#45;&gt;[root] azurerm_availability_set.avset (expand)</title>
<path fill="none" stroke="black" d="M613.63,-359.73C615.35,-341.13 619.84,-311.1 631.59,-288 652.17,-247.52 689.21,-209.99 715.04,-186.83"/>
<polygon fill="black" stroke="black" points="717.47,-189.35 722.66,-180.11 712.84,-184.1 717.47,-189.35"/>
</g>
<!-- [root] azurerm_windows_virtual_machine.vm (expand)&#45;&gt;[root] azurerm_network_interface.nic (expand) -->
<g id="edge14" class="edge">
<title>[root] azurerm_windows_virtual_machine.vm (expand)&#45;&gt;[root] azurerm_network_interface.nic (expand)</title>
<path fill="none" stroke="black" d="M579.56,-359.88C561.5,-350.51 538.94,-338.81 519.63,-328.8"/>
<polygon fill="black" stroke="black" points="521.23,-325.69 510.74,-324.19 518,-331.9 521.23,-325.69"/>
</g>
<!-- [root] var.vm -->
<g id="node13" class="node">
<title>[root] var.vm</title>
<polygon fill="none" stroke="black" points="690.09,-324 641.09,-324 641.09,-288 696.09,-288 696.09,-318 690.09,-324"/>
<polyline fill="none" stroke="black" points="690.09,-324 690.09,-318 "/>
<polyline fill="none" stroke="black" points="696.09,-318 690.09,-318 "/>
<text text-anchor="middle" x="668.59" y="-302.3" font-family="Times New Roman,serif" font-size="14.00">var.vm</text>
</g>
<!-- [root] azurerm_windows_virtual_machine.vm (expand)&#45;&gt;[root] var.vm -->
<g id="edge15" class="edge">
<title>[root] azurerm_windows_virtual_machine.vm (expand)&#45;&gt;[root] var.vm</title>
<path fill="none" stroke="black" d="M626.43,-359.7C633.07,-351.39 641.16,-341.28 648.47,-332.14"/>
<polygon fill="black" stroke="black" points="651.39,-334.1 654.9,-324.1 645.92,-329.73 651.39,-334.1"/>
</g>
<!-- [root] provider[&quot;registry.terraform.io/hashicorp/azurerm&quot;] (close) -->
<g id="node14" class="node">
<title>[root] provider[&quot;registry.terraform.io/hashicorp/azurerm&quot;] (close)</title>
<ellipse fill="none" stroke="black" cx="445.59" cy="-450" rx="246.96" ry="18"/>
<text text-anchor="middle" x="445.59" y="-446.3" font-family="Times New Roman,serif" font-size="14.00">[root] provider[&quot;registry.terraform.io/hashicorp/azurerm&quot;] (close)</text>
</g>
<!-- [root] provider[&quot;registry.terraform.io/hashicorp/azurerm&quot;] (close)&#45;&gt;[root] azurerm_network_interface_security_group_association.nic_sg_ass (expand) -->
<g id="edge16" class="edge">
<title>[root] provider[&quot;registry.terraform.io/hashicorp/azurerm&quot;] (close)&#45;&gt;[root] azurerm_network_interface_security_group_association.nic_sg_ass (expand)</title>
<path fill="none" stroke="black" d="M405.82,-432.23C382.96,-422.59 354.03,-410.39 329.63,-400.1"/>
<polygon fill="black" stroke="black" points="330.75,-396.78 320.18,-396.12 328.03,-403.23 330.75,-396.78"/>
</g>
<!-- [root] provider[&quot;registry.terraform.io/hashicorp/azurerm&quot;] (close)&#45;&gt;[root] azurerm_windows_virtual_machine.vm (expand) -->
<g id="edge17" class="edge">
<title>[root] provider[&quot;registry.terraform.io/hashicorp/azurerm&quot;] (close)&#45;&gt;[root] azurerm_windows_virtual_machine.vm (expand)</title>
<path fill="none" stroke="black" d="M485.59,-432.23C508.59,-422.59 537.7,-410.39 562.24,-400.1"/>
<polygon fill="black" stroke="black" points="563.88,-403.21 571.75,-396.12 561.18,-396.75 563.88,-403.21"/>
</g>
<!-- [root] root -->
<g id="node15" class="node">
<title>[root] root</title>
<ellipse fill="none" stroke="black" cx="445.59" cy="-522" rx="49.29" ry="18"/>
<text text-anchor="middle" x="445.59" y="-518.3" font-family="Times New Roman,serif" font-size="14.00">[root] root</text>
</g>
<!-- [root] root&#45;&gt;[root] provider[&quot;registry.terraform.io/hashicorp/azurerm&quot;] (close) -->
<g id="edge18" class="edge">
<title>[root] root&#45;&gt;[root] provider[&quot;registry.terraform.io/hashicorp/azurerm&quot;] (close)</title>
<path fill="none" stroke="black" d="M445.59,-503.7C445.59,-495.98 445.59,-486.71 445.59,-478.11"/>
<polygon fill="black" stroke="black" points="449.09,-478.1 445.59,-468.1 442.09,-478.1 449.09,-478.1"/>
</g>
</g>
</svg>
