<?xml version="1.0" encoding="UTF-8" standalone="no"?>
<!DOCTYPE svg PUBLIC "-//W3C//DTD SVG 1.1//EN"
 "http://www.w3.org/Graphics/SVG/1.1/DTD/svg11.dtd">
<!-- Generated by graphviz version 2.43.0 (0)
 -->
<!-- Title: %3 Pages: 1 -->
<svg width="222pt" height="348pt"
 viewBox="0.00 0.00 222.00 348.00" xmlns="http://www.w3.org/2000/svg" xmlns:xlink="http://www.w3.org/1999/xlink">
<g id="graph0" class="graph" transform="scale(1 1) rotate(0) translate(4 344)">
<title>%3</title>
<polygon fill="white" stroke="transparent" points="-4,4 -4,-344 218,-344 218,4 -4,4"/>
<g id="clust2" class="cluster">
<title>cluster[root] aws_dynamodb_table.lock&#45;table (expand)_var_</title>
</g>
<g id="clust3" class="cluster">
<title>cluster[root] root_output_[root] aws_dynamodb_table.lock&#45;table (expand)</title>
</g>
<!-- [root] aws_dynamodb_table.lock&#45;table (expand) -->
<g id="node_0" class="node">
<title>[root] aws_dynamodb_table.lock&#45;table (expand)</title>
<polygon fill="none" stroke="black" points="49,-178 49,-193 137,-193 137,-178 49,-178"/>
<text text-anchor="start" x="52" y="-183.6" font-family="courier new" font-size="8.00">aws_dynamodb_table</text>
<polygon fill="none" stroke="black" points="49,-163 49,-178 137,-178 137,-163 49,-163"/>
<text text-anchor="start" x="70" y="-168.6" font-family="courier new" font-size="8.00">lock&#45;table</text>
</g>
<!-- [root] provider[&quot;registry.terraform.io/hashicorp/aws&quot;] -->
<g id="node_2" class="node">
<title>[root] provider[&quot;registry.terraform.io/hashicorp/aws&quot;]</title>
<polygon fill="none" stroke="black" points="22,-106 22,-121 114,-121 114,-106 22,-106"/>
<text text-anchor="start" x="47.5" y="-111.6" font-family="courier new" font-size="8.00">terraform</text>
<polygon fill="none" stroke="black" points="22,-91 22,-106 114,-106 114,-91 22,-91"/>
<text text-anchor="start" x="25" y="-96.6" font-family="courier new" font-size="8.00">io/hashicorp/aws\&quot;]</text>
</g>
<!-- [root] aws_dynamodb_table.lock&#45;table (expand)&#45;&gt;[root] provider[&quot;registry.terraform.io/hashicorp/aws&quot;] -->
<g id="edge_0" class="edge">
<title>[root] aws_dynamodb_table.lock&#45;table (expand)&#45;&gt;[root] provider[&quot;registry.terraform.io/hashicorp/aws&quot;]</title>
<path fill="none" stroke="black" d="M86.82,-159.7C84,-151.81 80.61,-142.3 77.48,-133.55"/>
<polygon fill="black" stroke="black" points="80.77,-132.34 74.11,-124.1 74.18,-134.7 80.77,-132.34"/>
</g>
<!-- [root] var.random_string -->
<g id="node_3" class="node">
<title>[root] var.random_string</title>
<polygon fill="none" stroke="black" points="133,-106 133,-121 198,-121 198,-106 133,-106"/>
<text text-anchor="start" x="158.5" y="-111.6" font-family="courier new" font-size="8.00">var</text>
<polygon fill="none" stroke="black" points="133,-91 133,-106 198,-106 198,-91 133,-91"/>
<text text-anchor="start" x="136" y="-96.6" font-family="courier new" font-size="8.00">random_string</text>
</g>
<!-- [root] aws_dynamodb_table.lock&#45;table (expand)&#45;&gt;[root] var.random_string -->
<g id="edge_1" class="edge">
<title>[root] aws_dynamodb_table.lock&#45;table (expand)&#45;&gt;[root] var.random_string</title>
<path fill="none" stroke="black" d="M110.8,-159.7C119.6,-151.14 130.38,-140.66 140,-131.3"/>
<polygon fill="black" stroke="black" points="142.68,-133.58 147.41,-124.1 137.8,-128.57 142.68,-133.58"/>
</g>
<!-- [root] provider[&quot;registry.terraform.io/hashicorp/aws&quot;] (close) -->
<g id="node_5" class="node">
<title>[root] provider[&quot;registry.terraform.io/hashicorp/aws&quot;] (close)</title>
<polygon fill="none" stroke="black" points="0,-250 0,-265 92,-265 92,-250 0,-250"/>
<text text-anchor="start" x="25.5" y="-255.6" font-family="courier new" font-size="8.00">terraform</text>
<polygon fill="none" stroke="black" points="0,-235 0,-250 92,-250 92,-235 0,-235"/>
<text text-anchor="start" x="3" y="-240.6" font-family="courier new" font-size="8.00">io/hashicorp/aws\&quot;]</text>
</g>
<!-- [root] provider[&quot;registry.terraform.io/hashicorp/aws&quot;] (close)&#45;&gt;[root] aws_dynamodb_table.lock&#45;table (expand) -->
<g id="edge_4" class="edge">
<title>[root] provider[&quot;registry.terraform.io/hashicorp/aws&quot;] (close)&#45;&gt;[root] aws_dynamodb_table.lock&#45;table (expand)</title>
<path fill="none" stroke="black" d="M57.62,-231.7C63.14,-223.47 69.85,-213.48 75.93,-204.42"/>
<polygon fill="black" stroke="black" points="78.85,-206.36 81.52,-196.1 73.04,-202.46 78.85,-206.36"/>
</g>
<!-- [root] root -->
<g id="node_6" class="node">
<title>[root] root</title>
<polygon fill="none" stroke="black" points="126,-340 60,-340 60,-304 126,-304 126,-340"/>
<text text-anchor="middle" x="93" y="-320.1" font-family="courier new" font-size="8.00">[root] root</text>
</g>
<!-- [root] root&#45;&gt;[root] provider[&quot;registry.terraform.io/hashicorp/aws&quot;] (close) -->
<g id="edge_6" class="edge">
<title>[root] root&#45;&gt;[root] provider[&quot;registry.terraform.io/hashicorp/aws&quot;] (close)</title>
<path fill="none" stroke="black" d="M81.38,-303.7C75.86,-295.47 69.15,-285.48 63.07,-276.42"/>
<polygon fill="black" stroke="black" points="65.96,-274.46 57.48,-268.1 60.15,-278.36 65.96,-274.46"/>
</g>
<!-- [root] output.statelock_id -->
<g id="node_1" class="node">
<title>[root] output.statelock_id</title>
<polygon fill="none" stroke="black" points="111,-250 111,-265 172,-265 172,-250 111,-250"/>
<text text-anchor="start" x="127.5" y="-255.6" font-family="courier new" font-size="8.00">output</text>
<polygon fill="none" stroke="black" points="111,-235 111,-250 172,-250 172,-235 111,-235"/>
<text text-anchor="start" x="114" y="-240.6" font-family="courier new" font-size="8.00">statelock_id</text>
</g>
<!-- [root] root&#45;&gt;[root] output.statelock_id -->
<g id="edge_5" class="edge">
<title>[root] root&#45;&gt;[root] output.statelock_id</title>
<path fill="none" stroke="black" d="M104.87,-303.7C110.5,-295.47 117.35,-285.48 123.57,-276.42"/>
<polygon fill="black" stroke="black" points="126.5,-278.33 129.27,-268.1 120.73,-274.37 126.5,-278.33"/>
</g>
<!-- [root] var.tags -->
<g id="node_4" class="node">
<title>[root] var.tags</title>
<polygon fill="none" stroke="black" points="153,-34 153,-49 178,-49 178,-34 153,-34"/>
<text text-anchor="start" x="158.5" y="-39.6" font-family="courier new" font-size="8.00">var</text>
<polygon fill="none" stroke="black" points="153,-19 153,-34 178,-34 178,-19 153,-19"/>
<text text-anchor="start" x="156" y="-24.6" font-family="courier new" font-size="8.00">tags</text>
</g>
<!-- [root] var.random_string&#45;&gt;[root] var.tags -->
<g id="edge_7" class="edge">
<title>[root] var.random_string&#45;&gt;[root] var.tags</title>
<path fill="none" stroke="black" stroke-dasharray="5,2" d="M165,-87.7C165,-76.85 165,-62.92 165,-52.1"/>
</g>
<!-- [root] output.statelock_id&#45;&gt;[root] aws_dynamodb_table.lock&#45;table (expand) -->
<g id="edge_3" class="edge">
<title>[root] output.statelock_id&#45;&gt;[root] aws_dynamodb_table.lock&#45;table (expand)</title>
<path fill="none" stroke="black" d="M129.13,-231.7C123.5,-223.47 116.65,-213.48 110.43,-204.42"/>
<polygon fill="black" stroke="black" points="113.27,-202.37 104.73,-196.1 107.5,-206.33 113.27,-202.37"/>
</g>
</g>
</svg>

