<?xml version="1.0" encoding="UTF-8" standalone="no"?>
<!DOCTYPE svg PUBLIC "-//W3C//DTD SVG 1.1//EN"
 "http://www.w3.org/Graphics/SVG/1.1/DTD/svg11.dtd">
<!-- Generated by graphviz version 2.49.3 (20211023.0002)
 -->
<!-- Pages: 1 -->
<svg width="1476pt" height="620pt"
 viewBox="0.00 0.00 1475.50 620.00" xmlns="http://www.w3.org/2000/svg" xmlns:xlink="http://www.w3.org/1999/xlink">
<g id="graph0" class="graph" transform="scale(1 1) rotate(0) translate(4 616)">
<polygon fill="white" stroke="transparent" points="-4,4 -4,-616 1471.5,-616 1471.5,4 -4,4"/>
<!-- [root] azurerm_network_interface.nic01 (expand) -->
<g id="node1" class="node">
<title>[root] azurerm_network_interface.nic01 (expand)</title>
<polygon fill="none" stroke="black" points="657,-324 455,-324 455,-288 657,-288 657,-324"/>
<text text-anchor="middle" x="556" y="-302.3" font-family="Times New Roman,serif" font-size="14.00">azurerm_network_interface.nic01</text>
</g>
<!-- [root] azurerm_public_ip.public_ip01 (expand) -->
<g id="node6" class="node">
<title>[root] azurerm_public_ip.public_ip01 (expand)</title>
<polygon fill="none" stroke="black" points="485.5,-180 294.5,-180 294.5,-144 485.5,-144 485.5,-180"/>
<text text-anchor="middle" x="390" y="-158.3" font-family="Times New Roman,serif" font-size="14.00">azurerm_public_ip.public_ip01</text>
</g>
<!-- [root] azurerm_network_interface.nic01 (expand)&#45;&gt;[root] azurerm_public_ip.public_ip01 (expand) -->
<g id="edge1" class="edge">
<title>[root] azurerm_network_interface.nic01 (expand)&#45;&gt;[root] azurerm_public_ip.public_ip01 (expand)</title>
<path fill="none" stroke="black" d="M535.98,-287.87C506.56,-262.71 451.55,-215.65 418.1,-187.04"/>
<polygon fill="black" stroke="black" points="419.97,-184.03 410.09,-180.19 415.42,-189.35 419.97,-184.03"/>
</g>
<!-- [root] azurerm_subnet.subnet (expand) -->
<g id="node9" class="node">
<title>[root] azurerm_subnet.subnet (expand)</title>
<polygon fill="none" stroke="black" points="668,-252 522,-252 522,-216 668,-216 668,-252"/>
<text text-anchor="middle" x="595" y="-230.3" font-family="Times New Roman,serif" font-size="14.00">azurerm_subnet.subnet</text>
</g>
<!-- [root] azurerm_network_interface.nic01 (expand)&#45;&gt;[root] azurerm_subnet.subnet (expand) -->
<g id="edge2" class="edge">
<title>[root] azurerm_network_interface.nic01 (expand)&#45;&gt;[root] azurerm_subnet.subnet (expand)</title>
<path fill="none" stroke="black" d="M565.64,-287.7C570.13,-279.64 575.56,-269.89 580.52,-260.98"/>
<polygon fill="black" stroke="black" points="583.66,-262.54 585.47,-252.1 577.55,-259.14 583.66,-262.54"/>
</g>
<!-- [root] azurerm_network_interface.nic02 (expand) -->
<g id="node2" class="node">
<title>[root] azurerm_network_interface.nic02 (expand)</title>
<polygon fill="none" stroke="black" points="889,-324 687,-324 687,-288 889,-288 889,-324"/>
<text text-anchor="middle" x="788" y="-302.3" font-family="Times New Roman,serif" font-size="14.00">azurerm_network_interface.nic02</text>
</g>
<!-- [root] azurerm_public_ip.public_ip02 (expand) -->
<g id="node7" class="node">
<title>[root] azurerm_public_ip.public_ip02 (expand)</title>
<polygon fill="none" stroke="black" points="895.5,-180 704.5,-180 704.5,-144 895.5,-144 895.5,-180"/>
<text text-anchor="middle" x="800" y="-158.3" font-family="Times New Roman,serif" font-size="14.00">azurerm_public_ip.public_ip02</text>
</g>
<!-- [root] azurerm_network_interface.nic02 (expand)&#45;&gt;[root] azurerm_public_ip.public_ip02 (expand) -->
<g id="edge3" class="edge">
<title>[root] azurerm_network_interface.nic02 (expand)&#45;&gt;[root] azurerm_public_ip.public_ip02 (expand)</title>
<path fill="none" stroke="black" d="M789.45,-287.87C791.49,-263.67 795.25,-219.21 797.69,-190.39"/>
<polygon fill="black" stroke="black" points="801.19,-190.45 798.55,-180.19 794.22,-189.86 801.19,-190.45"/>
</g>
<!-- [root] azurerm_network_interface.nic02 (expand)&#45;&gt;[root] azurerm_subnet.subnet (expand) -->
<g id="edge4" class="edge">
<title>[root] azurerm_network_interface.nic02 (expand)&#45;&gt;[root] azurerm_subnet.subnet (expand)</title>
<path fill="none" stroke="black" d="M740.79,-287.88C713.93,-278.14 680.12,-265.87 651.82,-255.61"/>
<polygon fill="black" stroke="black" points="652.65,-252.19 642.06,-252.07 650.27,-258.77 652.65,-252.19"/>
</g>
<!-- [root] azurerm_network_interface_security_group_association.nic_sg_ass_01 (expand) -->
<g id="node3" class="node">
<title>[root] azurerm_network_interface_security_group_association.nic_sg_ass_01 (expand)</title>
<polygon fill="none" stroke="black" points="416,-396 0,-396 0,-360 416,-360 416,-396"/>
<text text-anchor="middle" x="208" y="-374.3" font-family="Times New Roman,serif" font-size="14.00">azurerm_network_interface_security_group_association.nic_sg_ass_01</text>
</g>
<!-- [root] azurerm_network_interface_security_group_association.nic_sg_ass_01 (expand)&#45;&gt;[root] azurerm_network_interface.nic01 (expand) -->
<g id="edge5" class="edge">
<title>[root] azurerm_network_interface_security_group_association.nic_sg_ass_01 (expand)&#45;&gt;[root] azurerm_network_interface.nic01 (expand)</title>
<path fill="none" stroke="black" d="M292.69,-359.97C343.62,-349.72 408.57,-336.66 461.22,-326.07"/>
<polygon fill="black" stroke="black" points="462.12,-329.45 471.24,-324.05 460.74,-322.59 462.12,-329.45"/>
</g>
<!-- [root] azurerm_network_security_group.sg (expand) -->
<g id="node5" class="node">
<title>[root] azurerm_network_security_group.sg (expand)</title>
<polygon fill="none" stroke="black" points="413.5,-324 192.5,-324 192.5,-288 413.5,-288 413.5,-324"/>
<text text-anchor="middle" x="303" y="-302.3" font-family="Times New Roman,serif" font-size="14.00">azurerm_network_security_group.sg</text>
</g>
<!-- [root] azurerm_network_interface_security_group_association.nic_sg_ass_01 (expand)&#45;&gt;[root] azurerm_network_security_group.sg (expand) -->
<g id="edge6" class="edge">
<title>[root] azurerm_network_interface_security_group_association.nic_sg_ass_01 (expand)&#45;&gt;[root] azurerm_network_security_group.sg (expand)</title>
<path fill="none" stroke="black" d="M231.48,-359.7C243.56,-350.8 258.45,-339.82 271.52,-330.2"/>
<polygon fill="black" stroke="black" points="273.81,-332.85 279.79,-324.1 269.66,-327.22 273.81,-332.85"/>
</g>
<!-- [root] azurerm_network_interface_security_group_association.nic_sg_ass_02 (expand) -->
<g id="node4" class="node">
<title>[root] azurerm_network_interface_security_group_association.nic_sg_ass_02 (expand)</title>
<polygon fill="none" stroke="black" points="850,-396 434,-396 434,-360 850,-360 850,-396"/>
<text text-anchor="middle" x="642" y="-374.3" font-family="Times New Roman,serif" font-size="14.00">azurerm_network_interface_security_group_association.nic_sg_ass_02</text>
</g>
<!-- [root] azurerm_network_interface_security_group_association.nic_sg_ass_02 (expand)&#45;&gt;[root] azurerm_network_interface.nic02 (expand) -->
<g id="edge7" class="edge">
<title>[root] azurerm_network_interface_security_group_association.nic_sg_ass_02 (expand)&#45;&gt;[root] azurerm_network_interface.nic02 (expand)</title>
<path fill="none" stroke="black" d="M677.72,-359.88C697.5,-350.39 722.27,-338.51 743.33,-328.42"/>
<polygon fill="black" stroke="black" points="744.9,-331.55 752.4,-324.07 741.87,-325.24 744.9,-331.55"/>
</g>
<!-- [root] azurerm_network_interface_security_group_association.nic_sg_ass_02 (expand)&#45;&gt;[root] azurerm_network_security_group.sg (expand) -->
<g id="edge8" class="edge">
<title>[root] azurerm_network_interface_security_group_association.nic_sg_ass_02 (expand)&#45;&gt;[root] azurerm_network_security_group.sg (expand)</title>
<path fill="none" stroke="black" d="M559.5,-359.97C509.99,-349.74 446.88,-336.71 395.65,-326.13"/>
<polygon fill="black" stroke="black" points="396.07,-322.64 385.57,-324.05 394.66,-329.5 396.07,-322.64"/>
</g>
<!-- [root] azurerm_resource_group.rg (expand) -->
<g id="node8" class="node">
<title>[root] azurerm_resource_group.rg (expand)</title>
<polygon fill="none" stroke="black" points="578,-108 406,-108 406,-72 578,-72 578,-108"/>
<text text-anchor="middle" x="492" y="-86.3" font-family="Times New Roman,serif" font-size="14.00">azurerm_resource_group.rg</text>
</g>
<!-- [root] azurerm_network_security_group.sg (expand)&#45;&gt;[root] azurerm_resource_group.rg (expand) -->
<g id="edge9" class="edge">
<title>[root] azurerm_network_security_group.sg (expand)&#45;&gt;[root] azurerm_resource_group.rg (expand)</title>
<path fill="none" stroke="black" d="M293.98,-287.84C278.57,-255.89 251.89,-186.66 285,-144 299.2,-125.7 348.8,-112.65 395.88,-104.07"/>
<polygon fill="black" stroke="black" points="396.64,-107.49 405.88,-102.31 395.42,-100.6 396.64,-107.49"/>
</g>
<!-- [root] var.source_ip -->
<g id="node22" class="node">
<title>[root] var.source_ip</title>
<polygon fill="none" stroke="black" points="381.5,-252 294.5,-252 294.5,-216 387.5,-216 387.5,-246 381.5,-252"/>
<polyline fill="none" stroke="black" points="381.5,-252 381.5,-246 "/>
<polyline fill="none" stroke="black" points="387.5,-246 381.5,-246 "/>
<text text-anchor="middle" x="341" y="-230.3" font-family="Times New Roman,serif" font-size="14.00">var.source_ip</text>
</g>
<!-- [root] azurerm_network_security_group.sg (expand)&#45;&gt;[root] var.source_ip -->
<g id="edge10" class="edge">
<title>[root] azurerm_network_security_group.sg (expand)&#45;&gt;[root] var.source_ip</title>
<path fill="none" stroke="black" d="M312.39,-287.7C316.76,-279.64 322.06,-269.89 326.9,-260.98"/>
<polygon fill="black" stroke="black" points="330.02,-262.56 331.71,-252.1 323.87,-259.22 330.02,-262.56"/>
</g>
<!-- [root] azurerm_public_ip.public_ip01 (expand)&#45;&gt;[root] azurerm_resource_group.rg (expand) -->
<g id="edge11" class="edge">
<title>[root] azurerm_public_ip.public_ip01 (expand)&#45;&gt;[root] azurerm_resource_group.rg (expand)</title>
<path fill="none" stroke="black" d="M414.95,-143.88C428.04,-134.89 444.26,-123.76 458.44,-114.03"/>
<polygon fill="black" stroke="black" points="460.69,-116.73 466.95,-108.19 456.73,-110.96 460.69,-116.73"/>
</g>
<!-- [root] azurerm_public_ip.public_ip02 (expand)&#45;&gt;[root] azurerm_resource_group.rg (expand) -->
<g id="edge12" class="edge">
<title>[root] azurerm_public_ip.public_ip02 (expand)&#45;&gt;[root] azurerm_resource_group.rg (expand)</title>
<path fill="none" stroke="black" d="M725.05,-143.97C680.34,-133.8 623.44,-120.87 577.05,-110.33"/>
<polygon fill="black" stroke="black" points="577.55,-106.85 567.02,-108.05 576,-113.68 577.55,-106.85"/>
</g>
<!-- [root] provider[&quot;registry.terraform.io/hashicorp/azurerm&quot;] -->
<g id="node19" class="node">
<title>[root] provider[&quot;registry.terraform.io/hashicorp/azurerm&quot;]</title>
<polygon fill="none" stroke="black" points="323,-36 45.33,-18 323,0 600.67,-18 323,-36"/>
<text text-anchor="middle" x="323" y="-14.3" font-family="Times New Roman,serif" font-size="14.00">provider[&quot;registry.terraform.io/hashicorp/azurerm&quot;]</text>
</g>
<!-- [root] azurerm_resource_group.rg (expand)&#45;&gt;[root] provider[&quot;registry.terraform.io/hashicorp/azurerm&quot;] -->
<g id="edge13" class="edge">
<title>[root] azurerm_resource_group.rg (expand)&#45;&gt;[root] provider[&quot;registry.terraform.io/hashicorp/azurerm&quot;]</title>
<path fill="none" stroke="black" d="M450.66,-71.88C425.7,-61.54 393.88,-48.36 368.25,-37.74"/>
<polygon fill="black" stroke="black" points="369.34,-34.41 358.76,-33.81 366.66,-40.87 369.34,-34.41"/>
</g>
<!-- [root] var.resource -->
<g id="node21" class="node">
<title>[root] var.resource</title>
<polygon fill="none" stroke="black" points="699,-36 619,-36 619,0 705,0 705,-30 699,-36"/>
<polyline fill="none" stroke="black" points="699,-36 699,-30 "/>
<polyline fill="none" stroke="black" points="705,-30 699,-30 "/>
<text text-anchor="middle" x="662" y="-14.3" font-family="Times New Roman,serif" font-size="14.00">var.resource</text>
</g>
<!-- [root] azurerm_resource_group.rg (expand)&#45;&gt;[root] var.resource -->
<g id="edge14" class="edge">
<title>[root] azurerm_resource_group.rg (expand)&#45;&gt;[root] var.resource</title>
<path fill="none" stroke="black" d="M533.59,-71.88C557.03,-62.22 586.5,-50.09 611.3,-39.88"/>
<polygon fill="black" stroke="black" points="612.63,-43.11 620.55,-36.07 609.97,-36.64 612.63,-43.11"/>
</g>
<!-- [root] azurerm_virtual_network.vnet (expand) -->
<g id="node10" class="node">
<title>[root] azurerm_virtual_network.vnet (expand)</title>
<polygon fill="none" stroke="black" points="686,-180 504,-180 504,-144 686,-144 686,-180"/>
<text text-anchor="middle" x="595" y="-158.3" font-family="Times New Roman,serif" font-size="14.00">azurerm_virtual_network.vnet</text>
</g>
<!-- [root] azurerm_subnet.subnet (expand)&#45;&gt;[root] azurerm_virtual_network.vnet (expand) -->
<g id="edge15" class="edge">
<title>[root] azurerm_subnet.subnet (expand)&#45;&gt;[root] azurerm_virtual_network.vnet (expand)</title>
<path fill="none" stroke="black" d="M595,-215.7C595,-207.98 595,-198.71 595,-190.11"/>
<polygon fill="black" stroke="black" points="598.5,-190.1 595,-180.1 591.5,-190.1 598.5,-190.1"/>
</g>
<!-- [root] azurerm_virtual_network.vnet (expand)&#45;&gt;[root] azurerm_resource_group.rg (expand) -->
<g id="edge16" class="edge">
<title>[root] azurerm_virtual_network.vnet (expand)&#45;&gt;[root] azurerm_resource_group.rg (expand)</title>
<path fill="none" stroke="black" d="M569.8,-143.88C556.59,-134.89 540.21,-123.76 525.89,-114.03"/>
<polygon fill="black" stroke="black" points="527.53,-110.92 517.29,-108.19 523.6,-116.71 527.53,-110.92"/>
</g>
<!-- [root] azurerm_windows_virtual_machine.vm01 (expand) -->
<g id="node11" class="node">
<title>[root] azurerm_windows_virtual_machine.vm01 (expand)</title>
<polygon fill="none" stroke="black" points="1116,-396 868,-396 868,-360 1116,-360 1116,-396"/>
<text text-anchor="middle" x="992" y="-374.3" font-family="Times New Roman,serif" font-size="14.00">azurerm_windows_virtual_machine.vm01</text>
</g>
<!-- [root] azurerm_windows_virtual_machine.vm01 (expand)&#45;&gt;[root] azurerm_network_interface.nic01 (expand) -->
<g id="edge17" class="edge">
<title>[root] azurerm_windows_virtual_machine.vm01 (expand)&#45;&gt;[root] azurerm_network_interface.nic01 (expand)</title>
<path fill="none" stroke="black" d="M885.9,-359.97C819.73,-349.34 734.68,-335.69 667.51,-324.9"/>
<polygon fill="black" stroke="black" points="667.74,-321.4 657.32,-323.27 666.63,-328.31 667.74,-321.4"/>
</g>
<!-- [root] var.admin_password -->
<g id="node20" class="node">
<title>[root] var.admin_password</title>
<polygon fill="none" stroke="black" points="1091,-324 963,-324 963,-288 1097,-288 1097,-318 1091,-324"/>
<polyline fill="none" stroke="black" points="1091,-324 1091,-318 "/>
<polyline fill="none" stroke="black" points="1097,-318 1091,-318 "/>
<text text-anchor="middle" x="1030" y="-302.3" font-family="Times New Roman,serif" font-size="14.00">var.admin_password</text>
</g>
<!-- [root] azurerm_windows_virtual_machine.vm01 (expand)&#45;&gt;[root] var.admin_password -->
<g id="edge18" class="edge">
<title>[root] azurerm_windows_virtual_machine.vm01 (expand)&#45;&gt;[root] var.admin_password</title>
<path fill="none" stroke="black" d="M1001.39,-359.7C1005.76,-351.64 1011.06,-341.89 1015.9,-332.98"/>
<polygon fill="black" stroke="black" points="1019.02,-334.56 1020.71,-324.1 1012.87,-331.22 1019.02,-334.56"/>
</g>
<!-- [root] var.vm -->
<g id="node23" class="node">
<title>[root] var.vm</title>
<polygon fill="none" stroke="black" points="1240.5,-324 1191.5,-324 1191.5,-288 1246.5,-288 1246.5,-318 1240.5,-324"/>
<polyline fill="none" stroke="black" points="1240.5,-324 1240.5,-318 "/>
<polyline fill="none" stroke="black" points="1246.5,-318 1240.5,-318 "/>
<text text-anchor="middle" x="1219" y="-302.3" font-family="Times New Roman,serif" font-size="14.00">var.vm</text>
</g>
<!-- [root] azurerm_windows_virtual_machine.vm01 (expand)&#45;&gt;[root] var.vm -->
<g id="edge19" class="edge">
<title>[root] azurerm_windows_virtual_machine.vm01 (expand)&#45;&gt;[root] var.vm</title>
<path fill="none" stroke="black" d="M1047.24,-359.97C1088.99,-347.09 1145.16,-329.77 1181.72,-318.5"/>
<polygon fill="black" stroke="black" points="1182.95,-321.78 1191.48,-315.49 1180.89,-315.09 1182.95,-321.78"/>
</g>
<!-- [root] azurerm_windows_virtual_machine.vm02 (expand) -->
<g id="node12" class="node">
<title>[root] azurerm_windows_virtual_machine.vm02 (expand)</title>
<polygon fill="none" stroke="black" points="1382,-396 1134,-396 1134,-360 1382,-360 1382,-396"/>
<text text-anchor="middle" x="1258" y="-374.3" font-family="Times New Roman,serif" font-size="14.00">azurerm_windows_virtual_machine.vm02</text>
</g>
<!-- [root] azurerm_windows_virtual_machine.vm02 (expand)&#45;&gt;[root] azurerm_network_interface.nic02 (expand) -->
<g id="edge20" class="edge">
<title>[root] azurerm_windows_virtual_machine.vm02 (expand)&#45;&gt;[root] azurerm_network_interface.nic02 (expand)</title>
<path fill="none" stroke="black" d="M1143.63,-359.97C1069.4,-348.91 973.16,-334.58 899.51,-323.61"/>
<polygon fill="black" stroke="black" points="899.68,-320.09 889.28,-322.08 898.65,-327.02 899.68,-320.09"/>
</g>
<!-- [root] azurerm_windows_virtual_machine.vm02 (expand)&#45;&gt;[root] var.admin_password -->
<g id="edge21" class="edge">
<title>[root] azurerm_windows_virtual_machine.vm02 (expand)&#45;&gt;[root] var.admin_password</title>
<path fill="none" stroke="black" d="M1202.52,-359.97C1170.24,-350.06 1129.39,-337.51 1095.54,-327.12"/>
<polygon fill="black" stroke="black" points="1096.32,-323.7 1085.73,-324.11 1094.26,-330.39 1096.32,-323.7"/>
</g>
<!-- [root] azurerm_windows_virtual_machine.vm02 (expand)&#45;&gt;[root] var.vm -->
<g id="edge22" class="edge">
<title>[root] azurerm_windows_virtual_machine.vm02 (expand)&#45;&gt;[root] var.vm</title>
<path fill="none" stroke="black" d="M1248.36,-359.7C1243.87,-351.64 1238.44,-341.89 1233.48,-332.98"/>
<polygon fill="black" stroke="black" points="1236.45,-331.14 1228.53,-324.1 1230.34,-334.54 1236.45,-331.14"/>
</g>
<!-- [root] data.azurerm_public_ip.public_ip01 (expand) -->
<g id="node13" class="node">
<title>[root] data.azurerm_public_ip.public_ip01 (expand)</title>
<polygon fill="none" stroke="black" points="801,-468 583,-468 583,-432 801,-432 801,-468"/>
<text text-anchor="middle" x="692" y="-446.3" font-family="Times New Roman,serif" font-size="14.00">data.azurerm_public_ip.public_ip01</text>
</g>
<!-- [root] data.azurerm_public_ip.public_ip01 (expand)&#45;&gt;[root] azurerm_windows_virtual_machine.vm01 (expand) -->
<g id="edge23" class="edge">
<title>[root] data.azurerm_public_ip.public_ip01 (expand)&#45;&gt;[root] azurerm_windows_virtual_machine.vm01 (expand)</title>
<path fill="none" stroke="black" d="M765,-431.97C808.55,-421.8 863.98,-408.87 909.16,-398.33"/>
<polygon fill="black" stroke="black" points="909.99,-401.73 918.93,-396.05 908.39,-394.91 909.99,-401.73"/>
</g>
<!-- [root] data.azurerm_public_ip.public_ip02 (expand) -->
<g id="node14" class="node">
<title>[root] data.azurerm_public_ip.public_ip02 (expand)</title>
<polygon fill="none" stroke="black" points="1037,-468 819,-468 819,-432 1037,-432 1037,-468"/>
<text text-anchor="middle" x="928" y="-446.3" font-family="Times New Roman,serif" font-size="14.00">data.azurerm_public_ip.public_ip02</text>
</g>
<!-- [root] data.azurerm_public_ip.public_ip02 (expand)&#45;&gt;[root] azurerm_windows_virtual_machine.vm02 (expand) -->
<g id="edge24" class="edge">
<title>[root] data.azurerm_public_ip.public_ip02 (expand)&#45;&gt;[root] azurerm_windows_virtual_machine.vm02 (expand)</title>
<path fill="none" stroke="black" d="M1008.31,-431.97C1056.51,-421.74 1117.94,-408.71 1167.81,-398.13"/>
<polygon fill="black" stroke="black" points="1168.57,-401.55 1177.62,-396.05 1167.11,-394.7 1168.57,-401.55"/>
</g>
<!-- [root] output.local_win_credentials_01 -->
<g id="node15" class="node">
<title>[root] output.local_win_credentials_01</title>
<polygon fill="none" stroke="black" points="1246.5,-468 1055.5,-468 1055.5,-432 1252.5,-432 1252.5,-462 1246.5,-468"/>
<polyline fill="none" stroke="black" points="1246.5,-468 1246.5,-462 "/>
<polyline fill="none" stroke="black" points="1252.5,-462 1246.5,-462 "/>
<text text-anchor="middle" x="1154" y="-446.3" font-family="Times New Roman,serif" font-size="14.00">output.local_win_credentials_01</text>
</g>
<!-- [root] output.local_win_credentials_01&#45;&gt;[root] azurerm_windows_virtual_machine.vm01 (expand) -->
<g id="edge25" class="edge">
<title>[root] output.local_win_credentials_01&#45;&gt;[root] azurerm_windows_virtual_machine.vm01 (expand)</title>
<path fill="none" stroke="black" d="M1114.37,-431.88C1092.22,-422.31 1064.44,-410.3 1040.94,-400.15"/>
<polygon fill="black" stroke="black" points="1042.07,-396.82 1031.5,-396.07 1039.29,-403.25 1042.07,-396.82"/>
</g>
<!-- [root] output.local_win_credentials_02 -->
<g id="node16" class="node">
<title>[root] output.local_win_credentials_02</title>
<polygon fill="none" stroke="black" points="1461.5,-468 1270.5,-468 1270.5,-432 1467.5,-432 1467.5,-462 1461.5,-468"/>
<polyline fill="none" stroke="black" points="1461.5,-468 1461.5,-462 "/>
<polyline fill="none" stroke="black" points="1467.5,-462 1461.5,-462 "/>
<text text-anchor="middle" x="1369" y="-446.3" font-family="Times New Roman,serif" font-size="14.00">output.local_win_credentials_02</text>
</g>
<!-- [root] output.local_win_credentials_02&#45;&gt;[root] azurerm_windows_virtual_machine.vm02 (expand) -->
<g id="edge26" class="edge">
<title>[root] output.local_win_credentials_02&#45;&gt;[root] azurerm_windows_virtual_machine.vm02 (expand)</title>
<path fill="none" stroke="black" d="M1341.85,-431.88C1327.47,-422.81 1309.62,-411.55 1294.09,-401.76"/>
<polygon fill="black" stroke="black" points="1295.58,-398.56 1285.26,-396.19 1291.85,-404.48 1295.58,-398.56"/>
</g>
<!-- [root] output.rdp_connection_string_01 -->
<g id="node17" class="node">
<title>[root] output.rdp_connection_string_01</title>
<polygon fill="none" stroke="black" points="924,-540 726,-540 726,-504 930,-504 930,-534 924,-540"/>
<polyline fill="none" stroke="black" points="924,-540 924,-534 "/>
<polyline fill="none" stroke="black" points="930,-534 924,-534 "/>
<text text-anchor="middle" x="828" y="-518.3" font-family="Times New Roman,serif" font-size="14.00">output.rdp_connection_string_01</text>
</g>
<!-- [root] output.rdp_connection_string_01&#45;&gt;[root] data.azurerm_public_ip.public_ip01 (expand) -->
<g id="edge27" class="edge">
<title>[root] output.rdp_connection_string_01&#45;&gt;[root] data.azurerm_public_ip.public_ip01 (expand)</title>
<path fill="none" stroke="black" d="M794.73,-503.88C776.54,-494.51 753.81,-482.81 734.36,-472.8"/>
<polygon fill="black" stroke="black" points="735.89,-469.65 725.4,-468.19 732.69,-475.88 735.89,-469.65"/>
</g>
<!-- [root] output.rdp_connection_string_02 -->
<g id="node18" class="node">
<title>[root] output.rdp_connection_string_02</title>
<polygon fill="none" stroke="black" points="1146,-540 948,-540 948,-504 1152,-504 1152,-534 1146,-540"/>
<polyline fill="none" stroke="black" points="1146,-540 1146,-534 "/>
<polyline fill="none" stroke="black" points="1152,-534 1146,-534 "/>
<text text-anchor="middle" x="1050" y="-518.3" font-family="Times New Roman,serif" font-size="14.00">output.rdp_connection_string_02</text>
</g>
<!-- [root] output.rdp_connection_string_02&#45;&gt;[root] data.azurerm_public_ip.public_ip02 (expand) -->
<g id="edge28" class="edge">
<title>[root] output.rdp_connection_string_02&#45;&gt;[root] data.azurerm_public_ip.public_ip02 (expand)</title>
<path fill="none" stroke="black" d="M1020.16,-503.88C1004.06,-494.64 984,-483.13 966.71,-473.21"/>
<polygon fill="black" stroke="black" points="968.37,-470.13 957.96,-468.19 964.89,-476.2 968.37,-470.13"/>
</g>
<!-- [root] provider[&quot;registry.terraform.io/hashicorp/azurerm&quot;] (close) -->
<g id="node24" class="node">
<title>[root] provider[&quot;registry.terraform.io/hashicorp/azurerm&quot;] (close)</title>
<ellipse fill="none" stroke="black" cx="461" cy="-522" rx="246.96" ry="18"/>
<text text-anchor="middle" x="461" y="-518.3" font-family="Times New Roman,serif" font-size="14.00">[root] provider[&quot;registry.terraform.io/hashicorp/azurerm&quot;] (close)</text>
</g>
<!-- [root] provider[&quot;registry.terraform.io/hashicorp/azurerm&quot;] (close)&#45;&gt;[root] azurerm_network_interface_security_group_association.nic_sg_ass_01 (expand) -->
<g id="edge29" class="edge">
<title>[root] provider[&quot;registry.terraform.io/hashicorp/azurerm&quot;] (close)&#45;&gt;[root] azurerm_network_interface_security_group_association.nic_sg_ass_01 (expand)</title>
<path fill="none" stroke="black" d="M430.73,-504.01C384.92,-478.3 297.97,-429.5 247.32,-401.07"/>
<polygon fill="black" stroke="black" points="248.73,-397.85 238.3,-396.01 245.31,-403.95 248.73,-397.85"/>
</g>
<!-- [root] provider[&quot;registry.terraform.io/hashicorp/azurerm&quot;] (close)&#45;&gt;[root] azurerm_network_interface_security_group_association.nic_sg_ass_02 (expand) -->
<g id="edge30" class="edge">
<title>[root] provider[&quot;registry.terraform.io/hashicorp/azurerm&quot;] (close)&#45;&gt;[root] azurerm_network_interface_security_group_association.nic_sg_ass_02 (expand)</title>
<path fill="none" stroke="black" d="M482.64,-503.91C505.36,-485.96 542.16,-456.95 574,-432 586.33,-422.34 599.93,-411.73 611.72,-402.55"/>
<polygon fill="black" stroke="black" points="614.19,-405.06 619.93,-396.16 609.89,-399.54 614.19,-405.06"/>
</g>
<!-- [root] provider[&quot;registry.terraform.io/hashicorp/azurerm&quot;] (close)&#45;&gt;[root] data.azurerm_public_ip.public_ip01 (expand) -->
<g id="edge31" class="edge">
<title>[root] provider[&quot;registry.terraform.io/hashicorp/azurerm&quot;] (close)&#45;&gt;[root] data.azurerm_public_ip.public_ip01 (expand)</title>
<path fill="none" stroke="black" d="M515.74,-504.41C548.79,-494.4 591.12,-481.57 626.01,-471"/>
<polygon fill="black" stroke="black" points="627.09,-474.33 635.64,-468.08 625.06,-467.63 627.09,-474.33"/>
</g>
<!-- [root] provider[&quot;registry.terraform.io/hashicorp/azurerm&quot;] (close)&#45;&gt;[root] data.azurerm_public_ip.public_ip02 (expand) -->
<g id="edge32" class="edge">
<title>[root] provider[&quot;registry.terraform.io/hashicorp/azurerm&quot;] (close)&#45;&gt;[root] data.azurerm_public_ip.public_ip02 (expand)</title>
<path fill="none" stroke="black" d="M563.77,-505.59C636.12,-494.75 733.18,-480.2 808.91,-468.85"/>
<polygon fill="black" stroke="black" points="809.6,-472.29 818.97,-467.34 808.56,-465.36 809.6,-472.29"/>
</g>
<!-- [root] root -->
<g id="node25" class="node">
<title>[root] root</title>
<ellipse fill="none" stroke="black" cx="1050" cy="-594" rx="49.29" ry="18"/>
<text text-anchor="middle" x="1050" y="-590.3" font-family="Times New Roman,serif" font-size="14.00">[root] root</text>
</g>
<!-- [root] root&#45;&gt;[root] output.local_win_credentials_01 -->
<g id="edge33" class="edge">
<title>[root] root&#45;&gt;[root] output.local_win_credentials_01</title>
<path fill="none" stroke="black" d="M1092.32,-584.52C1116.92,-577.19 1145.96,-563.84 1161,-540 1172.58,-521.64 1169.39,-496.73 1164.13,-477.93"/>
<polygon fill="black" stroke="black" points="1167.41,-476.69 1161.08,-468.2 1160.73,-478.79 1167.41,-476.69"/>
</g>
<!-- [root] root&#45;&gt;[root] output.local_win_credentials_02 -->
<g id="edge34" class="edge">
<title>[root] root&#45;&gt;[root] output.local_win_credentials_02</title>
<path fill="none" stroke="black" d="M1081.99,-580.2C1107.98,-569.7 1145.53,-554.28 1178,-540 1228.48,-517.8 1285.72,-490.89 1324.27,-472.51"/>
<polygon fill="black" stroke="black" points="1326.14,-475.5 1333.66,-468.03 1323.12,-469.18 1326.14,-475.5"/>
</g>
<!-- [root] root&#45;&gt;[root] output.rdp_connection_string_01 -->
<g id="edge35" class="edge">
<title>[root] root&#45;&gt;[root] output.rdp_connection_string_01</title>
<path fill="none" stroke="black" d="M1013.84,-581.6C980.81,-571.18 931.23,-555.55 891.59,-543.05"/>
<polygon fill="black" stroke="black" points="892.59,-539.7 882,-540.03 890.48,-546.37 892.59,-539.7"/>
</g>
<!-- [root] root&#45;&gt;[root] output.rdp_connection_string_02 -->
<g id="edge36" class="edge">
<title>[root] root&#45;&gt;[root] output.rdp_connection_string_02</title>
<path fill="none" stroke="black" d="M1050,-575.7C1050,-567.98 1050,-558.71 1050,-550.11"/>
<polygon fill="black" stroke="black" points="1053.5,-550.1 1050,-540.1 1046.5,-550.1 1053.5,-550.1"/>
</g>
<!-- [root] root&#45;&gt;[root] provider[&quot;registry.terraform.io/hashicorp/azurerm&quot;] (close) -->
<g id="edge37" class="edge">
<title>[root] root&#45;&gt;[root] provider[&quot;registry.terraform.io/hashicorp/azurerm&quot;] (close)</title>
<path fill="none" stroke="black" d="M1003.78,-587.51C916.56,-577.14 724.74,-554.34 594.15,-538.82"/>
<polygon fill="black" stroke="black" points="594.41,-535.33 584.07,-537.63 593.59,-542.28 594.41,-535.33"/>
</g>
</g>
</svg>
