<?xml version="1.0" encoding="UTF-8" standalone="no"?>
<!DOCTYPE svg PUBLIC "-//W3C//DTD SVG 1.1//EN"
 "http://www.w3.org/Graphics/SVG/1.1/DTD/svg11.dtd">
<!-- Generated by graphviz version 2.49.3 (20211023.0002)
 -->
<!-- Pages: 1 -->
<svg width="877pt" height="548pt"
 viewBox="0.00 0.00 876.59 548.00" xmlns="http://www.w3.org/2000/svg" xmlns:xlink="http://www.w3.org/1999/xlink">
<g id="graph0" class="graph" transform="scale(1 1) rotate(0) translate(4 544)">
<polygon fill="white" stroke="transparent" points="-4,4 -4,-544 872.59,-544 872.59,4 -4,4"/>
<!-- [root] azurerm_availability_set.avset (expand) -->
<g id="node1" class="node">
<title>[root] azurerm_availability_set.avset (expand)</title>
<polygon fill="none" stroke="black" points="834.59,-180 652.59,-180 652.59,-144 834.59,-144 834.59,-180"/>
<text text-anchor="middle" x="743.59" y="-158.3" font-family="Times New Roman,serif" font-size="14.00">azurerm_availability_set.avset</text>
</g>
<!-- [root] azurerm_resource_group.rg (expand) -->
<g id="node6" class="node">
<title>[root] azurerm_resource_group.rg (expand)</title>
<polygon fill="none" stroke="black" points="532.59,-108 360.59,-108 360.59,-72 532.59,-72 532.59,-108"/>
<text text-anchor="middle" x="446.59" y="-86.3" font-family="Times New Roman,serif" font-size="14.00">azurerm_resource_group.rg</text>
</g>
<!-- [root] azurerm_availability_set.avset (expand)&#45;&gt;[root] azurerm_resource_group.rg (expand) -->
<g id="edge1" class="edge">
<title>[root] azurerm_availability_set.avset (expand)&#45;&gt;[root] azurerm_resource_group.rg (expand)</title>
<path fill="none" stroke="black" d="M671.31,-143.97C628.29,-133.83 573.56,-120.93 528.88,-110.4"/>
<polygon fill="black" stroke="black" points="529.46,-106.94 518.93,-108.05 527.86,-113.75 529.46,-106.94"/>
</g>
<!-- [root] azurerm_network_interface.nic (expand) -->
<g id="node2" class="node">
<title>[root] azurerm_network_interface.nic (expand)</title>
<polygon fill="none" stroke="black" points="568.59,-324 380.59,-324 380.59,-288 568.59,-288 568.59,-324"/>
<text text-anchor="middle" x="474.59" y="-302.3" font-family="Times New Roman,serif" font-size="14.00">azurerm_network_interface.nic</text>
</g>
<!-- [root] azurerm_public_ip.public_ip (expand) -->
<g id="node5" class="node">
<title>[root] azurerm_public_ip.public_ip (expand)</title>
<polygon fill="none" stroke="black" points="634.09,-180 457.09,-180 457.09,-144 634.09,-144 634.09,-180"/>
<text text-anchor="middle" x="545.59" y="-158.3" font-family="Times New Roman,serif" font-size="14.00">azurerm_public_ip.public_ip</text>
</g>
<!-- [root] azurerm_network_interface.nic (expand)&#45;&gt;[root] azurerm_public_ip.public_ip (expand) -->
<g id="edge2" class="edge">
<title>[root] azurerm_network_interface.nic (expand)&#45;&gt;[root] azurerm_public_ip.public_ip (expand)</title>
<path fill="none" stroke="black" d="M483.15,-287.87C495.41,-263.35 518.07,-218.03 532.46,-189.26"/>
<polygon fill="black" stroke="black" points="535.65,-190.7 536.99,-180.19 529.39,-187.57 535.65,-190.7"/>
</g>
<!-- [root] azurerm_subnet.subnet (expand) -->
<g id="node7" class="node">
<title>[root] azurerm_subnet.subnet (expand)</title>
<polygon fill="none" stroke="black" points="445.59,-252 299.59,-252 299.59,-216 445.59,-216 445.59,-252"/>
<text text-anchor="middle" x="372.59" y="-230.3" font-family="Times New Roman,serif" font-size="14.00">azurerm_subnet.subnet</text>
</g>
<!-- [root] azurerm_network_interface.nic (expand)&#45;&gt;[root] azurerm_subnet.subnet (expand) -->
<g id="edge3" class="edge">
<title>[root] azurerm_network_interface.nic (expand)&#45;&gt;[root] azurerm_subnet.subnet (expand)</title>
<path fill="none" stroke="black" d="M449.63,-287.88C436.54,-278.89 420.33,-267.76 406.15,-258.03"/>
<polygon fill="black" stroke="black" points="407.86,-254.96 397.63,-252.19 403.9,-260.73 407.86,-254.96"/>
</g>
<!-- [root] azurerm_network_interface_security_group_association.nic_sg_ass (expand) -->
<g id="node3" class="node">
<title>[root] azurerm_network_interface_security_group_association.nic_sg_ass (expand)</title>
<polygon fill="none" stroke="black" points="543.09,-396 148.09,-396 148.09,-360 543.09,-360 543.09,-396"/>
<text text-anchor="middle" x="345.59" y="-374.3" font-family="Times New Roman,serif" font-size="14.00">azurerm_network_interface_security_group_association.nic_sg_ass</text>
</g>
<!-- [root] azurerm_network_interface_security_group_association.nic_sg_ass (expand)&#45;&gt;[root] azurerm_network_interface.nic (expand) -->
<g id="edge4" class="edge">
<title>[root] azurerm_network_interface_security_group_association.nic_sg_ass (expand)&#45;&gt;[root] azurerm_network_interface.nic (expand)</title>
<path fill="none" stroke="black" d="M377.14,-359.88C394.24,-350.6 415.57,-339.03 433.9,-329.08"/>
<polygon fill="black" stroke="black" points="435.79,-332.04 442.91,-324.19 432.45,-325.88 435.79,-332.04"/>
</g>
<!-- [root] azurerm_network_security_group.sg (expand) -->
<g id="node4" class="node">
<title>[root] azurerm_network_security_group.sg (expand)</title>
<polygon fill="none" stroke="black" points="339.09,-324 118.09,-324 118.09,-288 339.09,-288 339.09,-324"/>
<text text-anchor="middle" x="228.59" y="-302.3" font-family="Times New Roman,serif" font-size="14.00">azurerm_network_security_group.sg</text>
</g>
<!-- [root] azurerm_network_interface_security_group_association.nic_sg_ass (expand)&#45;&gt;[root] azurerm_network_security_group.sg (expand) -->
<g id="edge5" class="edge">
<title>[root] azurerm_network_interface_security_group_association.nic_sg_ass (expand)&#45;&gt;[root] azurerm_network_security_group.sg (expand)</title>
<path fill="none" stroke="black" d="M316.96,-359.88C301.67,-350.72 282.64,-339.34 266.17,-329.48"/>
<polygon fill="black" stroke="black" points="267.7,-326.32 257.32,-324.19 264.1,-332.33 267.7,-326.32"/>
</g>
<!-- [root] azurerm_network_security_group.sg (expand)&#45;&gt;[root] azurerm_resource_group.rg (expand) -->
<g id="edge6" class="edge">
<title>[root] azurerm_network_security_group.sg (expand)&#45;&gt;[root] azurerm_resource_group.rg (expand)</title>
<path fill="none" stroke="black" d="M224.92,-287.5C219.2,-254.98 212.2,-184.84 247.59,-144 261.73,-127.67 306.88,-114.95 350.6,-106.06"/>
<polygon fill="black" stroke="black" points="351.34,-109.48 360.48,-104.11 349.99,-102.62 351.34,-109.48"/>
</g>
<!-- [root] var.source_ip -->
<g id="node13" class="node">
<title>[root] var.source_ip</title>
<polygon fill="none" stroke="black" points="194.09,-252 107.09,-252 107.09,-216 200.09,-216 200.09,-246 194.09,-252"/>
<polyline fill="none" stroke="black" points="194.09,-252 194.09,-246 "/>
<polyline fill="none" stroke="black" points="200.09,-246 194.09,-246 "/>
<text text-anchor="middle" x="153.59" y="-230.3" font-family="Times New Roman,serif" font-size="14.00">var.source_ip</text>
</g>
<!-- [root] azurerm_network_security_group.sg (expand)&#45;&gt;[root] var.source_ip -->
<g id="edge7" class="edge">
<title>[root] azurerm_network_security_group.sg (expand)&#45;&gt;[root] var.source_ip</title>
<path fill="none" stroke="black" d="M210.05,-287.7C200.78,-279.05 189.42,-268.45 179.33,-259.03"/>
<polygon fill="black" stroke="black" points="181.61,-256.37 171.91,-252.1 176.83,-261.49 181.61,-256.37"/>
</g>
<!-- [root] azurerm_public_ip.public_ip (expand)&#45;&gt;[root] azurerm_resource_group.rg (expand) -->
<g id="edge8" class="edge">
<title>[root] azurerm_public_ip.public_ip (expand)&#45;&gt;[root] azurerm_resource_group.rg (expand)</title>
<path fill="none" stroke="black" d="M521.37,-143.88C508.66,-134.89 492.92,-123.76 479.16,-114.03"/>
<polygon fill="black" stroke="black" points="481.08,-111.11 470.9,-108.19 477.04,-116.82 481.08,-111.11"/>
</g>
<!-- [root] provider[&quot;registry.terraform.io/hashicorp/azurerm&quot;] -->
<g id="node10" class="node">
<title>[root] provider[&quot;registry.terraform.io/hashicorp/azurerm&quot;]</title>
<polygon fill="none" stroke="black" points="277.59,-36 -0.09,-18 277.59,0 555.26,-18 277.59,-36"/>
<text text-anchor="middle" x="277.59" y="-14.3" font-family="Times New Roman,serif" font-size="14.00">provider[&quot;registry.terraform.io/hashicorp/azurerm&quot;]</text>
</g>
<!-- [root] azurerm_resource_group.rg (expand)&#45;&gt;[root] provider[&quot;registry.terraform.io/hashicorp/azurerm&quot;] -->
<g id="edge9" class="edge">
<title>[root] azurerm_resource_group.rg (expand)&#45;&gt;[root] provider[&quot;registry.terraform.io/hashicorp/azurerm&quot;]</title>
<path fill="none" stroke="black" d="M405.24,-71.88C380.29,-61.54 348.47,-48.36 322.84,-37.74"/>
<polygon fill="black" stroke="black" points="323.93,-34.41 313.35,-33.81 321.25,-40.87 323.93,-34.41"/>
</g>
<!-- [root] var.resource -->
<g id="node12" class="node">
<title>[root] var.resource</title>
<polygon fill="none" stroke="black" points="653.59,-36 573.59,-36 573.59,0 659.59,0 659.59,-30 653.59,-36"/>
<polyline fill="none" stroke="black" points="653.59,-36 653.59,-30 "/>
<polyline fill="none" stroke="black" points="659.59,-30 653.59,-30 "/>
<text text-anchor="middle" x="616.59" y="-14.3" font-family="Times New Roman,serif" font-size="14.00">var.resource</text>
</g>
<!-- [root] azurerm_resource_group.rg (expand)&#45;&gt;[root] var.resource -->
<g id="edge10" class="edge">
<title>[root] azurerm_resource_group.rg (expand)&#45;&gt;[root] var.resource</title>
<path fill="none" stroke="black" d="M488.17,-71.88C511.62,-62.22 541.09,-50.09 565.88,-39.88"/>
<polygon fill="black" stroke="black" points="567.22,-43.11 575.13,-36.07 564.55,-36.64 567.22,-43.11"/>
</g>
<!-- [root] azurerm_virtual_network.vnet (expand) -->
<g id="node8" class="node">
<title>[root] azurerm_virtual_network.vnet (expand)</title>
<polygon fill="none" stroke="black" points="438.59,-180 256.59,-180 256.59,-144 438.59,-144 438.59,-180"/>
<text text-anchor="middle" x="347.59" y="-158.3" font-family="Times New Roman,serif" font-size="14.00">azurerm_virtual_network.vnet</text>
</g>
<!-- [root] azurerm_subnet.subnet (expand)&#45;&gt;[root] azurerm_virtual_network.vnet (expand) -->
<g id="edge11" class="edge">
<title>[root] azurerm_subnet.subnet (expand)&#45;&gt;[root] azurerm_virtual_network.vnet (expand)</title>
<path fill="none" stroke="black" d="M366.41,-215.7C363.59,-207.81 360.19,-198.3 357.07,-189.55"/>
<polygon fill="black" stroke="black" points="360.35,-188.34 353.69,-180.1 353.76,-190.7 360.35,-188.34"/>
</g>
<!-- [root] azurerm_virtual_network.vnet (expand)&#45;&gt;[root] azurerm_resource_group.rg (expand) -->
<g id="edge12" class="edge">
<title>[root] azurerm_virtual_network.vnet (expand)&#45;&gt;[root] azurerm_resource_group.rg (expand)</title>
<path fill="none" stroke="black" d="M371.8,-143.88C384.51,-134.89 400.25,-123.76 414.01,-114.03"/>
<polygon fill="black" stroke="black" points="416.13,-116.82 422.27,-108.19 412.09,-111.11 416.13,-116.82"/>
</g>
<!-- [root] azurerm_windows_virtual_machine.vm (expand) -->
<g id="node9" class="node">
<title>[root] azurerm_windows_virtual_machine.vm (expand)</title>
<polygon fill="none" stroke="black" points="795.59,-396 561.59,-396 561.59,-360 795.59,-360 795.59,-396"/>
<text text-anchor="middle" x="678.59" y="-374.3" font-family="Times New Roman,serif" font-size="14.00">azurerm_windows_virtual_machine.vm</text>
</g>
<!-- [root] azurerm_windows_virtual_machine.vm (expand)&#45;&gt;[root] azurerm_availability_set.avset (expand) -->
<g id="edge13" class="edge">
<title>[root] azurerm_windows_virtual_machine.vm (expand)&#45;&gt;[root] azurerm_availability_set.avset (expand)</title>
<path fill="none" stroke="black" d="M683.79,-359.85C695.09,-322.68 721.89,-234.44 735.44,-189.82"/>
<polygon fill="black" stroke="black" points="738.79,-190.82 738.35,-180.23 732.1,-188.78 738.79,-190.82"/>
</g>
<!-- [root] azurerm_windows_virtual_machine.vm (expand)&#45;&gt;[root] azurerm_network_interface.nic (expand) -->
<g id="edge14" class="edge">
<title>[root] azurerm_windows_virtual_machine.vm (expand)&#45;&gt;[root] azurerm_network_interface.nic (expand)</title>
<path fill="none" stroke="black" d="M628.94,-359.97C600.32,-350.14 564.14,-337.73 534.01,-327.39"/>
<polygon fill="black" stroke="black" points="535.05,-324.05 524.45,-324.11 532.77,-330.67 535.05,-324.05"/>
</g>
<!-- [root] var.admin_password -->
<g id="node11" class="node">
<title>[root] var.admin_password</title>
<polygon fill="none" stroke="black" points="862.59,-324 734.59,-324 734.59,-288 868.59,-288 868.59,-318 862.59,-324"/>
<polyline fill="none" stroke="black" points="862.59,-324 862.59,-318 "/>
<polyline fill="none" stroke="black" points="868.59,-318 862.59,-318 "/>
<text text-anchor="middle" x="801.59" y="-302.3" font-family="Times New Roman,serif" font-size="14.00">var.admin_password</text>
</g>
<!-- [root] azurerm_windows_virtual_machine.vm (expand)&#45;&gt;[root] var.admin_password -->
<g id="edge15" class="edge">
<title>[root] azurerm_windows_virtual_machine.vm (expand)&#45;&gt;[root] var.admin_password</title>
<path fill="none" stroke="black" d="M708.67,-359.88C724.91,-350.64 745.13,-339.13 762.56,-329.21"/>
<polygon fill="black" stroke="black" points="764.42,-332.18 771.38,-324.19 760.96,-326.09 764.42,-332.18"/>
</g>
<!-- [root] var.vm -->
<g id="node14" class="node">
<title>[root] var.vm</title>
<polygon fill="none" stroke="black" points="672.09,-324 623.09,-324 623.09,-288 678.09,-288 678.09,-318 672.09,-324"/>
<polyline fill="none" stroke="black" points="672.09,-324 672.09,-318 "/>
<polyline fill="none" stroke="black" points="678.09,-318 672.09,-318 "/>
<text text-anchor="middle" x="650.59" y="-302.3" font-family="Times New Roman,serif" font-size="14.00">var.vm</text>
</g>
<!-- [root] azurerm_windows_virtual_machine.vm (expand)&#45;&gt;[root] var.vm -->
<g id="edge16" class="edge">
<title>[root] azurerm_windows_virtual_machine.vm (expand)&#45;&gt;[root] var.vm</title>
<path fill="none" stroke="black" d="M671.66,-359.7C668.51,-351.81 664.71,-342.3 661.2,-333.55"/>
<polygon fill="black" stroke="black" points="664.39,-332.09 657.43,-324.1 657.89,-334.69 664.39,-332.09"/>
</g>
<!-- [root] provider[&quot;registry.terraform.io/hashicorp/azurerm&quot;] (close) -->
<g id="node15" class="node">
<title>[root] provider[&quot;registry.terraform.io/hashicorp/azurerm&quot;] (close)</title>
<ellipse fill="none" stroke="black" cx="511.59" cy="-450" rx="246.96" ry="18"/>
<text text-anchor="middle" x="511.59" y="-446.3" font-family="Times New Roman,serif" font-size="14.00">[root] provider[&quot;registry.terraform.io/hashicorp/azurerm&quot;] (close)</text>
</g>
<!-- [root] provider[&quot;registry.terraform.io/hashicorp/azurerm&quot;] (close)&#45;&gt;[root] azurerm_network_interface_security_group_association.nic_sg_ass (expand) -->
<g id="edge17" class="edge">
<title>[root] provider[&quot;registry.terraform.io/hashicorp/azurerm&quot;] (close)&#45;&gt;[root] azurerm_network_interface_security_group_association.nic_sg_ass (expand)</title>
<path fill="none" stroke="black" d="M471.82,-432.23C448.96,-422.59 420.03,-410.39 395.63,-400.1"/>
<polygon fill="black" stroke="black" points="396.75,-396.78 386.18,-396.12 394.03,-403.23 396.75,-396.78"/>
</g>
<!-- [root] provider[&quot;registry.terraform.io/hashicorp/azurerm&quot;] (close)&#45;&gt;[root] azurerm_windows_virtual_machine.vm (expand) -->
<g id="edge18" class="edge">
<title>[root] provider[&quot;registry.terraform.io/hashicorp/azurerm&quot;] (close)&#45;&gt;[root] azurerm_windows_virtual_machine.vm (expand)</title>
<path fill="none" stroke="black" d="M551.59,-432.23C574.59,-422.59 603.7,-410.39 628.24,-400.1"/>
<polygon fill="black" stroke="black" points="629.88,-403.21 637.75,-396.12 627.18,-396.75 629.88,-403.21"/>
</g>
<!-- [root] root -->
<g id="node16" class="node">
<title>[root] root</title>
<ellipse fill="none" stroke="black" cx="511.59" cy="-522" rx="49.29" ry="18"/>
<text text-anchor="middle" x="511.59" y="-518.3" font-family="Times New Roman,serif" font-size="14.00">[root] root</text>
</g>
<!-- [root] root&#45;&gt;[root] provider[&quot;registry.terraform.io/hashicorp/azurerm&quot;] (close) -->
<g id="edge19" class="edge">
<title>[root] root&#45;&gt;[root] provider[&quot;registry.terraform.io/hashicorp/azurerm&quot;] (close)</title>
<path fill="none" stroke="black" d="M511.59,-503.7C511.59,-495.98 511.59,-486.71 511.59,-478.11"/>
<polygon fill="black" stroke="black" points="515.09,-478.1 511.59,-468.1 508.09,-478.1 515.09,-478.1"/>
</g>
</g>
</svg>
