<?xml version="1.0" encoding="UTF-8" standalone="no"?>
<!DOCTYPE svg PUBLIC "-//W3C//DTD SVG 1.1//EN"
 "http://www.w3.org/Graphics/SVG/1.1/DTD/svg11.dtd">
<!-- Generated by graphviz version 2.43.0 (0)
 -->
<!-- Title: %3 Pages: 1 -->
<svg width="234pt" height="564pt"
 viewBox="0.00 0.00 234.00 564.00" xmlns="http://www.w3.org/2000/svg" xmlns:xlink="http://www.w3.org/1999/xlink">
<g id="graph0" class="graph" transform="scale(1 1) rotate(0) translate(4 560)">
<title>%3</title>
<polygon fill="white" stroke="transparent" points="-4,4 -4,-560 230,-560 230,4 -4,4"/>
<g id="clust2" class="cluster">
<title>cluster[root] azurerm_bastion_host.bastionhost (expand)_var_</title>
</g>
<g id="clust3" class="cluster">
<title>cluster[root] azurerm_public_ip.bastionip (expand)_var_</title>
</g>
<!-- [root] azurerm_bastion_host.bastionhost (expand) -->
<g id="node_0" class="node">
<title>[root] azurerm_bastion_host.bastionhost (expand)</title>
<polygon fill="none" stroke="black" points="60,-394 60,-409 157,-409 157,-394 60,-394"/>
<text text-anchor="start" x="63" y="-399.6" font-family="courier new" font-size="8.00">azurerm_bastion_host</text>
<polygon fill="none" stroke="black" points="60,-379 60,-394 157,-394 157,-379 60,-379"/>
<text text-anchor="start" x="83.5" y="-384.6" font-family="courier new" font-size="8.00">bastionhost</text>
</g>
<!-- [root] azurerm_public_ip.bastionip (expand) -->
<g id="node_1" class="node">
<title>[root] azurerm_public_ip.bastionip (expand)</title>
<polygon fill="none" stroke="black" points="19,-322 19,-337 102,-337 102,-322 19,-322"/>
<text text-anchor="start" x="22" y="-327.6" font-family="courier new" font-size="8.00">azurerm_public_ip</text>
<polygon fill="none" stroke="black" points="19,-307 19,-322 102,-322 102,-307 19,-307"/>
<text text-anchor="start" x="40" y="-312.6" font-family="courier new" font-size="8.00">bastionip</text>
</g>
<!-- [root] azurerm_bastion_host.bastionhost (expand)&#45;&gt;[root] azurerm_public_ip.bastionip (expand) -->
<g id="edge_0" class="edge">
<title>[root] azurerm_bastion_host.bastionhost (expand)&#45;&gt;[root] azurerm_public_ip.bastionip (expand)</title>
<path fill="none" stroke="black" d="M96.13,-375.7C90.5,-367.47 83.65,-357.48 77.43,-348.42"/>
<polygon fill="black" stroke="black" points="80.27,-346.37 71.73,-340.1 74.5,-350.33 80.27,-346.37"/>
</g>
<!-- [root] var.bastionsubnetid -->
<g id="node_3" class="node">
<title>[root] var.bastionsubnetid</title>
<polygon fill="none" stroke="black" points="120,-322 120,-337 194,-337 194,-322 120,-322"/>
<text text-anchor="start" x="150" y="-327.6" font-family="courier new" font-size="8.00">var</text>
<polygon fill="none" stroke="black" points="120,-307 120,-322 194,-322 194,-307 120,-307"/>
<text text-anchor="start" x="123" y="-312.6" font-family="courier new" font-size="8.00">bastionsubnetid</text>
</g>
<!-- [root] azurerm_bastion_host.bastionhost (expand)&#45;&gt;[root] var.bastionsubnetid -->
<g id="edge_1" class="edge">
<title>[root] azurerm_bastion_host.bastionhost (expand)&#45;&gt;[root] var.bastionsubnetid</title>
<path fill="none" stroke="black" d="M120.11,-375.7C125.87,-367.47 132.86,-357.48 139.21,-348.42"/>
<polygon fill="black" stroke="black" points="142.16,-350.3 145.03,-340.1 136.42,-346.29 142.16,-350.3"/>
</g>
<!-- [root] provider[&quot;registry.terraform.io/hashicorp/azurerm&quot;] -->
<g id="node_2" class="node">
<title>[root] provider[&quot;registry.terraform.io/hashicorp/azurerm&quot;]</title>
<polygon fill="none" stroke="black" points="0,-250 0,-265 110,-265 110,-250 0,-250"/>
<text text-anchor="start" x="34.5" y="-255.6" font-family="courier new" font-size="8.00">terraform</text>
<polygon fill="none" stroke="black" points="0,-235 0,-250 110,-250 110,-235 0,-235"/>
<text text-anchor="start" x="3" y="-240.6" font-family="courier new" font-size="8.00">io/hashicorp/azurerm\&quot;]</text>
</g>
<!-- [root] azurerm_public_ip.bastionip (expand)&#45;&gt;[root] provider[&quot;registry.terraform.io/hashicorp/azurerm&quot;] -->
<g id="edge_2" class="edge">
<title>[root] azurerm_public_ip.bastionip (expand)&#45;&gt;[root] provider[&quot;registry.terraform.io/hashicorp/azurerm&quot;]</title>
<path fill="none" stroke="black" d="M58.76,-303.7C58.21,-295.98 57.55,-286.71 56.94,-278.11"/>
<polygon fill="black" stroke="black" points="60.43,-277.83 56.22,-268.1 53.44,-278.33 60.43,-277.83"/>
</g>
<!-- [root] var.location -->
<g id="node_4" class="node">
<title>[root] var.location</title>
<polygon fill="none" stroke="black" points="140,-250 140,-265 183,-265 183,-250 140,-250"/>
<text text-anchor="start" x="154.5" y="-255.6" font-family="courier new" font-size="8.00">var</text>
<polygon fill="none" stroke="black" points="140,-235 140,-250 183,-250 183,-235 140,-235"/>
<text text-anchor="start" x="143" y="-240.6" font-family="courier new" font-size="8.00">location</text>
</g>
<!-- [root] azurerm_public_ip.bastionip (expand)&#45;&gt;[root] var.location -->
<g id="edge_3" class="edge">
<title>[root] azurerm_public_ip.bastionip (expand)&#45;&gt;[root] var.location</title>
<path fill="none" stroke="black" d="M84.71,-303.88C97.67,-294.89 113.73,-283.76 127.77,-274.03"/>
<polygon fill="black" stroke="black" points="129.97,-276.76 136.2,-268.19 125.98,-271.01 129.97,-276.76"/>
</g>
<!-- [root] provider[&quot;registry.terraform.io/hashicorp/azurerm&quot;] (close) -->
<g id="node_8" class="node">
<title>[root] provider[&quot;registry.terraform.io/hashicorp/azurerm&quot;] (close)</title>
<polygon fill="none" stroke="black" points="53,-466 53,-481 163,-481 163,-466 53,-466"/>
<text text-anchor="start" x="87.5" y="-471.6" font-family="courier new" font-size="8.00">terraform</text>
<polygon fill="none" stroke="black" points="53,-451 53,-466 163,-466 163,-451 53,-451"/>
<text text-anchor="start" x="56" y="-456.6" font-family="courier new" font-size="8.00">io/hashicorp/azurerm\&quot;]</text>
</g>
<!-- [root] provider[&quot;registry.terraform.io/hashicorp/azurerm&quot;] (close)&#45;&gt;[root] azurerm_bastion_host.bastionhost (expand) -->
<g id="edge_7" class="edge">
<title>[root] provider[&quot;registry.terraform.io/hashicorp/azurerm&quot;] (close)&#45;&gt;[root] azurerm_bastion_host.bastionhost (expand)</title>
<path fill="none" stroke="black" d="M108,-447.7C108,-439.98 108,-430.71 108,-422.11"/>
<polygon fill="black" stroke="black" points="111.5,-422.1 108,-412.1 104.5,-422.1 111.5,-422.1"/>
</g>
<!-- [root] root -->
<g id="node_9" class="node">
<title>[root] root</title>
<polygon fill="none" stroke="black" points="141,-556 75,-556 75,-520 141,-520 141,-556"/>
<text text-anchor="middle" x="108" y="-536.1" font-family="courier new" font-size="8.00">[root] root</text>
</g>
<!-- [root] root&#45;&gt;[root] provider[&quot;registry.terraform.io/hashicorp/azurerm&quot;] (close) -->
<g id="edge_8" class="edge">
<title>[root] root&#45;&gt;[root] provider[&quot;registry.terraform.io/hashicorp/azurerm&quot;] (close)</title>
<path fill="none" stroke="black" d="M108,-519.7C108,-511.98 108,-502.71 108,-494.11"/>
<polygon fill="black" stroke="black" points="111.5,-494.1 108,-484.1 104.5,-494.1 111.5,-494.1"/>
</g>
<!-- [root] var.project -->
<g id="node_5" class="node">
<title>[root] var.project</title>
<polygon fill="none" stroke="black" points="145,-178 145,-193 183,-193 183,-178 145,-178"/>
<text text-anchor="start" x="157" y="-183.6" font-family="courier new" font-size="8.00">var</text>
<polygon fill="none" stroke="black" points="145,-163 145,-178 183,-178 183,-163 145,-163"/>
<text text-anchor="start" x="148" y="-168.6" font-family="courier new" font-size="8.00">project</text>
</g>
<!-- [root] var.location&#45;&gt;[root] var.project -->
<g id="edge_9" class="edge">
<title>[root] var.location&#45;&gt;[root] var.project</title>
<path fill="none" stroke="black" stroke-dasharray="5,2" d="M161.74,-231.7C162.21,-220.85 162.8,-206.92 163.27,-196.1"/>
</g>
<!-- [root] var.resourcegroupname -->
<g id="node_6" class="node">
<title>[root] var.resourcegroupname</title>
<polygon fill="none" stroke="black" points="127,-106 127,-121 210,-121 210,-106 127,-106"/>
<text text-anchor="start" x="161.5" y="-111.6" font-family="courier new" font-size="8.00">var</text>
<polygon fill="none" stroke="black" points="127,-91 127,-106 210,-106 210,-91 127,-91"/>
<text text-anchor="start" x="130" y="-96.6" font-family="courier new" font-size="8.00">resourcegroupname</text>
</g>
<!-- [root] var.project&#45;&gt;[root] var.resourcegroupname -->
<g id="edge_10" class="edge">
<title>[root] var.project&#45;&gt;[root] var.resourcegroupname</title>
<path fill="none" stroke="black" stroke-dasharray="5,2" d="M164.99,-159.7C165.61,-148.85 166.4,-134.92 167.02,-124.1"/>
</g>
<!-- [root] var.tags -->
<g id="node_7" class="node">
<title>[root] var.tags</title>
<polygon fill="none" stroke="black" points="156,-34 156,-49 181,-49 181,-34 156,-34"/>
<text text-anchor="start" x="161.5" y="-39.6" font-family="courier new" font-size="8.00">var</text>
<polygon fill="none" stroke="black" points="156,-19 156,-34 181,-34 181,-19 156,-19"/>
<text text-anchor="start" x="159" y="-24.6" font-family="courier new" font-size="8.00">tags</text>
</g>
<!-- [root] var.resourcegroupname&#45;&gt;[root] var.tags -->
<g id="edge_11" class="edge">
<title>[root] var.resourcegroupname&#45;&gt;[root] var.tags</title>
<path fill="none" stroke="black" stroke-dasharray="5,2" d="M168,-87.7C168,-76.85 168,-62.92 168,-52.1"/>
</g>
</g>
</svg>

