<?xml version="1.0" encoding="UTF-8" standalone="no"?>
<!DOCTYPE svg PUBLIC "-//W3C//DTD SVG 1.1//EN"
 "http://www.w3.org/Graphics/SVG/1.1/DTD/svg11.dtd">
<!-- Generated by graphviz version 2.49.3 (20211023.0002)
 -->
<!-- Pages: 1 -->
<svg width="1177pt" height="260pt"
 viewBox="0.00 0.00 1177.09 260.00" xmlns="http://www.w3.org/2000/svg" xmlns:xlink="http://www.w3.org/1999/xlink">
<g id="graph0" class="graph" transform="scale(1 1) rotate(0) translate(4 256)">
<polygon fill="white" stroke="transparent" points="-4,4 -4,-256 1173.09,-256 1173.09,4 -4,4"/>
<!-- [root] azurerm_policy_assignment.allowedLocationPolicyAssignment (expand) -->
<g id="node1" class="node">
<title>[root] azurerm_policy_assignment.allowedLocationPolicyAssignment (expand)</title>
<polygon fill="none" stroke="black" points="1043.59,-108 675.59,-108 675.59,-72 1043.59,-72 1043.59,-108"/>
<text text-anchor="middle" x="859.59" y="-86.3" font-family="Times New Roman,serif" font-size="14.00">azurerm_policy_assignment.allowedLocationPolicyAssignment</text>
</g>
<!-- [root] provider[&quot;registry.terraform.io/hashicorp/azurerm&quot;] -->
<g id="node2" class="node">
<title>[root] provider[&quot;registry.terraform.io/hashicorp/azurerm&quot;]</title>
<polygon fill="none" stroke="black" points="277.59,-36 -0.09,-18 277.59,0 555.26,-18 277.59,-36"/>
<text text-anchor="middle" x="277.59" y="-14.3" font-family="Times New Roman,serif" font-size="14.00">provider[&quot;registry.terraform.io/hashicorp/azurerm&quot;]</text>
</g>
<!-- [root] azurerm_policy_assignment.allowedLocationPolicyAssignment (expand)&#45;&gt;[root] provider[&quot;registry.terraform.io/hashicorp/azurerm&quot;] -->
<g id="edge1" class="edge">
<title>[root] azurerm_policy_assignment.allowedLocationPolicyAssignment (expand)&#45;&gt;[root] provider[&quot;registry.terraform.io/hashicorp/azurerm&quot;]</title>
<path fill="none" stroke="black" d="M717.96,-71.97C613.42,-59.39 473.6,-42.58 379.81,-31.3"/>
<polygon fill="black" stroke="black" points="380.09,-27.8 369.75,-30.08 379.26,-34.75 380.09,-27.8"/>
</g>
<!-- [root] var.allowedLocationSubPolicyId -->
<g id="node3" class="node">
<title>[root] var.allowedLocationSubPolicyId</title>
<polygon fill="none" stroke="black" points="767.59,-36 573.59,-36 573.59,0 773.59,0 773.59,-30 767.59,-36"/>
<polyline fill="none" stroke="black" points="767.59,-36 767.59,-30 "/>
<polyline fill="none" stroke="black" points="773.59,-30 767.59,-30 "/>
<text text-anchor="middle" x="673.59" y="-14.3" font-family="Times New Roman,serif" font-size="14.00">var.allowedLocationSubPolicyId</text>
</g>
<!-- [root] azurerm_policy_assignment.allowedLocationPolicyAssignment (expand)&#45;&gt;[root] var.allowedLocationSubPolicyId -->
<g id="edge2" class="edge">
<title>[root] azurerm_policy_assignment.allowedLocationPolicyAssignment (expand)&#45;&gt;[root] var.allowedLocationSubPolicyId</title>
<path fill="none" stroke="black" d="M814.08,-71.88C788.21,-62.14 755.62,-49.87 728.34,-39.61"/>
<polygon fill="black" stroke="black" points="729.53,-36.31 718.94,-36.07 727.06,-42.87 729.53,-36.31"/>
</g>
<!-- [root] var.allowedLocations -->
<g id="node4" class="node">
<title>[root] var.allowedLocations</title>
<polygon fill="none" stroke="black" points="921.59,-36 791.59,-36 791.59,0 927.59,0 927.59,-30 921.59,-36"/>
<polyline fill="none" stroke="black" points="921.59,-36 921.59,-30 "/>
<polyline fill="none" stroke="black" points="927.59,-30 921.59,-30 "/>
<text text-anchor="middle" x="859.59" y="-14.3" font-family="Times New Roman,serif" font-size="14.00">var.allowedLocations</text>
</g>
<!-- [root] azurerm_policy_assignment.allowedLocationPolicyAssignment (expand)&#45;&gt;[root] var.allowedLocations -->
<g id="edge3" class="edge">
<title>[root] azurerm_policy_assignment.allowedLocationPolicyAssignment (expand)&#45;&gt;[root] var.allowedLocations</title>
<path fill="none" stroke="black" d="M859.59,-71.7C859.59,-63.98 859.59,-54.71 859.59,-46.11"/>
<polygon fill="black" stroke="black" points="863.09,-46.1 859.59,-36.1 856.09,-46.1 863.09,-46.1"/>
</g>
<!-- [root] var.resource -->
<g id="node5" class="node">
<title>[root] var.resource</title>
<polygon fill="none" stroke="black" points="1025.59,-36 945.59,-36 945.59,0 1031.59,0 1031.59,-30 1025.59,-36"/>
<polyline fill="none" stroke="black" points="1025.59,-36 1025.59,-30 "/>
<polyline fill="none" stroke="black" points="1031.59,-30 1025.59,-30 "/>
<text text-anchor="middle" x="988.59" y="-14.3" font-family="Times New Roman,serif" font-size="14.00">var.resource</text>
</g>
<!-- [root] azurerm_policy_assignment.allowedLocationPolicyAssignment (expand)&#45;&gt;[root] var.resource -->
<g id="edge4" class="edge">
<title>[root] azurerm_policy_assignment.allowedLocationPolicyAssignment (expand)&#45;&gt;[root] var.resource</title>
<path fill="none" stroke="black" d="M891.14,-71.88C908.24,-62.6 929.57,-51.03 947.9,-41.08"/>
<polygon fill="black" stroke="black" points="949.79,-44.04 956.91,-36.19 946.45,-37.88 949.79,-44.04"/>
</g>
<!-- [root] var.subscriptionId -->
<g id="node6" class="node">
<title>[root] var.subscriptionId</title>
<polygon fill="none" stroke="black" points="1163.09,-36 1050.09,-36 1050.09,0 1169.09,0 1169.09,-30 1163.09,-36"/>
<polyline fill="none" stroke="black" points="1163.09,-36 1163.09,-30 "/>
<polyline fill="none" stroke="black" points="1169.09,-30 1163.09,-30 "/>
<text text-anchor="middle" x="1109.59" y="-14.3" font-family="Times New Roman,serif" font-size="14.00">var.subscriptionId</text>
</g>
<!-- [root] azurerm_policy_assignment.allowedLocationPolicyAssignment (expand)&#45;&gt;[root] var.subscriptionId -->
<g id="edge5" class="edge">
<title>[root] azurerm_policy_assignment.allowedLocationPolicyAssignment (expand)&#45;&gt;[root] var.subscriptionId</title>
<path fill="none" stroke="black" d="M920.42,-71.97C956.51,-61.86 1002.39,-49.02 1039.92,-38.51"/>
<polygon fill="black" stroke="black" points="1041.09,-41.81 1049.77,-35.75 1039.2,-35.07 1041.09,-41.81"/>
</g>
<!-- [root] provider[&quot;registry.terraform.io/hashicorp/azurerm&quot;] (close) -->
<g id="node7" class="node">
<title>[root] provider[&quot;registry.terraform.io/hashicorp/azurerm&quot;] (close)</title>
<ellipse fill="none" stroke="black" cx="859.59" cy="-162" rx="246.96" ry="18"/>
<text text-anchor="middle" x="859.59" y="-158.3" font-family="Times New Roman,serif" font-size="14.00">[root] provider[&quot;registry.terraform.io/hashicorp/azurerm&quot;] (close)</text>
</g>
<!-- [root] provider[&quot;registry.terraform.io/hashicorp/azurerm&quot;] (close)&#45;&gt;[root] azurerm_policy_assignment.allowedLocationPolicyAssignment (expand) -->
<g id="edge6" class="edge">
<title>[root] provider[&quot;registry.terraform.io/hashicorp/azurerm&quot;] (close)&#45;&gt;[root] azurerm_policy_assignment.allowedLocationPolicyAssignment (expand)</title>
<path fill="none" stroke="black" d="M859.59,-143.7C859.59,-135.98 859.59,-126.71 859.59,-118.11"/>
<polygon fill="black" stroke="black" points="863.09,-118.1 859.59,-108.1 856.09,-118.1 863.09,-118.1"/>
</g>
<!-- [root] root -->
<g id="node8" class="node">
<title>[root] root</title>
<ellipse fill="none" stroke="black" cx="859.59" cy="-234" rx="49.29" ry="18"/>
<text text-anchor="middle" x="859.59" y="-230.3" font-family="Times New Roman,serif" font-size="14.00">[root] root</text>
</g>
<!-- [root] root&#45;&gt;[root] provider[&quot;registry.terraform.io/hashicorp/azurerm&quot;] (close) -->
<g id="edge7" class="edge">
<title>[root] root&#45;&gt;[root] provider[&quot;registry.terraform.io/hashicorp/azurerm&quot;] (close)</title>
<path fill="none" stroke="black" d="M859.59,-215.7C859.59,-207.98 859.59,-198.71 859.59,-190.11"/>
<polygon fill="black" stroke="black" points="863.09,-190.1 859.59,-180.1 856.09,-190.1 863.09,-190.1"/>
</g>
</g>
</svg>
