<?xml version="1.0" encoding="UTF-8" standalone="no"?>
<!DOCTYPE svg PUBLIC "-//W3C//DTD SVG 1.1//EN"
 "http://www.w3.org/Graphics/SVG/1.1/DTD/svg11.dtd">
<!-- Generated by graphviz version 2.49.3 (20211023.0002)
 -->
<!-- Pages: 1 -->
<svg width="1402pt" height="260pt"
 viewBox="0.00 0.00 1401.50 260.00" xmlns="http://www.w3.org/2000/svg" xmlns:xlink="http://www.w3.org/1999/xlink">
<g id="graph0" class="graph" transform="scale(1 1) rotate(0) translate(4 256)">
<polygon fill="white" stroke="transparent" points="-4,4 -4,-256 1397.5,-256 1397.5,4 -4,4"/>
<!-- [root] azurerm_policy_assignment.allowedLocationPolicyAssignment (expand) -->
<g id="node1" class="node">
<title>[root] azurerm_policy_assignment.allowedLocationPolicyAssignment (expand)</title>
<polygon fill="none" stroke="black" points="1122.5,-108 754.5,-108 754.5,-72 1122.5,-72 1122.5,-108"/>
<text text-anchor="middle" x="938.5" y="-86.3" font-family="Times New Roman,serif" font-size="14.00">azurerm_policy_assignment.allowedLocationPolicyAssignment</text>
</g>
<!-- [root] provider[&quot;registry.terraform.io/hashicorp/azurerm&quot;] -->
<g id="node3" class="node">
<title>[root] provider[&quot;registry.terraform.io/hashicorp/azurerm&quot;]</title>
<polygon fill="none" stroke="black" points="501.5,-36 223.83,-18 501.5,0 779.17,-18 501.5,-36"/>
<text text-anchor="middle" x="501.5" y="-14.3" font-family="Times New Roman,serif" font-size="14.00">provider[&quot;registry.terraform.io/hashicorp/azurerm&quot;]</text>
</g>
<!-- [root] azurerm_policy_assignment.allowedLocationPolicyAssignment (expand)&#45;&gt;[root] provider[&quot;registry.terraform.io/hashicorp/azurerm&quot;] -->
<g id="edge1" class="edge">
<title>[root] azurerm_policy_assignment.allowedLocationPolicyAssignment (expand)&#45;&gt;[root] provider[&quot;registry.terraform.io/hashicorp/azurerm&quot;]</title>
<path fill="none" stroke="black" d="M832.16,-71.97C757.03,-59.93 657.63,-44.01 587.49,-32.77"/>
<polygon fill="black" stroke="black" points="587.79,-29.28 577.36,-31.15 586.68,-36.19 587.79,-29.28"/>
</g>
<!-- [root] var.allowedLocationSubPolicyId -->
<g id="node4" class="node">
<title>[root] var.allowedLocationSubPolicyId</title>
<polygon fill="none" stroke="black" points="1387.5,-36 1193.5,-36 1193.5,0 1393.5,0 1393.5,-30 1387.5,-36"/>
<polyline fill="none" stroke="black" points="1387.5,-36 1387.5,-30 "/>
<polyline fill="none" stroke="black" points="1393.5,-30 1387.5,-30 "/>
<text text-anchor="middle" x="1293.5" y="-14.3" font-family="Times New Roman,serif" font-size="14.00">var.allowedLocationSubPolicyId</text>
</g>
<!-- [root] azurerm_policy_assignment.allowedLocationPolicyAssignment (expand)&#45;&gt;[root] var.allowedLocationSubPolicyId -->
<g id="edge2" class="edge">
<title>[root] azurerm_policy_assignment.allowedLocationPolicyAssignment (expand)&#45;&gt;[root] var.allowedLocationSubPolicyId</title>
<path fill="none" stroke="black" d="M1024.89,-71.97C1076.96,-61.7 1143.38,-48.6 1197.15,-38"/>
<polygon fill="black" stroke="black" points="1197.9,-41.42 1207.03,-36.05 1196.54,-34.55 1197.9,-41.42"/>
</g>
<!-- [root] var.allowedLocations -->
<g id="node5" class="node">
<title>[root] var.allowedLocations</title>
<polygon fill="none" stroke="black" points="1169.5,-36 1039.5,-36 1039.5,0 1175.5,0 1175.5,-30 1169.5,-36"/>
<polyline fill="none" stroke="black" points="1169.5,-36 1169.5,-30 "/>
<polyline fill="none" stroke="black" points="1175.5,-30 1169.5,-30 "/>
<text text-anchor="middle" x="1107.5" y="-14.3" font-family="Times New Roman,serif" font-size="14.00">var.allowedLocations</text>
</g>
<!-- [root] azurerm_policy_assignment.allowedLocationPolicyAssignment (expand)&#45;&gt;[root] var.allowedLocations -->
<g id="edge3" class="edge">
<title>[root] azurerm_policy_assignment.allowedLocationPolicyAssignment (expand)&#45;&gt;[root] var.allowedLocations</title>
<path fill="none" stroke="black" d="M979.84,-71.88C1003.05,-62.26 1032.19,-50.19 1056.77,-40.01"/>
<polygon fill="black" stroke="black" points="1058.39,-43.13 1066.29,-36.07 1055.71,-36.66 1058.39,-43.13"/>
</g>
<!-- [root] var.resource -->
<g id="node6" class="node">
<title>[root] var.resource</title>
<polygon fill="none" stroke="black" points="877.5,-36 797.5,-36 797.5,0 883.5,0 883.5,-30 877.5,-36"/>
<polyline fill="none" stroke="black" points="877.5,-36 877.5,-30 "/>
<polyline fill="none" stroke="black" points="883.5,-30 877.5,-30 "/>
<text text-anchor="middle" x="840.5" y="-14.3" font-family="Times New Roman,serif" font-size="14.00">var.resource</text>
</g>
<!-- [root] azurerm_policy_assignment.allowedLocationPolicyAssignment (expand)&#45;&gt;[root] var.resource -->
<g id="edge4" class="edge">
<title>[root] azurerm_policy_assignment.allowedLocationPolicyAssignment (expand)&#45;&gt;[root] var.resource</title>
<path fill="none" stroke="black" d="M914.53,-71.88C901.95,-62.89 886.37,-51.76 872.75,-42.03"/>
<polygon fill="black" stroke="black" points="874.74,-39.15 864.57,-36.19 870.67,-44.85 874.74,-39.15"/>
</g>
<!-- [root] var.subscriptionId -->
<g id="node7" class="node">
<title>[root] var.subscriptionId</title>
<polygon fill="none" stroke="black" points="1015,-36 902,-36 902,0 1021,0 1021,-30 1015,-36"/>
<polyline fill="none" stroke="black" points="1015,-36 1015,-30 "/>
<polyline fill="none" stroke="black" points="1021,-30 1015,-30 "/>
<text text-anchor="middle" x="961.5" y="-14.3" font-family="Times New Roman,serif" font-size="14.00">var.subscriptionId</text>
</g>
<!-- [root] azurerm_policy_assignment.allowedLocationPolicyAssignment (expand)&#45;&gt;[root] var.subscriptionId -->
<g id="edge5" class="edge">
<title>[root] azurerm_policy_assignment.allowedLocationPolicyAssignment (expand)&#45;&gt;[root] var.subscriptionId</title>
<path fill="none" stroke="black" d="M944.19,-71.7C946.75,-63.9 949.83,-54.51 952.68,-45.83"/>
<polygon fill="black" stroke="black" points="956.08,-46.7 955.88,-36.1 949.43,-44.51 956.08,-46.7"/>
</g>
<!-- [root] azurerm_policy_assignment.requireTagPolicyAssignment (expand) -->
<g id="node2" class="node">
<title>[root] azurerm_policy_assignment.requireTagPolicyAssignment (expand)</title>
<polygon fill="none" stroke="black" points="714.5,-108 378.5,-108 378.5,-72 714.5,-72 714.5,-108"/>
<text text-anchor="middle" x="546.5" y="-86.3" font-family="Times New Roman,serif" font-size="14.00">azurerm_policy_assignment.requireTagPolicyAssignment</text>
</g>
<!-- [root] azurerm_policy_assignment.requireTagPolicyAssignment (expand)&#45;&gt;[root] provider[&quot;registry.terraform.io/hashicorp/azurerm&quot;] -->
<g id="edge6" class="edge">
<title>[root] azurerm_policy_assignment.requireTagPolicyAssignment (expand)&#45;&gt;[root] provider[&quot;registry.terraform.io/hashicorp/azurerm&quot;]</title>
<path fill="none" stroke="black" d="M535.38,-71.7C530.07,-63.44 523.61,-53.39 517.76,-44.3"/>
<polygon fill="black" stroke="black" points="520.54,-42.14 512.19,-35.62 514.65,-45.93 520.54,-42.14"/>
</g>
<!-- [root] azurerm_policy_assignment.requireTagPolicyAssignment (expand)&#45;&gt;[root] var.resource -->
<g id="edge7" class="edge">
<title>[root] azurerm_policy_assignment.requireTagPolicyAssignment (expand)&#45;&gt;[root] var.resource</title>
<path fill="none" stroke="black" d="M634.39,-71.97C678.01,-62.99 731.63,-51.16 787.71,-36.08"/>
<polygon fill="black" stroke="black" points="788.74,-39.43 797.47,-33.44 786.9,-32.68 788.74,-39.43"/>
</g>
<!-- [root] azurerm_policy_assignment.requireTagPolicyAssignment (expand)&#45;&gt;[root] var.subscriptionId -->
<g id="edge8" class="edge">
<title>[root] azurerm_policy_assignment.requireTagPolicyAssignment (expand)&#45;&gt;[root] var.subscriptionId</title>
<path fill="none" stroke="black" d="M675.96,-71.97C738.48,-63.07 814.73,-51.22 891.84,-36.04"/>
<polygon fill="black" stroke="black" points="892.61,-39.45 901.73,-34.07 891.24,-32.59 892.61,-39.45"/>
</g>
<!-- [root] var.tagName -->
<g id="node8" class="node">
<title>[root] var.tagName</title>
<polygon fill="none" stroke="black" points="199.5,-36 119.5,-36 119.5,0 205.5,0 205.5,-30 199.5,-36"/>
<polyline fill="none" stroke="black" points="199.5,-36 199.5,-30 "/>
<polyline fill="none" stroke="black" points="205.5,-30 199.5,-30 "/>
<text text-anchor="middle" x="162.5" y="-14.3" font-family="Times New Roman,serif" font-size="14.00">var.tagName</text>
</g>
<!-- [root] azurerm_policy_assignment.requireTagPolicyAssignment (expand)&#45;&gt;[root] var.tagName -->
<g id="edge9" class="edge">
<title>[root] azurerm_policy_assignment.requireTagPolicyAssignment (expand)&#45;&gt;[root] var.tagName</title>
<path fill="none" stroke="black" d="M408.64,-71.96C351.39,-63.67 284.25,-52.37 215.86,-36.14"/>
<polygon fill="black" stroke="black" points="216.31,-32.65 205.76,-33.71 214.67,-39.45 216.31,-32.65"/>
</g>
<!-- [root] var.tagPolicyId -->
<g id="node9" class="node">
<title>[root] var.tagPolicyId</title>
<polygon fill="none" stroke="black" points="95,-36 0,-36 0,0 101,0 101,-30 95,-36"/>
<polyline fill="none" stroke="black" points="95,-36 95,-30 "/>
<polyline fill="none" stroke="black" points="101,-30 95,-30 "/>
<text text-anchor="middle" x="50.5" y="-14.3" font-family="Times New Roman,serif" font-size="14.00">var.tagPolicyId</text>
</g>
<!-- [root] azurerm_policy_assignment.requireTagPolicyAssignment (expand)&#45;&gt;[root] var.tagPolicyId -->
<g id="edge10" class="edge">
<title>[root] azurerm_policy_assignment.requireTagPolicyAssignment (expand)&#45;&gt;[root] var.tagPolicyId</title>
<path fill="none" stroke="black" d="M378.34,-74.71C299.75,-66.52 204.88,-54.49 111.06,-35.93"/>
<polygon fill="black" stroke="black" points="111.6,-32.47 101.1,-33.93 110.22,-39.33 111.6,-32.47"/>
</g>
<!-- [root] provider[&quot;registry.terraform.io/hashicorp/azurerm&quot;] (close) -->
<g id="node10" class="node">
<title>[root] provider[&quot;registry.terraform.io/hashicorp/azurerm&quot;] (close)</title>
<ellipse fill="none" stroke="black" cx="731.5" cy="-162" rx="246.96" ry="18"/>
<text text-anchor="middle" x="731.5" y="-158.3" font-family="Times New Roman,serif" font-size="14.00">[root] provider[&quot;registry.terraform.io/hashicorp/azurerm&quot;] (close)</text>
</g>
<!-- [root] provider[&quot;registry.terraform.io/hashicorp/azurerm&quot;] (close)&#45;&gt;[root] azurerm_policy_assignment.allowedLocationPolicyAssignment (expand) -->
<g id="edge11" class="edge">
<title>[root] provider[&quot;registry.terraform.io/hashicorp/azurerm&quot;] (close)&#45;&gt;[root] azurerm_policy_assignment.allowedLocationPolicyAssignment (expand)</title>
<path fill="none" stroke="black" d="M780.82,-144.32C810.06,-134.43 847.34,-121.83 878.31,-111.36"/>
<polygon fill="black" stroke="black" points="879.77,-114.56 888.12,-108.04 877.53,-107.92 879.77,-114.56"/>
</g>
<!-- [root] provider[&quot;registry.terraform.io/hashicorp/azurerm&quot;] (close)&#45;&gt;[root] azurerm_policy_assignment.requireTagPolicyAssignment (expand) -->
<g id="edge12" class="edge">
<title>[root] provider[&quot;registry.terraform.io/hashicorp/azurerm&quot;] (close)&#45;&gt;[root] azurerm_policy_assignment.requireTagPolicyAssignment (expand)</title>
<path fill="none" stroke="black" d="M687.19,-144.23C661.37,-134.46 628.6,-122.07 601.19,-111.69"/>
<polygon fill="black" stroke="black" points="602.33,-108.38 591.74,-108.12 599.85,-114.93 602.33,-108.38"/>
</g>
<!-- [root] root -->
<g id="node11" class="node">
<title>[root] root</title>
<ellipse fill="none" stroke="black" cx="731.5" cy="-234" rx="49.29" ry="18"/>
<text text-anchor="middle" x="731.5" y="-230.3" font-family="Times New Roman,serif" font-size="14.00">[root] root</text>
</g>
<!-- [root] root&#45;&gt;[root] provider[&quot;registry.terraform.io/hashicorp/azurerm&quot;] (close) -->
<g id="edge13" class="edge">
<title>[root] root&#45;&gt;[root] provider[&quot;registry.terraform.io/hashicorp/azurerm&quot;] (close)</title>
<path fill="none" stroke="black" d="M731.5,-215.7C731.5,-207.98 731.5,-198.71 731.5,-190.11"/>
<polygon fill="black" stroke="black" points="735,-190.1 731.5,-180.1 728,-190.1 735,-190.1"/>
</g>
</g>
</svg>
