<?xml version="1.0" encoding="UTF-8" standalone="no"?>
<!DOCTYPE svg PUBLIC "-//W3C//DTD SVG 1.1//EN"
 "http://www.w3.org/Graphics/SVG/1.1/DTD/svg11.dtd">
<!-- Generated by graphviz version 2.49.3 (20211023.0002)
 -->
<!-- Pages: 1 -->
<svg width="1583pt" height="260pt"
 viewBox="0.00 0.00 1583.00 260.00" xmlns="http://www.w3.org/2000/svg" xmlns:xlink="http://www.w3.org/1999/xlink">
<g id="graph0" class="graph" transform="scale(1 1) rotate(0) translate(4 256)">
<polygon fill="white" stroke="transparent" points="-4,4 -4,-256 1579,-256 1579,4 -4,4"/>
<!-- [root] azurerm_policy_assignment.allowedLocationPolicyAssignment (expand) -->
<g id="node1" class="node">
<title>[root] azurerm_policy_assignment.allowedLocationPolicyAssignment (expand)</title>
<polygon fill="none" stroke="black" points="1282,-108 914,-108 914,-72 1282,-72 1282,-108"/>
<text text-anchor="middle" x="1098" y="-86.3" font-family="Times New Roman,serif" font-size="14.00">azurerm_policy_assignment.allowedLocationPolicyAssignment</text>
</g>
<!-- [root] provider[&quot;registry.terraform.io/hashicorp/azurerm&quot;] -->
<g id="node3" class="node">
<title>[root] provider[&quot;registry.terraform.io/hashicorp/azurerm&quot;]</title>
<polygon fill="none" stroke="black" points="683,-36 405.33,-18 683,0 960.67,-18 683,-36"/>
<text text-anchor="middle" x="683" y="-14.3" font-family="Times New Roman,serif" font-size="14.00">provider[&quot;registry.terraform.io/hashicorp/azurerm&quot;]</text>
</g>
<!-- [root] azurerm_policy_assignment.allowedLocationPolicyAssignment (expand)&#45;&gt;[root] provider[&quot;registry.terraform.io/hashicorp/azurerm&quot;] -->
<g id="edge1" class="edge">
<title>[root] azurerm_policy_assignment.allowedLocationPolicyAssignment (expand)&#45;&gt;[root] provider[&quot;registry.terraform.io/hashicorp/azurerm&quot;]</title>
<path fill="none" stroke="black" d="M997.01,-71.97C926.15,-60.01 832.56,-44.23 766.03,-33.01"/>
<polygon fill="black" stroke="black" points="766.45,-29.53 756.01,-31.31 765.29,-36.43 766.45,-29.53"/>
</g>
<!-- [root] var.allowedLocationSubPolicyId -->
<g id="node4" class="node">
<title>[root] var.allowedLocationSubPolicyId</title>
<polygon fill="none" stroke="black" points="1415,-36 1221,-36 1221,0 1421,0 1421,-30 1415,-36"/>
<polyline fill="none" stroke="black" points="1415,-36 1415,-30 "/>
<polyline fill="none" stroke="black" points="1421,-30 1415,-30 "/>
<text text-anchor="middle" x="1321" y="-14.3" font-family="Times New Roman,serif" font-size="14.00">var.allowedLocationSubPolicyId</text>
</g>
<!-- [root] azurerm_policy_assignment.allowedLocationPolicyAssignment (expand)&#45;&gt;[root] var.allowedLocationSubPolicyId -->
<g id="edge2" class="edge">
<title>[root] azurerm_policy_assignment.allowedLocationPolicyAssignment (expand)&#45;&gt;[root] var.allowedLocationSubPolicyId</title>
<path fill="none" stroke="black" d="M1152.27,-71.97C1183.83,-62.06 1223.79,-49.51 1256.9,-39.12"/>
<polygon fill="black" stroke="black" points="1258,-42.45 1266.49,-36.11 1255.9,-35.77 1258,-42.45"/>
</g>
<!-- [root] var.allowedLocations -->
<g id="node5" class="node">
<title>[root] var.allowedLocations</title>
<polygon fill="none" stroke="black" points="1569,-36 1439,-36 1439,0 1575,0 1575,-30 1569,-36"/>
<polyline fill="none" stroke="black" points="1569,-36 1569,-30 "/>
<polyline fill="none" stroke="black" points="1575,-30 1569,-30 "/>
<text text-anchor="middle" x="1507" y="-14.3" font-family="Times New Roman,serif" font-size="14.00">var.allowedLocations</text>
</g>
<!-- [root] azurerm_policy_assignment.allowedLocationPolicyAssignment (expand)&#45;&gt;[root] var.allowedLocations -->
<g id="edge3" class="edge">
<title>[root] azurerm_policy_assignment.allowedLocationPolicyAssignment (expand)&#45;&gt;[root] var.allowedLocations</title>
<path fill="none" stroke="black" d="M1215.45,-71.98C1276.37,-62.73 1352.2,-50.58 1428.35,-36.26"/>
<polygon fill="black" stroke="black" points="1429.44,-39.62 1438.61,-34.32 1428.13,-32.74 1429.44,-39.62"/>
</g>
<!-- [root] var.resource -->
<g id="node7" class="node">
<title>[root] var.resource</title>
<polygon fill="none" stroke="black" points="1059,-36 979,-36 979,0 1065,0 1065,-30 1059,-36"/>
<polyline fill="none" stroke="black" points="1059,-36 1059,-30 "/>
<polyline fill="none" stroke="black" points="1065,-30 1059,-30 "/>
<text text-anchor="middle" x="1022" y="-14.3" font-family="Times New Roman,serif" font-size="14.00">var.resource</text>
</g>
<!-- [root] azurerm_policy_assignment.allowedLocationPolicyAssignment (expand)&#45;&gt;[root] var.resource -->
<g id="edge4" class="edge">
<title>[root] azurerm_policy_assignment.allowedLocationPolicyAssignment (expand)&#45;&gt;[root] var.resource</title>
<path fill="none" stroke="black" d="M1079.21,-71.7C1069.83,-63.05 1058.32,-52.45 1048.09,-43.03"/>
<polygon fill="black" stroke="black" points="1050.3,-40.3 1040.57,-36.1 1045.55,-45.45 1050.3,-40.3"/>
</g>
<!-- [root] var.subscriptionId -->
<g id="node8" class="node">
<title>[root] var.subscriptionId</title>
<polygon fill="none" stroke="black" points="1196.5,-36 1083.5,-36 1083.5,0 1202.5,0 1202.5,-30 1196.5,-36"/>
<polyline fill="none" stroke="black" points="1196.5,-36 1196.5,-30 "/>
<polyline fill="none" stroke="black" points="1202.5,-30 1196.5,-30 "/>
<text text-anchor="middle" x="1143" y="-14.3" font-family="Times New Roman,serif" font-size="14.00">var.subscriptionId</text>
</g>
<!-- [root] azurerm_policy_assignment.allowedLocationPolicyAssignment (expand)&#45;&gt;[root] var.subscriptionId -->
<g id="edge5" class="edge">
<title>[root] azurerm_policy_assignment.allowedLocationPolicyAssignment (expand)&#45;&gt;[root] var.subscriptionId</title>
<path fill="none" stroke="black" d="M1109.12,-71.7C1114.36,-63.56 1120.7,-53.69 1126.48,-44.7"/>
<polygon fill="black" stroke="black" points="1129.54,-46.41 1132,-36.1 1123.65,-42.62 1129.54,-46.41"/>
</g>
<!-- [root] azurerm_policy_assignment.requireTagPolicyAssignment (expand) -->
<g id="node2" class="node">
<title>[root] azurerm_policy_assignment.requireTagPolicyAssignment (expand)</title>
<polygon fill="none" stroke="black" points="851,-108 515,-108 515,-72 851,-72 851,-108"/>
<text text-anchor="middle" x="683" y="-86.3" font-family="Times New Roman,serif" font-size="14.00">azurerm_policy_assignment.requireTagPolicyAssignment</text>
</g>
<!-- [root] azurerm_policy_assignment.requireTagPolicyAssignment (expand)&#45;&gt;[root] provider[&quot;registry.terraform.io/hashicorp/azurerm&quot;] -->
<g id="edge6" class="edge">
<title>[root] azurerm_policy_assignment.requireTagPolicyAssignment (expand)&#45;&gt;[root] provider[&quot;registry.terraform.io/hashicorp/azurerm&quot;]</title>
<path fill="none" stroke="black" d="M683,-71.7C683,-63.98 683,-54.71 683,-46.11"/>
<polygon fill="black" stroke="black" points="686.5,-46.1 683,-36.1 679.5,-46.1 686.5,-46.1"/>
</g>
<!-- [root] var.networkwatcher_rg_Id -->
<g id="node6" class="node">
<title>[root] var.networkwatcher_rg_Id</title>
<polygon fill="none" stroke="black" points="158,-36 0,-36 0,0 164,0 164,-30 158,-36"/>
<polyline fill="none" stroke="black" points="158,-36 158,-30 "/>
<polyline fill="none" stroke="black" points="164,-30 158,-30 "/>
<text text-anchor="middle" x="82" y="-14.3" font-family="Times New Roman,serif" font-size="14.00">var.networkwatcher_rg_Id</text>
</g>
<!-- [root] azurerm_policy_assignment.requireTagPolicyAssignment (expand)&#45;&gt;[root] var.networkwatcher_rg_Id -->
<g id="edge7" class="edge">
<title>[root] azurerm_policy_assignment.requireTagPolicyAssignment (expand)&#45;&gt;[root] var.networkwatcher_rg_Id</title>
<path fill="none" stroke="black" d="M514.89,-74.99C417.98,-66.07 293.66,-53.22 174.34,-36.13"/>
<polygon fill="black" stroke="black" points="174.69,-32.65 164.29,-34.68 173.69,-39.58 174.69,-32.65"/>
</g>
<!-- [root] azurerm_policy_assignment.requireTagPolicyAssignment (expand)&#45;&gt;[root] var.resource -->
<g id="edge8" class="edge">
<title>[root] azurerm_policy_assignment.requireTagPolicyAssignment (expand)&#45;&gt;[root] var.resource</title>
<path fill="none" stroke="black" d="M794.48,-71.97C845.33,-63.34 906.38,-51.79 969.3,-36.01"/>
<polygon fill="black" stroke="black" points="970.17,-39.4 979,-33.55 968.45,-32.62 970.17,-39.4"/>
</g>
<!-- [root] azurerm_policy_assignment.requireTagPolicyAssignment (expand)&#45;&gt;[root] var.subscriptionId -->
<g id="edge9" class="edge">
<title>[root] azurerm_policy_assignment.requireTagPolicyAssignment (expand)&#45;&gt;[root] var.subscriptionId</title>
<path fill="none" stroke="black" d="M837.28,-71.94C906.72,-63.32 989.84,-51.69 1073.33,-36.02"/>
<polygon fill="black" stroke="black" points="1074.07,-39.44 1083.25,-34.14 1072.77,-32.56 1074.07,-39.44"/>
</g>
<!-- [root] var.tagName -->
<g id="node9" class="node">
<title>[root] var.tagName</title>
<polygon fill="none" stroke="black" points="262,-36 182,-36 182,0 268,0 268,-30 262,-36"/>
<polyline fill="none" stroke="black" points="262,-36 262,-30 "/>
<polyline fill="none" stroke="black" points="268,-30 262,-30 "/>
<text text-anchor="middle" x="225" y="-14.3" font-family="Times New Roman,serif" font-size="14.00">var.tagName</text>
</g>
<!-- [root] azurerm_policy_assignment.requireTagPolicyAssignment (expand)&#45;&gt;[root] var.tagName -->
<g id="edge10" class="edge">
<title>[root] azurerm_policy_assignment.requireTagPolicyAssignment (expand)&#45;&gt;[root] var.tagName</title>
<path fill="none" stroke="black" d="M514.85,-74.15C444.08,-66.15 360.9,-54.45 278.08,-36.02"/>
<polygon fill="black" stroke="black" points="278.77,-32.59 268.24,-33.8 277.23,-39.42 278.77,-32.59"/>
</g>
<!-- [root] var.tagPolicyId -->
<g id="node10" class="node">
<title>[root] var.tagPolicyId</title>
<polygon fill="none" stroke="black" points="381.5,-36 286.5,-36 286.5,0 387.5,0 387.5,-30 381.5,-36"/>
<polyline fill="none" stroke="black" points="381.5,-36 381.5,-30 "/>
<polyline fill="none" stroke="black" points="387.5,-30 381.5,-30 "/>
<text text-anchor="middle" x="337" y="-14.3" font-family="Times New Roman,serif" font-size="14.00">var.tagPolicyId</text>
</g>
<!-- [root] azurerm_policy_assignment.requireTagPolicyAssignment (expand)&#45;&gt;[root] var.tagPolicyId -->
<g id="edge11" class="edge">
<title>[root] azurerm_policy_assignment.requireTagPolicyAssignment (expand)&#45;&gt;[root] var.tagPolicyId</title>
<path fill="none" stroke="black" d="M576.85,-71.95C525.15,-63.03 461.95,-51.23 397.67,-36.29"/>
<polygon fill="black" stroke="black" points="398.3,-32.85 387.77,-33.97 396.7,-39.66 398.3,-32.85"/>
</g>
<!-- [root] provider[&quot;registry.terraform.io/hashicorp/azurerm&quot;] (close) -->
<g id="node11" class="node">
<title>[root] provider[&quot;registry.terraform.io/hashicorp/azurerm&quot;] (close)</title>
<ellipse fill="none" stroke="black" cx="868" cy="-162" rx="246.96" ry="18"/>
<text text-anchor="middle" x="868" y="-158.3" font-family="Times New Roman,serif" font-size="14.00">[root] provider[&quot;registry.terraform.io/hashicorp/azurerm&quot;] (close)</text>
</g>
<!-- [root] provider[&quot;registry.terraform.io/hashicorp/azurerm&quot;] (close)&#45;&gt;[root] azurerm_policy_assignment.allowedLocationPolicyAssignment (expand) -->
<g id="edge12" class="edge">
<title>[root] provider[&quot;registry.terraform.io/hashicorp/azurerm&quot;] (close)&#45;&gt;[root] azurerm_policy_assignment.allowedLocationPolicyAssignment (expand)</title>
<path fill="none" stroke="black" d="M922.51,-144.41C955.41,-134.4 997.56,-121.57 1032.3,-111"/>
<polygon fill="black" stroke="black" points="1033.34,-114.34 1041.89,-108.08 1031.3,-107.64 1033.34,-114.34"/>
</g>
<!-- [root] provider[&quot;registry.terraform.io/hashicorp/azurerm&quot;] (close)&#45;&gt;[root] azurerm_policy_assignment.requireTagPolicyAssignment (expand) -->
<g id="edge13" class="edge">
<title>[root] provider[&quot;registry.terraform.io/hashicorp/azurerm&quot;] (close)&#45;&gt;[root] azurerm_policy_assignment.requireTagPolicyAssignment (expand)</title>
<path fill="none" stroke="black" d="M823.69,-144.23C797.87,-134.46 765.1,-122.07 737.69,-111.69"/>
<polygon fill="black" stroke="black" points="738.83,-108.38 728.24,-108.12 736.35,-114.93 738.83,-108.38"/>
</g>
<!-- [root] root -->
<g id="node12" class="node">
<title>[root] root</title>
<ellipse fill="none" stroke="black" cx="868" cy="-234" rx="49.29" ry="18"/>
<text text-anchor="middle" x="868" y="-230.3" font-family="Times New Roman,serif" font-size="14.00">[root] root</text>
</g>
<!-- [root] root&#45;&gt;[root] provider[&quot;registry.terraform.io/hashicorp/azurerm&quot;] (close) -->
<g id="edge14" class="edge">
<title>[root] root&#45;&gt;[root] provider[&quot;registry.terraform.io/hashicorp/azurerm&quot;] (close)</title>
<path fill="none" stroke="black" d="M868,-215.7C868,-207.98 868,-198.71 868,-190.11"/>
<polygon fill="black" stroke="black" points="871.5,-190.1 868,-180.1 864.5,-190.1 871.5,-190.1"/>
</g>
</g>
</svg>
