<?xml version="1.0" encoding="UTF-8" standalone="no"?>
<!DOCTYPE svg PUBLIC "-//W3C//DTD SVG 1.1//EN"
 "http://www.w3.org/Graphics/SVG/1.1/DTD/svg11.dtd">
<!-- Generated by graphviz version 2.43.0 (0)
 -->
<!-- Title: %3 Pages: 1 -->
<svg width="521pt" height="708pt"
 viewBox="0.00 0.00 520.50 708.00" xmlns="http://www.w3.org/2000/svg" xmlns:xlink="http://www.w3.org/1999/xlink">
<g id="graph0" class="graph" transform="scale(1 1) rotate(0) translate(4 704)">
<title>%3</title>
<polygon fill="white" stroke="transparent" points="-4,4 -4,-704 516.5,-704 516.5,4 -4,4"/>
<g id="clust2" class="cluster">
<title>cluster[root] data.http.awxoperatormanifestfile (expand)_var_</title>
</g>
<g id="clust3" class="cluster">
<title>cluster[root] provider[&quot;registry.terraform.io/gavinbunney/kubectl&quot;]_var_</title>
</g>
<g id="clust4" class="cluster">
<title>cluster[root] local.awx_vars (expand)_var_</title>
</g>
<!-- [root] data.http.awxoperatormanifestfile (expand) -->
<g id="node_0" class="node">
<title>[root] data.http.awxoperatormanifestfile (expand)</title>
<polygon fill="none" stroke="black" points="73.5,-394 73.5,-409 183.5,-409 183.5,-394 73.5,-394"/>
<text text-anchor="start" x="119" y="-399.6" font-family="courier new" font-size="8.00">http</text>
<polygon fill="none" stroke="black" points="73.5,-379 73.5,-394 183.5,-394 183.5,-379 73.5,-379"/>
<text text-anchor="start" x="76.5" y="-384.6" font-family="courier new" font-size="8.00">awxoperatormanifestfile</text>
</g>
<!-- [root] provider[&quot;registry.terraform.io/hashicorp/http&quot;] -->
<g id="node_6" class="node">
<title>[root] provider[&quot;registry.terraform.io/hashicorp/http&quot;]</title>
<polygon fill="none" stroke="black" points="0.5,-322 0.5,-337 97.5,-337 97.5,-322 0.5,-322"/>
<text text-anchor="start" x="28.5" y="-327.6" font-family="courier new" font-size="8.00">terraform</text>
<polygon fill="none" stroke="black" points="0.5,-307 0.5,-322 97.5,-322 97.5,-307 0.5,-307"/>
<text text-anchor="start" x="3.5" y="-312.6" font-family="courier new" font-size="8.00">io/hashicorp/http\&quot;]</text>
</g>
<!-- [root] data.http.awxoperatormanifestfile (expand)&#45;&gt;[root] provider[&quot;registry.terraform.io/hashicorp/http&quot;] -->
<g id="edge_0" class="edge">
<title>[root] data.http.awxoperatormanifestfile (expand)&#45;&gt;[root] provider[&quot;registry.terraform.io/hashicorp/http&quot;]</title>
<path fill="none" stroke="black" d="M108.72,-375.7C98.75,-366.97 86.49,-356.24 75.64,-346.75"/>
<polygon fill="black" stroke="black" points="77.88,-344.06 68.05,-340.1 73.27,-349.32 77.88,-344.06"/>
</g>
<!-- [root] var.awx_version -->
<g id="node_8" class="node">
<title>[root] var.awx_version</title>
<polygon fill="none" stroke="black" points="115.5,-322 115.5,-337 171.5,-337 171.5,-322 115.5,-322"/>
<text text-anchor="start" x="136.5" y="-327.6" font-family="courier new" font-size="8.00">var</text>
<polygon fill="none" stroke="black" points="115.5,-307 115.5,-322 171.5,-322 171.5,-307 115.5,-307"/>
<text text-anchor="start" x="118.5" y="-312.6" font-family="courier new" font-size="8.00">awx_version</text>
</g>
<!-- [root] data.http.awxoperatormanifestfile (expand)&#45;&gt;[root] var.awx_version -->
<g id="edge_1" class="edge">
<title>[root] data.http.awxoperatormanifestfile (expand)&#45;&gt;[root] var.awx_version</title>
<path fill="none" stroke="black" d="M132.21,-375.7C133.86,-367.98 135.85,-358.71 137.69,-350.11"/>
<polygon fill="black" stroke="black" points="141.16,-350.62 139.83,-340.1 134.32,-349.15 141.16,-350.62"/>
</g>
<!-- [root] data.kubectl_file_documents.awxoperatordocs (expand) -->
<g id="node_1" class="node">
<title>[root] data.kubectl_file_documents.awxoperatordocs (expand)</title>
<polygon fill="none" stroke="black" points="144.5,-466 144.5,-481 250.5,-481 250.5,-466 144.5,-466"/>
<text text-anchor="start" x="147.5" y="-471.6" font-family="courier new" font-size="8.00">kubectl_file_documents</text>
<polygon fill="none" stroke="black" points="144.5,-451 144.5,-466 250.5,-466 250.5,-451 144.5,-451"/>
<text text-anchor="start" x="163.5" y="-456.6" font-family="courier new" font-size="8.00">awxoperatordocs</text>
</g>
<!-- [root] data.kubectl_file_documents.awxoperatordocs (expand)&#45;&gt;[root] data.http.awxoperatormanifestfile (expand) -->
<g id="edge_2" class="edge">
<title>[root] data.kubectl_file_documents.awxoperatordocs (expand)&#45;&gt;[root] data.http.awxoperatormanifestfile (expand)</title>
<path fill="none" stroke="black" d="M180.44,-447.7C172,-439.14 161.68,-428.66 152.46,-419.3"/>
<polygon fill="black" stroke="black" points="154.87,-416.77 145.36,-412.1 149.89,-421.68 154.87,-416.77"/>
</g>
<!-- [root] provider[&quot;registry.terraform.io/gavinbunney/kubectl&quot;] -->
<g id="node_5" class="node">
<title>[root] provider[&quot;registry.terraform.io/gavinbunney/kubectl&quot;]</title>
<polygon fill="none" stroke="black" points="215.5,-394 215.5,-409 334.5,-409 334.5,-394 215.5,-394"/>
<text text-anchor="start" x="254.5" y="-399.6" font-family="courier new" font-size="8.00">terraform</text>
<polygon fill="none" stroke="black" points="215.5,-379 215.5,-394 334.5,-394 334.5,-379 215.5,-379"/>
<text text-anchor="start" x="218.5" y="-384.6" font-family="courier new" font-size="8.00">io/gavinbunney/kubectl\&quot;]</text>
</g>
<!-- [root] data.kubectl_file_documents.awxoperatordocs (expand)&#45;&gt;[root] provider[&quot;registry.terraform.io/gavinbunney/kubectl&quot;] -->
<g id="edge_3" class="edge">
<title>[root] data.kubectl_file_documents.awxoperatordocs (expand)&#45;&gt;[root] provider[&quot;registry.terraform.io/gavinbunney/kubectl&quot;]</title>
<path fill="none" stroke="black" d="M216.53,-447.7C226.04,-439.05 237.71,-428.45 248.07,-419.03"/>
<polygon fill="black" stroke="black" points="250.64,-421.42 255.69,-412.1 245.93,-416.24 250.64,-421.42"/>
</g>
<!-- [root] kubectl_manifest.awx (expand) -->
<g id="node_2" class="node">
<title>[root] kubectl_manifest.awx (expand)</title>
<polygon fill="none" stroke="black" points="402.5,-538 402.5,-553 481.5,-553 481.5,-538 402.5,-538"/>
<text text-anchor="start" x="405.5" y="-543.6" font-family="courier new" font-size="8.00">kubectl_manifest</text>
<polygon fill="none" stroke="black" points="402.5,-523 402.5,-538 481.5,-538 481.5,-523 402.5,-523"/>
<text text-anchor="start" x="435" y="-528.6" font-family="courier new" font-size="8.00">awx</text>
</g>
<!-- [root] kubectl_manifest.awx (expand)&#45;&gt;[root] provider[&quot;registry.terraform.io/gavinbunney/kubectl&quot;] -->
<g id="edge_5" class="edge">
<title>[root] kubectl_manifest.awx (expand)&#45;&gt;[root] provider[&quot;registry.terraform.io/gavinbunney/kubectl&quot;]</title>
<path fill="none" stroke="black" d="M427.44,-519.73C411.6,-500.86 384.51,-470.35 357.5,-448 344.08,-436.9 328.2,-426.24 313.94,-417.43"/>
<polygon fill="black" stroke="black" points="315.68,-414.39 305.31,-412.2 312.05,-420.37 315.68,-414.39"/>
</g>
<!-- [root] local.awx_vars (expand) -->
<g id="node_15" class="node">
<title>[root] local.awx_vars (expand)</title>
<polygon fill="none" stroke="black" points="448.5,-466 448.5,-481 491.5,-481 491.5,-466 448.5,-466"/>
<text text-anchor="start" x="458.5" y="-471.6" font-family="courier new" font-size="8.00">local</text>
<polygon fill="none" stroke="black" points="448.5,-451 448.5,-466 491.5,-466 491.5,-451 448.5,-451"/>
<text text-anchor="start" x="451.5" y="-456.6" font-family="courier new" font-size="8.00">awx_vars</text>
</g>
<!-- [root] kubectl_manifest.awx (expand)&#45;&gt;[root] local.awx_vars (expand) -->
<g id="edge_4" class="edge">
<title>[root] kubectl_manifest.awx (expand)&#45;&gt;[root] local.awx_vars (expand)</title>
<path fill="none" stroke="black" d="M448.42,-519.7C451.57,-511.81 455.38,-502.3 458.88,-493.55"/>
<polygon fill="black" stroke="black" points="462.19,-494.69 462.66,-484.1 455.69,-492.09 462.19,-494.69"/>
</g>
<!-- [root] kubectl_manifest.awxnamespace (expand) -->
<g id="node_3" class="node">
<title>[root] kubectl_manifest.awxnamespace (expand)</title>
<polygon fill="none" stroke="black" points="269.5,-466 269.5,-481 348.5,-481 348.5,-466 269.5,-466"/>
<text text-anchor="start" x="272.5" y="-471.6" font-family="courier new" font-size="8.00">kubectl_manifest</text>
<polygon fill="none" stroke="black" points="269.5,-451 269.5,-466 348.5,-466 348.5,-451 269.5,-451"/>
<text text-anchor="start" x="281.5" y="-456.6" font-family="courier new" font-size="8.00">awxnamespace</text>
</g>
<!-- [root] kubectl_manifest.awxnamespace (expand)&#45;&gt;[root] provider[&quot;registry.terraform.io/gavinbunney/kubectl&quot;] -->
<g id="edge_6" class="edge">
<title>[root] kubectl_manifest.awxnamespace (expand)&#45;&gt;[root] provider[&quot;registry.terraform.io/gavinbunney/kubectl&quot;]</title>
<path fill="none" stroke="black" d="M300.1,-447.7C296.23,-439.73 291.55,-430.1 287.26,-421.26"/>
<polygon fill="black" stroke="black" points="290.33,-419.57 282.81,-412.1 284.03,-422.63 290.33,-419.57"/>
</g>
<!-- [root] var.awx_namespace -->
<g id="node_7" class="node">
<title>[root] var.awx_namespace</title>
<polygon fill="none" stroke="black" points="352.5,-394 352.5,-409 417.5,-409 417.5,-394 352.5,-394"/>
<text text-anchor="start" x="378" y="-399.6" font-family="courier new" font-size="8.00">var</text>
<polygon fill="none" stroke="black" points="352.5,-379 352.5,-394 417.5,-394 417.5,-379 352.5,-379"/>
<text text-anchor="start" x="355.5" y="-384.6" font-family="courier new" font-size="8.00">awx_namespace</text>
</g>
<!-- [root] kubectl_manifest.awxnamespace (expand)&#45;&gt;[root] var.awx_namespace -->
<g id="edge_7" class="edge">
<title>[root] kubectl_manifest.awxnamespace (expand)&#45;&gt;[root] var.awx_namespace</title>
<path fill="none" stroke="black" d="M327.29,-447.7C336.67,-439.05 348.18,-428.45 358.41,-419.03"/>
<polygon fill="black" stroke="black" points="360.95,-421.45 365.93,-412.1 356.2,-416.3 360.95,-421.45"/>
</g>
<!-- [root] kubectl_manifest.awxoperatormanifest (expand) -->
<g id="node_4" class="node">
<title>[root] kubectl_manifest.awxoperatormanifest (expand)</title>
<polygon fill="none" stroke="black" points="291.5,-538 291.5,-553 383.5,-553 383.5,-538 291.5,-538"/>
<text text-anchor="start" x="301" y="-543.6" font-family="courier new" font-size="8.00">kubectl_manifest</text>
<polygon fill="none" stroke="black" points="291.5,-523 291.5,-538 383.5,-538 383.5,-523 291.5,-523"/>
<text text-anchor="start" x="294.5" y="-528.6" font-family="courier new" font-size="8.00">awxoperatormanifest</text>
</g>
<!-- [root] kubectl_manifest.awxoperatormanifest (expand)&#45;&gt;[root] data.kubectl_file_documents.awxoperatordocs (expand) -->
<g id="edge_8" class="edge">
<title>[root] kubectl_manifest.awxoperatormanifest (expand)&#45;&gt;[root] data.kubectl_file_documents.awxoperatordocs (expand)</title>
<path fill="none" stroke="black" d="M303.25,-519.88C284.44,-510.47 260.92,-498.71 240.83,-488.67"/>
<polygon fill="black" stroke="black" points="242.39,-485.53 231.88,-484.19 239.26,-491.79 242.39,-485.53"/>
</g>
<!-- [root] kubectl_manifest.awxoperatormanifest (expand)&#45;&gt;[root] var.awx_namespace -->
<g id="edge_9" class="edge">
<title>[root] kubectl_manifest.awxoperatormanifest (expand)&#45;&gt;[root] var.awx_namespace</title>
<path fill="none" stroke="black" d="M344.28,-519.92C348.29,-509.58 353.38,-496.1 357.5,-484 364.54,-463.3 371.69,-439.59 376.86,-421.86"/>
<polygon fill="black" stroke="black" points="380.24,-422.75 379.66,-412.17 373.52,-420.8 380.24,-422.75"/>
</g>
<!-- [root] var.client_certificate -->
<g id="node_9" class="node">
<title>[root] var.client_certificate</title>
<polygon fill="none" stroke="black" points="230.5,-322 230.5,-337 318.5,-337 318.5,-322 230.5,-322"/>
<text text-anchor="start" x="267.5" y="-327.6" font-family="courier new" font-size="8.00">var</text>
<polygon fill="none" stroke="black" points="230.5,-307 230.5,-322 318.5,-322 318.5,-307 230.5,-307"/>
<text text-anchor="start" x="233.5" y="-312.6" font-family="courier new" font-size="8.00">client_certificate</text>
</g>
<!-- [root] provider[&quot;registry.terraform.io/gavinbunney/kubectl&quot;]&#45;&gt;[root] var.client_certificate -->
<g id="edge_15" class="edge">
<title>[root] provider[&quot;registry.terraform.io/gavinbunney/kubectl&quot;]&#45;&gt;[root] var.client_certificate</title>
<path fill="none" stroke="black" d="M274.5,-375.7C274.5,-367.98 274.5,-358.71 274.5,-350.11"/>
<polygon fill="black" stroke="black" points="278,-350.1 274.5,-340.1 271,-350.1 278,-350.1"/>
</g>
<!-- [root] local.awx_vars (expand)&#45;&gt;[root] var.awx_namespace -->
<g id="edge_10" class="edge">
<title>[root] local.awx_vars (expand)&#45;&gt;[root] var.awx_namespace</title>
<path fill="none" stroke="black" d="M448.49,-447.7C437.78,-438.88 424.61,-428.03 413,-418.47"/>
<polygon fill="black" stroke="black" points="415.21,-415.76 405.27,-412.1 410.76,-421.16 415.21,-415.76"/>
</g>
<!-- [root] var.domainname -->
<g id="node_13" class="node">
<title>[root] var.domainname</title>
<polygon fill="none" stroke="black" points="443.5,-394 443.5,-409 495.5,-409 495.5,-394 443.5,-394"/>
<text text-anchor="start" x="462.5" y="-399.6" font-family="courier new" font-size="8.00">var</text>
<polygon fill="none" stroke="black" points="443.5,-379 443.5,-394 495.5,-394 495.5,-379 443.5,-379"/>
<text text-anchor="start" x="446.5" y="-384.6" font-family="courier new" font-size="8.00">domainname</text>
</g>
<!-- [root] local.awx_vars (expand)&#45;&gt;[root] var.domainname -->
<g id="edge_11" class="edge">
<title>[root] local.awx_vars (expand)&#45;&gt;[root] var.domainname</title>
<path fill="none" stroke="black" d="M469.5,-447.7C469.5,-439.98 469.5,-430.71 469.5,-422.11"/>
<polygon fill="black" stroke="black" points="473,-422.1 469.5,-412.1 466,-422.1 473,-422.1"/>
</g>
<!-- [root] provider[&quot;registry.terraform.io/gavinbunney/kubectl&quot;] (close) -->
<g id="node_16" class="node">
<title>[root] provider[&quot;registry.terraform.io/gavinbunney/kubectl&quot;] (close)</title>
<polygon fill="none" stroke="black" points="248.5,-610 248.5,-625 367.5,-625 367.5,-610 248.5,-610"/>
<text text-anchor="start" x="287.5" y="-615.6" font-family="courier new" font-size="8.00">terraform</text>
<polygon fill="none" stroke="black" points="248.5,-595 248.5,-610 367.5,-610 367.5,-595 248.5,-595"/>
<text text-anchor="start" x="251.5" y="-600.6" font-family="courier new" font-size="8.00">io/gavinbunney/kubectl\&quot;]</text>
</g>
<!-- [root] provider[&quot;registry.terraform.io/gavinbunney/kubectl&quot;] (close)&#45;&gt;[root] kubectl_manifest.awx (expand) -->
<g id="edge_12" class="edge">
<title>[root] provider[&quot;registry.terraform.io/gavinbunney/kubectl&quot;] (close)&#45;&gt;[root] kubectl_manifest.awx (expand)</title>
<path fill="none" stroke="black" d="M340.28,-591.88C358.13,-582.55 380.4,-570.92 399.5,-560.94"/>
<polygon fill="black" stroke="black" points="401.35,-563.92 408.59,-556.19 398.11,-557.72 401.35,-563.92"/>
</g>
<!-- [root] provider[&quot;registry.terraform.io/gavinbunney/kubectl&quot;] (close)&#45;&gt;[root] kubectl_manifest.awxnamespace (expand) -->
<g id="edge_13" class="edge">
<title>[root] provider[&quot;registry.terraform.io/gavinbunney/kubectl&quot;] (close)&#45;&gt;[root] kubectl_manifest.awxnamespace (expand)</title>
<path fill="none" stroke="black" d="M296.87,-591.56C291.4,-581.54 285.3,-568.51 282.5,-556 279,-540.39 278.88,-535.59 282.5,-520 284.6,-510.96 288.47,-501.68 292.59,-493.47"/>
<polygon fill="black" stroke="black" points="295.81,-494.86 297.45,-484.39 289.64,-491.55 295.81,-494.86"/>
</g>
<!-- [root] provider[&quot;registry.terraform.io/gavinbunney/kubectl&quot;] (close)&#45;&gt;[root] kubectl_manifest.awxoperatormanifest (expand) -->
<g id="edge_14" class="edge">
<title>[root] provider[&quot;registry.terraform.io/gavinbunney/kubectl&quot;] (close)&#45;&gt;[root] kubectl_manifest.awxoperatormanifest (expand)</title>
<path fill="none" stroke="black" d="M314.92,-591.7C318.29,-583.81 322.37,-574.3 326.12,-565.55"/>
<polygon fill="black" stroke="black" points="329.45,-566.67 330.17,-556.1 323.01,-563.92 329.45,-566.67"/>
</g>
<!-- [root] provider[&quot;registry.terraform.io/hashicorp/http&quot;] (close) -->
<g id="node_17" class="node">
<title>[root] provider[&quot;registry.terraform.io/hashicorp/http&quot;] (close)</title>
<polygon fill="none" stroke="black" points="99.5,-610 99.5,-625 196.5,-625 196.5,-610 99.5,-610"/>
<text text-anchor="start" x="127.5" y="-615.6" font-family="courier new" font-size="8.00">terraform</text>
<polygon fill="none" stroke="black" points="99.5,-595 99.5,-610 196.5,-610 196.5,-595 99.5,-595"/>
<text text-anchor="start" x="102.5" y="-600.6" font-family="courier new" font-size="8.00">io/hashicorp/http\&quot;]</text>
</g>
<!-- [root] provider[&quot;registry.terraform.io/hashicorp/http&quot;] (close)&#45;&gt;[root] data.http.awxoperatormanifestfile (expand) -->
<g id="edge_20" class="edge">
<title>[root] provider[&quot;registry.terraform.io/hashicorp/http&quot;] (close)&#45;&gt;[root] data.http.awxoperatormanifestfile (expand)</title>
<path fill="none" stroke="black" d="M145.74,-591.62C143.31,-567.48 138.86,-522.44 135.5,-484 133.69,-463.29 131.86,-439.84 130.52,-422.21"/>
<polygon fill="black" stroke="black" points="134,-421.78 129.75,-412.07 127.02,-422.3 134,-421.78"/>
</g>
<!-- [root] root -->
<g id="node_18" class="node">
<title>[root] root</title>
<polygon fill="none" stroke="black" points="243.5,-700 177.5,-700 177.5,-664 243.5,-664 243.5,-700"/>
<text text-anchor="middle" x="210.5" y="-680.1" font-family="courier new" font-size="8.00">[root] root</text>
</g>
<!-- [root] root&#45;&gt;[root] provider[&quot;registry.terraform.io/gavinbunney/kubectl&quot;] (close) -->
<g id="edge_21" class="edge">
<title>[root] root&#45;&gt;[root] provider[&quot;registry.terraform.io/gavinbunney/kubectl&quot;] (close)</title>
<path fill="none" stroke="black" d="M234.48,-663.7C246.81,-654.8 262.02,-643.82 275.35,-634.2"/>
<polygon fill="black" stroke="black" points="277.74,-636.79 283.8,-628.1 273.64,-631.12 277.74,-636.79"/>
</g>
<!-- [root] root&#45;&gt;[root] provider[&quot;registry.terraform.io/hashicorp/http&quot;] (close) -->
<g id="edge_22" class="edge">
<title>[root] root&#45;&gt;[root] provider[&quot;registry.terraform.io/hashicorp/http&quot;] (close)</title>
<path fill="none" stroke="black" d="M194.93,-663.7C187.3,-655.22 177.98,-644.86 169.62,-635.58"/>
<polygon fill="black" stroke="black" points="172.19,-633.2 162.89,-628.1 166.98,-637.88 172.19,-633.2"/>
</g>
<!-- [root] var.client_key -->
<g id="node_10" class="node">
<title>[root] var.client_key</title>
<polygon fill="none" stroke="black" points="248.5,-250 248.5,-265 300.5,-265 300.5,-250 248.5,-250"/>
<text text-anchor="start" x="267.5" y="-255.6" font-family="courier new" font-size="8.00">var</text>
<polygon fill="none" stroke="black" points="248.5,-235 248.5,-250 300.5,-250 300.5,-235 248.5,-235"/>
<text text-anchor="start" x="251.5" y="-240.6" font-family="courier new" font-size="8.00">client_key</text>
</g>
<!-- [root] var.client_certificate&#45;&gt;[root] var.client_key -->
<g id="edge_23" class="edge">
<title>[root] var.client_certificate&#45;&gt;[root] var.client_key</title>
<path fill="none" stroke="black" stroke-dasharray="5,2" d="M274.5,-303.7C274.5,-292.85 274.5,-278.92 274.5,-268.1"/>
</g>
<!-- [root] var.cluster_ca_certificate -->
<g id="node_11" class="node">
<title>[root] var.cluster_ca_certificate</title>
<polygon fill="none" stroke="black" points="221.5,-178 221.5,-193 327.5,-193 327.5,-178 221.5,-178"/>
<text text-anchor="start" x="267.5" y="-183.6" font-family="courier new" font-size="8.00">var</text>
<polygon fill="none" stroke="black" points="221.5,-163 221.5,-178 327.5,-178 327.5,-163 221.5,-163"/>
<text text-anchor="start" x="224.5" y="-168.6" font-family="courier new" font-size="8.00">cluster_ca_certificate</text>
</g>
<!-- [root] var.client_key&#45;&gt;[root] var.cluster_ca_certificate -->
<g id="edge_24" class="edge">
<title>[root] var.client_key&#45;&gt;[root] var.cluster_ca_certificate</title>
<path fill="none" stroke="black" stroke-dasharray="5,2" d="M274.5,-231.7C274.5,-220.85 274.5,-206.92 274.5,-196.1"/>
</g>
<!-- [root] var.cluster_token -->
<g id="node_12" class="node">
<title>[root] var.cluster_token</title>
<polygon fill="none" stroke="black" points="242.5,-106 242.5,-121 307.5,-121 307.5,-106 242.5,-106"/>
<text text-anchor="start" x="268" y="-111.6" font-family="courier new" font-size="8.00">var</text>
<polygon fill="none" stroke="black" points="242.5,-91 242.5,-106 307.5,-106 307.5,-91 242.5,-91"/>
<text text-anchor="start" x="245.5" y="-96.6" font-family="courier new" font-size="8.00">cluster_token</text>
</g>
<!-- [root] var.cluster_ca_certificate&#45;&gt;[root] var.cluster_token -->
<g id="edge_25" class="edge">
<title>[root] var.cluster_ca_certificate&#45;&gt;[root] var.cluster_token</title>
<path fill="none" stroke="black" stroke-dasharray="5,2" d="M274.5,-159.7C274.5,-148.85 274.5,-134.92 274.5,-124.1"/>
</g>
<!-- [root] var.kubernetes_host -->
<g id="node_14" class="node">
<title>[root] var.kubernetes_host</title>
<polygon fill="none" stroke="black" points="237.5,-34 237.5,-49 311.5,-49 311.5,-34 237.5,-34"/>
<text text-anchor="start" x="267.5" y="-39.6" font-family="courier new" font-size="8.00">var</text>
<polygon fill="none" stroke="black" points="237.5,-19 237.5,-34 311.5,-34 311.5,-19 237.5,-19"/>
<text text-anchor="start" x="240.5" y="-24.6" font-family="courier new" font-size="8.00">kubernetes_host</text>
</g>
<!-- [root] var.cluster_token&#45;&gt;[root] var.kubernetes_host -->
<g id="edge_26" class="edge">
<title>[root] var.cluster_token&#45;&gt;[root] var.kubernetes_host</title>
<path fill="none" stroke="black" stroke-dasharray="5,2" d="M274.5,-87.7C274.5,-76.85 274.5,-62.92 274.5,-52.1"/>
</g>
</g>
</svg>

