<?xml version="1.0" encoding="UTF-8" standalone="no"?>
<!DOCTYPE svg PUBLIC "-//W3C//DTD SVG 1.1//EN"
 "http://www.w3.org/Graphics/SVG/1.1/DTD/svg11.dtd">
<!-- Generated by graphviz version 2.43.0 (0)
 -->
<!-- Title: %3 Pages: 1 -->
<svg width="404pt" height="708pt"
 viewBox="0.00 0.00 403.50 708.00" xmlns="http://www.w3.org/2000/svg" xmlns:xlink="http://www.w3.org/1999/xlink">
<g id="graph0" class="graph" transform="scale(1 1) rotate(0) translate(4 704)">
<title>%3</title>
<polygon fill="white" stroke="transparent" points="-4,4 -4,-704 399.5,-704 399.5,4 -4,4"/>
<g id="clust2" class="cluster">
<title>cluster[root] data.http.awxoperatormanifestfile (expand)_var_</title>
</g>
<g id="clust3" class="cluster">
<title>cluster[root] provider[&quot;registry.terraform.io/gavinbunney/kubectl&quot;]_var_</title>
</g>
<!-- [root] data.http.awxoperatormanifestfile (expand) -->
<g id="node_0" class="node">
<title>[root] data.http.awxoperatormanifestfile (expand)</title>
<polygon fill="none" stroke="black" points="36,-394 36,-409 146,-409 146,-394 36,-394"/>
<text text-anchor="start" x="81.5" y="-399.6" font-family="courier new" font-size="8.00">http</text>
<polygon fill="none" stroke="black" points="36,-379 36,-394 146,-394 146,-379 36,-379"/>
<text text-anchor="start" x="39" y="-384.6" font-family="courier new" font-size="8.00">awxoperatormanifestfile</text>
</g>
<!-- [root] provider[&quot;registry.terraform.io/hashicorp/http&quot;] -->
<g id="node_6" class="node">
<title>[root] provider[&quot;registry.terraform.io/hashicorp/http&quot;]</title>
<polygon fill="none" stroke="black" points="91,-322 91,-337 188,-337 188,-322 91,-322"/>
<text text-anchor="start" x="119" y="-327.6" font-family="courier new" font-size="8.00">terraform</text>
<polygon fill="none" stroke="black" points="91,-307 91,-322 188,-322 188,-307 91,-307"/>
<text text-anchor="start" x="94" y="-312.6" font-family="courier new" font-size="8.00">io/hashicorp/http\&quot;]</text>
</g>
<!-- [root] data.http.awxoperatormanifestfile (expand)&#45;&gt;[root] provider[&quot;registry.terraform.io/hashicorp/http&quot;] -->
<g id="edge_0" class="edge">
<title>[root] data.http.awxoperatormanifestfile (expand)&#45;&gt;[root] provider[&quot;registry.terraform.io/hashicorp/http&quot;]</title>
<path fill="none" stroke="black" d="M102.87,-375.7C108.5,-367.47 115.35,-357.48 121.57,-348.42"/>
<polygon fill="black" stroke="black" points="124.5,-350.33 127.27,-340.1 118.73,-346.37 124.5,-350.33"/>
</g>
<!-- [root] var.awx_version -->
<g id="node_8" class="node">
<title>[root] var.awx_version</title>
<polygon fill="none" stroke="black" points="16,-322 16,-337 72,-337 72,-322 16,-322"/>
<text text-anchor="start" x="37" y="-327.6" font-family="courier new" font-size="8.00">var</text>
<polygon fill="none" stroke="black" points="16,-307 16,-322 72,-322 72,-307 16,-307"/>
<text text-anchor="start" x="19" y="-312.6" font-family="courier new" font-size="8.00">awx_version</text>
</g>
<!-- [root] data.http.awxoperatormanifestfile (expand)&#45;&gt;[root] var.awx_version -->
<g id="edge_1" class="edge">
<title>[root] data.http.awxoperatormanifestfile (expand)&#45;&gt;[root] var.awx_version</title>
<path fill="none" stroke="black" d="M79.38,-375.7C73.86,-367.47 67.15,-357.48 61.07,-348.42"/>
<polygon fill="black" stroke="black" points="63.96,-346.46 55.48,-340.1 58.15,-350.36 63.96,-346.46"/>
</g>
<!-- [root] data.kubectl_file_documents.awxoperatordocs (expand) -->
<g id="node_1" class="node">
<title>[root] data.kubectl_file_documents.awxoperatordocs (expand)</title>
<polygon fill="none" stroke="black" points="102,-466 102,-481 208,-481 208,-466 102,-466"/>
<text text-anchor="start" x="105" y="-471.6" font-family="courier new" font-size="8.00">kubectl_file_documents</text>
<polygon fill="none" stroke="black" points="102,-451 102,-466 208,-466 208,-451 102,-451"/>
<text text-anchor="start" x="121" y="-456.6" font-family="courier new" font-size="8.00">awxoperatordocs</text>
</g>
<!-- [root] data.kubectl_file_documents.awxoperatordocs (expand)&#45;&gt;[root] data.http.awxoperatormanifestfile (expand) -->
<g id="edge_2" class="edge">
<title>[root] data.kubectl_file_documents.awxoperatordocs (expand)&#45;&gt;[root] data.http.awxoperatormanifestfile (expand)</title>
<path fill="none" stroke="black" d="M139.18,-447.7C131.43,-439.22 121.96,-428.86 113.48,-419.58"/>
<polygon fill="black" stroke="black" points="115.97,-417.12 106.64,-412.1 110.8,-421.85 115.97,-417.12"/>
</g>
<!-- [root] provider[&quot;registry.terraform.io/gavinbunney/kubectl&quot;] -->
<g id="node_5" class="node">
<title>[root] provider[&quot;registry.terraform.io/gavinbunney/kubectl&quot;]</title>
<polygon fill="none" stroke="black" points="261,-394 261,-409 380,-409 380,-394 261,-394"/>
<text text-anchor="start" x="300" y="-399.6" font-family="courier new" font-size="8.00">terraform</text>
<polygon fill="none" stroke="black" points="261,-379 261,-394 380,-394 380,-379 261,-379"/>
<text text-anchor="start" x="264" y="-384.6" font-family="courier new" font-size="8.00">io/gavinbunney/kubectl\&quot;]</text>
</g>
<!-- [root] data.kubectl_file_documents.awxoperatordocs (expand)&#45;&gt;[root] provider[&quot;registry.terraform.io/gavinbunney/kubectl&quot;] -->
<g id="edge_3" class="edge">
<title>[root] data.kubectl_file_documents.awxoperatordocs (expand)&#45;&gt;[root] provider[&quot;registry.terraform.io/gavinbunney/kubectl&quot;]</title>
<path fill="none" stroke="black" d="M195.36,-447.88C218.02,-438.26 246.47,-426.19 270.47,-416.01"/>
<polygon fill="black" stroke="black" points="271.93,-419.2 279.77,-412.07 269.19,-412.75 271.93,-419.2"/>
</g>
<!-- [root] kubectl_manifest.awx (expand) -->
<g id="node_2" class="node">
<title>[root] kubectl_manifest.awx (expand)</title>
<polygon fill="none" stroke="black" points="220,-538 220,-553 299,-553 299,-538 220,-538"/>
<text text-anchor="start" x="223" y="-543.6" font-family="courier new" font-size="8.00">kubectl_manifest</text>
<polygon fill="none" stroke="black" points="220,-523 220,-538 299,-538 299,-523 220,-523"/>
<text text-anchor="start" x="252.5" y="-528.6" font-family="courier new" font-size="8.00">awx</text>
</g>
<!-- [root] kubectl_manifest.awx (expand)&#45;&gt;[root] provider[&quot;registry.terraform.io/gavinbunney/kubectl&quot;] -->
<g id="edge_4" class="edge">
<title>[root] kubectl_manifest.awx (expand)&#45;&gt;[root] provider[&quot;registry.terraform.io/gavinbunney/kubectl&quot;]</title>
<path fill="none" stroke="black" d="M276.04,-519.76C284.75,-510.02 294.8,-497.17 301,-484 310.23,-464.4 315.02,-440.27 317.48,-422.08"/>
<polygon fill="black" stroke="black" points="320.96,-422.49 318.68,-412.14 314.01,-421.65 320.96,-422.49"/>
</g>
<!-- [root] var.awx_namespace -->
<g id="node_7" class="node">
<title>[root] var.awx_namespace</title>
<polygon fill="none" stroke="black" points="227,-466 227,-481 292,-481 292,-466 227,-466"/>
<text text-anchor="start" x="252.5" y="-471.6" font-family="courier new" font-size="8.00">var</text>
<polygon fill="none" stroke="black" points="227,-451 227,-466 292,-466 292,-451 227,-451"/>
<text text-anchor="start" x="230" y="-456.6" font-family="courier new" font-size="8.00">awx_namespace</text>
</g>
<!-- [root] kubectl_manifest.awx (expand)&#45;&gt;[root] var.awx_namespace -->
<g id="edge_5" class="edge">
<title>[root] kubectl_manifest.awx (expand)&#45;&gt;[root] var.awx_namespace</title>
<path fill="none" stroke="black" d="M259,-519.7C259,-511.98 259,-502.71 259,-494.11"/>
<polygon fill="black" stroke="black" points="262.5,-494.1 259,-484.1 255.5,-494.1 262.5,-494.1"/>
</g>
<!-- [root] kubectl_manifest.awxnamespace (expand) -->
<g id="node_3" class="node">
<title>[root] kubectl_manifest.awxnamespace (expand)</title>
<polygon fill="none" stroke="black" points="317,-538 317,-553 396,-553 396,-538 317,-538"/>
<text text-anchor="start" x="320" y="-543.6" font-family="courier new" font-size="8.00">kubectl_manifest</text>
<polygon fill="none" stroke="black" points="317,-523 317,-538 396,-538 396,-523 317,-523"/>
<text text-anchor="start" x="329" y="-528.6" font-family="courier new" font-size="8.00">awxnamespace</text>
</g>
<!-- [root] kubectl_manifest.awxnamespace (expand)&#45;&gt;[root] provider[&quot;registry.terraform.io/gavinbunney/kubectl&quot;] -->
<g id="edge_6" class="edge">
<title>[root] kubectl_manifest.awxnamespace (expand)&#45;&gt;[root] provider[&quot;registry.terraform.io/gavinbunney/kubectl&quot;]</title>
<path fill="none" stroke="black" d="M351.86,-519.92C347.5,-501.99 340.39,-472.98 334,-448 331.85,-439.57 329.44,-430.41 327.25,-422.1"/>
<polygon fill="black" stroke="black" points="330.56,-420.93 324.61,-412.17 323.79,-422.73 330.56,-420.93"/>
</g>
<!-- [root] kubectl_manifest.awxnamespace (expand)&#45;&gt;[root] var.awx_namespace -->
<g id="edge_7" class="edge">
<title>[root] kubectl_manifest.awxnamespace (expand)&#45;&gt;[root] var.awx_namespace</title>
<path fill="none" stroke="black" d="M332.02,-519.7C319.69,-510.8 304.48,-499.82 291.15,-490.2"/>
<polygon fill="black" stroke="black" points="292.86,-487.12 282.7,-484.1 288.76,-492.79 292.86,-487.12"/>
</g>
<!-- [root] kubectl_manifest.awxoperatormanifest (expand) -->
<g id="node_4" class="node">
<title>[root] kubectl_manifest.awxoperatormanifest (expand)</title>
<polygon fill="none" stroke="black" points="109,-538 109,-553 201,-553 201,-538 109,-538"/>
<text text-anchor="start" x="118.5" y="-543.6" font-family="courier new" font-size="8.00">kubectl_manifest</text>
<polygon fill="none" stroke="black" points="109,-523 109,-538 201,-538 201,-523 109,-523"/>
<text text-anchor="start" x="112" y="-528.6" font-family="courier new" font-size="8.00">awxoperatormanifest</text>
</g>
<!-- [root] kubectl_manifest.awxoperatormanifest (expand)&#45;&gt;[root] data.kubectl_file_documents.awxoperatordocs (expand) -->
<g id="edge_8" class="edge">
<title>[root] kubectl_manifest.awxoperatormanifest (expand)&#45;&gt;[root] data.kubectl_file_documents.awxoperatordocs (expand)</title>
<path fill="none" stroke="black" d="M155,-519.7C155,-511.98 155,-502.71 155,-494.11"/>
<polygon fill="black" stroke="black" points="158.5,-494.1 155,-484.1 151.5,-494.1 158.5,-494.1"/>
</g>
<!-- [root] kubectl_manifest.awxoperatormanifest (expand)&#45;&gt;[root] var.awx_namespace -->
<g id="edge_9" class="edge">
<title>[root] kubectl_manifest.awxoperatormanifest (expand)&#45;&gt;[root] var.awx_namespace</title>
<path fill="none" stroke="black" d="M180.44,-519.88C193.79,-510.89 210.32,-499.76 224.78,-490.03"/>
<polygon fill="black" stroke="black" points="227.12,-492.68 233.46,-484.19 223.21,-486.87 227.12,-492.68"/>
</g>
<!-- [root] var.client_certificate -->
<g id="node_9" class="node">
<title>[root] var.client_certificate</title>
<polygon fill="none" stroke="black" points="276,-322 276,-337 364,-337 364,-322 276,-322"/>
<text text-anchor="start" x="313" y="-327.6" font-family="courier new" font-size="8.00">var</text>
<polygon fill="none" stroke="black" points="276,-307 276,-322 364,-322 364,-307 276,-307"/>
<text text-anchor="start" x="279" y="-312.6" font-family="courier new" font-size="8.00">client_certificate</text>
</g>
<!-- [root] provider[&quot;registry.terraform.io/gavinbunney/kubectl&quot;]&#45;&gt;[root] var.client_certificate -->
<g id="edge_13" class="edge">
<title>[root] provider[&quot;registry.terraform.io/gavinbunney/kubectl&quot;]&#45;&gt;[root] var.client_certificate</title>
<path fill="none" stroke="black" d="M320,-375.7C320,-367.98 320,-358.71 320,-350.11"/>
<polygon fill="black" stroke="black" points="323.5,-350.1 320,-340.1 316.5,-350.1 323.5,-350.1"/>
</g>
<!-- [root] provider[&quot;registry.terraform.io/gavinbunney/kubectl&quot;] (close) -->
<g id="node_14" class="node">
<title>[root] provider[&quot;registry.terraform.io/gavinbunney/kubectl&quot;] (close)</title>
<polygon fill="none" stroke="black" points="185,-610 185,-625 304,-625 304,-610 185,-610"/>
<text text-anchor="start" x="224" y="-615.6" font-family="courier new" font-size="8.00">terraform</text>
<polygon fill="none" stroke="black" points="185,-595 185,-610 304,-610 304,-595 185,-595"/>
<text text-anchor="start" x="188" y="-600.6" font-family="courier new" font-size="8.00">io/gavinbunney/kubectl\&quot;]</text>
</g>
<!-- [root] provider[&quot;registry.terraform.io/gavinbunney/kubectl&quot;] (close)&#45;&gt;[root] kubectl_manifest.awx (expand) -->
<g id="edge_10" class="edge">
<title>[root] provider[&quot;registry.terraform.io/gavinbunney/kubectl&quot;] (close)&#45;&gt;[root] kubectl_manifest.awx (expand)</title>
<path fill="none" stroke="black" d="M247.71,-591.7C249.36,-583.98 251.35,-574.71 253.19,-566.11"/>
<polygon fill="black" stroke="black" points="256.66,-566.62 255.33,-556.1 249.82,-565.15 256.66,-566.62"/>
</g>
<!-- [root] provider[&quot;registry.terraform.io/gavinbunney/kubectl&quot;] (close)&#45;&gt;[root] kubectl_manifest.awxnamespace (expand) -->
<g id="edge_11" class="edge">
<title>[root] provider[&quot;registry.terraform.io/gavinbunney/kubectl&quot;] (close)&#45;&gt;[root] kubectl_manifest.awxnamespace (expand)</title>
<path fill="none" stroke="black" d="M271.4,-591.88C285.91,-582.81 303.92,-571.55 319.59,-561.76"/>
<polygon fill="black" stroke="black" points="321.87,-564.46 328.5,-556.19 318.16,-558.52 321.87,-564.46"/>
</g>
<!-- [root] provider[&quot;registry.terraform.io/gavinbunney/kubectl&quot;] (close)&#45;&gt;[root] kubectl_manifest.awxoperatormanifest (expand) -->
<g id="edge_12" class="edge">
<title>[root] provider[&quot;registry.terraform.io/gavinbunney/kubectl&quot;] (close)&#45;&gt;[root] kubectl_manifest.awxoperatormanifest (expand)</title>
<path fill="none" stroke="black" d="M222,-591.7C210.79,-582.88 197,-572.03 184.85,-562.47"/>
<polygon fill="black" stroke="black" points="186.77,-559.54 176.75,-556.1 182.44,-565.04 186.77,-559.54"/>
</g>
<!-- [root] provider[&quot;registry.terraform.io/hashicorp/http&quot;] (close) -->
<g id="node_15" class="node">
<title>[root] provider[&quot;registry.terraform.io/hashicorp/http&quot;] (close)</title>
<polygon fill="none" stroke="black" points="55,-610 55,-625 152,-625 152,-610 55,-610"/>
<text text-anchor="start" x="83" y="-615.6" font-family="courier new" font-size="8.00">terraform</text>
<polygon fill="none" stroke="black" points="55,-595 55,-610 152,-610 152,-595 55,-595"/>
<text text-anchor="start" x="58" y="-600.6" font-family="courier new" font-size="8.00">io/hashicorp/http\&quot;]</text>
</g>
<!-- [root] provider[&quot;registry.terraform.io/hashicorp/http&quot;] (close)&#45;&gt;[root] data.http.awxoperatormanifestfile (expand) -->
<g id="edge_18" class="edge">
<title>[root] provider[&quot;registry.terraform.io/hashicorp/http&quot;] (close)&#45;&gt;[root] data.http.awxoperatormanifestfile (expand)</title>
<path fill="none" stroke="black" d="M101.29,-591.63C99,-567.51 94.97,-522.48 93,-484 91.94,-463.29 91.44,-439.85 91.21,-422.22"/>
<polygon fill="black" stroke="black" points="94.71,-422.03 91.09,-412.07 87.71,-422.11 94.71,-422.03"/>
</g>
<!-- [root] root -->
<g id="node_16" class="node">
<title>[root] root</title>
<polygon fill="none" stroke="black" points="199,-700 133,-700 133,-664 199,-664 199,-700"/>
<text text-anchor="middle" x="166" y="-680.1" font-family="courier new" font-size="8.00">[root] root</text>
</g>
<!-- [root] root&#45;&gt;[root] provider[&quot;registry.terraform.io/gavinbunney/kubectl&quot;] (close) -->
<g id="edge_19" class="edge">
<title>[root] root&#45;&gt;[root] provider[&quot;registry.terraform.io/gavinbunney/kubectl&quot;] (close)</title>
<path fill="none" stroke="black" d="M185.28,-663.7C194.92,-655.05 206.73,-644.45 217.23,-635.03"/>
<polygon fill="black" stroke="black" points="219.84,-637.39 224.94,-628.1 215.16,-632.18 219.84,-637.39"/>
</g>
<!-- [root] root&#45;&gt;[root] provider[&quot;registry.terraform.io/hashicorp/http&quot;] (close) -->
<g id="edge_20" class="edge">
<title>[root] root&#45;&gt;[root] provider[&quot;registry.terraform.io/hashicorp/http&quot;] (close)</title>
<path fill="none" stroke="black" d="M150.43,-663.7C142.8,-655.22 133.48,-644.86 125.12,-635.58"/>
<polygon fill="black" stroke="black" points="127.69,-633.2 118.39,-628.1 122.48,-637.88 127.69,-633.2"/>
</g>
<!-- [root] var.client_key -->
<g id="node_10" class="node">
<title>[root] var.client_key</title>
<polygon fill="none" stroke="black" points="294,-250 294,-265 346,-265 346,-250 294,-250"/>
<text text-anchor="start" x="313" y="-255.6" font-family="courier new" font-size="8.00">var</text>
<polygon fill="none" stroke="black" points="294,-235 294,-250 346,-250 346,-235 294,-235"/>
<text text-anchor="start" x="297" y="-240.6" font-family="courier new" font-size="8.00">client_key</text>
</g>
<!-- [root] var.client_certificate&#45;&gt;[root] var.client_key -->
<g id="edge_21" class="edge">
<title>[root] var.client_certificate&#45;&gt;[root] var.client_key</title>
<path fill="none" stroke="black" stroke-dasharray="5,2" d="M320,-303.7C320,-292.85 320,-278.92 320,-268.1"/>
</g>
<!-- [root] var.cluster_ca_certificate -->
<g id="node_11" class="node">
<title>[root] var.cluster_ca_certificate</title>
<polygon fill="none" stroke="black" points="267,-178 267,-193 373,-193 373,-178 267,-178"/>
<text text-anchor="start" x="313" y="-183.6" font-family="courier new" font-size="8.00">var</text>
<polygon fill="none" stroke="black" points="267,-163 267,-178 373,-178 373,-163 267,-163"/>
<text text-anchor="start" x="270" y="-168.6" font-family="courier new" font-size="8.00">cluster_ca_certificate</text>
</g>
<!-- [root] var.client_key&#45;&gt;[root] var.cluster_ca_certificate -->
<g id="edge_22" class="edge">
<title>[root] var.client_key&#45;&gt;[root] var.cluster_ca_certificate</title>
<path fill="none" stroke="black" stroke-dasharray="5,2" d="M320,-231.7C320,-220.85 320,-206.92 320,-196.1"/>
</g>
<!-- [root] var.cluster_token -->
<g id="node_12" class="node">
<title>[root] var.cluster_token</title>
<polygon fill="none" stroke="black" points="288,-106 288,-121 353,-121 353,-106 288,-106"/>
<text text-anchor="start" x="313.5" y="-111.6" font-family="courier new" font-size="8.00">var</text>
<polygon fill="none" stroke="black" points="288,-91 288,-106 353,-106 353,-91 288,-91"/>
<text text-anchor="start" x="291" y="-96.6" font-family="courier new" font-size="8.00">cluster_token</text>
</g>
<!-- [root] var.cluster_ca_certificate&#45;&gt;[root] var.cluster_token -->
<g id="edge_23" class="edge">
<title>[root] var.cluster_ca_certificate&#45;&gt;[root] var.cluster_token</title>
<path fill="none" stroke="black" stroke-dasharray="5,2" d="M320,-159.7C320,-148.85 320,-134.92 320,-124.1"/>
</g>
<!-- [root] var.kubernetes_host -->
<g id="node_13" class="node">
<title>[root] var.kubernetes_host</title>
<polygon fill="none" stroke="black" points="283,-34 283,-49 357,-49 357,-34 283,-34"/>
<text text-anchor="start" x="313" y="-39.6" font-family="courier new" font-size="8.00">var</text>
<polygon fill="none" stroke="black" points="283,-19 283,-34 357,-34 357,-19 283,-19"/>
<text text-anchor="start" x="286" y="-24.6" font-family="courier new" font-size="8.00">kubernetes_host</text>
</g>
<!-- [root] var.cluster_token&#45;&gt;[root] var.kubernetes_host -->
<g id="edge_24" class="edge">
<title>[root] var.cluster_token&#45;&gt;[root] var.kubernetes_host</title>
<path fill="none" stroke="black" stroke-dasharray="5,2" d="M320,-87.7C320,-76.85 320,-62.92 320,-52.1"/>
</g>
</g>
</svg>

