<?xml version="1.0" encoding="UTF-8" standalone="no"?>
<!DOCTYPE svg PUBLIC "-//W3C//DTD SVG 1.1//EN"
 "http://www.w3.org/Graphics/SVG/1.1/DTD/svg11.dtd">
<!-- Generated by graphviz version 2.43.0 (0)
 -->
<!-- Title: %3 Pages: 1 -->
<svg width="341pt" height="708pt"
 viewBox="0.00 0.00 341.00 708.00" xmlns="http://www.w3.org/2000/svg" xmlns:xlink="http://www.w3.org/1999/xlink">
<g id="graph0" class="graph" transform="scale(1 1) rotate(0) translate(4 704)">
<title>%3</title>
<polygon fill="white" stroke="transparent" points="-4,4 -4,-704 337,-704 337,4 -4,4"/>
<g id="clust2" class="cluster">
<title>cluster[root] data.http.awxoperatormanifestfile (expand)_var_</title>
</g>
<g id="clust3" class="cluster">
<title>cluster[root] provider[&quot;registry.terraform.io/gavinbunney/kubectl&quot;]_var_</title>
</g>
<!-- [root] data.http.awxoperatormanifestfile (expand) -->
<g id="node_0" class="node">
<title>[root] data.http.awxoperatormanifestfile (expand)</title>
<polygon fill="none" stroke="black" points="154,-394 154,-409 264,-409 264,-394 154,-394"/>
<text text-anchor="start" x="199.5" y="-399.6" font-family="courier new" font-size="8.00">http</text>
<polygon fill="none" stroke="black" points="154,-379 154,-394 264,-394 264,-379 154,-379"/>
<text text-anchor="start" x="157" y="-384.6" font-family="courier new" font-size="8.00">awxoperatormanifestfile</text>
</g>
<!-- [root] provider[&quot;registry.terraform.io/hashicorp/http&quot;] -->
<g id="node_5" class="node">
<title>[root] provider[&quot;registry.terraform.io/hashicorp/http&quot;]</title>
<polygon fill="none" stroke="black" points="146,-322 146,-337 243,-337 243,-322 146,-322"/>
<text text-anchor="start" x="174" y="-327.6" font-family="courier new" font-size="8.00">terraform</text>
<polygon fill="none" stroke="black" points="146,-307 146,-322 243,-322 243,-307 146,-307"/>
<text text-anchor="start" x="149" y="-312.6" font-family="courier new" font-size="8.00">io/hashicorp/http\&quot;]</text>
</g>
<!-- [root] data.http.awxoperatormanifestfile (expand)&#45;&gt;[root] provider[&quot;registry.terraform.io/hashicorp/http&quot;] -->
<g id="edge_0" class="edge">
<title>[root] data.http.awxoperatormanifestfile (expand)&#45;&gt;[root] provider[&quot;registry.terraform.io/hashicorp/http&quot;]</title>
<path fill="none" stroke="black" d="M205.29,-375.7C203.64,-367.98 201.65,-358.71 199.81,-350.11"/>
<polygon fill="black" stroke="black" points="203.18,-349.15 197.67,-340.1 196.34,-350.62 203.18,-349.15"/>
</g>
<!-- [root] var.awx_version -->
<g id="node_6" class="node">
<title>[root] var.awx_version</title>
<polygon fill="none" stroke="black" points="261,-322 261,-337 317,-337 317,-322 261,-322"/>
<text text-anchor="start" x="282" y="-327.6" font-family="courier new" font-size="8.00">var</text>
<polygon fill="none" stroke="black" points="261,-307 261,-322 317,-322 317,-307 261,-307"/>
<text text-anchor="start" x="264" y="-312.6" font-family="courier new" font-size="8.00">awx_version</text>
</g>
<!-- [root] data.http.awxoperatormanifestfile (expand)&#45;&gt;[root] var.awx_version -->
<g id="edge_1" class="edge">
<title>[root] data.http.awxoperatormanifestfile (expand)&#45;&gt;[root] var.awx_version</title>
<path fill="none" stroke="black" d="M228.78,-375.7C238.75,-366.97 251.01,-356.24 261.86,-346.75"/>
<polygon fill="black" stroke="black" points="264.23,-349.32 269.45,-340.1 259.62,-344.06 264.23,-349.32"/>
</g>
<!-- [root] data.kubectl_file_documents.awxoperatordocs (expand) -->
<g id="node_1" class="node">
<title>[root] data.kubectl_file_documents.awxoperatordocs (expand)</title>
<polygon fill="none" stroke="black" points="91,-466 91,-481 197,-481 197,-466 91,-466"/>
<text text-anchor="start" x="94" y="-471.6" font-family="courier new" font-size="8.00">kubectl_file_documents</text>
<polygon fill="none" stroke="black" points="91,-451 91,-466 197,-466 197,-451 91,-451"/>
<text text-anchor="start" x="110" y="-456.6" font-family="courier new" font-size="8.00">awxoperatordocs</text>
</g>
<!-- [root] data.kubectl_file_documents.awxoperatordocs (expand)&#45;&gt;[root] data.http.awxoperatormanifestfile (expand) -->
<g id="edge_2" class="edge">
<title>[root] data.kubectl_file_documents.awxoperatordocs (expand)&#45;&gt;[root] data.http.awxoperatormanifestfile (expand)</title>
<path fill="none" stroke="black" d="M160.07,-447.7C167.94,-439.22 177.56,-428.86 186.17,-419.58"/>
<polygon fill="black" stroke="black" points="188.88,-421.81 193.12,-412.1 183.75,-417.05 188.88,-421.81"/>
</g>
<!-- [root] provider[&quot;registry.terraform.io/gavinbunney/kubectl&quot;] -->
<g id="node_4" class="node">
<title>[root] provider[&quot;registry.terraform.io/gavinbunney/kubectl&quot;]</title>
<polygon fill="none" stroke="black" points="10,-394 10,-409 129,-409 129,-394 10,-394"/>
<text text-anchor="start" x="49" y="-399.6" font-family="courier new" font-size="8.00">terraform</text>
<polygon fill="none" stroke="black" points="10,-379 10,-394 129,-394 129,-379 10,-379"/>
<text text-anchor="start" x="13" y="-384.6" font-family="courier new" font-size="8.00">io/gavinbunney/kubectl\&quot;]</text>
</g>
<!-- [root] data.kubectl_file_documents.awxoperatordocs (expand)&#45;&gt;[root] provider[&quot;registry.terraform.io/gavinbunney/kubectl&quot;] -->
<g id="edge_3" class="edge">
<title>[root] data.kubectl_file_documents.awxoperatordocs (expand)&#45;&gt;[root] provider[&quot;registry.terraform.io/gavinbunney/kubectl&quot;]</title>
<path fill="none" stroke="black" d="M125.46,-447.7C116.2,-439.05 104.84,-428.45 94.74,-419.03"/>
<polygon fill="black" stroke="black" points="97.02,-416.37 87.33,-412.1 92.25,-421.49 97.02,-416.37"/>
</g>
<!-- [root] kubectl_manifest.awx (expand) -->
<g id="node_2" class="node">
<title>[root] kubectl_manifest.awx (expand)</title>
<polygon fill="none" stroke="black" points="5,-538 5,-553 84,-553 84,-538 5,-538"/>
<text text-anchor="start" x="8" y="-543.6" font-family="courier new" font-size="8.00">kubectl_manifest</text>
<polygon fill="none" stroke="black" points="5,-523 5,-538 84,-538 84,-523 5,-523"/>
<text text-anchor="start" x="37.5" y="-528.6" font-family="courier new" font-size="8.00">awx</text>
</g>
<!-- [root] kubectl_manifest.awx (expand)&#45;&gt;[root] provider[&quot;registry.terraform.io/gavinbunney/kubectl&quot;] -->
<g id="edge_4" class="edge">
<title>[root] kubectl_manifest.awx (expand)&#45;&gt;[root] provider[&quot;registry.terraform.io/gavinbunney/kubectl&quot;]</title>
<path fill="none" stroke="black" d="M47.02,-519.87C51.28,-495.67 59.1,-451.21 64.18,-422.39"/>
<polygon fill="black" stroke="black" points="67.69,-422.64 65.97,-412.19 60.79,-421.43 67.69,-422.64"/>
</g>
<!-- [root] kubectl_manifest.awxoperatormanifest (expand) -->
<g id="node_3" class="node">
<title>[root] kubectl_manifest.awxoperatormanifest (expand)</title>
<polygon fill="none" stroke="black" points="102,-538 102,-553 194,-553 194,-538 102,-538"/>
<text text-anchor="start" x="111.5" y="-543.6" font-family="courier new" font-size="8.00">kubectl_manifest</text>
<polygon fill="none" stroke="black" points="102,-523 102,-538 194,-538 194,-523 102,-523"/>
<text text-anchor="start" x="105" y="-528.6" font-family="courier new" font-size="8.00">awxoperatormanifest</text>
</g>
<!-- [root] kubectl_manifest.awxoperatormanifest (expand)&#45;&gt;[root] data.kubectl_file_documents.awxoperatordocs (expand) -->
<g id="edge_5" class="edge">
<title>[root] kubectl_manifest.awxoperatormanifest (expand)&#45;&gt;[root] data.kubectl_file_documents.awxoperatordocs (expand)</title>
<path fill="none" stroke="black" d="M147.01,-519.7C146.57,-511.98 146.04,-502.71 145.55,-494.11"/>
<polygon fill="black" stroke="black" points="149.04,-493.89 144.98,-484.1 142.05,-494.29 149.04,-493.89"/>
</g>
<!-- [root] var.client_certificate -->
<g id="node_7" class="node">
<title>[root] var.client_certificate</title>
<polygon fill="none" stroke="black" points="25,-322 25,-337 113,-337 113,-322 25,-322"/>
<text text-anchor="start" x="62" y="-327.6" font-family="courier new" font-size="8.00">var</text>
<polygon fill="none" stroke="black" points="25,-307 25,-322 113,-322 113,-307 25,-307"/>
<text text-anchor="start" x="28" y="-312.6" font-family="courier new" font-size="8.00">client_certificate</text>
</g>
<!-- [root] provider[&quot;registry.terraform.io/gavinbunney/kubectl&quot;]&#45;&gt;[root] var.client_certificate -->
<g id="edge_8" class="edge">
<title>[root] provider[&quot;registry.terraform.io/gavinbunney/kubectl&quot;]&#45;&gt;[root] var.client_certificate</title>
<path fill="none" stroke="black" d="M69,-375.7C69,-367.98 69,-358.71 69,-350.11"/>
<polygon fill="black" stroke="black" points="72.5,-350.1 69,-340.1 65.5,-350.1 72.5,-350.1"/>
</g>
<!-- [root] provider[&quot;registry.terraform.io/gavinbunney/kubectl&quot;] (close) -->
<g id="node_12" class="node">
<title>[root] provider[&quot;registry.terraform.io/gavinbunney/kubectl&quot;] (close)</title>
<polygon fill="none" stroke="black" points="40,-610 40,-625 159,-625 159,-610 40,-610"/>
<text text-anchor="start" x="79" y="-615.6" font-family="courier new" font-size="8.00">terraform</text>
<polygon fill="none" stroke="black" points="40,-595 40,-610 159,-610 159,-595 40,-595"/>
<text text-anchor="start" x="43" y="-600.6" font-family="courier new" font-size="8.00">io/gavinbunney/kubectl\&quot;]</text>
</g>
<!-- [root] provider[&quot;registry.terraform.io/gavinbunney/kubectl&quot;] (close)&#45;&gt;[root] kubectl_manifest.awx (expand) -->
<g id="edge_6" class="edge">
<title>[root] provider[&quot;registry.terraform.io/gavinbunney/kubectl&quot;] (close)&#45;&gt;[root] kubectl_manifest.awx (expand)</title>
<path fill="none" stroke="black" d="M85.4,-591.7C78.88,-583.39 70.93,-573.28 63.75,-564.14"/>
<polygon fill="black" stroke="black" points="66.37,-561.81 57.44,-556.1 60.87,-566.13 66.37,-561.81"/>
</g>
<!-- [root] provider[&quot;registry.terraform.io/gavinbunney/kubectl&quot;] (close)&#45;&gt;[root] kubectl_manifest.awxoperatormanifest (expand) -->
<g id="edge_7" class="edge">
<title>[root] provider[&quot;registry.terraform.io/gavinbunney/kubectl&quot;] (close)&#45;&gt;[root] kubectl_manifest.awxoperatormanifest (expand)</title>
<path fill="none" stroke="black" d="M111.11,-591.7C116.87,-583.47 123.86,-573.48 130.21,-564.42"/>
<polygon fill="black" stroke="black" points="133.16,-566.3 136.03,-556.1 127.42,-562.29 133.16,-566.3"/>
</g>
<!-- [root] provider[&quot;registry.terraform.io/hashicorp/http&quot;] (close) -->
<g id="node_13" class="node">
<title>[root] provider[&quot;registry.terraform.io/hashicorp/http&quot;] (close)</title>
<polygon fill="none" stroke="black" points="177,-610 177,-625 274,-625 274,-610 177,-610"/>
<text text-anchor="start" x="205" y="-615.6" font-family="courier new" font-size="8.00">terraform</text>
<polygon fill="none" stroke="black" points="177,-595 177,-610 274,-610 274,-595 177,-595"/>
<text text-anchor="start" x="180" y="-600.6" font-family="courier new" font-size="8.00">io/hashicorp/http\&quot;]</text>
</g>
<!-- [root] provider[&quot;registry.terraform.io/hashicorp/http&quot;] (close)&#45;&gt;[root] data.http.awxoperatormanifestfile (expand) -->
<g id="edge_13" class="edge">
<title>[root] provider[&quot;registry.terraform.io/hashicorp/http&quot;] (close)&#45;&gt;[root] data.http.awxoperatormanifestfile (expand)</title>
<path fill="none" stroke="black" d="M223.72,-591.85C220.95,-554.83 214.4,-467.18 211.05,-422.39"/>
<polygon fill="black" stroke="black" points="214.52,-421.94 210.29,-412.23 207.54,-422.47 214.52,-421.94"/>
</g>
<!-- [root] root -->
<g id="node_14" class="node">
<title>[root] root</title>
<polygon fill="none" stroke="black" points="195,-700 129,-700 129,-664 195,-664 195,-700"/>
<text text-anchor="middle" x="162" y="-680.1" font-family="courier new" font-size="8.00">[root] root</text>
</g>
<!-- [root] root&#45;&gt;[root] provider[&quot;registry.terraform.io/gavinbunney/kubectl&quot;] (close) -->
<g id="edge_14" class="edge">
<title>[root] root&#45;&gt;[root] provider[&quot;registry.terraform.io/gavinbunney/kubectl&quot;] (close)</title>
<path fill="none" stroke="black" d="M146.43,-663.7C138.8,-655.22 129.48,-644.86 121.12,-635.58"/>
<polygon fill="black" stroke="black" points="123.69,-633.2 114.39,-628.1 118.48,-637.88 123.69,-633.2"/>
</g>
<!-- [root] root&#45;&gt;[root] provider[&quot;registry.terraform.io/hashicorp/http&quot;] (close) -->
<g id="edge_15" class="edge">
<title>[root] root&#45;&gt;[root] provider[&quot;registry.terraform.io/hashicorp/http&quot;] (close)</title>
<path fill="none" stroke="black" d="M177.57,-663.7C185.2,-655.22 194.52,-644.86 202.88,-635.58"/>
<polygon fill="black" stroke="black" points="205.52,-637.88 209.61,-628.1 200.31,-633.2 205.52,-637.88"/>
</g>
<!-- [root] var.client_key -->
<g id="node_8" class="node">
<title>[root] var.client_key</title>
<polygon fill="none" stroke="black" points="43,-250 43,-265 95,-265 95,-250 43,-250"/>
<text text-anchor="start" x="62" y="-255.6" font-family="courier new" font-size="8.00">var</text>
<polygon fill="none" stroke="black" points="43,-235 43,-250 95,-250 95,-235 43,-235"/>
<text text-anchor="start" x="46" y="-240.6" font-family="courier new" font-size="8.00">client_key</text>
</g>
<!-- [root] var.client_certificate&#45;&gt;[root] var.client_key -->
<g id="edge_16" class="edge">
<title>[root] var.client_certificate&#45;&gt;[root] var.client_key</title>
<path fill="none" stroke="black" stroke-dasharray="5,2" d="M69,-303.7C69,-292.85 69,-278.92 69,-268.1"/>
</g>
<!-- [root] var.cluster_ca_certificate -->
<g id="node_9" class="node">
<title>[root] var.cluster_ca_certificate</title>
<polygon fill="none" stroke="black" points="16,-178 16,-193 122,-193 122,-178 16,-178"/>
<text text-anchor="start" x="62" y="-183.6" font-family="courier new" font-size="8.00">var</text>
<polygon fill="none" stroke="black" points="16,-163 16,-178 122,-178 122,-163 16,-163"/>
<text text-anchor="start" x="19" y="-168.6" font-family="courier new" font-size="8.00">cluster_ca_certificate</text>
</g>
<!-- [root] var.client_key&#45;&gt;[root] var.cluster_ca_certificate -->
<g id="edge_17" class="edge">
<title>[root] var.client_key&#45;&gt;[root] var.cluster_ca_certificate</title>
<path fill="none" stroke="black" stroke-dasharray="5,2" d="M69,-231.7C69,-220.85 69,-206.92 69,-196.1"/>
</g>
<!-- [root] var.cluster_token -->
<g id="node_10" class="node">
<title>[root] var.cluster_token</title>
<polygon fill="none" stroke="black" points="37,-106 37,-121 102,-121 102,-106 37,-106"/>
<text text-anchor="start" x="62.5" y="-111.6" font-family="courier new" font-size="8.00">var</text>
<polygon fill="none" stroke="black" points="37,-91 37,-106 102,-106 102,-91 37,-91"/>
<text text-anchor="start" x="40" y="-96.6" font-family="courier new" font-size="8.00">cluster_token</text>
</g>
<!-- [root] var.cluster_ca_certificate&#45;&gt;[root] var.cluster_token -->
<g id="edge_18" class="edge">
<title>[root] var.cluster_ca_certificate&#45;&gt;[root] var.cluster_token</title>
<path fill="none" stroke="black" stroke-dasharray="5,2" d="M69,-159.7C69,-148.85 69,-134.92 69,-124.1"/>
</g>
<!-- [root] var.kubernetes_host -->
<g id="node_11" class="node">
<title>[root] var.kubernetes_host</title>
<polygon fill="none" stroke="black" points="32,-34 32,-49 106,-49 106,-34 32,-34"/>
<text text-anchor="start" x="62" y="-39.6" font-family="courier new" font-size="8.00">var</text>
<polygon fill="none" stroke="black" points="32,-19 32,-34 106,-34 106,-19 32,-19"/>
<text text-anchor="start" x="35" y="-24.6" font-family="courier new" font-size="8.00">kubernetes_host</text>
</g>
<!-- [root] var.cluster_token&#45;&gt;[root] var.kubernetes_host -->
<g id="edge_19" class="edge">
<title>[root] var.cluster_token&#45;&gt;[root] var.kubernetes_host</title>
<path fill="none" stroke="black" stroke-dasharray="5,2" d="M69,-87.7C69,-76.85 69,-62.92 69,-52.1"/>
</g>
</g>
</svg>

