<?xml version="1.0" encoding="UTF-8" standalone="no"?>
<!DOCTYPE svg PUBLIC "-//W3C//DTD SVG 1.1//EN"
 "http://www.w3.org/Graphics/SVG/1.1/DTD/svg11.dtd">
<!-- Generated by graphviz version 2.43.0 (0)
 -->
<!-- Title: %3 Pages: 1 -->
<svg width="409pt" height="708pt"
 viewBox="0.00 0.00 408.50 708.00" xmlns="http://www.w3.org/2000/svg" xmlns:xlink="http://www.w3.org/1999/xlink">
<g id="graph0" class="graph" transform="scale(1 1) rotate(0) translate(4 704)">
<title>%3</title>
<polygon fill="white" stroke="transparent" points="-4,4 -4,-704 404.5,-704 404.5,4 -4,4"/>
<g id="clust2" class="cluster">
<title>cluster[root] data.http.awxoperatormanifestfile (expand)_var_</title>
</g>
<g id="clust3" class="cluster">
<title>cluster[root] provider[&quot;registry.terraform.io/gavinbunney/kubectl&quot;]_var_</title>
</g>
<!-- [root] data.http.awxoperatormanifestfile (expand) -->
<g id="node_0" class="node">
<title>[root] data.http.awxoperatormanifestfile (expand)</title>
<polygon fill="none" stroke="black" points="236.5,-394 236.5,-409 346.5,-409 346.5,-394 236.5,-394"/>
<text text-anchor="start" x="282" y="-399.6" font-family="courier new" font-size="8.00">http</text>
<polygon fill="none" stroke="black" points="236.5,-379 236.5,-394 346.5,-394 346.5,-379 236.5,-379"/>
<text text-anchor="start" x="239.5" y="-384.6" font-family="courier new" font-size="8.00">awxoperatormanifestfile</text>
</g>
<!-- [root] provider[&quot;registry.terraform.io/hashicorp/http&quot;] -->
<g id="node_6" class="node">
<title>[root] provider[&quot;registry.terraform.io/hashicorp/http&quot;]</title>
<polygon fill="none" stroke="black" points="213.5,-322 213.5,-337 310.5,-337 310.5,-322 213.5,-322"/>
<text text-anchor="start" x="241.5" y="-327.6" font-family="courier new" font-size="8.00">terraform</text>
<polygon fill="none" stroke="black" points="213.5,-307 213.5,-322 310.5,-322 310.5,-307 213.5,-307"/>
<text text-anchor="start" x="216.5" y="-312.6" font-family="courier new" font-size="8.00">io/hashicorp/http\&quot;]</text>
</g>
<!-- [root] data.http.awxoperatormanifestfile (expand)&#45;&gt;[root] provider[&quot;registry.terraform.io/hashicorp/http&quot;] -->
<g id="edge_0" class="edge">
<title>[root] data.http.awxoperatormanifestfile (expand)&#45;&gt;[root] provider[&quot;registry.terraform.io/hashicorp/http&quot;]</title>
<path fill="none" stroke="black" d="M284.08,-375.7C280.71,-367.81 276.63,-358.3 272.88,-349.55"/>
<polygon fill="black" stroke="black" points="275.99,-347.92 268.83,-340.1 269.55,-350.67 275.99,-347.92"/>
</g>
<!-- [root] var.awx_version -->
<g id="node_7" class="node">
<title>[root] var.awx_version</title>
<polygon fill="none" stroke="black" points="328.5,-322 328.5,-337 384.5,-337 384.5,-322 328.5,-322"/>
<text text-anchor="start" x="349.5" y="-327.6" font-family="courier new" font-size="8.00">var</text>
<polygon fill="none" stroke="black" points="328.5,-307 328.5,-322 384.5,-322 384.5,-307 328.5,-307"/>
<text text-anchor="start" x="331.5" y="-312.6" font-family="courier new" font-size="8.00">awx_version</text>
</g>
<!-- [root] data.http.awxoperatormanifestfile (expand)&#45;&gt;[root] var.awx_version -->
<g id="edge_1" class="edge">
<title>[root] data.http.awxoperatormanifestfile (expand)&#45;&gt;[root] var.awx_version</title>
<path fill="none" stroke="black" d="M307.57,-375.7C315.44,-367.22 325.06,-356.86 333.67,-347.58"/>
<polygon fill="black" stroke="black" points="336.38,-349.81 340.62,-340.1 331.25,-345.05 336.38,-349.81"/>
</g>
<!-- [root] data.kubectl_file_documents.awxoperatordocs (expand) -->
<g id="node_1" class="node">
<title>[root] data.kubectl_file_documents.awxoperatordocs (expand)</title>
<polygon fill="none" stroke="black" points="180.5,-466 180.5,-481 286.5,-481 286.5,-466 180.5,-466"/>
<text text-anchor="start" x="183.5" y="-471.6" font-family="courier new" font-size="8.00">kubectl_file_documents</text>
<polygon fill="none" stroke="black" points="180.5,-451 180.5,-466 286.5,-466 286.5,-451 180.5,-451"/>
<text text-anchor="start" x="199.5" y="-456.6" font-family="courier new" font-size="8.00">awxoperatordocs</text>
</g>
<!-- [root] data.kubectl_file_documents.awxoperatordocs (expand)&#45;&gt;[root] data.http.awxoperatormanifestfile (expand) -->
<g id="edge_2" class="edge">
<title>[root] data.kubectl_file_documents.awxoperatordocs (expand)&#45;&gt;[root] data.http.awxoperatormanifestfile (expand)</title>
<path fill="none" stroke="black" d="M247.84,-447.7C254.79,-439.3 263.27,-429.07 270.9,-419.86"/>
<polygon fill="black" stroke="black" points="273.64,-422.04 277.33,-412.1 268.25,-417.57 273.64,-422.04"/>
</g>
<!-- [root] provider[&quot;registry.terraform.io/gavinbunney/kubectl&quot;] -->
<g id="node_5" class="node">
<title>[root] provider[&quot;registry.terraform.io/gavinbunney/kubectl&quot;]</title>
<polygon fill="none" stroke="black" points="77.5,-394 77.5,-409 196.5,-409 196.5,-394 77.5,-394"/>
<text text-anchor="start" x="116.5" y="-399.6" font-family="courier new" font-size="8.00">terraform</text>
<polygon fill="none" stroke="black" points="77.5,-379 77.5,-394 196.5,-394 196.5,-379 77.5,-379"/>
<text text-anchor="start" x="80.5" y="-384.6" font-family="courier new" font-size="8.00">io/gavinbunney/kubectl\&quot;]</text>
</g>
<!-- [root] data.kubectl_file_documents.awxoperatordocs (expand)&#45;&gt;[root] provider[&quot;registry.terraform.io/gavinbunney/kubectl&quot;] -->
<g id="edge_3" class="edge">
<title>[root] data.kubectl_file_documents.awxoperatordocs (expand)&#45;&gt;[root] provider[&quot;registry.terraform.io/gavinbunney/kubectl&quot;]</title>
<path fill="none" stroke="black" d="M209.52,-447.7C197.19,-438.8 181.98,-427.82 168.65,-418.2"/>
<polygon fill="black" stroke="black" points="170.36,-415.12 160.2,-412.1 166.26,-420.79 170.36,-415.12"/>
</g>
<!-- [root] kubectl_manifest.awx (expand) -->
<g id="node_2" class="node">
<title>[root] kubectl_manifest.awx (expand)</title>
<polygon fill="none" stroke="black" points="0.5,-538 0.5,-553 79.5,-553 79.5,-538 0.5,-538"/>
<text text-anchor="start" x="3.5" y="-543.6" font-family="courier new" font-size="8.00">kubectl_manifest</text>
<polygon fill="none" stroke="black" points="0.5,-523 0.5,-538 79.5,-538 79.5,-523 0.5,-523"/>
<text text-anchor="start" x="33" y="-528.6" font-family="courier new" font-size="8.00">awx</text>
</g>
<!-- [root] kubectl_manifest.awx (expand)&#45;&gt;[root] provider[&quot;registry.terraform.io/gavinbunney/kubectl&quot;] -->
<g id="edge_4" class="edge">
<title>[root] kubectl_manifest.awx (expand)&#45;&gt;[root] provider[&quot;registry.terraform.io/gavinbunney/kubectl&quot;]</title>
<path fill="none" stroke="black" d="M51.2,-519.87C68.1,-495.14 99.45,-449.24 119.07,-420.51"/>
<polygon fill="black" stroke="black" points="122.01,-422.42 124.76,-412.19 116.23,-418.47 122.01,-422.42"/>
</g>
<!-- [root] kubectl_manifest.awxnamespace (expand) -->
<g id="node_3" class="node">
<title>[root] kubectl_manifest.awxnamespace (expand)</title>
<polygon fill="none" stroke="black" points="97.5,-538 97.5,-553 176.5,-553 176.5,-538 97.5,-538"/>
<text text-anchor="start" x="100.5" y="-543.6" font-family="courier new" font-size="8.00">kubectl_manifest</text>
<polygon fill="none" stroke="black" points="97.5,-523 97.5,-538 176.5,-538 176.5,-523 97.5,-523"/>
<text text-anchor="start" x="109.5" y="-528.6" font-family="courier new" font-size="8.00">awxnamespace</text>
</g>
<!-- [root] kubectl_manifest.awxnamespace (expand)&#45;&gt;[root] provider[&quot;registry.terraform.io/gavinbunney/kubectl&quot;] -->
<g id="edge_5" class="edge">
<title>[root] kubectl_manifest.awxnamespace (expand)&#45;&gt;[root] provider[&quot;registry.terraform.io/gavinbunney/kubectl&quot;]</title>
<path fill="none" stroke="black" d="M136.5,-519.87C136.5,-495.67 136.5,-451.21 136.5,-422.39"/>
<polygon fill="black" stroke="black" points="140,-422.19 136.5,-412.19 133,-422.19 140,-422.19"/>
</g>
<!-- [root] kubectl_manifest.awxoperatormanifest (expand) -->
<g id="node_4" class="node">
<title>[root] kubectl_manifest.awxoperatormanifest (expand)</title>
<polygon fill="none" stroke="black" points="194.5,-538 194.5,-553 286.5,-553 286.5,-538 194.5,-538"/>
<text text-anchor="start" x="204" y="-543.6" font-family="courier new" font-size="8.00">kubectl_manifest</text>
<polygon fill="none" stroke="black" points="194.5,-523 194.5,-538 286.5,-538 286.5,-523 194.5,-523"/>
<text text-anchor="start" x="197.5" y="-528.6" font-family="courier new" font-size="8.00">awxoperatormanifest</text>
</g>
<!-- [root] kubectl_manifest.awxoperatormanifest (expand)&#45;&gt;[root] data.kubectl_file_documents.awxoperatordocs (expand) -->
<g id="edge_6" class="edge">
<title>[root] kubectl_manifest.awxoperatormanifest (expand)&#45;&gt;[root] data.kubectl_file_documents.awxoperatordocs (expand)</title>
<path fill="none" stroke="black" d="M238.77,-519.7C238,-511.98 237.07,-502.71 236.21,-494.11"/>
<polygon fill="black" stroke="black" points="239.69,-493.71 235.21,-484.1 232.72,-494.4 239.69,-493.71"/>
</g>
<!-- [root] var.client_certificate -->
<g id="node_8" class="node">
<title>[root] var.client_certificate</title>
<polygon fill="none" stroke="black" points="92.5,-322 92.5,-337 180.5,-337 180.5,-322 92.5,-322"/>
<text text-anchor="start" x="129.5" y="-327.6" font-family="courier new" font-size="8.00">var</text>
<polygon fill="none" stroke="black" points="92.5,-307 92.5,-322 180.5,-322 180.5,-307 92.5,-307"/>
<text text-anchor="start" x="95.5" y="-312.6" font-family="courier new" font-size="8.00">client_certificate</text>
</g>
<!-- [root] provider[&quot;registry.terraform.io/gavinbunney/kubectl&quot;]&#45;&gt;[root] var.client_certificate -->
<g id="edge_10" class="edge">
<title>[root] provider[&quot;registry.terraform.io/gavinbunney/kubectl&quot;]&#45;&gt;[root] var.client_certificate</title>
<path fill="none" stroke="black" d="M136.5,-375.7C136.5,-367.98 136.5,-358.71 136.5,-350.11"/>
<polygon fill="black" stroke="black" points="140,-350.1 136.5,-340.1 133,-350.1 140,-350.1"/>
</g>
<!-- [root] provider[&quot;registry.terraform.io/gavinbunney/kubectl&quot;] (close) -->
<g id="node_13" class="node">
<title>[root] provider[&quot;registry.terraform.io/gavinbunney/kubectl&quot;] (close)</title>
<polygon fill="none" stroke="black" points="103.5,-610 103.5,-625 222.5,-625 222.5,-610 103.5,-610"/>
<text text-anchor="start" x="142.5" y="-615.6" font-family="courier new" font-size="8.00">terraform</text>
<polygon fill="none" stroke="black" points="103.5,-595 103.5,-610 222.5,-610 222.5,-595 103.5,-595"/>
<text text-anchor="start" x="106.5" y="-600.6" font-family="courier new" font-size="8.00">io/gavinbunney/kubectl\&quot;]</text>
</g>
<!-- [root] provider[&quot;registry.terraform.io/gavinbunney/kubectl&quot;] (close)&#45;&gt;[root] kubectl_manifest.awx (expand) -->
<g id="edge_7" class="edge">
<title>[root] provider[&quot;registry.terraform.io/gavinbunney/kubectl&quot;] (close)&#45;&gt;[root] kubectl_manifest.awx (expand)</title>
<path fill="none" stroke="black" d="M132.41,-591.88C116.18,-582.64 95.96,-571.13 78.53,-561.21"/>
<polygon fill="black" stroke="black" points="80.13,-558.09 69.7,-556.19 76.66,-564.18 80.13,-558.09"/>
</g>
<!-- [root] provider[&quot;registry.terraform.io/gavinbunney/kubectl&quot;] (close)&#45;&gt;[root] kubectl_manifest.awxnamespace (expand) -->
<g id="edge_8" class="edge">
<title>[root] provider[&quot;registry.terraform.io/gavinbunney/kubectl&quot;] (close)&#45;&gt;[root] kubectl_manifest.awxnamespace (expand)</title>
<path fill="none" stroke="black" d="M156.07,-591.7C153.14,-583.81 149.61,-574.3 146.36,-565.55"/>
<polygon fill="black" stroke="black" points="149.62,-564.26 142.85,-556.1 143.05,-566.7 149.62,-564.26"/>
</g>
<!-- [root] provider[&quot;registry.terraform.io/gavinbunney/kubectl&quot;] (close)&#45;&gt;[root] kubectl_manifest.awxoperatormanifest (expand) -->
<g id="edge_9" class="edge">
<title>[root] provider[&quot;registry.terraform.io/gavinbunney/kubectl&quot;] (close)&#45;&gt;[root] kubectl_manifest.awxoperatormanifest (expand)</title>
<path fill="none" stroke="black" d="M181.78,-591.7C191.42,-583.05 203.23,-572.45 213.73,-563.03"/>
<polygon fill="black" stroke="black" points="216.34,-565.39 221.44,-556.1 211.66,-560.18 216.34,-565.39"/>
</g>
<!-- [root] provider[&quot;registry.terraform.io/hashicorp/http&quot;] (close) -->
<g id="node_14" class="node">
<title>[root] provider[&quot;registry.terraform.io/hashicorp/http&quot;] (close)</title>
<polygon fill="none" stroke="black" points="253.5,-610 253.5,-625 350.5,-625 350.5,-610 253.5,-610"/>
<text text-anchor="start" x="281.5" y="-615.6" font-family="courier new" font-size="8.00">terraform</text>
<polygon fill="none" stroke="black" points="253.5,-595 253.5,-610 350.5,-610 350.5,-595 253.5,-595"/>
<text text-anchor="start" x="256.5" y="-600.6" font-family="courier new" font-size="8.00">io/hashicorp/http\&quot;]</text>
</g>
<!-- [root] provider[&quot;registry.terraform.io/hashicorp/http&quot;] (close)&#45;&gt;[root] data.http.awxoperatormanifestfile (expand) -->
<g id="edge_15" class="edge">
<title>[root] provider[&quot;registry.terraform.io/hashicorp/http&quot;] (close)&#45;&gt;[root] data.http.awxoperatormanifestfile (expand)</title>
<path fill="none" stroke="black" d="M301.07,-591.6C300.29,-562.06 298.44,-500.22 295.5,-448 295.03,-439.67 294.39,-430.62 293.77,-422.39"/>
<polygon fill="black" stroke="black" points="297.24,-421.87 292.96,-412.17 290.26,-422.42 297.24,-421.87"/>
</g>
<!-- [root] root -->
<g id="node_15" class="node">
<title>[root] root</title>
<polygon fill="none" stroke="black" points="258.5,-700 192.5,-700 192.5,-664 258.5,-664 258.5,-700"/>
<text text-anchor="middle" x="225.5" y="-680.1" font-family="courier new" font-size="8.00">[root] root</text>
</g>
<!-- [root] root&#45;&gt;[root] provider[&quot;registry.terraform.io/gavinbunney/kubectl&quot;] (close) -->
<g id="edge_16" class="edge">
<title>[root] root&#45;&gt;[root] provider[&quot;registry.terraform.io/gavinbunney/kubectl&quot;] (close)</title>
<path fill="none" stroke="black" d="M209.93,-663.7C202.3,-655.22 192.98,-644.86 184.62,-635.58"/>
<polygon fill="black" stroke="black" points="187.19,-633.2 177.89,-628.1 181.98,-637.88 187.19,-633.2"/>
</g>
<!-- [root] root&#45;&gt;[root] provider[&quot;registry.terraform.io/hashicorp/http&quot;] (close) -->
<g id="edge_17" class="edge">
<title>[root] root&#45;&gt;[root] provider[&quot;registry.terraform.io/hashicorp/http&quot;] (close)</title>
<path fill="none" stroke="black" d="M244.29,-663.7C253.67,-655.05 265.18,-644.45 275.41,-635.03"/>
<polygon fill="black" stroke="black" points="277.95,-637.45 282.93,-628.1 273.2,-632.3 277.95,-637.45"/>
</g>
<!-- [root] var.client_key -->
<g id="node_9" class="node">
<title>[root] var.client_key</title>
<polygon fill="none" stroke="black" points="110.5,-250 110.5,-265 162.5,-265 162.5,-250 110.5,-250"/>
<text text-anchor="start" x="129.5" y="-255.6" font-family="courier new" font-size="8.00">var</text>
<polygon fill="none" stroke="black" points="110.5,-235 110.5,-250 162.5,-250 162.5,-235 110.5,-235"/>
<text text-anchor="start" x="113.5" y="-240.6" font-family="courier new" font-size="8.00">client_key</text>
</g>
<!-- [root] var.client_certificate&#45;&gt;[root] var.client_key -->
<g id="edge_18" class="edge">
<title>[root] var.client_certificate&#45;&gt;[root] var.client_key</title>
<path fill="none" stroke="black" stroke-dasharray="5,2" d="M136.5,-303.7C136.5,-292.85 136.5,-278.92 136.5,-268.1"/>
</g>
<!-- [root] var.cluster_ca_certificate -->
<g id="node_10" class="node">
<title>[root] var.cluster_ca_certificate</title>
<polygon fill="none" stroke="black" points="83.5,-178 83.5,-193 189.5,-193 189.5,-178 83.5,-178"/>
<text text-anchor="start" x="129.5" y="-183.6" font-family="courier new" font-size="8.00">var</text>
<polygon fill="none" stroke="black" points="83.5,-163 83.5,-178 189.5,-178 189.5,-163 83.5,-163"/>
<text text-anchor="start" x="86.5" y="-168.6" font-family="courier new" font-size="8.00">cluster_ca_certificate</text>
</g>
<!-- [root] var.client_key&#45;&gt;[root] var.cluster_ca_certificate -->
<g id="edge_19" class="edge">
<title>[root] var.client_key&#45;&gt;[root] var.cluster_ca_certificate</title>
<path fill="none" stroke="black" stroke-dasharray="5,2" d="M136.5,-231.7C136.5,-220.85 136.5,-206.92 136.5,-196.1"/>
</g>
<!-- [root] var.cluster_token -->
<g id="node_11" class="node">
<title>[root] var.cluster_token</title>
<polygon fill="none" stroke="black" points="104.5,-106 104.5,-121 169.5,-121 169.5,-106 104.5,-106"/>
<text text-anchor="start" x="130" y="-111.6" font-family="courier new" font-size="8.00">var</text>
<polygon fill="none" stroke="black" points="104.5,-91 104.5,-106 169.5,-106 169.5,-91 104.5,-91"/>
<text text-anchor="start" x="107.5" y="-96.6" font-family="courier new" font-size="8.00">cluster_token</text>
</g>
<!-- [root] var.cluster_ca_certificate&#45;&gt;[root] var.cluster_token -->
<g id="edge_20" class="edge">
<title>[root] var.cluster_ca_certificate&#45;&gt;[root] var.cluster_token</title>
<path fill="none" stroke="black" stroke-dasharray="5,2" d="M136.5,-159.7C136.5,-148.85 136.5,-134.92 136.5,-124.1"/>
</g>
<!-- [root] var.kubernetes_host -->
<g id="node_12" class="node">
<title>[root] var.kubernetes_host</title>
<polygon fill="none" stroke="black" points="99.5,-34 99.5,-49 173.5,-49 173.5,-34 99.5,-34"/>
<text text-anchor="start" x="129.5" y="-39.6" font-family="courier new" font-size="8.00">var</text>
<polygon fill="none" stroke="black" points="99.5,-19 99.5,-34 173.5,-34 173.5,-19 99.5,-19"/>
<text text-anchor="start" x="102.5" y="-24.6" font-family="courier new" font-size="8.00">kubernetes_host</text>
</g>
<!-- [root] var.cluster_token&#45;&gt;[root] var.kubernetes_host -->
<g id="edge_21" class="edge">
<title>[root] var.cluster_token&#45;&gt;[root] var.kubernetes_host</title>
<path fill="none" stroke="black" stroke-dasharray="5,2" d="M136.5,-87.7C136.5,-76.85 136.5,-62.92 136.5,-52.1"/>
</g>
</g>
</svg>

