<?xml version="1.0" encoding="UTF-8" standalone="no"?>
<!DOCTYPE svg PUBLIC "-//W3C//DTD SVG 1.1//EN"
 "http://www.w3.org/Graphics/SVG/1.1/DTD/svg11.dtd">
<!-- Generated by graphviz version 2.43.0 (0)
 -->
<!-- Title: %3 Pages: 1 -->
<svg width="340pt" height="492pt"
 viewBox="0.00 0.00 339.50 492.00" xmlns="http://www.w3.org/2000/svg" xmlns:xlink="http://www.w3.org/1999/xlink">
<g id="graph0" class="graph" transform="scale(1 1) rotate(0) translate(4 488)">
<title>%3</title>
<polygon fill="white" stroke="transparent" points="-4,4 -4,-488 335.5,-488 335.5,4 -4,4"/>
<g id="clust2" class="cluster">
<title>cluster[root] data.http.awxoperatormanifestfile (expand)_var_</title>
</g>
<g id="clust3" class="cluster">
<title>cluster[root] provider[&quot;registry.terraform.io/gavinbunney/kubectl&quot;]_var_</title>
</g>
<!-- [root] data.http.awxoperatormanifestfile (expand) -->
<g id="node_0" class="node">
<title>[root] data.http.awxoperatormanifestfile (expand)</title>
<polygon fill="none" stroke="black" points="147,-250 147,-265 257,-265 257,-250 147,-250"/>
<text text-anchor="start" x="192.5" y="-255.6" font-family="courier new" font-size="8.00">http</text>
<polygon fill="none" stroke="black" points="147,-235 147,-250 257,-250 257,-235 147,-235"/>
<text text-anchor="start" x="150" y="-240.6" font-family="courier new" font-size="8.00">awxoperatormanifestfile</text>
</g>
<!-- [root] provider[&quot;registry.terraform.io/hashicorp/http&quot;] -->
<g id="node_3" class="node">
<title>[root] provider[&quot;registry.terraform.io/hashicorp/http&quot;]</title>
<polygon fill="none" stroke="black" points="235,-178 235,-193 332,-193 332,-178 235,-178"/>
<text text-anchor="start" x="263" y="-183.6" font-family="courier new" font-size="8.00">terraform</text>
<polygon fill="none" stroke="black" points="235,-163 235,-178 332,-178 332,-163 235,-163"/>
<text text-anchor="start" x="238" y="-168.6" font-family="courier new" font-size="8.00">io/hashicorp/http\&quot;]</text>
</g>
<!-- [root] data.http.awxoperatormanifestfile (expand)&#45;&gt;[root] provider[&quot;registry.terraform.io/hashicorp/http&quot;] -->
<g id="edge_0" class="edge">
<title>[root] data.http.awxoperatormanifestfile (expand)&#45;&gt;[root] provider[&quot;registry.terraform.io/hashicorp/http&quot;]</title>
<path fill="none" stroke="black" d="M222.02,-231.7C232.13,-222.97 244.54,-212.24 255.52,-202.75"/>
<polygon fill="black" stroke="black" points="257.93,-205.29 263.21,-196.1 253.35,-199.99 257.93,-205.29"/>
</g>
<!-- [root] var.awx_version -->
<g id="node_4" class="node">
<title>[root] var.awx_version</title>
<polygon fill="none" stroke="black" points="160,-178 160,-193 216,-193 216,-178 160,-178"/>
<text text-anchor="start" x="181" y="-183.6" font-family="courier new" font-size="8.00">var</text>
<polygon fill="none" stroke="black" points="160,-163 160,-178 216,-178 216,-163 160,-163"/>
<text text-anchor="start" x="163" y="-168.6" font-family="courier new" font-size="8.00">awx_version</text>
</g>
<!-- [root] data.http.awxoperatormanifestfile (expand)&#45;&gt;[root] var.awx_version -->
<g id="edge_1" class="edge">
<title>[root] data.http.awxoperatormanifestfile (expand)&#45;&gt;[root] var.awx_version</title>
<path fill="none" stroke="black" d="M198.54,-231.7C197,-223.98 195.14,-214.71 193.42,-206.11"/>
<polygon fill="black" stroke="black" points="196.81,-205.22 191.42,-196.1 189.95,-206.6 196.81,-205.22"/>
</g>
<!-- [root] kubectl_manifest.awxoperatormanifest (expand) -->
<g id="node_1" class="node">
<title>[root] kubectl_manifest.awxoperatormanifest (expand)</title>
<polygon fill="none" stroke="black" points="30,-322 30,-337 122,-337 122,-322 30,-322"/>
<text text-anchor="start" x="39.5" y="-327.6" font-family="courier new" font-size="8.00">kubectl_manifest</text>
<polygon fill="none" stroke="black" points="30,-307 30,-322 122,-322 122,-307 30,-307"/>
<text text-anchor="start" x="33" y="-312.6" font-family="courier new" font-size="8.00">awxoperatormanifest</text>
</g>
<!-- [root] kubectl_manifest.awxoperatormanifest (expand)&#45;&gt;[root] data.http.awxoperatormanifestfile (expand) -->
<g id="edge_2" class="edge">
<title>[root] kubectl_manifest.awxoperatormanifest (expand)&#45;&gt;[root] data.http.awxoperatormanifestfile (expand)</title>
<path fill="none" stroke="black" d="M106.82,-303.88C123.45,-294.64 144.16,-283.13 162.02,-273.21"/>
<polygon fill="black" stroke="black" points="164.02,-276.11 171.06,-268.19 160.62,-269.99 164.02,-276.11"/>
</g>
<!-- [root] provider[&quot;registry.terraform.io/gavinbunney/kubectl&quot;] -->
<g id="node_2" class="node">
<title>[root] provider[&quot;registry.terraform.io/gavinbunney/kubectl&quot;]</title>
<polygon fill="none" stroke="black" points="10,-250 10,-265 129,-265 129,-250 10,-250"/>
<text text-anchor="start" x="49" y="-255.6" font-family="courier new" font-size="8.00">terraform</text>
<polygon fill="none" stroke="black" points="10,-235 10,-250 129,-250 129,-235 10,-235"/>
<text text-anchor="start" x="13" y="-240.6" font-family="courier new" font-size="8.00">io/gavinbunney/kubectl\&quot;]</text>
</g>
<!-- [root] kubectl_manifest.awxoperatormanifest (expand)&#45;&gt;[root] provider[&quot;registry.terraform.io/gavinbunney/kubectl&quot;] -->
<g id="edge_3" class="edge">
<title>[root] kubectl_manifest.awxoperatormanifest (expand)&#45;&gt;[root] provider[&quot;registry.terraform.io/gavinbunney/kubectl&quot;]</title>
<path fill="none" stroke="black" d="M74.27,-303.7C73.5,-295.98 72.57,-286.71 71.71,-278.11"/>
<polygon fill="black" stroke="black" points="75.19,-277.71 70.71,-268.1 68.22,-278.4 75.19,-277.71"/>
</g>
<!-- [root] var.cluster_ca_certificate -->
<g id="node_5" class="node">
<title>[root] var.cluster_ca_certificate</title>
<polygon fill="none" stroke="black" points="16,-178 16,-193 122,-193 122,-178 16,-178"/>
<text text-anchor="start" x="62" y="-183.6" font-family="courier new" font-size="8.00">var</text>
<polygon fill="none" stroke="black" points="16,-163 16,-178 122,-178 122,-163 16,-163"/>
<text text-anchor="start" x="19" y="-168.6" font-family="courier new" font-size="8.00">cluster_ca_certificate</text>
</g>
<!-- [root] provider[&quot;registry.terraform.io/gavinbunney/kubectl&quot;]&#45;&gt;[root] var.cluster_ca_certificate -->
<g id="edge_5" class="edge">
<title>[root] provider[&quot;registry.terraform.io/gavinbunney/kubectl&quot;]&#45;&gt;[root] var.cluster_ca_certificate</title>
<path fill="none" stroke="black" d="M69,-231.7C69,-223.98 69,-214.71 69,-206.11"/>
<polygon fill="black" stroke="black" points="72.5,-206.1 69,-196.1 65.5,-206.1 72.5,-206.1"/>
</g>
<!-- [root] provider[&quot;registry.terraform.io/gavinbunney/kubectl&quot;] (close) -->
<g id="node_8" class="node">
<title>[root] provider[&quot;registry.terraform.io/gavinbunney/kubectl&quot;] (close)</title>
<polygon fill="none" stroke="black" points="17,-394 17,-409 136,-409 136,-394 17,-394"/>
<text text-anchor="start" x="56" y="-399.6" font-family="courier new" font-size="8.00">terraform</text>
<polygon fill="none" stroke="black" points="17,-379 17,-394 136,-394 136,-379 17,-379"/>
<text text-anchor="start" x="20" y="-384.6" font-family="courier new" font-size="8.00">io/gavinbunney/kubectl\&quot;]</text>
</g>
<!-- [root] provider[&quot;registry.terraform.io/gavinbunney/kubectl&quot;] (close)&#45;&gt;[root] kubectl_manifest.awxoperatormanifest (expand) -->
<g id="edge_4" class="edge">
<title>[root] provider[&quot;registry.terraform.io/gavinbunney/kubectl&quot;] (close)&#45;&gt;[root] kubectl_manifest.awxoperatormanifest (expand)</title>
<path fill="none" stroke="black" d="M76,-375.7C76,-367.98 76,-358.71 76,-350.11"/>
<polygon fill="black" stroke="black" points="79.5,-350.1 76,-340.1 72.5,-350.1 79.5,-350.1"/>
</g>
<!-- [root] provider[&quot;registry.terraform.io/hashicorp/http&quot;] (close) -->
<g id="node_9" class="node">
<title>[root] provider[&quot;registry.terraform.io/hashicorp/http&quot;] (close)</title>
<polygon fill="none" stroke="black" points="154,-394 154,-409 251,-409 251,-394 154,-394"/>
<text text-anchor="start" x="182" y="-399.6" font-family="courier new" font-size="8.00">terraform</text>
<polygon fill="none" stroke="black" points="154,-379 154,-394 251,-394 251,-379 154,-379"/>
<text text-anchor="start" x="157" y="-384.6" font-family="courier new" font-size="8.00">io/hashicorp/http\&quot;]</text>
</g>
<!-- [root] provider[&quot;registry.terraform.io/hashicorp/http&quot;] (close)&#45;&gt;[root] data.http.awxoperatormanifestfile (expand) -->
<g id="edge_8" class="edge">
<title>[root] provider[&quot;registry.terraform.io/hashicorp/http&quot;] (close)&#45;&gt;[root] data.http.awxoperatormanifestfile (expand)</title>
<path fill="none" stroke="black" d="M202,-375.87C202,-351.67 202,-307.21 202,-278.39"/>
<polygon fill="black" stroke="black" points="205.5,-278.19 202,-268.19 198.5,-278.19 205.5,-278.19"/>
</g>
<!-- [root] root -->
<g id="node_10" class="node">
<title>[root] root</title>
<polygon fill="none" stroke="black" points="172,-484 106,-484 106,-448 172,-448 172,-484"/>
<text text-anchor="middle" x="139" y="-464.1" font-family="courier new" font-size="8.00">[root] root</text>
</g>
<!-- [root] root&#45;&gt;[root] provider[&quot;registry.terraform.io/gavinbunney/kubectl&quot;] (close) -->
<g id="edge_9" class="edge">
<title>[root] root&#45;&gt;[root] provider[&quot;registry.terraform.io/gavinbunney/kubectl&quot;] (close)</title>
<path fill="none" stroke="black" d="M123.43,-447.7C115.8,-439.22 106.48,-428.86 98.12,-419.58"/>
<polygon fill="black" stroke="black" points="100.69,-417.2 91.39,-412.1 95.48,-421.88 100.69,-417.2"/>
</g>
<!-- [root] root&#45;&gt;[root] provider[&quot;registry.terraform.io/hashicorp/http&quot;] (close) -->
<g id="edge_10" class="edge">
<title>[root] root&#45;&gt;[root] provider[&quot;registry.terraform.io/hashicorp/http&quot;] (close)</title>
<path fill="none" stroke="black" d="M154.57,-447.7C162.2,-439.22 171.52,-428.86 179.88,-419.58"/>
<polygon fill="black" stroke="black" points="182.52,-421.88 186.61,-412.1 177.31,-417.2 182.52,-421.88"/>
</g>
<!-- [root] var.cluster_token -->
<g id="node_6" class="node">
<title>[root] var.cluster_token</title>
<polygon fill="none" stroke="black" points="37,-106 37,-121 102,-121 102,-106 37,-106"/>
<text text-anchor="start" x="62.5" y="-111.6" font-family="courier new" font-size="8.00">var</text>
<polygon fill="none" stroke="black" points="37,-91 37,-106 102,-106 102,-91 37,-91"/>
<text text-anchor="start" x="40" y="-96.6" font-family="courier new" font-size="8.00">cluster_token</text>
</g>
<!-- [root] var.cluster_ca_certificate&#45;&gt;[root] var.cluster_token -->
<g id="edge_11" class="edge">
<title>[root] var.cluster_ca_certificate&#45;&gt;[root] var.cluster_token</title>
<path fill="none" stroke="black" stroke-dasharray="5,2" d="M69,-159.7C69,-148.85 69,-134.92 69,-124.1"/>
</g>
<!-- [root] var.kubernetes_host -->
<g id="node_7" class="node">
<title>[root] var.kubernetes_host</title>
<polygon fill="none" stroke="black" points="32,-34 32,-49 106,-49 106,-34 32,-34"/>
<text text-anchor="start" x="62" y="-39.6" font-family="courier new" font-size="8.00">var</text>
<polygon fill="none" stroke="black" points="32,-19 32,-34 106,-34 106,-19 32,-19"/>
<text text-anchor="start" x="35" y="-24.6" font-family="courier new" font-size="8.00">kubernetes_host</text>
</g>
<!-- [root] var.cluster_token&#45;&gt;[root] var.kubernetes_host -->
<g id="edge_12" class="edge">
<title>[root] var.cluster_token&#45;&gt;[root] var.kubernetes_host</title>
<path fill="none" stroke="black" stroke-dasharray="5,2" d="M69,-87.7C69,-76.85 69,-62.92 69,-52.1"/>
</g>
</g>
</svg>

