<?xml version="1.0" encoding="UTF-8" standalone="no"?>
<!DOCTYPE svg PUBLIC "-//W3C//DTD SVG 1.1//EN"
 "http://www.w3.org/Graphics/SVG/1.1/DTD/svg11.dtd">
<!-- Generated by graphviz version 2.43.0 (0)
 -->
<!-- Title: %3 Pages: 1 -->
<svg width="338pt" height="564pt"
 viewBox="0.00 0.00 337.50 564.00" xmlns="http://www.w3.org/2000/svg" xmlns:xlink="http://www.w3.org/1999/xlink">
<g id="graph0" class="graph" transform="scale(1 1) rotate(0) translate(4 560)">
<title>%3</title>
<polygon fill="white" stroke="transparent" points="-4,4 -4,-560 333.5,-560 333.5,4 -4,4"/>
<g id="clust2" class="cluster">
<title>cluster[root] null_resource.awx_operator_download (expand)_var_</title>
</g>
<g id="clust3" class="cluster">
<title>cluster[root] provider[&quot;registry.terraform.io/gavinbunney/kubectl&quot;]_var_</title>
</g>
<!-- [root] data.kubectl_path_documents.awx_manifests (expand) -->
<g id="node_0" class="node">
<title>[root] data.kubectl_path_documents.awx_manifests (expand)</title>
<polygon fill="none" stroke="black" points="18,-322 18,-337 124,-337 124,-322 18,-322"/>
<text text-anchor="start" x="21" y="-327.6" font-family="courier new" font-size="8.00">kubectl_path_documents</text>
<polygon fill="none" stroke="black" points="18,-307 18,-322 124,-322 124,-307 18,-307"/>
<text text-anchor="start" x="41.5" y="-312.6" font-family="courier new" font-size="8.00">awx_manifests</text>
</g>
<!-- [root] null_resource.awx_operator_download (expand) -->
<g id="node_2" class="node">
<title>[root] null_resource.awx_operator_download (expand)</title>
<polygon fill="none" stroke="black" points="147,-250 147,-265 248,-265 248,-250 147,-250"/>
<text text-anchor="start" x="168" y="-255.6" font-family="courier new" font-size="8.00">null_resource</text>
<polygon fill="none" stroke="black" points="147,-235 147,-250 248,-250 248,-235 147,-235"/>
<text text-anchor="start" x="150" y="-240.6" font-family="courier new" font-size="8.00">awx_operator_download</text>
</g>
<!-- [root] data.kubectl_path_documents.awx_manifests (expand)&#45;&gt;[root] null_resource.awx_operator_download (expand) -->
<g id="edge_0" class="edge">
<title>[root] data.kubectl_path_documents.awx_manifests (expand)&#45;&gt;[root] null_resource.awx_operator_download (expand)</title>
<path fill="none" stroke="black" d="M101.82,-303.88C118.45,-294.64 139.16,-283.13 157.02,-273.21"/>
<polygon fill="black" stroke="black" points="159.02,-276.11 166.06,-268.19 155.62,-269.99 159.02,-276.11"/>
</g>
<!-- [root] provider[&quot;registry.terraform.io/gavinbunney/kubectl&quot;] -->
<g id="node_3" class="node">
<title>[root] provider[&quot;registry.terraform.io/gavinbunney/kubectl&quot;]</title>
<polygon fill="none" stroke="black" points="10,-250 10,-265 129,-265 129,-250 10,-250"/>
<text text-anchor="start" x="49" y="-255.6" font-family="courier new" font-size="8.00">terraform</text>
<polygon fill="none" stroke="black" points="10,-235 10,-250 129,-250 129,-235 10,-235"/>
<text text-anchor="start" x="13" y="-240.6" font-family="courier new" font-size="8.00">io/gavinbunney/kubectl\&quot;]</text>
</g>
<!-- [root] data.kubectl_path_documents.awx_manifests (expand)&#45;&gt;[root] provider[&quot;registry.terraform.io/gavinbunney/kubectl&quot;] -->
<g id="edge_1" class="edge">
<title>[root] data.kubectl_path_documents.awx_manifests (expand)&#45;&gt;[root] provider[&quot;registry.terraform.io/gavinbunney/kubectl&quot;]</title>
<path fill="none" stroke="black" d="M70.51,-303.7C70.29,-295.98 70.02,-286.71 69.77,-278.11"/>
<polygon fill="black" stroke="black" points="73.27,-278 69.49,-268.1 66.28,-278.2 73.27,-278"/>
</g>
<!-- [root] kubectl_manifest.awx_operator (expand) -->
<g id="node_1" class="node">
<title>[root] kubectl_manifest.awx_operator (expand)</title>
<polygon fill="none" stroke="black" points="32,-394 32,-409 111,-409 111,-394 32,-394"/>
<text text-anchor="start" x="35" y="-399.6" font-family="courier new" font-size="8.00">kubectl_manifest</text>
<polygon fill="none" stroke="black" points="32,-379 32,-394 111,-394 111,-379 32,-379"/>
<text text-anchor="start" x="44" y="-384.6" font-family="courier new" font-size="8.00">awx_operator</text>
</g>
<!-- [root] kubectl_manifest.awx_operator (expand)&#45;&gt;[root] data.kubectl_path_documents.awx_manifests (expand) -->
<g id="edge_2" class="edge">
<title>[root] kubectl_manifest.awx_operator (expand)&#45;&gt;[root] data.kubectl_path_documents.awx_manifests (expand)</title>
<path fill="none" stroke="black" d="M71,-375.7C71,-367.98 71,-358.71 71,-350.11"/>
<polygon fill="black" stroke="black" points="74.5,-350.1 71,-340.1 67.5,-350.1 74.5,-350.1"/>
</g>
<!-- [root] provider[&quot;registry.terraform.io/hashicorp/null&quot;] -->
<g id="node_4" class="node">
<title>[root] provider[&quot;registry.terraform.io/hashicorp/null&quot;]</title>
<polygon fill="none" stroke="black" points="233,-178 233,-193 330,-193 330,-178 233,-178"/>
<text text-anchor="start" x="261" y="-183.6" font-family="courier new" font-size="8.00">terraform</text>
<polygon fill="none" stroke="black" points="233,-163 233,-178 330,-178 330,-163 233,-163"/>
<text text-anchor="start" x="236" y="-168.6" font-family="courier new" font-size="8.00">io/hashicorp/null\&quot;]</text>
</g>
<!-- [root] null_resource.awx_operator_download (expand)&#45;&gt;[root] provider[&quot;registry.terraform.io/hashicorp/null&quot;] -->
<g id="edge_3" class="edge">
<title>[root] null_resource.awx_operator_download (expand)&#45;&gt;[root] provider[&quot;registry.terraform.io/hashicorp/null&quot;]</title>
<path fill="none" stroke="black" d="M217.76,-231.7C228.24,-222.97 241.11,-212.24 252.5,-202.75"/>
<polygon fill="black" stroke="black" points="255.03,-205.19 260.47,-196.1 250.55,-199.82 255.03,-205.19"/>
</g>
<!-- [root] var.awx_version -->
<g id="node_5" class="node">
<title>[root] var.awx_version</title>
<polygon fill="none" stroke="black" points="158,-178 158,-193 214,-193 214,-178 158,-178"/>
<text text-anchor="start" x="179" y="-183.6" font-family="courier new" font-size="8.00">var</text>
<polygon fill="none" stroke="black" points="158,-163 158,-178 214,-178 214,-163 158,-163"/>
<text text-anchor="start" x="161" y="-168.6" font-family="courier new" font-size="8.00">awx_version</text>
</g>
<!-- [root] null_resource.awx_operator_download (expand)&#45;&gt;[root] var.awx_version -->
<g id="edge_4" class="edge">
<title>[root] null_resource.awx_operator_download (expand)&#45;&gt;[root] var.awx_version</title>
<path fill="none" stroke="black" d="M194.28,-231.7C193.07,-223.98 191.61,-214.71 190.26,-206.11"/>
<polygon fill="black" stroke="black" points="193.7,-205.44 188.69,-196.1 186.78,-206.53 193.7,-205.44"/>
</g>
<!-- [root] var.cluster_ca_certificate -->
<g id="node_6" class="node">
<title>[root] var.cluster_ca_certificate</title>
<polygon fill="none" stroke="black" points="16,-178 16,-193 122,-193 122,-178 16,-178"/>
<text text-anchor="start" x="62" y="-183.6" font-family="courier new" font-size="8.00">var</text>
<polygon fill="none" stroke="black" points="16,-163 16,-178 122,-178 122,-163 16,-163"/>
<text text-anchor="start" x="19" y="-168.6" font-family="courier new" font-size="8.00">cluster_ca_certificate</text>
</g>
<!-- [root] provider[&quot;registry.terraform.io/gavinbunney/kubectl&quot;]&#45;&gt;[root] var.cluster_ca_certificate -->
<g id="edge_6" class="edge">
<title>[root] provider[&quot;registry.terraform.io/gavinbunney/kubectl&quot;]&#45;&gt;[root] var.cluster_ca_certificate</title>
<path fill="none" stroke="black" d="M69,-231.7C69,-223.98 69,-214.71 69,-206.11"/>
<polygon fill="black" stroke="black" points="72.5,-206.1 69,-196.1 65.5,-206.1 72.5,-206.1"/>
</g>
<!-- [root] provider[&quot;registry.terraform.io/gavinbunney/kubectl&quot;] (close) -->
<g id="node_9" class="node">
<title>[root] provider[&quot;registry.terraform.io/gavinbunney/kubectl&quot;] (close)</title>
<polygon fill="none" stroke="black" points="12,-466 12,-481 131,-481 131,-466 12,-466"/>
<text text-anchor="start" x="51" y="-471.6" font-family="courier new" font-size="8.00">terraform</text>
<polygon fill="none" stroke="black" points="12,-451 12,-466 131,-466 131,-451 12,-451"/>
<text text-anchor="start" x="15" y="-456.6" font-family="courier new" font-size="8.00">io/gavinbunney/kubectl\&quot;]</text>
</g>
<!-- [root] provider[&quot;registry.terraform.io/gavinbunney/kubectl&quot;] (close)&#45;&gt;[root] kubectl_manifest.awx_operator (expand) -->
<g id="edge_5" class="edge">
<title>[root] provider[&quot;registry.terraform.io/gavinbunney/kubectl&quot;] (close)&#45;&gt;[root] kubectl_manifest.awx_operator (expand)</title>
<path fill="none" stroke="black" d="M71,-447.7C71,-439.98 71,-430.71 71,-422.11"/>
<polygon fill="black" stroke="black" points="74.5,-422.1 71,-412.1 67.5,-422.1 74.5,-422.1"/>
</g>
<!-- [root] provider[&quot;registry.terraform.io/hashicorp/null&quot;] (close) -->
<g id="node_10" class="node">
<title>[root] provider[&quot;registry.terraform.io/hashicorp/null&quot;] (close)</title>
<polygon fill="none" stroke="black" points="149,-466 149,-481 246,-481 246,-466 149,-466"/>
<text text-anchor="start" x="177" y="-471.6" font-family="courier new" font-size="8.00">terraform</text>
<polygon fill="none" stroke="black" points="149,-451 149,-466 246,-466 246,-451 149,-451"/>
<text text-anchor="start" x="152" y="-456.6" font-family="courier new" font-size="8.00">io/hashicorp/null\&quot;]</text>
</g>
<!-- [root] provider[&quot;registry.terraform.io/hashicorp/null&quot;] (close)&#45;&gt;[root] null_resource.awx_operator_download (expand) -->
<g id="edge_9" class="edge">
<title>[root] provider[&quot;registry.terraform.io/hashicorp/null&quot;] (close)&#45;&gt;[root] null_resource.awx_operator_download (expand)</title>
<path fill="none" stroke="black" d="M197,-447.85C197,-410.83 197,-323.18 197,-278.39"/>
<polygon fill="black" stroke="black" points="200.5,-278.23 197,-268.23 193.5,-278.23 200.5,-278.23"/>
</g>
<!-- [root] root -->
<g id="node_11" class="node">
<title>[root] root</title>
<polygon fill="none" stroke="black" points="167,-556 101,-556 101,-520 167,-520 167,-556"/>
<text text-anchor="middle" x="134" y="-536.1" font-family="courier new" font-size="8.00">[root] root</text>
</g>
<!-- [root] root&#45;&gt;[root] provider[&quot;registry.terraform.io/gavinbunney/kubectl&quot;] (close) -->
<g id="edge_10" class="edge">
<title>[root] root&#45;&gt;[root] provider[&quot;registry.terraform.io/gavinbunney/kubectl&quot;] (close)</title>
<path fill="none" stroke="black" d="M118.43,-519.7C110.8,-511.22 101.48,-500.86 93.12,-491.58"/>
<polygon fill="black" stroke="black" points="95.69,-489.2 86.39,-484.1 90.48,-493.88 95.69,-489.2"/>
</g>
<!-- [root] root&#45;&gt;[root] provider[&quot;registry.terraform.io/hashicorp/null&quot;] (close) -->
<g id="edge_11" class="edge">
<title>[root] root&#45;&gt;[root] provider[&quot;registry.terraform.io/hashicorp/null&quot;] (close)</title>
<path fill="none" stroke="black" d="M149.57,-519.7C157.2,-511.22 166.52,-500.86 174.88,-491.58"/>
<polygon fill="black" stroke="black" points="177.52,-493.88 181.61,-484.1 172.31,-489.2 177.52,-493.88"/>
</g>
<!-- [root] var.cluster_token -->
<g id="node_7" class="node">
<title>[root] var.cluster_token</title>
<polygon fill="none" stroke="black" points="37,-106 37,-121 102,-121 102,-106 37,-106"/>
<text text-anchor="start" x="62.5" y="-111.6" font-family="courier new" font-size="8.00">var</text>
<polygon fill="none" stroke="black" points="37,-91 37,-106 102,-106 102,-91 37,-91"/>
<text text-anchor="start" x="40" y="-96.6" font-family="courier new" font-size="8.00">cluster_token</text>
</g>
<!-- [root] var.cluster_ca_certificate&#45;&gt;[root] var.cluster_token -->
<g id="edge_12" class="edge">
<title>[root] var.cluster_ca_certificate&#45;&gt;[root] var.cluster_token</title>
<path fill="none" stroke="black" stroke-dasharray="5,2" d="M69,-159.7C69,-148.85 69,-134.92 69,-124.1"/>
</g>
<!-- [root] var.kubernetes_host -->
<g id="node_8" class="node">
<title>[root] var.kubernetes_host</title>
<polygon fill="none" stroke="black" points="32,-34 32,-49 106,-49 106,-34 32,-34"/>
<text text-anchor="start" x="62" y="-39.6" font-family="courier new" font-size="8.00">var</text>
<polygon fill="none" stroke="black" points="32,-19 32,-34 106,-34 106,-19 32,-19"/>
<text text-anchor="start" x="35" y="-24.6" font-family="courier new" font-size="8.00">kubernetes_host</text>
</g>
<!-- [root] var.cluster_token&#45;&gt;[root] var.kubernetes_host -->
<g id="edge_13" class="edge">
<title>[root] var.cluster_token&#45;&gt;[root] var.kubernetes_host</title>
<path fill="none" stroke="black" stroke-dasharray="5,2" d="M69,-87.7C69,-76.85 69,-62.92 69,-52.1"/>
</g>
</g>
</svg>

