<?xml version="1.0" encoding="UTF-8" standalone="no"?>
<!DOCTYPE svg PUBLIC "-//W3C//DTD SVG 1.1//EN"
 "http://www.w3.org/Graphics/SVG/1.1/DTD/svg11.dtd">
<!-- Generated by graphviz version 2.43.0 (0)
 -->
<!-- Title: %3 Pages: 1 -->
<svg width="414pt" height="996pt"
 viewBox="0.00 0.00 413.50 996.00" xmlns="http://www.w3.org/2000/svg" xmlns:xlink="http://www.w3.org/1999/xlink">
<g id="graph0" class="graph" transform="scale(1 1) rotate(0) translate(4 992)">
<title>%3</title>
<polygon fill="white" stroke="transparent" points="-4,4 -4,-992 409.5,-992 409.5,4 -4,4"/>
<g id="clust2" class="cluster">
<title>cluster[root] azurerm_kubernetes_cluster.aks (expand)_var_</title>
</g>
<g id="clust3" class="cluster">
<title>cluster[root] root_var_</title>
</g>
<g id="clust4" class="cluster">
<title>cluster[root] azurerm_kubernetes_cluster_node_pool.akspool (expand)_var_</title>
</g>
<g id="clust5" class="cluster">
<title>cluster[root] root_output_[root] azurerm_kubernetes_cluster.aks (expand)</title>
</g>
<!-- [root] azurerm_kubernetes_cluster.aks (expand) -->
<g id="node_0" class="node">
<title>[root] azurerm_kubernetes_cluster.aks (expand)</title>
<polygon fill="none" stroke="black" points="202.5,-754 202.5,-769 326.5,-769 326.5,-754 202.5,-754"/>
<text text-anchor="start" x="205.5" y="-759.6" font-family="courier new" font-size="8.00">azurerm_kubernetes_cluster</text>
<polygon fill="none" stroke="black" points="202.5,-739 202.5,-754 326.5,-754 326.5,-739 202.5,-739"/>
<text text-anchor="start" x="257.5" y="-744.6" font-family="courier new" font-size="8.00">aks</text>
</g>
<!-- [root] provider[&quot;registry.terraform.io/hashicorp/azurerm&quot;] -->
<g id="node_3" class="node">
<title>[root] provider[&quot;registry.terraform.io/hashicorp/azurerm&quot;]</title>
<polygon fill="none" stroke="black" points="157.5,-682 157.5,-697 267.5,-697 267.5,-682 157.5,-682"/>
<text text-anchor="start" x="192" y="-687.6" font-family="courier new" font-size="8.00">terraform</text>
<polygon fill="none" stroke="black" points="157.5,-667 157.5,-682 267.5,-682 267.5,-667 157.5,-667"/>
<text text-anchor="start" x="160.5" y="-672.6" font-family="courier new" font-size="8.00">io/hashicorp/azurerm\&quot;]</text>
</g>
<!-- [root] azurerm_kubernetes_cluster.aks (expand)&#45;&gt;[root] provider[&quot;registry.terraform.io/hashicorp/azurerm&quot;] -->
<g id="edge_0" class="edge">
<title>[root] azurerm_kubernetes_cluster.aks (expand)&#45;&gt;[root] provider[&quot;registry.terraform.io/hashicorp/azurerm&quot;]</title>
<path fill="none" stroke="black" d="M251.65,-735.7C245.47,-727.39 237.96,-717.28 231.18,-708.14"/>
<polygon fill="black" stroke="black" points="233.98,-706.04 225.21,-700.1 228.36,-710.22 233.98,-706.04"/>
</g>
<!-- [root] var.appgw_subnet_id -->
<g id="node_4" class="node">
<title>[root] var.appgw_subnet_id</title>
<polygon fill="none" stroke="black" points="292.5,-682 292.5,-697 366.5,-697 366.5,-682 292.5,-682"/>
<text text-anchor="start" x="322.5" y="-687.6" font-family="courier new" font-size="8.00">var</text>
<polygon fill="none" stroke="black" points="292.5,-667 292.5,-682 366.5,-682 366.5,-667 292.5,-667"/>
<text text-anchor="start" x="295.5" y="-672.6" font-family="courier new" font-size="8.00">appgw_subnet_id</text>
</g>
<!-- [root] azurerm_kubernetes_cluster.aks (expand)&#45;&gt;[root] var.appgw_subnet_id -->
<g id="edge_1" class="edge">
<title>[root] azurerm_kubernetes_cluster.aks (expand)&#45;&gt;[root] var.appgw_subnet_id</title>
<path fill="none" stroke="black" d="M280.57,-735.7C288.44,-727.22 298.06,-716.86 306.67,-707.58"/>
<polygon fill="black" stroke="black" points="309.38,-709.81 313.62,-700.1 304.25,-705.05 309.38,-709.81"/>
</g>
<!-- [root] azurerm_kubernetes_cluster_node_pool.akspool (expand) -->
<g id="node_1" class="node">
<title>[root] azurerm_kubernetes_cluster_node_pool.akspool (expand)</title>
<polygon fill="none" stroke="black" points="0.5,-826 0.5,-841 169.5,-841 169.5,-826 0.5,-826"/>
<text text-anchor="start" x="3.5" y="-831.6" font-family="courier new" font-size="8.00">azurerm_kubernetes_cluster_node_pool</text>
<polygon fill="none" stroke="black" points="0.5,-811 0.5,-826 169.5,-826 169.5,-811 0.5,-811"/>
<text text-anchor="start" x="69" y="-816.6" font-family="courier new" font-size="8.00">akspool</text>
</g>
<!-- [root] azurerm_kubernetes_cluster_node_pool.akspool (expand)&#45;&gt;[root] azurerm_kubernetes_cluster.aks (expand) -->
<g id="edge_11" class="edge">
<title>[root] azurerm_kubernetes_cluster_node_pool.akspool (expand)&#45;&gt;[root] azurerm_kubernetes_cluster.aks (expand)</title>
<path fill="none" stroke="black" d="M128.53,-807.88C153.47,-798.18 184.84,-785.98 211.16,-775.74"/>
<polygon fill="black" stroke="black" points="212.56,-778.95 220.61,-772.07 210.02,-772.43 212.56,-778.95"/>
</g>
<!-- [root] var.nodepool_pod_subnet_id -->
<g id="node_11" class="node">
<title>[root] var.nodepool_pod_subnet_id</title>
<polygon fill="none" stroke="black" points="31.5,-754 31.5,-769 137.5,-769 137.5,-754 31.5,-754"/>
<text text-anchor="start" x="77.5" y="-759.6" font-family="courier new" font-size="8.00">var</text>
<polygon fill="none" stroke="black" points="31.5,-739 31.5,-754 137.5,-754 137.5,-739 31.5,-739"/>
<text text-anchor="start" x="34.5" y="-744.6" font-family="courier new" font-size="8.00">nodepool_pod_subnet_id</text>
</g>
<!-- [root] azurerm_kubernetes_cluster_node_pool.akspool (expand)&#45;&gt;[root] var.nodepool_pod_subnet_id -->
<g id="edge_12" class="edge">
<title>[root] azurerm_kubernetes_cluster_node_pool.akspool (expand)&#45;&gt;[root] var.nodepool_pod_subnet_id</title>
<path fill="none" stroke="black" d="M84.5,-807.7C84.5,-799.98 84.5,-790.71 84.5,-782.11"/>
<polygon fill="black" stroke="black" points="88,-782.1 84.5,-772.1 81,-782.1 88,-782.1"/>
</g>
<!-- [root] provider[&quot;registry.terraform.io/hashicorp/azurerm&quot;] (close) -->
<g id="node_19" class="node">
<title>[root] provider[&quot;registry.terraform.io/hashicorp/azurerm&quot;] (close)</title>
<polygon fill="none" stroke="black" points="17.5,-898 17.5,-913 127.5,-913 127.5,-898 17.5,-898"/>
<text text-anchor="start" x="52" y="-903.6" font-family="courier new" font-size="8.00">terraform</text>
<polygon fill="none" stroke="black" points="17.5,-883 17.5,-898 127.5,-898 127.5,-883 17.5,-883"/>
<text text-anchor="start" x="20.5" y="-888.6" font-family="courier new" font-size="8.00">io/hashicorp/azurerm\&quot;]</text>
</g>
<!-- [root] provider[&quot;registry.terraform.io/hashicorp/azurerm&quot;] (close)&#45;&gt;[root] azurerm_kubernetes_cluster_node_pool.akspool (expand) -->
<g id="edge_17" class="edge">
<title>[root] provider[&quot;registry.terraform.io/hashicorp/azurerm&quot;] (close)&#45;&gt;[root] azurerm_kubernetes_cluster_node_pool.akspool (expand)</title>
<path fill="none" stroke="black" d="M75.47,-879.7C76.79,-871.98 78.38,-862.71 79.85,-854.11"/>
<polygon fill="black" stroke="black" points="83.33,-854.55 81.57,-844.1 76.43,-853.37 83.33,-854.55"/>
</g>
<!-- [root] root -->
<g id="node_20" class="node">
<title>[root] root</title>
<polygon fill="none" stroke="black" points="229.5,-988 163.5,-988 163.5,-952 229.5,-952 229.5,-988"/>
<text text-anchor="middle" x="196.5" y="-968.1" font-family="courier new" font-size="8.00">[root] root</text>
</g>
<!-- [root] root&#45;&gt;[root] provider[&quot;registry.terraform.io/hashicorp/azurerm&quot;] (close) -->
<g id="edge_19" class="edge">
<title>[root] root&#45;&gt;[root] provider[&quot;registry.terraform.io/hashicorp/azurerm&quot;] (close)</title>
<path fill="none" stroke="black" d="M166.17,-951.88C149.8,-942.64 129.42,-931.13 111.85,-921.21"/>
<polygon fill="black" stroke="black" points="113.38,-918.06 102.95,-916.19 109.94,-924.15 113.38,-918.06"/>
</g>
<!-- [root] var.default_pod_subnet_id -->
<g id="node_7" class="node">
<title>[root] var.default_pod_subnet_id</title>
<polygon fill="none" stroke="black" points="146.5,-898 146.5,-913 247.5,-913 247.5,-898 146.5,-898"/>
<text text-anchor="start" x="190" y="-903.6" font-family="courier new" font-size="8.00">var</text>
<polygon fill="none" stroke="black" points="146.5,-883 146.5,-898 247.5,-898 247.5,-883 146.5,-883"/>
<text text-anchor="start" x="149.5" y="-888.6" font-family="courier new" font-size="8.00">default_pod_subnet_id</text>
</g>
<!-- [root] root&#45;&gt;[root] var.default_pod_subnet_id -->
<g id="edge_20" class="edge">
<title>[root] root&#45;&gt;[root] var.default_pod_subnet_id</title>
<path fill="none" stroke="black" d="M196.5,-951.7C196.5,-943.98 196.5,-934.71 196.5,-926.11"/>
<polygon fill="black" stroke="black" points="200,-926.1 196.5,-916.1 193,-926.1 200,-926.1"/>
</g>
<!-- [root] output.kube_config -->
<g id="node_2" class="node">
<title>[root] output.kube_config</title>
<polygon fill="none" stroke="black" points="271.5,-898 271.5,-913 327.5,-913 327.5,-898 271.5,-898"/>
<text text-anchor="start" x="285.5" y="-903.6" font-family="courier new" font-size="8.00">output</text>
<polygon fill="none" stroke="black" points="271.5,-883 271.5,-898 327.5,-898 327.5,-883 271.5,-883"/>
<text text-anchor="start" x="274.5" y="-888.6" font-family="courier new" font-size="8.00">kube_config</text>
</g>
<!-- [root] root&#45;&gt;[root] output.kube_config -->
<g id="edge_18" class="edge">
<title>[root] root&#45;&gt;[root] output.kube_config</title>
<path fill="none" stroke="black" d="M221.7,-951.88C234.91,-942.89 251.29,-931.76 265.61,-922.03"/>
<polygon fill="black" stroke="black" points="267.9,-924.71 274.21,-916.19 263.97,-918.92 267.9,-924.71"/>
</g>
<!-- [root] var.default_max_node_count -->
<g id="node_5" class="node">
<title>[root] var.default_max_node_count</title>
<polygon fill="none" stroke="black" points="283.5,-610 283.5,-625 389.5,-625 389.5,-610 283.5,-610"/>
<text text-anchor="start" x="329.5" y="-615.6" font-family="courier new" font-size="8.00">var</text>
<polygon fill="none" stroke="black" points="283.5,-595 283.5,-610 389.5,-610 389.5,-595 283.5,-595"/>
<text text-anchor="start" x="286.5" y="-600.6" font-family="courier new" font-size="8.00">default_max_node_count</text>
</g>
<!-- [root] var.appgw_subnet_id&#45;&gt;[root] var.default_max_node_count -->
<g id="edge_21" class="edge">
<title>[root] var.appgw_subnet_id&#45;&gt;[root] var.default_max_node_count</title>
<path fill="none" stroke="black" stroke-dasharray="5,2" d="M331.23,-663.7C332.32,-652.85 333.71,-638.92 334.79,-628.1"/>
</g>
<!-- [root] var.default_min_node_count -->
<g id="node_6" class="node">
<title>[root] var.default_min_node_count</title>
<polygon fill="none" stroke="black" points="283.5,-538 283.5,-553 389.5,-553 389.5,-538 283.5,-538"/>
<text text-anchor="start" x="329.5" y="-543.6" font-family="courier new" font-size="8.00">var</text>
<polygon fill="none" stroke="black" points="283.5,-523 283.5,-538 389.5,-538 389.5,-523 283.5,-523"/>
<text text-anchor="start" x="286.5" y="-528.6" font-family="courier new" font-size="8.00">default_min_node_count</text>
</g>
<!-- [root] var.default_max_node_count&#45;&gt;[root] var.default_min_node_count -->
<g id="edge_22" class="edge">
<title>[root] var.default_max_node_count&#45;&gt;[root] var.default_min_node_count</title>
<path fill="none" stroke="black" stroke-dasharray="5,2" d="M336.5,-591.7C336.5,-580.85 336.5,-566.92 336.5,-556.1"/>
</g>
<!-- [root] var.default_vm_size -->
<g id="node_8" class="node">
<title>[root] var.default_vm_size</title>
<polygon fill="none" stroke="black" points="299.5,-466 299.5,-481 373.5,-481 373.5,-466 299.5,-466"/>
<text text-anchor="start" x="329.5" y="-471.6" font-family="courier new" font-size="8.00">var</text>
<polygon fill="none" stroke="black" points="299.5,-451 299.5,-466 373.5,-466 373.5,-451 299.5,-451"/>
<text text-anchor="start" x="302.5" y="-456.6" font-family="courier new" font-size="8.00">default_vm_size</text>
</g>
<!-- [root] var.default_min_node_count&#45;&gt;[root] var.default_vm_size -->
<g id="edge_23" class="edge">
<title>[root] var.default_min_node_count&#45;&gt;[root] var.default_vm_size</title>
<path fill="none" stroke="black" stroke-dasharray="5,2" d="M336.5,-519.7C336.5,-508.85 336.5,-494.92 336.5,-484.1"/>
</g>
<!-- [root] var.internal_subnet_id -->
<g id="node_9" class="node">
<title>[root] var.internal_subnet_id</title>
<polygon fill="none" stroke="black" points="292.5,-394 292.5,-409 380.5,-409 380.5,-394 292.5,-394"/>
<text text-anchor="start" x="329.5" y="-399.6" font-family="courier new" font-size="8.00">var</text>
<polygon fill="none" stroke="black" points="292.5,-379 292.5,-394 380.5,-394 380.5,-379 292.5,-379"/>
<text text-anchor="start" x="295.5" y="-384.6" font-family="courier new" font-size="8.00">internal_subnet_id</text>
</g>
<!-- [root] var.default_vm_size&#45;&gt;[root] var.internal_subnet_id -->
<g id="edge_24" class="edge">
<title>[root] var.default_vm_size&#45;&gt;[root] var.internal_subnet_id</title>
<path fill="none" stroke="black" stroke-dasharray="5,2" d="M336.5,-447.7C336.5,-436.85 336.5,-422.92 336.5,-412.1"/>
</g>
<!-- [root] var.location -->
<g id="node_10" class="node">
<title>[root] var.location</title>
<polygon fill="none" stroke="black" points="315.5,-322 315.5,-337 358.5,-337 358.5,-322 315.5,-322"/>
<text text-anchor="start" x="330" y="-327.6" font-family="courier new" font-size="8.00">var</text>
<polygon fill="none" stroke="black" points="315.5,-307 315.5,-322 358.5,-322 358.5,-307 315.5,-307"/>
<text text-anchor="start" x="318.5" y="-312.6" font-family="courier new" font-size="8.00">location</text>
</g>
<!-- [root] var.internal_subnet_id&#45;&gt;[root] var.location -->
<g id="edge_25" class="edge">
<title>[root] var.internal_subnet_id&#45;&gt;[root] var.location</title>
<path fill="none" stroke="black" stroke-dasharray="5,2" d="M336.5,-375.7C336.5,-364.85 336.5,-350.92 336.5,-340.1"/>
</g>
<!-- [root] var.prefix -->
<g id="node_12" class="node">
<title>[root] var.prefix</title>
<polygon fill="none" stroke="black" points="319.5,-250 319.5,-265 353.5,-265 353.5,-250 319.5,-250"/>
<text text-anchor="start" x="329.5" y="-255.6" font-family="courier new" font-size="8.00">var</text>
<polygon fill="none" stroke="black" points="319.5,-235 319.5,-250 353.5,-250 353.5,-235 319.5,-235"/>
<text text-anchor="start" x="322.5" y="-240.6" font-family="courier new" font-size="8.00">prefix</text>
</g>
<!-- [root] var.location&#45;&gt;[root] var.prefix -->
<g id="edge_26" class="edge">
<title>[root] var.location&#45;&gt;[root] var.prefix</title>
<path fill="none" stroke="black" stroke-dasharray="5,2" d="M336.5,-303.7C336.5,-292.85 336.5,-278.92 336.5,-268.1"/>
</g>
<!-- [root] var.resourcegroupname -->
<g id="node_13" class="node">
<title>[root] var.resourcegroupname</title>
<polygon fill="none" stroke="black" points="295.5,-178 295.5,-193 378.5,-193 378.5,-178 295.5,-178"/>
<text text-anchor="start" x="330" y="-183.6" font-family="courier new" font-size="8.00">var</text>
<polygon fill="none" stroke="black" points="295.5,-163 295.5,-178 378.5,-178 378.5,-163 295.5,-163"/>
<text text-anchor="start" x="298.5" y="-168.6" font-family="courier new" font-size="8.00">resourcegroupname</text>
</g>
<!-- [root] var.prefix&#45;&gt;[root] var.resourcegroupname -->
<g id="edge_27" class="edge">
<title>[root] var.prefix&#45;&gt;[root] var.resourcegroupname</title>
<path fill="none" stroke="black" stroke-dasharray="5,2" d="M336.5,-231.7C336.5,-220.85 336.5,-206.92 336.5,-196.1"/>
</g>
<!-- [root] var.source_ip -->
<g id="node_14" class="node">
<title>[root] var.source_ip</title>
<polygon fill="none" stroke="black" points="313.5,-106 313.5,-121 360.5,-121 360.5,-106 313.5,-106"/>
<text text-anchor="start" x="330" y="-111.6" font-family="courier new" font-size="8.00">var</text>
<polygon fill="none" stroke="black" points="313.5,-91 313.5,-106 360.5,-106 360.5,-91 313.5,-91"/>
<text text-anchor="start" x="316.5" y="-96.6" font-family="courier new" font-size="8.00">source_ip</text>
</g>
<!-- [root] var.resourcegroupname&#45;&gt;[root] var.source_ip -->
<g id="edge_28" class="edge">
<title>[root] var.resourcegroupname&#45;&gt;[root] var.source_ip</title>
<path fill="none" stroke="black" stroke-dasharray="5,2" d="M336.5,-159.7C336.5,-148.85 336.5,-134.92 336.5,-124.1"/>
</g>
<!-- [root] var.tags -->
<g id="node_18" class="node">
<title>[root] var.tags</title>
<polygon fill="none" stroke="black" points="324.5,-34 324.5,-49 349.5,-49 349.5,-34 324.5,-34"/>
<text text-anchor="start" x="330" y="-39.6" font-family="courier new" font-size="8.00">var</text>
<polygon fill="none" stroke="black" points="324.5,-19 324.5,-34 349.5,-34 349.5,-19 324.5,-19"/>
<text text-anchor="start" x="327.5" y="-24.6" font-family="courier new" font-size="8.00">tags</text>
</g>
<!-- [root] var.source_ip&#45;&gt;[root] var.tags -->
<g id="edge_29" class="edge">
<title>[root] var.source_ip&#45;&gt;[root] var.tags</title>
<path fill="none" stroke="black" stroke-dasharray="5,2" d="M336.5,-87.7C336.5,-76.85 336.5,-62.92 336.5,-52.1"/>
</g>
<!-- [root] var.spot_max_node_count -->
<g id="node_15" class="node">
<title>[root] var.spot_max_node_count</title>
<polygon fill="none" stroke="black" points="38.5,-682 38.5,-697 130.5,-697 130.5,-682 38.5,-682"/>
<text text-anchor="start" x="77.5" y="-687.6" font-family="courier new" font-size="8.00">var</text>
<polygon fill="none" stroke="black" points="38.5,-667 38.5,-682 130.5,-682 130.5,-667 38.5,-667"/>
<text text-anchor="start" x="41.5" y="-672.6" font-family="courier new" font-size="8.00">spot_max_node_count</text>
</g>
<!-- [root] var.nodepool_pod_subnet_id&#45;&gt;[root] var.spot_max_node_count -->
<g id="edge_30" class="edge">
<title>[root] var.nodepool_pod_subnet_id&#45;&gt;[root] var.spot_max_node_count</title>
<path fill="none" stroke="black" stroke-dasharray="5,2" d="M84.5,-735.7C84.5,-724.85 84.5,-710.92 84.5,-700.1"/>
</g>
<!-- [root] var.spot_min_node_count -->
<g id="node_16" class="node">
<title>[root] var.spot_min_node_count</title>
<polygon fill="none" stroke="black" points="38.5,-610 38.5,-625 130.5,-625 130.5,-610 38.5,-610"/>
<text text-anchor="start" x="77.5" y="-615.6" font-family="courier new" font-size="8.00">var</text>
<polygon fill="none" stroke="black" points="38.5,-595 38.5,-610 130.5,-610 130.5,-595 38.5,-595"/>
<text text-anchor="start" x="41.5" y="-600.6" font-family="courier new" font-size="8.00">spot_min_node_count</text>
</g>
<!-- [root] var.spot_max_node_count&#45;&gt;[root] var.spot_min_node_count -->
<g id="edge_31" class="edge">
<title>[root] var.spot_max_node_count&#45;&gt;[root] var.spot_min_node_count</title>
<path fill="none" stroke="black" stroke-dasharray="5,2" d="M84.5,-663.7C84.5,-652.85 84.5,-638.92 84.5,-628.1"/>
</g>
<!-- [root] var.spot_vm_size -->
<g id="node_17" class="node">
<title>[root] var.spot_vm_size</title>
<polygon fill="none" stroke="black" points="54.5,-538 54.5,-553 115.5,-553 115.5,-538 54.5,-538"/>
<text text-anchor="start" x="78" y="-543.6" font-family="courier new" font-size="8.00">var</text>
<polygon fill="none" stroke="black" points="54.5,-523 54.5,-538 115.5,-538 115.5,-523 54.5,-523"/>
<text text-anchor="start" x="57.5" y="-528.6" font-family="courier new" font-size="8.00">spot_vm_size</text>
</g>
<!-- [root] var.spot_min_node_count&#45;&gt;[root] var.spot_vm_size -->
<g id="edge_32" class="edge">
<title>[root] var.spot_min_node_count&#45;&gt;[root] var.spot_vm_size</title>
<path fill="none" stroke="black" stroke-dasharray="5,2" d="M84.5,-591.7C84.5,-580.85 84.5,-566.92 84.5,-556.1"/>
</g>
<!-- [root] output.kube_config&#45;&gt;[root] azurerm_kubernetes_cluster.aks (expand) -->
<g id="edge_16" class="edge">
<title>[root] output.kube_config&#45;&gt;[root] azurerm_kubernetes_cluster.aks (expand)</title>
<path fill="none" stroke="black" d="M295.28,-879.87C289.29,-855.56 278.26,-810.82 271.16,-782.01"/>
<polygon fill="black" stroke="black" points="274.53,-781.06 268.74,-772.19 267.73,-782.74 274.53,-781.06"/>
</g>
</g>
</svg>

