<?xml version="1.0" encoding="UTF-8" standalone="no"?>
<!DOCTYPE svg PUBLIC "-//W3C//DTD SVG 1.1//EN"
 "http://www.w3.org/Graphics/SVG/1.1/DTD/svg11.dtd">
<!-- Generated by graphviz version 2.43.0 (0)
 -->
<!-- Title: %3 Pages: 1 -->
<svg width="398pt" height="1068pt"
 viewBox="0.00 0.00 398.00 1068.00" xmlns="http://www.w3.org/2000/svg" xmlns:xlink="http://www.w3.org/1999/xlink">
<g id="graph0" class="graph" transform="scale(1 1) rotate(0) translate(4 1064)">
<title>%3</title>
<polygon fill="white" stroke="transparent" points="-4,4 -4,-1064 394,-1064 394,4 -4,4"/>
<g id="clust2" class="cluster">
<title>cluster[root] azurerm_kubernetes_cluster.aks (expand)_var_</title>
</g>
<g id="clust3" class="cluster">
<title>cluster[root] azurerm_kubernetes_cluster_node_pool.akspool (expand)_var_</title>
</g>
<g id="clust4" class="cluster">
<title>cluster[root] root_output_[root] azurerm_kubernetes_cluster.aks (expand)</title>
</g>
<!-- [root] azurerm_kubernetes_cluster.aks (expand) -->
<g id="node_0" class="node">
<title>[root] azurerm_kubernetes_cluster.aks (expand)</title>
<polygon fill="none" stroke="black" points="140,-826 140,-841 264,-841 264,-826 140,-826"/>
<text text-anchor="start" x="143" y="-831.6" font-family="courier new" font-size="8.00">azurerm_kubernetes_cluster</text>
<polygon fill="none" stroke="black" points="140,-811 140,-826 264,-826 264,-811 140,-811"/>
<text text-anchor="start" x="195" y="-816.6" font-family="courier new" font-size="8.00">aks</text>
</g>
<!-- [root] provider[&quot;registry.terraform.io/hashicorp/azurerm&quot;] -->
<g id="node_3" class="node">
<title>[root] provider[&quot;registry.terraform.io/hashicorp/azurerm&quot;]</title>
<polygon fill="none" stroke="black" points="142,-754 142,-769 252,-769 252,-754 142,-754"/>
<text text-anchor="start" x="176.5" y="-759.6" font-family="courier new" font-size="8.00">terraform</text>
<polygon fill="none" stroke="black" points="142,-739 142,-754 252,-754 252,-739 142,-739"/>
<text text-anchor="start" x="145" y="-744.6" font-family="courier new" font-size="8.00">io/hashicorp/azurerm\&quot;]</text>
</g>
<!-- [root] azurerm_kubernetes_cluster.aks (expand)&#45;&gt;[root] provider[&quot;registry.terraform.io/hashicorp/azurerm&quot;] -->
<g id="edge_0" class="edge">
<title>[root] azurerm_kubernetes_cluster.aks (expand)&#45;&gt;[root] provider[&quot;registry.terraform.io/hashicorp/azurerm&quot;]</title>
<path fill="none" stroke="black" d="M200.76,-807.7C200.21,-799.98 199.55,-790.71 198.94,-782.11"/>
<polygon fill="black" stroke="black" points="202.43,-781.83 198.22,-772.1 195.44,-782.33 202.43,-781.83"/>
</g>
<!-- [root] var.appgw_subnet_id -->
<g id="node_4" class="node">
<title>[root] var.appgw_subnet_id</title>
<polygon fill="none" stroke="black" points="277,-754 277,-769 351,-769 351,-754 277,-754"/>
<text text-anchor="start" x="307" y="-759.6" font-family="courier new" font-size="8.00">var</text>
<polygon fill="none" stroke="black" points="277,-739 277,-754 351,-754 351,-739 277,-739"/>
<text text-anchor="start" x="280" y="-744.6" font-family="courier new" font-size="8.00">appgw_subnet_id</text>
</g>
<!-- [root] azurerm_kubernetes_cluster.aks (expand)&#45;&gt;[root] var.appgw_subnet_id -->
<g id="edge_1" class="edge">
<title>[root] azurerm_kubernetes_cluster.aks (expand)&#45;&gt;[root] var.appgw_subnet_id</title>
<path fill="none" stroke="black" d="M229.4,-807.88C243.91,-798.81 261.92,-787.55 277.59,-777.76"/>
<polygon fill="black" stroke="black" points="279.87,-780.46 286.5,-772.19 276.16,-774.52 279.87,-780.46"/>
</g>
<!-- [root] azurerm_kubernetes_cluster_node_pool.akspool (expand) -->
<g id="node_1" class="node">
<title>[root] azurerm_kubernetes_cluster_node_pool.akspool (expand)</title>
<polygon fill="none" stroke="black" points="6,-898 6,-913 175,-913 175,-898 6,-898"/>
<text text-anchor="start" x="9" y="-903.6" font-family="courier new" font-size="8.00">azurerm_kubernetes_cluster_node_pool</text>
<polygon fill="none" stroke="black" points="6,-883 6,-898 175,-898 175,-883 6,-883"/>
<text text-anchor="start" x="74.5" y="-888.6" font-family="courier new" font-size="8.00">akspool</text>
</g>
<!-- [root] azurerm_kubernetes_cluster_node_pool.akspool (expand)&#45;&gt;[root] azurerm_kubernetes_cluster.aks (expand) -->
<g id="edge_12" class="edge">
<title>[root] azurerm_kubernetes_cluster_node_pool.akspool (expand)&#45;&gt;[root] azurerm_kubernetes_cluster.aks (expand)</title>
<path fill="none" stroke="black" d="M117.4,-879.88C131.91,-870.81 149.92,-859.55 165.59,-849.76"/>
<polygon fill="black" stroke="black" points="167.87,-852.46 174.5,-844.19 164.16,-846.52 167.87,-852.46"/>
</g>
<!-- [root] var.nodepool_pod_subnet_id -->
<g id="node_11" class="node">
<title>[root] var.nodepool_pod_subnet_id</title>
<polygon fill="none" stroke="black" points="16,-826 16,-841 122,-841 122,-826 16,-826"/>
<text text-anchor="start" x="62" y="-831.6" font-family="courier new" font-size="8.00">var</text>
<polygon fill="none" stroke="black" points="16,-811 16,-826 122,-826 122,-811 16,-811"/>
<text text-anchor="start" x="19" y="-816.6" font-family="courier new" font-size="8.00">nodepool_pod_subnet_id</text>
</g>
<!-- [root] azurerm_kubernetes_cluster_node_pool.akspool (expand)&#45;&gt;[root] var.nodepool_pod_subnet_id -->
<g id="edge_13" class="edge">
<title>[root] azurerm_kubernetes_cluster_node_pool.akspool (expand)&#45;&gt;[root] var.nodepool_pod_subnet_id</title>
<path fill="none" stroke="black" d="M84.81,-879.7C82.47,-871.9 79.65,-862.51 77.05,-853.83"/>
<polygon fill="black" stroke="black" points="80.36,-852.68 74.13,-844.1 73.65,-854.69 80.36,-852.68"/>
</g>
<!-- [root] provider[&quot;registry.terraform.io/hashicorp/azurerm&quot;] (close) -->
<g id="node_19" class="node">
<title>[root] provider[&quot;registry.terraform.io/hashicorp/azurerm&quot;] (close)</title>
<polygon fill="none" stroke="black" points="38,-970 38,-985 148,-985 148,-970 38,-970"/>
<text text-anchor="start" x="72.5" y="-975.6" font-family="courier new" font-size="8.00">terraform</text>
<polygon fill="none" stroke="black" points="38,-955 38,-970 148,-970 148,-955 38,-955"/>
<text text-anchor="start" x="41" y="-960.6" font-family="courier new" font-size="8.00">io/hashicorp/azurerm\&quot;]</text>
</g>
<!-- [root] provider[&quot;registry.terraform.io/hashicorp/azurerm&quot;] (close)&#45;&gt;[root] azurerm_kubernetes_cluster_node_pool.akspool (expand) -->
<g id="edge_18" class="edge">
<title>[root] provider[&quot;registry.terraform.io/hashicorp/azurerm&quot;] (close)&#45;&gt;[root] azurerm_kubernetes_cluster_node_pool.akspool (expand)</title>
<path fill="none" stroke="black" d="M92.26,-951.7C91.93,-943.98 91.53,-934.71 91.16,-926.11"/>
<polygon fill="black" stroke="black" points="94.66,-925.95 90.73,-916.1 87.66,-926.25 94.66,-925.95"/>
</g>
<!-- [root] root -->
<g id="node_20" class="node">
<title>[root] root</title>
<polygon fill="none" stroke="black" points="179,-1060 113,-1060 113,-1024 179,-1024 179,-1060"/>
<text text-anchor="middle" x="146" y="-1040.1" font-family="courier new" font-size="8.00">[root] root</text>
</g>
<!-- [root] root&#45;&gt;[root] provider[&quot;registry.terraform.io/hashicorp/azurerm&quot;] (close) -->
<g id="edge_20" class="edge">
<title>[root] root&#45;&gt;[root] provider[&quot;registry.terraform.io/hashicorp/azurerm&quot;] (close)</title>
<path fill="none" stroke="black" d="M132.9,-1023.7C126.61,-1015.39 118.95,-1005.28 112.04,-996.14"/>
<polygon fill="black" stroke="black" points="114.78,-993.96 105.95,-988.1 109.2,-998.19 114.78,-993.96"/>
</g>
<!-- [root] output.kube_config -->
<g id="node_2" class="node">
<title>[root] output.kube_config</title>
<polygon fill="none" stroke="black" points="171,-970 171,-985 227,-985 227,-970 171,-970"/>
<text text-anchor="start" x="185" y="-975.6" font-family="courier new" font-size="8.00">output</text>
<polygon fill="none" stroke="black" points="171,-955 171,-970 227,-970 227,-955 171,-955"/>
<text text-anchor="start" x="174" y="-960.6" font-family="courier new" font-size="8.00">kube_config</text>
</g>
<!-- [root] root&#45;&gt;[root] output.kube_config -->
<g id="edge_19" class="edge">
<title>[root] root&#45;&gt;[root] output.kube_config</title>
<path fill="none" stroke="black" d="M159.1,-1023.7C165.39,-1015.39 173.05,-1005.28 179.96,-996.14"/>
<polygon fill="black" stroke="black" points="182.8,-998.19 186.05,-988.1 177.22,-993.96 182.8,-998.19"/>
</g>
<!-- [root] var.default_max_node_count -->
<g id="node_5" class="node">
<title>[root] var.default_max_node_count</title>
<polygon fill="none" stroke="black" points="268,-682 268,-697 374,-697 374,-682 268,-682"/>
<text text-anchor="start" x="314" y="-687.6" font-family="courier new" font-size="8.00">var</text>
<polygon fill="none" stroke="black" points="268,-667 268,-682 374,-682 374,-667 268,-667"/>
<text text-anchor="start" x="271" y="-672.6" font-family="courier new" font-size="8.00">default_max_node_count</text>
</g>
<!-- [root] var.appgw_subnet_id&#45;&gt;[root] var.default_max_node_count -->
<g id="edge_21" class="edge">
<title>[root] var.appgw_subnet_id&#45;&gt;[root] var.default_max_node_count</title>
<path fill="none" stroke="black" stroke-dasharray="5,2" d="M315.73,-735.7C316.82,-724.85 318.21,-710.92 319.29,-700.1"/>
</g>
<!-- [root] var.default_min_node_count -->
<g id="node_6" class="node">
<title>[root] var.default_min_node_count</title>
<polygon fill="none" stroke="black" points="268,-610 268,-625 374,-625 374,-610 268,-610"/>
<text text-anchor="start" x="314" y="-615.6" font-family="courier new" font-size="8.00">var</text>
<polygon fill="none" stroke="black" points="268,-595 268,-610 374,-610 374,-595 268,-595"/>
<text text-anchor="start" x="271" y="-600.6" font-family="courier new" font-size="8.00">default_min_node_count</text>
</g>
<!-- [root] var.default_max_node_count&#45;&gt;[root] var.default_min_node_count -->
<g id="edge_22" class="edge">
<title>[root] var.default_max_node_count&#45;&gt;[root] var.default_min_node_count</title>
<path fill="none" stroke="black" stroke-dasharray="5,2" d="M321,-663.7C321,-652.85 321,-638.92 321,-628.1"/>
</g>
<!-- [root] var.default_pod_subnet_id -->
<g id="node_7" class="node">
<title>[root] var.default_pod_subnet_id</title>
<polygon fill="none" stroke="black" points="271,-538 271,-553 372,-553 372,-538 271,-538"/>
<text text-anchor="start" x="314.5" y="-543.6" font-family="courier new" font-size="8.00">var</text>
<polygon fill="none" stroke="black" points="271,-523 271,-538 372,-538 372,-523 271,-523"/>
<text text-anchor="start" x="274" y="-528.6" font-family="courier new" font-size="8.00">default_pod_subnet_id</text>
</g>
<!-- [root] var.default_min_node_count&#45;&gt;[root] var.default_pod_subnet_id -->
<g id="edge_23" class="edge">
<title>[root] var.default_min_node_count&#45;&gt;[root] var.default_pod_subnet_id</title>
<path fill="none" stroke="black" stroke-dasharray="5,2" d="M321,-591.7C321,-580.85 321,-566.92 321,-556.1"/>
</g>
<!-- [root] var.default_vm_size -->
<g id="node_8" class="node">
<title>[root] var.default_vm_size</title>
<polygon fill="none" stroke="black" points="284,-466 284,-481 358,-481 358,-466 284,-466"/>
<text text-anchor="start" x="314" y="-471.6" font-family="courier new" font-size="8.00">var</text>
<polygon fill="none" stroke="black" points="284,-451 284,-466 358,-466 358,-451 284,-451"/>
<text text-anchor="start" x="287" y="-456.6" font-family="courier new" font-size="8.00">default_vm_size</text>
</g>
<!-- [root] var.default_pod_subnet_id&#45;&gt;[root] var.default_vm_size -->
<g id="edge_24" class="edge">
<title>[root] var.default_pod_subnet_id&#45;&gt;[root] var.default_vm_size</title>
<path fill="none" stroke="black" stroke-dasharray="5,2" d="M321,-519.7C321,-508.85 321,-494.92 321,-484.1"/>
</g>
<!-- [root] var.internal_subnet_id -->
<g id="node_9" class="node">
<title>[root] var.internal_subnet_id</title>
<polygon fill="none" stroke="black" points="277,-394 277,-409 365,-409 365,-394 277,-394"/>
<text text-anchor="start" x="314" y="-399.6" font-family="courier new" font-size="8.00">var</text>
<polygon fill="none" stroke="black" points="277,-379 277,-394 365,-394 365,-379 277,-379"/>
<text text-anchor="start" x="280" y="-384.6" font-family="courier new" font-size="8.00">internal_subnet_id</text>
</g>
<!-- [root] var.default_vm_size&#45;&gt;[root] var.internal_subnet_id -->
<g id="edge_25" class="edge">
<title>[root] var.default_vm_size&#45;&gt;[root] var.internal_subnet_id</title>
<path fill="none" stroke="black" stroke-dasharray="5,2" d="M321,-447.7C321,-436.85 321,-422.92 321,-412.1"/>
</g>
<!-- [root] var.location -->
<g id="node_10" class="node">
<title>[root] var.location</title>
<polygon fill="none" stroke="black" points="300,-322 300,-337 343,-337 343,-322 300,-322"/>
<text text-anchor="start" x="314.5" y="-327.6" font-family="courier new" font-size="8.00">var</text>
<polygon fill="none" stroke="black" points="300,-307 300,-322 343,-322 343,-307 300,-307"/>
<text text-anchor="start" x="303" y="-312.6" font-family="courier new" font-size="8.00">location</text>
</g>
<!-- [root] var.internal_subnet_id&#45;&gt;[root] var.location -->
<g id="edge_26" class="edge">
<title>[root] var.internal_subnet_id&#45;&gt;[root] var.location</title>
<path fill="none" stroke="black" stroke-dasharray="5,2" d="M321,-375.7C321,-364.85 321,-350.92 321,-340.1"/>
</g>
<!-- [root] var.prefix -->
<g id="node_12" class="node">
<title>[root] var.prefix</title>
<polygon fill="none" stroke="black" points="304,-250 304,-265 338,-265 338,-250 304,-250"/>
<text text-anchor="start" x="314" y="-255.6" font-family="courier new" font-size="8.00">var</text>
<polygon fill="none" stroke="black" points="304,-235 304,-250 338,-250 338,-235 304,-235"/>
<text text-anchor="start" x="307" y="-240.6" font-family="courier new" font-size="8.00">prefix</text>
</g>
<!-- [root] var.location&#45;&gt;[root] var.prefix -->
<g id="edge_27" class="edge">
<title>[root] var.location&#45;&gt;[root] var.prefix</title>
<path fill="none" stroke="black" stroke-dasharray="5,2" d="M321,-303.7C321,-292.85 321,-278.92 321,-268.1"/>
</g>
<!-- [root] var.resourcegroupname -->
<g id="node_13" class="node">
<title>[root] var.resourcegroupname</title>
<polygon fill="none" stroke="black" points="280,-178 280,-193 363,-193 363,-178 280,-178"/>
<text text-anchor="start" x="314.5" y="-183.6" font-family="courier new" font-size="8.00">var</text>
<polygon fill="none" stroke="black" points="280,-163 280,-178 363,-178 363,-163 280,-163"/>
<text text-anchor="start" x="283" y="-168.6" font-family="courier new" font-size="8.00">resourcegroupname</text>
</g>
<!-- [root] var.prefix&#45;&gt;[root] var.resourcegroupname -->
<g id="edge_28" class="edge">
<title>[root] var.prefix&#45;&gt;[root] var.resourcegroupname</title>
<path fill="none" stroke="black" stroke-dasharray="5,2" d="M321,-231.7C321,-220.85 321,-206.92 321,-196.1"/>
</g>
<!-- [root] var.source_ip -->
<g id="node_14" class="node">
<title>[root] var.source_ip</title>
<polygon fill="none" stroke="black" points="298,-106 298,-121 345,-121 345,-106 298,-106"/>
<text text-anchor="start" x="314.5" y="-111.6" font-family="courier new" font-size="8.00">var</text>
<polygon fill="none" stroke="black" points="298,-91 298,-106 345,-106 345,-91 298,-91"/>
<text text-anchor="start" x="301" y="-96.6" font-family="courier new" font-size="8.00">source_ip</text>
</g>
<!-- [root] var.resourcegroupname&#45;&gt;[root] var.source_ip -->
<g id="edge_29" class="edge">
<title>[root] var.resourcegroupname&#45;&gt;[root] var.source_ip</title>
<path fill="none" stroke="black" stroke-dasharray="5,2" d="M321,-159.7C321,-148.85 321,-134.92 321,-124.1"/>
</g>
<!-- [root] var.tags -->
<g id="node_18" class="node">
<title>[root] var.tags</title>
<polygon fill="none" stroke="black" points="309,-34 309,-49 334,-49 334,-34 309,-34"/>
<text text-anchor="start" x="314.5" y="-39.6" font-family="courier new" font-size="8.00">var</text>
<polygon fill="none" stroke="black" points="309,-19 309,-34 334,-34 334,-19 309,-19"/>
<text text-anchor="start" x="312" y="-24.6" font-family="courier new" font-size="8.00">tags</text>
</g>
<!-- [root] var.source_ip&#45;&gt;[root] var.tags -->
<g id="edge_30" class="edge">
<title>[root] var.source_ip&#45;&gt;[root] var.tags</title>
<path fill="none" stroke="black" stroke-dasharray="5,2" d="M321,-87.7C321,-76.85 321,-62.92 321,-52.1"/>
</g>
<!-- [root] var.spot_max_node_count -->
<g id="node_15" class="node">
<title>[root] var.spot_max_node_count</title>
<polygon fill="none" stroke="black" points="23,-754 23,-769 115,-769 115,-754 23,-754"/>
<text text-anchor="start" x="62" y="-759.6" font-family="courier new" font-size="8.00">var</text>
<polygon fill="none" stroke="black" points="23,-739 23,-754 115,-754 115,-739 23,-739"/>
<text text-anchor="start" x="26" y="-744.6" font-family="courier new" font-size="8.00">spot_max_node_count</text>
</g>
<!-- [root] var.nodepool_pod_subnet_id&#45;&gt;[root] var.spot_max_node_count -->
<g id="edge_31" class="edge">
<title>[root] var.nodepool_pod_subnet_id&#45;&gt;[root] var.spot_max_node_count</title>
<path fill="none" stroke="black" stroke-dasharray="5,2" d="M69,-807.7C69,-796.85 69,-782.92 69,-772.1"/>
</g>
<!-- [root] var.spot_min_node_count -->
<g id="node_16" class="node">
<title>[root] var.spot_min_node_count</title>
<polygon fill="none" stroke="black" points="23,-682 23,-697 115,-697 115,-682 23,-682"/>
<text text-anchor="start" x="62" y="-687.6" font-family="courier new" font-size="8.00">var</text>
<polygon fill="none" stroke="black" points="23,-667 23,-682 115,-682 115,-667 23,-667"/>
<text text-anchor="start" x="26" y="-672.6" font-family="courier new" font-size="8.00">spot_min_node_count</text>
</g>
<!-- [root] var.spot_max_node_count&#45;&gt;[root] var.spot_min_node_count -->
<g id="edge_32" class="edge">
<title>[root] var.spot_max_node_count&#45;&gt;[root] var.spot_min_node_count</title>
<path fill="none" stroke="black" stroke-dasharray="5,2" d="M69,-735.7C69,-724.85 69,-710.92 69,-700.1"/>
</g>
<!-- [root] var.spot_vm_size -->
<g id="node_17" class="node">
<title>[root] var.spot_vm_size</title>
<polygon fill="none" stroke="black" points="39,-610 39,-625 100,-625 100,-610 39,-610"/>
<text text-anchor="start" x="62.5" y="-615.6" font-family="courier new" font-size="8.00">var</text>
<polygon fill="none" stroke="black" points="39,-595 39,-610 100,-610 100,-595 39,-595"/>
<text text-anchor="start" x="42" y="-600.6" font-family="courier new" font-size="8.00">spot_vm_size</text>
</g>
<!-- [root] var.spot_min_node_count&#45;&gt;[root] var.spot_vm_size -->
<g id="edge_33" class="edge">
<title>[root] var.spot_min_node_count&#45;&gt;[root] var.spot_vm_size</title>
<path fill="none" stroke="black" stroke-dasharray="5,2" d="M69,-663.7C69,-652.85 69,-638.92 69,-628.1"/>
</g>
<!-- [root] output.kube_config&#45;&gt;[root] azurerm_kubernetes_cluster.aks (expand) -->
<g id="edge_17" class="edge">
<title>[root] output.kube_config&#45;&gt;[root] azurerm_kubernetes_cluster.aks (expand)</title>
<path fill="none" stroke="black" d="M199.36,-951.87C199.87,-927.67 200.81,-883.21 201.42,-854.39"/>
<polygon fill="black" stroke="black" points="204.92,-854.26 201.64,-844.19 197.93,-854.11 204.92,-854.26"/>
</g>
</g>
</svg>

