<?xml version="1.0" encoding="UTF-8" standalone="no"?>
<!DOCTYPE svg PUBLIC "-//W3C//DTD SVG 1.1//EN"
 "http://www.w3.org/Graphics/SVG/1.1/DTD/svg11.dtd">
<!-- Generated by graphviz version 2.43.0 (0)
 -->
<!-- Title: %3 Pages: 1 -->
<svg width="323pt" height="780pt"
 viewBox="0.00 0.00 322.50 780.00" xmlns="http://www.w3.org/2000/svg" xmlns:xlink="http://www.w3.org/1999/xlink">
<g id="graph0" class="graph" transform="scale(1 1) rotate(0) translate(4 776)">
<title>%3</title>
<polygon fill="white" stroke="transparent" points="-4,4 -4,-776 318.5,-776 318.5,4 -4,4"/>
<g id="clust2" class="cluster">
<title>cluster[root] azurerm_kubernetes_cluster.aks (expand)_var_</title>
</g>
<g id="clust3" class="cluster">
<title>cluster[root] azurerm_kubernetes_cluster_node_pool.akspool (expand)_var_</title>
</g>
<g id="clust4" class="cluster">
<title>cluster[root] root_output_[root] azurerm_kubernetes_cluster.aks (expand)</title>
</g>
<!-- [root] azurerm_kubernetes_cluster.aks (expand) -->
<g id="node_0" class="node">
<title>[root] azurerm_kubernetes_cluster.aks (expand)</title>
<polygon fill="none" stroke="black" points="134.5,-538 134.5,-553 258.5,-553 258.5,-538 134.5,-538"/>
<text text-anchor="start" x="137.5" y="-543.6" font-family="courier new" font-size="8.00">azurerm_kubernetes_cluster</text>
<polygon fill="none" stroke="black" points="134.5,-523 134.5,-538 258.5,-538 258.5,-523 134.5,-523"/>
<text text-anchor="start" x="189.5" y="-528.6" font-family="courier new" font-size="8.00">aks</text>
</g>
<!-- [root] provider[&quot;registry.terraform.io/hashicorp/azurerm&quot;] -->
<g id="node_3" class="node">
<title>[root] provider[&quot;registry.terraform.io/hashicorp/azurerm&quot;]</title>
<polygon fill="none" stroke="black" points="82.5,-466 82.5,-481 192.5,-481 192.5,-466 82.5,-466"/>
<text text-anchor="start" x="117" y="-471.6" font-family="courier new" font-size="8.00">terraform</text>
<polygon fill="none" stroke="black" points="82.5,-451 82.5,-466 192.5,-466 192.5,-451 82.5,-451"/>
<text text-anchor="start" x="85.5" y="-456.6" font-family="courier new" font-size="8.00">io/hashicorp/azurerm\&quot;]</text>
</g>
<!-- [root] azurerm_kubernetes_cluster.aks (expand)&#45;&gt;[root] provider[&quot;registry.terraform.io/hashicorp/azurerm&quot;] -->
<g id="edge_0" class="edge">
<title>[root] azurerm_kubernetes_cluster.aks (expand)&#45;&gt;[root] provider[&quot;registry.terraform.io/hashicorp/azurerm&quot;]</title>
<path fill="none" stroke="black" d="M181.92,-519.7C174.84,-511.3 166.22,-501.07 158.45,-491.86"/>
<polygon fill="black" stroke="black" points="161.04,-489.49 151.92,-484.1 155.69,-494.01 161.04,-489.49"/>
</g>
<!-- [root] var.default_node_count -->
<g id="node_4" class="node">
<title>[root] var.default_node_count</title>
<polygon fill="none" stroke="black" points="210.5,-466 210.5,-481 298.5,-481 298.5,-466 210.5,-466"/>
<text text-anchor="start" x="247.5" y="-471.6" font-family="courier new" font-size="8.00">var</text>
<polygon fill="none" stroke="black" points="210.5,-451 210.5,-466 298.5,-466 298.5,-451 210.5,-451"/>
<text text-anchor="start" x="213.5" y="-456.6" font-family="courier new" font-size="8.00">default_node_count</text>
</g>
<!-- [root] azurerm_kubernetes_cluster.aks (expand)&#45;&gt;[root] var.default_node_count -->
<g id="edge_1" class="edge">
<title>[root] azurerm_kubernetes_cluster.aks (expand)&#45;&gt;[root] var.default_node_count</title>
<path fill="none" stroke="black" d="M210.84,-519.7C217.79,-511.3 226.27,-501.07 233.9,-491.86"/>
<polygon fill="black" stroke="black" points="236.64,-494.04 240.33,-484.1 231.25,-489.57 236.64,-494.04"/>
</g>
<!-- [root] azurerm_kubernetes_cluster_node_pool.akspool (expand) -->
<g id="node_1" class="node">
<title>[root] azurerm_kubernetes_cluster_node_pool.akspool (expand)</title>
<polygon fill="none" stroke="black" points="0.5,-610 0.5,-625 169.5,-625 169.5,-610 0.5,-610"/>
<text text-anchor="start" x="3.5" y="-615.6" font-family="courier new" font-size="8.00">azurerm_kubernetes_cluster_node_pool</text>
<polygon fill="none" stroke="black" points="0.5,-595 0.5,-610 169.5,-610 169.5,-595 0.5,-595"/>
<text text-anchor="start" x="69" y="-600.6" font-family="courier new" font-size="8.00">akspool</text>
</g>
<!-- [root] azurerm_kubernetes_cluster_node_pool.akspool (expand)&#45;&gt;[root] azurerm_kubernetes_cluster.aks (expand) -->
<g id="edge_8" class="edge">
<title>[root] azurerm_kubernetes_cluster_node_pool.akspool (expand)&#45;&gt;[root] azurerm_kubernetes_cluster.aks (expand)</title>
<path fill="none" stroke="black" d="M111.9,-591.88C126.41,-582.81 144.42,-571.55 160.09,-561.76"/>
<polygon fill="black" stroke="black" points="162.37,-564.46 169,-556.19 158.66,-558.52 162.37,-564.46"/>
</g>
<!-- [root] var.spot_node_count -->
<g id="node_8" class="node">
<title>[root] var.spot_node_count</title>
<polygon fill="none" stroke="black" points="42.5,-538 42.5,-553 116.5,-553 116.5,-538 42.5,-538"/>
<text text-anchor="start" x="72.5" y="-543.6" font-family="courier new" font-size="8.00">var</text>
<polygon fill="none" stroke="black" points="42.5,-523 42.5,-538 116.5,-538 116.5,-523 42.5,-523"/>
<text text-anchor="start" x="45.5" y="-528.6" font-family="courier new" font-size="8.00">spot_node_count</text>
</g>
<!-- [root] azurerm_kubernetes_cluster_node_pool.akspool (expand)&#45;&gt;[root] var.spot_node_count -->
<g id="edge_9" class="edge">
<title>[root] azurerm_kubernetes_cluster_node_pool.akspool (expand)&#45;&gt;[root] var.spot_node_count</title>
<path fill="none" stroke="black" d="M83.26,-591.7C82.71,-583.98 82.05,-574.71 81.44,-566.11"/>
<polygon fill="black" stroke="black" points="84.93,-565.83 80.72,-556.1 77.94,-566.33 84.93,-565.83"/>
</g>
<!-- [root] provider[&quot;registry.terraform.io/hashicorp/azurerm&quot;] (close) -->
<g id="node_12" class="node">
<title>[root] provider[&quot;registry.terraform.io/hashicorp/azurerm&quot;] (close)</title>
<polygon fill="none" stroke="black" points="32.5,-682 32.5,-697 142.5,-697 142.5,-682 32.5,-682"/>
<text text-anchor="start" x="67" y="-687.6" font-family="courier new" font-size="8.00">terraform</text>
<polygon fill="none" stroke="black" points="32.5,-667 32.5,-682 142.5,-682 142.5,-667 32.5,-667"/>
<text text-anchor="start" x="35.5" y="-672.6" font-family="courier new" font-size="8.00">io/hashicorp/azurerm\&quot;]</text>
</g>
<!-- [root] provider[&quot;registry.terraform.io/hashicorp/azurerm&quot;] (close)&#45;&gt;[root] azurerm_kubernetes_cluster_node_pool.akspool (expand) -->
<g id="edge_11" class="edge">
<title>[root] provider[&quot;registry.terraform.io/hashicorp/azurerm&quot;] (close)&#45;&gt;[root] azurerm_kubernetes_cluster_node_pool.akspool (expand)</title>
<path fill="none" stroke="black" d="M86.76,-663.7C86.43,-655.98 86.03,-646.71 85.66,-638.11"/>
<polygon fill="black" stroke="black" points="89.16,-637.95 85.23,-628.1 82.16,-638.25 89.16,-637.95"/>
</g>
<!-- [root] root -->
<g id="node_13" class="node">
<title>[root] root</title>
<polygon fill="none" stroke="black" points="172.5,-772 106.5,-772 106.5,-736 172.5,-736 172.5,-772"/>
<text text-anchor="middle" x="139.5" y="-752.1" font-family="courier new" font-size="8.00">[root] root</text>
</g>
<!-- [root] root&#45;&gt;[root] provider[&quot;registry.terraform.io/hashicorp/azurerm&quot;] (close) -->
<g id="edge_13" class="edge">
<title>[root] root&#45;&gt;[root] provider[&quot;registry.terraform.io/hashicorp/azurerm&quot;] (close)</title>
<path fill="none" stroke="black" d="M126.65,-735.7C120.47,-727.39 112.96,-717.28 106.18,-708.14"/>
<polygon fill="black" stroke="black" points="108.98,-706.04 100.21,-700.1 103.36,-710.22 108.98,-706.04"/>
</g>
<!-- [root] output.kube_config -->
<g id="node_2" class="node">
<title>[root] output.kube_config</title>
<polygon fill="none" stroke="black" points="163.5,-682 163.5,-697 219.5,-697 219.5,-682 163.5,-682"/>
<text text-anchor="start" x="177.5" y="-687.6" font-family="courier new" font-size="8.00">output</text>
<polygon fill="none" stroke="black" points="163.5,-667 163.5,-682 219.5,-682 219.5,-667 163.5,-667"/>
<text text-anchor="start" x="166.5" y="-672.6" font-family="courier new" font-size="8.00">kube_config</text>
</g>
<!-- [root] root&#45;&gt;[root] output.kube_config -->
<g id="edge_12" class="edge">
<title>[root] root&#45;&gt;[root] output.kube_config</title>
<path fill="none" stroke="black" d="M152.35,-735.7C158.53,-727.39 166.04,-717.28 172.82,-708.14"/>
<polygon fill="black" stroke="black" points="175.64,-710.22 178.79,-700.1 170.02,-706.04 175.64,-710.22"/>
</g>
<!-- [root] var.location -->
<g id="node_5" class="node">
<title>[root] var.location</title>
<polygon fill="none" stroke="black" points="233.5,-394 233.5,-409 276.5,-409 276.5,-394 233.5,-394"/>
<text text-anchor="start" x="248" y="-399.6" font-family="courier new" font-size="8.00">var</text>
<polygon fill="none" stroke="black" points="233.5,-379 233.5,-394 276.5,-394 276.5,-379 233.5,-379"/>
<text text-anchor="start" x="236.5" y="-384.6" font-family="courier new" font-size="8.00">location</text>
</g>
<!-- [root] var.default_node_count&#45;&gt;[root] var.location -->
<g id="edge_14" class="edge">
<title>[root] var.default_node_count&#45;&gt;[root] var.location</title>
<path fill="none" stroke="black" stroke-dasharray="5,2" d="M254.5,-447.7C254.5,-436.85 254.5,-422.92 254.5,-412.1"/>
</g>
<!-- [root] var.prefix -->
<g id="node_6" class="node">
<title>[root] var.prefix</title>
<polygon fill="none" stroke="black" points="237.5,-322 237.5,-337 271.5,-337 271.5,-322 237.5,-322"/>
<text text-anchor="start" x="247.5" y="-327.6" font-family="courier new" font-size="8.00">var</text>
<polygon fill="none" stroke="black" points="237.5,-307 237.5,-322 271.5,-322 271.5,-307 237.5,-307"/>
<text text-anchor="start" x="240.5" y="-312.6" font-family="courier new" font-size="8.00">prefix</text>
</g>
<!-- [root] var.location&#45;&gt;[root] var.prefix -->
<g id="edge_15" class="edge">
<title>[root] var.location&#45;&gt;[root] var.prefix</title>
<path fill="none" stroke="black" stroke-dasharray="5,2" d="M254.5,-375.7C254.5,-364.85 254.5,-350.92 254.5,-340.1"/>
</g>
<!-- [root] var.resourcegroupname -->
<g id="node_7" class="node">
<title>[root] var.resourcegroupname</title>
<polygon fill="none" stroke="black" points="213.5,-250 213.5,-265 296.5,-265 296.5,-250 213.5,-250"/>
<text text-anchor="start" x="248" y="-255.6" font-family="courier new" font-size="8.00">var</text>
<polygon fill="none" stroke="black" points="213.5,-235 213.5,-250 296.5,-250 296.5,-235 213.5,-235"/>
<text text-anchor="start" x="216.5" y="-240.6" font-family="courier new" font-size="8.00">resourcegroupname</text>
</g>
<!-- [root] var.prefix&#45;&gt;[root] var.resourcegroupname -->
<g id="edge_16" class="edge">
<title>[root] var.prefix&#45;&gt;[root] var.resourcegroupname</title>
<path fill="none" stroke="black" stroke-dasharray="5,2" d="M254.5,-303.7C254.5,-292.85 254.5,-278.92 254.5,-268.1"/>
</g>
<!-- [root] var.subnet_id -->
<g id="node_9" class="node">
<title>[root] var.subnet_id</title>
<polygon fill="none" stroke="black" points="231.5,-178 231.5,-193 278.5,-193 278.5,-178 231.5,-178"/>
<text text-anchor="start" x="248" y="-183.6" font-family="courier new" font-size="8.00">var</text>
<polygon fill="none" stroke="black" points="231.5,-163 231.5,-178 278.5,-178 278.5,-163 231.5,-163"/>
<text text-anchor="start" x="234.5" y="-168.6" font-family="courier new" font-size="8.00">subnet_id</text>
</g>
<!-- [root] var.resourcegroupname&#45;&gt;[root] var.subnet_id -->
<g id="edge_17" class="edge">
<title>[root] var.resourcegroupname&#45;&gt;[root] var.subnet_id</title>
<path fill="none" stroke="black" stroke-dasharray="5,2" d="M254.5,-231.7C254.5,-220.85 254.5,-206.92 254.5,-196.1"/>
</g>
<!-- [root] var.tags -->
<g id="node_10" class="node">
<title>[root] var.tags</title>
<polygon fill="none" stroke="black" points="242.5,-106 242.5,-121 267.5,-121 267.5,-106 242.5,-106"/>
<text text-anchor="start" x="248" y="-111.6" font-family="courier new" font-size="8.00">var</text>
<polygon fill="none" stroke="black" points="242.5,-91 242.5,-106 267.5,-106 267.5,-91 242.5,-91"/>
<text text-anchor="start" x="245.5" y="-96.6" font-family="courier new" font-size="8.00">tags</text>
</g>
<!-- [root] var.subnet_id&#45;&gt;[root] var.tags -->
<g id="edge_18" class="edge">
<title>[root] var.subnet_id&#45;&gt;[root] var.tags</title>
<path fill="none" stroke="black" stroke-dasharray="5,2" d="M254.5,-159.7C254.5,-148.85 254.5,-134.92 254.5,-124.1"/>
</g>
<!-- [root] var.vm_size -->
<g id="node_11" class="node">
<title>[root] var.vm_size</title>
<polygon fill="none" stroke="black" points="235.5,-34 235.5,-49 273.5,-49 273.5,-34 235.5,-34"/>
<text text-anchor="start" x="247.5" y="-39.6" font-family="courier new" font-size="8.00">var</text>
<polygon fill="none" stroke="black" points="235.5,-19 235.5,-34 273.5,-34 273.5,-19 235.5,-19"/>
<text text-anchor="start" x="238.5" y="-24.6" font-family="courier new" font-size="8.00">vm_size</text>
</g>
<!-- [root] var.tags&#45;&gt;[root] var.vm_size -->
<g id="edge_19" class="edge">
<title>[root] var.tags&#45;&gt;[root] var.vm_size</title>
<path fill="none" stroke="black" stroke-dasharray="5,2" d="M254.5,-87.7C254.5,-76.85 254.5,-62.92 254.5,-52.1"/>
</g>
<!-- [root] output.kube_config&#45;&gt;[root] azurerm_kubernetes_cluster.aks (expand) -->
<g id="edge_10" class="edge">
<title>[root] output.kube_config&#45;&gt;[root] azurerm_kubernetes_cluster.aks (expand)</title>
<path fill="none" stroke="black" d="M192.1,-663.87C192.96,-639.67 194.52,-595.21 195.54,-566.39"/>
<polygon fill="black" stroke="black" points="199.04,-566.31 195.89,-556.19 192.04,-566.06 199.04,-566.31"/>
</g>
</g>
</svg>

