<?xml version="1.0" encoding="UTF-8" standalone="no"?>
<!DOCTYPE svg PUBLIC "-//W3C//DTD SVG 1.1//EN"
 "http://www.w3.org/Graphics/SVG/1.1/DTD/svg11.dtd">
<!-- Generated by graphviz version 2.43.0 (0)
 -->
<!-- Title: %3 Pages: 1 -->
<svg width="398pt" height="1068pt"
 viewBox="0.00 0.00 398.00 1068.00" xmlns="http://www.w3.org/2000/svg" xmlns:xlink="http://www.w3.org/1999/xlink">
<g id="graph0" class="graph" transform="scale(1 1) rotate(0) translate(4 1064)">
<title>%3</title>
<polygon fill="white" stroke="transparent" points="-4,4 -4,-1064 394,-1064 394,4 -4,4"/>
<g id="clust2" class="cluster">
<title>cluster[root] azurerm_kubernetes_cluster.aks (expand)_var_</title>
</g>
<g id="clust3" class="cluster">
<title>cluster[root] azurerm_role_assignment.attach_dns (expand)_var_</title>
</g>
<g id="clust4" class="cluster">
<title>cluster[root] azurerm_kubernetes_cluster_node_pool.akspool (expand)_var_</title>
</g>
<g id="clust5" class="cluster">
<title>cluster[root] root_output_[root] azurerm_kubernetes_cluster.aks (expand)</title>
</g>
<!-- [root] azurerm_kubernetes_cluster.aks (expand) -->
<g id="node_0" class="node">
<title>[root] azurerm_kubernetes_cluster.aks (expand)</title>
<polygon fill="none" stroke="black" points="126,-826 126,-841 250,-841 250,-826 126,-826"/>
<text text-anchor="start" x="129" y="-831.6" font-family="courier new" font-size="8.00">azurerm_kubernetes_cluster</text>
<polygon fill="none" stroke="black" points="126,-811 126,-826 250,-826 250,-811 126,-811"/>
<text text-anchor="start" x="181" y="-816.6" font-family="courier new" font-size="8.00">aks</text>
</g>
<!-- [root] provider[&quot;registry.terraform.io/hashicorp/azurerm&quot;] -->
<g id="node_4" class="node">
<title>[root] provider[&quot;registry.terraform.io/hashicorp/azurerm&quot;]</title>
<polygon fill="none" stroke="black" points="11,-754 11,-769 121,-769 121,-754 11,-754"/>
<text text-anchor="start" x="45.5" y="-759.6" font-family="courier new" font-size="8.00">terraform</text>
<polygon fill="none" stroke="black" points="11,-739 11,-754 121,-754 121,-739 11,-739"/>
<text text-anchor="start" x="14" y="-744.6" font-family="courier new" font-size="8.00">io/hashicorp/azurerm\&quot;]</text>
</g>
<!-- [root] azurerm_kubernetes_cluster.aks (expand)&#45;&gt;[root] provider[&quot;registry.terraform.io/hashicorp/azurerm&quot;] -->
<g id="edge_0" class="edge">
<title>[root] azurerm_kubernetes_cluster.aks (expand)&#45;&gt;[root] provider[&quot;registry.terraform.io/hashicorp/azurerm&quot;]</title>
<path fill="none" stroke="black" d="M158.16,-807.88C142.06,-798.64 122,-787.13 104.71,-777.21"/>
<polygon fill="black" stroke="black" points="106.37,-774.13 95.96,-772.19 102.89,-780.2 106.37,-774.13"/>
</g>
<!-- [root] var.appgw_subnet_id -->
<g id="node_5" class="node">
<title>[root] var.appgw_subnet_id</title>
<polygon fill="none" stroke="black" points="152,-754 152,-769 226,-769 226,-754 152,-754"/>
<text text-anchor="start" x="182" y="-759.6" font-family="courier new" font-size="8.00">var</text>
<polygon fill="none" stroke="black" points="152,-739 152,-754 226,-754 226,-739 152,-739"/>
<text text-anchor="start" x="155" y="-744.6" font-family="courier new" font-size="8.00">appgw_subnet_id</text>
</g>
<!-- [root] azurerm_kubernetes_cluster.aks (expand)&#45;&gt;[root] var.appgw_subnet_id -->
<g id="edge_1" class="edge">
<title>[root] azurerm_kubernetes_cluster.aks (expand)&#45;&gt;[root] var.appgw_subnet_id</title>
<path fill="none" stroke="black" d="M188.25,-807.7C188.36,-799.98 188.49,-790.71 188.61,-782.11"/>
<polygon fill="black" stroke="black" points="192.11,-782.15 188.76,-772.1 185.11,-782.05 192.11,-782.15"/>
</g>
<!-- [root] azurerm_kubernetes_cluster_node_pool.akspool (expand) -->
<g id="node_1" class="node">
<title>[root] azurerm_kubernetes_cluster_node_pool.akspool (expand)</title>
<polygon fill="none" stroke="black" points="129,-898 129,-913 298,-913 298,-898 129,-898"/>
<text text-anchor="start" x="132" y="-903.6" font-family="courier new" font-size="8.00">azurerm_kubernetes_cluster_node_pool</text>
<polygon fill="none" stroke="black" points="129,-883 129,-898 298,-898 298,-883 129,-883"/>
<text text-anchor="start" x="197.5" y="-888.6" font-family="courier new" font-size="8.00">akspool</text>
</g>
<!-- [root] azurerm_kubernetes_cluster_node_pool.akspool (expand)&#45;&gt;[root] azurerm_kubernetes_cluster.aks (expand) -->
<g id="edge_12" class="edge">
<title>[root] azurerm_kubernetes_cluster_node_pool.akspool (expand)&#45;&gt;[root] azurerm_kubernetes_cluster.aks (expand)</title>
<path fill="none" stroke="black" d="M206.82,-879.7C204,-871.81 200.61,-862.3 197.48,-853.55"/>
<polygon fill="black" stroke="black" points="200.77,-852.34 194.11,-844.1 194.18,-854.7 200.77,-852.34"/>
</g>
<!-- [root] var.nodepool_pod_subnet_id -->
<g id="node_13" class="node">
<title>[root] var.nodepool_pod_subnet_id</title>
<polygon fill="none" stroke="black" points="268,-826 268,-841 374,-841 374,-826 268,-826"/>
<text text-anchor="start" x="314" y="-831.6" font-family="courier new" font-size="8.00">var</text>
<polygon fill="none" stroke="black" points="268,-811 268,-826 374,-826 374,-811 268,-811"/>
<text text-anchor="start" x="271" y="-816.6" font-family="courier new" font-size="8.00">nodepool_pod_subnet_id</text>
</g>
<!-- [root] azurerm_kubernetes_cluster_node_pool.akspool (expand)&#45;&gt;[root] var.nodepool_pod_subnet_id -->
<g id="edge_13" class="edge">
<title>[root] azurerm_kubernetes_cluster_node_pool.akspool (expand)&#45;&gt;[root] var.nodepool_pod_subnet_id</title>
<path fill="none" stroke="black" d="M239.42,-879.88C253.41,-870.81 270.78,-859.55 285.89,-849.76"/>
<polygon fill="black" stroke="black" points="287.99,-852.57 294.48,-844.19 284.18,-846.69 287.99,-852.57"/>
</g>
<!-- [root] azurerm_role_assignment.attach_dns (expand) -->
<g id="node_2" class="node">
<title>[root] azurerm_role_assignment.attach_dns (expand)</title>
<polygon fill="none" stroke="black" points="0,-898 0,-913 110,-913 110,-898 0,-898"/>
<text text-anchor="start" x="3" y="-903.6" font-family="courier new" font-size="8.00">azurerm_role_assignment</text>
<polygon fill="none" stroke="black" points="0,-883 0,-898 110,-898 110,-883 0,-883"/>
<text text-anchor="start" x="32" y="-888.6" font-family="courier new" font-size="8.00">attach_dns</text>
</g>
<!-- [root] azurerm_role_assignment.attach_dns (expand)&#45;&gt;[root] azurerm_kubernetes_cluster.aks (expand) -->
<g id="edge_17" class="edge">
<title>[root] azurerm_role_assignment.attach_dns (expand)&#45;&gt;[root] azurerm_kubernetes_cluster.aks (expand)</title>
<path fill="none" stroke="black" d="M87.54,-879.88C105.25,-870.55 127.35,-858.92 146.32,-848.94"/>
<polygon fill="black" stroke="black" points="148.12,-851.94 155.34,-844.19 144.86,-845.75 148.12,-851.94"/>
</g>
<!-- [root] var.dns_zone_id -->
<g id="node_10" class="node">
<title>[root] var.dns_zone_id</title>
<polygon fill="none" stroke="black" points="27,-826 27,-841 83,-841 83,-826 27,-826"/>
<text text-anchor="start" x="48" y="-831.6" font-family="courier new" font-size="8.00">var</text>
<polygon fill="none" stroke="black" points="27,-811 27,-826 83,-826 83,-811 27,-811"/>
<text text-anchor="start" x="30" y="-816.6" font-family="courier new" font-size="8.00">dns_zone_id</text>
</g>
<!-- [root] azurerm_role_assignment.attach_dns (expand)&#45;&gt;[root] var.dns_zone_id -->
<g id="edge_18" class="edge">
<title>[root] azurerm_role_assignment.attach_dns (expand)&#45;&gt;[root] var.dns_zone_id</title>
<path fill="none" stroke="black" d="M55,-879.7C55,-871.98 55,-862.71 55,-854.11"/>
<polygon fill="black" stroke="black" points="58.5,-854.1 55,-844.1 51.5,-854.1 58.5,-854.1"/>
</g>
<!-- [root] provider[&quot;registry.terraform.io/hashicorp/azurerm&quot;] (close) -->
<g id="node_21" class="node">
<title>[root] provider[&quot;registry.terraform.io/hashicorp/azurerm&quot;] (close)</title>
<polygon fill="none" stroke="black" points="158,-970 158,-985 268,-985 268,-970 158,-970"/>
<text text-anchor="start" x="192.5" y="-975.6" font-family="courier new" font-size="8.00">terraform</text>
<polygon fill="none" stroke="black" points="158,-955 158,-970 268,-970 268,-955 158,-955"/>
<text text-anchor="start" x="161" y="-960.6" font-family="courier new" font-size="8.00">io/hashicorp/azurerm\&quot;]</text>
</g>
<!-- [root] provider[&quot;registry.terraform.io/hashicorp/azurerm&quot;] (close)&#45;&gt;[root] azurerm_kubernetes_cluster_node_pool.akspool (expand) -->
<g id="edge_20" class="edge">
<title>[root] provider[&quot;registry.terraform.io/hashicorp/azurerm&quot;] (close)&#45;&gt;[root] azurerm_kubernetes_cluster_node_pool.akspool (expand)</title>
<path fill="none" stroke="black" d="M213,-951.7C213,-943.98 213,-934.71 213,-926.11"/>
<polygon fill="black" stroke="black" points="216.5,-926.1 213,-916.1 209.5,-926.1 216.5,-926.1"/>
</g>
<!-- [root] provider[&quot;registry.terraform.io/hashicorp/azurerm&quot;] (close)&#45;&gt;[root] azurerm_role_assignment.attach_dns (expand) -->
<g id="edge_21" class="edge">
<title>[root] provider[&quot;registry.terraform.io/hashicorp/azurerm&quot;] (close)&#45;&gt;[root] azurerm_role_assignment.attach_dns (expand)</title>
<path fill="none" stroke="black" d="M174.35,-951.88C152.75,-942.31 125.65,-930.3 102.73,-920.15"/>
<polygon fill="black" stroke="black" points="104.09,-916.92 93.53,-916.07 101.25,-923.32 104.09,-916.92"/>
</g>
<!-- [root] root -->
<g id="node_22" class="node">
<title>[root] root</title>
<polygon fill="none" stroke="black" points="299,-1060 233,-1060 233,-1024 299,-1024 299,-1060"/>
<text text-anchor="middle" x="266" y="-1040.1" font-family="courier new" font-size="8.00">[root] root</text>
</g>
<!-- [root] root&#45;&gt;[root] provider[&quot;registry.terraform.io/hashicorp/azurerm&quot;] (close) -->
<g id="edge_23" class="edge">
<title>[root] root&#45;&gt;[root] provider[&quot;registry.terraform.io/hashicorp/azurerm&quot;] (close)</title>
<path fill="none" stroke="black" d="M252.9,-1023.7C246.61,-1015.39 238.95,-1005.28 232.04,-996.14"/>
<polygon fill="black" stroke="black" points="234.78,-993.96 225.95,-988.1 229.2,-998.19 234.78,-993.96"/>
</g>
<!-- [root] output.kube_config -->
<g id="node_3" class="node">
<title>[root] output.kube_config</title>
<polygon fill="none" stroke="black" points="291,-970 291,-985 347,-985 347,-970 291,-970"/>
<text text-anchor="start" x="305" y="-975.6" font-family="courier new" font-size="8.00">output</text>
<polygon fill="none" stroke="black" points="291,-955 291,-970 347,-970 347,-955 291,-955"/>
<text text-anchor="start" x="294" y="-960.6" font-family="courier new" font-size="8.00">kube_config</text>
</g>
<!-- [root] root&#45;&gt;[root] output.kube_config -->
<g id="edge_22" class="edge">
<title>[root] root&#45;&gt;[root] output.kube_config</title>
<path fill="none" stroke="black" d="M279.1,-1023.7C285.39,-1015.39 293.05,-1005.28 299.96,-996.14"/>
<polygon fill="black" stroke="black" points="302.8,-998.19 306.05,-988.1 297.22,-993.96 302.8,-998.19"/>
</g>
<!-- [root] var.default_max_node_count -->
<g id="node_6" class="node">
<title>[root] var.default_max_node_count</title>
<polygon fill="none" stroke="black" points="137,-682 137,-697 243,-697 243,-682 137,-682"/>
<text text-anchor="start" x="183" y="-687.6" font-family="courier new" font-size="8.00">var</text>
<polygon fill="none" stroke="black" points="137,-667 137,-682 243,-682 243,-667 137,-667"/>
<text text-anchor="start" x="140" y="-672.6" font-family="courier new" font-size="8.00">default_max_node_count</text>
</g>
<!-- [root] var.appgw_subnet_id&#45;&gt;[root] var.default_max_node_count -->
<g id="edge_24" class="edge">
<title>[root] var.appgw_subnet_id&#45;&gt;[root] var.default_max_node_count</title>
<path fill="none" stroke="black" stroke-dasharray="5,2" d="M189.25,-735.7C189.4,-724.85 189.6,-710.92 189.76,-700.1"/>
</g>
<!-- [root] var.default_min_node_count -->
<g id="node_7" class="node">
<title>[root] var.default_min_node_count</title>
<polygon fill="none" stroke="black" points="137,-610 137,-625 243,-625 243,-610 137,-610"/>
<text text-anchor="start" x="183" y="-615.6" font-family="courier new" font-size="8.00">var</text>
<polygon fill="none" stroke="black" points="137,-595 137,-610 243,-610 243,-595 137,-595"/>
<text text-anchor="start" x="140" y="-600.6" font-family="courier new" font-size="8.00">default_min_node_count</text>
</g>
<!-- [root] var.default_max_node_count&#45;&gt;[root] var.default_min_node_count -->
<g id="edge_25" class="edge">
<title>[root] var.default_max_node_count&#45;&gt;[root] var.default_min_node_count</title>
<path fill="none" stroke="black" stroke-dasharray="5,2" d="M190,-663.7C190,-652.85 190,-638.92 190,-628.1"/>
</g>
<!-- [root] var.default_pod_subnet_id -->
<g id="node_8" class="node">
<title>[root] var.default_pod_subnet_id</title>
<polygon fill="none" stroke="black" points="140,-538 140,-553 241,-553 241,-538 140,-538"/>
<text text-anchor="start" x="183.5" y="-543.6" font-family="courier new" font-size="8.00">var</text>
<polygon fill="none" stroke="black" points="140,-523 140,-538 241,-538 241,-523 140,-523"/>
<text text-anchor="start" x="143" y="-528.6" font-family="courier new" font-size="8.00">default_pod_subnet_id</text>
</g>
<!-- [root] var.default_min_node_count&#45;&gt;[root] var.default_pod_subnet_id -->
<g id="edge_26" class="edge">
<title>[root] var.default_min_node_count&#45;&gt;[root] var.default_pod_subnet_id</title>
<path fill="none" stroke="black" stroke-dasharray="5,2" d="M190,-591.7C190,-580.85 190,-566.92 190,-556.1"/>
</g>
<!-- [root] var.default_vm_size -->
<g id="node_9" class="node">
<title>[root] var.default_vm_size</title>
<polygon fill="none" stroke="black" points="153,-466 153,-481 227,-481 227,-466 153,-466"/>
<text text-anchor="start" x="183" y="-471.6" font-family="courier new" font-size="8.00">var</text>
<polygon fill="none" stroke="black" points="153,-451 153,-466 227,-466 227,-451 153,-451"/>
<text text-anchor="start" x="156" y="-456.6" font-family="courier new" font-size="8.00">default_vm_size</text>
</g>
<!-- [root] var.default_pod_subnet_id&#45;&gt;[root] var.default_vm_size -->
<g id="edge_27" class="edge">
<title>[root] var.default_pod_subnet_id&#45;&gt;[root] var.default_vm_size</title>
<path fill="none" stroke="black" stroke-dasharray="5,2" d="M190,-519.7C190,-508.85 190,-494.92 190,-484.1"/>
</g>
<!-- [root] var.internal_subnet_id -->
<g id="node_11" class="node">
<title>[root] var.internal_subnet_id</title>
<polygon fill="none" stroke="black" points="146,-394 146,-409 234,-409 234,-394 146,-394"/>
<text text-anchor="start" x="183" y="-399.6" font-family="courier new" font-size="8.00">var</text>
<polygon fill="none" stroke="black" points="146,-379 146,-394 234,-394 234,-379 146,-379"/>
<text text-anchor="start" x="149" y="-384.6" font-family="courier new" font-size="8.00">internal_subnet_id</text>
</g>
<!-- [root] var.default_vm_size&#45;&gt;[root] var.internal_subnet_id -->
<g id="edge_28" class="edge">
<title>[root] var.default_vm_size&#45;&gt;[root] var.internal_subnet_id</title>
<path fill="none" stroke="black" stroke-dasharray="5,2" d="M190,-447.7C190,-436.85 190,-422.92 190,-412.1"/>
</g>
<!-- [root] var.location -->
<g id="node_12" class="node">
<title>[root] var.location</title>
<polygon fill="none" stroke="black" points="169,-322 169,-337 212,-337 212,-322 169,-322"/>
<text text-anchor="start" x="183.5" y="-327.6" font-family="courier new" font-size="8.00">var</text>
<polygon fill="none" stroke="black" points="169,-307 169,-322 212,-322 212,-307 169,-307"/>
<text text-anchor="start" x="172" y="-312.6" font-family="courier new" font-size="8.00">location</text>
</g>
<!-- [root] var.internal_subnet_id&#45;&gt;[root] var.location -->
<g id="edge_29" class="edge">
<title>[root] var.internal_subnet_id&#45;&gt;[root] var.location</title>
<path fill="none" stroke="black" stroke-dasharray="5,2" d="M190,-375.7C190,-364.85 190,-350.92 190,-340.1"/>
</g>
<!-- [root] var.prefix -->
<g id="node_14" class="node">
<title>[root] var.prefix</title>
<polygon fill="none" stroke="black" points="173,-250 173,-265 207,-265 207,-250 173,-250"/>
<text text-anchor="start" x="183" y="-255.6" font-family="courier new" font-size="8.00">var</text>
<polygon fill="none" stroke="black" points="173,-235 173,-250 207,-250 207,-235 173,-235"/>
<text text-anchor="start" x="176" y="-240.6" font-family="courier new" font-size="8.00">prefix</text>
</g>
<!-- [root] var.location&#45;&gt;[root] var.prefix -->
<g id="edge_30" class="edge">
<title>[root] var.location&#45;&gt;[root] var.prefix</title>
<path fill="none" stroke="black" stroke-dasharray="5,2" d="M190,-303.7C190,-292.85 190,-278.92 190,-268.1"/>
</g>
<!-- [root] var.resourcegroupname -->
<g id="node_15" class="node">
<title>[root] var.resourcegroupname</title>
<polygon fill="none" stroke="black" points="149,-178 149,-193 232,-193 232,-178 149,-178"/>
<text text-anchor="start" x="183.5" y="-183.6" font-family="courier new" font-size="8.00">var</text>
<polygon fill="none" stroke="black" points="149,-163 149,-178 232,-178 232,-163 149,-163"/>
<text text-anchor="start" x="152" y="-168.6" font-family="courier new" font-size="8.00">resourcegroupname</text>
</g>
<!-- [root] var.prefix&#45;&gt;[root] var.resourcegroupname -->
<g id="edge_31" class="edge">
<title>[root] var.prefix&#45;&gt;[root] var.resourcegroupname</title>
<path fill="none" stroke="black" stroke-dasharray="5,2" d="M190,-231.7C190,-220.85 190,-206.92 190,-196.1"/>
</g>
<!-- [root] var.source_ip -->
<g id="node_16" class="node">
<title>[root] var.source_ip</title>
<polygon fill="none" stroke="black" points="167,-106 167,-121 214,-121 214,-106 167,-106"/>
<text text-anchor="start" x="183.5" y="-111.6" font-family="courier new" font-size="8.00">var</text>
<polygon fill="none" stroke="black" points="167,-91 167,-106 214,-106 214,-91 167,-91"/>
<text text-anchor="start" x="170" y="-96.6" font-family="courier new" font-size="8.00">source_ip</text>
</g>
<!-- [root] var.resourcegroupname&#45;&gt;[root] var.source_ip -->
<g id="edge_32" class="edge">
<title>[root] var.resourcegroupname&#45;&gt;[root] var.source_ip</title>
<path fill="none" stroke="black" stroke-dasharray="5,2" d="M190,-159.7C190,-148.85 190,-134.92 190,-124.1"/>
</g>
<!-- [root] var.tags -->
<g id="node_20" class="node">
<title>[root] var.tags</title>
<polygon fill="none" stroke="black" points="178,-34 178,-49 203,-49 203,-34 178,-34"/>
<text text-anchor="start" x="183.5" y="-39.6" font-family="courier new" font-size="8.00">var</text>
<polygon fill="none" stroke="black" points="178,-19 178,-34 203,-34 203,-19 178,-19"/>
<text text-anchor="start" x="181" y="-24.6" font-family="courier new" font-size="8.00">tags</text>
</g>
<!-- [root] var.source_ip&#45;&gt;[root] var.tags -->
<g id="edge_33" class="edge">
<title>[root] var.source_ip&#45;&gt;[root] var.tags</title>
<path fill="none" stroke="black" stroke-dasharray="5,2" d="M190,-87.7C190,-76.85 190,-62.92 190,-52.1"/>
</g>
<!-- [root] var.spot_max_node_count -->
<g id="node_17" class="node">
<title>[root] var.spot_max_node_count</title>
<polygon fill="none" stroke="black" points="275,-754 275,-769 367,-769 367,-754 275,-754"/>
<text text-anchor="start" x="314" y="-759.6" font-family="courier new" font-size="8.00">var</text>
<polygon fill="none" stroke="black" points="275,-739 275,-754 367,-754 367,-739 275,-739"/>
<text text-anchor="start" x="278" y="-744.6" font-family="courier new" font-size="8.00">spot_max_node_count</text>
</g>
<!-- [root] var.nodepool_pod_subnet_id&#45;&gt;[root] var.spot_max_node_count -->
<g id="edge_34" class="edge">
<title>[root] var.nodepool_pod_subnet_id&#45;&gt;[root] var.spot_max_node_count</title>
<path fill="none" stroke="black" stroke-dasharray="5,2" d="M321,-807.7C321,-796.85 321,-782.92 321,-772.1"/>
</g>
<!-- [root] var.spot_min_node_count -->
<g id="node_18" class="node">
<title>[root] var.spot_min_node_count</title>
<polygon fill="none" stroke="black" points="275,-682 275,-697 367,-697 367,-682 275,-682"/>
<text text-anchor="start" x="314" y="-687.6" font-family="courier new" font-size="8.00">var</text>
<polygon fill="none" stroke="black" points="275,-667 275,-682 367,-682 367,-667 275,-667"/>
<text text-anchor="start" x="278" y="-672.6" font-family="courier new" font-size="8.00">spot_min_node_count</text>
</g>
<!-- [root] var.spot_max_node_count&#45;&gt;[root] var.spot_min_node_count -->
<g id="edge_35" class="edge">
<title>[root] var.spot_max_node_count&#45;&gt;[root] var.spot_min_node_count</title>
<path fill="none" stroke="black" stroke-dasharray="5,2" d="M321,-735.7C321,-724.85 321,-710.92 321,-700.1"/>
</g>
<!-- [root] var.spot_vm_sizes -->
<g id="node_19" class="node">
<title>[root] var.spot_vm_sizes</title>
<polygon fill="none" stroke="black" points="289,-610 289,-625 354,-625 354,-610 289,-610"/>
<text text-anchor="start" x="314.5" y="-615.6" font-family="courier new" font-size="8.00">var</text>
<polygon fill="none" stroke="black" points="289,-595 289,-610 354,-610 354,-595 289,-595"/>
<text text-anchor="start" x="292" y="-600.6" font-family="courier new" font-size="8.00">spot_vm_sizes</text>
</g>
<!-- [root] var.spot_min_node_count&#45;&gt;[root] var.spot_vm_sizes -->
<g id="edge_36" class="edge">
<title>[root] var.spot_min_node_count&#45;&gt;[root] var.spot_vm_sizes</title>
<path fill="none" stroke="black" stroke-dasharray="5,2" d="M321,-663.7C321,-652.85 321,-638.92 321,-628.1"/>
</g>
<!-- [root] output.kube_config&#45;&gt;[root] azurerm_kubernetes_cluster.aks (expand) -->
<g id="edge_19" class="edge">
<title>[root] output.kube_config&#45;&gt;[root] azurerm_kubernetes_cluster.aks (expand)</title>
<path fill="none" stroke="black" d="M321.32,-951.76C322.96,-932.36 322.61,-900.84 307,-880 302.5,-874 270.72,-859.99 241.13,-847.88"/>
<polygon fill="black" stroke="black" points="242.22,-844.54 231.64,-844.03 239.59,-851.03 242.22,-844.54"/>
</g>
</g>
</svg>

