<?xml version="1.0" encoding="UTF-8" standalone="no"?>
<!DOCTYPE svg PUBLIC "-//W3C//DTD SVG 1.1//EN"
 "http://www.w3.org/Graphics/SVG/1.1/DTD/svg11.dtd">
<!-- Generated by graphviz version 2.43.0 (0)
 -->
<!-- Title: %3 Pages: 1 -->
<svg width="234pt" height="492pt"
 viewBox="0.00 0.00 234.00 492.00" xmlns="http://www.w3.org/2000/svg" xmlns:xlink="http://www.w3.org/1999/xlink">
<g id="graph0" class="graph" transform="scale(1 1) rotate(0) translate(4 488)">
<title>%3</title>
<polygon fill="white" stroke="transparent" points="-4,4 -4,-488 230,-488 230,4 -4,4"/>
<g id="clust2" class="cluster">
<title>cluster[root] azurerm_kubernetes_cluster.aks (expand)_var_</title>
</g>
<!-- [root] azurerm_kubernetes_cluster.aks (expand) -->
<g id="node_0" class="node">
<title>[root] azurerm_kubernetes_cluster.aks (expand)</title>
<polygon fill="none" stroke="black" points="43,-322 43,-337 167,-337 167,-322 43,-322"/>
<text text-anchor="start" x="46" y="-327.6" font-family="courier new" font-size="8.00">azurerm_kubernetes_cluster</text>
<polygon fill="none" stroke="black" points="43,-307 43,-322 167,-322 167,-307 43,-307"/>
<text text-anchor="start" x="98" y="-312.6" font-family="courier new" font-size="8.00">aks</text>
</g>
<!-- [root] provider[&quot;registry.terraform.io/hashicorp/azurerm&quot;] -->
<g id="node_1" class="node">
<title>[root] provider[&quot;registry.terraform.io/hashicorp/azurerm&quot;]</title>
<polygon fill="none" stroke="black" points="0,-250 0,-265 110,-265 110,-250 0,-250"/>
<text text-anchor="start" x="34.5" y="-255.6" font-family="courier new" font-size="8.00">terraform</text>
<polygon fill="none" stroke="black" points="0,-235 0,-250 110,-250 110,-235 0,-235"/>
<text text-anchor="start" x="3" y="-240.6" font-family="courier new" font-size="8.00">io/hashicorp/azurerm\&quot;]</text>
</g>
<!-- [root] azurerm_kubernetes_cluster.aks (expand)&#45;&gt;[root] provider[&quot;registry.terraform.io/hashicorp/azurerm&quot;] -->
<g id="edge_0" class="edge">
<title>[root] azurerm_kubernetes_cluster.aks (expand)&#45;&gt;[root] provider[&quot;registry.terraform.io/hashicorp/azurerm&quot;]</title>
<path fill="none" stroke="black" d="M92.64,-303.7C86.77,-295.47 79.63,-285.48 73.16,-276.42"/>
<polygon fill="black" stroke="black" points="75.88,-274.21 67.22,-268.1 70.18,-278.28 75.88,-274.21"/>
</g>
<!-- [root] var.location -->
<g id="node_2" class="node">
<title>[root] var.location</title>
<polygon fill="none" stroke="black" points="140,-250 140,-265 183,-265 183,-250 140,-250"/>
<text text-anchor="start" x="154.5" y="-255.6" font-family="courier new" font-size="8.00">var</text>
<polygon fill="none" stroke="black" points="140,-235 140,-250 183,-250 183,-235 140,-235"/>
<text text-anchor="start" x="143" y="-240.6" font-family="courier new" font-size="8.00">location</text>
</g>
<!-- [root] azurerm_kubernetes_cluster.aks (expand)&#45;&gt;[root] var.location -->
<g id="edge_1" class="edge">
<title>[root] azurerm_kubernetes_cluster.aks (expand)&#45;&gt;[root] var.location</title>
<path fill="none" stroke="black" d="M118.84,-303.7C125.49,-295.39 133.58,-285.28 140.89,-276.14"/>
<polygon fill="black" stroke="black" points="143.8,-278.1 147.32,-268.1 138.34,-273.73 143.8,-278.1"/>
</g>
<!-- [root] provider[&quot;registry.terraform.io/hashicorp/azurerm&quot;] (close) -->
<g id="node_6" class="node">
<title>[root] provider[&quot;registry.terraform.io/hashicorp/azurerm&quot;] (close)</title>
<polygon fill="none" stroke="black" points="50,-394 50,-409 160,-409 160,-394 50,-394"/>
<text text-anchor="start" x="84.5" y="-399.6" font-family="courier new" font-size="8.00">terraform</text>
<polygon fill="none" stroke="black" points="50,-379 50,-394 160,-394 160,-379 50,-379"/>
<text text-anchor="start" x="53" y="-384.6" font-family="courier new" font-size="8.00">io/hashicorp/azurerm\&quot;]</text>
</g>
<!-- [root] provider[&quot;registry.terraform.io/hashicorp/azurerm&quot;] (close)&#45;&gt;[root] azurerm_kubernetes_cluster.aks (expand) -->
<g id="edge_5" class="edge">
<title>[root] provider[&quot;registry.terraform.io/hashicorp/azurerm&quot;] (close)&#45;&gt;[root] azurerm_kubernetes_cluster.aks (expand)</title>
<path fill="none" stroke="black" d="M105,-375.7C105,-367.98 105,-358.71 105,-350.11"/>
<polygon fill="black" stroke="black" points="108.5,-350.1 105,-340.1 101.5,-350.1 108.5,-350.1"/>
</g>
<!-- [root] root -->
<g id="node_7" class="node">
<title>[root] root</title>
<polygon fill="none" stroke="black" points="138,-484 72,-484 72,-448 138,-448 138,-484"/>
<text text-anchor="middle" x="105" y="-464.1" font-family="courier new" font-size="8.00">[root] root</text>
</g>
<!-- [root] root&#45;&gt;[root] provider[&quot;registry.terraform.io/hashicorp/azurerm&quot;] (close) -->
<g id="edge_6" class="edge">
<title>[root] root&#45;&gt;[root] provider[&quot;registry.terraform.io/hashicorp/azurerm&quot;] (close)</title>
<path fill="none" stroke="black" d="M105,-447.7C105,-439.98 105,-430.71 105,-422.11"/>
<polygon fill="black" stroke="black" points="108.5,-422.1 105,-412.1 101.5,-422.1 108.5,-422.1"/>
</g>
<!-- [root] var.prefix -->
<g id="node_3" class="node">
<title>[root] var.prefix</title>
<polygon fill="none" stroke="black" points="147,-178 147,-193 181,-193 181,-178 147,-178"/>
<text text-anchor="start" x="157" y="-183.6" font-family="courier new" font-size="8.00">var</text>
<polygon fill="none" stroke="black" points="147,-163 147,-178 181,-178 181,-163 147,-163"/>
<text text-anchor="start" x="150" y="-168.6" font-family="courier new" font-size="8.00">prefix</text>
</g>
<!-- [root] var.location&#45;&gt;[root] var.prefix -->
<g id="edge_7" class="edge">
<title>[root] var.location&#45;&gt;[root] var.prefix</title>
<path fill="none" stroke="black" stroke-dasharray="5,2" d="M161.74,-231.7C162.21,-220.85 162.8,-206.92 163.27,-196.1"/>
</g>
<!-- [root] var.resourcegroupname -->
<g id="node_4" class="node">
<title>[root] var.resourcegroupname</title>
<polygon fill="none" stroke="black" points="127,-106 127,-121 210,-121 210,-106 127,-106"/>
<text text-anchor="start" x="161.5" y="-111.6" font-family="courier new" font-size="8.00">var</text>
<polygon fill="none" stroke="black" points="127,-91 127,-106 210,-106 210,-91 127,-91"/>
<text text-anchor="start" x="130" y="-96.6" font-family="courier new" font-size="8.00">resourcegroupname</text>
</g>
<!-- [root] var.prefix&#45;&gt;[root] var.resourcegroupname -->
<g id="edge_8" class="edge">
<title>[root] var.prefix&#45;&gt;[root] var.resourcegroupname</title>
<path fill="none" stroke="black" stroke-dasharray="5,2" d="M164.99,-159.7C165.61,-148.85 166.4,-134.92 167.02,-124.1"/>
</g>
<!-- [root] var.tags -->
<g id="node_5" class="node">
<title>[root] var.tags</title>
<polygon fill="none" stroke="black" points="156,-34 156,-49 181,-49 181,-34 156,-34"/>
<text text-anchor="start" x="161.5" y="-39.6" font-family="courier new" font-size="8.00">var</text>
<polygon fill="none" stroke="black" points="156,-19 156,-34 181,-34 181,-19 156,-19"/>
<text text-anchor="start" x="159" y="-24.6" font-family="courier new" font-size="8.00">tags</text>
</g>
<!-- [root] var.resourcegroupname&#45;&gt;[root] var.tags -->
<g id="edge_9" class="edge">
<title>[root] var.resourcegroupname&#45;&gt;[root] var.tags</title>
<path fill="none" stroke="black" stroke-dasharray="5,2" d="M168,-87.7C168,-76.85 168,-62.92 168,-52.1"/>
</g>
</g>
</svg>

