<?xml version="1.0" encoding="UTF-8" standalone="no"?>
<!DOCTYPE svg PUBLIC "-//W3C//DTD SVG 1.1//EN"
 "http://www.w3.org/Graphics/SVG/1.1/DTD/svg11.dtd">
<!-- Generated by graphviz version 2.43.0 (0)
 -->
<!-- Title: %3 Pages: 1 -->
<svg width="297pt" height="636pt"
 viewBox="0.00 0.00 296.50 636.00" xmlns="http://www.w3.org/2000/svg" xmlns:xlink="http://www.w3.org/1999/xlink">
<g id="graph0" class="graph" transform="scale(1 1) rotate(0) translate(4 632)">
<title>%3</title>
<polygon fill="white" stroke="transparent" points="-4,4 -4,-632 292.5,-632 292.5,4 -4,4"/>
<g id="clust2" class="cluster">
<title>cluster[root] azurerm_kubernetes_cluster.aks (expand)_var_</title>
</g>
<g id="clust3" class="cluster">
<title>cluster[root] root_output_[root] azurerm_kubernetes_cluster.aks (expand)</title>
</g>
<!-- [root] azurerm_kubernetes_cluster.aks (expand) -->
<g id="node_0" class="node">
<title>[root] azurerm_kubernetes_cluster.aks (expand)</title>
<polygon fill="none" stroke="black" points="76,-394 76,-409 200,-409 200,-394 76,-394"/>
<text text-anchor="start" x="79" y="-399.6" font-family="courier new" font-size="8.00">azurerm_kubernetes_cluster</text>
<polygon fill="none" stroke="black" points="76,-379 76,-394 200,-394 200,-379 76,-379"/>
<text text-anchor="start" x="131" y="-384.6" font-family="courier new" font-size="8.00">aks</text>
</g>
<!-- [root] provider[&quot;registry.terraform.io/hashicorp/azurerm&quot;] -->
<g id="node_4" class="node">
<title>[root] provider[&quot;registry.terraform.io/hashicorp/azurerm&quot;]</title>
<polygon fill="none" stroke="black" points="33,-322 33,-337 143,-337 143,-322 33,-322"/>
<text text-anchor="start" x="67.5" y="-327.6" font-family="courier new" font-size="8.00">terraform</text>
<polygon fill="none" stroke="black" points="33,-307 33,-322 143,-322 143,-307 33,-307"/>
<text text-anchor="start" x="36" y="-312.6" font-family="courier new" font-size="8.00">io/hashicorp/azurerm\&quot;]</text>
</g>
<!-- [root] azurerm_kubernetes_cluster.aks (expand)&#45;&gt;[root] provider[&quot;registry.terraform.io/hashicorp/azurerm&quot;] -->
<g id="edge_0" class="edge">
<title>[root] azurerm_kubernetes_cluster.aks (expand)&#45;&gt;[root] provider[&quot;registry.terraform.io/hashicorp/azurerm&quot;]</title>
<path fill="none" stroke="black" d="M125.64,-375.7C119.77,-367.47 112.63,-357.48 106.16,-348.42"/>
<polygon fill="black" stroke="black" points="108.88,-346.21 100.22,-340.1 103.18,-350.28 108.88,-346.21"/>
</g>
<!-- [root] var.location -->
<g id="node_5" class="node">
<title>[root] var.location</title>
<polygon fill="none" stroke="black" points="173,-322 173,-337 216,-337 216,-322 173,-322"/>
<text text-anchor="start" x="187.5" y="-327.6" font-family="courier new" font-size="8.00">var</text>
<polygon fill="none" stroke="black" points="173,-307 173,-322 216,-322 216,-307 173,-307"/>
<text text-anchor="start" x="176" y="-312.6" font-family="courier new" font-size="8.00">location</text>
</g>
<!-- [root] azurerm_kubernetes_cluster.aks (expand)&#45;&gt;[root] var.location -->
<g id="edge_1" class="edge">
<title>[root] azurerm_kubernetes_cluster.aks (expand)&#45;&gt;[root] var.location</title>
<path fill="none" stroke="black" d="M151.84,-375.7C158.49,-367.39 166.58,-357.28 173.89,-348.14"/>
<polygon fill="black" stroke="black" points="176.8,-350.1 180.32,-340.1 171.34,-345.73 176.8,-350.1"/>
</g>
<!-- [root] azurerm_kubernetes_cluster_node_pool.akspool (expand) -->
<g id="node_1" class="node">
<title>[root] azurerm_kubernetes_cluster_node_pool.akspool (expand)</title>
<polygon fill="none" stroke="black" points="120,-466 120,-481 289,-481 289,-466 120,-466"/>
<text text-anchor="start" x="123" y="-471.6" font-family="courier new" font-size="8.00">azurerm_kubernetes_cluster_node_pool</text>
<polygon fill="none" stroke="black" points="120,-451 120,-466 289,-466 289,-451 120,-451"/>
<text text-anchor="start" x="188.5" y="-456.6" font-family="courier new" font-size="8.00">akspool</text>
</g>
<!-- [root] azurerm_kubernetes_cluster_node_pool.akspool (expand)&#45;&gt;[root] azurerm_kubernetes_cluster.aks (expand) -->
<g id="edge_6" class="edge">
<title>[root] azurerm_kubernetes_cluster_node_pool.akspool (expand)&#45;&gt;[root] azurerm_kubernetes_cluster.aks (expand)</title>
<path fill="none" stroke="black" d="M187.69,-447.7C179.69,-439.22 169.93,-428.86 161.18,-419.58"/>
<polygon fill="black" stroke="black" points="163.53,-416.98 154.13,-412.1 158.44,-421.78 163.53,-416.98"/>
</g>
<!-- [root] provider[&quot;registry.terraform.io/hashicorp/azurerm&quot;] (close) -->
<g id="node_10" class="node">
<title>[root] provider[&quot;registry.terraform.io/hashicorp/azurerm&quot;] (close)</title>
<polygon fill="none" stroke="black" points="135,-538 135,-553 245,-553 245,-538 135,-538"/>
<text text-anchor="start" x="169.5" y="-543.6" font-family="courier new" font-size="8.00">terraform</text>
<polygon fill="none" stroke="black" points="135,-523 135,-538 245,-538 245,-523 135,-523"/>
<text text-anchor="start" x="138" y="-528.6" font-family="courier new" font-size="8.00">io/hashicorp/azurerm\&quot;]</text>
</g>
<!-- [root] provider[&quot;registry.terraform.io/hashicorp/azurerm&quot;] (close)&#45;&gt;[root] azurerm_kubernetes_cluster_node_pool.akspool (expand) -->
<g id="edge_9" class="edge">
<title>[root] provider[&quot;registry.terraform.io/hashicorp/azurerm&quot;] (close)&#45;&gt;[root] azurerm_kubernetes_cluster_node_pool.akspool (expand)</title>
<path fill="none" stroke="black" d="M193.46,-519.7C195,-511.98 196.86,-502.71 198.58,-494.11"/>
<polygon fill="black" stroke="black" points="202.05,-494.6 200.58,-484.1 195.19,-493.22 202.05,-494.6"/>
</g>
<!-- [root] root -->
<g id="node_11" class="node">
<title>[root] root</title>
<polygon fill="none" stroke="black" points="158,-628 92,-628 92,-592 158,-592 158,-628"/>
<text text-anchor="middle" x="125" y="-608.1" font-family="courier new" font-size="8.00">[root] root</text>
</g>
<!-- [root] root&#45;&gt;[root] provider[&quot;registry.terraform.io/hashicorp/azurerm&quot;] (close) -->
<g id="edge_12" class="edge">
<title>[root] root&#45;&gt;[root] provider[&quot;registry.terraform.io/hashicorp/azurerm&quot;] (close)</title>
<path fill="none" stroke="black" d="M141.07,-591.7C148.94,-583.22 158.56,-572.86 167.17,-563.58"/>
<polygon fill="black" stroke="black" points="169.88,-565.81 174.12,-556.1 164.75,-561.05 169.88,-565.81"/>
</g>
<!-- [root] output.client_certificate -->
<g id="node_2" class="node">
<title>[root] output.client_certificate</title>
<polygon fill="none" stroke="black" points="16,-538 16,-553 104,-553 104,-538 16,-538"/>
<text text-anchor="start" x="46" y="-543.6" font-family="courier new" font-size="8.00">output</text>
<polygon fill="none" stroke="black" points="16,-523 16,-538 104,-538 104,-523 16,-523"/>
<text text-anchor="start" x="19" y="-528.6" font-family="courier new" font-size="8.00">client_certificate</text>
</g>
<!-- [root] root&#45;&gt;[root] output.client_certificate -->
<g id="edge_10" class="edge">
<title>[root] root&#45;&gt;[root] output.client_certificate</title>
<path fill="none" stroke="black" d="M108.93,-591.7C101.06,-583.22 91.44,-572.86 82.83,-563.58"/>
<polygon fill="black" stroke="black" points="85.25,-561.05 75.88,-556.1 80.12,-565.81 85.25,-561.05"/>
</g>
<!-- [root] var.prefix -->
<g id="node_6" class="node">
<title>[root] var.prefix</title>
<polygon fill="none" stroke="black" points="180,-250 180,-265 214,-265 214,-250 180,-250"/>
<text text-anchor="start" x="190" y="-255.6" font-family="courier new" font-size="8.00">var</text>
<polygon fill="none" stroke="black" points="180,-235 180,-250 214,-250 214,-235 180,-235"/>
<text text-anchor="start" x="183" y="-240.6" font-family="courier new" font-size="8.00">prefix</text>
</g>
<!-- [root] var.location&#45;&gt;[root] var.prefix -->
<g id="edge_13" class="edge">
<title>[root] var.location&#45;&gt;[root] var.prefix</title>
<path fill="none" stroke="black" stroke-dasharray="5,2" d="M194.74,-303.7C195.21,-292.85 195.8,-278.92 196.27,-268.1"/>
</g>
<!-- [root] var.resourcegroupname -->
<g id="node_7" class="node">
<title>[root] var.resourcegroupname</title>
<polygon fill="none" stroke="black" points="160,-178 160,-193 243,-193 243,-178 160,-178"/>
<text text-anchor="start" x="194.5" y="-183.6" font-family="courier new" font-size="8.00">var</text>
<polygon fill="none" stroke="black" points="160,-163 160,-178 243,-178 243,-163 160,-163"/>
<text text-anchor="start" x="163" y="-168.6" font-family="courier new" font-size="8.00">resourcegroupname</text>
</g>
<!-- [root] var.prefix&#45;&gt;[root] var.resourcegroupname -->
<g id="edge_14" class="edge">
<title>[root] var.prefix&#45;&gt;[root] var.resourcegroupname</title>
<path fill="none" stroke="black" stroke-dasharray="5,2" d="M197.99,-231.7C198.61,-220.85 199.4,-206.92 200.02,-196.1"/>
</g>
<!-- [root] var.subnet_id -->
<g id="node_8" class="node">
<title>[root] var.subnet_id</title>
<polygon fill="none" stroke="black" points="178,-106 178,-121 225,-121 225,-106 178,-106"/>
<text text-anchor="start" x="194.5" y="-111.6" font-family="courier new" font-size="8.00">var</text>
<polygon fill="none" stroke="black" points="178,-91 178,-106 225,-106 225,-91 178,-91"/>
<text text-anchor="start" x="181" y="-96.6" font-family="courier new" font-size="8.00">subnet_id</text>
</g>
<!-- [root] var.resourcegroupname&#45;&gt;[root] var.subnet_id -->
<g id="edge_15" class="edge">
<title>[root] var.resourcegroupname&#45;&gt;[root] var.subnet_id</title>
<path fill="none" stroke="black" stroke-dasharray="5,2" d="M201,-159.7C201,-148.85 201,-134.92 201,-124.1"/>
</g>
<!-- [root] var.tags -->
<g id="node_9" class="node">
<title>[root] var.tags</title>
<polygon fill="none" stroke="black" points="189,-34 189,-49 214,-49 214,-34 189,-34"/>
<text text-anchor="start" x="194.5" y="-39.6" font-family="courier new" font-size="8.00">var</text>
<polygon fill="none" stroke="black" points="189,-19 189,-34 214,-34 214,-19 189,-19"/>
<text text-anchor="start" x="192" y="-24.6" font-family="courier new" font-size="8.00">tags</text>
</g>
<!-- [root] var.subnet_id&#45;&gt;[root] var.tags -->
<g id="edge_16" class="edge">
<title>[root] var.subnet_id&#45;&gt;[root] var.tags</title>
<path fill="none" stroke="black" stroke-dasharray="5,2" d="M201,-87.7C201,-76.85 201,-62.92 201,-52.1"/>
</g>
<!-- [root] output.kube_config -->
<g id="node_3" class="node">
<title>[root] output.kube_config</title>
<polygon fill="none" stroke="black" points="38,-466 38,-481 94,-481 94,-466 38,-466"/>
<text text-anchor="start" x="52" y="-471.6" font-family="courier new" font-size="8.00">output</text>
<polygon fill="none" stroke="black" points="38,-451 38,-466 94,-466 94,-451 38,-451"/>
<text text-anchor="start" x="41" y="-456.6" font-family="courier new" font-size="8.00">kube_config</text>
</g>
<!-- [root] output.client_certificate&#45;&gt;[root] output.kube_config -->
<g id="edge_17" class="edge">
<title>[root] output.client_certificate&#45;&gt;[root] output.kube_config</title>
<path fill="none" stroke="black" stroke-dasharray="5,2" d="M61.48,-519.7C62.41,-508.85 63.61,-494.92 64.53,-484.1"/>
</g>
<!-- [root] output.kube_config&#45;&gt;[root] azurerm_kubernetes_cluster.aks (expand) -->
<g id="edge_8" class="edge">
<title>[root] output.kube_config&#45;&gt;[root] azurerm_kubernetes_cluster.aks (expand)</title>
<path fill="none" stroke="black" d="M83.8,-447.7C92.6,-439.14 103.38,-428.66 113,-419.3"/>
<polygon fill="black" stroke="black" points="115.68,-421.58 120.41,-412.1 110.8,-416.57 115.68,-421.58"/>
</g>
</g>
</svg>

