<?xml version="1.0" encoding="UTF-8" standalone="no"?>
<!DOCTYPE svg PUBLIC "-//W3C//DTD SVG 1.1//EN"
 "http://www.w3.org/Graphics/SVG/1.1/DTD/svg11.dtd">
<!-- Generated by graphviz version 2.43.0 (0)
 -->
<!-- Title: %3 Pages: 1 -->
<svg width="394pt" height="996pt"
 viewBox="0.00 0.00 393.50 996.00" xmlns="http://www.w3.org/2000/svg" xmlns:xlink="http://www.w3.org/1999/xlink">
<g id="graph0" class="graph" transform="scale(1 1) rotate(0) translate(4 992)">
<title>%3</title>
<polygon fill="white" stroke="transparent" points="-4,4 -4,-992 389.5,-992 389.5,4 -4,4"/>
<g id="clust2" class="cluster">
<title>cluster[root] azurerm_kubernetes_cluster.aks (expand)_var_</title>
</g>
<g id="clust3" class="cluster">
<title>cluster[root] azurerm_kubernetes_cluster_node_pool.akspool (expand)_var_</title>
</g>
<g id="clust4" class="cluster">
<title>cluster[root] root_output_[root] azurerm_kubernetes_cluster.aks (expand)</title>
</g>
<!-- [root] azurerm_kubernetes_cluster.aks (expand) -->
<g id="node_0" class="node">
<title>[root] azurerm_kubernetes_cluster.aks (expand)</title>
<polygon fill="none" stroke="black" points="134.5,-754 134.5,-769 258.5,-769 258.5,-754 134.5,-754"/>
<text text-anchor="start" x="137.5" y="-759.6" font-family="courier new" font-size="8.00">azurerm_kubernetes_cluster</text>
<polygon fill="none" stroke="black" points="134.5,-739 134.5,-754 258.5,-754 258.5,-739 134.5,-739"/>
<text text-anchor="start" x="189.5" y="-744.6" font-family="courier new" font-size="8.00">aks</text>
</g>
<!-- [root] provider[&quot;registry.terraform.io/hashicorp/azurerm&quot;] -->
<g id="node_3" class="node">
<title>[root] provider[&quot;registry.terraform.io/hashicorp/azurerm&quot;]</title>
<polygon fill="none" stroke="black" points="137.5,-682 137.5,-697 247.5,-697 247.5,-682 137.5,-682"/>
<text text-anchor="start" x="172" y="-687.6" font-family="courier new" font-size="8.00">terraform</text>
<polygon fill="none" stroke="black" points="137.5,-667 137.5,-682 247.5,-682 247.5,-667 137.5,-667"/>
<text text-anchor="start" x="140.5" y="-672.6" font-family="courier new" font-size="8.00">io/hashicorp/azurerm\&quot;]</text>
</g>
<!-- [root] azurerm_kubernetes_cluster.aks (expand)&#45;&gt;[root] provider[&quot;registry.terraform.io/hashicorp/azurerm&quot;] -->
<g id="edge_0" class="edge">
<title>[root] azurerm_kubernetes_cluster.aks (expand)&#45;&gt;[root] provider[&quot;registry.terraform.io/hashicorp/azurerm&quot;]</title>
<path fill="none" stroke="black" d="M195.51,-735.7C195.07,-727.98 194.54,-718.71 194.05,-710.11"/>
<polygon fill="black" stroke="black" points="197.54,-709.89 193.48,-700.1 190.55,-710.29 197.54,-709.89"/>
</g>
<!-- [root] var.appgw_subnet_id -->
<g id="node_4" class="node">
<title>[root] var.appgw_subnet_id</title>
<polygon fill="none" stroke="black" points="272.5,-682 272.5,-697 346.5,-697 346.5,-682 272.5,-682"/>
<text text-anchor="start" x="302.5" y="-687.6" font-family="courier new" font-size="8.00">var</text>
<polygon fill="none" stroke="black" points="272.5,-667 272.5,-682 346.5,-682 346.5,-667 272.5,-667"/>
<text text-anchor="start" x="275.5" y="-672.6" font-family="courier new" font-size="8.00">appgw_subnet_id</text>
</g>
<!-- [root] azurerm_kubernetes_cluster.aks (expand)&#45;&gt;[root] var.appgw_subnet_id -->
<g id="edge_1" class="edge">
<title>[root] azurerm_kubernetes_cluster.aks (expand)&#45;&gt;[root] var.appgw_subnet_id</title>
<path fill="none" stroke="black" d="M224.14,-735.88C238.92,-726.72 257.29,-715.34 273.2,-705.48"/>
<polygon fill="black" stroke="black" points="275.09,-708.43 281.75,-700.19 271.41,-702.48 275.09,-708.43"/>
</g>
<!-- [root] azurerm_kubernetes_cluster_node_pool.akspool (expand) -->
<g id="node_1" class="node">
<title>[root] azurerm_kubernetes_cluster_node_pool.akspool (expand)</title>
<polygon fill="none" stroke="black" points="0.5,-826 0.5,-841 169.5,-841 169.5,-826 0.5,-826"/>
<text text-anchor="start" x="3.5" y="-831.6" font-family="courier new" font-size="8.00">azurerm_kubernetes_cluster_node_pool</text>
<polygon fill="none" stroke="black" points="0.5,-811 0.5,-826 169.5,-826 169.5,-811 0.5,-811"/>
<text text-anchor="start" x="69" y="-816.6" font-family="courier new" font-size="8.00">akspool</text>
</g>
<!-- [root] azurerm_kubernetes_cluster_node_pool.akspool (expand)&#45;&gt;[root] azurerm_kubernetes_cluster.aks (expand) -->
<g id="edge_11" class="edge">
<title>[root] azurerm_kubernetes_cluster_node_pool.akspool (expand)&#45;&gt;[root] azurerm_kubernetes_cluster.aks (expand)</title>
<path fill="none" stroke="black" d="M111.9,-807.88C126.41,-798.81 144.42,-787.55 160.09,-777.76"/>
<polygon fill="black" stroke="black" points="162.37,-780.46 169,-772.19 158.66,-774.52 162.37,-780.46"/>
</g>
<!-- [root] var.spot_max_node_count -->
<g id="node_13" class="node">
<title>[root] var.spot_max_node_count</title>
<polygon fill="none" stroke="black" points="24.5,-754 24.5,-769 116.5,-769 116.5,-754 24.5,-754"/>
<text text-anchor="start" x="63.5" y="-759.6" font-family="courier new" font-size="8.00">var</text>
<polygon fill="none" stroke="black" points="24.5,-739 24.5,-754 116.5,-754 116.5,-739 24.5,-739"/>
<text text-anchor="start" x="27.5" y="-744.6" font-family="courier new" font-size="8.00">spot_max_node_count</text>
</g>
<!-- [root] azurerm_kubernetes_cluster_node_pool.akspool (expand)&#45;&gt;[root] var.spot_max_node_count -->
<g id="edge_12" class="edge">
<title>[root] azurerm_kubernetes_cluster_node_pool.akspool (expand)&#45;&gt;[root] var.spot_max_node_count</title>
<path fill="none" stroke="black" d="M81.04,-807.7C79.5,-799.98 77.64,-790.71 75.92,-782.11"/>
<polygon fill="black" stroke="black" points="79.31,-781.22 73.92,-772.1 72.45,-782.6 79.31,-781.22"/>
</g>
<!-- [root] provider[&quot;registry.terraform.io/hashicorp/azurerm&quot;] (close) -->
<g id="node_17" class="node">
<title>[root] provider[&quot;registry.terraform.io/hashicorp/azurerm&quot;] (close)</title>
<polygon fill="none" stroke="black" points="32.5,-898 32.5,-913 142.5,-913 142.5,-898 32.5,-898"/>
<text text-anchor="start" x="67" y="-903.6" font-family="courier new" font-size="8.00">terraform</text>
<polygon fill="none" stroke="black" points="32.5,-883 32.5,-898 142.5,-898 142.5,-883 32.5,-883"/>
<text text-anchor="start" x="35.5" y="-888.6" font-family="courier new" font-size="8.00">io/hashicorp/azurerm\&quot;]</text>
</g>
<!-- [root] provider[&quot;registry.terraform.io/hashicorp/azurerm&quot;] (close)&#45;&gt;[root] azurerm_kubernetes_cluster_node_pool.akspool (expand) -->
<g id="edge_16" class="edge">
<title>[root] provider[&quot;registry.terraform.io/hashicorp/azurerm&quot;] (close)&#45;&gt;[root] azurerm_kubernetes_cluster_node_pool.akspool (expand)</title>
<path fill="none" stroke="black" d="M86.76,-879.7C86.43,-871.98 86.03,-862.71 85.66,-854.11"/>
<polygon fill="black" stroke="black" points="89.16,-853.95 85.23,-844.1 82.16,-854.25 89.16,-853.95"/>
</g>
<!-- [root] root -->
<g id="node_18" class="node">
<title>[root] root</title>
<polygon fill="none" stroke="black" points="173.5,-988 107.5,-988 107.5,-952 173.5,-952 173.5,-988"/>
<text text-anchor="middle" x="140.5" y="-968.1" font-family="courier new" font-size="8.00">[root] root</text>
</g>
<!-- [root] root&#45;&gt;[root] provider[&quot;registry.terraform.io/hashicorp/azurerm&quot;] (close) -->
<g id="edge_18" class="edge">
<title>[root] root&#45;&gt;[root] provider[&quot;registry.terraform.io/hashicorp/azurerm&quot;] (close)</title>
<path fill="none" stroke="black" d="M127.4,-951.7C121.11,-943.39 113.45,-933.28 106.54,-924.14"/>
<polygon fill="black" stroke="black" points="109.28,-921.96 100.45,-916.1 103.7,-926.19 109.28,-921.96"/>
</g>
<!-- [root] output.kube_config -->
<g id="node_2" class="node">
<title>[root] output.kube_config</title>
<polygon fill="none" stroke="black" points="165.5,-898 165.5,-913 221.5,-913 221.5,-898 165.5,-898"/>
<text text-anchor="start" x="179.5" y="-903.6" font-family="courier new" font-size="8.00">output</text>
<polygon fill="none" stroke="black" points="165.5,-883 165.5,-898 221.5,-898 221.5,-883 165.5,-883"/>
<text text-anchor="start" x="168.5" y="-888.6" font-family="courier new" font-size="8.00">kube_config</text>
</g>
<!-- [root] root&#45;&gt;[root] output.kube_config -->
<g id="edge_17" class="edge">
<title>[root] root&#45;&gt;[root] output.kube_config</title>
<path fill="none" stroke="black" d="M153.6,-951.7C159.89,-943.39 167.55,-933.28 174.46,-924.14"/>
<polygon fill="black" stroke="black" points="177.3,-926.19 180.55,-916.1 171.72,-921.96 177.3,-926.19"/>
</g>
<!-- [root] var.default_max_node_count -->
<g id="node_5" class="node">
<title>[root] var.default_max_node_count</title>
<polygon fill="none" stroke="black" points="263.5,-610 263.5,-625 369.5,-625 369.5,-610 263.5,-610"/>
<text text-anchor="start" x="309.5" y="-615.6" font-family="courier new" font-size="8.00">var</text>
<polygon fill="none" stroke="black" points="263.5,-595 263.5,-610 369.5,-610 369.5,-595 263.5,-595"/>
<text text-anchor="start" x="266.5" y="-600.6" font-family="courier new" font-size="8.00">default_max_node_count</text>
</g>
<!-- [root] var.appgw_subnet_id&#45;&gt;[root] var.default_max_node_count -->
<g id="edge_19" class="edge">
<title>[root] var.appgw_subnet_id&#45;&gt;[root] var.default_max_node_count</title>
<path fill="none" stroke="black" stroke-dasharray="5,2" d="M311.23,-663.7C312.32,-652.85 313.71,-638.92 314.79,-628.1"/>
</g>
<!-- [root] var.default_min_node_count -->
<g id="node_6" class="node">
<title>[root] var.default_min_node_count</title>
<polygon fill="none" stroke="black" points="263.5,-538 263.5,-553 369.5,-553 369.5,-538 263.5,-538"/>
<text text-anchor="start" x="309.5" y="-543.6" font-family="courier new" font-size="8.00">var</text>
<polygon fill="none" stroke="black" points="263.5,-523 263.5,-538 369.5,-538 369.5,-523 263.5,-523"/>
<text text-anchor="start" x="266.5" y="-528.6" font-family="courier new" font-size="8.00">default_min_node_count</text>
</g>
<!-- [root] var.default_max_node_count&#45;&gt;[root] var.default_min_node_count -->
<g id="edge_20" class="edge">
<title>[root] var.default_max_node_count&#45;&gt;[root] var.default_min_node_count</title>
<path fill="none" stroke="black" stroke-dasharray="5,2" d="M316.5,-591.7C316.5,-580.85 316.5,-566.92 316.5,-556.1"/>
</g>
<!-- [root] var.default_vm_size -->
<g id="node_7" class="node">
<title>[root] var.default_vm_size</title>
<polygon fill="none" stroke="black" points="279.5,-466 279.5,-481 353.5,-481 353.5,-466 279.5,-466"/>
<text text-anchor="start" x="309.5" y="-471.6" font-family="courier new" font-size="8.00">var</text>
<polygon fill="none" stroke="black" points="279.5,-451 279.5,-466 353.5,-466 353.5,-451 279.5,-451"/>
<text text-anchor="start" x="282.5" y="-456.6" font-family="courier new" font-size="8.00">default_vm_size</text>
</g>
<!-- [root] var.default_min_node_count&#45;&gt;[root] var.default_vm_size -->
<g id="edge_21" class="edge">
<title>[root] var.default_min_node_count&#45;&gt;[root] var.default_vm_size</title>
<path fill="none" stroke="black" stroke-dasharray="5,2" d="M316.5,-519.7C316.5,-508.85 316.5,-494.92 316.5,-484.1"/>
</g>
<!-- [root] var.internal_subnet_id -->
<g id="node_8" class="node">
<title>[root] var.internal_subnet_id</title>
<polygon fill="none" stroke="black" points="272.5,-394 272.5,-409 360.5,-409 360.5,-394 272.5,-394"/>
<text text-anchor="start" x="309.5" y="-399.6" font-family="courier new" font-size="8.00">var</text>
<polygon fill="none" stroke="black" points="272.5,-379 272.5,-394 360.5,-394 360.5,-379 272.5,-379"/>
<text text-anchor="start" x="275.5" y="-384.6" font-family="courier new" font-size="8.00">internal_subnet_id</text>
</g>
<!-- [root] var.default_vm_size&#45;&gt;[root] var.internal_subnet_id -->
<g id="edge_22" class="edge">
<title>[root] var.default_vm_size&#45;&gt;[root] var.internal_subnet_id</title>
<path fill="none" stroke="black" stroke-dasharray="5,2" d="M316.5,-447.7C316.5,-436.85 316.5,-422.92 316.5,-412.1"/>
</g>
<!-- [root] var.location -->
<g id="node_9" class="node">
<title>[root] var.location</title>
<polygon fill="none" stroke="black" points="295.5,-322 295.5,-337 338.5,-337 338.5,-322 295.5,-322"/>
<text text-anchor="start" x="310" y="-327.6" font-family="courier new" font-size="8.00">var</text>
<polygon fill="none" stroke="black" points="295.5,-307 295.5,-322 338.5,-322 338.5,-307 295.5,-307"/>
<text text-anchor="start" x="298.5" y="-312.6" font-family="courier new" font-size="8.00">location</text>
</g>
<!-- [root] var.internal_subnet_id&#45;&gt;[root] var.location -->
<g id="edge_23" class="edge">
<title>[root] var.internal_subnet_id&#45;&gt;[root] var.location</title>
<path fill="none" stroke="black" stroke-dasharray="5,2" d="M316.5,-375.7C316.5,-364.85 316.5,-350.92 316.5,-340.1"/>
</g>
<!-- [root] var.prefix -->
<g id="node_10" class="node">
<title>[root] var.prefix</title>
<polygon fill="none" stroke="black" points="299.5,-250 299.5,-265 333.5,-265 333.5,-250 299.5,-250"/>
<text text-anchor="start" x="309.5" y="-255.6" font-family="courier new" font-size="8.00">var</text>
<polygon fill="none" stroke="black" points="299.5,-235 299.5,-250 333.5,-250 333.5,-235 299.5,-235"/>
<text text-anchor="start" x="302.5" y="-240.6" font-family="courier new" font-size="8.00">prefix</text>
</g>
<!-- [root] var.location&#45;&gt;[root] var.prefix -->
<g id="edge_24" class="edge">
<title>[root] var.location&#45;&gt;[root] var.prefix</title>
<path fill="none" stroke="black" stroke-dasharray="5,2" d="M316.5,-303.7C316.5,-292.85 316.5,-278.92 316.5,-268.1"/>
</g>
<!-- [root] var.resourcegroupname -->
<g id="node_11" class="node">
<title>[root] var.resourcegroupname</title>
<polygon fill="none" stroke="black" points="275.5,-178 275.5,-193 358.5,-193 358.5,-178 275.5,-178"/>
<text text-anchor="start" x="310" y="-183.6" font-family="courier new" font-size="8.00">var</text>
<polygon fill="none" stroke="black" points="275.5,-163 275.5,-178 358.5,-178 358.5,-163 275.5,-163"/>
<text text-anchor="start" x="278.5" y="-168.6" font-family="courier new" font-size="8.00">resourcegroupname</text>
</g>
<!-- [root] var.prefix&#45;&gt;[root] var.resourcegroupname -->
<g id="edge_25" class="edge">
<title>[root] var.prefix&#45;&gt;[root] var.resourcegroupname</title>
<path fill="none" stroke="black" stroke-dasharray="5,2" d="M316.5,-231.7C316.5,-220.85 316.5,-206.92 316.5,-196.1"/>
</g>
<!-- [root] var.source_ip -->
<g id="node_12" class="node">
<title>[root] var.source_ip</title>
<polygon fill="none" stroke="black" points="293.5,-106 293.5,-121 340.5,-121 340.5,-106 293.5,-106"/>
<text text-anchor="start" x="310" y="-111.6" font-family="courier new" font-size="8.00">var</text>
<polygon fill="none" stroke="black" points="293.5,-91 293.5,-106 340.5,-106 340.5,-91 293.5,-91"/>
<text text-anchor="start" x="296.5" y="-96.6" font-family="courier new" font-size="8.00">source_ip</text>
</g>
<!-- [root] var.resourcegroupname&#45;&gt;[root] var.source_ip -->
<g id="edge_26" class="edge">
<title>[root] var.resourcegroupname&#45;&gt;[root] var.source_ip</title>
<path fill="none" stroke="black" stroke-dasharray="5,2" d="M316.5,-159.7C316.5,-148.85 316.5,-134.92 316.5,-124.1"/>
</g>
<!-- [root] var.tags -->
<g id="node_16" class="node">
<title>[root] var.tags</title>
<polygon fill="none" stroke="black" points="304.5,-34 304.5,-49 329.5,-49 329.5,-34 304.5,-34"/>
<text text-anchor="start" x="310" y="-39.6" font-family="courier new" font-size="8.00">var</text>
<polygon fill="none" stroke="black" points="304.5,-19 304.5,-34 329.5,-34 329.5,-19 304.5,-19"/>
<text text-anchor="start" x="307.5" y="-24.6" font-family="courier new" font-size="8.00">tags</text>
</g>
<!-- [root] var.source_ip&#45;&gt;[root] var.tags -->
<g id="edge_27" class="edge">
<title>[root] var.source_ip&#45;&gt;[root] var.tags</title>
<path fill="none" stroke="black" stroke-dasharray="5,2" d="M316.5,-87.7C316.5,-76.85 316.5,-62.92 316.5,-52.1"/>
</g>
<!-- [root] var.spot_min_node_count -->
<g id="node_14" class="node">
<title>[root] var.spot_min_node_count</title>
<polygon fill="none" stroke="black" points="24.5,-682 24.5,-697 116.5,-697 116.5,-682 24.5,-682"/>
<text text-anchor="start" x="63.5" y="-687.6" font-family="courier new" font-size="8.00">var</text>
<polygon fill="none" stroke="black" points="24.5,-667 24.5,-682 116.5,-682 116.5,-667 24.5,-667"/>
<text text-anchor="start" x="27.5" y="-672.6" font-family="courier new" font-size="8.00">spot_min_node_count</text>
</g>
<!-- [root] var.spot_max_node_count&#45;&gt;[root] var.spot_min_node_count -->
<g id="edge_28" class="edge">
<title>[root] var.spot_max_node_count&#45;&gt;[root] var.spot_min_node_count</title>
<path fill="none" stroke="black" stroke-dasharray="5,2" d="M70.5,-735.7C70.5,-724.85 70.5,-710.92 70.5,-700.1"/>
</g>
<!-- [root] var.spot_vm_size -->
<g id="node_15" class="node">
<title>[root] var.spot_vm_size</title>
<polygon fill="none" stroke="black" points="40.5,-610 40.5,-625 101.5,-625 101.5,-610 40.5,-610"/>
<text text-anchor="start" x="64" y="-615.6" font-family="courier new" font-size="8.00">var</text>
<polygon fill="none" stroke="black" points="40.5,-595 40.5,-610 101.5,-610 101.5,-595 40.5,-595"/>
<text text-anchor="start" x="43.5" y="-600.6" font-family="courier new" font-size="8.00">spot_vm_size</text>
</g>
<!-- [root] var.spot_min_node_count&#45;&gt;[root] var.spot_vm_size -->
<g id="edge_29" class="edge">
<title>[root] var.spot_min_node_count&#45;&gt;[root] var.spot_vm_size</title>
<path fill="none" stroke="black" stroke-dasharray="5,2" d="M70.5,-663.7C70.5,-652.85 70.5,-638.92 70.5,-628.1"/>
</g>
<!-- [root] output.kube_config&#45;&gt;[root] azurerm_kubernetes_cluster.aks (expand) -->
<g id="edge_15" class="edge">
<title>[root] output.kube_config&#45;&gt;[root] azurerm_kubernetes_cluster.aks (expand)</title>
<path fill="none" stroke="black" d="M193.86,-879.87C194.37,-855.67 195.31,-811.21 195.92,-782.39"/>
<polygon fill="black" stroke="black" points="199.42,-782.26 196.14,-772.19 192.43,-782.11 199.42,-782.26"/>
</g>
</g>
</svg>

