<?xml version="1.0" encoding="UTF-8" standalone="no"?>
<!DOCTYPE svg PUBLIC "-//W3C//DTD SVG 1.1//EN"
 "http://www.w3.org/Graphics/SVG/1.1/DTD/svg11.dtd">
<!-- Generated by graphviz version 2.43.0 (0)
 -->
<!-- Title: %3 Pages: 1 -->
<svg width="678pt" height="708pt"
 viewBox="0.00 0.00 678.00 708.00" xmlns="http://www.w3.org/2000/svg" xmlns:xlink="http://www.w3.org/1999/xlink">
<g id="graph0" class="graph" transform="scale(1 1) rotate(0) translate(4 704)">
<title>%3</title>
<polygon fill="white" stroke="transparent" points="-4,4 -4,-704 674,-704 674,4 -4,4"/>
<g id="clust2" class="cluster">
<title>cluster[root] azurerm_kubernetes_cluster.aks (expand)_var_</title>
</g>
<g id="clust3" class="cluster">
<title>cluster[root] azurerm_role_definition.aksroutetablerole (expand)_var_</title>
</g>
<g id="clust4" class="cluster">
<title>cluster[root] azurerm_user_assigned_identity.aksuseridentity (expand)_var_</title>
</g>
<g id="clust5" class="cluster">
<title>cluster[root] azurerm_kubernetes_cluster_node_pool.akspool (expand)_var_</title>
</g>
<g id="clust6" class="cluster">
<title>cluster[root] root_output_[root] azurerm_kubernetes_cluster.aks (expand)</title>
</g>
<!-- [root] azurerm_kubernetes_cluster.aks (expand) -->
<g id="node_0" class="node">
<title>[root] azurerm_kubernetes_cluster.aks (expand)</title>
<polygon fill="none" stroke="black" points="412,-466 412,-481 536,-481 536,-466 412,-466"/>
<text text-anchor="start" x="415" y="-471.6" font-family="courier new" font-size="8.00">azurerm_kubernetes_cluster</text>
<polygon fill="none" stroke="black" points="412,-451 412,-466 536,-466 536,-451 412,-451"/>
<text text-anchor="start" x="467" y="-456.6" font-family="courier new" font-size="8.00">aks</text>
</g>
<!-- [root] azurerm_user_assigned_identity.aksuseridentity (expand) -->
<g id="node_4" class="node">
<title>[root] azurerm_user_assigned_identity.aksuseridentity (expand)</title>
<polygon fill="none" stroke="black" points="266,-394 266,-409 408,-409 408,-394 266,-394"/>
<text text-anchor="start" x="269" y="-399.6" font-family="courier new" font-size="8.00">azurerm_user_assigned_identity</text>
<polygon fill="none" stroke="black" points="266,-379 266,-394 408,-394 408,-379 266,-379"/>
<text text-anchor="start" x="303" y="-384.6" font-family="courier new" font-size="8.00">aksuseridentity</text>
</g>
<!-- [root] azurerm_kubernetes_cluster.aks (expand)&#45;&gt;[root] azurerm_user_assigned_identity.aksuseridentity (expand) -->
<g id="edge_0" class="edge">
<title>[root] azurerm_kubernetes_cluster.aks (expand)&#45;&gt;[root] azurerm_user_assigned_identity.aksuseridentity (expand)</title>
<path fill="none" stroke="black" d="M440.49,-447.88C422.16,-438.51 399.26,-426.81 379.67,-416.8"/>
<polygon fill="black" stroke="black" points="381.14,-413.62 370.64,-412.19 377.96,-419.86 381.14,-413.62"/>
</g>
<!-- [root] var.appgw_subnet_id -->
<g id="node_7" class="node">
<title>[root] var.appgw_subnet_id</title>
<polygon fill="none" stroke="black" points="440,-394 440,-409 514,-409 514,-394 440,-394"/>
<text text-anchor="start" x="470" y="-399.6" font-family="courier new" font-size="8.00">var</text>
<polygon fill="none" stroke="black" points="440,-379 440,-394 514,-394 514,-379 440,-379"/>
<text text-anchor="start" x="443" y="-384.6" font-family="courier new" font-size="8.00">appgw_subnet_id</text>
</g>
<!-- [root] azurerm_kubernetes_cluster.aks (expand)&#45;&gt;[root] var.appgw_subnet_id -->
<g id="edge_1" class="edge">
<title>[root] azurerm_kubernetes_cluster.aks (expand)&#45;&gt;[root] var.appgw_subnet_id</title>
<path fill="none" stroke="black" d="M474.74,-447.7C475.07,-439.98 475.47,-430.71 475.84,-422.11"/>
<polygon fill="black" stroke="black" points="479.34,-422.25 476.27,-412.1 472.34,-421.95 479.34,-422.25"/>
</g>
<!-- [root] azurerm_kubernetes_cluster_node_pool.akspool (expand) -->
<g id="node_1" class="node">
<title>[root] azurerm_kubernetes_cluster_node_pool.akspool (expand)</title>
<polygon fill="none" stroke="black" points="383,-538 383,-553 552,-553 552,-538 383,-538"/>
<text text-anchor="start" x="386" y="-543.6" font-family="courier new" font-size="8.00">azurerm_kubernetes_cluster_node_pool</text>
<polygon fill="none" stroke="black" points="383,-523 383,-538 552,-538 552,-523 383,-523"/>
<text text-anchor="start" x="451.5" y="-528.6" font-family="courier new" font-size="8.00">akspool</text>
</g>
<!-- [root] azurerm_kubernetes_cluster_node_pool.akspool (expand)&#45;&gt;[root] azurerm_kubernetes_cluster.aks (expand) -->
<g id="edge_7" class="edge">
<title>[root] azurerm_kubernetes_cluster_node_pool.akspool (expand)&#45;&gt;[root] azurerm_kubernetes_cluster.aks (expand)</title>
<path fill="none" stroke="black" d="M468.73,-519.7C469.5,-511.98 470.43,-502.71 471.29,-494.11"/>
<polygon fill="black" stroke="black" points="474.78,-494.4 472.29,-484.1 467.81,-493.71 474.78,-494.4"/>
</g>
<!-- [root] var.spot_max_node_count -->
<g id="node_17" class="node">
<title>[root] var.spot_max_node_count</title>
<polygon fill="none" stroke="black" points="562,-466 562,-481 654,-481 654,-466 562,-466"/>
<text text-anchor="start" x="601" y="-471.6" font-family="courier new" font-size="8.00">var</text>
<polygon fill="none" stroke="black" points="562,-451 562,-466 654,-466 654,-451 562,-451"/>
<text text-anchor="start" x="565" y="-456.6" font-family="courier new" font-size="8.00">spot_max_node_count</text>
</g>
<!-- [root] azurerm_kubernetes_cluster_node_pool.akspool (expand)&#45;&gt;[root] var.spot_max_node_count -->
<g id="edge_8" class="edge">
<title>[root] azurerm_kubernetes_cluster_node_pool.akspool (expand)&#45;&gt;[root] var.spot_max_node_count</title>
<path fill="none" stroke="black" d="M501.49,-519.88C520.44,-510.47 544.13,-498.71 564.36,-488.67"/>
<polygon fill="black" stroke="black" points="565.97,-491.77 573.37,-484.19 562.86,-485.5 565.97,-491.77"/>
</g>
<!-- [root] azurerm_role_assignment.aksroleassigments (expand) -->
<g id="node_2" class="node">
<title>[root] azurerm_role_assignment.aksroleassigments (expand)</title>
<polygon fill="none" stroke="black" points="282,-466 282,-481 392,-481 392,-466 282,-466"/>
<text text-anchor="start" x="285" y="-471.6" font-family="courier new" font-size="8.00">azurerm_role_assignment</text>
<polygon fill="none" stroke="black" points="282,-451 282,-466 392,-466 392,-451 282,-451"/>
<text text-anchor="start" x="298.5" y="-456.6" font-family="courier new" font-size="8.00">aksroleassigments</text>
</g>
<!-- [root] azurerm_role_definition.aksroutetablerole (expand) -->
<g id="node_3" class="node">
<title>[root] azurerm_role_definition.aksroutetablerole (expand)</title>
<polygon fill="none" stroke="black" points="134,-394 134,-409 244,-409 244,-394 134,-394"/>
<text text-anchor="start" x="137" y="-399.6" font-family="courier new" font-size="8.00">azurerm_role_definition</text>
<polygon fill="none" stroke="black" points="134,-379 134,-394 244,-394 244,-379 134,-379"/>
<text text-anchor="start" x="150.5" y="-384.6" font-family="courier new" font-size="8.00">aksroutetablerole</text>
</g>
<!-- [root] azurerm_role_assignment.aksroleassigments (expand)&#45;&gt;[root] azurerm_role_definition.aksroutetablerole (expand) -->
<g id="edge_11" class="edge">
<title>[root] azurerm_role_assignment.aksroleassigments (expand)&#45;&gt;[root] azurerm_role_definition.aksroutetablerole (expand)</title>
<path fill="none" stroke="black" d="M300.8,-447.88C280.74,-438.39 255.63,-426.51 234.29,-416.42"/>
<polygon fill="black" stroke="black" points="235.62,-413.18 225.09,-412.07 232.63,-419.51 235.62,-413.18"/>
</g>
<!-- [root] azurerm_role_assignment.aksroleassigments (expand)&#45;&gt;[root] azurerm_user_assigned_identity.aksuseridentity (expand) -->
<g id="edge_12" class="edge">
<title>[root] azurerm_role_assignment.aksroleassigments (expand)&#45;&gt;[root] azurerm_user_assigned_identity.aksuseridentity (expand)</title>
<path fill="none" stroke="black" d="M337,-447.7C337,-439.98 337,-430.71 337,-422.11"/>
<polygon fill="black" stroke="black" points="340.5,-422.1 337,-412.1 333.5,-422.1 340.5,-422.1"/>
</g>
<!-- [root] provider[&quot;registry.terraform.io/hashicorp/azurerm&quot;] -->
<g id="node_6" class="node">
<title>[root] provider[&quot;registry.terraform.io/hashicorp/azurerm&quot;]</title>
<polygon fill="none" stroke="black" points="126,-322 126,-337 236,-337 236,-322 126,-322"/>
<text text-anchor="start" x="160.5" y="-327.6" font-family="courier new" font-size="8.00">terraform</text>
<polygon fill="none" stroke="black" points="126,-307 126,-322 236,-322 236,-307 126,-307"/>
<text text-anchor="start" x="129" y="-312.6" font-family="courier new" font-size="8.00">io/hashicorp/azurerm\&quot;]</text>
</g>
<!-- [root] azurerm_role_definition.aksroutetablerole (expand)&#45;&gt;[root] provider[&quot;registry.terraform.io/hashicorp/azurerm&quot;] -->
<g id="edge_13" class="edge">
<title>[root] azurerm_role_definition.aksroutetablerole (expand)&#45;&gt;[root] provider[&quot;registry.terraform.io/hashicorp/azurerm&quot;]</title>
<path fill="none" stroke="black" d="M187.02,-375.7C186.14,-367.98 185.08,-358.71 184.1,-350.11"/>
<polygon fill="black" stroke="black" points="187.57,-349.64 182.95,-340.1 180.61,-350.44 187.57,-349.64"/>
</g>
<!-- [root] var.prefix -->
<g id="node_14" class="node">
<title>[root] var.prefix</title>
<polygon fill="none" stroke="black" points="264,-322 264,-337 298,-337 298,-322 264,-322"/>
<text text-anchor="start" x="274" y="-327.6" font-family="courier new" font-size="8.00">var</text>
<polygon fill="none" stroke="black" points="264,-307 264,-322 298,-322 298,-307 264,-307"/>
<text text-anchor="start" x="267" y="-312.6" font-family="courier new" font-size="8.00">prefix</text>
</g>
<!-- [root] azurerm_role_definition.aksroutetablerole (expand)&#45;&gt;[root] var.prefix -->
<g id="edge_15" class="edge">
<title>[root] azurerm_role_definition.aksroutetablerole (expand)&#45;&gt;[root] var.prefix</title>
<path fill="none" stroke="black" d="M211.74,-375.7C223.44,-366.8 237.86,-355.82 250.51,-346.2"/>
<polygon fill="black" stroke="black" points="252.68,-348.94 258.52,-340.1 248.44,-343.37 252.68,-348.94"/>
</g>
<!-- [root] var.customroutetable_id -->
<g id="node_8" class="node">
<title>[root] var.customroutetable_id</title>
<polygon fill="none" stroke="black" points="16,-322 16,-337 108,-337 108,-322 16,-322"/>
<text text-anchor="start" x="55" y="-327.6" font-family="courier new" font-size="8.00">var</text>
<polygon fill="none" stroke="black" points="16,-307 16,-322 108,-322 108,-307 16,-307"/>
<text text-anchor="start" x="19" y="-312.6" font-family="courier new" font-size="8.00">customroutetable_id</text>
</g>
<!-- [root] azurerm_role_definition.aksroutetablerole (expand)&#45;&gt;[root] var.customroutetable_id -->
<g id="edge_14" class="edge">
<title>[root] azurerm_role_definition.aksroutetablerole (expand)&#45;&gt;[root] var.customroutetable_id</title>
<path fill="none" stroke="black" d="M157.93,-375.88C141.17,-366.64 120.29,-355.13 102.3,-345.21"/>
<polygon fill="black" stroke="black" points="103.63,-341.95 93.19,-340.19 100.26,-348.08 103.63,-341.95"/>
</g>
<!-- [root] azurerm_user_assigned_identity.aksuseridentity (expand)&#45;&gt;[root] provider[&quot;registry.terraform.io/hashicorp/azurerm&quot;] -->
<g id="edge_16" class="edge">
<title>[root] azurerm_user_assigned_identity.aksuseridentity (expand)&#45;&gt;[root] provider[&quot;registry.terraform.io/hashicorp/azurerm&quot;]</title>
<path fill="none" stroke="black" d="M298.84,-375.88C277.61,-366.35 250.99,-354.41 228.43,-344.28"/>
<polygon fill="black" stroke="black" points="229.59,-340.97 219.04,-340.07 226.73,-347.36 229.59,-340.97"/>
</g>
<!-- [root] azurerm_user_assigned_identity.aksuseridentity (expand)&#45;&gt;[root] var.prefix -->
<g id="edge_18" class="edge">
<title>[root] azurerm_user_assigned_identity.aksuseridentity (expand)&#45;&gt;[root] var.prefix</title>
<path fill="none" stroke="black" d="M323.16,-375.7C316.51,-367.39 308.42,-357.28 301.11,-348.14"/>
<polygon fill="black" stroke="black" points="303.66,-345.73 294.68,-340.1 298.2,-350.1 303.66,-345.73"/>
</g>
<!-- [root] var.location -->
<g id="node_13" class="node">
<title>[root] var.location</title>
<polygon fill="none" stroke="black" points="338,-322 338,-337 381,-337 381,-322 338,-322"/>
<text text-anchor="start" x="352.5" y="-327.6" font-family="courier new" font-size="8.00">var</text>
<polygon fill="none" stroke="black" points="338,-307 338,-322 381,-322 381,-307 338,-307"/>
<text text-anchor="start" x="341" y="-312.6" font-family="courier new" font-size="8.00">location</text>
</g>
<!-- [root] azurerm_user_assigned_identity.aksuseridentity (expand)&#45;&gt;[root] var.location -->
<g id="edge_17" class="edge">
<title>[root] azurerm_user_assigned_identity.aksuseridentity (expand)&#45;&gt;[root] var.location</title>
<path fill="none" stroke="black" d="M342.44,-375.7C344.89,-367.9 347.84,-358.51 350.57,-349.83"/>
<polygon fill="black" stroke="black" points="353.96,-350.69 353.62,-340.1 347.29,-348.59 353.96,-350.69"/>
</g>
<!-- [root] provider[&quot;registry.terraform.io/hashicorp/azurerm&quot;] (close) -->
<g id="node_21" class="node">
<title>[root] provider[&quot;registry.terraform.io/hashicorp/azurerm&quot;] (close)</title>
<polygon fill="none" stroke="black" points="412,-610 412,-625 522,-625 522,-610 412,-610"/>
<text text-anchor="start" x="446.5" y="-615.6" font-family="courier new" font-size="8.00">terraform</text>
<polygon fill="none" stroke="black" points="412,-595 412,-610 522,-610 522,-595 412,-595"/>
<text text-anchor="start" x="415" y="-600.6" font-family="courier new" font-size="8.00">io/hashicorp/azurerm\&quot;]</text>
</g>
<!-- [root] provider[&quot;registry.terraform.io/hashicorp/azurerm&quot;] (close)&#45;&gt;[root] azurerm_kubernetes_cluster_node_pool.akspool (expand) -->
<g id="edge_22" class="edge">
<title>[root] provider[&quot;registry.terraform.io/hashicorp/azurerm&quot;] (close)&#45;&gt;[root] azurerm_kubernetes_cluster_node_pool.akspool (expand)</title>
<path fill="none" stroke="black" d="M467,-591.7C467,-583.98 467,-574.71 467,-566.11"/>
<polygon fill="black" stroke="black" points="470.5,-566.1 467,-556.1 463.5,-566.1 470.5,-566.1"/>
</g>
<!-- [root] provider[&quot;registry.terraform.io/hashicorp/azurerm&quot;] (close)&#45;&gt;[root] azurerm_role_assignment.aksroleassigments (expand) -->
<g id="edge_23" class="edge">
<title>[root] provider[&quot;registry.terraform.io/hashicorp/azurerm&quot;] (close)&#45;&gt;[root] azurerm_role_assignment.aksroleassigments (expand)</title>
<path fill="none" stroke="black" d="M423.96,-591.9C406.6,-583.26 387.53,-571.32 374,-556 358.39,-538.33 348.76,-513.15 343.25,-494.08"/>
<polygon fill="black" stroke="black" points="346.57,-492.95 340.6,-484.2 339.81,-494.76 346.57,-492.95"/>
</g>
<!-- [root] root -->
<g id="node_22" class="node">
<title>[root] root</title>
<polygon fill="none" stroke="black" points="553,-700 487,-700 487,-664 553,-664 553,-700"/>
<text text-anchor="middle" x="520" y="-680.1" font-family="courier new" font-size="8.00">[root] root</text>
</g>
<!-- [root] root&#45;&gt;[root] provider[&quot;registry.terraform.io/hashicorp/azurerm&quot;] (close) -->
<g id="edge_25" class="edge">
<title>[root] root&#45;&gt;[root] provider[&quot;registry.terraform.io/hashicorp/azurerm&quot;] (close)</title>
<path fill="none" stroke="black" d="M506.9,-663.7C500.61,-655.39 492.95,-645.28 486.04,-636.14"/>
<polygon fill="black" stroke="black" points="488.78,-633.96 479.95,-628.1 483.2,-638.19 488.78,-633.96"/>
</g>
<!-- [root] output.kube_config -->
<g id="node_5" class="node">
<title>[root] output.kube_config</title>
<polygon fill="none" stroke="black" points="545,-610 545,-625 601,-625 601,-610 545,-610"/>
<text text-anchor="start" x="559" y="-615.6" font-family="courier new" font-size="8.00">output</text>
<polygon fill="none" stroke="black" points="545,-595 545,-610 601,-610 601,-595 545,-595"/>
<text text-anchor="start" x="548" y="-600.6" font-family="courier new" font-size="8.00">kube_config</text>
</g>
<!-- [root] root&#45;&gt;[root] output.kube_config -->
<g id="edge_24" class="edge">
<title>[root] root&#45;&gt;[root] output.kube_config</title>
<path fill="none" stroke="black" d="M533.1,-663.7C539.39,-655.39 547.05,-645.28 553.96,-636.14"/>
<polygon fill="black" stroke="black" points="556.8,-638.19 560.05,-628.1 551.22,-633.96 556.8,-638.19"/>
</g>
<!-- [root] var.default_max_node_count -->
<g id="node_9" class="node">
<title>[root] var.default_max_node_count</title>
<polygon fill="none" stroke="black" points="432,-322 432,-337 538,-337 538,-322 432,-322"/>
<text text-anchor="start" x="478" y="-327.6" font-family="courier new" font-size="8.00">var</text>
<polygon fill="none" stroke="black" points="432,-307 432,-322 538,-322 538,-307 432,-307"/>
<text text-anchor="start" x="435" y="-312.6" font-family="courier new" font-size="8.00">default_max_node_count</text>
</g>
<!-- [root] var.appgw_subnet_id&#45;&gt;[root] var.default_max_node_count -->
<g id="edge_26" class="edge">
<title>[root] var.appgw_subnet_id&#45;&gt;[root] var.default_max_node_count</title>
<path fill="none" stroke="black" stroke-dasharray="5,2" d="M478.98,-375.7C480.22,-364.85 481.81,-350.92 483.05,-340.1"/>
</g>
<!-- [root] var.default_min_node_count -->
<g id="node_10" class="node">
<title>[root] var.default_min_node_count</title>
<polygon fill="none" stroke="black" points="432,-250 432,-265 538,-265 538,-250 432,-250"/>
<text text-anchor="start" x="478" y="-255.6" font-family="courier new" font-size="8.00">var</text>
<polygon fill="none" stroke="black" points="432,-235 432,-250 538,-250 538,-235 432,-235"/>
<text text-anchor="start" x="435" y="-240.6" font-family="courier new" font-size="8.00">default_min_node_count</text>
</g>
<!-- [root] var.default_max_node_count&#45;&gt;[root] var.default_min_node_count -->
<g id="edge_27" class="edge">
<title>[root] var.default_max_node_count&#45;&gt;[root] var.default_min_node_count</title>
<path fill="none" stroke="black" stroke-dasharray="5,2" d="M485,-303.7C485,-292.85 485,-278.92 485,-268.1"/>
</g>
<!-- [root] var.default_vm_size -->
<g id="node_11" class="node">
<title>[root] var.default_vm_size</title>
<polygon fill="none" stroke="black" points="448,-178 448,-193 522,-193 522,-178 448,-178"/>
<text text-anchor="start" x="478" y="-183.6" font-family="courier new" font-size="8.00">var</text>
<polygon fill="none" stroke="black" points="448,-163 448,-178 522,-178 522,-163 448,-163"/>
<text text-anchor="start" x="451" y="-168.6" font-family="courier new" font-size="8.00">default_vm_size</text>
</g>
<!-- [root] var.default_min_node_count&#45;&gt;[root] var.default_vm_size -->
<g id="edge_28" class="edge">
<title>[root] var.default_min_node_count&#45;&gt;[root] var.default_vm_size</title>
<path fill="none" stroke="black" stroke-dasharray="5,2" d="M485,-231.7C485,-220.85 485,-206.92 485,-196.1"/>
</g>
<!-- [root] var.internal_subnet_id -->
<g id="node_12" class="node">
<title>[root] var.internal_subnet_id</title>
<polygon fill="none" stroke="black" points="441,-106 441,-121 529,-121 529,-106 441,-106"/>
<text text-anchor="start" x="478" y="-111.6" font-family="courier new" font-size="8.00">var</text>
<polygon fill="none" stroke="black" points="441,-91 441,-106 529,-106 529,-91 441,-91"/>
<text text-anchor="start" x="444" y="-96.6" font-family="courier new" font-size="8.00">internal_subnet_id</text>
</g>
<!-- [root] var.default_vm_size&#45;&gt;[root] var.internal_subnet_id -->
<g id="edge_29" class="edge">
<title>[root] var.default_vm_size&#45;&gt;[root] var.internal_subnet_id</title>
<path fill="none" stroke="black" stroke-dasharray="5,2" d="M485,-159.7C485,-148.85 485,-134.92 485,-124.1"/>
</g>
<!-- [root] var.source_ip -->
<g id="node_16" class="node">
<title>[root] var.source_ip</title>
<polygon fill="none" stroke="black" points="462,-34 462,-49 509,-49 509,-34 462,-34"/>
<text text-anchor="start" x="478.5" y="-39.6" font-family="courier new" font-size="8.00">var</text>
<polygon fill="none" stroke="black" points="462,-19 462,-34 509,-34 509,-19 462,-19"/>
<text text-anchor="start" x="465" y="-24.6" font-family="courier new" font-size="8.00">source_ip</text>
</g>
<!-- [root] var.internal_subnet_id&#45;&gt;[root] var.source_ip -->
<g id="edge_30" class="edge">
<title>[root] var.internal_subnet_id&#45;&gt;[root] var.source_ip</title>
<path fill="none" stroke="black" stroke-dasharray="5,2" d="M485,-87.7C485,-76.85 485,-62.92 485,-52.1"/>
</g>
<!-- [root] var.resourcegroupname -->
<g id="node_15" class="node">
<title>[root] var.resourcegroupname</title>
<polygon fill="none" stroke="black" points="325,-250 325,-265 408,-265 408,-250 325,-250"/>
<text text-anchor="start" x="359.5" y="-255.6" font-family="courier new" font-size="8.00">var</text>
<polygon fill="none" stroke="black" points="325,-235 325,-250 408,-250 408,-235 325,-235"/>
<text text-anchor="start" x="328" y="-240.6" font-family="courier new" font-size="8.00">resourcegroupname</text>
</g>
<!-- [root] var.location&#45;&gt;[root] var.resourcegroupname -->
<g id="edge_31" class="edge">
<title>[root] var.location&#45;&gt;[root] var.resourcegroupname</title>
<path fill="none" stroke="black" stroke-dasharray="5,2" d="M360.73,-303.7C361.82,-292.85 363.21,-278.92 364.29,-268.1"/>
</g>
<!-- [root] var.tags -->
<g id="node_20" class="node">
<title>[root] var.tags</title>
<polygon fill="none" stroke="black" points="354,-178 354,-193 379,-193 379,-178 354,-178"/>
<text text-anchor="start" x="359.5" y="-183.6" font-family="courier new" font-size="8.00">var</text>
<polygon fill="none" stroke="black" points="354,-163 354,-178 379,-178 379,-163 354,-163"/>
<text text-anchor="start" x="357" y="-168.6" font-family="courier new" font-size="8.00">tags</text>
</g>
<!-- [root] var.resourcegroupname&#45;&gt;[root] var.tags -->
<g id="edge_32" class="edge">
<title>[root] var.resourcegroupname&#45;&gt;[root] var.tags</title>
<path fill="none" stroke="black" stroke-dasharray="5,2" d="M366,-231.7C366,-220.85 366,-206.92 366,-196.1"/>
</g>
<!-- [root] var.spot_min_node_count -->
<g id="node_18" class="node">
<title>[root] var.spot_min_node_count</title>
<polygon fill="none" stroke="black" points="562,-394 562,-409 654,-409 654,-394 562,-394"/>
<text text-anchor="start" x="601" y="-399.6" font-family="courier new" font-size="8.00">var</text>
<polygon fill="none" stroke="black" points="562,-379 562,-394 654,-394 654,-379 562,-379"/>
<text text-anchor="start" x="565" y="-384.6" font-family="courier new" font-size="8.00">spot_min_node_count</text>
</g>
<!-- [root] var.spot_max_node_count&#45;&gt;[root] var.spot_min_node_count -->
<g id="edge_33" class="edge">
<title>[root] var.spot_max_node_count&#45;&gt;[root] var.spot_min_node_count</title>
<path fill="none" stroke="black" stroke-dasharray="5,2" d="M608,-447.7C608,-436.85 608,-422.92 608,-412.1"/>
</g>
<!-- [root] var.spot_vm_sizes -->
<g id="node_19" class="node">
<title>[root] var.spot_vm_sizes</title>
<polygon fill="none" stroke="black" points="576,-322 576,-337 641,-337 641,-322 576,-322"/>
<text text-anchor="start" x="601.5" y="-327.6" font-family="courier new" font-size="8.00">var</text>
<polygon fill="none" stroke="black" points="576,-307 576,-322 641,-322 641,-307 576,-307"/>
<text text-anchor="start" x="579" y="-312.6" font-family="courier new" font-size="8.00">spot_vm_sizes</text>
</g>
<!-- [root] var.spot_min_node_count&#45;&gt;[root] var.spot_vm_sizes -->
<g id="edge_34" class="edge">
<title>[root] var.spot_min_node_count&#45;&gt;[root] var.spot_vm_sizes</title>
<path fill="none" stroke="black" stroke-dasharray="5,2" d="M608,-375.7C608,-364.85 608,-350.92 608,-340.1"/>
</g>
<!-- [root] output.kube_config&#45;&gt;[root] azurerm_kubernetes_cluster.aks (expand) -->
<g id="edge_21" class="edge">
<title>[root] output.kube_config&#45;&gt;[root] azurerm_kubernetes_cluster.aks (expand)</title>
<path fill="none" stroke="black" d="M574.84,-591.77C576,-572.66 575.16,-541.67 561,-520 552.67,-507.25 540.09,-497.08 527.08,-489.2"/>
<polygon fill="black" stroke="black" points="528.47,-485.96 518.04,-484.1 525.03,-492.06 528.47,-485.96"/>
</g>
</g>
</svg>

