<?xml version="1.0" encoding="UTF-8" standalone="no"?>
<!DOCTYPE svg PUBLIC "-//W3C//DTD SVG 1.1//EN"
 "http://www.w3.org/Graphics/SVG/1.1/DTD/svg11.dtd">
<!-- Generated by graphviz version 2.43.0 (0)
 -->
<!-- Title: %3 Pages: 1 -->
<svg width="377pt" height="780pt"
 viewBox="0.00 0.00 376.50 780.00" xmlns="http://www.w3.org/2000/svg" xmlns:xlink="http://www.w3.org/1999/xlink">
<g id="graph0" class="graph" transform="scale(1 1) rotate(0) translate(4 776)">
<title>%3</title>
<polygon fill="white" stroke="transparent" points="-4,4 -4,-776 372.5,-776 372.5,4 -4,4"/>
<g id="clust2" class="cluster">
<title>cluster[root] azurerm_kubernetes_cluster.aks (expand)_var_</title>
</g>
<g id="clust3" class="cluster">
<title>cluster[root] azurerm_kubernetes_cluster_node_pool.akspool (expand)_var_</title>
</g>
<g id="clust4" class="cluster">
<title>cluster[root] root_output_[root] azurerm_kubernetes_cluster.aks (expand)</title>
</g>
<!-- [root] azurerm_kubernetes_cluster.aks (expand) -->
<g id="node_0" class="node">
<title>[root] azurerm_kubernetes_cluster.aks (expand)</title>
<polygon fill="none" stroke="black" points="134.5,-538 134.5,-553 258.5,-553 258.5,-538 134.5,-538"/>
<text text-anchor="start" x="137.5" y="-543.6" font-family="courier new" font-size="8.00">azurerm_kubernetes_cluster</text>
<polygon fill="none" stroke="black" points="134.5,-523 134.5,-538 258.5,-538 258.5,-523 134.5,-523"/>
<text text-anchor="start" x="189.5" y="-528.6" font-family="courier new" font-size="8.00">aks</text>
</g>
<!-- [root] provider[&quot;registry.terraform.io/hashicorp/azurerm&quot;] -->
<g id="node_3" class="node">
<title>[root] provider[&quot;registry.terraform.io/hashicorp/azurerm&quot;]</title>
<polygon fill="none" stroke="black" points="136.5,-466 136.5,-481 246.5,-481 246.5,-466 136.5,-466"/>
<text text-anchor="start" x="171" y="-471.6" font-family="courier new" font-size="8.00">terraform</text>
<polygon fill="none" stroke="black" points="136.5,-451 136.5,-466 246.5,-466 246.5,-451 136.5,-451"/>
<text text-anchor="start" x="139.5" y="-456.6" font-family="courier new" font-size="8.00">io/hashicorp/azurerm\&quot;]</text>
</g>
<!-- [root] azurerm_kubernetes_cluster.aks (expand)&#45;&gt;[root] provider[&quot;registry.terraform.io/hashicorp/azurerm&quot;] -->
<g id="edge_0" class="edge">
<title>[root] azurerm_kubernetes_cluster.aks (expand)&#45;&gt;[root] provider[&quot;registry.terraform.io/hashicorp/azurerm&quot;]</title>
<path fill="none" stroke="black" d="M195.26,-519.7C194.71,-511.98 194.05,-502.71 193.44,-494.11"/>
<polygon fill="black" stroke="black" points="196.93,-493.83 192.72,-484.1 189.94,-494.33 196.93,-493.83"/>
</g>
<!-- [root] var.default_node_count -->
<g id="node_4" class="node">
<title>[root] var.default_node_count</title>
<polygon fill="none" stroke="black" points="264.5,-466 264.5,-481 352.5,-481 352.5,-466 264.5,-466"/>
<text text-anchor="start" x="301.5" y="-471.6" font-family="courier new" font-size="8.00">var</text>
<polygon fill="none" stroke="black" points="264.5,-451 264.5,-466 352.5,-466 352.5,-451 264.5,-451"/>
<text text-anchor="start" x="267.5" y="-456.6" font-family="courier new" font-size="8.00">default_node_count</text>
</g>
<!-- [root] azurerm_kubernetes_cluster.aks (expand)&#45;&gt;[root] var.default_node_count -->
<g id="edge_1" class="edge">
<title>[root] azurerm_kubernetes_cluster.aks (expand)&#45;&gt;[root] var.default_node_count</title>
<path fill="none" stroke="black" d="M223.9,-519.88C238.41,-510.81 256.42,-499.55 272.09,-489.76"/>
<polygon fill="black" stroke="black" points="274.37,-492.46 281,-484.19 270.66,-486.52 274.37,-492.46"/>
</g>
<!-- [root] azurerm_kubernetes_cluster_node_pool.akspool (expand) -->
<g id="node_1" class="node">
<title>[root] azurerm_kubernetes_cluster_node_pool.akspool (expand)</title>
<polygon fill="none" stroke="black" points="0.5,-610 0.5,-625 169.5,-625 169.5,-610 0.5,-610"/>
<text text-anchor="start" x="3.5" y="-615.6" font-family="courier new" font-size="8.00">azurerm_kubernetes_cluster_node_pool</text>
<polygon fill="none" stroke="black" points="0.5,-595 0.5,-610 169.5,-610 169.5,-595 0.5,-595"/>
<text text-anchor="start" x="69" y="-600.6" font-family="courier new" font-size="8.00">akspool</text>
</g>
<!-- [root] azurerm_kubernetes_cluster_node_pool.akspool (expand)&#45;&gt;[root] azurerm_kubernetes_cluster.aks (expand) -->
<g id="edge_8" class="edge">
<title>[root] azurerm_kubernetes_cluster_node_pool.akspool (expand)&#45;&gt;[root] azurerm_kubernetes_cluster.aks (expand)</title>
<path fill="none" stroke="black" d="M111.9,-591.88C126.41,-582.81 144.42,-571.55 160.09,-561.76"/>
<polygon fill="black" stroke="black" points="162.37,-564.46 169,-556.19 158.66,-558.52 162.37,-564.46"/>
</g>
<!-- [root] var.spot_max_node_count -->
<g id="node_8" class="node">
<title>[root] var.spot_max_node_count</title>
<polygon fill="none" stroke="black" points="24.5,-538 24.5,-553 116.5,-553 116.5,-538 24.5,-538"/>
<text text-anchor="start" x="63.5" y="-543.6" font-family="courier new" font-size="8.00">var</text>
<polygon fill="none" stroke="black" points="24.5,-523 24.5,-538 116.5,-538 116.5,-523 24.5,-523"/>
<text text-anchor="start" x="27.5" y="-528.6" font-family="courier new" font-size="8.00">spot_max_node_count</text>
</g>
<!-- [root] azurerm_kubernetes_cluster_node_pool.akspool (expand)&#45;&gt;[root] var.spot_max_node_count -->
<g id="edge_9" class="edge">
<title>[root] azurerm_kubernetes_cluster_node_pool.akspool (expand)&#45;&gt;[root] var.spot_max_node_count</title>
<path fill="none" stroke="black" d="M81.04,-591.7C79.5,-583.98 77.64,-574.71 75.92,-566.11"/>
<polygon fill="black" stroke="black" points="79.31,-565.22 73.92,-556.1 72.45,-566.6 79.31,-565.22"/>
</g>
<!-- [root] provider[&quot;registry.terraform.io/hashicorp/azurerm&quot;] (close) -->
<g id="node_13" class="node">
<title>[root] provider[&quot;registry.terraform.io/hashicorp/azurerm&quot;] (close)</title>
<polygon fill="none" stroke="black" points="32.5,-682 32.5,-697 142.5,-697 142.5,-682 32.5,-682"/>
<text text-anchor="start" x="67" y="-687.6" font-family="courier new" font-size="8.00">terraform</text>
<polygon fill="none" stroke="black" points="32.5,-667 32.5,-682 142.5,-682 142.5,-667 32.5,-667"/>
<text text-anchor="start" x="35.5" y="-672.6" font-family="courier new" font-size="8.00">io/hashicorp/azurerm\&quot;]</text>
</g>
<!-- [root] provider[&quot;registry.terraform.io/hashicorp/azurerm&quot;] (close)&#45;&gt;[root] azurerm_kubernetes_cluster_node_pool.akspool (expand) -->
<g id="edge_12" class="edge">
<title>[root] provider[&quot;registry.terraform.io/hashicorp/azurerm&quot;] (close)&#45;&gt;[root] azurerm_kubernetes_cluster_node_pool.akspool (expand)</title>
<path fill="none" stroke="black" d="M86.76,-663.7C86.43,-655.98 86.03,-646.71 85.66,-638.11"/>
<polygon fill="black" stroke="black" points="89.16,-637.95 85.23,-628.1 82.16,-638.25 89.16,-637.95"/>
</g>
<!-- [root] root -->
<g id="node_14" class="node">
<title>[root] root</title>
<polygon fill="none" stroke="black" points="173.5,-772 107.5,-772 107.5,-736 173.5,-736 173.5,-772"/>
<text text-anchor="middle" x="140.5" y="-752.1" font-family="courier new" font-size="8.00">[root] root</text>
</g>
<!-- [root] root&#45;&gt;[root] provider[&quot;registry.terraform.io/hashicorp/azurerm&quot;] (close) -->
<g id="edge_14" class="edge">
<title>[root] root&#45;&gt;[root] provider[&quot;registry.terraform.io/hashicorp/azurerm&quot;] (close)</title>
<path fill="none" stroke="black" d="M127.4,-735.7C121.11,-727.39 113.45,-717.28 106.54,-708.14"/>
<polygon fill="black" stroke="black" points="109.28,-705.96 100.45,-700.1 103.7,-710.19 109.28,-705.96"/>
</g>
<!-- [root] output.kube_config -->
<g id="node_2" class="node">
<title>[root] output.kube_config</title>
<polygon fill="none" stroke="black" points="165.5,-682 165.5,-697 221.5,-697 221.5,-682 165.5,-682"/>
<text text-anchor="start" x="179.5" y="-687.6" font-family="courier new" font-size="8.00">output</text>
<polygon fill="none" stroke="black" points="165.5,-667 165.5,-682 221.5,-682 221.5,-667 165.5,-667"/>
<text text-anchor="start" x="168.5" y="-672.6" font-family="courier new" font-size="8.00">kube_config</text>
</g>
<!-- [root] root&#45;&gt;[root] output.kube_config -->
<g id="edge_13" class="edge">
<title>[root] root&#45;&gt;[root] output.kube_config</title>
<path fill="none" stroke="black" d="M153.6,-735.7C159.89,-727.39 167.55,-717.28 174.46,-708.14"/>
<polygon fill="black" stroke="black" points="177.3,-710.19 180.55,-700.1 171.72,-705.96 177.3,-710.19"/>
</g>
<!-- [root] var.location -->
<g id="node_5" class="node">
<title>[root] var.location</title>
<polygon fill="none" stroke="black" points="287.5,-394 287.5,-409 330.5,-409 330.5,-394 287.5,-394"/>
<text text-anchor="start" x="302" y="-399.6" font-family="courier new" font-size="8.00">var</text>
<polygon fill="none" stroke="black" points="287.5,-379 287.5,-394 330.5,-394 330.5,-379 287.5,-379"/>
<text text-anchor="start" x="290.5" y="-384.6" font-family="courier new" font-size="8.00">location</text>
</g>
<!-- [root] var.default_node_count&#45;&gt;[root] var.location -->
<g id="edge_15" class="edge">
<title>[root] var.default_node_count&#45;&gt;[root] var.location</title>
<path fill="none" stroke="black" stroke-dasharray="5,2" d="M308.5,-447.7C308.5,-436.85 308.5,-422.92 308.5,-412.1"/>
</g>
<!-- [root] var.prefix -->
<g id="node_6" class="node">
<title>[root] var.prefix</title>
<polygon fill="none" stroke="black" points="291.5,-322 291.5,-337 325.5,-337 325.5,-322 291.5,-322"/>
<text text-anchor="start" x="301.5" y="-327.6" font-family="courier new" font-size="8.00">var</text>
<polygon fill="none" stroke="black" points="291.5,-307 291.5,-322 325.5,-322 325.5,-307 291.5,-307"/>
<text text-anchor="start" x="294.5" y="-312.6" font-family="courier new" font-size="8.00">prefix</text>
</g>
<!-- [root] var.location&#45;&gt;[root] var.prefix -->
<g id="edge_16" class="edge">
<title>[root] var.location&#45;&gt;[root] var.prefix</title>
<path fill="none" stroke="black" stroke-dasharray="5,2" d="M308.5,-375.7C308.5,-364.85 308.5,-350.92 308.5,-340.1"/>
</g>
<!-- [root] var.resourcegroupname -->
<g id="node_7" class="node">
<title>[root] var.resourcegroupname</title>
<polygon fill="none" stroke="black" points="267.5,-250 267.5,-265 350.5,-265 350.5,-250 267.5,-250"/>
<text text-anchor="start" x="302" y="-255.6" font-family="courier new" font-size="8.00">var</text>
<polygon fill="none" stroke="black" points="267.5,-235 267.5,-250 350.5,-250 350.5,-235 267.5,-235"/>
<text text-anchor="start" x="270.5" y="-240.6" font-family="courier new" font-size="8.00">resourcegroupname</text>
</g>
<!-- [root] var.prefix&#45;&gt;[root] var.resourcegroupname -->
<g id="edge_17" class="edge">
<title>[root] var.prefix&#45;&gt;[root] var.resourcegroupname</title>
<path fill="none" stroke="black" stroke-dasharray="5,2" d="M308.5,-303.7C308.5,-292.85 308.5,-278.92 308.5,-268.1"/>
</g>
<!-- [root] var.subnet_id -->
<g id="node_10" class="node">
<title>[root] var.subnet_id</title>
<polygon fill="none" stroke="black" points="285.5,-178 285.5,-193 332.5,-193 332.5,-178 285.5,-178"/>
<text text-anchor="start" x="302" y="-183.6" font-family="courier new" font-size="8.00">var</text>
<polygon fill="none" stroke="black" points="285.5,-163 285.5,-178 332.5,-178 332.5,-163 285.5,-163"/>
<text text-anchor="start" x="288.5" y="-168.6" font-family="courier new" font-size="8.00">subnet_id</text>
</g>
<!-- [root] var.resourcegroupname&#45;&gt;[root] var.subnet_id -->
<g id="edge_18" class="edge">
<title>[root] var.resourcegroupname&#45;&gt;[root] var.subnet_id</title>
<path fill="none" stroke="black" stroke-dasharray="5,2" d="M308.5,-231.7C308.5,-220.85 308.5,-206.92 308.5,-196.1"/>
</g>
<!-- [root] var.tags -->
<g id="node_11" class="node">
<title>[root] var.tags</title>
<polygon fill="none" stroke="black" points="296.5,-106 296.5,-121 321.5,-121 321.5,-106 296.5,-106"/>
<text text-anchor="start" x="302" y="-111.6" font-family="courier new" font-size="8.00">var</text>
<polygon fill="none" stroke="black" points="296.5,-91 296.5,-106 321.5,-106 321.5,-91 296.5,-91"/>
<text text-anchor="start" x="299.5" y="-96.6" font-family="courier new" font-size="8.00">tags</text>
</g>
<!-- [root] var.subnet_id&#45;&gt;[root] var.tags -->
<g id="edge_19" class="edge">
<title>[root] var.subnet_id&#45;&gt;[root] var.tags</title>
<path fill="none" stroke="black" stroke-dasharray="5,2" d="M308.5,-159.7C308.5,-148.85 308.5,-134.92 308.5,-124.1"/>
</g>
<!-- [root] var.vm_size -->
<g id="node_12" class="node">
<title>[root] var.vm_size</title>
<polygon fill="none" stroke="black" points="289.5,-34 289.5,-49 327.5,-49 327.5,-34 289.5,-34"/>
<text text-anchor="start" x="301.5" y="-39.6" font-family="courier new" font-size="8.00">var</text>
<polygon fill="none" stroke="black" points="289.5,-19 289.5,-34 327.5,-34 327.5,-19 289.5,-19"/>
<text text-anchor="start" x="292.5" y="-24.6" font-family="courier new" font-size="8.00">vm_size</text>
</g>
<!-- [root] var.tags&#45;&gt;[root] var.vm_size -->
<g id="edge_20" class="edge">
<title>[root] var.tags&#45;&gt;[root] var.vm_size</title>
<path fill="none" stroke="black" stroke-dasharray="5,2" d="M308.5,-87.7C308.5,-76.85 308.5,-62.92 308.5,-52.1"/>
</g>
<!-- [root] var.spot_node_count -->
<g id="node_9" class="node">
<title>[root] var.spot_node_count</title>
<polygon fill="none" stroke="black" points="33.5,-466 33.5,-481 107.5,-481 107.5,-466 33.5,-466"/>
<text text-anchor="start" x="63.5" y="-471.6" font-family="courier new" font-size="8.00">var</text>
<polygon fill="none" stroke="black" points="33.5,-451 33.5,-466 107.5,-466 107.5,-451 33.5,-451"/>
<text text-anchor="start" x="36.5" y="-456.6" font-family="courier new" font-size="8.00">spot_node_count</text>
</g>
<!-- [root] var.spot_max_node_count&#45;&gt;[root] var.spot_node_count -->
<g id="edge_21" class="edge">
<title>[root] var.spot_max_node_count&#45;&gt;[root] var.spot_node_count</title>
<path fill="none" stroke="black" stroke-dasharray="5,2" d="M70.5,-519.7C70.5,-508.85 70.5,-494.92 70.5,-484.1"/>
</g>
<!-- [root] output.kube_config&#45;&gt;[root] azurerm_kubernetes_cluster.aks (expand) -->
<g id="edge_11" class="edge">
<title>[root] output.kube_config&#45;&gt;[root] azurerm_kubernetes_cluster.aks (expand)</title>
<path fill="none" stroke="black" d="M193.86,-663.87C194.37,-639.67 195.31,-595.21 195.92,-566.39"/>
<polygon fill="black" stroke="black" points="199.42,-566.26 196.14,-556.19 192.43,-566.11 199.42,-566.26"/>
</g>
</g>
</svg>

