<?xml version="1.0" encoding="UTF-8" standalone="no"?>
<!DOCTYPE svg PUBLIC "-//W3C//DTD SVG 1.1//EN"
 "http://www.w3.org/Graphics/SVG/1.1/DTD/svg11.dtd">
<!-- Generated by graphviz version 2.43.0 (0)
 -->
<!-- Title: %3 Pages: 1 -->
<svg width="396pt" height="924pt"
 viewBox="0.00 0.00 395.50 924.00" xmlns="http://www.w3.org/2000/svg" xmlns:xlink="http://www.w3.org/1999/xlink">
<g id="graph0" class="graph" transform="scale(1 1) rotate(0) translate(4 920)">
<title>%3</title>
<polygon fill="white" stroke="transparent" points="-4,4 -4,-920 391.5,-920 391.5,4 -4,4"/>
<g id="clust2" class="cluster">
<title>cluster[root] azurerm_kubernetes_cluster.aks (expand)_var_</title>
</g>
<g id="clust3" class="cluster">
<title>cluster[root] azurerm_kubernetes_cluster_node_pool.akspool (expand)_var_</title>
</g>
<g id="clust4" class="cluster">
<title>cluster[root] root_output_[root] azurerm_kubernetes_cluster.aks (expand)</title>
</g>
<!-- [root] azurerm_kubernetes_cluster.aks (expand) -->
<g id="node_0" class="node">
<title>[root] azurerm_kubernetes_cluster.aks (expand)</title>
<polygon fill="none" stroke="black" points="134.5,-682 134.5,-697 258.5,-697 258.5,-682 134.5,-682"/>
<text text-anchor="start" x="137.5" y="-687.6" font-family="courier new" font-size="8.00">azurerm_kubernetes_cluster</text>
<polygon fill="none" stroke="black" points="134.5,-667 134.5,-682 258.5,-682 258.5,-667 134.5,-667"/>
<text text-anchor="start" x="189.5" y="-672.6" font-family="courier new" font-size="8.00">aks</text>
</g>
<!-- [root] provider[&quot;registry.terraform.io/hashicorp/azurerm&quot;] -->
<g id="node_3" class="node">
<title>[root] provider[&quot;registry.terraform.io/hashicorp/azurerm&quot;]</title>
<polygon fill="none" stroke="black" points="137.5,-610 137.5,-625 247.5,-625 247.5,-610 137.5,-610"/>
<text text-anchor="start" x="172" y="-615.6" font-family="courier new" font-size="8.00">terraform</text>
<polygon fill="none" stroke="black" points="137.5,-595 137.5,-610 247.5,-610 247.5,-595 137.5,-595"/>
<text text-anchor="start" x="140.5" y="-600.6" font-family="courier new" font-size="8.00">io/hashicorp/azurerm\&quot;]</text>
</g>
<!-- [root] azurerm_kubernetes_cluster.aks (expand)&#45;&gt;[root] provider[&quot;registry.terraform.io/hashicorp/azurerm&quot;] -->
<g id="edge_0" class="edge">
<title>[root] azurerm_kubernetes_cluster.aks (expand)&#45;&gt;[root] provider[&quot;registry.terraform.io/hashicorp/azurerm&quot;]</title>
<path fill="none" stroke="black" d="M195.51,-663.7C195.07,-655.98 194.54,-646.71 194.05,-638.11"/>
<polygon fill="black" stroke="black" points="197.54,-637.89 193.48,-628.1 190.55,-638.29 197.54,-637.89"/>
</g>
<!-- [root] var.default_max_node_count -->
<g id="node_4" class="node">
<title>[root] var.default_max_node_count</title>
<polygon fill="none" stroke="black" points="265.5,-610 265.5,-625 371.5,-625 371.5,-610 265.5,-610"/>
<text text-anchor="start" x="311.5" y="-615.6" font-family="courier new" font-size="8.00">var</text>
<polygon fill="none" stroke="black" points="265.5,-595 265.5,-610 371.5,-610 371.5,-595 265.5,-595"/>
<text text-anchor="start" x="268.5" y="-600.6" font-family="courier new" font-size="8.00">default_max_node_count</text>
</g>
<!-- [root] azurerm_kubernetes_cluster.aks (expand)&#45;&gt;[root] var.default_max_node_count -->
<g id="edge_1" class="edge">
<title>[root] azurerm_kubernetes_cluster.aks (expand)&#45;&gt;[root] var.default_max_node_count</title>
<path fill="none" stroke="black" d="M226.34,-663.88C242.44,-654.64 262.5,-643.13 279.79,-633.21"/>
<polygon fill="black" stroke="black" points="281.61,-636.2 288.54,-628.19 278.13,-630.13 281.61,-636.2"/>
</g>
<!-- [root] azurerm_kubernetes_cluster_node_pool.akspool (expand) -->
<g id="node_1" class="node">
<title>[root] azurerm_kubernetes_cluster_node_pool.akspool (expand)</title>
<polygon fill="none" stroke="black" points="0.5,-754 0.5,-769 169.5,-769 169.5,-754 0.5,-754"/>
<text text-anchor="start" x="3.5" y="-759.6" font-family="courier new" font-size="8.00">azurerm_kubernetes_cluster_node_pool</text>
<polygon fill="none" stroke="black" points="0.5,-739 0.5,-754 169.5,-754 169.5,-739 0.5,-739"/>
<text text-anchor="start" x="69" y="-744.6" font-family="courier new" font-size="8.00">akspool</text>
</g>
<!-- [root] azurerm_kubernetes_cluster_node_pool.akspool (expand)&#45;&gt;[root] azurerm_kubernetes_cluster.aks (expand) -->
<g id="edge_10" class="edge">
<title>[root] azurerm_kubernetes_cluster_node_pool.akspool (expand)&#45;&gt;[root] azurerm_kubernetes_cluster.aks (expand)</title>
<path fill="none" stroke="black" d="M111.9,-735.88C126.41,-726.81 144.42,-715.55 160.09,-705.76"/>
<polygon fill="black" stroke="black" points="162.37,-708.46 169,-700.19 158.66,-702.52 162.37,-708.46"/>
</g>
<!-- [root] var.spot_max_node_count -->
<g id="node_11" class="node">
<title>[root] var.spot_max_node_count</title>
<polygon fill="none" stroke="black" points="24.5,-682 24.5,-697 116.5,-697 116.5,-682 24.5,-682"/>
<text text-anchor="start" x="63.5" y="-687.6" font-family="courier new" font-size="8.00">var</text>
<polygon fill="none" stroke="black" points="24.5,-667 24.5,-682 116.5,-682 116.5,-667 24.5,-667"/>
<text text-anchor="start" x="27.5" y="-672.6" font-family="courier new" font-size="8.00">spot_max_node_count</text>
</g>
<!-- [root] azurerm_kubernetes_cluster_node_pool.akspool (expand)&#45;&gt;[root] var.spot_max_node_count -->
<g id="edge_11" class="edge">
<title>[root] azurerm_kubernetes_cluster_node_pool.akspool (expand)&#45;&gt;[root] var.spot_max_node_count</title>
<path fill="none" stroke="black" d="M81.04,-735.7C79.5,-727.98 77.64,-718.71 75.92,-710.11"/>
<polygon fill="black" stroke="black" points="79.31,-709.22 73.92,-700.1 72.45,-710.6 79.31,-709.22"/>
</g>
<!-- [root] provider[&quot;registry.terraform.io/hashicorp/azurerm&quot;] (close) -->
<g id="node_16" class="node">
<title>[root] provider[&quot;registry.terraform.io/hashicorp/azurerm&quot;] (close)</title>
<polygon fill="none" stroke="black" points="32.5,-826 32.5,-841 142.5,-841 142.5,-826 32.5,-826"/>
<text text-anchor="start" x="67" y="-831.6" font-family="courier new" font-size="8.00">terraform</text>
<polygon fill="none" stroke="black" points="32.5,-811 32.5,-826 142.5,-826 142.5,-811 32.5,-811"/>
<text text-anchor="start" x="35.5" y="-816.6" font-family="courier new" font-size="8.00">io/hashicorp/azurerm\&quot;]</text>
</g>
<!-- [root] provider[&quot;registry.terraform.io/hashicorp/azurerm&quot;] (close)&#45;&gt;[root] azurerm_kubernetes_cluster_node_pool.akspool (expand) -->
<g id="edge_15" class="edge">
<title>[root] provider[&quot;registry.terraform.io/hashicorp/azurerm&quot;] (close)&#45;&gt;[root] azurerm_kubernetes_cluster_node_pool.akspool (expand)</title>
<path fill="none" stroke="black" d="M86.76,-807.7C86.43,-799.98 86.03,-790.71 85.66,-782.11"/>
<polygon fill="black" stroke="black" points="89.16,-781.95 85.23,-772.1 82.16,-782.25 89.16,-781.95"/>
</g>
<!-- [root] root -->
<g id="node_17" class="node">
<title>[root] root</title>
<polygon fill="none" stroke="black" points="173.5,-916 107.5,-916 107.5,-880 173.5,-880 173.5,-916"/>
<text text-anchor="middle" x="140.5" y="-896.1" font-family="courier new" font-size="8.00">[root] root</text>
</g>
<!-- [root] root&#45;&gt;[root] provider[&quot;registry.terraform.io/hashicorp/azurerm&quot;] (close) -->
<g id="edge_17" class="edge">
<title>[root] root&#45;&gt;[root] provider[&quot;registry.terraform.io/hashicorp/azurerm&quot;] (close)</title>
<path fill="none" stroke="black" d="M127.4,-879.7C121.11,-871.39 113.45,-861.28 106.54,-852.14"/>
<polygon fill="black" stroke="black" points="109.28,-849.96 100.45,-844.1 103.7,-854.19 109.28,-849.96"/>
</g>
<!-- [root] output.kube_config -->
<g id="node_2" class="node">
<title>[root] output.kube_config</title>
<polygon fill="none" stroke="black" points="165.5,-826 165.5,-841 221.5,-841 221.5,-826 165.5,-826"/>
<text text-anchor="start" x="179.5" y="-831.6" font-family="courier new" font-size="8.00">output</text>
<polygon fill="none" stroke="black" points="165.5,-811 165.5,-826 221.5,-826 221.5,-811 165.5,-811"/>
<text text-anchor="start" x="168.5" y="-816.6" font-family="courier new" font-size="8.00">kube_config</text>
</g>
<!-- [root] root&#45;&gt;[root] output.kube_config -->
<g id="edge_16" class="edge">
<title>[root] root&#45;&gt;[root] output.kube_config</title>
<path fill="none" stroke="black" d="M153.6,-879.7C159.89,-871.39 167.55,-861.28 174.46,-852.14"/>
<polygon fill="black" stroke="black" points="177.3,-854.19 180.55,-844.1 171.72,-849.96 177.3,-854.19"/>
</g>
<!-- [root] var.default_min_node_count -->
<g id="node_5" class="node">
<title>[root] var.default_min_node_count</title>
<polygon fill="none" stroke="black" points="265.5,-538 265.5,-553 371.5,-553 371.5,-538 265.5,-538"/>
<text text-anchor="start" x="311.5" y="-543.6" font-family="courier new" font-size="8.00">var</text>
<polygon fill="none" stroke="black" points="265.5,-523 265.5,-538 371.5,-538 371.5,-523 265.5,-523"/>
<text text-anchor="start" x="268.5" y="-528.6" font-family="courier new" font-size="8.00">default_min_node_count</text>
</g>
<!-- [root] var.default_max_node_count&#45;&gt;[root] var.default_min_node_count -->
<g id="edge_18" class="edge">
<title>[root] var.default_max_node_count&#45;&gt;[root] var.default_min_node_count</title>
<path fill="none" stroke="black" stroke-dasharray="5,2" d="M318.5,-591.7C318.5,-580.85 318.5,-566.92 318.5,-556.1"/>
</g>
<!-- [root] var.default_vm_size -->
<g id="node_6" class="node">
<title>[root] var.default_vm_size</title>
<polygon fill="none" stroke="black" points="281.5,-466 281.5,-481 355.5,-481 355.5,-466 281.5,-466"/>
<text text-anchor="start" x="311.5" y="-471.6" font-family="courier new" font-size="8.00">var</text>
<polygon fill="none" stroke="black" points="281.5,-451 281.5,-466 355.5,-466 355.5,-451 281.5,-451"/>
<text text-anchor="start" x="284.5" y="-456.6" font-family="courier new" font-size="8.00">default_vm_size</text>
</g>
<!-- [root] var.default_min_node_count&#45;&gt;[root] var.default_vm_size -->
<g id="edge_19" class="edge">
<title>[root] var.default_min_node_count&#45;&gt;[root] var.default_vm_size</title>
<path fill="none" stroke="black" stroke-dasharray="5,2" d="M318.5,-519.7C318.5,-508.85 318.5,-494.92 318.5,-484.1"/>
</g>
<!-- [root] var.location -->
<g id="node_7" class="node">
<title>[root] var.location</title>
<polygon fill="none" stroke="black" points="297.5,-394 297.5,-409 340.5,-409 340.5,-394 297.5,-394"/>
<text text-anchor="start" x="312" y="-399.6" font-family="courier new" font-size="8.00">var</text>
<polygon fill="none" stroke="black" points="297.5,-379 297.5,-394 340.5,-394 340.5,-379 297.5,-379"/>
<text text-anchor="start" x="300.5" y="-384.6" font-family="courier new" font-size="8.00">location</text>
</g>
<!-- [root] var.default_vm_size&#45;&gt;[root] var.location -->
<g id="edge_20" class="edge">
<title>[root] var.default_vm_size&#45;&gt;[root] var.location</title>
<path fill="none" stroke="black" stroke-dasharray="5,2" d="M318.5,-447.7C318.5,-436.85 318.5,-422.92 318.5,-412.1"/>
</g>
<!-- [root] var.prefix -->
<g id="node_8" class="node">
<title>[root] var.prefix</title>
<polygon fill="none" stroke="black" points="301.5,-322 301.5,-337 335.5,-337 335.5,-322 301.5,-322"/>
<text text-anchor="start" x="311.5" y="-327.6" font-family="courier new" font-size="8.00">var</text>
<polygon fill="none" stroke="black" points="301.5,-307 301.5,-322 335.5,-322 335.5,-307 301.5,-307"/>
<text text-anchor="start" x="304.5" y="-312.6" font-family="courier new" font-size="8.00">prefix</text>
</g>
<!-- [root] var.location&#45;&gt;[root] var.prefix -->
<g id="edge_21" class="edge">
<title>[root] var.location&#45;&gt;[root] var.prefix</title>
<path fill="none" stroke="black" stroke-dasharray="5,2" d="M318.5,-375.7C318.5,-364.85 318.5,-350.92 318.5,-340.1"/>
</g>
<!-- [root] var.resourcegroupname -->
<g id="node_9" class="node">
<title>[root] var.resourcegroupname</title>
<polygon fill="none" stroke="black" points="277.5,-250 277.5,-265 360.5,-265 360.5,-250 277.5,-250"/>
<text text-anchor="start" x="312" y="-255.6" font-family="courier new" font-size="8.00">var</text>
<polygon fill="none" stroke="black" points="277.5,-235 277.5,-250 360.5,-250 360.5,-235 277.5,-235"/>
<text text-anchor="start" x="280.5" y="-240.6" font-family="courier new" font-size="8.00">resourcegroupname</text>
</g>
<!-- [root] var.prefix&#45;&gt;[root] var.resourcegroupname -->
<g id="edge_22" class="edge">
<title>[root] var.prefix&#45;&gt;[root] var.resourcegroupname</title>
<path fill="none" stroke="black" stroke-dasharray="5,2" d="M318.5,-303.7C318.5,-292.85 318.5,-278.92 318.5,-268.1"/>
</g>
<!-- [root] var.source_ip -->
<g id="node_10" class="node">
<title>[root] var.source_ip</title>
<polygon fill="none" stroke="black" points="295.5,-178 295.5,-193 342.5,-193 342.5,-178 295.5,-178"/>
<text text-anchor="start" x="312" y="-183.6" font-family="courier new" font-size="8.00">var</text>
<polygon fill="none" stroke="black" points="295.5,-163 295.5,-178 342.5,-178 342.5,-163 295.5,-163"/>
<text text-anchor="start" x="298.5" y="-168.6" font-family="courier new" font-size="8.00">source_ip</text>
</g>
<!-- [root] var.resourcegroupname&#45;&gt;[root] var.source_ip -->
<g id="edge_23" class="edge">
<title>[root] var.resourcegroupname&#45;&gt;[root] var.source_ip</title>
<path fill="none" stroke="black" stroke-dasharray="5,2" d="M318.5,-231.7C318.5,-220.85 318.5,-206.92 318.5,-196.1"/>
</g>
<!-- [root] var.subnet_id -->
<g id="node_14" class="node">
<title>[root] var.subnet_id</title>
<polygon fill="none" stroke="black" points="295.5,-106 295.5,-121 342.5,-121 342.5,-106 295.5,-106"/>
<text text-anchor="start" x="312" y="-111.6" font-family="courier new" font-size="8.00">var</text>
<polygon fill="none" stroke="black" points="295.5,-91 295.5,-106 342.5,-106 342.5,-91 295.5,-91"/>
<text text-anchor="start" x="298.5" y="-96.6" font-family="courier new" font-size="8.00">subnet_id</text>
</g>
<!-- [root] var.source_ip&#45;&gt;[root] var.subnet_id -->
<g id="edge_24" class="edge">
<title>[root] var.source_ip&#45;&gt;[root] var.subnet_id</title>
<path fill="none" stroke="black" stroke-dasharray="5,2" d="M318.5,-159.7C318.5,-148.85 318.5,-134.92 318.5,-124.1"/>
</g>
<!-- [root] var.tags -->
<g id="node_15" class="node">
<title>[root] var.tags</title>
<polygon fill="none" stroke="black" points="306.5,-34 306.5,-49 331.5,-49 331.5,-34 306.5,-34"/>
<text text-anchor="start" x="312" y="-39.6" font-family="courier new" font-size="8.00">var</text>
<polygon fill="none" stroke="black" points="306.5,-19 306.5,-34 331.5,-34 331.5,-19 306.5,-19"/>
<text text-anchor="start" x="309.5" y="-24.6" font-family="courier new" font-size="8.00">tags</text>
</g>
<!-- [root] var.subnet_id&#45;&gt;[root] var.tags -->
<g id="edge_25" class="edge">
<title>[root] var.subnet_id&#45;&gt;[root] var.tags</title>
<path fill="none" stroke="black" stroke-dasharray="5,2" d="M318.5,-87.7C318.5,-76.85 318.5,-62.92 318.5,-52.1"/>
</g>
<!-- [root] var.spot_min_node_count -->
<g id="node_12" class="node">
<title>[root] var.spot_min_node_count</title>
<polygon fill="none" stroke="black" points="24.5,-610 24.5,-625 116.5,-625 116.5,-610 24.5,-610"/>
<text text-anchor="start" x="63.5" y="-615.6" font-family="courier new" font-size="8.00">var</text>
<polygon fill="none" stroke="black" points="24.5,-595 24.5,-610 116.5,-610 116.5,-595 24.5,-595"/>
<text text-anchor="start" x="27.5" y="-600.6" font-family="courier new" font-size="8.00">spot_min_node_count</text>
</g>
<!-- [root] var.spot_max_node_count&#45;&gt;[root] var.spot_min_node_count -->
<g id="edge_26" class="edge">
<title>[root] var.spot_max_node_count&#45;&gt;[root] var.spot_min_node_count</title>
<path fill="none" stroke="black" stroke-dasharray="5,2" d="M70.5,-663.7C70.5,-652.85 70.5,-638.92 70.5,-628.1"/>
</g>
<!-- [root] var.spot_vm_size -->
<g id="node_13" class="node">
<title>[root] var.spot_vm_size</title>
<polygon fill="none" stroke="black" points="40.5,-538 40.5,-553 101.5,-553 101.5,-538 40.5,-538"/>
<text text-anchor="start" x="64" y="-543.6" font-family="courier new" font-size="8.00">var</text>
<polygon fill="none" stroke="black" points="40.5,-523 40.5,-538 101.5,-538 101.5,-523 40.5,-523"/>
<text text-anchor="start" x="43.5" y="-528.6" font-family="courier new" font-size="8.00">spot_vm_size</text>
</g>
<!-- [root] var.spot_min_node_count&#45;&gt;[root] var.spot_vm_size -->
<g id="edge_27" class="edge">
<title>[root] var.spot_min_node_count&#45;&gt;[root] var.spot_vm_size</title>
<path fill="none" stroke="black" stroke-dasharray="5,2" d="M70.5,-591.7C70.5,-580.85 70.5,-566.92 70.5,-556.1"/>
</g>
<!-- [root] output.kube_config&#45;&gt;[root] azurerm_kubernetes_cluster.aks (expand) -->
<g id="edge_14" class="edge">
<title>[root] output.kube_config&#45;&gt;[root] azurerm_kubernetes_cluster.aks (expand)</title>
<path fill="none" stroke="black" d="M193.86,-807.87C194.37,-783.67 195.31,-739.21 195.92,-710.39"/>
<polygon fill="black" stroke="black" points="199.42,-710.26 196.14,-700.19 192.43,-710.11 199.42,-710.26"/>
</g>
</g>
</svg>

