<?xml version="1.0" encoding="UTF-8" standalone="no"?>
<!DOCTYPE svg PUBLIC "-//W3C//DTD SVG 1.1//EN"
 "http://www.w3.org/Graphics/SVG/1.1/DTD/svg11.dtd">
<!-- Generated by graphviz version 2.43.0 (0)
 -->
<!-- Title: %3 Pages: 1 -->
<svg width="422pt" height="1068pt"
 viewBox="0.00 0.00 421.50 1068.00" xmlns="http://www.w3.org/2000/svg" xmlns:xlink="http://www.w3.org/1999/xlink">
<g id="graph0" class="graph" transform="scale(1 1) rotate(0) translate(4 1064)">
<title>%3</title>
<polygon fill="white" stroke="transparent" points="-4,4 -4,-1064 417.5,-1064 417.5,4 -4,4"/>
<g id="clust2" class="cluster">
<title>cluster[root] azurerm_kubernetes_cluster.aks (expand)_var_</title>
</g>
<g id="clust3" class="cluster">
<title>cluster[root] azurerm_role_assignment.attach_dns (expand)_var_</title>
</g>
<g id="clust4" class="cluster">
<title>cluster[root] azurerm_kubernetes_cluster_node_pool.akspool (expand)_var_</title>
</g>
<g id="clust5" class="cluster">
<title>cluster[root] root_output_[root] azurerm_kubernetes_cluster.aks (expand)</title>
</g>
<!-- [root] azurerm_kubernetes_cluster.aks (expand) -->
<g id="node_0" class="node">
<title>[root] azurerm_kubernetes_cluster.aks (expand)</title>
<polygon fill="none" stroke="black" points="119,-826 119,-841 243,-841 243,-826 119,-826"/>
<text text-anchor="start" x="122" y="-831.6" font-family="courier new" font-size="8.00">azurerm_kubernetes_cluster</text>
<polygon fill="none" stroke="black" points="119,-811 119,-826 243,-826 243,-811 119,-811"/>
<text text-anchor="start" x="174" y="-816.6" font-family="courier new" font-size="8.00">aks</text>
</g>
<!-- [root] provider[&quot;registry.terraform.io/hashicorp/azurerm&quot;] -->
<g id="node_5" class="node">
<title>[root] provider[&quot;registry.terraform.io/hashicorp/azurerm&quot;]</title>
<polygon fill="none" stroke="black" points="15,-754 15,-769 125,-769 125,-754 15,-754"/>
<text text-anchor="start" x="49.5" y="-759.6" font-family="courier new" font-size="8.00">terraform</text>
<polygon fill="none" stroke="black" points="15,-739 15,-754 125,-754 125,-739 15,-739"/>
<text text-anchor="start" x="18" y="-744.6" font-family="courier new" font-size="8.00">io/hashicorp/azurerm\&quot;]</text>
</g>
<!-- [root] azurerm_kubernetes_cluster.aks (expand)&#45;&gt;[root] provider[&quot;registry.terraform.io/hashicorp/azurerm&quot;] -->
<g id="edge_0" class="edge">
<title>[root] azurerm_kubernetes_cluster.aks (expand)&#45;&gt;[root] provider[&quot;registry.terraform.io/hashicorp/azurerm&quot;]</title>
<path fill="none" stroke="black" d="M153.85,-807.88C139.47,-798.81 121.62,-787.55 106.09,-777.76"/>
<polygon fill="black" stroke="black" points="107.58,-774.56 97.26,-772.19 103.85,-780.48 107.58,-774.56"/>
</g>
<!-- [root] var.appgw_subnet_id -->
<g id="node_6" class="node">
<title>[root] var.appgw_subnet_id</title>
<polygon fill="none" stroke="black" points="150,-754 150,-769 224,-769 224,-754 150,-754"/>
<text text-anchor="start" x="180" y="-759.6" font-family="courier new" font-size="8.00">var</text>
<polygon fill="none" stroke="black" points="150,-739 150,-754 224,-754 224,-739 150,-739"/>
<text text-anchor="start" x="153" y="-744.6" font-family="courier new" font-size="8.00">appgw_subnet_id</text>
</g>
<!-- [root] azurerm_kubernetes_cluster.aks (expand)&#45;&gt;[root] var.appgw_subnet_id -->
<g id="edge_1" class="edge">
<title>[root] azurerm_kubernetes_cluster.aks (expand)&#45;&gt;[root] var.appgw_subnet_id</title>
<path fill="none" stroke="black" d="M182.48,-807.7C183.14,-799.98 183.94,-790.71 184.68,-782.11"/>
<polygon fill="black" stroke="black" points="188.17,-782.37 185.53,-772.1 181.19,-781.77 188.17,-782.37"/>
</g>
<!-- [root] azurerm_kubernetes_cluster_node_pool.akspool (expand) -->
<g id="node_1" class="node">
<title>[root] azurerm_kubernetes_cluster_node_pool.akspool (expand)</title>
<polygon fill="none" stroke="black" points="245,-898 245,-913 414,-913 414,-898 245,-898"/>
<text text-anchor="start" x="248" y="-903.6" font-family="courier new" font-size="8.00">azurerm_kubernetes_cluster_node_pool</text>
<polygon fill="none" stroke="black" points="245,-883 245,-898 414,-898 414,-883 245,-883"/>
<text text-anchor="start" x="313.5" y="-888.6" font-family="courier new" font-size="8.00">akspool</text>
</g>
<!-- [root] azurerm_kubernetes_cluster_node_pool.akspool (expand)&#45;&gt;[root] azurerm_kubernetes_cluster.aks (expand) -->
<g id="edge_12" class="edge">
<title>[root] azurerm_kubernetes_cluster_node_pool.akspool (expand)&#45;&gt;[root] azurerm_kubernetes_cluster.aks (expand)</title>
<path fill="none" stroke="black" d="M292.8,-879.88C272.74,-870.39 247.63,-858.51 226.29,-848.42"/>
<polygon fill="black" stroke="black" points="227.62,-845.18 217.09,-844.07 224.63,-851.51 227.62,-845.18"/>
</g>
<!-- [root] var.nodepool_pod_subnet_id -->
<g id="node_14" class="node">
<title>[root] var.nodepool_pod_subnet_id</title>
<polygon fill="none" stroke="black" points="276,-826 276,-841 382,-841 382,-826 276,-826"/>
<text text-anchor="start" x="322" y="-831.6" font-family="courier new" font-size="8.00">var</text>
<polygon fill="none" stroke="black" points="276,-811 276,-826 382,-826 382,-811 276,-811"/>
<text text-anchor="start" x="279" y="-816.6" font-family="courier new" font-size="8.00">nodepool_pod_subnet_id</text>
</g>
<!-- [root] azurerm_kubernetes_cluster_node_pool.akspool (expand)&#45;&gt;[root] var.nodepool_pod_subnet_id -->
<g id="edge_13" class="edge">
<title>[root] azurerm_kubernetes_cluster_node_pool.akspool (expand)&#45;&gt;[root] var.nodepool_pod_subnet_id</title>
<path fill="none" stroke="black" d="M329,-879.7C329,-871.98 329,-862.71 329,-854.11"/>
<polygon fill="black" stroke="black" points="332.5,-854.1 329,-844.1 325.5,-854.1 332.5,-854.1"/>
</g>
<!-- [root] azurerm_role_assignment.attach_dns (expand) -->
<g id="node_2" class="node">
<title>[root] azurerm_role_assignment.attach_dns (expand)</title>
<polygon fill="none" stroke="black" points="116,-898 116,-913 226,-913 226,-898 116,-898"/>
<text text-anchor="start" x="119" y="-903.6" font-family="courier new" font-size="8.00">azurerm_role_assignment</text>
<polygon fill="none" stroke="black" points="116,-883 116,-898 226,-898 226,-883 116,-883"/>
<text text-anchor="start" x="148" y="-888.6" font-family="courier new" font-size="8.00">attach_dns</text>
</g>
<!-- [root] azurerm_role_assignment.attach_dns (expand)&#45;&gt;[root] azurerm_kubernetes_cluster.aks (expand) -->
<g id="edge_17" class="edge">
<title>[root] azurerm_role_assignment.attach_dns (expand)&#45;&gt;[root] azurerm_kubernetes_cluster.aks (expand)</title>
<path fill="none" stroke="black" d="M173.47,-879.7C174.57,-871.98 175.9,-862.71 177.13,-854.11"/>
<polygon fill="black" stroke="black" points="180.61,-854.5 178.56,-844.1 173.68,-853.51 180.61,-854.5"/>
</g>
<!-- [root] var.dns_zone_id -->
<g id="node_11" class="node">
<title>[root] var.dns_zone_id</title>
<polygon fill="none" stroke="black" points="45,-826 45,-841 101,-841 101,-826 45,-826"/>
<text text-anchor="start" x="66" y="-831.6" font-family="courier new" font-size="8.00">var</text>
<polygon fill="none" stroke="black" points="45,-811 45,-826 101,-826 101,-811 45,-811"/>
<text text-anchor="start" x="48" y="-816.6" font-family="courier new" font-size="8.00">dns_zone_id</text>
</g>
<!-- [root] azurerm_role_assignment.attach_dns (expand)&#45;&gt;[root] var.dns_zone_id -->
<g id="edge_18" class="edge">
<title>[root] azurerm_role_assignment.attach_dns (expand)&#45;&gt;[root] var.dns_zone_id</title>
<path fill="none" stroke="black" d="M147.03,-879.88C134.45,-870.89 118.87,-859.76 105.25,-850.03"/>
<polygon fill="black" stroke="black" points="107.24,-847.15 97.07,-844.19 103.17,-852.85 107.24,-847.15"/>
</g>
<!-- [root] provider[&quot;registry.terraform.io/hashicorp/azurerm&quot;] (close) -->
<g id="node_22" class="node">
<title>[root] provider[&quot;registry.terraform.io/hashicorp/azurerm&quot;] (close)</title>
<polygon fill="none" stroke="black" points="118,-970 118,-985 228,-985 228,-970 118,-970"/>
<text text-anchor="start" x="152.5" y="-975.6" font-family="courier new" font-size="8.00">terraform</text>
<polygon fill="none" stroke="black" points="118,-955 118,-970 228,-970 228,-955 118,-955"/>
<text text-anchor="start" x="121" y="-960.6" font-family="courier new" font-size="8.00">io/hashicorp/azurerm\&quot;]</text>
</g>
<!-- [root] provider[&quot;registry.terraform.io/hashicorp/azurerm&quot;] (close)&#45;&gt;[root] azurerm_kubernetes_cluster_node_pool.akspool (expand) -->
<g id="edge_21" class="edge">
<title>[root] provider[&quot;registry.terraform.io/hashicorp/azurerm&quot;] (close)&#45;&gt;[root] azurerm_kubernetes_cluster_node_pool.akspool (expand)</title>
<path fill="none" stroke="black" d="M211.16,-951.88C232.39,-942.35 259.01,-930.41 281.57,-920.28"/>
<polygon fill="black" stroke="black" points="283.27,-923.36 290.96,-916.07 280.41,-916.97 283.27,-923.36"/>
</g>
<!-- [root] provider[&quot;registry.terraform.io/hashicorp/azurerm&quot;] (close)&#45;&gt;[root] azurerm_role_assignment.attach_dns (expand) -->
<g id="edge_22" class="edge">
<title>[root] provider[&quot;registry.terraform.io/hashicorp/azurerm&quot;] (close)&#45;&gt;[root] azurerm_role_assignment.attach_dns (expand)</title>
<path fill="none" stroke="black" d="M172.51,-951.7C172.29,-943.98 172.02,-934.71 171.77,-926.11"/>
<polygon fill="black" stroke="black" points="175.27,-926 171.49,-916.1 168.28,-926.2 175.27,-926"/>
</g>
<!-- [root] root -->
<g id="node_23" class="node">
<title>[root] root</title>
<polygon fill="none" stroke="black" points="148,-1060 82,-1060 82,-1024 148,-1024 148,-1060"/>
<text text-anchor="middle" x="115" y="-1040.1" font-family="courier new" font-size="8.00">[root] root</text>
</g>
<!-- [root] root&#45;&gt;[root] provider[&quot;registry.terraform.io/hashicorp/azurerm&quot;] (close) -->
<g id="edge_25" class="edge">
<title>[root] root&#45;&gt;[root] provider[&quot;registry.terraform.io/hashicorp/azurerm&quot;] (close)</title>
<path fill="none" stroke="black" d="M129.34,-1023.7C136.29,-1015.3 144.77,-1005.07 152.4,-995.86"/>
<polygon fill="black" stroke="black" points="155.14,-998.04 158.83,-988.1 149.75,-993.57 155.14,-998.04"/>
</g>
<!-- [root] output.gateway_client_id -->
<g id="node_3" class="node">
<title>[root] output.gateway_client_id</title>
<polygon fill="none" stroke="black" points="17,-970 17,-985 100,-985 100,-970 17,-970"/>
<text text-anchor="start" x="44.5" y="-975.6" font-family="courier new" font-size="8.00">output</text>
<polygon fill="none" stroke="black" points="17,-955 17,-970 100,-970 100,-955 17,-955"/>
<text text-anchor="start" x="20" y="-960.6" font-family="courier new" font-size="8.00">gateway_client_id</text>
</g>
<!-- [root] root&#45;&gt;[root] output.gateway_client_id -->
<g id="edge_23" class="edge">
<title>[root] root&#45;&gt;[root] output.gateway_client_id</title>
<path fill="none" stroke="black" d="M100.91,-1023.7C94.08,-1015.3 85.74,-1005.07 78.24,-995.86"/>
<polygon fill="black" stroke="black" points="80.96,-993.65 71.93,-988.1 75.53,-998.07 80.96,-993.65"/>
</g>
<!-- [root] var.default_max_node_count -->
<g id="node_7" class="node">
<title>[root] var.default_max_node_count</title>
<polygon fill="none" stroke="black" points="141,-682 141,-697 247,-697 247,-682 141,-682"/>
<text text-anchor="start" x="187" y="-687.6" font-family="courier new" font-size="8.00">var</text>
<polygon fill="none" stroke="black" points="141,-667 141,-682 247,-682 247,-667 141,-667"/>
<text text-anchor="start" x="144" y="-672.6" font-family="courier new" font-size="8.00">default_max_node_count</text>
</g>
<!-- [root] var.appgw_subnet_id&#45;&gt;[root] var.default_max_node_count -->
<g id="edge_26" class="edge">
<title>[root] var.appgw_subnet_id&#45;&gt;[root] var.default_max_node_count</title>
<path fill="none" stroke="black" stroke-dasharray="5,2" d="M188.73,-735.7C189.82,-724.85 191.21,-710.92 192.29,-700.1"/>
</g>
<!-- [root] var.default_min_node_count -->
<g id="node_8" class="node">
<title>[root] var.default_min_node_count</title>
<polygon fill="none" stroke="black" points="141,-610 141,-625 247,-625 247,-610 141,-610"/>
<text text-anchor="start" x="187" y="-615.6" font-family="courier new" font-size="8.00">var</text>
<polygon fill="none" stroke="black" points="141,-595 141,-610 247,-610 247,-595 141,-595"/>
<text text-anchor="start" x="144" y="-600.6" font-family="courier new" font-size="8.00">default_min_node_count</text>
</g>
<!-- [root] var.default_max_node_count&#45;&gt;[root] var.default_min_node_count -->
<g id="edge_27" class="edge">
<title>[root] var.default_max_node_count&#45;&gt;[root] var.default_min_node_count</title>
<path fill="none" stroke="black" stroke-dasharray="5,2" d="M194,-663.7C194,-652.85 194,-638.92 194,-628.1"/>
</g>
<!-- [root] var.default_pod_subnet_id -->
<g id="node_9" class="node">
<title>[root] var.default_pod_subnet_id</title>
<polygon fill="none" stroke="black" points="144,-538 144,-553 245,-553 245,-538 144,-538"/>
<text text-anchor="start" x="187.5" y="-543.6" font-family="courier new" font-size="8.00">var</text>
<polygon fill="none" stroke="black" points="144,-523 144,-538 245,-538 245,-523 144,-523"/>
<text text-anchor="start" x="147" y="-528.6" font-family="courier new" font-size="8.00">default_pod_subnet_id</text>
</g>
<!-- [root] var.default_min_node_count&#45;&gt;[root] var.default_pod_subnet_id -->
<g id="edge_28" class="edge">
<title>[root] var.default_min_node_count&#45;&gt;[root] var.default_pod_subnet_id</title>
<path fill="none" stroke="black" stroke-dasharray="5,2" d="M194,-591.7C194,-580.85 194,-566.92 194,-556.1"/>
</g>
<!-- [root] var.default_vm_size -->
<g id="node_10" class="node">
<title>[root] var.default_vm_size</title>
<polygon fill="none" stroke="black" points="157,-466 157,-481 231,-481 231,-466 157,-466"/>
<text text-anchor="start" x="187" y="-471.6" font-family="courier new" font-size="8.00">var</text>
<polygon fill="none" stroke="black" points="157,-451 157,-466 231,-466 231,-451 157,-451"/>
<text text-anchor="start" x="160" y="-456.6" font-family="courier new" font-size="8.00">default_vm_size</text>
</g>
<!-- [root] var.default_pod_subnet_id&#45;&gt;[root] var.default_vm_size -->
<g id="edge_29" class="edge">
<title>[root] var.default_pod_subnet_id&#45;&gt;[root] var.default_vm_size</title>
<path fill="none" stroke="black" stroke-dasharray="5,2" d="M194,-519.7C194,-508.85 194,-494.92 194,-484.1"/>
</g>
<!-- [root] var.internal_subnet_id -->
<g id="node_12" class="node">
<title>[root] var.internal_subnet_id</title>
<polygon fill="none" stroke="black" points="150,-394 150,-409 238,-409 238,-394 150,-394"/>
<text text-anchor="start" x="187" y="-399.6" font-family="courier new" font-size="8.00">var</text>
<polygon fill="none" stroke="black" points="150,-379 150,-394 238,-394 238,-379 150,-379"/>
<text text-anchor="start" x="153" y="-384.6" font-family="courier new" font-size="8.00">internal_subnet_id</text>
</g>
<!-- [root] var.default_vm_size&#45;&gt;[root] var.internal_subnet_id -->
<g id="edge_30" class="edge">
<title>[root] var.default_vm_size&#45;&gt;[root] var.internal_subnet_id</title>
<path fill="none" stroke="black" stroke-dasharray="5,2" d="M194,-447.7C194,-436.85 194,-422.92 194,-412.1"/>
</g>
<!-- [root] var.location -->
<g id="node_13" class="node">
<title>[root] var.location</title>
<polygon fill="none" stroke="black" points="173,-322 173,-337 216,-337 216,-322 173,-322"/>
<text text-anchor="start" x="187.5" y="-327.6" font-family="courier new" font-size="8.00">var</text>
<polygon fill="none" stroke="black" points="173,-307 173,-322 216,-322 216,-307 173,-307"/>
<text text-anchor="start" x="176" y="-312.6" font-family="courier new" font-size="8.00">location</text>
</g>
<!-- [root] var.internal_subnet_id&#45;&gt;[root] var.location -->
<g id="edge_31" class="edge">
<title>[root] var.internal_subnet_id&#45;&gt;[root] var.location</title>
<path fill="none" stroke="black" stroke-dasharray="5,2" d="M194,-375.7C194,-364.85 194,-350.92 194,-340.1"/>
</g>
<!-- [root] var.prefix -->
<g id="node_15" class="node">
<title>[root] var.prefix</title>
<polygon fill="none" stroke="black" points="177,-250 177,-265 211,-265 211,-250 177,-250"/>
<text text-anchor="start" x="187" y="-255.6" font-family="courier new" font-size="8.00">var</text>
<polygon fill="none" stroke="black" points="177,-235 177,-250 211,-250 211,-235 177,-235"/>
<text text-anchor="start" x="180" y="-240.6" font-family="courier new" font-size="8.00">prefix</text>
</g>
<!-- [root] var.location&#45;&gt;[root] var.prefix -->
<g id="edge_32" class="edge">
<title>[root] var.location&#45;&gt;[root] var.prefix</title>
<path fill="none" stroke="black" stroke-dasharray="5,2" d="M194,-303.7C194,-292.85 194,-278.92 194,-268.1"/>
</g>
<!-- [root] var.resourcegroupname -->
<g id="node_16" class="node">
<title>[root] var.resourcegroupname</title>
<polygon fill="none" stroke="black" points="153,-178 153,-193 236,-193 236,-178 153,-178"/>
<text text-anchor="start" x="187.5" y="-183.6" font-family="courier new" font-size="8.00">var</text>
<polygon fill="none" stroke="black" points="153,-163 153,-178 236,-178 236,-163 153,-163"/>
<text text-anchor="start" x="156" y="-168.6" font-family="courier new" font-size="8.00">resourcegroupname</text>
</g>
<!-- [root] var.prefix&#45;&gt;[root] var.resourcegroupname -->
<g id="edge_33" class="edge">
<title>[root] var.prefix&#45;&gt;[root] var.resourcegroupname</title>
<path fill="none" stroke="black" stroke-dasharray="5,2" d="M194,-231.7C194,-220.85 194,-206.92 194,-196.1"/>
</g>
<!-- [root] var.source_ip -->
<g id="node_17" class="node">
<title>[root] var.source_ip</title>
<polygon fill="none" stroke="black" points="171,-106 171,-121 218,-121 218,-106 171,-106"/>
<text text-anchor="start" x="187.5" y="-111.6" font-family="courier new" font-size="8.00">var</text>
<polygon fill="none" stroke="black" points="171,-91 171,-106 218,-106 218,-91 171,-91"/>
<text text-anchor="start" x="174" y="-96.6" font-family="courier new" font-size="8.00">source_ip</text>
</g>
<!-- [root] var.resourcegroupname&#45;&gt;[root] var.source_ip -->
<g id="edge_34" class="edge">
<title>[root] var.resourcegroupname&#45;&gt;[root] var.source_ip</title>
<path fill="none" stroke="black" stroke-dasharray="5,2" d="M194,-159.7C194,-148.85 194,-134.92 194,-124.1"/>
</g>
<!-- [root] var.tags -->
<g id="node_21" class="node">
<title>[root] var.tags</title>
<polygon fill="none" stroke="black" points="182,-34 182,-49 207,-49 207,-34 182,-34"/>
<text text-anchor="start" x="187.5" y="-39.6" font-family="courier new" font-size="8.00">var</text>
<polygon fill="none" stroke="black" points="182,-19 182,-34 207,-34 207,-19 182,-19"/>
<text text-anchor="start" x="185" y="-24.6" font-family="courier new" font-size="8.00">tags</text>
</g>
<!-- [root] var.source_ip&#45;&gt;[root] var.tags -->
<g id="edge_35" class="edge">
<title>[root] var.source_ip&#45;&gt;[root] var.tags</title>
<path fill="none" stroke="black" stroke-dasharray="5,2" d="M194,-87.7C194,-76.85 194,-62.92 194,-52.1"/>
</g>
<!-- [root] var.spot_max_node_count -->
<g id="node_18" class="node">
<title>[root] var.spot_max_node_count</title>
<polygon fill="none" stroke="black" points="283,-754 283,-769 375,-769 375,-754 283,-754"/>
<text text-anchor="start" x="322" y="-759.6" font-family="courier new" font-size="8.00">var</text>
<polygon fill="none" stroke="black" points="283,-739 283,-754 375,-754 375,-739 283,-739"/>
<text text-anchor="start" x="286" y="-744.6" font-family="courier new" font-size="8.00">spot_max_node_count</text>
</g>
<!-- [root] var.nodepool_pod_subnet_id&#45;&gt;[root] var.spot_max_node_count -->
<g id="edge_36" class="edge">
<title>[root] var.nodepool_pod_subnet_id&#45;&gt;[root] var.spot_max_node_count</title>
<path fill="none" stroke="black" stroke-dasharray="5,2" d="M329,-807.7C329,-796.85 329,-782.92 329,-772.1"/>
</g>
<!-- [root] var.spot_min_node_count -->
<g id="node_19" class="node">
<title>[root] var.spot_min_node_count</title>
<polygon fill="none" stroke="black" points="283,-682 283,-697 375,-697 375,-682 283,-682"/>
<text text-anchor="start" x="322" y="-687.6" font-family="courier new" font-size="8.00">var</text>
<polygon fill="none" stroke="black" points="283,-667 283,-682 375,-682 375,-667 283,-667"/>
<text text-anchor="start" x="286" y="-672.6" font-family="courier new" font-size="8.00">spot_min_node_count</text>
</g>
<!-- [root] var.spot_max_node_count&#45;&gt;[root] var.spot_min_node_count -->
<g id="edge_37" class="edge">
<title>[root] var.spot_max_node_count&#45;&gt;[root] var.spot_min_node_count</title>
<path fill="none" stroke="black" stroke-dasharray="5,2" d="M329,-735.7C329,-724.85 329,-710.92 329,-700.1"/>
</g>
<!-- [root] var.spot_vm_sizes -->
<g id="node_20" class="node">
<title>[root] var.spot_vm_sizes</title>
<polygon fill="none" stroke="black" points="297,-610 297,-625 362,-625 362,-610 297,-610"/>
<text text-anchor="start" x="322.5" y="-615.6" font-family="courier new" font-size="8.00">var</text>
<polygon fill="none" stroke="black" points="297,-595 297,-610 362,-610 362,-595 297,-595"/>
<text text-anchor="start" x="300" y="-600.6" font-family="courier new" font-size="8.00">spot_vm_sizes</text>
</g>
<!-- [root] var.spot_min_node_count&#45;&gt;[root] var.spot_vm_sizes -->
<g id="edge_38" class="edge">
<title>[root] var.spot_min_node_count&#45;&gt;[root] var.spot_vm_sizes</title>
<path fill="none" stroke="black" stroke-dasharray="5,2" d="M329,-663.7C329,-652.85 329,-638.92 329,-628.1"/>
</g>
<!-- [root] output.kube_config -->
<g id="node_4" class="node">
<title>[root] output.kube_config</title>
<polygon fill="none" stroke="black" points="36,-898 36,-913 92,-913 92,-898 36,-898"/>
<text text-anchor="start" x="50" y="-903.6" font-family="courier new" font-size="8.00">output</text>
<polygon fill="none" stroke="black" points="36,-883 36,-898 92,-898 92,-883 36,-883"/>
<text text-anchor="start" x="39" y="-888.6" font-family="courier new" font-size="8.00">kube_config</text>
</g>
<!-- [root] output.gateway_client_id&#45;&gt;[root] output.kube_config -->
<g id="edge_39" class="edge">
<title>[root] output.gateway_client_id&#45;&gt;[root] output.kube_config</title>
<path fill="none" stroke="black" stroke-dasharray="5,2" d="M59.48,-951.7C60.41,-940.85 61.61,-926.92 62.53,-916.1"/>
</g>
<!-- [root] output.kube_config&#45;&gt;[root] azurerm_kubernetes_cluster.aks (expand) -->
<g id="edge_20" class="edge">
<title>[root] output.kube_config&#45;&gt;[root] azurerm_kubernetes_cluster.aks (expand)</title>
<path fill="none" stroke="black" d="M92.02,-880.23C107.43,-871.02 126.74,-859.47 143.43,-849.48"/>
<polygon fill="black" stroke="black" points="145.61,-852.25 152.39,-844.12 142.01,-846.25 145.61,-852.25"/>
</g>
</g>
</svg>

