<?xml version="1.0" encoding="UTF-8" standalone="no"?>
<!DOCTYPE svg PUBLIC "-//W3C//DTD SVG 1.1//EN"
 "http://www.w3.org/Graphics/SVG/1.1/DTD/svg11.dtd">
<!-- Generated by graphviz version 2.49.3 (20211023.0002)
 -->
<!-- Pages: 1 -->
<svg width="702pt" height="404pt"
 viewBox="0.00 0.00 701.56 404.00" xmlns="http://www.w3.org/2000/svg" xmlns:xlink="http://www.w3.org/1999/xlink">
<g id="graph0" class="graph" transform="scale(1 1) rotate(0) translate(4 400)">
<polygon fill="white" stroke="transparent" points="-4,4 -4,-400 697.56,-400 697.56,4 -4,4"/>
<!-- [root] azurerm_resource_group.rg (expand) -->
<g id="node1" class="node">
<title>[root] azurerm_resource_group.rg (expand)</title>
<polygon fill="none" stroke="black" points="532.59,-108 360.59,-108 360.59,-72 532.59,-72 532.59,-108"/>
<text text-anchor="middle" x="446.59" y="-86.3" font-family="Times New Roman,serif" font-size="14.00">azurerm_resource_group.rg</text>
</g>
<!-- [root] provider[&quot;registry.terraform.io/hashicorp/azurerm&quot;] -->
<g id="node4" class="node">
<title>[root] provider[&quot;registry.terraform.io/hashicorp/azurerm&quot;]</title>
<polygon fill="none" stroke="black" points="277.59,-36 -0.09,-18 277.59,0 555.26,-18 277.59,-36"/>
<text text-anchor="middle" x="277.59" y="-14.3" font-family="Times New Roman,serif" font-size="14.00">provider[&quot;registry.terraform.io/hashicorp/azurerm&quot;]</text>
</g>
<!-- [root] azurerm_resource_group.rg (expand)&#45;&gt;[root] provider[&quot;registry.terraform.io/hashicorp/azurerm&quot;] -->
<g id="edge1" class="edge">
<title>[root] azurerm_resource_group.rg (expand)&#45;&gt;[root] provider[&quot;registry.terraform.io/hashicorp/azurerm&quot;]</title>
<path fill="none" stroke="black" d="M405.24,-71.88C380.29,-61.54 348.47,-48.36 322.84,-37.74"/>
<polygon fill="black" stroke="black" points="323.93,-34.41 313.35,-33.81 321.25,-40.87 323.93,-34.41"/>
</g>
<!-- [root] var.resource -->
<g id="node5" class="node">
<title>[root] var.resource</title>
<polygon fill="none" stroke="black" points="653.59,-36 573.59,-36 573.59,0 659.59,0 659.59,-30 653.59,-36"/>
<polyline fill="none" stroke="black" points="653.59,-36 653.59,-30 "/>
<polyline fill="none" stroke="black" points="659.59,-30 653.59,-30 "/>
<text text-anchor="middle" x="616.59" y="-14.3" font-family="Times New Roman,serif" font-size="14.00">var.resource</text>
</g>
<!-- [root] azurerm_resource_group.rg (expand)&#45;&gt;[root] var.resource -->
<g id="edge2" class="edge">
<title>[root] azurerm_resource_group.rg (expand)&#45;&gt;[root] var.resource</title>
<path fill="none" stroke="black" d="M488.17,-71.88C511.62,-62.22 541.09,-50.09 565.88,-39.88"/>
<polygon fill="black" stroke="black" points="567.22,-43.11 575.13,-36.07 564.55,-36.64 567.22,-43.11"/>
</g>
<!-- [root] azurerm_storage_account.storageaccount (expand) -->
<g id="node2" class="node">
<title>[root] azurerm_storage_account.storageaccount (expand)</title>
<polygon fill="none" stroke="black" points="571.09,-180 322.09,-180 322.09,-144 571.09,-144 571.09,-180"/>
<text text-anchor="middle" x="446.59" y="-158.3" font-family="Times New Roman,serif" font-size="14.00">azurerm_storage_account.storageaccount</text>
</g>
<!-- [root] azurerm_storage_account.storageaccount (expand)&#45;&gt;[root] azurerm_resource_group.rg (expand) -->
<g id="edge3" class="edge">
<title>[root] azurerm_storage_account.storageaccount (expand)&#45;&gt;[root] azurerm_resource_group.rg (expand)</title>
<path fill="none" stroke="black" d="M446.59,-143.7C446.59,-135.98 446.59,-126.71 446.59,-118.11"/>
<polygon fill="black" stroke="black" points="450.09,-118.1 446.59,-108.1 443.09,-118.1 450.09,-118.1"/>
</g>
<!-- [root] azurerm_storage_container.example (expand) -->
<g id="node3" class="node">
<title>[root] azurerm_storage_container.example (expand)</title>
<polygon fill="none" stroke="black" points="555.09,-252 338.09,-252 338.09,-216 555.09,-216 555.09,-252"/>
<text text-anchor="middle" x="446.59" y="-230.3" font-family="Times New Roman,serif" font-size="14.00">azurerm_storage_container.example</text>
</g>
<!-- [root] azurerm_storage_container.example (expand)&#45;&gt;[root] azurerm_storage_account.storageaccount (expand) -->
<g id="edge4" class="edge">
<title>[root] azurerm_storage_container.example (expand)&#45;&gt;[root] azurerm_storage_account.storageaccount (expand)</title>
<path fill="none" stroke="black" d="M446.59,-215.7C446.59,-207.98 446.59,-198.71 446.59,-190.11"/>
<polygon fill="black" stroke="black" points="450.09,-190.1 446.59,-180.1 443.09,-190.1 450.09,-190.1"/>
</g>
<!-- [root] var.source_ip -->
<g id="node6" class="node">
<title>[root] var.source_ip</title>
<polygon fill="none" stroke="black" points="176.09,-324 89.09,-324 89.09,-288 182.09,-288 182.09,-318 176.09,-324"/>
<polyline fill="none" stroke="black" points="176.09,-324 176.09,-318 "/>
<polyline fill="none" stroke="black" points="182.09,-318 176.09,-318 "/>
<text text-anchor="middle" x="135.59" y="-302.3" font-family="Times New Roman,serif" font-size="14.00">var.source_ip</text>
</g>
<!-- [root] provider[&quot;registry.terraform.io/hashicorp/azurerm&quot;] (close) -->
<g id="node7" class="node">
<title>[root] provider[&quot;registry.terraform.io/hashicorp/azurerm&quot;] (close)</title>
<ellipse fill="none" stroke="black" cx="446.59" cy="-306" rx="246.96" ry="18"/>
<text text-anchor="middle" x="446.59" y="-302.3" font-family="Times New Roman,serif" font-size="14.00">[root] provider[&quot;registry.terraform.io/hashicorp/azurerm&quot;] (close)</text>
</g>
<!-- [root] provider[&quot;registry.terraform.io/hashicorp/azurerm&quot;] (close)&#45;&gt;[root] azurerm_storage_container.example (expand) -->
<g id="edge5" class="edge">
<title>[root] provider[&quot;registry.terraform.io/hashicorp/azurerm&quot;] (close)&#45;&gt;[root] azurerm_storage_container.example (expand)</title>
<path fill="none" stroke="black" d="M446.59,-287.7C446.59,-279.98 446.59,-270.71 446.59,-262.11"/>
<polygon fill="black" stroke="black" points="450.09,-262.1 446.59,-252.1 443.09,-262.1 450.09,-262.1"/>
</g>
<!-- [root] root -->
<g id="node8" class="node">
<title>[root] root</title>
<ellipse fill="none" stroke="black" cx="290.59" cy="-378" rx="49.29" ry="18"/>
<text text-anchor="middle" x="290.59" y="-374.3" font-family="Times New Roman,serif" font-size="14.00">[root] root</text>
</g>
<!-- [root] root&#45;&gt;[root] var.source_ip -->
<g id="edge7" class="edge">
<title>[root] root&#45;&gt;[root] var.source_ip</title>
<path fill="none" stroke="black" d="M260.7,-363.5C238.62,-353.53 208.13,-339.76 182.78,-328.31"/>
<polygon fill="black" stroke="black" points="183.9,-324.98 173.34,-324.05 181.01,-331.36 183.9,-324.98"/>
</g>
<!-- [root] root&#45;&gt;[root] provider[&quot;registry.terraform.io/hashicorp/azurerm&quot;] (close) -->
<g id="edge6" class="edge">
<title>[root] root&#45;&gt;[root] provider[&quot;registry.terraform.io/hashicorp/azurerm&quot;] (close)</title>
<path fill="none" stroke="black" d="M320.66,-363.5C343.14,-353.42 374.28,-339.45 399.97,-327.92"/>
<polygon fill="black" stroke="black" points="401.47,-331.08 409.16,-323.79 398.6,-324.7 401.47,-331.08"/>
</g>
</g>
</svg>
