<?xml version="1.0" encoding="UTF-8" standalone="no"?>
<!DOCTYPE svg PUBLIC "-//W3C//DTD SVG 1.1//EN"
 "http://www.w3.org/Graphics/SVG/1.1/DTD/svg11.dtd">
<!-- Generated by graphviz version 2.43.0 (0)
 -->
<!-- Title: %3 Pages: 1 -->
<svg width="234pt" height="420pt"
 viewBox="0.00 0.00 234.00 420.00" xmlns="http://www.w3.org/2000/svg" xmlns:xlink="http://www.w3.org/1999/xlink">
<g id="graph0" class="graph" transform="scale(1 1) rotate(0) translate(4 416)">
<title>%3</title>
<polygon fill="white" stroke="transparent" points="-4,4 -4,-416 230,-416 230,4 -4,4"/>
<g id="clust2" class="cluster">
<title>cluster[root] azurerm_dns_zone.akszone (expand)_var_</title>
</g>
<g id="clust3" class="cluster">
<title>cluster[root] root_output_[root] azurerm_dns_zone.akszone (expand)</title>
</g>
<!-- [root] azurerm_dns_zone.akszone (expand) -->
<g id="node_0" class="node">
<title>[root] azurerm_dns_zone.akszone (expand)</title>
<polygon fill="none" stroke="black" points="65,-250 65,-265 144,-265 144,-250 65,-250"/>
<text text-anchor="start" x="68" y="-255.6" font-family="courier new" font-size="8.00">azurerm_dns_zone</text>
<polygon fill="none" stroke="black" points="65,-235 65,-250 144,-250 144,-235 65,-235"/>
<text text-anchor="start" x="88.5" y="-240.6" font-family="courier new" font-size="8.00">akszone</text>
</g>
<!-- [root] provider[&quot;registry.terraform.io/hashicorp/azurerm&quot;] -->
<g id="node_2" class="node">
<title>[root] provider[&quot;registry.terraform.io/hashicorp/azurerm&quot;]</title>
<polygon fill="none" stroke="black" points="0,-178 0,-193 110,-193 110,-178 0,-178"/>
<text text-anchor="start" x="34.5" y="-183.6" font-family="courier new" font-size="8.00">terraform</text>
<polygon fill="none" stroke="black" points="0,-163 0,-178 110,-178 110,-163 0,-163"/>
<text text-anchor="start" x="3" y="-168.6" font-family="courier new" font-size="8.00">io/hashicorp/azurerm\&quot;]</text>
</g>
<!-- [root] azurerm_dns_zone.akszone (expand)&#45;&gt;[root] provider[&quot;registry.terraform.io/hashicorp/azurerm&quot;] -->
<g id="edge_0" class="edge">
<title>[root] azurerm_dns_zone.akszone (expand)&#45;&gt;[root] provider[&quot;registry.terraform.io/hashicorp/azurerm&quot;]</title>
<path fill="none" stroke="black" d="M91.89,-231.7C86.13,-223.47 79.14,-213.48 72.79,-204.42"/>
<polygon fill="black" stroke="black" points="75.58,-202.29 66.97,-196.1 69.84,-206.3 75.58,-202.29"/>
</g>
<!-- [root] var.domainname -->
<g id="node_3" class="node">
<title>[root] var.domainname</title>
<polygon fill="none" stroke="black" points="135,-178 135,-193 187,-193 187,-178 135,-178"/>
<text text-anchor="start" x="154" y="-183.6" font-family="courier new" font-size="8.00">var</text>
<polygon fill="none" stroke="black" points="135,-163 135,-178 187,-178 187,-163 135,-163"/>
<text text-anchor="start" x="138" y="-168.6" font-family="courier new" font-size="8.00">domainname</text>
</g>
<!-- [root] azurerm_dns_zone.akszone (expand)&#45;&gt;[root] var.domainname -->
<g id="edge_1" class="edge">
<title>[root] azurerm_dns_zone.akszone (expand)&#45;&gt;[root] var.domainname</title>
<path fill="none" stroke="black" d="M118.09,-231.7C124.92,-223.3 133.26,-213.07 140.76,-203.86"/>
<polygon fill="black" stroke="black" points="143.47,-206.07 147.07,-196.1 138.04,-201.65 143.47,-206.07"/>
</g>
<!-- [root] provider[&quot;registry.terraform.io/hashicorp/azurerm&quot;] (close) -->
<g id="node_6" class="node">
<title>[root] provider[&quot;registry.terraform.io/hashicorp/azurerm&quot;] (close)</title>
<polygon fill="none" stroke="black" points="1,-322 1,-337 111,-337 111,-322 1,-322"/>
<text text-anchor="start" x="35.5" y="-327.6" font-family="courier new" font-size="8.00">terraform</text>
<polygon fill="none" stroke="black" points="1,-307 1,-322 111,-322 111,-307 1,-307"/>
<text text-anchor="start" x="4" y="-312.6" font-family="courier new" font-size="8.00">io/hashicorp/azurerm\&quot;]</text>
</g>
<!-- [root] provider[&quot;registry.terraform.io/hashicorp/azurerm&quot;] (close)&#45;&gt;[root] azurerm_dns_zone.akszone (expand) -->
<g id="edge_5" class="edge">
<title>[root] provider[&quot;registry.terraform.io/hashicorp/azurerm&quot;] (close)&#45;&gt;[root] azurerm_dns_zone.akszone (expand)</title>
<path fill="none" stroke="black" d="M67.87,-303.7C73.5,-295.47 80.35,-285.48 86.57,-276.42"/>
<polygon fill="black" stroke="black" points="89.5,-278.33 92.27,-268.1 83.73,-274.37 89.5,-278.33"/>
</g>
<!-- [root] root -->
<g id="node_7" class="node">
<title>[root] root</title>
<polygon fill="none" stroke="black" points="139,-412 73,-412 73,-376 139,-376 139,-412"/>
<text text-anchor="middle" x="106" y="-392.1" font-family="courier new" font-size="8.00">[root] root</text>
</g>
<!-- [root] root&#45;&gt;[root] provider[&quot;registry.terraform.io/hashicorp/azurerm&quot;] (close) -->
<g id="edge_7" class="edge">
<title>[root] root&#45;&gt;[root] provider[&quot;registry.terraform.io/hashicorp/azurerm&quot;] (close)</title>
<path fill="none" stroke="black" d="M93.64,-375.7C87.77,-367.47 80.63,-357.48 74.16,-348.42"/>
<polygon fill="black" stroke="black" points="76.88,-346.21 68.22,-340.1 71.18,-350.28 76.88,-346.21"/>
</g>
<!-- [root] output.zone_id -->
<g id="node_1" class="node">
<title>[root] output.zone_id</title>
<polygon fill="none" stroke="black" points="137,-322 137,-337 175,-337 175,-322 137,-322"/>
<text text-anchor="start" x="142" y="-327.6" font-family="courier new" font-size="8.00">output</text>
<polygon fill="none" stroke="black" points="137,-307 137,-322 175,-322 175,-307 137,-307"/>
<text text-anchor="start" x="140" y="-312.6" font-family="courier new" font-size="8.00">zone_id</text>
</g>
<!-- [root] root&#45;&gt;[root] output.zone_id -->
<g id="edge_6" class="edge">
<title>[root] root&#45;&gt;[root] output.zone_id</title>
<path fill="none" stroke="black" d="M118.36,-375.7C124.23,-367.47 131.37,-357.48 137.84,-348.42"/>
<polygon fill="black" stroke="black" points="140.82,-350.28 143.78,-340.1 135.12,-346.21 140.82,-350.28"/>
</g>
<!-- [root] var.resourcegroupname -->
<g id="node_4" class="node">
<title>[root] var.resourcegroupname</title>
<polygon fill="none" stroke="black" points="127,-106 127,-121 210,-121 210,-106 127,-106"/>
<text text-anchor="start" x="161.5" y="-111.6" font-family="courier new" font-size="8.00">var</text>
<polygon fill="none" stroke="black" points="127,-91 127,-106 210,-106 210,-91 127,-91"/>
<text text-anchor="start" x="130" y="-96.6" font-family="courier new" font-size="8.00">resourcegroupname</text>
</g>
<!-- [root] var.domainname&#45;&gt;[root] var.resourcegroupname -->
<g id="edge_8" class="edge">
<title>[root] var.domainname&#45;&gt;[root] var.resourcegroupname</title>
<path fill="none" stroke="black" stroke-dasharray="5,2" d="M162.73,-159.7C163.82,-148.85 165.21,-134.92 166.29,-124.1"/>
</g>
<!-- [root] var.tags -->
<g id="node_5" class="node">
<title>[root] var.tags</title>
<polygon fill="none" stroke="black" points="156,-34 156,-49 181,-49 181,-34 156,-34"/>
<text text-anchor="start" x="161.5" y="-39.6" font-family="courier new" font-size="8.00">var</text>
<polygon fill="none" stroke="black" points="156,-19 156,-34 181,-34 181,-19 156,-19"/>
<text text-anchor="start" x="159" y="-24.6" font-family="courier new" font-size="8.00">tags</text>
</g>
<!-- [root] var.resourcegroupname&#45;&gt;[root] var.tags -->
<g id="edge_9" class="edge">
<title>[root] var.resourcegroupname&#45;&gt;[root] var.tags</title>
<path fill="none" stroke="black" stroke-dasharray="5,2" d="M168,-87.7C168,-76.85 168,-62.92 168,-52.1"/>
</g>
<!-- [root] output.zone_id&#45;&gt;[root] azurerm_dns_zone.akszone (expand) -->
<g id="edge_4" class="edge">
<title>[root] output.zone_id&#45;&gt;[root] azurerm_dns_zone.akszone (expand)</title>
<path fill="none" stroke="black" d="M143.15,-303.7C136.97,-295.39 129.46,-285.28 122.68,-276.14"/>
<polygon fill="black" stroke="black" points="125.48,-274.04 116.71,-268.1 119.86,-278.22 125.48,-274.04"/>
</g>
</g>
</svg>

