<?xml version="1.0" encoding="UTF-8" standalone="no"?>
<!DOCTYPE svg PUBLIC "-//W3C//DTD SVG 1.1//EN"
 "http://www.w3.org/Graphics/SVG/1.1/DTD/svg11.dtd">
<!-- Generated by graphviz version 2.43.0 (0)
 -->
<!-- Title: %3 Pages: 1 -->
<svg width="234pt" height="420pt"
 viewBox="0.00 0.00 234.00 420.00" xmlns="http://www.w3.org/2000/svg" xmlns:xlink="http://www.w3.org/1999/xlink">
<g id="graph0" class="graph" transform="scale(1 1) rotate(0) translate(4 416)">
<title>%3</title>
<polygon fill="white" stroke="transparent" points="-4,4 -4,-416 230,-416 230,4 -4,4"/>
<g id="clust2" class="cluster">
<title>cluster[root] azurerm_dns_zone.example&#45;public (expand)_var_</title>
</g>
<!-- [root] azurerm_dns_zone.example&#45;public (expand) -->
<g id="node_0" class="node">
<title>[root] azurerm_dns_zone.example&#45;public (expand)</title>
<polygon fill="none" stroke="black" points="66,-250 66,-265 145,-265 145,-250 66,-250"/>
<text text-anchor="start" x="69" y="-255.6" font-family="courier new" font-size="8.00">azurerm_dns_zone</text>
<polygon fill="none" stroke="black" points="66,-235 66,-250 145,-250 145,-235 66,-235"/>
<text text-anchor="start" x="73.5" y="-240.6" font-family="courier new" font-size="8.00">example&#45;public</text>
</g>
<!-- [root] provider[&quot;registry.terraform.io/hashicorp/azurerm&quot;] -->
<g id="node_1" class="node">
<title>[root] provider[&quot;registry.terraform.io/hashicorp/azurerm&quot;]</title>
<polygon fill="none" stroke="black" points="0,-178 0,-193 110,-193 110,-178 0,-178"/>
<text text-anchor="start" x="34.5" y="-183.6" font-family="courier new" font-size="8.00">terraform</text>
<polygon fill="none" stroke="black" points="0,-163 0,-178 110,-178 110,-163 0,-163"/>
<text text-anchor="start" x="3" y="-168.6" font-family="courier new" font-size="8.00">io/hashicorp/azurerm\&quot;]</text>
</g>
<!-- [root] azurerm_dns_zone.example&#45;public (expand)&#45;&gt;[root] provider[&quot;registry.terraform.io/hashicorp/azurerm&quot;] -->
<g id="edge_0" class="edge">
<title>[root] azurerm_dns_zone.example&#45;public (expand)&#45;&gt;[root] provider[&quot;registry.terraform.io/hashicorp/azurerm&quot;]</title>
<path fill="none" stroke="black" d="M92.64,-231.7C86.77,-223.47 79.63,-213.48 73.16,-204.42"/>
<polygon fill="black" stroke="black" points="75.88,-202.21 67.22,-196.1 70.18,-206.28 75.88,-202.21"/>
</g>
<!-- [root] var.domainname -->
<g id="node_2" class="node">
<title>[root] var.domainname</title>
<polygon fill="none" stroke="black" points="135,-178 135,-193 187,-193 187,-178 135,-178"/>
<text text-anchor="start" x="154" y="-183.6" font-family="courier new" font-size="8.00">var</text>
<polygon fill="none" stroke="black" points="135,-163 135,-178 187,-178 187,-163 135,-163"/>
<text text-anchor="start" x="138" y="-168.6" font-family="courier new" font-size="8.00">domainname</text>
</g>
<!-- [root] azurerm_dns_zone.example&#45;public (expand)&#45;&gt;[root] var.domainname -->
<g id="edge_1" class="edge">
<title>[root] azurerm_dns_zone.example&#45;public (expand)&#45;&gt;[root] var.domainname</title>
<path fill="none" stroke="black" d="M118.84,-231.7C125.49,-223.39 133.58,-213.28 140.89,-204.14"/>
<polygon fill="black" stroke="black" points="143.8,-206.1 147.32,-196.1 138.34,-201.73 143.8,-206.1"/>
</g>
<!-- [root] provider[&quot;registry.terraform.io/hashicorp/azurerm&quot;] (close) -->
<g id="node_5" class="node">
<title>[root] provider[&quot;registry.terraform.io/hashicorp/azurerm&quot;] (close)</title>
<polygon fill="none" stroke="black" points="50,-322 50,-337 160,-337 160,-322 50,-322"/>
<text text-anchor="start" x="84.5" y="-327.6" font-family="courier new" font-size="8.00">terraform</text>
<polygon fill="none" stroke="black" points="50,-307 50,-322 160,-322 160,-307 50,-307"/>
<text text-anchor="start" x="53" y="-312.6" font-family="courier new" font-size="8.00">io/hashicorp/azurerm\&quot;]</text>
</g>
<!-- [root] provider[&quot;registry.terraform.io/hashicorp/azurerm&quot;] (close)&#45;&gt;[root] azurerm_dns_zone.example&#45;public (expand) -->
<g id="edge_4" class="edge">
<title>[root] provider[&quot;registry.terraform.io/hashicorp/azurerm&quot;] (close)&#45;&gt;[root] azurerm_dns_zone.example&#45;public (expand)</title>
<path fill="none" stroke="black" d="M105,-303.7C105,-295.98 105,-286.71 105,-278.11"/>
<polygon fill="black" stroke="black" points="108.5,-278.1 105,-268.1 101.5,-278.1 108.5,-278.1"/>
</g>
<!-- [root] root -->
<g id="node_6" class="node">
<title>[root] root</title>
<polygon fill="none" stroke="black" points="138,-412 72,-412 72,-376 138,-376 138,-412"/>
<text text-anchor="middle" x="105" y="-392.1" font-family="courier new" font-size="8.00">[root] root</text>
</g>
<!-- [root] root&#45;&gt;[root] provider[&quot;registry.terraform.io/hashicorp/azurerm&quot;] (close) -->
<g id="edge_5" class="edge">
<title>[root] root&#45;&gt;[root] provider[&quot;registry.terraform.io/hashicorp/azurerm&quot;] (close)</title>
<path fill="none" stroke="black" d="M105,-375.7C105,-367.98 105,-358.71 105,-350.11"/>
<polygon fill="black" stroke="black" points="108.5,-350.1 105,-340.1 101.5,-350.1 108.5,-350.1"/>
</g>
<!-- [root] var.resourcegroupname -->
<g id="node_3" class="node">
<title>[root] var.resourcegroupname</title>
<polygon fill="none" stroke="black" points="127,-106 127,-121 210,-121 210,-106 127,-106"/>
<text text-anchor="start" x="161.5" y="-111.6" font-family="courier new" font-size="8.00">var</text>
<polygon fill="none" stroke="black" points="127,-91 127,-106 210,-106 210,-91 127,-91"/>
<text text-anchor="start" x="130" y="-96.6" font-family="courier new" font-size="8.00">resourcegroupname</text>
</g>
<!-- [root] var.domainname&#45;&gt;[root] var.resourcegroupname -->
<g id="edge_6" class="edge">
<title>[root] var.domainname&#45;&gt;[root] var.resourcegroupname</title>
<path fill="none" stroke="black" stroke-dasharray="5,2" d="M162.73,-159.7C163.82,-148.85 165.21,-134.92 166.29,-124.1"/>
</g>
<!-- [root] var.tags -->
<g id="node_4" class="node">
<title>[root] var.tags</title>
<polygon fill="none" stroke="black" points="156,-34 156,-49 181,-49 181,-34 156,-34"/>
<text text-anchor="start" x="161.5" y="-39.6" font-family="courier new" font-size="8.00">var</text>
<polygon fill="none" stroke="black" points="156,-19 156,-34 181,-34 181,-19 156,-19"/>
<text text-anchor="start" x="159" y="-24.6" font-family="courier new" font-size="8.00">tags</text>
</g>
<!-- [root] var.resourcegroupname&#45;&gt;[root] var.tags -->
<g id="edge_7" class="edge">
<title>[root] var.resourcegroupname&#45;&gt;[root] var.tags</title>
<path fill="none" stroke="black" stroke-dasharray="5,2" d="M168,-87.7C168,-76.85 168,-62.92 168,-52.1"/>
</g>
</g>
</svg>

