<?xml version="1.0" encoding="UTF-8" standalone="no"?>
<!DOCTYPE svg PUBLIC "-//W3C//DTD SVG 1.1//EN"
 "http://www.w3.org/Graphics/SVG/1.1/DTD/svg11.dtd">
<!-- Generated by graphviz version 2.43.0 (0)
 -->
<!-- Title: %3 Pages: 1 -->
<svg width="426pt" height="564pt"
 viewBox="0.00 0.00 426.00 564.00" xmlns="http://www.w3.org/2000/svg" xmlns:xlink="http://www.w3.org/1999/xlink">
<g id="graph0" class="graph" transform="scale(1 1) rotate(0) translate(4 560)">
<title>%3</title>
<polygon fill="white" stroke="transparent" points="-4,4 -4,-560 422,-560 422,4 -4,4"/>
<g id="clust2" class="cluster">
<title>cluster[root] azurerm_subnet.mgmtsubnet (expand)_var_</title>
</g>
<g id="clust3" class="cluster">
<title>cluster[root] azurerm_virtual_network.bastionmgmtvnet (expand)_var_</title>
</g>
<g id="clust4" class="cluster">
<title>cluster[root] root_output_[root] azurerm_subnet.azurebastionsubnet (expand)</title>
</g>
<g id="clust5" class="cluster">
<title>cluster[root] root_output_[root] azurerm_virtual_network.bastionmgmtvnet (expand)</title>
</g>
<g id="clust6" class="cluster">
<title>cluster[root] root_output_[root] azurerm_subnet.mgmtsubnet (expand)</title>
</g>
<!-- [root] azurerm_subnet.azurebastionsubnet (expand) -->
<g id="node_0" class="node">
<title>[root] azurerm_subnet.azurebastionsubnet (expand)</title>
<polygon fill="none" stroke="black" points="115,-394 115,-409 203,-409 203,-394 115,-394"/>
<text text-anchor="start" x="127" y="-399.6" font-family="courier new" font-size="8.00">azurerm_subnet</text>
<polygon fill="none" stroke="black" points="115,-379 115,-394 203,-394 203,-379 115,-379"/>
<text text-anchor="start" x="118" y="-384.6" font-family="courier new" font-size="8.00">azurebastionsubnet</text>
</g>
<!-- [root] azurerm_virtual_network.bastionmgmtvnet (expand) -->
<g id="node_2" class="node">
<title>[root] azurerm_virtual_network.bastionmgmtvnet (expand)</title>
<polygon fill="none" stroke="black" points="104,-322 104,-337 214,-337 214,-322 104,-322"/>
<text text-anchor="start" x="107" y="-327.6" font-family="courier new" font-size="8.00">azurerm_virtual_network</text>
<polygon fill="none" stroke="black" points="104,-307 104,-322 214,-322 214,-307 104,-307"/>
<text text-anchor="start" x="125" y="-312.6" font-family="courier new" font-size="8.00">bastionmgmtvnet</text>
</g>
<!-- [root] azurerm_subnet.azurebastionsubnet (expand)&#45;&gt;[root] azurerm_virtual_network.bastionmgmtvnet (expand) -->
<g id="edge_0" class="edge">
<title>[root] azurerm_subnet.azurebastionsubnet (expand)&#45;&gt;[root] azurerm_virtual_network.bastionmgmtvnet (expand)</title>
<path fill="none" stroke="black" d="M159,-375.7C159,-367.98 159,-358.71 159,-350.11"/>
<polygon fill="black" stroke="black" points="162.5,-350.1 159,-340.1 155.5,-350.1 162.5,-350.1"/>
</g>
<!-- [root] azurerm_subnet.mgmtsubnet (expand) -->
<g id="node_1" class="node">
<title>[root] azurerm_subnet.mgmtsubnet (expand)</title>
<polygon fill="none" stroke="black" points="240,-394 240,-409 310,-409 310,-394 240,-394"/>
<text text-anchor="start" x="243" y="-399.6" font-family="courier new" font-size="8.00">azurerm_subnet</text>
<polygon fill="none" stroke="black" points="240,-379 240,-394 310,-394 310,-379 240,-379"/>
<text text-anchor="start" x="252" y="-384.6" font-family="courier new" font-size="8.00">mgmtsubnet</text>
</g>
<!-- [root] azurerm_subnet.mgmtsubnet (expand)&#45;&gt;[root] azurerm_virtual_network.bastionmgmtvnet (expand) -->
<g id="edge_1" class="edge">
<title>[root] azurerm_subnet.mgmtsubnet (expand)&#45;&gt;[root] azurerm_virtual_network.bastionmgmtvnet (expand)</title>
<path fill="none" stroke="black" d="M246.62,-375.88C231.46,-366.72 212.59,-355.34 196.26,-345.48"/>
<polygon fill="black" stroke="black" points="197.86,-342.36 187.49,-340.19 194.24,-348.35 197.86,-342.36"/>
</g>
<!-- [root] var.deploy_management -->
<g id="node_7" class="node">
<title>[root] var.deploy_management</title>
<polygon fill="none" stroke="black" points="234,-322 234,-337 317,-337 317,-322 234,-322"/>
<text text-anchor="start" x="268.5" y="-327.6" font-family="courier new" font-size="8.00">var</text>
<polygon fill="none" stroke="black" points="234,-307 234,-322 317,-322 317,-307 234,-307"/>
<text text-anchor="start" x="237" y="-312.6" font-family="courier new" font-size="8.00">deploy_management</text>
</g>
<!-- [root] azurerm_subnet.mgmtsubnet (expand)&#45;&gt;[root] var.deploy_management -->
<g id="edge_2" class="edge">
<title>[root] azurerm_subnet.mgmtsubnet (expand)&#45;&gt;[root] var.deploy_management</title>
<path fill="none" stroke="black" d="M275,-375.7C275,-367.98 275,-358.71 275,-350.11"/>
<polygon fill="black" stroke="black" points="278.5,-350.1 275,-340.1 271.5,-350.1 278.5,-350.1"/>
</g>
<!-- [root] provider[&quot;registry.terraform.io/hashicorp/azurerm&quot;] -->
<g id="node_6" class="node">
<title>[root] provider[&quot;registry.terraform.io/hashicorp/azurerm&quot;]</title>
<polygon fill="none" stroke="black" points="54,-250 54,-265 164,-265 164,-250 54,-250"/>
<text text-anchor="start" x="88.5" y="-255.6" font-family="courier new" font-size="8.00">terraform</text>
<polygon fill="none" stroke="black" points="54,-235 54,-250 164,-250 164,-235 54,-235"/>
<text text-anchor="start" x="57" y="-240.6" font-family="courier new" font-size="8.00">io/hashicorp/azurerm\&quot;]</text>
</g>
<!-- [root] azurerm_virtual_network.bastionmgmtvnet (expand)&#45;&gt;[root] provider[&quot;registry.terraform.io/hashicorp/azurerm&quot;] -->
<g id="edge_3" class="edge">
<title>[root] azurerm_virtual_network.bastionmgmtvnet (expand)&#45;&gt;[root] provider[&quot;registry.terraform.io/hashicorp/azurerm&quot;]</title>
<path fill="none" stroke="black" d="M146.64,-303.7C140.77,-295.47 133.63,-285.48 127.16,-276.42"/>
<polygon fill="black" stroke="black" points="129.88,-274.21 121.22,-268.1 124.18,-278.28 129.88,-274.21"/>
</g>
<!-- [root] var.location -->
<g id="node_8" class="node">
<title>[root] var.location</title>
<polygon fill="none" stroke="black" points="194,-250 194,-265 237,-265 237,-250 194,-250"/>
<text text-anchor="start" x="208.5" y="-255.6" font-family="courier new" font-size="8.00">var</text>
<polygon fill="none" stroke="black" points="194,-235 194,-250 237,-250 237,-235 194,-235"/>
<text text-anchor="start" x="197" y="-240.6" font-family="courier new" font-size="8.00">location</text>
</g>
<!-- [root] azurerm_virtual_network.bastionmgmtvnet (expand)&#45;&gt;[root] var.location -->
<g id="edge_4" class="edge">
<title>[root] azurerm_virtual_network.bastionmgmtvnet (expand)&#45;&gt;[root] var.location</title>
<path fill="none" stroke="black" d="M172.84,-303.7C179.49,-295.39 187.58,-285.28 194.89,-276.14"/>
<polygon fill="black" stroke="black" points="197.8,-278.1 201.32,-268.1 192.34,-273.73 197.8,-278.1"/>
</g>
<!-- [root] provider[&quot;registry.terraform.io/hashicorp/azurerm&quot;] (close) -->
<g id="node_12" class="node">
<title>[root] provider[&quot;registry.terraform.io/hashicorp/azurerm&quot;] (close)</title>
<polygon fill="none" stroke="black" points="220,-466 220,-481 330,-481 330,-466 220,-466"/>
<text text-anchor="start" x="254.5" y="-471.6" font-family="courier new" font-size="8.00">terraform</text>
<polygon fill="none" stroke="black" points="220,-451 220,-466 330,-466 330,-451 220,-451"/>
<text text-anchor="start" x="223" y="-456.6" font-family="courier new" font-size="8.00">io/hashicorp/azurerm\&quot;]</text>
</g>
<!-- [root] provider[&quot;registry.terraform.io/hashicorp/azurerm&quot;] (close)&#45;&gt;[root] azurerm_subnet.azurebastionsubnet (expand) -->
<g id="edge_11" class="edge">
<title>[root] provider[&quot;registry.terraform.io/hashicorp/azurerm&quot;] (close)&#45;&gt;[root] azurerm_subnet.azurebastionsubnet (expand)</title>
<path fill="none" stroke="black" d="M246.62,-447.88C231.46,-438.72 212.59,-427.34 196.26,-417.48"/>
<polygon fill="black" stroke="black" points="197.86,-414.36 187.49,-412.19 194.24,-420.35 197.86,-414.36"/>
</g>
<!-- [root] provider[&quot;registry.terraform.io/hashicorp/azurerm&quot;] (close)&#45;&gt;[root] azurerm_subnet.mgmtsubnet (expand) -->
<g id="edge_12" class="edge">
<title>[root] provider[&quot;registry.terraform.io/hashicorp/azurerm&quot;] (close)&#45;&gt;[root] azurerm_subnet.mgmtsubnet (expand)</title>
<path fill="none" stroke="black" d="M275,-447.7C275,-439.98 275,-430.71 275,-422.11"/>
<polygon fill="black" stroke="black" points="278.5,-422.1 275,-412.1 271.5,-422.1 278.5,-422.1"/>
</g>
<!-- [root] root -->
<g id="node_13" class="node">
<title>[root] root</title>
<polygon fill="none" stroke="black" points="249,-556 183,-556 183,-520 249,-520 249,-556"/>
<text text-anchor="middle" x="216" y="-536.1" font-family="courier new" font-size="8.00">[root] root</text>
</g>
<!-- [root] root&#45;&gt;[root] provider[&quot;registry.terraform.io/hashicorp/azurerm&quot;] (close) -->
<g id="edge_16" class="edge">
<title>[root] root&#45;&gt;[root] provider[&quot;registry.terraform.io/hashicorp/azurerm&quot;] (close)</title>
<path fill="none" stroke="black" d="M230.58,-519.7C237.66,-511.3 246.28,-501.07 254.05,-491.86"/>
<polygon fill="black" stroke="black" points="256.81,-494.01 260.58,-484.1 251.46,-489.49 256.81,-494.01"/>
</g>
<!-- [root] output.azurebastionsubnet -->
<g id="node_3" class="node">
<title>[root] output.azurebastionsubnet</title>
<polygon fill="none" stroke="black" points="114,-466 114,-481 202,-481 202,-466 114,-466"/>
<text text-anchor="start" x="144" y="-471.6" font-family="courier new" font-size="8.00">output</text>
<polygon fill="none" stroke="black" points="114,-451 114,-466 202,-466 202,-451 114,-451"/>
<text text-anchor="start" x="117" y="-456.6" font-family="courier new" font-size="8.00">azurebastionsubnet</text>
</g>
<!-- [root] root&#45;&gt;[root] output.azurebastionsubnet -->
<g id="edge_13" class="edge">
<title>[root] root&#45;&gt;[root] output.azurebastionsubnet</title>
<path fill="none" stroke="black" d="M201.66,-519.7C194.71,-511.3 186.23,-501.07 178.6,-491.86"/>
<polygon fill="black" stroke="black" points="181.25,-489.57 172.17,-484.1 175.86,-494.04 181.25,-489.57"/>
</g>
<!-- [root] output.bastionmgmtvnet -->
<g id="node_4" class="node">
<title>[root] output.bastionmgmtvnet</title>
<polygon fill="none" stroke="black" points="16,-466 16,-481 90,-481 90,-466 16,-466"/>
<text text-anchor="start" x="39" y="-471.6" font-family="courier new" font-size="8.00">output</text>
<polygon fill="none" stroke="black" points="16,-451 16,-466 90,-466 90,-451 16,-451"/>
<text text-anchor="start" x="19" y="-456.6" font-family="courier new" font-size="8.00">bastionmgmtvnet</text>
</g>
<!-- [root] root&#45;&gt;[root] output.bastionmgmtvnet -->
<g id="edge_14" class="edge">
<title>[root] root&#45;&gt;[root] output.bastionmgmtvnet</title>
<path fill="none" stroke="black" d="M182.73,-524.83C159.8,-516.21 128.76,-504.08 102,-492 99.55,-490.9 97.06,-489.73 94.54,-488.54"/>
<polygon fill="black" stroke="black" points="95.99,-485.35 85.47,-484.12 92.93,-491.64 95.99,-485.35"/>
</g>
<!-- [root] output.mgmtsubnet -->
<g id="node_5" class="node">
<title>[root] output.mgmtsubnet</title>
<polygon fill="none" stroke="black" points="349,-466 349,-481 401,-481 401,-466 349,-466"/>
<text text-anchor="start" x="361" y="-471.6" font-family="courier new" font-size="8.00">output</text>
<polygon fill="none" stroke="black" points="349,-451 349,-466 401,-466 401,-451 349,-451"/>
<text text-anchor="start" x="352" y="-456.6" font-family="courier new" font-size="8.00">mgmtsubnet</text>
</g>
<!-- [root] root&#45;&gt;[root] output.mgmtsubnet -->
<g id="edge_15" class="edge">
<title>[root] root&#45;&gt;[root] output.mgmtsubnet</title>
<path fill="none" stroke="black" d="M249.08,-527.44C274.41,-519.53 309.84,-507.14 339,-492 340.53,-491.2 342.08,-490.35 343.62,-489.46"/>
<polygon fill="black" stroke="black" points="345.67,-492.31 352.31,-484.05 341.97,-486.36 345.67,-492.31"/>
</g>
<!-- [root] var.project -->
<g id="node_9" class="node">
<title>[root] var.project</title>
<polygon fill="none" stroke="black" points="199,-178 199,-193 237,-193 237,-178 199,-178"/>
<text text-anchor="start" x="211" y="-183.6" font-family="courier new" font-size="8.00">var</text>
<polygon fill="none" stroke="black" points="199,-163 199,-178 237,-178 237,-163 199,-163"/>
<text text-anchor="start" x="202" y="-168.6" font-family="courier new" font-size="8.00">project</text>
</g>
<!-- [root] var.location&#45;&gt;[root] var.project -->
<g id="edge_17" class="edge">
<title>[root] var.location&#45;&gt;[root] var.project</title>
<path fill="none" stroke="black" stroke-dasharray="5,2" d="M215.74,-231.7C216.21,-220.85 216.8,-206.92 217.27,-196.1"/>
</g>
<!-- [root] var.resourcegroupname -->
<g id="node_10" class="node">
<title>[root] var.resourcegroupname</title>
<polygon fill="none" stroke="black" points="181,-106 181,-121 264,-121 264,-106 181,-106"/>
<text text-anchor="start" x="215.5" y="-111.6" font-family="courier new" font-size="8.00">var</text>
<polygon fill="none" stroke="black" points="181,-91 181,-106 264,-106 264,-91 181,-91"/>
<text text-anchor="start" x="184" y="-96.6" font-family="courier new" font-size="8.00">resourcegroupname</text>
</g>
<!-- [root] var.project&#45;&gt;[root] var.resourcegroupname -->
<g id="edge_18" class="edge">
<title>[root] var.project&#45;&gt;[root] var.resourcegroupname</title>
<path fill="none" stroke="black" stroke-dasharray="5,2" d="M218.99,-159.7C219.61,-148.85 220.4,-134.92 221.02,-124.1"/>
</g>
<!-- [root] var.tags -->
<g id="node_11" class="node">
<title>[root] var.tags</title>
<polygon fill="none" stroke="black" points="210,-34 210,-49 235,-49 235,-34 210,-34"/>
<text text-anchor="start" x="215.5" y="-39.6" font-family="courier new" font-size="8.00">var</text>
<polygon fill="none" stroke="black" points="210,-19 210,-34 235,-34 235,-19 210,-19"/>
<text text-anchor="start" x="213" y="-24.6" font-family="courier new" font-size="8.00">tags</text>
</g>
<!-- [root] var.resourcegroupname&#45;&gt;[root] var.tags -->
<g id="edge_19" class="edge">
<title>[root] var.resourcegroupname&#45;&gt;[root] var.tags</title>
<path fill="none" stroke="black" stroke-dasharray="5,2" d="M222,-87.7C222,-76.85 222,-62.92 222,-52.1"/>
</g>
<!-- [root] output.azurebastionsubnet&#45;&gt;[root] azurerm_subnet.azurebastionsubnet (expand) -->
<g id="edge_8" class="edge">
<title>[root] output.azurebastionsubnet&#45;&gt;[root] azurerm_subnet.azurebastionsubnet (expand)</title>
<path fill="none" stroke="black" d="M158.25,-447.7C158.36,-439.98 158.49,-430.71 158.61,-422.11"/>
<polygon fill="black" stroke="black" points="162.11,-422.15 158.76,-412.1 155.11,-422.05 162.11,-422.15"/>
</g>
<!-- [root] output.bastionmgmtvnet&#45;&gt;[root] azurerm_virtual_network.bastionmgmtvnet (expand) -->
<g id="edge_9" class="edge">
<title>[root] output.bastionmgmtvnet&#45;&gt;[root] azurerm_virtual_network.bastionmgmtvnet (expand)</title>
<path fill="none" stroke="black" d="M61.6,-447.8C71.23,-429.26 87.89,-399.28 106,-376 113.87,-365.89 123.52,-355.72 132.42,-347.03"/>
<polygon fill="black" stroke="black" points="134.85,-349.55 139.67,-340.11 130.02,-344.48 134.85,-349.55"/>
</g>
<!-- [root] output.mgmtsubnet&#45;&gt;[root] azurerm_subnet.mgmtsubnet (expand) -->
<g id="edge_10" class="edge">
<title>[root] output.mgmtsubnet&#45;&gt;[root] azurerm_subnet.mgmtsubnet (expand)</title>
<path fill="none" stroke="black" d="M350.54,-447.88C337.7,-438.89 321.8,-427.76 307.91,-418.03"/>
<polygon fill="black" stroke="black" points="309.76,-415.06 299.56,-412.19 305.74,-420.79 309.76,-415.06"/>
</g>
</g>
</svg>

