<?xml version="1.0" encoding="UTF-8" standalone="no"?>
<!DOCTYPE svg PUBLIC "-//W3C//DTD SVG 1.1//EN"
 "http://www.w3.org/Graphics/SVG/1.1/DTD/svg11.dtd">
<!-- Generated by graphviz version 2.49.3 (20211023.0002)
 -->
<!-- Pages: 1 -->
<svg width="796pt" height="548pt"
 viewBox="0.00 0.00 796.09 548.00" xmlns="http://www.w3.org/2000/svg" xmlns:xlink="http://www.w3.org/1999/xlink">
<g id="graph0" class="graph" transform="scale(1 1) rotate(0) translate(4 544)">
<polygon fill="white" stroke="transparent" points="-4,4 -4,-544 792.09,-544 792.09,4 -4,4"/>
<!-- [root] azurerm_linux_virtual_machine_scale_set.scaleset (expand) -->
<g id="node1" class="node">
<title>[root] azurerm_linux_virtual_machine_scale_set.scaleset (expand)</title>
<polygon fill="none" stroke="black" points="521.09,-324 226.09,-324 226.09,-288 521.09,-288 521.09,-324"/>
<text text-anchor="middle" x="373.59" y="-302.3" font-family="Times New Roman,serif" font-size="14.00">azurerm_linux_virtual_machine_scale_set.scaleset</text>
</g>
<!-- [root] azurerm_subnet.subnet (expand) -->
<g id="node5" class="node">
<title>[root] azurerm_subnet.subnet (expand)</title>
<polygon fill="none" stroke="black" points="300.59,-252 154.59,-252 154.59,-216 300.59,-216 300.59,-252"/>
<text text-anchor="middle" x="227.59" y="-230.3" font-family="Times New Roman,serif" font-size="14.00">azurerm_subnet.subnet</text>
</g>
<!-- [root] azurerm_linux_virtual_machine_scale_set.scaleset (expand)&#45;&gt;[root] azurerm_subnet.subnet (expand) -->
<g id="edge1" class="edge">
<title>[root] azurerm_linux_virtual_machine_scale_set.scaleset (expand)&#45;&gt;[root] azurerm_subnet.subnet (expand)</title>
<path fill="none" stroke="black" d="M337.87,-287.88C318.09,-278.39 293.31,-266.51 272.26,-256.42"/>
<polygon fill="black" stroke="black" points="273.72,-253.24 263.19,-252.07 270.69,-259.55 273.72,-253.24"/>
</g>
<!-- [root] var.vm -->
<g id="node10" class="node">
<title>[root] var.vm</title>
<polygon fill="none" stroke="black" points="368.09,-252 319.09,-252 319.09,-216 374.09,-216 374.09,-246 368.09,-252"/>
<polyline fill="none" stroke="black" points="368.09,-252 368.09,-246 "/>
<polyline fill="none" stroke="black" points="374.09,-246 368.09,-246 "/>
<text text-anchor="middle" x="346.59" y="-230.3" font-family="Times New Roman,serif" font-size="14.00">var.vm</text>
</g>
<!-- [root] azurerm_linux_virtual_machine_scale_set.scaleset (expand)&#45;&gt;[root] var.vm -->
<g id="edge3" class="edge">
<title>[root] azurerm_linux_virtual_machine_scale_set.scaleset (expand)&#45;&gt;[root] var.vm</title>
<path fill="none" stroke="black" d="M366.91,-287.7C363.87,-279.81 360.2,-270.3 356.82,-261.55"/>
<polygon fill="black" stroke="black" points="360.05,-260.17 353.18,-252.1 353.52,-262.69 360.05,-260.17"/>
</g>
<!-- [root] local.user_data (expand) -->
<g id="node11" class="node">
<title>[root] local.user_data (expand)</title>
<ellipse fill="none" stroke="black" cx="515.59" cy="-234" rx="123.48" ry="18"/>
<text text-anchor="middle" x="515.59" y="-230.3" font-family="Times New Roman,serif" font-size="14.00">[root] local.user_data (expand)</text>
</g>
<!-- [root] azurerm_linux_virtual_machine_scale_set.scaleset (expand)&#45;&gt;[root] local.user_data (expand) -->
<g id="edge2" class="edge">
<title>[root] azurerm_linux_virtual_machine_scale_set.scaleset (expand)&#45;&gt;[root] local.user_data (expand)</title>
<path fill="none" stroke="black" d="M408.32,-287.88C427.83,-278.26 452.33,-266.18 472.99,-256"/>
<polygon fill="black" stroke="black" points="474.76,-259.03 482.18,-251.47 471.67,-252.75 474.76,-259.03"/>
</g>
<!-- [root] azurerm_monitor_autoscale_setting.autoscaler (expand) -->
<g id="node2" class="node">
<title>[root] azurerm_monitor_autoscale_setting.autoscaler (expand)</title>
<polygon fill="none" stroke="black" points="525.09,-396 250.09,-396 250.09,-360 525.09,-360 525.09,-396"/>
<text text-anchor="middle" x="387.59" y="-374.3" font-family="Times New Roman,serif" font-size="14.00">azurerm_monitor_autoscale_setting.autoscaler</text>
</g>
<!-- [root] azurerm_monitor_autoscale_setting.autoscaler (expand)&#45;&gt;[root] azurerm_linux_virtual_machine_scale_set.scaleset (expand) -->
<g id="edge4" class="edge">
<title>[root] azurerm_monitor_autoscale_setting.autoscaler (expand)&#45;&gt;[root] azurerm_linux_virtual_machine_scale_set.scaleset (expand)</title>
<path fill="none" stroke="black" d="M384.12,-359.7C382.58,-351.98 380.73,-342.71 379.01,-334.11"/>
<polygon fill="black" stroke="black" points="382.4,-333.22 377.01,-324.1 375.54,-334.6 382.4,-333.22"/>
</g>
<!-- [root] azurerm_network_security_group.sg (expand) -->
<g id="node3" class="node">
<title>[root] azurerm_network_security_group.sg (expand)</title>
<polygon fill="none" stroke="black" points="777.09,-396 556.09,-396 556.09,-360 777.09,-360 777.09,-396"/>
<text text-anchor="middle" x="666.59" y="-374.3" font-family="Times New Roman,serif" font-size="14.00">azurerm_network_security_group.sg</text>
</g>
<!-- [root] azurerm_resource_group.rg (expand) -->
<g id="node4" class="node">
<title>[root] azurerm_resource_group.rg (expand)</title>
<polygon fill="none" stroke="black" points="532.59,-108 360.59,-108 360.59,-72 532.59,-72 532.59,-108"/>
<text text-anchor="middle" x="446.59" y="-86.3" font-family="Times New Roman,serif" font-size="14.00">azurerm_resource_group.rg</text>
</g>
<!-- [root] azurerm_network_security_group.sg (expand)&#45;&gt;[root] azurerm_resource_group.rg (expand) -->
<g id="edge5" class="edge">
<title>[root] azurerm_network_security_group.sg (expand)&#45;&gt;[root] azurerm_resource_group.rg (expand)</title>
<path fill="none" stroke="black" d="M669.11,-359.91C672.8,-328.66 676.41,-261.38 647.59,-216 615.12,-164.89 553.44,-131.2 506.93,-111.82"/>
<polygon fill="black" stroke="black" points="508.13,-108.53 497.54,-108.01 505.5,-115.01 508.13,-108.53"/>
</g>
<!-- [root] var.source_ip -->
<g id="node9" class="node">
<title>[root] var.source_ip</title>
<polygon fill="none" stroke="black" points="782.09,-324 695.09,-324 695.09,-288 788.09,-288 788.09,-318 782.09,-324"/>
<polyline fill="none" stroke="black" points="782.09,-324 782.09,-318 "/>
<polyline fill="none" stroke="black" points="788.09,-318 782.09,-318 "/>
<text text-anchor="middle" x="741.59" y="-302.3" font-family="Times New Roman,serif" font-size="14.00">var.source_ip</text>
</g>
<!-- [root] azurerm_network_security_group.sg (expand)&#45;&gt;[root] var.source_ip -->
<g id="edge6" class="edge">
<title>[root] azurerm_network_security_group.sg (expand)&#45;&gt;[root] var.source_ip</title>
<path fill="none" stroke="black" d="M685.12,-359.7C694.39,-351.05 705.75,-340.45 715.84,-331.03"/>
<polygon fill="black" stroke="black" points="718.34,-333.49 723.26,-324.1 713.56,-328.37 718.34,-333.49"/>
</g>
<!-- [root] provider[&quot;registry.terraform.io/hashicorp/azurerm&quot;] -->
<g id="node7" class="node">
<title>[root] provider[&quot;registry.terraform.io/hashicorp/azurerm&quot;]</title>
<polygon fill="none" stroke="black" points="277.59,-36 -0.09,-18 277.59,0 555.26,-18 277.59,-36"/>
<text text-anchor="middle" x="277.59" y="-14.3" font-family="Times New Roman,serif" font-size="14.00">provider[&quot;registry.terraform.io/hashicorp/azurerm&quot;]</text>
</g>
<!-- [root] azurerm_resource_group.rg (expand)&#45;&gt;[root] provider[&quot;registry.terraform.io/hashicorp/azurerm&quot;] -->
<g id="edge7" class="edge">
<title>[root] azurerm_resource_group.rg (expand)&#45;&gt;[root] provider[&quot;registry.terraform.io/hashicorp/azurerm&quot;]</title>
<path fill="none" stroke="black" d="M405.24,-71.88C380.29,-61.54 348.47,-48.36 322.84,-37.74"/>
<polygon fill="black" stroke="black" points="323.93,-34.41 313.35,-33.81 321.25,-40.87 323.93,-34.41"/>
</g>
<!-- [root] var.resource -->
<g id="node8" class="node">
<title>[root] var.resource</title>
<polygon fill="none" stroke="black" points="653.59,-36 573.59,-36 573.59,0 659.59,0 659.59,-30 653.59,-36"/>
<polyline fill="none" stroke="black" points="653.59,-36 653.59,-30 "/>
<polyline fill="none" stroke="black" points="659.59,-30 653.59,-30 "/>
<text text-anchor="middle" x="616.59" y="-14.3" font-family="Times New Roman,serif" font-size="14.00">var.resource</text>
</g>
<!-- [root] azurerm_resource_group.rg (expand)&#45;&gt;[root] var.resource -->
<g id="edge8" class="edge">
<title>[root] azurerm_resource_group.rg (expand)&#45;&gt;[root] var.resource</title>
<path fill="none" stroke="black" d="M488.17,-71.88C511.62,-62.22 541.09,-50.09 565.88,-39.88"/>
<polygon fill="black" stroke="black" points="567.22,-43.11 575.13,-36.07 564.55,-36.64 567.22,-43.11"/>
</g>
<!-- [root] azurerm_virtual_network.vnet (expand) -->
<g id="node6" class="node">
<title>[root] azurerm_virtual_network.vnet (expand)</title>
<polygon fill="none" stroke="black" points="478.59,-180 296.59,-180 296.59,-144 478.59,-144 478.59,-180"/>
<text text-anchor="middle" x="387.59" y="-158.3" font-family="Times New Roman,serif" font-size="14.00">azurerm_virtual_network.vnet</text>
</g>
<!-- [root] azurerm_subnet.subnet (expand)&#45;&gt;[root] azurerm_virtual_network.vnet (expand) -->
<g id="edge9" class="edge">
<title>[root] azurerm_subnet.subnet (expand)&#45;&gt;[root] azurerm_virtual_network.vnet (expand)</title>
<path fill="none" stroke="black" d="M266.73,-215.88C288.6,-206.31 316.04,-194.3 339.25,-184.15"/>
<polygon fill="black" stroke="black" points="340.81,-187.28 348.57,-180.07 338.01,-180.87 340.81,-187.28"/>
</g>
<!-- [root] azurerm_virtual_network.vnet (expand)&#45;&gt;[root] azurerm_resource_group.rg (expand) -->
<g id="edge10" class="edge">
<title>[root] azurerm_virtual_network.vnet (expand)&#45;&gt;[root] azurerm_resource_group.rg (expand)</title>
<path fill="none" stroke="black" d="M402.17,-143.7C409.24,-135.3 417.87,-125.07 425.63,-115.86"/>
<polygon fill="black" stroke="black" points="428.4,-118.01 432.17,-108.1 423.05,-113.49 428.4,-118.01"/>
</g>
<!-- [root] provider[&quot;registry.terraform.io/hashicorp/azurerm&quot;] (close) -->
<g id="node12" class="node">
<title>[root] provider[&quot;registry.terraform.io/hashicorp/azurerm&quot;] (close)</title>
<ellipse fill="none" stroke="black" cx="520.59" cy="-450" rx="246.96" ry="18"/>
<text text-anchor="middle" x="520.59" y="-446.3" font-family="Times New Roman,serif" font-size="14.00">[root] provider[&quot;registry.terraform.io/hashicorp/azurerm&quot;] (close)</text>
</g>
<!-- [root] provider[&quot;registry.terraform.io/hashicorp/azurerm&quot;] (close)&#45;&gt;[root] azurerm_monitor_autoscale_setting.autoscaler (expand) -->
<g id="edge11" class="edge">
<title>[root] provider[&quot;registry.terraform.io/hashicorp/azurerm&quot;] (close)&#45;&gt;[root] azurerm_monitor_autoscale_setting.autoscaler (expand)</title>
<path fill="none" stroke="black" d="M488.39,-432.05C470.55,-422.67 448.18,-410.89 429.04,-400.82"/>
<polygon fill="black" stroke="black" points="430.42,-397.59 419.95,-396.03 427.16,-403.79 430.42,-397.59"/>
</g>
<!-- [root] provider[&quot;registry.terraform.io/hashicorp/azurerm&quot;] (close)&#45;&gt;[root] azurerm_network_security_group.sg (expand) -->
<g id="edge12" class="edge">
<title>[root] provider[&quot;registry.terraform.io/hashicorp/azurerm&quot;] (close)&#45;&gt;[root] azurerm_network_security_group.sg (expand)</title>
<path fill="none" stroke="black" d="M555.93,-432.05C575.78,-422.54 600.74,-410.57 621.93,-400.41"/>
<polygon fill="black" stroke="black" points="623.56,-403.51 631.06,-396.03 620.53,-397.2 623.56,-403.51"/>
</g>
<!-- [root] root -->
<g id="node13" class="node">
<title>[root] root</title>
<ellipse fill="none" stroke="black" cx="520.59" cy="-522" rx="49.29" ry="18"/>
<text text-anchor="middle" x="520.59" y="-518.3" font-family="Times New Roman,serif" font-size="14.00">[root] root</text>
</g>
<!-- [root] root&#45;&gt;[root] provider[&quot;registry.terraform.io/hashicorp/azurerm&quot;] (close) -->
<g id="edge13" class="edge">
<title>[root] root&#45;&gt;[root] provider[&quot;registry.terraform.io/hashicorp/azurerm&quot;] (close)</title>
<path fill="none" stroke="black" d="M520.59,-503.7C520.59,-495.98 520.59,-486.71 520.59,-478.11"/>
<polygon fill="black" stroke="black" points="524.09,-478.1 520.59,-468.1 517.09,-478.1 524.09,-478.1"/>
</g>
</g>
</svg>
