<?xml version="1.0" encoding="UTF-8" standalone="no"?>
<!DOCTYPE svg PUBLIC "-//W3C//DTD SVG 1.1//EN"
 "http://www.w3.org/Graphics/SVG/1.1/DTD/svg11.dtd">
<!-- Generated by graphviz version 2.49.3 (20211023.0002)
 -->
<!-- Pages: 1 -->
<svg width="1423pt" height="620pt"
 viewBox="0.00 0.00 1422.61 620.00" xmlns="http://www.w3.org/2000/svg" xmlns:xlink="http://www.w3.org/1999/xlink">
<g id="graph0" class="graph" transform="scale(1 1) rotate(0) translate(4 616)">
<polygon fill="white" stroke="transparent" points="-4,4 -4,-616 1418.61,-616 1418.61,4 -4,4"/>
<!-- [root] azurerm_lb.lb (expand) -->
<g id="node1" class="node">
<title>[root] azurerm_lb.lb (expand)</title>
<polygon fill="none" stroke="black" points="241.61,-252 148.61,-252 148.61,-216 241.61,-216 241.61,-252"/>
<text text-anchor="middle" x="195.11" y="-230.3" font-family="Times New Roman,serif" font-size="14.00">azurerm_lb.lb</text>
</g>
<!-- [root] azurerm_public_ip.ip (expand) -->
<g id="node8" class="node">
<title>[root] azurerm_public_ip.ip (expand)</title>
<polygon fill="none" stroke="black" points="367.61,-180 232.61,-180 232.61,-144 367.61,-144 367.61,-180"/>
<text text-anchor="middle" x="300.11" y="-158.3" font-family="Times New Roman,serif" font-size="14.00">azurerm_public_ip.ip</text>
</g>
<!-- [root] azurerm_lb.lb (expand)&#45;&gt;[root] azurerm_public_ip.ip (expand) -->
<g id="edge1" class="edge">
<title>[root] azurerm_lb.lb (expand)&#45;&gt;[root] azurerm_public_ip.ip (expand)</title>
<path fill="none" stroke="black" d="M220.8,-215.88C234.4,-206.81 251.28,-195.55 265.97,-185.76"/>
<polygon fill="black" stroke="black" points="267.95,-188.65 274.32,-180.19 264.06,-182.82 267.95,-188.65"/>
</g>
<!-- [root] azurerm_lb_backend_address_pool.backend_address_pool (expand) -->
<g id="node2" class="node">
<title>[root] azurerm_lb_backend_address_pool.backend_address_pool (expand)</title>
<polygon fill="none" stroke="black" points="371.61,-324 18.61,-324 18.61,-288 371.61,-288 371.61,-324"/>
<text text-anchor="middle" x="195.11" y="-302.3" font-family="Times New Roman,serif" font-size="14.00">azurerm_lb_backend_address_pool.backend_address_pool</text>
</g>
<!-- [root] azurerm_lb_backend_address_pool.backend_address_pool (expand)&#45;&gt;[root] azurerm_lb.lb (expand) -->
<g id="edge2" class="edge">
<title>[root] azurerm_lb_backend_address_pool.backend_address_pool (expand)&#45;&gt;[root] azurerm_lb.lb (expand)</title>
<path fill="none" stroke="black" d="M195.11,-287.7C195.11,-279.98 195.11,-270.71 195.11,-262.11"/>
<polygon fill="black" stroke="black" points="198.61,-262.1 195.11,-252.1 191.61,-262.1 198.61,-262.1"/>
</g>
<!-- [root] azurerm_lb_rule.lb_rule (expand) -->
<g id="node3" class="node">
<title>[root] azurerm_lb_rule.lb_rule (expand)</title>
<polygon fill="none" stroke="black" points="301.61,-396 152.61,-396 152.61,-360 301.61,-360 301.61,-396"/>
<text text-anchor="middle" x="227.11" y="-374.3" font-family="Times New Roman,serif" font-size="14.00">azurerm_lb_rule.lb_rule</text>
</g>
<!-- [root] azurerm_lb_rule.lb_rule (expand)&#45;&gt;[root] azurerm_lb.lb (expand) -->
<g id="edge3" class="edge">
<title>[root] azurerm_lb_rule.lb_rule (expand)&#45;&gt;[root] azurerm_lb.lb (expand)</title>
<path fill="none" stroke="black" d="M152.39,-368.68C96.53,-360.74 26.86,-346.58 9.11,-324 -29.4,-275.01 70.45,-251.49 138.31,-241.46"/>
<polygon fill="black" stroke="black" points="139.08,-244.89 148.49,-240.02 138.09,-237.96 139.08,-244.89"/>
</g>
<!-- [root] azurerm_linux_virtual_machine_scale_set.scaleset (expand) -->
<g id="node4" class="node">
<title>[root] azurerm_linux_virtual_machine_scale_set.scaleset (expand)</title>
<polygon fill="none" stroke="black" points="909.61,-396 614.61,-396 614.61,-360 909.61,-360 909.61,-396"/>
<text text-anchor="middle" x="762.11" y="-374.3" font-family="Times New Roman,serif" font-size="14.00">azurerm_linux_virtual_machine_scale_set.scaleset</text>
</g>
<!-- [root] azurerm_linux_virtual_machine_scale_set.scaleset (expand)&#45;&gt;[root] azurerm_lb_backend_address_pool.backend_address_pool (expand) -->
<g id="edge4" class="edge">
<title>[root] azurerm_linux_virtual_machine_scale_set.scaleset (expand)&#45;&gt;[root] azurerm_lb_backend_address_pool.backend_address_pool (expand)</title>
<path fill="none" stroke="black" d="M624.13,-359.97C539.07,-349.46 430.02,-336 343.16,-325.28"/>
<polygon fill="black" stroke="black" points="343.57,-321.8 333.22,-324.05 342.71,-328.75 343.57,-321.8"/>
</g>
<!-- [root] azurerm_network_security_group.sg (expand) -->
<g id="node7" class="node">
<title>[root] azurerm_network_security_group.sg (expand)</title>
<polygon fill="none" stroke="black" points="610.61,-324 389.61,-324 389.61,-288 610.61,-288 610.61,-324"/>
<text text-anchor="middle" x="500.11" y="-302.3" font-family="Times New Roman,serif" font-size="14.00">azurerm_network_security_group.sg</text>
</g>
<!-- [root] azurerm_linux_virtual_machine_scale_set.scaleset (expand)&#45;&gt;[root] azurerm_network_security_group.sg (expand) -->
<g id="edge5" class="edge">
<title>[root] azurerm_linux_virtual_machine_scale_set.scaleset (expand)&#45;&gt;[root] azurerm_network_security_group.sg (expand)</title>
<path fill="none" stroke="black" d="M698.35,-359.97C660.79,-349.93 613.11,-337.19 573.92,-326.72"/>
<polygon fill="black" stroke="black" points="574.72,-323.31 564.15,-324.11 572.91,-330.07 574.72,-323.31"/>
</g>
<!-- [root] azurerm_subnet.subnet (expand) -->
<g id="node12" class="node">
<title>[root] azurerm_subnet.subnet (expand)</title>
<polygon fill="none" stroke="black" points="775.11,-324 629.11,-324 629.11,-288 775.11,-288 775.11,-324"/>
<text text-anchor="middle" x="702.11" y="-302.3" font-family="Times New Roman,serif" font-size="14.00">azurerm_subnet.subnet</text>
</g>
<!-- [root] azurerm_linux_virtual_machine_scale_set.scaleset (expand)&#45;&gt;[root] azurerm_subnet.subnet (expand) -->
<g id="edge6" class="edge">
<title>[root] azurerm_linux_virtual_machine_scale_set.scaleset (expand)&#45;&gt;[root] azurerm_subnet.subnet (expand)</title>
<path fill="none" stroke="black" d="M747.28,-359.7C740.08,-351.3 731.31,-341.07 723.42,-331.86"/>
<polygon fill="black" stroke="black" points="725.94,-329.42 716.77,-324.1 720.62,-333.97 725.94,-329.42"/>
</g>
<!-- [root] var.vm -->
<g id="node17" class="node">
<title>[root] var.vm</title>
<polygon fill="none" stroke="black" points="842.61,-324 793.61,-324 793.61,-288 848.61,-288 848.61,-318 842.61,-324"/>
<polyline fill="none" stroke="black" points="842.61,-324 842.61,-318 "/>
<polyline fill="none" stroke="black" points="848.61,-318 842.61,-318 "/>
<text text-anchor="middle" x="821.11" y="-302.3" font-family="Times New Roman,serif" font-size="14.00">var.vm</text>
</g>
<!-- [root] azurerm_linux_virtual_machine_scale_set.scaleset (expand)&#45;&gt;[root] var.vm -->
<g id="edge8" class="edge">
<title>[root] azurerm_linux_virtual_machine_scale_set.scaleset (expand)&#45;&gt;[root] var.vm</title>
<path fill="none" stroke="black" d="M776.69,-359.7C783.77,-351.3 792.39,-341.07 800.16,-331.86"/>
<polygon fill="black" stroke="black" points="802.92,-334.01 806.69,-324.1 797.57,-329.49 802.92,-334.01"/>
</g>
<!-- [root] local.user_data (expand) -->
<g id="node18" class="node">
<title>[root] local.user_data (expand)</title>
<ellipse fill="none" stroke="black" cx="990.11" cy="-306" rx="123.48" ry="18"/>
<text text-anchor="middle" x="990.11" y="-302.3" font-family="Times New Roman,serif" font-size="14.00">[root] local.user_data (expand)</text>
</g>
<!-- [root] azurerm_linux_virtual_machine_scale_set.scaleset (expand)&#45;&gt;[root] local.user_data (expand) -->
<g id="edge7" class="edge">
<title>[root] azurerm_linux_virtual_machine_scale_set.scaleset (expand)&#45;&gt;[root] local.user_data (expand)</title>
<path fill="none" stroke="black" d="M817.59,-359.97C851.57,-349.53 895.06,-336.18 929.88,-325.49"/>
<polygon fill="black" stroke="black" points="930.92,-328.83 939.45,-322.55 928.86,-322.14 930.92,-328.83"/>
</g>
<!-- [root] azurerm_monitor_autoscale_setting.autoscaler (expand) -->
<g id="node5" class="node">
<title>[root] azurerm_monitor_autoscale_setting.autoscaler (expand)</title>
<polygon fill="none" stroke="black" points="1001.61,-468 726.61,-468 726.61,-432 1001.61,-432 1001.61,-468"/>
<text text-anchor="middle" x="864.11" y="-446.3" font-family="Times New Roman,serif" font-size="14.00">azurerm_monitor_autoscale_setting.autoscaler</text>
</g>
<!-- [root] azurerm_monitor_autoscale_setting.autoscaler (expand)&#45;&gt;[root] azurerm_linux_virtual_machine_scale_set.scaleset (expand) -->
<g id="edge9" class="edge">
<title>[root] azurerm_monitor_autoscale_setting.autoscaler (expand)&#45;&gt;[root] azurerm_linux_virtual_machine_scale_set.scaleset (expand)</title>
<path fill="none" stroke="black" d="M839.16,-431.88C826.07,-422.89 809.85,-411.76 795.67,-402.03"/>
<polygon fill="black" stroke="black" points="797.38,-398.96 787.16,-396.19 793.42,-404.73 797.38,-398.96"/>
</g>
<!-- [root] azurerm_nat_gateway.nat (expand) -->
<g id="node6" class="node">
<title>[root] azurerm_nat_gateway.nat (expand)</title>
<polygon fill="none" stroke="black" points="1151.11,-396 993.11,-396 993.11,-360 1151.11,-360 1151.11,-396"/>
<text text-anchor="middle" x="1072.11" y="-374.3" font-family="Times New Roman,serif" font-size="14.00">azurerm_nat_gateway.nat</text>
</g>
<!-- [root] azurerm_resource_group.rg (expand) -->
<g id="node11" class="node">
<title>[root] azurerm_resource_group.rg (expand)</title>
<polygon fill="none" stroke="black" points="1172.11,-108 1000.11,-108 1000.11,-72 1172.11,-72 1172.11,-108"/>
<text text-anchor="middle" x="1086.11" y="-86.3" font-family="Times New Roman,serif" font-size="14.00">azurerm_resource_group.rg</text>
</g>
<!-- [root] azurerm_nat_gateway.nat (expand)&#45;&gt;[root] azurerm_resource_group.rg (expand) -->
<g id="edge10" class="edge">
<title>[root] azurerm_nat_gateway.nat (expand)&#45;&gt;[root] azurerm_resource_group.rg (expand)</title>
<path fill="none" stroke="black" d="M1094.71,-359.96C1105.17,-350.63 1116.51,-338.11 1122.11,-324 1150.35,-252.92 1118.18,-161.46 1098.75,-117.25"/>
<polygon fill="black" stroke="black" points="1101.9,-115.72 1094.59,-108.06 1095.52,-118.61 1101.9,-115.72"/>
</g>
<!-- [root] azurerm_network_security_group.sg (expand)&#45;&gt;[root] azurerm_resource_group.rg (expand) -->
<g id="edge11" class="edge">
<title>[root] azurerm_network_security_group.sg (expand)&#45;&gt;[root] azurerm_resource_group.rg (expand)</title>
<path fill="none" stroke="black" d="M498.9,-287.92C498.47,-268.07 500.92,-235.55 519.11,-216 581.97,-148.43 844.98,-113.57 989.66,-99.2"/>
<polygon fill="black" stroke="black" points="990.26,-102.66 999.87,-98.2 989.58,-95.69 990.26,-102.66"/>
</g>
<!-- [root] var.source_ip -->
<g id="node16" class="node">
<title>[root] var.source_ip</title>
<polygon fill="none" stroke="black" points="615.61,-252 528.61,-252 528.61,-216 621.61,-216 621.61,-246 615.61,-252"/>
<polyline fill="none" stroke="black" points="615.61,-252 615.61,-246 "/>
<polyline fill="none" stroke="black" points="621.61,-246 615.61,-246 "/>
<text text-anchor="middle" x="575.11" y="-230.3" font-family="Times New Roman,serif" font-size="14.00">var.source_ip</text>
</g>
<!-- [root] azurerm_network_security_group.sg (expand)&#45;&gt;[root] var.source_ip -->
<g id="edge12" class="edge">
<title>[root] azurerm_network_security_group.sg (expand)&#45;&gt;[root] var.source_ip</title>
<path fill="none" stroke="black" d="M518.65,-287.7C527.91,-279.05 539.27,-268.45 549.37,-259.03"/>
<polygon fill="black" stroke="black" points="551.86,-261.49 556.78,-252.1 547.08,-256.37 551.86,-261.49"/>
</g>
<!-- [root] azurerm_public_ip.ip (expand)&#45;&gt;[root] azurerm_resource_group.rg (expand) -->
<g id="edge13" class="edge">
<title>[root] azurerm_public_ip.ip (expand)&#45;&gt;[root] azurerm_resource_group.rg (expand)</title>
<path fill="none" stroke="black" d="M367.69,-154.77C402.98,-151.53 446.87,-147.53 486.11,-144 663.72,-128.04 870.95,-109.82 989.52,-99.44"/>
<polygon fill="black" stroke="black" points="990,-102.91 999.66,-98.55 989.39,-95.94 990,-102.91"/>
</g>
<!-- [root] azurerm_public_ip.natip (expand) -->
<g id="node9" class="node">
<title>[root] azurerm_public_ip.natip (expand)</title>
<polygon fill="none" stroke="black" points="1253.11,-468 1101.11,-468 1101.11,-432 1253.11,-432 1253.11,-468"/>
<text text-anchor="middle" x="1177.11" y="-446.3" font-family="Times New Roman,serif" font-size="14.00">azurerm_public_ip.natip</text>
</g>
<!-- [root] azurerm_public_ip.natip (expand)&#45;&gt;[root] azurerm_resource_group.rg (expand) -->
<g id="edge14" class="edge">
<title>[root] azurerm_public_ip.natip (expand)&#45;&gt;[root] azurerm_resource_group.rg (expand)</title>
<path fill="none" stroke="black" d="M1177.5,-431.95C1178.09,-405.29 1179.11,-352.12 1179.11,-307 1179.11,-307 1179.11,-307 1179.11,-233 1179.11,-185.32 1141.96,-141.19 1114.62,-115.17"/>
<polygon fill="black" stroke="black" points="1116.93,-112.54 1107.21,-108.32 1112.18,-117.68 1116.93,-112.54"/>
</g>
<!-- [root] azurerm_public_ip_prefix.ipprefix (expand) -->
<g id="node10" class="node">
<title>[root] azurerm_public_ip_prefix.ipprefix (expand)</title>
<polygon fill="none" stroke="black" points="1414.61,-180 1207.61,-180 1207.61,-144 1414.61,-144 1414.61,-180"/>
<text text-anchor="middle" x="1311.11" y="-158.3" font-family="Times New Roman,serif" font-size="14.00">azurerm_public_ip_prefix.ipprefix</text>
</g>
<!-- [root] azurerm_public_ip_prefix.ipprefix (expand)&#45;&gt;[root] azurerm_resource_group.rg (expand) -->
<g id="edge15" class="edge">
<title>[root] azurerm_public_ip_prefix.ipprefix (expand)&#45;&gt;[root] azurerm_resource_group.rg (expand)</title>
<path fill="none" stroke="black" d="M1256.36,-143.97C1224.51,-134.06 1184.19,-121.51 1150.78,-111.12"/>
<polygon fill="black" stroke="black" points="1151.7,-107.74 1141.11,-108.11 1149.62,-114.42 1151.7,-107.74"/>
</g>
<!-- [root] provider[&quot;registry.terraform.io/hashicorp/azurerm&quot;] -->
<g id="node14" class="node">
<title>[root] provider[&quot;registry.terraform.io/hashicorp/azurerm&quot;]</title>
<polygon fill="none" stroke="black" points="917.11,-36 639.44,-18 917.11,0 1194.78,-18 917.11,-36"/>
<text text-anchor="middle" x="917.11" y="-14.3" font-family="Times New Roman,serif" font-size="14.00">provider[&quot;registry.terraform.io/hashicorp/azurerm&quot;]</text>
</g>
<!-- [root] azurerm_resource_group.rg (expand)&#45;&gt;[root] provider[&quot;registry.terraform.io/hashicorp/azurerm&quot;] -->
<g id="edge16" class="edge">
<title>[root] azurerm_resource_group.rg (expand)&#45;&gt;[root] provider[&quot;registry.terraform.io/hashicorp/azurerm&quot;]</title>
<path fill="none" stroke="black" d="M1044.77,-71.88C1019.81,-61.54 987.99,-48.36 962.36,-37.74"/>
<polygon fill="black" stroke="black" points="963.45,-34.41 952.87,-33.81 960.77,-40.87 963.45,-34.41"/>
</g>
<!-- [root] var.resource -->
<g id="node15" class="node">
<title>[root] var.resource</title>
<polygon fill="none" stroke="black" points="1293.11,-36 1213.11,-36 1213.11,0 1299.11,0 1299.11,-30 1293.11,-36"/>
<polyline fill="none" stroke="black" points="1293.11,-36 1293.11,-30 "/>
<polyline fill="none" stroke="black" points="1299.11,-30 1293.11,-30 "/>
<text text-anchor="middle" x="1256.11" y="-14.3" font-family="Times New Roman,serif" font-size="14.00">var.resource</text>
</g>
<!-- [root] azurerm_resource_group.rg (expand)&#45;&gt;[root] var.resource -->
<g id="edge17" class="edge">
<title>[root] azurerm_resource_group.rg (expand)&#45;&gt;[root] var.resource</title>
<path fill="none" stroke="black" d="M1127.7,-71.88C1151.14,-62.22 1180.61,-50.09 1205.41,-39.88"/>
<polygon fill="black" stroke="black" points="1206.74,-43.11 1214.66,-36.07 1204.08,-36.64 1206.74,-43.11"/>
</g>
<!-- [root] azurerm_virtual_network.vnet (expand) -->
<g id="node13" class="node">
<title>[root] azurerm_virtual_network.vnet (expand)</title>
<polygon fill="none" stroke="black" points="958.11,-180 776.11,-180 776.11,-144 958.11,-144 958.11,-180"/>
<text text-anchor="middle" x="867.11" y="-158.3" font-family="Times New Roman,serif" font-size="14.00">azurerm_virtual_network.vnet</text>
</g>
<!-- [root] azurerm_subnet.subnet (expand)&#45;&gt;[root] azurerm_virtual_network.vnet (expand) -->
<g id="edge18" class="edge">
<title>[root] azurerm_subnet.subnet (expand)&#45;&gt;[root] azurerm_virtual_network.vnet (expand)</title>
<path fill="none" stroke="black" d="M722.01,-287.87C751.25,-262.71 805.93,-215.65 839.17,-187.04"/>
<polygon fill="black" stroke="black" points="841.84,-189.37 847.14,-180.19 837.27,-184.06 841.84,-189.37"/>
</g>
<!-- [root] azurerm_virtual_network.vnet (expand)&#45;&gt;[root] azurerm_resource_group.rg (expand) -->
<g id="edge19" class="edge">
<title>[root] azurerm_virtual_network.vnet (expand)&#45;&gt;[root] azurerm_resource_group.rg (expand)</title>
<path fill="none" stroke="black" d="M920.4,-143.97C951.27,-134.1 990.31,-121.62 1022.74,-111.25"/>
<polygon fill="black" stroke="black" points="1024.12,-114.49 1032.58,-108.11 1021.99,-107.82 1024.12,-114.49"/>
</g>
<!-- [root] provider[&quot;registry.terraform.io/hashicorp/azurerm&quot;] (close) -->
<g id="node19" class="node">
<title>[root] provider[&quot;registry.terraform.io/hashicorp/azurerm&quot;] (close)</title>
<ellipse fill="none" stroke="black" cx="1072.11" cy="-522" rx="246.96" ry="18"/>
<text text-anchor="middle" x="1072.11" y="-518.3" font-family="Times New Roman,serif" font-size="14.00">[root] provider[&quot;registry.terraform.io/hashicorp/azurerm&quot;] (close)</text>
</g>
<!-- [root] provider[&quot;registry.terraform.io/hashicorp/azurerm&quot;] (close)&#45;&gt;[root] azurerm_lb_rule.lb_rule (expand) -->
<g id="edge20" class="edge">
<title>[root] provider[&quot;registry.terraform.io/hashicorp/azurerm&quot;] (close)&#45;&gt;[root] azurerm_lb_rule.lb_rule (expand)</title>
<path fill="none" stroke="black" d="M964,-505.76C893.59,-495.61 799.8,-481.68 717.11,-468 574.58,-444.42 409.37,-413.71 311.8,-395.22"/>
<polygon fill="black" stroke="black" points="312.17,-391.73 301.7,-393.3 310.87,-398.6 312.17,-391.73"/>
</g>
<!-- [root] provider[&quot;registry.terraform.io/hashicorp/azurerm&quot;] (close)&#45;&gt;[root] azurerm_monitor_autoscale_setting.autoscaler (expand) -->
<g id="edge21" class="edge">
<title>[root] provider[&quot;registry.terraform.io/hashicorp/azurerm&quot;] (close)&#45;&gt;[root] azurerm_monitor_autoscale_setting.autoscaler (expand)</title>
<path fill="none" stroke="black" d="M1022.55,-504.32C993.17,-494.43 955.71,-481.83 924.59,-471.36"/>
<polygon fill="black" stroke="black" points="925.33,-467.91 914.73,-468.04 923.09,-474.54 925.33,-467.91"/>
</g>
<!-- [root] provider[&quot;registry.terraform.io/hashicorp/azurerm&quot;] (close)&#45;&gt;[root] azurerm_nat_gateway.nat (expand) -->
<g id="edge22" class="edge">
<title>[root] provider[&quot;registry.terraform.io/hashicorp/azurerm&quot;] (close)&#45;&gt;[root] azurerm_nat_gateway.nat (expand)</title>
<path fill="none" stroke="black" d="M1072.11,-503.87C1072.11,-479.67 1072.11,-435.21 1072.11,-406.39"/>
<polygon fill="black" stroke="black" points="1075.61,-406.19 1072.11,-396.19 1068.61,-406.19 1075.61,-406.19"/>
</g>
<!-- [root] provider[&quot;registry.terraform.io/hashicorp/azurerm&quot;] (close)&#45;&gt;[root] azurerm_public_ip.natip (expand) -->
<g id="edge23" class="edge">
<title>[root] provider[&quot;registry.terraform.io/hashicorp/azurerm&quot;] (close)&#45;&gt;[root] azurerm_public_ip.natip (expand)</title>
<path fill="none" stroke="black" d="M1097.53,-504.05C1111.23,-494.92 1128.31,-483.53 1143.14,-473.65"/>
<polygon fill="black" stroke="black" points="1145.18,-476.49 1151.56,-468.03 1141.3,-470.67 1145.18,-476.49"/>
</g>
<!-- [root] provider[&quot;registry.terraform.io/hashicorp/azurerm&quot;] (close)&#45;&gt;[root] azurerm_public_ip_prefix.ipprefix (expand) -->
<g id="edge24" class="edge">
<title>[root] provider[&quot;registry.terraform.io/hashicorp/azurerm&quot;] (close)&#45;&gt;[root] azurerm_public_ip_prefix.ipprefix (expand)</title>
<path fill="none" stroke="black" d="M1190.32,-506.16C1216.36,-498.24 1242.11,-486.22 1262.11,-468 1293.41,-439.48 1296.11,-421.34 1296.11,-379 1296.11,-379 1296.11,-379 1296.11,-305 1296.11,-264.99 1302.07,-219 1306.48,-190.46"/>
<polygon fill="black" stroke="black" points="1309.96,-190.85 1308.07,-180.43 1303.05,-189.75 1309.96,-190.85"/>
</g>
<!-- [root] root -->
<g id="node20" class="node">
<title>[root] root</title>
<ellipse fill="none" stroke="black" cx="1072.11" cy="-594" rx="49.29" ry="18"/>
<text text-anchor="middle" x="1072.11" y="-590.3" font-family="Times New Roman,serif" font-size="14.00">[root] root</text>
</g>
<!-- [root] root&#45;&gt;[root] provider[&quot;registry.terraform.io/hashicorp/azurerm&quot;] (close) -->
<g id="edge25" class="edge">
<title>[root] root&#45;&gt;[root] provider[&quot;registry.terraform.io/hashicorp/azurerm&quot;] (close)</title>
<path fill="none" stroke="black" d="M1072.11,-575.7C1072.11,-567.98 1072.11,-558.71 1072.11,-550.11"/>
<polygon fill="black" stroke="black" points="1075.61,-550.1 1072.11,-540.1 1068.61,-550.1 1075.61,-550.1"/>
</g>
</g>
</svg>
