<?xml version="1.0" encoding="UTF-8" standalone="no"?>
<!DOCTYPE svg PUBLIC "-//W3C//DTD SVG 1.1//EN"
 "http://www.w3.org/Graphics/SVG/1.1/DTD/svg11.dtd">
<!-- Generated by graphviz version 2.49.3 (20211023.0002)
 -->
<!-- Pages: 1 -->
<svg width="1122pt" height="620pt"
 viewBox="0.00 0.00 1121.59 620.00" xmlns="http://www.w3.org/2000/svg" xmlns:xlink="http://www.w3.org/1999/xlink">
<g id="graph0" class="graph" transform="scale(1 1) rotate(0) translate(4 616)">
<polygon fill="white" stroke="transparent" points="-4,4 -4,-616 1117.59,-616 1117.59,4 -4,4"/>
<!-- [root] azurerm_lb.lb (expand) -->
<g id="node1" class="node">
<title>[root] azurerm_lb.lb (expand)</title>
<polygon fill="none" stroke="black" points="241.6,-252 148.6,-252 148.6,-216 241.6,-216 241.6,-252"/>
<text text-anchor="middle" x="195.1" y="-230.3" font-family="Times New Roman,serif" font-size="14.00">azurerm_lb.lb</text>
</g>
<!-- [root] azurerm_public_ip.ip (expand) -->
<g id="node7" class="node">
<title>[root] azurerm_public_ip.ip (expand)</title>
<polygon fill="none" stroke="black" points="361.6,-180 226.6,-180 226.6,-144 361.6,-144 361.6,-180"/>
<text text-anchor="middle" x="294.1" y="-158.3" font-family="Times New Roman,serif" font-size="14.00">azurerm_public_ip.ip</text>
</g>
<!-- [root] azurerm_lb.lb (expand)&#45;&gt;[root] azurerm_public_ip.ip (expand) -->
<g id="edge1" class="edge">
<title>[root] azurerm_lb.lb (expand)&#45;&gt;[root] azurerm_public_ip.ip (expand)</title>
<path fill="none" stroke="black" d="M219.32,-215.88C232.02,-206.89 247.76,-195.76 261.52,-186.03"/>
<polygon fill="black" stroke="black" points="263.64,-188.82 269.79,-180.19 259.6,-183.11 263.64,-188.82"/>
</g>
<!-- [root] azurerm_lb_backend_address_pool.backend_address_pool (expand) -->
<g id="node2" class="node">
<title>[root] azurerm_lb_backend_address_pool.backend_address_pool (expand)</title>
<polygon fill="none" stroke="black" points="371.6,-324 18.6,-324 18.6,-288 371.6,-288 371.6,-324"/>
<text text-anchor="middle" x="195.1" y="-302.3" font-family="Times New Roman,serif" font-size="14.00">azurerm_lb_backend_address_pool.backend_address_pool</text>
</g>
<!-- [root] azurerm_lb_backend_address_pool.backend_address_pool (expand)&#45;&gt;[root] azurerm_lb.lb (expand) -->
<g id="edge2" class="edge">
<title>[root] azurerm_lb_backend_address_pool.backend_address_pool (expand)&#45;&gt;[root] azurerm_lb.lb (expand)</title>
<path fill="none" stroke="black" d="M195.1,-287.7C195.1,-279.98 195.1,-270.71 195.1,-262.11"/>
<polygon fill="black" stroke="black" points="198.6,-262.1 195.1,-252.1 191.6,-262.1 198.6,-262.1"/>
</g>
<!-- [root] azurerm_lb_rule.lb_rule (expand) -->
<g id="node3" class="node">
<title>[root] azurerm_lb_rule.lb_rule (expand)</title>
<polygon fill="none" stroke="black" points="300.6,-396 151.6,-396 151.6,-360 300.6,-360 300.6,-396"/>
<text text-anchor="middle" x="226.1" y="-374.3" font-family="Times New Roman,serif" font-size="14.00">azurerm_lb_rule.lb_rule</text>
</g>
<!-- [root] azurerm_lb_rule.lb_rule (expand)&#45;&gt;[root] azurerm_lb.lb (expand) -->
<g id="edge3" class="edge">
<title>[root] azurerm_lb_rule.lb_rule (expand)&#45;&gt;[root] azurerm_lb.lb (expand)</title>
<path fill="none" stroke="black" d="M151.44,-368.59C95.87,-360.62 26.73,-346.46 9.1,-324 -29.38,-274.99 70.46,-251.48 138.31,-241.45"/>
<polygon fill="black" stroke="black" points="139.07,-244.88 148.48,-240.01 138.09,-237.95 139.07,-244.88"/>
</g>
<!-- [root] azurerm_linux_virtual_machine_scale_set.scaleset (expand) -->
<g id="node4" class="node">
<title>[root] azurerm_linux_virtual_machine_scale_set.scaleset (expand)</title>
<polygon fill="none" stroke="black" points="748.6,-396 453.6,-396 453.6,-360 748.6,-360 748.6,-396"/>
<text text-anchor="middle" x="601.1" y="-374.3" font-family="Times New Roman,serif" font-size="14.00">azurerm_linux_virtual_machine_scale_set.scaleset</text>
</g>
<!-- [root] azurerm_linux_virtual_machine_scale_set.scaleset (expand)&#45;&gt;[root] azurerm_lb_backend_address_pool.backend_address_pool (expand) -->
<g id="edge4" class="edge">
<title>[root] azurerm_linux_virtual_machine_scale_set.scaleset (expand)&#45;&gt;[root] azurerm_lb_backend_address_pool.backend_address_pool (expand)</title>
<path fill="none" stroke="black" d="M502.3,-359.97C442.38,-349.63 365.84,-336.44 304.15,-325.8"/>
<polygon fill="black" stroke="black" points="304.44,-322.3 293.99,-324.05 303.25,-329.2 304.44,-322.3"/>
</g>
<!-- [root] azurerm_network_security_group.sg (expand) -->
<g id="node6" class="node">
<title>[root] azurerm_network_security_group.sg (expand)</title>
<polygon fill="none" stroke="black" points="610.6,-324 389.6,-324 389.6,-288 610.6,-288 610.6,-324"/>
<text text-anchor="middle" x="500.1" y="-302.3" font-family="Times New Roman,serif" font-size="14.00">azurerm_network_security_group.sg</text>
</g>
<!-- [root] azurerm_linux_virtual_machine_scale_set.scaleset (expand)&#45;&gt;[root] azurerm_network_security_group.sg (expand) -->
<g id="edge5" class="edge">
<title>[root] azurerm_linux_virtual_machine_scale_set.scaleset (expand)&#45;&gt;[root] azurerm_network_security_group.sg (expand)</title>
<path fill="none" stroke="black" d="M576.39,-359.88C563.43,-350.89 547.37,-339.76 533.33,-330.03"/>
<polygon fill="black" stroke="black" points="535.11,-327.01 524.9,-324.19 531.13,-332.76 535.11,-327.01"/>
</g>
<!-- [root] azurerm_subnet.subnet (expand) -->
<g id="node9" class="node">
<title>[root] azurerm_subnet.subnet (expand)</title>
<polygon fill="none" stroke="black" points="775.1,-324 629.1,-324 629.1,-288 775.1,-288 775.1,-324"/>
<text text-anchor="middle" x="702.1" y="-302.3" font-family="Times New Roman,serif" font-size="14.00">azurerm_subnet.subnet</text>
</g>
<!-- [root] azurerm_linux_virtual_machine_scale_set.scaleset (expand)&#45;&gt;[root] azurerm_subnet.subnet (expand) -->
<g id="edge6" class="edge">
<title>[root] azurerm_linux_virtual_machine_scale_set.scaleset (expand)&#45;&gt;[root] azurerm_subnet.subnet (expand)</title>
<path fill="none" stroke="black" d="M625.81,-359.88C638.77,-350.89 654.83,-339.76 668.86,-330.03"/>
<polygon fill="black" stroke="black" points="671.07,-332.76 677.3,-324.19 667.08,-327.01 671.07,-332.76"/>
</g>
<!-- [root] var.vm -->
<g id="node14" class="node">
<title>[root] var.vm</title>
<polygon fill="none" stroke="black" points="842.6,-324 793.6,-324 793.6,-288 848.6,-288 848.6,-318 842.6,-324"/>
<polyline fill="none" stroke="black" points="842.6,-324 842.6,-318 "/>
<polyline fill="none" stroke="black" points="848.6,-318 842.6,-318 "/>
<text text-anchor="middle" x="821.1" y="-302.3" font-family="Times New Roman,serif" font-size="14.00">var.vm</text>
</g>
<!-- [root] azurerm_linux_virtual_machine_scale_set.scaleset (expand)&#45;&gt;[root] var.vm -->
<g id="edge8" class="edge">
<title>[root] azurerm_linux_virtual_machine_scale_set.scaleset (expand)&#45;&gt;[root] var.vm</title>
<path fill="none" stroke="black" d="M668.8,-359.97C703.66,-350.56 746.59,-337.96 784.1,-324 784.19,-323.96 784.29,-323.93 784.39,-323.89"/>
<polygon fill="black" stroke="black" points="785.44,-327.24 793.41,-320.26 782.82,-320.75 785.44,-327.24"/>
</g>
<!-- [root] local.user_data (expand) -->
<g id="node15" class="node">
<title>[root] local.user_data (expand)</title>
<ellipse fill="none" stroke="black" cx="990.1" cy="-306" rx="123.48" ry="18"/>
<text text-anchor="middle" x="990.1" y="-302.3" font-family="Times New Roman,serif" font-size="14.00">[root] local.user_data (expand)</text>
</g>
<!-- [root] azurerm_linux_virtual_machine_scale_set.scaleset (expand)&#45;&gt;[root] local.user_data (expand) -->
<g id="edge7" class="edge">
<title>[root] azurerm_linux_virtual_machine_scale_set.scaleset (expand)&#45;&gt;[root] local.user_data (expand)</title>
<path fill="none" stroke="black" d="M695.76,-359.97C759.78,-348.45 843.59,-333.36 905.4,-322.24"/>
<polygon fill="black" stroke="black" points="906.29,-325.64 915.51,-320.42 905.05,-318.75 906.29,-325.64"/>
</g>
<!-- [root] azurerm_monitor_autoscale_setting.autoscaler (expand) -->
<g id="node5" class="node">
<title>[root] azurerm_monitor_autoscale_setting.autoscaler (expand)</title>
<polygon fill="none" stroke="black" points="652.6,-468 377.6,-468 377.6,-432 652.6,-432 652.6,-468"/>
<text text-anchor="middle" x="515.1" y="-446.3" font-family="Times New Roman,serif" font-size="14.00">azurerm_monitor_autoscale_setting.autoscaler</text>
</g>
<!-- [root] azurerm_monitor_autoscale_setting.autoscaler (expand)&#45;&gt;[root] azurerm_linux_virtual_machine_scale_set.scaleset (expand) -->
<g id="edge9" class="edge">
<title>[root] azurerm_monitor_autoscale_setting.autoscaler (expand)&#45;&gt;[root] azurerm_linux_virtual_machine_scale_set.scaleset (expand)</title>
<path fill="none" stroke="black" d="M536.36,-431.7C547.19,-422.88 560.52,-412.03 572.26,-402.47"/>
<polygon fill="black" stroke="black" points="574.54,-405.13 580.09,-396.1 570.12,-399.7 574.54,-405.13"/>
</g>
<!-- [root] azurerm_resource_group.rg (expand) -->
<g id="node8" class="node">
<title>[root] azurerm_resource_group.rg (expand)</title>
<polygon fill="none" stroke="black" points="543.1,-108 371.1,-108 371.1,-72 543.1,-72 543.1,-108"/>
<text text-anchor="middle" x="457.1" y="-86.3" font-family="Times New Roman,serif" font-size="14.00">azurerm_resource_group.rg</text>
</g>
<!-- [root] azurerm_network_security_group.sg (expand)&#45;&gt;[root] azurerm_resource_group.rg (expand) -->
<g id="edge10" class="edge">
<title>[root] azurerm_network_security_group.sg (expand)&#45;&gt;[root] azurerm_resource_group.rg (expand)</title>
<path fill="none" stroke="black" d="M490.7,-287.84C485.56,-277.71 479.56,-264.46 476.1,-252 463.36,-206.2 459.16,-150.75 457.78,-118.32"/>
<polygon fill="black" stroke="black" points="461.27,-118.12 457.41,-108.25 454.28,-118.38 461.27,-118.12"/>
</g>
<!-- [root] var.source_ip -->
<g id="node13" class="node">
<title>[root] var.source_ip</title>
<polygon fill="none" stroke="black" points="572.6,-252 485.6,-252 485.6,-216 578.6,-216 578.6,-246 572.6,-252"/>
<polyline fill="none" stroke="black" points="572.6,-252 572.6,-246 "/>
<polyline fill="none" stroke="black" points="578.6,-246 572.6,-246 "/>
<text text-anchor="middle" x="532.1" y="-230.3" font-family="Times New Roman,serif" font-size="14.00">var.source_ip</text>
</g>
<!-- [root] azurerm_network_security_group.sg (expand)&#45;&gt;[root] var.source_ip -->
<g id="edge11" class="edge">
<title>[root] azurerm_network_security_group.sg (expand)&#45;&gt;[root] var.source_ip</title>
<path fill="none" stroke="black" d="M508.01,-287.7C511.65,-279.73 516.05,-270.1 520.09,-261.26"/>
<polygon fill="black" stroke="black" points="523.31,-262.65 524.28,-252.1 516.94,-259.74 523.31,-262.65"/>
</g>
<!-- [root] azurerm_public_ip.ip (expand)&#45;&gt;[root] azurerm_resource_group.rg (expand) -->
<g id="edge12" class="edge">
<title>[root] azurerm_public_ip.ip (expand)&#45;&gt;[root] azurerm_resource_group.rg (expand)</title>
<path fill="none" stroke="black" d="M333.97,-143.88C356.26,-134.31 384.21,-122.3 407.86,-112.15"/>
<polygon fill="black" stroke="black" points="409.55,-115.23 417.35,-108.07 406.78,-108.8 409.55,-115.23"/>
</g>
<!-- [root] provider[&quot;registry.terraform.io/hashicorp/azurerm&quot;] -->
<g id="node11" class="node">
<title>[root] provider[&quot;registry.terraform.io/hashicorp/azurerm&quot;]</title>
<polygon fill="none" stroke="black" points="288.1,-36 10.43,-18 288.1,0 565.77,-18 288.1,-36"/>
<text text-anchor="middle" x="288.1" y="-14.3" font-family="Times New Roman,serif" font-size="14.00">provider[&quot;registry.terraform.io/hashicorp/azurerm&quot;]</text>
</g>
<!-- [root] azurerm_resource_group.rg (expand)&#45;&gt;[root] provider[&quot;registry.terraform.io/hashicorp/azurerm&quot;] -->
<g id="edge13" class="edge">
<title>[root] azurerm_resource_group.rg (expand)&#45;&gt;[root] provider[&quot;registry.terraform.io/hashicorp/azurerm&quot;]</title>
<path fill="none" stroke="black" d="M415.76,-71.88C390.8,-61.54 358.98,-48.36 333.35,-37.74"/>
<polygon fill="black" stroke="black" points="334.44,-34.41 323.86,-33.81 331.76,-40.87 334.44,-34.41"/>
</g>
<!-- [root] var.resource -->
<g id="node12" class="node">
<title>[root] var.resource</title>
<polygon fill="none" stroke="black" points="664.1,-36 584.1,-36 584.1,0 670.1,0 670.1,-30 664.1,-36"/>
<polyline fill="none" stroke="black" points="664.1,-36 664.1,-30 "/>
<polyline fill="none" stroke="black" points="670.1,-30 664.1,-30 "/>
<text text-anchor="middle" x="627.1" y="-14.3" font-family="Times New Roman,serif" font-size="14.00">var.resource</text>
</g>
<!-- [root] azurerm_resource_group.rg (expand)&#45;&gt;[root] var.resource -->
<g id="edge14" class="edge">
<title>[root] azurerm_resource_group.rg (expand)&#45;&gt;[root] var.resource</title>
<path fill="none" stroke="black" d="M498.69,-71.88C522.13,-62.22 551.6,-50.09 576.4,-39.88"/>
<polygon fill="black" stroke="black" points="577.73,-43.11 585.65,-36.07 575.07,-36.64 577.73,-43.11"/>
</g>
<!-- [root] azurerm_virtual_network.vnet (expand) -->
<g id="node10" class="node">
<title>[root] azurerm_virtual_network.vnet (expand)</title>
<polygon fill="none" stroke="black" points="682.1,-180 500.1,-180 500.1,-144 682.1,-144 682.1,-180"/>
<text text-anchor="middle" x="591.1" y="-158.3" font-family="Times New Roman,serif" font-size="14.00">azurerm_virtual_network.vnet</text>
</g>
<!-- [root] azurerm_subnet.subnet (expand)&#45;&gt;[root] azurerm_virtual_network.vnet (expand) -->
<g id="edge15" class="edge">
<title>[root] azurerm_subnet.subnet (expand)&#45;&gt;[root] azurerm_virtual_network.vnet (expand)</title>
<path fill="none" stroke="black" d="M688.71,-287.87C669.29,-263.03 633.19,-216.85 610.75,-188.14"/>
<polygon fill="black" stroke="black" points="613.45,-185.91 604.54,-180.19 607.94,-190.22 613.45,-185.91"/>
</g>
<!-- [root] azurerm_virtual_network.vnet (expand)&#45;&gt;[root] azurerm_resource_group.rg (expand) -->
<g id="edge16" class="edge">
<title>[root] azurerm_virtual_network.vnet (expand)&#45;&gt;[root] azurerm_resource_group.rg (expand)</title>
<path fill="none" stroke="black" d="M558.32,-143.88C540.47,-134.55 518.2,-122.92 499.1,-112.94"/>
<polygon fill="black" stroke="black" points="500.49,-109.72 490.01,-108.19 497.25,-115.92 500.49,-109.72"/>
</g>
<!-- [root] provider[&quot;registry.terraform.io/hashicorp/azurerm&quot;] (close) -->
<g id="node16" class="node">
<title>[root] provider[&quot;registry.terraform.io/hashicorp/azurerm&quot;] (close)</title>
<ellipse fill="none" stroke="black" cx="346.1" cy="-522" rx="246.96" ry="18"/>
<text text-anchor="middle" x="346.1" y="-518.3" font-family="Times New Roman,serif" font-size="14.00">[root] provider[&quot;registry.terraform.io/hashicorp/azurerm&quot;] (close)</text>
</g>
<!-- [root] provider[&quot;registry.terraform.io/hashicorp/azurerm&quot;] (close)&#45;&gt;[root] azurerm_lb_rule.lb_rule (expand) -->
<g id="edge17" class="edge">
<title>[root] provider[&quot;registry.terraform.io/hashicorp/azurerm&quot;] (close)&#45;&gt;[root] azurerm_lb_rule.lb_rule (expand)</title>
<path fill="none" stroke="black" d="M331.62,-503.87C310.63,-479.03 271.6,-432.85 247.35,-404.14"/>
<polygon fill="black" stroke="black" points="249.75,-401.57 240.63,-396.19 244.41,-406.09 249.75,-401.57"/>
</g>
<!-- [root] provider[&quot;registry.terraform.io/hashicorp/azurerm&quot;] (close)&#45;&gt;[root] azurerm_monitor_autoscale_setting.autoscaler (expand) -->
<g id="edge18" class="edge">
<title>[root] provider[&quot;registry.terraform.io/hashicorp/azurerm&quot;] (close)&#45;&gt;[root] azurerm_monitor_autoscale_setting.autoscaler (expand)</title>
<path fill="none" stroke="black" d="M386.58,-504.23C409.96,-494.55 439.57,-482.28 464.48,-471.97"/>
<polygon fill="black" stroke="black" points="465.88,-475.18 473.78,-468.12 463.2,-468.71 465.88,-475.18"/>
</g>
<!-- [root] root -->
<g id="node17" class="node">
<title>[root] root</title>
<ellipse fill="none" stroke="black" cx="346.1" cy="-594" rx="49.29" ry="18"/>
<text text-anchor="middle" x="346.1" y="-590.3" font-family="Times New Roman,serif" font-size="14.00">[root] root</text>
</g>
<!-- [root] root&#45;&gt;[root] provider[&quot;registry.terraform.io/hashicorp/azurerm&quot;] (close) -->
<g id="edge19" class="edge">
<title>[root] root&#45;&gt;[root] provider[&quot;registry.terraform.io/hashicorp/azurerm&quot;] (close)</title>
<path fill="none" stroke="black" d="M346.1,-575.7C346.1,-567.98 346.1,-558.71 346.1,-550.11"/>
<polygon fill="black" stroke="black" points="349.6,-550.1 346.1,-540.1 342.6,-550.1 349.6,-550.1"/>
</g>
</g>
</svg>
