<?xml version="1.0" encoding="UTF-8" standalone="no"?>
<!DOCTYPE svg PUBLIC "-//W3C//DTD SVG 1.1//EN"
 "http://www.w3.org/Graphics/SVG/1.1/DTD/svg11.dtd">
<!-- Generated by graphviz version 2.49.3 (20211023.0002)
 -->
<!-- Pages: 1 -->
<svg width="736pt" height="548pt"
 viewBox="0.00 0.00 735.56 548.00" xmlns="http://www.w3.org/2000/svg" xmlns:xlink="http://www.w3.org/1999/xlink">
<g id="graph0" class="graph" transform="scale(1 1) rotate(0) translate(4 544)">
<polygon fill="white" stroke="transparent" points="-4,4 -4,-544 731.56,-544 731.56,4 -4,4"/>
<!-- [root] azurerm_linux_virtual_machine_scale_set.scaleset (expand) -->
<g id="node1" class="node">
<title>[root] azurerm_linux_virtual_machine_scale_set.scaleset (expand)</title>
<polygon fill="none" stroke="black" points="499.09,-324 204.09,-324 204.09,-288 499.09,-288 499.09,-324"/>
<text text-anchor="middle" x="351.59" y="-302.3" font-family="Times New Roman,serif" font-size="14.00">azurerm_linux_virtual_machine_scale_set.scaleset</text>
</g>
<!-- [root] azurerm_subnet.subnet (expand) -->
<g id="node5" class="node">
<title>[root] azurerm_subnet.subnet (expand)</title>
<polygon fill="none" stroke="black" points="424.59,-252 278.59,-252 278.59,-216 424.59,-216 424.59,-252"/>
<text text-anchor="middle" x="351.59" y="-230.3" font-family="Times New Roman,serif" font-size="14.00">azurerm_subnet.subnet</text>
</g>
<!-- [root] azurerm_linux_virtual_machine_scale_set.scaleset (expand)&#45;&gt;[root] azurerm_subnet.subnet (expand) -->
<g id="edge1" class="edge">
<title>[root] azurerm_linux_virtual_machine_scale_set.scaleset (expand)&#45;&gt;[root] azurerm_subnet.subnet (expand)</title>
<path fill="none" stroke="black" d="M351.59,-287.7C351.59,-279.98 351.59,-270.71 351.59,-262.11"/>
<polygon fill="black" stroke="black" points="355.09,-262.1 351.59,-252.1 348.09,-262.1 355.09,-262.1"/>
</g>
<!-- [root] var.vm -->
<g id="node10" class="node">
<title>[root] var.vm</title>
<polygon fill="none" stroke="black" points="492.09,-252 443.09,-252 443.09,-216 498.09,-216 498.09,-246 492.09,-252"/>
<polyline fill="none" stroke="black" points="492.09,-252 492.09,-246 "/>
<polyline fill="none" stroke="black" points="498.09,-246 492.09,-246 "/>
<text text-anchor="middle" x="470.59" y="-230.3" font-family="Times New Roman,serif" font-size="14.00">var.vm</text>
</g>
<!-- [root] azurerm_linux_virtual_machine_scale_set.scaleset (expand)&#45;&gt;[root] var.vm -->
<g id="edge2" class="edge">
<title>[root] azurerm_linux_virtual_machine_scale_set.scaleset (expand)&#45;&gt;[root] var.vm</title>
<path fill="none" stroke="black" d="M380.7,-287.88C396.87,-278.36 417.13,-266.44 434.33,-256.33"/>
<polygon fill="black" stroke="black" points="436.16,-259.31 443,-251.23 432.61,-253.28 436.16,-259.31"/>
</g>
<!-- [root] azurerm_monitor_autoscale_setting.autoscaler (expand) -->
<g id="node2" class="node">
<title>[root] azurerm_monitor_autoscale_setting.autoscaler (expand)</title>
<polygon fill="none" stroke="black" points="485.09,-396 210.09,-396 210.09,-360 485.09,-360 485.09,-396"/>
<text text-anchor="middle" x="347.59" y="-374.3" font-family="Times New Roman,serif" font-size="14.00">azurerm_monitor_autoscale_setting.autoscaler</text>
</g>
<!-- [root] azurerm_monitor_autoscale_setting.autoscaler (expand)&#45;&gt;[root] azurerm_linux_virtual_machine_scale_set.scaleset (expand) -->
<g id="edge3" class="edge">
<title>[root] azurerm_monitor_autoscale_setting.autoscaler (expand)&#45;&gt;[root] azurerm_linux_virtual_machine_scale_set.scaleset (expand)</title>
<path fill="none" stroke="black" d="M348.57,-359.7C349.02,-351.98 349.54,-342.71 350.04,-334.11"/>
<polygon fill="black" stroke="black" points="353.53,-334.29 350.61,-324.1 346.54,-333.89 353.53,-334.29"/>
</g>
<!-- [root] azurerm_network_security_group.sg (expand) -->
<g id="node3" class="node">
<title>[root] azurerm_network_security_group.sg (expand)</title>
<polygon fill="none" stroke="black" points="724.09,-396 503.09,-396 503.09,-360 724.09,-360 724.09,-396"/>
<text text-anchor="middle" x="613.59" y="-374.3" font-family="Times New Roman,serif" font-size="14.00">azurerm_network_security_group.sg</text>
</g>
<!-- [root] azurerm_resource_group.rg (expand) -->
<g id="node4" class="node">
<title>[root] azurerm_resource_group.rg (expand)</title>
<polygon fill="none" stroke="black" points="532.59,-108 360.59,-108 360.59,-72 532.59,-72 532.59,-108"/>
<text text-anchor="middle" x="446.59" y="-86.3" font-family="Times New Roman,serif" font-size="14.00">azurerm_resource_group.rg</text>
</g>
<!-- [root] azurerm_network_security_group.sg (expand)&#45;&gt;[root] azurerm_resource_group.rg (expand) -->
<g id="edge4" class="edge">
<title>[root] azurerm_network_security_group.sg (expand)&#45;&gt;[root] azurerm_resource_group.rg (expand)</title>
<path fill="none" stroke="black" d="M591.11,-359.78C579.84,-350.23 566.7,-337.55 557.59,-324 509.69,-252.77 529.84,-218.72 487.59,-144 482.17,-134.43 475.17,-124.7 468.49,-116.24"/>
<polygon fill="black" stroke="black" points="471.01,-113.8 461.98,-108.25 465.58,-118.22 471.01,-113.8"/>
</g>
<!-- [root] var.source_ip -->
<g id="node9" class="node">
<title>[root] var.source_ip</title>
<polygon fill="none" stroke="black" points="654.09,-324 567.09,-324 567.09,-288 660.09,-288 660.09,-318 654.09,-324"/>
<polyline fill="none" stroke="black" points="654.09,-324 654.09,-318 "/>
<polyline fill="none" stroke="black" points="660.09,-318 654.09,-318 "/>
<text text-anchor="middle" x="613.59" y="-302.3" font-family="Times New Roman,serif" font-size="14.00">var.source_ip</text>
</g>
<!-- [root] azurerm_network_security_group.sg (expand)&#45;&gt;[root] var.source_ip -->
<g id="edge5" class="edge">
<title>[root] azurerm_network_security_group.sg (expand)&#45;&gt;[root] var.source_ip</title>
<path fill="none" stroke="black" d="M613.59,-359.7C613.59,-351.98 613.59,-342.71 613.59,-334.11"/>
<polygon fill="black" stroke="black" points="617.09,-334.1 613.59,-324.1 610.09,-334.1 617.09,-334.1"/>
</g>
<!-- [root] provider[&quot;registry.terraform.io/hashicorp/azurerm&quot;] -->
<g id="node7" class="node">
<title>[root] provider[&quot;registry.terraform.io/hashicorp/azurerm&quot;]</title>
<polygon fill="none" stroke="black" points="277.59,-36 -0.09,-18 277.59,0 555.26,-18 277.59,-36"/>
<text text-anchor="middle" x="277.59" y="-14.3" font-family="Times New Roman,serif" font-size="14.00">provider[&quot;registry.terraform.io/hashicorp/azurerm&quot;]</text>
</g>
<!-- [root] azurerm_resource_group.rg (expand)&#45;&gt;[root] provider[&quot;registry.terraform.io/hashicorp/azurerm&quot;] -->
<g id="edge6" class="edge">
<title>[root] azurerm_resource_group.rg (expand)&#45;&gt;[root] provider[&quot;registry.terraform.io/hashicorp/azurerm&quot;]</title>
<path fill="none" stroke="black" d="M405.24,-71.88C380.29,-61.54 348.47,-48.36 322.84,-37.74"/>
<polygon fill="black" stroke="black" points="323.93,-34.41 313.35,-33.81 321.25,-40.87 323.93,-34.41"/>
</g>
<!-- [root] var.resource -->
<g id="node8" class="node">
<title>[root] var.resource</title>
<polygon fill="none" stroke="black" points="653.59,-36 573.59,-36 573.59,0 659.59,0 659.59,-30 653.59,-36"/>
<polyline fill="none" stroke="black" points="653.59,-36 653.59,-30 "/>
<polyline fill="none" stroke="black" points="659.59,-30 653.59,-30 "/>
<text text-anchor="middle" x="616.59" y="-14.3" font-family="Times New Roman,serif" font-size="14.00">var.resource</text>
</g>
<!-- [root] azurerm_resource_group.rg (expand)&#45;&gt;[root] var.resource -->
<g id="edge7" class="edge">
<title>[root] azurerm_resource_group.rg (expand)&#45;&gt;[root] var.resource</title>
<path fill="none" stroke="black" d="M488.17,-71.88C511.62,-62.22 541.09,-50.09 565.88,-39.88"/>
<polygon fill="black" stroke="black" points="567.22,-43.11 575.13,-36.07 564.55,-36.64 567.22,-43.11"/>
</g>
<!-- [root] azurerm_virtual_network.vnet (expand) -->
<g id="node6" class="node">
<title>[root] azurerm_virtual_network.vnet (expand)</title>
<polygon fill="none" stroke="black" points="478.59,-180 296.59,-180 296.59,-144 478.59,-144 478.59,-180"/>
<text text-anchor="middle" x="387.59" y="-158.3" font-family="Times New Roman,serif" font-size="14.00">azurerm_virtual_network.vnet</text>
</g>
<!-- [root] azurerm_subnet.subnet (expand)&#45;&gt;[root] azurerm_virtual_network.vnet (expand) -->
<g id="edge8" class="edge">
<title>[root] azurerm_subnet.subnet (expand)&#45;&gt;[root] azurerm_virtual_network.vnet (expand)</title>
<path fill="none" stroke="black" d="M360.48,-215.7C364.58,-207.73 369.53,-198.1 374.08,-189.26"/>
<polygon fill="black" stroke="black" points="377.33,-190.6 378.79,-180.1 371.1,-187.4 377.33,-190.6"/>
</g>
<!-- [root] azurerm_virtual_network.vnet (expand)&#45;&gt;[root] azurerm_resource_group.rg (expand) -->
<g id="edge9" class="edge">
<title>[root] azurerm_virtual_network.vnet (expand)&#45;&gt;[root] azurerm_resource_group.rg (expand)</title>
<path fill="none" stroke="black" d="M402.17,-143.7C409.24,-135.3 417.87,-125.07 425.63,-115.86"/>
<polygon fill="black" stroke="black" points="428.4,-118.01 432.17,-108.1 423.05,-113.49 428.4,-118.01"/>
</g>
<!-- [root] provider[&quot;registry.terraform.io/hashicorp/azurerm&quot;] (close) -->
<g id="node11" class="node">
<title>[root] provider[&quot;registry.terraform.io/hashicorp/azurerm&quot;] (close)</title>
<ellipse fill="none" stroke="black" cx="480.59" cy="-450" rx="246.96" ry="18"/>
<text text-anchor="middle" x="480.59" y="-446.3" font-family="Times New Roman,serif" font-size="14.00">[root] provider[&quot;registry.terraform.io/hashicorp/azurerm&quot;] (close)</text>
</g>
<!-- [root] provider[&quot;registry.terraform.io/hashicorp/azurerm&quot;] (close)&#45;&gt;[root] azurerm_monitor_autoscale_setting.autoscaler (expand) -->
<g id="edge10" class="edge">
<title>[root] provider[&quot;registry.terraform.io/hashicorp/azurerm&quot;] (close)&#45;&gt;[root] azurerm_monitor_autoscale_setting.autoscaler (expand)</title>
<path fill="none" stroke="black" d="M448.39,-432.05C430.55,-422.67 408.18,-410.89 389.04,-400.82"/>
<polygon fill="black" stroke="black" points="390.42,-397.59 379.95,-396.03 387.16,-403.79 390.42,-397.59"/>
</g>
<!-- [root] provider[&quot;registry.terraform.io/hashicorp/azurerm&quot;] (close)&#45;&gt;[root] azurerm_network_security_group.sg (expand) -->
<g id="edge11" class="edge">
<title>[root] provider[&quot;registry.terraform.io/hashicorp/azurerm&quot;] (close)&#45;&gt;[root] azurerm_network_security_group.sg (expand)</title>
<path fill="none" stroke="black" d="M512.78,-432.05C530.62,-422.67 552.99,-410.89 572.13,-400.82"/>
<polygon fill="black" stroke="black" points="574.01,-403.79 581.23,-396.03 570.75,-397.59 574.01,-403.79"/>
</g>
<!-- [root] root -->
<g id="node12" class="node">
<title>[root] root</title>
<ellipse fill="none" stroke="black" cx="480.59" cy="-522" rx="49.29" ry="18"/>
<text text-anchor="middle" x="480.59" y="-518.3" font-family="Times New Roman,serif" font-size="14.00">[root] root</text>
</g>
<!-- [root] root&#45;&gt;[root] provider[&quot;registry.terraform.io/hashicorp/azurerm&quot;] (close) -->
<g id="edge12" class="edge">
<title>[root] root&#45;&gt;[root] provider[&quot;registry.terraform.io/hashicorp/azurerm&quot;] (close)</title>
<path fill="none" stroke="black" d="M480.59,-503.7C480.59,-495.98 480.59,-486.71 480.59,-478.11"/>
<polygon fill="black" stroke="black" points="484.09,-478.1 480.59,-468.1 477.09,-478.1 484.09,-478.1"/>
</g>
</g>
</svg>
